<?xml version="1.0" encoding="UTF-8"?>
<svg id="Layer_2" data-name="Layer 2" xmlns="http://www.w3.org/2000/svg" width="75mm" height="35mm" viewBox="0 0 212.59843 99.2126">
  <defs>
    <style>
      .cls-1 {
        fill: #231f20;
      }
    </style>
  </defs>
  <path class="cls-1" d="M73.71546,51.13478v1.05934s-4.17855,0-4.17855,0v-6.88578s1.05935,0,1.05935,0v5.82642h3.1192s0,.00002,0,.00002ZM79.01221,51.13478h-3.29576s-.47082,1.05934-.47082,1.05934h-1.17706s3.2369-7.06234,3.2369-7.06234h0l3.23691,7.06233h-1.17706s-.47082-1.05934-.47082-1.05934h.1177ZM78.60024,50.25199l-1.23591-2.70723-1.23591,2.70723s2.47182,0,2.47182,0ZM80.77779,51.01709l.88279-.58853c.29426.52967.88279.82393,1.53017.82393s1.35361-.35312,1.35361-.88279-.88279-1.0005-1.70673-1.35361c-.82394-.35312-1.70673-.76508-1.70673-1.8833s1.0005-1.94214,2.2364-1.94214,1.70673.47081,2.001,1.23591l-.82394.52967c-.23541-.47081-.70623-.70624-1.17706-.70624s-1.1182.41198-1.1182.88279.64738.70624,1.47132,1.1182c1.1182.47081,1.94214,1.0005,1.94214,2.1187s-1.05935,2.00099-2.47182,2.00099-2.001-.52967-2.41296-1.35361ZM90.19424,52.19414l-2.53067-3.35461v3.35462s-1.05935,0-1.05935,0v-6.88578s1.05935,0,1.05935,0v3.29576s2.35411-3.29576,2.35411-3.29576h1.23591s-2.47182,3.41346-2.47182,3.41346l2.70723,3.53117h-1.29476s0-.05884,0-.05884ZM96.8446,49.78117c0,1.47132-1.1182,2.47182-2.53067,2.47183s-2.001-.58853-2.35411-1.47132l1.05935-.35312c.23541.41198.76509.70624,1.23591.70624.70623,0,1.47132-.47082,1.47132-1.41246s-.58853-1.35361-1.41247-1.35361-1.23591.29426-1.53017.82394l-.58853-.35312.52967-3.59002h3.53117s0,1.05934,0,1.05934h-2.76608s-.23541,1.41246-.23541,1.41246c.29426-.29426.70623-.41198,1.17706-.41198,1.47132,0,2.41296,1.0005,2.41296,2.41297h0v.05886ZM106.26105,45.30835l-3.17805,7.06234h0l-3.17805-7.06233h1.17706s2.05985,4.64936,2.05985,4.64936l2.05985-4.64937h1.17706s-.1177,0-.1177,0ZM111.91091,51.13477v1.05934s-5.17905,0-5.17905,0v-.23541c2.82493-2.29526,4.00199-3.47231,4.00199-4.3551s-.64738-1.35361-1.29476-1.35361-1.47132.64738-1.47132,1.47132l-1.0005-.23541c0-1.29477,1.05935-2.29526,2.41296-2.29526s2.41296,1.1182,2.41296,2.41297-1.23591,2.53066-2.76608,3.53117h2.88379v-.00002ZM112.73485,51.66446c0-.41198.35312-.70624.70623-.70624s.70623.35312.70623.70624-.35312.70624-.70623.70624-.70623-.35312-.70623-.70624ZM117.0311,45.24948v6.94462s-1.05935,0-1.05935,0v-5.59101s-.94165.29426-.94165.29426v-1.1182s1.70673-.52967,1.70673-.52967h.29426ZM84.72092,32.36074c0-5.76757,4.53166-10.47579,10.12267-10.47579,5.59101,0,10.12268,4.70822,10.12268,10.47578,0,5.76757-4.59051,10.3581-10.18153,10.3581-5.59101,0-10.12268-4.64936-10.12268-10.35809h.05886ZM101.02314,32.36074c0-3.53117-2.76608-6.35609-6.17955-6.35609-3.41346,0-6.17954,2.88379-6.17954,6.3561s2.76608,6.29725,6.17955,6.29725,6.17954-2.82493,6.17954-6.29726ZM127.15378,42.89537h-4.94364s0-7.53315,0-7.53315l-4.82592,7.18005h-.58853s-.17656-.23541-.17656-.23541l-4.64937-6.94462v7.53315s-4.94363,0-4.94363,0v-21.59898s1.00048,0,1.00048,0l9.06334,12.8299,9.06332-12.8299h1.0005s.00001,21.59898.00001,21.59898h0v-.00002ZM123.21064,41.83603h2.88379s0-18.65634,0-18.65634l-9.00447,12.77107-9.00448-12.77106v18.65634s2.8838,0,2.8838,0v-9.94612s6.17954,9.18104,6.17954,9.18104l6.12069-9.18104v9.94612h0-.05885ZM70.89052,42.83656l-.82394-.82394.11771-.11771.82394.82394-.11771.11771ZM71.83216,41.89491l-.82394-.82394.82394-.82394.82394.82394-.82394.82394ZM73.48004,40.18818l-.82394-.82394.82394-.82394.82394.82394-.82394.82394ZM75.12792,38.48143l-.82394-.82394.82394-.82394.82394.82394-.82394.82394ZM76.77579,36.77471l-.82394-.82394.82394-.82394.82394.82394-.82394.82394ZM78.42367,35.06798l-.82394-.82394.82394-.82394.82394.82394-.82394.82394ZM80.01269,33.42011l-.82394-.82394.82394-.82394.82394.82394-.82394.82394ZM81.66057,31.71336l-.82394-.82394.82394-.82394.82394.82394-.82394.82394ZM83.30845,30.00663l-.82394-.82394.82394-.82394.82394.82394-.82394.82394ZM84.95633,28.29991l-.82394-.82394.82394-.82394.82394.82394-.82394.82394ZM86.6042,26.59318l-.82394-.82394.82394-.82394.82394.82394-.82394.82394ZM88.25208,24.88645l-.82394-.82394.82394-.82394.82394.82394-.82394.82394ZM89.84111,23.1797l-.82394-.82394.82394-.82394.82394.82394-.82394.82394ZM106.14334,42.89538l-36.66528.00002,10.06381-27.5431,1.05935.35312-9.41643,26.01293,34.95855-.00002v1.17706ZM90.66504,19.76625c-1.0005-.88279-3.59002-3.00149-6.2384-4.2374h1.35361c0-.05886-.17656-.88279-.17656-.88279l-3.1192.17655h0l1.70673,3.17805.70623-.41198-.64738-1.17706c2.41296,1.17705,4.76708,3.17804,5.76757,3.94314l.17656.17655.52968-.64738-.17656-.17655h.11771s0,.05887,0,.05887Z"/>
  <path class="cls-1" d="M145.40292,31.18125c0-1.524,1.22766-2.75166,2.75166-2.75166s2.75166,1.22766,2.75166,2.75166-1.22766,2.75166-2.75166,2.75166-2.75166-1.22766-2.75166-2.75166ZM150.05959,31.18125c0-1.05833-.84667-1.905-1.905-1.905s-1.905.84667-1.905,1.905.84667,1.905,1.905,1.905,1.905-.84667,1.905-1.905ZM151.66825,28.51426h1.778c1.016,0,1.86266.80433,1.86266,1.778s-.84667,1.73567-1.86266,1.73567h-.93134v1.86266h-.84667v-5.334h0v-.04234ZM154.50458,30.29225c0-.508-.46567-.93134-1.05833-.93134h-.93134v1.82033h.93134c.59266,0,1.05833-.381,1.05833-.889h0ZM156.83291,29.36092v1.35467h2.03199v.84667h-2.03199v1.48167h2.32833v.84667h-3.175v-5.334h3.175v.80433h-2.32833ZM164.3259,28.51426v5.41866h0l-3.429-3.55599v3.47134h-.84667v-5.41866h.04234l3.38666,3.55599v-3.47134h.84667ZM172.79256,34.05991h-1.27v-2.413l-1.43933,2.32833h-.254l-.08467-.08467-1.39699-2.24366v2.413h-1.27v-5.88433h.381l2.45533,3.683,2.413-3.683h.381v5.88433h.08467ZM171.94589,33.63658h.42333v-4.61433l-2.413,3.64067-2.413-3.64067v4.61433h.42333v-3.51366l1.98967,3.21733,1.98967-3.21733v3.47134h0v.04232ZM175.54422,34.14458c-1.27,0-2.24366-1.016-2.24366-2.32833v-3.51366h1.27v3.51366c0,.59266.42333,1.05833.97366,1.05833s.97366-.46567.97366-1.05833v-3.51366h1.27v3.51366c0,1.31233-.97366,2.32833-2.24366,2.32833ZM173.76623,28.72592v3.09033c0,1.10067.76199,1.905,1.82033,1.905s1.82033-.80433,1.82033-1.905v-3.09033h-.42333v3.09033c0,.84667-.59266,1.48167-1.39699,1.48167s-1.39699-.635-1.39699-1.48167v-3.09033h-.42333ZM180.07389,34.14458c-.93134,0-1.69333-.42333-2.03199-1.143l-.08467-.16933,1.016-.71967.12699.21167c.21167.33866.55033.55033,1.016.55033s.84667-.21167.84667-.46567-.635-.635-1.18533-.84667c-.635-.29634-1.48167-.635-1.48167-1.651s.84667-1.69333,1.94733-1.69333,1.48167.42333,1.73567,1.10067v.16933c.04234,0-.889.67734-.889.67734l-.08467-.21167c-.12699-.254-.42333-.42333-.71967-.42333s-.67734.21167-.67734.46567.254.33866.80433.55033l.21167.08467c.80433.33866,1.60866.80433,1.60866,1.82033s-.889,1.778-2.11666,1.778v-.08467h-.04231ZM178.50755,32.95925c.29634.46567.889.76199,1.56634.76199,1.016,0,1.69333-.55033,1.69333-1.35467s-.508-1.05833-1.35467-1.43933l-.21167-.08467c-.55033-.254-1.05833-.42333-1.05833-.93134s.46567-.889,1.10067-.889.76199.16933.97366.46567l.29634-.21167c-.21167-.42333-.67734-.67734-1.27-.67734-.889,0-1.524.55033-1.524,1.27s.508.93134,1.18533,1.22766c.67734.29634,1.43933.635,1.43933,1.27s-.55033.889-1.27.889-.97366-.21167-1.22766-.55033l-.33866.254h0ZM185.19622,34.14458c-1.651,0-2.96333-1.31233-2.96333-2.96333s1.35467-2.96333,2.96333-2.96333,1.43933.29634,1.98967.889l.12699.12699-.76199,1.016-.16933-.16933c-.381-.381-.80433-.55033-1.22766-.55033-.889,0-1.69333.80433-1.69333,1.69333s.889,1.69333,1.69333,1.69333.97366-.29634,1.22766-.59266l.16933-.16933.71967,1.016-.12699.12699c-.59266.59266-1.22766.84667-1.98967.84667h.04232ZM185.19622,28.64125c-1.35467,0-2.54,1.18533-2.54,2.54s1.18533,2.54,2.54,2.54,1.10067-.21167,1.56634-.635l-.254-.33866c-.42333.33866-.889.55033-1.35467.55033-1.10067,0-2.11666-.97366-2.11666-2.11666s.97366-2.11666,2.11666-2.11666.93134.16933,1.35467.508l.254-.29634c-.46567-.42333-1.016-.635-1.56634-.635ZM191.12288,34.05991h-3.64067v-5.75733h1.27v4.48733h2.37067v1.27ZM187.90555,33.63658h2.794v-.42333h-2.37067v-4.48733h-.42333v4.91067ZM194.97522,34.05991h-3.59833v-5.75733h3.59833v1.22766h-2.32833v.93134h2.03199v1.27h-2.03199v1.05833h2.32833v1.27ZM191.80022,33.63658h2.75166v-.42333h-2.32833v-1.905h2.03199v-.42333h-2.03199v-1.778h2.32833v-.381h-2.75166v4.91067Z"/>
  <path class="cls-1" d="M159.77949,38.83886v.51912h-1.97265v-3.25313h.51912v2.76863h1.45353v-.03461ZM162.27126,38.87347h-1.55735l-.20765.48451h-.55373l1.52274-3.32235h0l1.52274,3.32235h-.55373l-.20765-.48451h.03462ZM162.06361,38.42358l-.58834-1.28049-.58834,1.28049h1.17667ZM163.10184,38.80427l.4153-.27686c.13843.24226.4153.4153.72677.4153s.65755-.17304.65755-.4153-.4153-.48451-.79598-.65755c-.38069-.17304-.79598-.38069-.79598-.8652s.4499-.89981,1.03824-.89981.83059.24226.93442.58834l-.38069.27686c-.10382-.20765-.31147-.34608-.55373-.34608s-.55373.17304-.55373.4153.31147.34608.69216.51912c.51912.24226.93442.48451.93442,1.00363s-.51912.96902-1.17666.96902-.93442-.24226-1.14205-.62294v-.10382h-.00002ZM167.56625,39.35798l-1.21127-1.59196v1.59196h-.51912v-3.25313h.51912v1.55735l1.10746-1.55735h.58834l-1.17666,1.59196,1.28049,1.66117h-.62294.03459ZM170.71557,38.21593c0,.69216-.55373,1.17666-1.21127,1.17666s-.93442-.27686-1.10746-.69216l.51912-.17304c.10382.20765.38069.34608.58834.34608.31147,0,.69216-.24226.69216-.65755s-.27686-.62294-.65755-.62294-.58834.13843-.72677.38069l-.27686-.17304.24226-1.69578h1.69578v.51912h-1.31509l-.10382.65755c.13843-.13843.34608-.20765.55373-.20765.69216,0,1.14205.48451,1.14205,1.14205h-.03462ZM175.17998,36.10485l-1.52274,3.32235h0l-1.48813-3.32235h.55373l.96902,2.2149.96902-2.2149h.55373-.03461ZM177.84478,38.83886v.51912h-2.45716v-.10382c1.3497-1.07285,1.90343-1.66117,1.90343-2.04186s-.31147-.65755-.62294-.65755-.69216.31147-.69216.69216l-.48451-.10382c0-.62294.51912-1.10746,1.14205-1.10746s1.14205.51912,1.14205,1.14205-.58834,1.21127-1.31509,1.66117h1.38431ZM178.22547,39.11573c0-.17304.17304-.34608.34608-.34608s.34608.17304.34608.34608-.17304.34608-.34608.34608-.34608-.13843-.34608-.34608ZM180.26733,36.07024v3.28774h-.51912v-2.6302l-.4499.13843v-.51912l.79598-.24226h.17304v-.0346Z"/>
</svg>