<?xml version="1.0" encoding="UTF-8"?>
<svg id="Layer_2" data-name="Layer 2" xmlns="http://www.w3.org/2000/svg" width="75mm" height="35mm" viewBox="0 0 212.59843 99.2126">
  <defs>
    <style>
      .cls-1 {
        fill: #231f20;
      }
    </style>
  </defs>
  <path class="cls-1" d="M35.23638,57.52577h.62294s0,2.45716,0,2.45716h-4.04912s0-.62294,0-.62294h3.42617v-1.83422s0,0,0,0ZM35.23637,54.41106v1.93804s.62294.27686.62294.27686v.69216s-4.15294-1.90343-4.15294-1.90343h0l4.15294-1.90343v.69216s-.62294.27686-.62294.27686h0v-.06921ZM34.71726,54.65332l-1.59196.72676,1.59196.72676s0-1.45353,0-1.45353ZM35.16716,53.37283l-.34608-.51912c.31147-.17304.48451-.51912.48451-.8998s-.20765-.79598-.51912-.79598-.58834.51912-.79598,1.00363c-.20765.48451-.4499,1.00363-1.10745,1.00363s-1.14205-.58833-1.14206-1.3151.27686-1.00363.72677-1.17667l.31147.48451c-.27686.13843-.4153.41529-.4153.69216s.24226.65755.51912.65755.4153-.38069.65755-.8652c.27686-.65755.58834-1.14206,1.24588-1.14206s1.17666.62294,1.17667,1.45353-.31147,1.17667-.79598,1.41892ZM35.85932,47.83557l-1.97265,1.48814h1.97265s0,.62294,0,.62294h-4.04912s0-.62294,0-.62294h1.93804s-1.93804-1.38431-1.93804-1.38431v-.72676s2.00725,1.45353,2.00725,1.45353l2.07647-1.59196v.76137h0-.0346ZM34.44039,43.92489c.8652,0,1.45353.65755,1.45353,1.48814s-.34608,1.17667-.8652,1.38431l-.20765-.62294c.24226-.13843.4153-.4499.4153-.72677,0-.41529-.27686-.8652-.83059-.8652s-.79598.34608-.79598.83059.17304.72676.48451.8998l-.20765.34608-2.11108-.31147v-2.07647s.62294,0,.62294,0v1.62657s.83059.13843.83059.13843c-.17304-.17304-.24226-.41529-.24226-.69216,0-.8652.58834-1.41892,1.41892-1.41892h.03461ZM31.81019,38.38763l4.15294,1.86882h0l-4.15294,1.86883v-.69216s2.73402-1.21128,2.73402-1.21128l-2.73402-1.21127v-.69216h0v.06921ZM35.23637,35.06528h.62294s0,3.04549,0,3.04549h-.13843c-1.3497-1.66118-2.04186-2.35333-2.56098-2.35333s-.79598.38069-.79598.76137.38069.8652.8652.8652l-.13843.58833c-.76138,0-1.3497-.62294-1.3497-1.41892s.65755-1.41892,1.41892-1.41892,1.48813.72676,2.07647,1.62657v-1.69578h-.00001ZM35.54784,34.58077c-.24226,0-.4153-.20765-.4153-.41529s.20765-.41529.4153-.41529.4153.20765.4153.41529-.20765.41529-.4153.41529ZM31.77558,32.0544h4.08372s0,.62294,0,.62294h-3.28774s.17304.55373.17304.55373h-.65755s-.31147-1.00363-.31147-1.00363v-.17304ZM24.19648,51.05411c-3.39156,0-6.16019-2.6648-6.16019-5.95255s2.76862-5.95255,6.16019-5.95255,6.09098,2.69941,6.09098,5.98715-2.73401,5.95255-6.09098,5.95255v-.03461ZM24.19647,41.46773c-2.07647,0-3.73764,1.62657-3.73764,3.63382s1.69578,3.63382,3.73764,3.63382,3.70304-1.62657,3.70304-3.63382-1.66117-3.63382-3.70304-3.63382ZM30.39126,26.10185v2.90706s-4.4298,0-4.4298,0l4.22216,2.83784v.34608s-.13843.10382-.13843.10382l-4.08372,2.73402h4.4298s0,2.90706,0,2.90706h-12.70108s0-.58833,0-.58833l7.5445-5.32961-7.54451-5.3296v-.58833s12.70108,0,12.70108,0h-.00001ZM29.76833,28.42058v-1.69578h-10.97069s7.50991,5.295,7.50991,5.295l-7.5099,5.295h10.97069v-1.69579h-5.84872s5.39882-3.63382,5.39882-3.63382l-5.39883-3.59921h5.84872s0,.0346,0,.0346ZM30.35668,59.18694l-.48451.48451-.06922-.06922.48451-.48451.06922.06922ZM29.80295,58.63322l-.48451.48451-.48451-.48451.48451-.48451.48451.48451ZM28.79933,57.6642l-.48451.48451-.48451-.48451.48451-.48451.48451.48451ZM27.79569,56.69518l-.48451.48451-.48451-.48451.48451-.48451.48451.48451ZM26.79207,55.72616l-.48451.48451-.48451-.48451.48451-.48451.48451.48451ZM25.78844,54.75714l-.48451.48451-.48451-.48451.48451-.48451.48451.48451ZM24.81942,53.82273l-.48451.48451-.48451-.48451.48451-.48451.48451.48451ZM23.81579,52.85371l-.48451.48451-.48451-.48451.48451-.48451.48451.48451ZM22.81216,51.88469l-.48451.48451-.48451-.48451.48451-.48451.48451.48451ZM21.80854,50.91568l-.48451.48451-.48451-.48451.48451-.48451.48451.48451ZM20.80491,49.94666l-.48451.48451-.48451-.48451.48451-.48451.48451.48451ZM19.80129,48.97764l-.48451.48451-.48451-.48451.48451-.48451.48451.48451ZM18.79765,48.04323l-.48451.48451-.48451-.48451.48451-.48451.48451.48451ZM30.39127,38.45685v21.56068s-16.19646-5.91793-16.19646-5.91793l.20765-.62294,15.29666,5.53725v-20.55705s.69215,0,.69215,0ZM16.7904,47.55872c-.51912.58833-1.765,2.11108-2.49177,3.66843v-.79598c-.03461,0-.51912.10382-.51912.10382l.10382,1.83422h0l1.86882-1.00363-.24226-.41529-.69216.38069c.69216-1.41892,1.86882-2.80324,2.31873-3.39157l.10382-.10382-.38069-.31147-.10382.10382v-.06922s.03462,0,.03462,0Z"/>
  <path class="cls-1" d="M76.75643,87.56484c-.96902,0-1.69578-.55373-1.69578-1.3497s.69216-1.3497,1.69578-1.3497,1.69578.55373,1.69578,1.3497-.69216,1.3497-1.69578,1.3497ZM76.75643,85.41916c-.69216,0-1.17666.31147-1.17666.83059s.48451.83059,1.17666.83059,1.17666-.31147,1.17666-.83059-.48451-.83059-1.17666-.83059Z"/>
  <g>
    <path class="cls-1" d="M164.04989,70.4686v-1.59196h.4499v1.59196h-.4499Z"/>
    <path class="cls-1" d="M170.21009,68.32291v.76138h.8652v.48451h-.8652v.76138h-.48451v-.76138h-.8652v-.48451h.8652v-.76138h.48451Z"/>
    <path class="cls-1" d="M175.43587,69.53418l-1.55735.96902v-.58834l1.10746-.69216-1.10746-.69216v-.58834l1.55735.96902,1.69578-1.03824v.58834l-1.24588.76138,1.24588.76138v.58834l-1.69578-1.03824Z"/>
    <path class="cls-1" d="M181.35381,69.49957l-1.86883,1.07285v-.58834l1.31509-.76138-1.31509-.76138v-.58834l1.86883,1.07285h1.38431v.51912h-1.38431v.03462Z"/>
    <path class="cls-1" d="M187.79088,70.50321l-.27686-.4153c.24226-.13843.4153-.4153.4153-.72677s-.17304-.65755-.4153-.65755-.48452.4153-.65756.79598c-.17304.38069-.38068.79598-.8652.79598s-.8998-.4499-.8998-1.03824.24226-.83059.58834-.93442l.27686.38069c-.20764.10382-.34608.31147-.34608.55373s.17304.55373.4153.55373.34608-.31147.51912-.69216c.24226-.51912.48452-.93442,1.00364-.93442s.96902.51912.96902,1.17666-.24226.93442-.62294,1.14205h-.10382l-.00002.00002Z"/>
  </g>
  <g>
    <path class="cls-1" d="M176.00691,81.68508v-2.00725h.55373v2.00725h-.55373Z"/>
    <path class="cls-1" d="M183.75906,79.43557v.93442h1.10746v.58834h-1.10746v.93442h-.58834v-.93442h-1.10746v-.58834h1.10746v-.93442h.58834Z"/>
  </g>
  <g>
    <path class="cls-1" d="M42.05383,82.31569v2.00725h-.55372v-2.00725h.55372Z"/>
    <path class="cls-1" d="M34.30168,84.59981v-.93442h-1.10745v-.58834h1.10745v-.93442h.58833v.93442h1.10745v.58834h-1.10745v.93442h-.58833Z"/>
  </g>
  <g>
    <path class="cls-1" d="M47.12246,72.55558v1.59196h-.4499v-1.59196h.4499Z"/>
    <path class="cls-1" d="M40.96226,74.66666v-.76138h-.8652v-.48451h.8652v-.76138h.48451v.76138h.8652v.48451h-.8652v.76138h-.48451Z"/>
    <path class="cls-1" d="M35.77108,73.48999l1.55735-.96902v.58834l-1.10745.69216,1.10745.69216v.58834l-1.55735-.96902-1.69578,1.03824v-.58834l1.24588-.76138-1.24588-.76138v-.58834l1.69578,1.03824Z"/>
    <path class="cls-1" d="M29.85314,73.52459l1.86882-1.07285v.58834l-1.3151.76138,1.3151.76138v.58834l-1.86882-1.07285h-1.38431v-.51912h1.38431v-.03462Z"/>
    <path class="cls-1" d="M23.38148,72.52097l.27686.4153c-.24225.13843-.41529.4153-.41529.72677s.17304.65755.41529.65755.48451-.4153.65755-.79598c.17304-.38069.38069-.79598.8652-.79598s.8998.4499.8998,1.03824-.24225.83059-.58833.93442l-.27686-.38069c.20765-.10382.34608-.31147.34608-.55373s-.17304-.55373-.41529-.55373-.34608.31147-.51912.69216c-.24225.51912-.48451.93442-1.00363.93442s-.96902-.51912-.96902-1.17666.24226-.93442.62294-1.14205h.10382v-.00002Z"/>
  </g>
  <path class="cls-1" d="M166.22673,30.43628c-.38069.38069-1.07285.34608-1.48813-.10382-.38069-.38069-.4499-.96902-.17304-1.3497l.4499.27686c-.13843.20765-.10382.51912.10382.72677.24226.24226.58834.24226.79598.06922.27686-.27686.17304-.72677-.20765-1.14205l.27686-.13843c.27686.27686.62294.38069.8652.17304.17304-.17304.17304-.4153,0-.58834s-.38069-.17304-.51912-.06922l-.27686-.4499c.34608-.20765.83059-.17304,1.17666.17304.34608.38069.38069.93442,0,1.28049-.24226.24226-.55373.24226-.76138.13843.13843.31147.13843.69216-.20765,1.00363h-.03459ZM170.13742,31.19765l-3.46078,1.24588h0l1.3497-3.42617.38069.38069-.89981,2.24951,2.28412-.83059.38069.38069h-.03461ZM170.13742,34.52c-.38069.38069-1.07285.34608-1.48813-.10382-.38069-.38069-.4499-.96902-.17304-1.3497l.4499.27686c-.13843.20765-.10382.51912.10382.72677.24226.24226.58834.24226.79598.06922.27686-.27686.17304-.72677-.20765-1.14205l.27686-.13843c.27686.27686.62294.38069.8652.17304.17304-.17304.17304-.4153,0-.58834s-.38069-.17304-.51912-.06922l-.27686-.4499c.34608-.20765.83059-.17304,1.17666.17304.34608.38069.38069.93442,0,1.28049-.24226.24226-.55373.24226-.76138.13843.13843.31147.13843.69216-.20765,1.00363h-.03459ZM166.74585,22.92638c-.69216.65755-1.62657.58834-2.2149,0-.65755-.69216-.62294-1.765,0-2.38794s1.73039-.62294,2.38794.03461c.27686.31147.48451.76138.4499,1.21127l-.51912.10382c0-.34608-.13843-.72677-.34608-.93442-.4153-.4153-1.17666-.48451-1.66117,0s-.48451,1.17666,0,1.69578c.38069.4153.93442.48451,1.28049.13843h0l-.69216-.72677.34608-.31147,1.07285,1.10746c-.03461.06922-.10382.13843-.17304.17304l.06922-.10382h-.00001ZM170.13742,23.93l-2.38794,2.31873h0l.10382-3.04549-1.52274,1.48813-.34608-.38069,2.38794-2.31873h0l-.10382,3.04549,1.52274-1.48813.34608.38069ZM171.21026,27.39079c-.72677.69216-1.62657.65755-2.35333-.06922l-.65755-.65755,2.35333-2.28412.65755.65755c.72677.76138.72677,1.66117,0,2.35333h0ZM170.86418,27.04471c.48451-.48451.48451-1.10746,0-1.62657l-.27686-.31147-1.62657,1.55735.31147.31147c.48451.51912,1.10746.51912,1.62657.06922h-.03461ZM164.18487,35.8005l.48451.10382c-.06922.27686,0,.58834.20765.79598.24226.27686.58834.34608.76138.17304s.03461-.65755-.10382-1.03824-.31147-.83059.06922-1.21127.96902-.31147,1.38431.13843c.31147.34608.4153.72677.24226,1.07285l-.4499-.10382c.10382-.24226,0-.48451-.13843-.65755-.20765-.20765-.51912-.24226-.69216-.10382-.17304.17304-.03461.4499.10382.8652.20765.51912.31147,1.00363-.06922,1.3497-.4153.4153-1.03824.31147-1.48813-.17304-.38069-.38069-.48451-.8652-.34608-1.24588h0l.03459.03461ZM166.74585,36.90794c.65755-.62294,1.765-.62294,2.38794.03461.27686.31147.4153.72677.4153,1.17666l-.48451.06922c0-.31147-.10382-.65755-.31147-.8652-.4153-.4153-1.17666-.48451-1.66117,0-.48451.4499-.4499,1.21127-.03461,1.66117.24226.24226.55373.34608.8652.34608l-.10382.48451c-.38069,0-.79598-.10382-1.14205-.48451-.65755-.65755-.62294-1.765.03461-2.38794h0l.03459-.03461ZM169.54909,41.44157l-.38069.34608-1.38431-1.41892,2.35333-2.28412.34608.38069-1.97265,1.90343,1.00363,1.03824h.03461v.03461ZM164.18487,42.82588l.48451.10382c-.06922.27686,0,.58834.20765.79598.24226.27686.58834.34608.76138.17304s.03461-.65755-.10382-1.03824-.31147-.83059.06922-1.21127.96902-.31147,1.38431.13843c.31147.34608.4153.72677.24226,1.07285l-.4499-.10382c.10382-.24226,0-.48451-.13843-.65755-.20765-.20765-.51912-.24226-.69216-.10382-.17304.17304-.03461.4499.10382.8652.20765.51912.31147,1.00363-.06922,1.3497-.4153.4153-1.03824.31147-1.48813-.17304-.38069-.38069-.48451-.8652-.34608-1.24588h0l.03459.03461ZM168.64928,45.9752c-.72677.69216-1.62657.65755-2.35333-.06922l-.65755-.65755,2.35333-2.28412.65755.65755c.72677.76138.72677,1.66117,0,2.35333h0ZM168.3032,45.59451c.48451-.48451.48451-1.10746,0-1.62657l-.27686-.31147-1.62657,1.55735.31147.31147c.48451.51912,1.10746.51912,1.62657.06922h-.03461ZM169.37605,48.36314l-1.07285-1.10746-.51912.17304-.38069-.4153,3.46078-1.21127h0l-1.3497,3.46078-.38069-.4153.20765-.51912h.03461v.03462ZM169.54909,47.91324l.51912-1.31509-1.31509.48451.79598.83059Z"/>
  <g>
    <path class="cls-1" d="M157.21965,57.44377h.51912v2.45716h-.10382c-1.07285-1.3497-1.66117-1.90343-2.04186-1.90343s-.65755.31147-.65755.62294.31147.69216.69216.69216l-.10382.48451c-.62294,0-1.10746-.51912-1.10746-1.14205s.51912-1.14205,1.14205-1.14205,1.21127.58834,1.66117,1.31509v-1.3497h0v-.03461Z"/>
    <path class="cls-1" d="M154.41642,56.16327h3.28774v.51912h-2.6302l.13843.4499h-.51912l-.24226-.79598v-.13843h0l-.0346-.03461Z"/>
  </g>
  <g>
    <path class="cls-1" d="M167.98268,57.68602c.55373,0,1.00363.48451,1.00363,1.10746s-.34608,1.00363-.79598,1.10746l-.13843-.51912c.24226-.06922.4153-.31147.4153-.58834s-.24226-.58834-.51912-.58834-.65755.4153-.65755.96902l-.31147-.06922c0-.38069-.17304-.72677-.48451-.72677s-.4153.20765-.4153.4499.13843.38069.34608.4153l-.10382.51912c-.38069-.10382-.72677-.4499-.72677-.93442s.38069-.93442.8652-.93442.55373.20765.65755.4153c.13843-.34608.4153-.58834.83059-.58834h0l.0346-.03459Z"/>
    <path class="cls-1" d="M168.25955,54.84818v.34608h.69216v.51912h-.69216v1.765l-2.56098-1.21127v-.55373l2.07647.96902v-.96902h-1.03824v-.51912h1.03824v-.34608h.51912-.03461Z"/>
  </g>
  <g>
    <path class="cls-1" d="M162.34161,57.68602c.55373,0,1.00363.48451,1.00363,1.10746s-.34608,1.00363-.79598,1.10746l-.13843-.51912c.24226-.06922.4153-.31147.4153-.58834s-.24226-.58834-.51912-.58834-.65755.4153-.65755.96902l-.31147-.06922c0-.38069-.17304-.72677-.48451-.72677s-.4153.20765-.4153.4499.13843.38069.34608.4153l-.10382.51912c-.38069-.10382-.72677-.4499-.72677-.93442s.38069-.93442.8652-.93442.55373.20765.65755.4153c.13843-.34608.4153-.58834.83059-.58834h0l.0346-.03459Z"/>
    <path class="cls-1" d="M162.34161,55.15965c.55373,0,1.00363.48451,1.00363,1.10746s-.34608,1.00363-.79598,1.10746l-.13843-.51912c.24226-.06922.4153-.31147.4153-.58834s-.24226-.58834-.51912-.58834-.65755.4153-.65755.96902l-.31147-.06922c0-.38069-.17304-.72677-.48451-.72677s-.4153.20765-.4153.4499.13843.38069.34608.4153l-.10382.51912c-.38069-.10382-.72677-.4499-.72677-.93442s.38069-.93442.8652-.93442.55373.20765.65755.4153c.13843-.34608.4153-.58834.83059-.58834h0l.0346-.03459Z"/>
  </g>
  <g>
    <path class="cls-1" d="M183.55621,57.37455v.8652h2.76863v.51912h-2.76863v.8652h-.51912v-2.28412h.51912v.03461Z"/>
    <path class="cls-1" d="M184.59445,56.19788l-1.55735.96902v-.58834l1.10746-.69216-1.10746-.69216v-.58834l1.55735.96902,1.69579-1.03824v.58834l-1.24587.76138,1.24587.76138v.58834l-1.69579-1.03824Z"/>
  </g>
  <path class="cls-1" d="M180.19925,57.92828l-1.28049.8652v.4153h1.28049v.51912h-3.25313v-1.00363c0-.62294.48451-1.10746,1.03824-1.10746s.79598.27686.89981.65755l1.31509-.93442v.62294h0v-.0346ZM178.50347,58.72425c0-.31147-.24226-.55373-.55373-.55373s-.51912.27686-.51912.55373v.51912h1.07285v-.51912ZM178.50347,56.19788l-1.55735.96902v-.58834l1.10746-.69216-1.10746-.69216v-.58834l1.55735.96902,1.69579-1.03824v.58834l-1.24588.76138,1.24588.76138v.58834l-1.69578-1.03824h-.00001Z"/>
  <g>
    <path class="cls-1" d="M173.86602,57.37455v.34608h.69216v.51912h-.69216v1.765l-2.56098-1.21127v-.55373l2.07647.96902v-.96902h-1.03824v-.51912h1.03824v-.34608h.51912-.03461Z"/>
    <path class="cls-1" d="M174.07367,54.67514h.51912v2.45716h-.10382c-1.07285-1.3497-1.66117-1.90343-2.04186-1.90343s-.65755.31147-.65755.62294.31147.69216.69216.69216l-.10382.48451c-.62294,0-1.10746-.51912-1.10746-1.14205s.51912-1.14205,1.14205-1.14205,1.21127.58834,1.66117,1.31509v-1.3497h0v-.03461Z"/>
  </g>
  <g>
    <path class="cls-1" d="M148.74073,58.9319h3.28774v.51912h-2.6302l.13843.4499h-.51912l-.24226-.79598v-.13843h0l-.0346-.03461Z"/>
    <path class="cls-1" d="M151.37092,55.95563v.34608h.69216v.51912h-.69216v1.765l-2.56098-1.21127v-.55373l2.07647.96902v-.96902h-1.03824v-.51912h1.03824v-.34608h.51912-.03461Z"/>
  </g>
  <g>
    <path class="cls-1" d="M143.20348,59.00112h3.28774v.51912h-2.6302l.13843.4499h-.51912l-.24226-.79598v-.13843h0l-.0346-.03461Z"/>
    <path class="cls-1" d="M145.5222,56.3017c.55373,0,1.00363.48451,1.00363,1.10746s-.34608,1.00363-.79598,1.10746l-.13843-.51912c.24226-.06922.4153-.31147.4153-.58834s-.24226-.58834-.51912-.58834-.65755.4153-.65755.96902l-.31147-.06922c0-.38069-.17304-.72677-.48451-.72677s-.4153.20765-.4153.4499.13843.38069.34608.4153l-.10382.51912c-.38069-.10382-.72677-.4499-.72677-.93442s.38069-.93442.8652-.93442.55373.20765.65755.4153c.13843-.34608.4153-.58834.83059-.58834h0l.0346-.03459Z"/>
  </g>
  <g>
    <path class="cls-1" d="M139.27548,84.07064h-3.35696v-.51912h1.79961l-1.765-1.07285h0l1.765-1.10746h-1.79961v-.51912h3.35696c0,.03461-2.38794,1.59196-2.38794,1.59196l2.38794,1.55735h0v.06922Z"/>
    <path class="cls-1" d="M138.68715,85.21271h-.83059v1.24588h-.51912v-1.24588h-.89981v1.41892h-.51912v-1.93804h3.25313v1.93804h-.51912v-1.41892h.03461Z"/>
    <path class="cls-1" d="M139.20627,89.81554h-3.32235l2.18029-2.11108h-2.14569v-.51912h3.32235l-2.18029,2.11108h2.14569v.51912Z"/>
    <path class="cls-1" d="M137.16441,90.40388h2.04186v.51912h-2.04186c-.4499,0-.79598.31148-.79598.72676s.34608.72676.79598.72676h2.04186v.51912h-2.04186c-.76138,0-1.31509-.55372-1.31509-1.24587s.55373-1.24587,1.31509-1.24587Z"/>
  </g>
  <path class="cls-1" d="M86.02842,70.88188c0-1.524,1.22766-2.75166,2.75166-2.75166s2.75166,1.22766,2.75166,2.75166-1.22766,2.75166-2.75166,2.75166-2.75166-1.22766-2.75166-2.75166ZM90.68508,70.88188c0-1.05833-.84667-1.905-1.905-1.905s-1.905.84667-1.905,1.905.84667,1.905,1.905,1.905,1.905-.84667,1.905-1.905ZM92.29374,68.21489h1.778c1.016,0,1.86266.80433,1.86266,1.778s-.84667,1.73567-1.86266,1.73567h-.93134v1.86266h-.84667v-5.334h0v-.04234ZM95.13008,69.99288c0-.508-.46567-.93134-1.05833-.93134h-.93134v1.82033h.93134c.59266,0,1.05833-.381,1.05833-.889h0ZM97.45841,69.06156v1.35467h2.03199v.84667h-2.03199v1.48167h2.32833v.84667h-3.175v-5.334h3.175v.80433h-2.32833ZM104.95139,68.21489v5.41866h0l-3.429-3.55599v3.47134h-.84667v-5.41866h.04234l3.38666,3.55599v-3.47134h.84667ZM113.41805,73.76054h-1.27v-2.413l-1.43933,2.32833h-.254l-.08467-.08467-1.39699-2.24366v2.413h-1.27v-5.88433h.381l2.45533,3.683,2.413-3.683h.381v5.88433h.08467ZM112.57139,73.33721h.42333v-4.61433l-2.413,3.64067-2.413-3.64067v4.61433h.42333v-3.51366l1.98967,3.21733,1.98967-3.21733v3.47134h0v.04232ZM116.16972,73.84521c-1.27,0-2.24366-1.016-2.24366-2.32833v-3.51366h1.27v3.51366c0,.59266.42333,1.05833.97366,1.05833s.97366-.46567.97366-1.05833v-3.51366h1.27v3.51366c0,1.31233-.97366,2.32833-2.24366,2.32833ZM114.39173,68.42656v3.09033c0,1.10067.76199,1.905,1.82033,1.905s1.82033-.80433,1.82033-1.905v-3.09033h-.42333v3.09033c0,.84667-.59266,1.48167-1.39699,1.48167s-1.39699-.635-1.39699-1.48167v-3.09033h-.42333ZM120.69939,73.84521c-.93134,0-1.69333-.42333-2.03199-1.143l-.08467-.16933,1.016-.71967.12699.21167c.21167.33866.55033.55033,1.016.55033s.84667-.21167.84667-.46567-.635-.635-1.18533-.84667c-.635-.29634-1.48167-.635-1.48167-1.651s.84667-1.69333,1.94733-1.69333,1.48167.42333,1.73567,1.10067v.16933c.04234,0-.889.67734-.889.67734l-.08467-.21167c-.12699-.254-.42333-.42333-.71967-.42333s-.67734.21167-.67734.46567.254.33866.80433.55033l.21167.08467c.80433.33866,1.60866.80433,1.60866,1.82033s-.889,1.778-2.11666,1.778v-.08467h-.04231ZM119.13305,72.65989c.29634.46567.889.76199,1.56634.76199,1.016,0,1.69333-.55033,1.69333-1.35467s-.508-1.05833-1.35467-1.43933l-.21167-.08467c-.55033-.254-1.05833-.42333-1.05833-.93134s.46567-.889,1.10067-.889.76199.16933.97366.46567l.29634-.21167c-.21167-.42333-.67734-.67734-1.27-.67734-.889,0-1.524.55033-1.524,1.27s.508.93134,1.18533,1.22766c.67734.29634,1.43933.635,1.43933,1.27s-.55033.889-1.27.889-.97366-.21167-1.22766-.55033l-.33866.254h0ZM125.82172,73.84521c-1.651,0-2.96333-1.31233-2.96333-2.96333s1.35467-2.96333,2.96333-2.96333,1.43933.29634,1.98967.889l.12699.12699-.76199,1.016-.16933-.16933c-.381-.381-.80433-.55033-1.22766-.55033-.889,0-1.69333.80433-1.69333,1.69333s.889,1.69333,1.69333,1.69333.97366-.29634,1.22766-.59266l.16933-.16933.71967,1.016-.12699.12699c-.59266.59266-1.22766.84667-1.98967.84667h.04232ZM125.82172,68.34189c-1.35467,0-2.54,1.18533-2.54,2.54s1.18533,2.54,2.54,2.54,1.10067-.21167,1.56634-.635l-.254-.33866c-.42333.33866-.889.55033-1.35467.55033-1.10067,0-2.11666-.97366-2.11666-2.11666s.97366-2.11666,2.11666-2.11666.93134.16933,1.35467.508l.254-.29634c-.46567-.42333-1.016-.635-1.56634-.635ZM131.74838,73.76054h-3.64067v-5.75733h1.27v4.48733h2.37067v1.27ZM128.53105,73.33721h2.794v-.42333h-2.37067v-4.48733h-.42333v4.91067ZM135.60071,73.76054h-3.59833v-5.75733h3.59833v1.22766h-2.32833v.93134h2.03199v1.27h-2.03199v1.05833h2.32833v1.27ZM132.42572,73.33721h2.75166v-.42333h-2.32833v-1.905h2.03199v-.42333h-2.03199v-1.778h2.32833v-.381h-2.75166v4.91067Z"/>
  <path class="cls-1" d="M139.90976,70.72815v.51912h-1.97265v-3.25313h.51912v2.76863h1.45353v-.03461ZM142.40153,70.76276h-1.55735l-.20765.48451h-.55373l1.52274-3.32235h0l1.52274,3.32235h-.55373l-.20765-.48451h.03462ZM142.19388,70.31286l-.58834-1.28049-.58834,1.28049h1.17667ZM143.23212,70.69355l.4153-.27686c.13843.24226.4153.4153.72677.4153s.65755-.17304.65755-.4153-.4153-.48451-.79598-.65755c-.38069-.17304-.79598-.38069-.79598-.8652s.4499-.89981,1.03824-.89981.83059.24226.93442.58834l-.38069.27686c-.10382-.20765-.31147-.34608-.55373-.34608s-.55373.17304-.55373.4153.31147.34608.69216.51912c.51912.24226.93442.48451.93442,1.00363s-.51912.96902-1.17666.96902-.93442-.24226-1.14205-.62294v-.10382h-.00002ZM147.69652,71.24727l-1.21127-1.59196v1.59196h-.51912v-3.25313h.51912v1.55735l1.10746-1.55735h.58834l-1.17666,1.59196,1.28049,1.66117h-.62294.03459ZM150.84584,70.10521c0,.69216-.55373,1.17666-1.21127,1.17666s-.93442-.27686-1.10746-.69216l.51912-.17304c.10382.20765.38069.34608.58834.34608.31147,0,.69216-.24226.69216-.65755s-.27686-.62294-.65755-.62294-.58834.13843-.72677.38069l-.27686-.17304.24226-1.69578h1.69578v.51912h-1.31509l-.10382.65755c.13843-.13843.34608-.20765.55373-.20765.69216,0,1.14205.48451,1.14205,1.14205h-.03462ZM155.31025,67.99413l-1.52274,3.32235h0l-1.48813-3.32235h.55373l.96902,2.2149.96902-2.2149h.55373-.03461ZM157.97506,70.72815v.51912h-2.45716v-.10382c1.3497-1.07285,1.90343-1.66117,1.90343-2.04186s-.31147-.65755-.62294-.65755-.69216.31147-.69216.69216l-.48451-.10382c0-.62294.51912-1.10746,1.14205-1.10746s1.14205.51912,1.14205,1.14205-.58834,1.21127-1.31509,1.66117h1.38431ZM158.35574,71.00502c0-.17304.17304-.34608.34608-.34608s.34608.17304.34608.34608-.17304.34608-.34608.34608-.34608-.13843-.34608-.34608ZM160.39761,67.95952v3.28774h-.51912v-2.6302l-.4499.13843v-.51912l.79598-.24226h.17304v-.0346Z"/>
  <g>
    <path class="cls-1" d="M144.21531,84.54339l.4153-.27686c.13843.24226.4153.4153.72677.4153s.65755-.17304.65755-.4153-.4153-.48451-.79598-.65755c-.38069-.17304-.79598-.38069-.79598-.8652s.4499-.89981,1.03824-.89981.83059.24226.93442.58834l-.38069.27686c-.10382-.20765-.31147-.34608-.55373-.34608s-.55373.17304-.55373.4153.31147.34608.69216.51912c.51912.24226.93442.48451.93442,1.00363s-.51912.96902-1.17666.96902-.93442-.24226-1.14205-.62294v-.10382h-.00002Z"/>
    <path class="cls-1" d="M147.46844,82.36309v.83059h1.24588v.51912h-1.24588v.89981h1.41892v.51912h-1.93804v-3.25313h1.93804v.51912h-1.41892v-.03461Z"/>
    <path class="cls-1" d="M151.41374,84.6126v.51912h-1.97265v-3.25313h.51912v2.76863h1.45353v-.03461Z"/>
    <path class="cls-1" d="M152.34815,82.36309v.83059h1.24588v.51912h-1.24588v.89981h1.41892v.51912h-1.93804v-3.25313h1.93804v.51912h-1.41892v-.03461Z"/>
    <path class="cls-1" d="M154.14775,83.47055c0-.93442.76138-1.69578,1.69578-1.69578s.83059.17304,1.14205.48451l-.31147.4153c-.24226-.24226-.51912-.38069-.83059-.38069-.58834,0-1.14205.51912-1.14205,1.17666s.58834,1.17666,1.17666,1.17666.62294-.17304.83059-.38069l.31147.4153c-.27686.27686-.65755.48451-1.14205.48451-.93442,0-1.69578-.76138-1.69578-1.69578h-.03461Z"/>
    <path class="cls-1" d="M159.40815,82.36309h-.8652v2.76863h-.51912v-2.76863h-.8652v-.51912h2.28412v.51912h-.03461Z"/>
  </g>
  <path class="cls-1" d="M190.21824,32.40964c0-.93442.76138-1.69578,1.69579-1.69578s1.69579.76138,1.69579,1.69578-.76138,1.69578-1.69579,1.69578-1.69579-.76138-1.69579-1.69578ZM193.05609,32.40964c0-.65755-.51912-1.17666-1.17667-1.17666s-1.17667.51912-1.17667,1.17666.51912,1.17666,1.17667,1.17666,1.17667-.51912,1.17667-1.17666ZM196.68991,30.78308v3.32235h0l-2.07647-2.18029v2.14569h-.51912v-3.32235h0l2.07647,2.18029v-2.14569h.51912ZM198.35108,30.54082h.4499l-1.31509,3.77225h-.4499l1.31509-3.77225ZM199.00862,32.40964c0-.93442.76138-1.69578,1.69579-1.69578s1.69579.76138,1.69579,1.69578-.76138,1.69578-1.69579,1.69578-1.69579-.76138-1.69579-1.69578ZM201.88109,32.40964c0-.65755-.51912-1.17666-1.17667-1.17666s-1.17667.51912-1.17667,1.17666.51912,1.17666,1.17667,1.17666,1.17667-.51912,1.17667-1.17666ZM203.36922,31.26759v.8652h1.24587v.51912h-1.24587v1.38431h-.51912v-3.28774h1.93803v.51912h-1.41891ZM205.72255,31.26759v.8652h1.24587v.51912h-1.24587v1.38431h-.51912v-3.28774h1.93803v.51912h-1.41891Z"/>
  <path class="cls-1" d="M196.01504,21.5535h.51912v3.25313h-.51912v-3.25313ZM198.22993,21.31125h.4499l-1.31509,3.77225h-.4499l1.31509-3.77225ZM198.88749,23.18007c0-.96902.55372-1.69578,1.34971-1.69578s1.34971.69216,1.34971,1.69578-.55372,1.69578-1.34971,1.69578-1.34971-.69216-1.34971-1.69578ZM201.03318,23.18007c0-.69216-.31148-1.17666-.8306-1.17666s-.8306.48451-.8306,1.17666.31148,1.17666.8306,1.17666.8306-.48451.8306-1.17666Z"/>
  <path class="cls-1" d="M61.52472,83.94464l-.8652-1.28049h-.41529v1.28049h-.51912v-3.25313h1.00363c.62294,0,1.10745.48451,1.10745,1.03824s-.27686.79598-.65755.89981l.93441,1.31509h-.62294.03461ZM60.76335,82.28346c.31147,0,.55373-.24226.55373-.55373s-.27686-.51912-.55373-.51912h-.51912v1.07285h.51912ZM62.3207,83.39091l.41529-.27686c.13843.24226.41529.4153.72677.4153s.65755-.17304.65755-.4153-.41529-.48451-.79598-.65755-.79598-.38069-.79598-.8652.4499-.89981,1.03824-.89981.83059.24226.93441.58834l-.38069.27686c-.10382-.20765-.31147-.34608-.55373-.34608s-.55373.17304-.55373.4153.31147.34608.69216.51912c.51912.24226.93441.48451.93441,1.00363s-.51912.96902-1.17666.96902-.93441-.24226-1.14206-.62294v-.10382h.00001ZM67.09658,81.21061h-.8652v2.76863h-.51912v-2.76863h-.8652v-.51912h2.28412v.51912h-.03461Z"/>
  <path class="cls-1" d="M115.98655,59.19646h3.28774v.51912h-2.6302l.13843.4499h-.51912l-.24226-.79598v-.13843h0l-.0346-.03461ZM118.30528,58.74656c-.48451,0-.83059-.38069-.8652-.65755-.03461.24226-.31147.48451-.65755.48451s-.83059-.38069-.83059-.93442.38069-.93442.83059-.93442.58834.27686.65755.48451c.03461-.24226.34608-.65755.8652-.65755s1.03824.4499,1.03824,1.10746-.48451,1.10746-1.03824,1.10746ZM116.85174,57.1546c-.24226,0-.38069.20765-.38069.4499s.13843.4499.38069.4499.38069-.20765.38069-.4499-.13843-.4499-.38069-.4499ZM118.27067,57.01617c-.31147,0-.55373.27686-.55373.58834s.24226.58834.55373.58834.55373-.27686.55373-.58834-.24226-.58834-.55373-.58834Z"/>
  <g>
    <path class="cls-1" d="M110.38007,59.19646h3.28774v.51912h-2.6302l.13843.4499h-.51912l-.24226-.79598v-.13843h0l-.0346-.03461Z"/>
    <path class="cls-1" d="M110.41468,56.56626h.10382l3.18393,1.31509v.55373l-2.76863-1.10746v1.52274h-.48451v-2.24951h-.03461v-.0346Z"/>
  </g>
  <g>
    <path class="cls-1" d="M90.38959,48.6247h-1.65228c-.91394,0-1.65485.74091-1.65485,1.65491v9.13715c0,.91394.74091,1.65485,1.65485,1.65485h1.65228c.914,0,1.65491-.74091,1.65491-1.65485v-9.13715c0-.914-.74091-1.65491-1.65491-1.65491ZM87.95422,52.24024c0-1.03821.62292-1.69574,1.62653-1.69574,1.00366,0,1.62659.65753,1.62659,1.69574v.93445h-3.25311v-.93445ZM87.91962,54.28211v-.5191h3.32233l-2.1803,2.11108h2.14569v.5191h-3.32233l2.18024-2.11108h-2.14563ZM89.58075,60.13087c-.93439,0-1.69574-.76141-1.69574-1.6958s.20764-.86517.4845-1.17664l.41528.27686c-.24225.24225-.41528.58832-.41528.89978,0,.58832.4845,1.1767,1.17664,1.1767.6922,0,1.1767-.51917,1.1767-1.2113s-.34607-.96899-.83063-.96899v1.0036h-.4845v-1.55737h.27686c.96906,0,1.59198.6922,1.59198,1.55737s-.76135,1.6958-1.6958,1.6958Z"/>
    <path class="cls-1" d="M89.58077,51.06362c-.69216,0-1.14206.4499-1.14206,1.17666v.4153h2.24951v-.4153c0-.72677-.41529-1.17666-1.10745-1.17666Z"/>
  </g>
  <g>
    <path class="cls-1" d="M134.51345,48.39475h-1.65228c-.91394,0-1.65485.74091-1.65485,1.65491v9.13715c0,.91394.74091,1.65485,1.65485,1.65485h1.65228c.914,0,1.65491-.74091,1.65491-1.65485v-9.13715c0-.914-.74091-1.65491-1.65491-1.65491ZM132.07809,52.01029c0-1.03821.62292-1.69574,1.62653-1.69574,1.00366,0,1.62659.65753,1.62659,1.69574v.93445h-3.25311v-.93445ZM132.04348,54.05216v-.5191h3.32233l-2.1803,2.11108h2.14569v.5191h-3.32233l2.18024-2.11108h-2.14563ZM133.70461,59.90092c-.93439,0-1.69574-.76141-1.69574-1.6958s.20764-.86517.4845-1.17664l.41528.27686c-.24225.24225-.41528.58832-.41528.89978,0,.58832.4845,1.1767,1.17664,1.1767.6922,0,1.1767-.51917,1.1767-1.2113s-.34607-.96899-.83063-.96899v1.0036h-.4845v-1.55737h.27686c.96906,0,1.59198.6922,1.59198,1.55737s-.76135,1.6958-1.6958,1.6958Z"/>
    <path class="cls-1" d="M133.70463,50.83367c-.69216,0-1.14206.4499-1.14206,1.17666v.4153h2.24951v-.4153c0-.72677-.41529-1.17666-1.10745-1.17666Z"/>
  </g>
  <path class="cls-1" d="M95.84479,57.41596c-.07184,0-.14209.01544-.2063.04456-.26276.03088-.50012.13281-.69623.29474-.04547-.02374-.1048-.03894-.15936-.05713l2.30847-1.05804c.17773-.08142.29169-.25903.29169-.45453s-.11395-.37305-.29169-.45453l-2.49164-1.14197c.03455-.05286.06152-.11102.07416-.17426l.05377-.26868c.00165.00037.00336.00079.00507.00116l.3114.06921c.03595.008.07233.0119.10852.0119.10571,0,.20953-.03351.29596-.09698l.12073.45258c.05945.22302.26111.37128.48273.37128.03723,0,.07501-.00415.11285-.01288.71893-.16595,1.18347-.79187,1.18347-1.59467,0-.88635-.6745-1.60748-1.5036-1.60748-.07184,0-.14209.0155-.2063.04456-.26276.03088-.50012.13287-.69623.2948-.15216-.07935-.35205-.13171-.62018-.13171-.74005,0-1.36523.65692-1.36523,1.43445,0,.32928.11273.63959.30603.88953-.12274.09412-.20221.23474-.20221.39099v.55371c0,.19861.11761.37842.29962.45807l1.16785.51093-1.16785.51093c-.18201.07965-.29962.25946-.29962.45807v.55377c0,.17029.08667.32886.22998.42078.00201.00128.0047.00067.00671.00195-.20837.25262-.34052.5755-.34052.92694,0,.65833.45038,1.24097,1.09521,1.41681.04327.01178.08752.01764.13153.01764.09204,0,.18317-.02539.26288-.07471.11792-.07288.20026-.19135.22742-.32727l.05377-.26868c.00165.00043.00336.00079.00507.00116l.3114.06921c.03595.008.07233.0119.10852.0119.10571,0,.20953-.03351.29596-.09698l.12073.45264c.05945.22296.26111.37128.48273.37128.03723,0,.07501-.00421.11279-.01294.71899-.16589,1.18353-.79187,1.18353-1.59467,0-.88635-.6745-1.60742-1.5036-1.60742ZM95.77661,53.45533c-.02771.00793-.05426.01801-.07941.03009.03229-.0849.0769-.15051.11517-.19122.00671.01831.01611.03986.01697.05426-.00006.06-.0343.10162-.05273.10687ZM94.32208,52.44788c.4845,0,.55371.20764.65753.41528.13843-.34607.41528-.58832.83057-.58832l.03461-.03461c.55371,0,1.0036.48456,1.0036,1.10748s-.34607,1.0036-.79596,1.10748l-.13843-.51917c.24225-.06921.41528-.31146.41528-.58832s-.24225-.58832-.5191-.58832-.65753.41528-.65753.96899l-.31146-.06921c0-.38068-.17303-.72675-.4845-.72675s-.41534.20764-.41534.44989.13843.38068.34607.41528l-.10376.5191c-.38074-.10382-.72681-.44989-.72681-.93439,0-.48456.38068-.93445.86523-.93445ZM93.56067,57.15455l2.2149-.96899-2.2149-.96899v-.55371l3.32239,1.52271-3.32239,1.52277v-.55377ZM95.77661,59.13099c-.02771.00793-.05426.01807-.07941.03015.03229-.0849.0769-.15051.11517-.19128.00671.01837.01611.03986.01697.05426-.00006.06006-.0343.10162-.05273.10687ZM96.05243,60.13087l-.13843-.5191c.24225-.06921.41528-.31146.41528-.58838,0-.27686-.24225-.58832-.5191-.58832s-.65753.41528-.65753.96899l-.31146-.06921c0-.38068-.17303-.72675-.4845-.72675s-.41534.20764-.41534.44989.13843.38068.34607.41528l-.10376.51917c-.38074-.10382-.72681-.44989-.72681-.93445,0-.4845.38068-.93439.86523-.93439.4845,0,.55371.20764.65753.41528.13843-.34607.41528-.58832.83057-.58832l.03461-.03461c.55371,0,1.0036.4845,1.0036,1.10742,0,.62299-.34607,1.00366-.79596,1.10748Z"/>
  <path class="cls-1" d="M140.0959,57.18601c-.07184,0-.14209.01544-.2063.04456-.26276.03088-.50012.13281-.69623.29474-.04547-.02374-.1048-.03894-.15936-.05713l2.30847-1.05804c.17773-.08142.29169-.25903.29169-.45453s-.11395-.37305-.29169-.45453l-2.49164-1.14197c.03455-.05286.06152-.11102.07416-.17426l.05377-.26868c.00165.00037.00336.00079.00507.00116l.3114.06921c.03595.008.07233.0119.10852.0119.10571,0,.20953-.03351.29596-.09698l.12073.45258c.05945.22302.26111.37128.48273.37128.03723,0,.07501-.00415.11285-.01288.71893-.16595,1.18347-.79187,1.18347-1.59467,0-.88635-.6745-1.60748-1.5036-1.60748-.07184,0-.14209.0155-.2063.04456-.26276.03088-.50012.13287-.69623.2948-.15216-.07935-.35205-.13171-.62018-.13171-.74005,0-1.36523.65692-1.36523,1.43445,0,.32928.11273.63959.30603.88953-.12274.09412-.20221.23474-.20221.39099v.55371c0,.19861.11761.37842.29962.45807l1.16785.51093-1.16785.51093c-.18201.07965-.29962.25946-.29962.45807v.55377c0,.17029.08667.32886.22998.42078.00201.00128.0047.00067.00671.00195-.20837.25262-.34052.5755-.34052.92694,0,.65833.45038,1.24097,1.09521,1.41681.04327.01178.08752.01764.13153.01764.09204,0,.18317-.02539.26288-.07471.11792-.07288.20026-.19135.22742-.32727l.05377-.26868c.00165.00043.00336.00079.00507.00116l.3114.06921c.03595.008.07233.0119.10852.0119.10571,0,.20953-.03351.29596-.09698l.12073.45264c.05945.22296.26111.37128.48273.37128.03723,0,.07501-.00421.11279-.01294.71899-.16589,1.18353-.79187,1.18353-1.59467,0-.88635-.6745-1.60742-1.5036-1.60742ZM140.02772,53.22538c-.02771.00793-.05426.01801-.07941.03009.03229-.0849.0769-.15051.11517-.19122.00671.01831.01611.03986.01697.05426-.00006.06-.0343.10162-.05273.10687ZM138.57319,52.21793c.4845,0,.55371.20764.65753.41528.13843-.34607.41528-.58832.83057-.58832l.03461-.03461c.55371,0,1.0036.48456,1.0036,1.10748s-.34607,1.0036-.79596,1.10748l-.13843-.51917c.24225-.06921.41528-.31146.41528-.58832s-.24225-.58832-.5191-.58832-.65753.41528-.65753.96899l-.31146-.06921c0-.38068-.17303-.72675-.4845-.72675s-.41534.20764-.41534.44989.13843.38068.34607.41528l-.10376.5191c-.38074-.10382-.72681-.44989-.72681-.93439,0-.48456.38068-.93445.86523-.93445ZM137.81178,56.9246l2.2149-.96899-2.2149-.96899v-.55371l3.32239,1.52271-3.32239,1.52277v-.55377ZM140.02772,58.90104c-.02771.00793-.05426.01807-.07941.03015.03229-.0849.0769-.15051.11517-.19128.00671.01837.01611.03986.01697.05426-.00006.06006-.0343.10162-.05273.10687ZM140.30354,59.90092l-.13843-.5191c.24225-.06921.41528-.31146.41528-.58838,0-.27686-.24225-.58832-.5191-.58832s-.65753.41528-.65753.96899l-.31146-.06921c0-.38068-.17303-.72675-.4845-.72675s-.41534.20764-.41534.44989.13843.38068.34607.41528l-.10376.51917c-.38074-.10382-.72681-.44989-.72681-.93445,0-.4845.38068-.93439.86523-.93439.4845,0,.55371.20764.65753.41528.13843-.34607.41528-.58832.83057-.58832l.03461-.03461c.55371,0,1.0036.4845,1.0036,1.10742,0,.62299-.34607,1.00366-.79596,1.10748Z"/>
  <path class="cls-1" d="M104.77361,59.19646h3.28774v.51912h-2.6302l.13843.4499h-.51912l-.24226-.79598v-.13843h0l-.0346-.03461ZM107.02312,56.42783c.58834,0,1.10746.51912,1.10746,1.14205s-.4499,1.14205-1.07285,1.14205-.55373-.17304-2.2149-1.10746v-.58834l1.24588.72677c-.03461-.10382-.06922-.20765-.06922-.31147,0-.51912.4153-1.00363,1.03824-1.00363h-.03461ZM107.02312,56.91234c-.34608,0-.62294.27686-.62294.62294s.27686.65755.62294.65755.62294-.27686.62294-.62294-.27686-.62294-.62294-.62294h0v-.03461Z"/>
  <g>
    <path class="cls-1" d="M99.16714,59.19646h3.28774v.51912h-2.6302l.13843.4499h-.51912l-.24226-.79598v-.13843h0l-.0346-.03461Z"/>
    <path class="cls-1" d="M101.31283,56.39322c.69216,0,1.17666.55373,1.17666,1.21127s-.27686.93442-.69216,1.10746l-.17304-.51912c.20765-.10382.34608-.38069.34608-.58834,0-.31147-.24226-.69216-.65755-.69216s-.62294.27686-.62294.65755.13843.58834.38069.72677l-.17304.27686-1.69578-.24226v-1.69578h.51912v1.31509l.65755.10382c-.13843-.13843-.20765-.34608-.20765-.55373,0-.69216.48451-1.14205,1.14205-1.14205h0v.03462Z"/>
  </g>
  <path class="cls-1" d="M121.62762,59.19646h3.28774v.51912h-2.6302l.13843.4499h-.51912l-.24226-.79598v-.13843h0l-.0346-.03461ZM124.43086,56.2548h.51912v2.45716h-.10382c-1.07285-1.3497-1.66117-1.90343-2.04186-1.90343s-.65755.31147-.65755.62294.31147.69216.69216.69216l-.10382.48451c-.62294,0-1.10746-.51912-1.10746-1.14205s.51912-1.14205,1.14205-1.14205,1.21127.58834,1.66117,1.31509v-1.3497h0v-.03461ZM122.52743,53.20931l1.86882.8652h0l-1.86882.8652v-.38069l1.07285-.48451-1.07285-.48451v-.38069ZM123.80792,51.75578c.27686,0,.55373.20765.55373.58834v.69216h-1.83421v-.48451c0-.31147.24226-.51912.48451-.51912s.31147.13843.31147.17304c0-.17304.17304-.4153.48451-.4153v-.03461ZM122.87351,52.65558h.34608v-.13843c0-.10382-.06922-.17304-.17304-.17304s-.17304.06922-.17304.17304v.13843ZM123.77331,52.10185c-.10382,0-.20765.06922-.20765.24226v.27686h.4499v-.27686c0-.10382-.06922-.24226-.20765-.24226h-.0346ZM124.11939,50.47528v.72677l.24226.10382v.38069l-1.86882-.8652h0l1.86882-.89981v.4153l-.24226.10382v.03461ZM123.80792,50.61372l-.48451.20765.48451.20765v-.4499.0346ZM122.90812,48.84872v.4499h1.45353v.38069h-1.45353v.4499h-.38069v-1.28049h.38069Z"/>
  <path class="cls-1" d="M202.57031,78.42871h-7.05566v-32.41357h11.1582v28.31104c0,2.26172-1.84082,4.10254-4.10254,4.10254ZM196.51465,77.42871h6.05566c1.71094,0,3.10254-1.3916,3.10254-3.10254v-27.31104h-9.1582v30.41357Z"/>
  <g>
    <path class="cls-1" d="M209.64444,58.93697v.86901h-3.27301v-.86901h3.27301Z"/>
    <path class="cls-1" d="M208.22163,61.70441h-.46547v-1.53126h.18358c.6076.72485.87172.99964,1.04938.99964.12792,0,.23806-.09949.23806-.22639,0-.16785-.13976-.31742-.3115-.31742l.13621-.41217c.34585,0,.65379.32486.65379.73095s-.32097.73433-.69643.73433c-.31268,0-.61352-.26869-.78763-.58273v.60506Z"/>
    <path class="cls-1" d="M208.00793,61.92877c.9685,0,1.71366.78374,1.71366,1.803-.00609.42232-.19086.8751-.49542,1.21012l-.64161-.49948c.18274-.20101.30253-.46699.30253-.70861,0-.50354-.38375-.92383-.88526-.92383-.5076,0-.8812.43857-.8812.90556,0,.2741.12995.51978.31877.73095l-.65988.49542c-.28426-.31268-.48121-.72891-.48121-1.22636,0-.92383.68222-1.78676,1.7096-1.78676Z"/>
  </g>
</svg>