<?xml version="1.0" encoding="UTF-8"?>
<svg id="Layer_1" data-name="Layer 1" xmlns="http://www.w3.org/2000/svg" width="195.00581" height="72.98115" viewBox="0 0 195.00581 72.98115">
  <defs>
    <style>
      .cls-1 {
        fill: #232323;
      }
    </style>
  </defs>
  <g>
    <path class="cls-1" d="M149.14562,50.59667v-1.59196h.4499v1.59196h-.4499Z"/>
    <path class="cls-1" d="M155.30583,48.45098v.76138h.8652v.48451h-.8652v.76138h-.48451v-.76138h-.8652v-.48451h.8652v-.76138h.48451Z"/>
    <path class="cls-1" d="M160.53161,49.66226l-1.55735.96902v-.58834l1.10746-.69216-1.10746-.69216v-.58834l1.55735.96902,1.69578-1.03824v.58834l-1.24588.76138,1.24588.76138v.58834l-1.69578-1.03824Z"/>
    <path class="cls-1" d="M166.44954,49.62765l-1.86883,1.07285v-.58834l1.31509-.76138-1.31509-.76138v-.58834l1.86883,1.07285h1.38431v.51912h-1.38431v.03462Z"/>
    <path class="cls-1" d="M172.88661,50.63128l-.27686-.4153c.24226-.13843.4153-.4153.4153-.72677s-.17304-.65755-.4153-.65755-.48452.4153-.65756.79598c-.17304.38069-.38068.79598-.8652.79598s-.8998-.4499-.8998-1.03824.24226-.83059.58834-.93442l.27686.38069c-.20764.10382-.34608.31147-.34608.55373s.17304.55373.4153.55373.34608-.31147.51912-.69216c.24226-.51912.48452-.93442,1.00364-.93442s.96902.51912.96902,1.17666-.24226.93442-.62294,1.14205h-.10382l-.00002.00002Z"/>
  </g>
  <g>
    <path class="cls-1" d="M161.11478,61.68271v-2.00725h.55373v2.00725h-.55373Z"/>
    <path class="cls-1" d="M168.86693,59.4332v.93442h1.10746v.58834h-1.10746v.93442h-.58834v-.93442h-1.10746v-.58834h1.10746v-.93442h.58834Z"/>
  </g>
  <g>
    <path class="cls-1" d="M29.96104,60.73675v2.00725h-.55372v-2.00725h.55372Z"/>
    <path class="cls-1" d="M22.20889,63.02087v-.93442h-1.10745v-.58834h1.10745v-.93442h.58833v.93442h1.10745v.58834h-1.10745v.93442h-.58833Z"/>
  </g>
  <g>
    <path class="cls-1" d="M34.90996,50.49283v1.59196h-.4499v-1.59196h.4499Z"/>
    <path class="cls-1" d="M28.74977,52.60391v-.76138h-.8652v-.48451h.8652v-.76138h.48451v.76138h.8652v.48451h-.8652v.76138h-.48451Z"/>
    <path class="cls-1" d="M23.55859,51.42725l1.55735-.96902v.58834l-1.10745.69216,1.10745.69216v.58834l-1.55735-.96902-1.69578,1.03824v-.58834l1.24588-.76138-1.24588-.76138v-.58834l1.69578,1.03824Z"/>
    <path class="cls-1" d="M17.64065,51.46185l1.86882-1.07285v.58834l-1.3151.76138,1.3151.76138v.58834l-1.86882-1.07285h-1.38431v-.51912h1.38431v-.03462Z"/>
    <path class="cls-1" d="M11.16899,50.45822l.27686.4153c-.24225.13843-.41529.4153-.41529.72677s.17304.65755.41529.65755.48451-.4153.65755-.79598c.17304-.38069.38069-.79598.8652-.79598s.8998.4499.8998,1.03824-.24225.83059-.58833.93442l-.27686-.38069c.20765-.10382.34608-.31147.34608-.55373s-.17304-.55373-.41529-.55373-.34608.31147-.51912.69216c-.24225.51912-.48451.93442-1.00363.93442s-.96902-.51912-.96902-1.17666.24226-.93442.62294-1.14205h.10382v-.00002Z"/>
  </g>
  <g>
    <g>
      <path class="cls-1" d="M152.04239,10.75813c-.38069.38069-1.07285.34608-1.48813-.10382-.38069-.38069-.4499-.96902-.17304-1.3497l.4499.27686c-.13843.20765-.10382.51912.10382.72677.24226.24226.58834.24226.79598.06922.27686-.27686.17304-.72677-.20765-1.14205l.27686-.13843c.27686.27686.62294.38069.8652.17304.17304-.17304.17304-.4153,0-.58834s-.38069-.17304-.51912-.06922l-.27686-.4499c.34608-.20765.83059-.17304,1.17666.17304.34608.38069.38069.93442,0,1.28049-.24226.24226-.55373.24226-.76138.13843.13843.31147.13843.69216-.20765,1.00363h-.03459Z"/>
      <path class="cls-1" d="M155.95307,11.5195l-3.46078,1.24588h0l1.3497-3.42617.38069.38069-.89981,2.24951,2.28412-.83059.38069.38069h-.03461Z"/>
      <path class="cls-1" d="M155.95307,14.84185c-.38069.38069-1.07285.34608-1.48813-.10382-.38069-.38069-.4499-.96902-.17304-1.3497l.4499.27686c-.13843.20765-.10382.51912.10382.72677.24226.24226.58834.24226.79598.06922.27686-.27686.17304-.72677-.20765-1.14205l.27686-.13843c.27686.27686.62294.38069.8652.17304.17304-.17304.17304-.4153,0-.58834s-.38069-.17304-.51912-.06922l-.27686-.4499c.34608-.20765.83059-.17304,1.17666.17304.34608.38069.38069.93442,0,1.28049-.24226.24226-.55373.24226-.76138.13843.13843.31147.13843.69216-.20765,1.00363h-.03459Z"/>
    </g>
    <g>
      <path class="cls-1" d="M152.5615,3.24823c-.69216.65755-1.62657.58834-2.2149,0-.65755-.69216-.62294-1.765,0-2.38794s1.73039-.62294,2.38794.03461c.27686.31147.48451.76138.4499,1.21127l-.51912.10382c0-.34608-.13843-.72677-.34608-.93442-.4153-.4153-1.17666-.48451-1.66117,0s-.48451,1.17666,0,1.69578c.38069.4153.93442.48451,1.28049.13843h0l-.69216-.72677.34608-.31147,1.07285,1.10746c-.03461.06922-.10382.13843-.17304.17304l.06922-.10382h-.00001Z"/>
      <path class="cls-1" d="M155.95307,4.25185l-2.38794,2.31873h0l.10382-3.04549-1.52274,1.48813-.34608-.38069,2.38794-2.31873h0l-.10382,3.04549,1.52274-1.48813.34608.38069Z"/>
      <path class="cls-1" d="M157.02591,7.71264c-.72677.69216-1.62657.65755-2.35333-.06922l-.65755-.65755,2.35333-2.28412.65755.65755c.72677.76138.72677,1.66117,0,2.35333h0ZM156.67984,7.36656c.48451-.48451.48451-1.10746,0-1.62657l-.27686-.31147-1.62657,1.55735.31147.31147c.48451.51912,1.10746.51912,1.62657.06922h-.03461Z"/>
    </g>
    <g>
      <path class="cls-1" d="M150.00053,16.12235l.48451.10382c-.06922.27686,0,.58834.20765.79598.24226.27686.58834.34608.76138.17304s.03461-.65755-.10382-1.03824-.31147-.83059.06922-1.21127.96902-.31147,1.38431.13843c.31147.34608.4153.72677.24226,1.07285l-.4499-.10382c.10382-.24226,0-.48451-.13843-.65755-.20765-.20765-.51912-.24226-.69216-.10382-.17304.17304-.03461.4499.10382.8652.20765.51912.31147,1.00363-.06922,1.3497-.4153.4153-1.03824.31147-1.48813-.17304-.38069-.38069-.48451-.8652-.34608-1.24588h0l.03459.03461Z"/>
      <path class="cls-1" d="M152.5615,17.22979c.65755-.62294,1.765-.62294,2.38794.03461.27686.31147.4153.72677.4153,1.17666l-.48451.06922c0-.31147-.10382-.65755-.31147-.8652-.4153-.4153-1.17666-.48451-1.66117,0-.48451.4499-.4499,1.21127-.03461,1.66117.24226.24226.55373.34608.8652.34608l-.10382.48451c-.38069,0-.79598-.10382-1.14205-.48451-.65755-.65755-.62294-1.765.03461-2.38794h0l.03459-.03461Z"/>
      <path class="cls-1" d="M155.36474,21.76342l-.38069.34608-1.38431-1.41892,2.35333-2.28412.34608.38069-1.97265,1.90343,1.00363,1.03824h.03461v.03461Z"/>
    </g>
    <g>
      <path class="cls-1" d="M150.00053,23.14773l.48451.10382c-.06922.27686,0,.58834.20765.79598.24226.27686.58834.34608.76138.17304s.03461-.65755-.10382-1.03824-.31147-.83059.06922-1.21127.96902-.31147,1.38431.13843c.31147.34608.4153.72677.24226,1.07285l-.4499-.10382c.10382-.24226,0-.48451-.13843-.65755-.20765-.20765-.51912-.24226-.69216-.10382-.17304.17304-.03461.4499.10382.8652.20765.51912.31147,1.00363-.06922,1.3497-.4153.4153-1.03824.31147-1.48813-.17304-.38069-.38069-.48451-.8652-.34608-1.24588h0l.03459.03461Z"/>
      <path class="cls-1" d="M154.46494,26.29705c-.72677.69216-1.62657.65755-2.35333-.06922l-.65755-.65755,2.35333-2.28412.65755.65755c.72677.76138.72677,1.66117,0,2.35333h0ZM154.11886,25.91636c.48451-.48451.48451-1.10746,0-1.62657l-.27686-.31147-1.62657,1.55735.31147.31147c.48451.51912,1.10746.51912,1.62657.06922h-.03461Z"/>
      <path class="cls-1" d="M155.1917,28.68499l-1.07285-1.10746-.51912.17304-.38069-.4153,3.46078-1.21127h0l-1.3497,3.46078-.38069-.4153.20765-.51912h.03461v.03462ZM155.36474,28.23509l.51912-1.31509-1.31509.48451.79598.83059Z"/>
    </g>
  </g>
  <g>
    <g>
      <path class="cls-1" d="M119.05891,37.5322c.96902,0,1.59196.69216,1.59196,1.55735s-.76138,1.69578-1.69578,1.69578-1.69578-.76138-1.69578-1.69578.20765-.8652.48451-1.17666l.4153.27686c-.24226.24226-.4153.58834-.4153.89981,0,.58834.48451,1.17666,1.17666,1.17666s1.17666-.51912,1.17666-1.21127-.34608-.96902-.83059-.96902h0v1.00363h-.48451v-1.55735h.27686Z"/>
      <path class="cls-1" d="M117.29391,34.41749h3.32235l-2.18029,2.11108h2.14569v.51912h-3.32235l2.18029-2.11108h-2.14569v-.51912Z"/>
      <path class="cls-1" d="M118.95508,31.16436c1.00363,0,1.62657.65755,1.62657,1.69578v.93442h-3.25313v-.93442c0-1.03824.62294-1.69578,1.62657-1.69578h-.00001ZM118.95508,31.68348c-.69216,0-1.14205.4499-1.14205,1.17666v.4153h2.24951v-.4153c0-.72677-.4153-1.17666-1.10746-1.17666Z"/>
      <path class="cls-1" d="M125.2191,38.57043c.55373,0,1.00363.48451,1.00363,1.10746s-.34608,1.00363-.79598,1.10746l-.13843-.51912c.24226-.06922.4153-.31147.4153-.58834s-.24226-.58834-.51912-.58834-.65755.4153-.65755.96902l-.31147-.06922c0-.38069-.17304-.72677-.48451-.72677s-.4153.20765-.4153.4499.13843.38069.34608.4153l-.10382.51912c-.38069-.10382-.72677-.4499-.72677-.93442s.38069-.93442.8652-.93442.55373.20765.65755.4153c.13843-.34608.4153-.58834.83059-.58834h0l.0346-.03459Z"/>
      <path class="cls-1" d="M122.93498,35.3173l3.32235,1.52274h0l-3.32235,1.52274v-.55373l2.2149-.96902-2.2149-.96902v-.55373Z"/>
      <path class="cls-1" d="M125.2191,32.89475c.55373,0,1.00363.48451,1.00363,1.10746s-.34608,1.00363-.79598,1.10746l-.13843-.51912c.24226-.06922.4153-.31147.4153-.58834s-.24226-.58834-.51912-.58834-.65755.4153-.65755.96902l-.31147-.06922c0-.38069-.17304-.72677-.48451-.72677s-.4153.20765-.4153.4499.13843.38069.34608.4153l-.10382.51912c-.38069-.10382-.72677-.4499-.72677-.93442s.38069-.93442.8652-.93442.55373.20765.65755.4153c.13843-.34608.4153-.58834.83059-.58834h0l.0346-.03459Z"/>
    </g>
    <g>
      <path class="cls-1" d="M142.59224,38.32818h.51912v2.45716h-.10382c-1.07285-1.3497-1.66117-1.90343-2.04186-1.90343s-.65755.31147-.65755.62294.31147.69216.69216.69216l-.10382.48451c-.62294,0-1.10746-.51912-1.10746-1.14205s.51912-1.14205,1.14205-1.14205,1.21127.58834,1.66117,1.31509v-1.3497h0v-.03461Z"/>
      <path class="cls-1" d="M139.789,37.04769h3.28774v.51912h-2.6302l.13843.4499h-.51912l-.24226-.79598v-.13843h0l-.0346-.03461Z"/>
    </g>
    <g>
      <path class="cls-1" d="M153.35527,38.57043c.55373,0,1.00363.48451,1.00363,1.10746s-.34608,1.00363-.79598,1.10746l-.13843-.51912c.24226-.06922.4153-.31147.4153-.58834s-.24226-.58834-.51912-.58834-.65755.4153-.65755.96902l-.31147-.06922c0-.38069-.17304-.72677-.48451-.72677s-.4153.20765-.4153.4499.13843.38069.34608.4153l-.10382.51912c-.38069-.10382-.72677-.4499-.72677-.93442s.38069-.93442.8652-.93442.55373.20765.65755.4153c.13843-.34608.4153-.58834.83059-.58834h0l.0346-.03459Z"/>
      <path class="cls-1" d="M153.63214,35.7326v.34608h.69216v.51912h-.69216v1.765l-2.56098-1.21127v-.55373l2.07647.96902v-.96902h-1.03824v-.51912h1.03824v-.34608h.51912-.03461Z"/>
    </g>
    <g>
      <path class="cls-1" d="M147.7142,38.57043c.55373,0,1.00363.48451,1.00363,1.10746s-.34608,1.00363-.79598,1.10746l-.13843-.51912c.24226-.06922.4153-.31147.4153-.58834s-.24226-.58834-.51912-.58834-.65755.4153-.65755.96902l-.31147-.06922c0-.38069-.17304-.72677-.48451-.72677s-.4153.20765-.4153.4499.13843.38069.34608.4153l-.10382.51912c-.38069-.10382-.72677-.4499-.72677-.93442s.38069-.93442.8652-.93442.55373.20765.65755.4153c.13843-.34608.4153-.58834.83059-.58834h0l.0346-.03459Z"/>
      <path class="cls-1" d="M147.7142,36.04407c.55373,0,1.00363.48451,1.00363,1.10746s-.34608,1.00363-.79598,1.10746l-.13843-.51912c.24226-.06922.4153-.31147.4153-.58834s-.24226-.58834-.51912-.58834-.65755.4153-.65755.96902l-.31147-.06922c0-.38069-.17304-.72677-.48451-.72677s-.4153.20765-.4153.4499.13843.38069.34608.4153l-.10382.51912c-.38069-.10382-.72677-.4499-.72677-.93442s.38069-.93442.8652-.93442.55373.20765.65755.4153c.13843-.34608.4153-.58834.83059-.58834h0l.0346-.03459Z"/>
    </g>
    <g>
      <path class="cls-1" d="M168.9288,38.25896v.8652h2.76863v.51912h-2.76863v.8652h-.51912v-2.28412h.51912v.03461Z"/>
      <path class="cls-1" d="M169.96703,37.0823l-1.55735.96902v-.58834l1.10746-.69216-1.10746-.69216v-.58834l1.55735.96902,1.69579-1.03824v.58834l-1.24587.76138,1.24587.76138v.58834l-1.69579-1.03824Z"/>
    </g>
    <g>
      <path class="cls-1" d="M165.57183,38.81269l-1.28049.8652v.4153h1.28049v.51912h-3.25313v-1.00363c0-.62294.48451-1.10746,1.03824-1.10746s.79598.27686.89981.65755l1.31509-.93442v.62294h0v-.0346ZM163.87606,39.60867c0-.31147-.24226-.55373-.55373-.55373s-.51912.27686-.51912.55373v.51912h1.07285v-.51912Z"/>
      <path class="cls-1" d="M163.87606,37.0823l-1.55735.96902v-.58834l1.10746-.69216-1.10746-.69216v-.58834l1.55735.96902,1.69579-1.03824v.58834l-1.24588.76138,1.24588.76138v.58834l-1.69578-1.03824h-.00001Z"/>
    </g>
    <g>
      <path class="cls-1" d="M159.2386,38.25896v.34608h.69216v.51912h-.69216v1.765l-2.56098-1.21127v-.55373l2.07647.96902v-.96902h-1.03824v-.51912h1.03824v-.34608h.51912-.03461Z"/>
      <path class="cls-1" d="M159.44625,35.55956h.51912v2.45716h-.10382c-1.07285-1.3497-1.66117-1.90343-2.04186-1.90343s-.65755.31147-.65755.62294.31147.69216.69216.69216l-.10382.48451c-.62294,0-1.10746-.51912-1.10746-1.14205s.51912-1.14205,1.14205-1.14205,1.21127.58834,1.66117,1.31509v-1.3497h0v-.03461Z"/>
    </g>
    <g>
      <path class="cls-1" d="M134.11332,39.81632h3.28774v.51912h-2.6302l.13843.4499h-.51912l-.24226-.79598v-.13843h0l-.0346-.03461Z"/>
      <path class="cls-1" d="M136.74351,36.84004v.34608h.69216v.51912h-.69216v1.765l-2.56098-1.21127v-.55373l2.07647.96902v-.96902h-1.03824v-.51912h1.03824v-.34608h.51912-.03461Z"/>
    </g>
    <g>
      <path class="cls-1" d="M128.57607,39.88554h3.28774v.51912h-2.6302l.13843.4499h-.51912l-.24226-.79598v-.13843h0l-.0346-.03461Z"/>
      <path class="cls-1" d="M130.89478,37.18612c.55373,0,1.00363.48451,1.00363,1.10746s-.34608,1.00363-.79598,1.10746l-.13843-.51912c.24226-.06922.4153-.31147.4153-.58834s-.24226-.58834-.51912-.58834-.65755.4153-.65755.96902l-.31147-.06922c0-.38069-.17304-.72677-.48451-.72677s-.4153.20765-.4153.4499.13843.38069.34608.4153l-.10382.51912c-.38069-.10382-.72677-.4499-.72677-.93442s.38069-.93442.8652-.93442.55373.20765.65755.4153c.13843-.34608.4153-.58834.83059-.58834h0l.0346-.03459Z"/>
    </g>
  </g>
  <g>
    <path class="cls-1" d="M124.44174,64.15616h-3.35696v-.51912h1.79961l-1.765-1.07285h0l1.765-1.10746h-1.79961v-.51912h3.35696c0,.03461-2.38794,1.59196-2.38794,1.59196l2.38794,1.55735h0v.06922Z"/>
    <path class="cls-1" d="M123.85341,65.29823h-.83059v1.24588h-.51912v-1.24588h-.89981v1.41892h-.51912v-1.93804h3.25313v1.93804h-.51912v-1.41892h.03461Z"/>
    <path class="cls-1" d="M124.37253,69.90106h-3.32235l2.18029-2.11108h-2.14569v-.51912h3.32235l-2.18029,2.11108h2.14569v.51912Z"/>
    <path class="cls-1" d="M122.33067,70.4894h2.04186v.51912h-2.04186c-.4499,0-.79598.31148-.79598.72676s.34608.72676.79598.72676h2.04186v.51912h-2.04186c-.76138,0-1.31509-.55372-1.31509-1.24587s.55373-1.24587,1.31509-1.24587Z"/>
  </g>
  <g>
    <g>
      <path class="cls-1" d="M85.46185,49.79064c0-1.24588,1.00363-2.24951,2.24951-2.24951s2.24951,1.00363,2.24951,2.24951-1.00363,2.24951-2.24951,2.24951-2.24951-1.00363-2.24951-2.24951ZM89.26871,49.79064c0-.8652-.69216-1.55735-1.55735-1.55735s-1.55735.69216-1.55735,1.55735.69216,1.55735,1.55735,1.55735,1.55735-.69216,1.55735-1.55735Z"/>
      <path class="cls-1" d="M90.5838,47.61035h1.45353c.83059,0,1.52274.65755,1.52274,1.45353s-.69216,1.41892-1.52274,1.41892h-.76138v1.52274h-.69216v-4.36059h0v-.03461ZM92.90253,49.06387c0-.4153-.38069-.76138-.8652-.76138h-.76138v1.48813h.76138c.48451,0,.8652-.31147.8652-.72677h0Z"/>
      <path class="cls-1" d="M94.80596,48.3025v1.10746h1.66117v.69216h-1.66117v1.21127h1.90343v.69216h-2.59559v-4.36059h2.59559v.65755h-1.90343Z"/>
      <path class="cls-1" d="M100.93155,47.61035v4.4298h0l-2.80324-2.90706v2.83785h-.69216v-4.4298h.03461l2.76863,2.90706v-2.83785h.69216Z"/>
    </g>
    <g>
      <path class="cls-1" d="M107.85311,52.14396h-1.03824v-1.97265l-1.17666,1.90343h-.20765l-.06922-.06922-1.14205-1.83421v1.97265h-1.03824v-4.81049h.31147l2.00725,3.01089,1.97265-3.01089h.31147v4.81049h.06922ZM107.16096,51.79789h.34608v-3.77225l-1.97265,2.97628-1.97265-2.97628v3.77225h.34608v-2.87245l1.62657,2.6302,1.62657-2.6302v2.83785h0v.0346Z"/>
      <path class="cls-1" d="M110.10262,52.21318c-1.03824,0-1.83421-.83059-1.83421-1.90343v-2.87245h1.03824v2.87245c0,.48451.34608.8652.79598.8652s.79598-.38069.79598-.8652v-2.87245h1.03824v2.87245c0,1.07285-.79598,1.90343-1.83421,1.90343ZM108.6491,47.78339v2.52637c0,.89981.62294,1.55735,1.48813,1.55735s1.48813-.65755,1.48813-1.55735v-2.52637h-.34608v2.52637c0,.69216-.48451,1.21127-1.14205,1.21127s-1.14205-.51912-1.14205-1.21127v-2.52637h-.34608Z"/>
      <path class="cls-1" d="M113.80567,52.21318c-.76138,0-1.38431-.34608-1.66117-.93442l-.06922-.13843.83059-.58834.10382.17304c.17304.27686.4499.4499.83059.4499s.69216-.17304.69216-.38069-.51912-.51912-.96902-.69216c-.51912-.24226-1.21127-.51912-1.21127-1.3497s.69216-1.38431,1.59196-1.38431,1.21127.34608,1.41892.89981v.13843c.03461,0-.72677.55373-.72677.55373l-.06922-.17304c-.10382-.20765-.34608-.34608-.58834-.34608s-.55373.17304-.55373.38069.20765.27686.65755.4499l.17304.06922c.65755.27686,1.31509.65755,1.31509,1.48813s-.72677,1.45353-1.73039,1.45353v-.06922h-.03459ZM112.52517,51.24417c.24226.38069.72677.62294,1.28049.62294.83059,0,1.38431-.4499,1.38431-1.10746s-.4153-.8652-1.10746-1.17666l-.17304-.06922c-.4499-.20765-.8652-.34608-.8652-.76138s.38069-.72677.89981-.72677.62294.13843.79598.38069l.24226-.17304c-.17304-.34608-.55373-.55373-1.03824-.55373-.72677,0-1.24588.4499-1.24588,1.03824s.4153.76138.96902,1.00363c.55373.24226,1.17666.51912,1.17666,1.03824s-.4499.72677-1.03824.72677-.79598-.17304-1.00363-.4499l-.27686.20765h0Z"/>
      <path class="cls-1" d="M117.99322,52.21318c-1.3497,0-2.42255-1.07285-2.42255-2.42255s1.10746-2.42255,2.42255-2.42255,1.17666.24226,1.62657.72677l.10382.10382-.62294.83059-.13843-.13843c-.31147-.31147-.65755-.4499-1.00363-.4499-.72677,0-1.38431.65755-1.38431,1.38431s.72677,1.38431,1.38431,1.38431.79598-.24226,1.00363-.48451l.13843-.13843.58834.83059-.10382.10382c-.48451.48451-1.00363.69216-1.62657.69216h.0346ZM117.99322,47.71417c-1.10746,0-2.07647.96902-2.07647,2.07647s.96902,2.07647,2.07647,2.07647.89981-.17304,1.28049-.51912l-.20765-.27686c-.34608.27686-.72677.4499-1.10746.4499-.89981,0-1.73039-.79598-1.73039-1.73039s.79598-1.73039,1.73039-1.73039.76138.13843,1.10746.4153l.20765-.24226c-.38069-.34608-.83059-.51912-1.28049-.51912Z"/>
      <path class="cls-1" d="M122.83831,52.14396h-2.97628v-4.70667h1.03824v3.66843h1.93804v1.03824ZM120.20812,51.79789h2.28412v-.34608h-1.93804v-3.66843h-.34608v4.01451Z"/>
      <path class="cls-1" d="M125.98763,52.14396h-2.94167v-4.70667h2.94167v1.00363h-1.90343v.76138h1.66117v1.03824h-1.66117v.8652h1.90343v1.03824ZM123.39204,51.79789h2.24951v-.34608h-1.90343v-1.55735h1.66117v-.34608h-1.66117v-1.45353h1.90343v-.31147h-2.24951v4.01451Z"/>
    </g>
    <g>
      <path class="cls-1" d="M96.43253,55.60475v.51912h-1.97265v-3.25313h.51912v2.76863h1.45353v-.03461Z"/>
      <path class="cls-1" d="M98.9243,55.63936h-1.55735l-.20765.48451h-.55373l1.52274-3.32235h0l1.52274,3.32235h-.55373l-.20765-.48451h.03462ZM98.71665,55.18946l-.58834-1.28049-.58834,1.28049h1.17667Z"/>
      <path class="cls-1" d="M99.75488,55.57015l.4153-.27686c.13843.24226.4153.4153.72677.4153s.65755-.17304.65755-.4153-.4153-.48451-.79598-.65755c-.38069-.17304-.79598-.38069-.79598-.8652s.4499-.89981,1.03824-.89981.83059.24226.93442.58834l-.38069.27686c-.10382-.20765-.31147-.34608-.55373-.34608s-.55373.17304-.55373.4153.31147.34608.69216.51912c.51912.24226.93442.48451.93442,1.00363s-.51912.96902-1.17666.96902-.93442-.24226-1.14205-.62294v-.10382h-.00002Z"/>
      <path class="cls-1" d="M104.21929,56.12387l-1.21127-1.59196v1.59196h-.51912v-3.25313h.51912v1.55735l1.10746-1.55735h.58834l-1.17666,1.59196,1.28049,1.66117h-.62294.03459Z"/>
      <path class="cls-1" d="M107.36861,54.98181c0,.69216-.55373,1.17666-1.21127,1.17666s-.93442-.27686-1.10746-.69216l.51912-.17304c.10382.20765.38069.34608.58834.34608.31147,0,.69216-.24226.69216-.65755s-.27686-.62294-.65755-.62294-.58834.13843-.72677.38069l-.27686-.17304.24226-1.69578h1.69578v.51912h-1.31509l-.10382.65755c.13843-.13843.34608-.20765.55373-.20765.69216,0,1.14205.48451,1.14205,1.14205h-.03462Z"/>
      <path class="cls-1" d="M111.83301,52.87073l-1.52274,3.32235h0l-1.48813-3.32235h.55373l.96902,2.2149.96902-2.2149h.55373-.03461Z"/>
      <path class="cls-1" d="M114.49782,55.60475v.51912h-2.45716v-.10382c1.3497-1.07285,1.90343-1.66117,1.90343-2.04186s-.31147-.65755-.62294-.65755-.69216.31147-.69216.69216l-.48451-.10382c0-.62294.51912-1.10746,1.14205-1.10746s1.14205.51912,1.14205,1.14205-.58834,1.21127-1.31509,1.66117h1.38431Z"/>
      <path class="cls-1" d="M114.87851,55.88162c0-.17304.17304-.34608.34608-.34608s.34608.17304.34608.34608-.17304.34608-.34608.34608-.34608-.13843-.34608-.34608Z"/>
      <path class="cls-1" d="M116.92037,52.83612v3.28774h-.51912v-2.6302l-.4499.13843v-.51912l.79598-.24226h.17304v-.0346Z"/>
    </g>
  </g>
  <g>
    <path class="cls-1" d="M128.73181,63.48272l.4153-.27686c.13843.24226.4153.4153.72677.4153s.65755-.17304.65755-.4153-.4153-.48451-.79598-.65755c-.38069-.17304-.79598-.38069-.79598-.8652s.4499-.89981,1.03824-.89981.83059.24226.93442.58834l-.38069.27686c-.10382-.20765-.31147-.34608-.55373-.34608s-.55373.17304-.55373.4153.31147.34608.69216.51912c.51912.24226.93442.48451.93442,1.00363s-.51912.96902-1.17666.96902-.93442-.24226-1.14205-.62294v-.10382h-.00002Z"/>
    <path class="cls-1" d="M131.98494,61.30242v.83059h1.24588v.51912h-1.24588v.89981h1.41892v.51912h-1.93804v-3.25313h1.93804v.51912h-1.41892v-.03461Z"/>
    <path class="cls-1" d="M135.93024,63.55193v.51912h-1.97265v-3.25313h.51912v2.76863h1.45353v-.03461Z"/>
    <path class="cls-1" d="M136.86465,61.30242v.83059h1.24588v.51912h-1.24588v.89981h1.41892v.51912h-1.93804v-3.25313h1.93804v.51912h-1.41892v-.03461Z"/>
    <path class="cls-1" d="M138.66425,62.40988c0-.93442.76138-1.69578,1.69578-1.69578s.83059.17304,1.14205.48451l-.31147.4153c-.24226-.24226-.51912-.38069-.83059-.38069-.58834,0-1.14205.51912-1.14205,1.17666s.58834,1.17666,1.17666,1.17666.62294-.17304.83059-.38069l.31147.4153c-.27686.27686-.65755.48451-1.14205.48451-.93442,0-1.69578-.76138-1.69578-1.69578h-.03461Z"/>
    <path class="cls-1" d="M143.92465,61.30242h-.8652v2.76863h-.51912v-2.76863h-.8652v-.51912h2.28412v.51912h-.03461Z"/>
  </g>
  <g>
    <path class="cls-1" d="M178.08259,10.10548c0-.93442.76138-1.69578,1.69579-1.69578s1.69579.76138,1.69579,1.69578-.76138,1.69578-1.69579,1.69578-1.69579-.76138-1.69579-1.69578ZM180.92043,10.10548c0-.65755-.51912-1.17666-1.17667-1.17666s-1.17667.51912-1.17667,1.17666.51912,1.17666,1.17667,1.17666,1.17667-.51912,1.17667-1.17666Z"/>
    <path class="cls-1" d="M184.55426,8.47892v3.32235h0l-2.07647-2.18029v2.14569h-.51912v-3.32235h0l2.07647,2.18029v-2.14569h.51912Z"/>
    <path class="cls-1" d="M186.21543,8.23666h.4499l-1.31509,3.77225h-.4499l1.31509-3.77225Z"/>
    <path class="cls-1" d="M186.87297,10.10548c0-.93442.76138-1.69578,1.69579-1.69578s1.69579.76138,1.69579,1.69578-.76138,1.69578-1.69579,1.69578-1.69579-.76138-1.69579-1.69578ZM189.74543,10.10548c0-.65755-.51912-1.17666-1.17667-1.17666s-1.17667.51912-1.17667,1.17666.51912,1.17666,1.17667,1.17666,1.17667-.51912,1.17667-1.17666Z"/>
    <path class="cls-1" d="M191.23357,8.96343v.8652h1.24587v.51912h-1.24587v1.38431h-.51912v-3.28774h1.93803v.51912h-1.41891Z"/>
    <path class="cls-1" d="M193.58689,8.96343v.8652h1.24587v.51912h-1.24587v1.38431h-.51912v-3.28774h1.93803v.51912h-1.41891Z"/>
  </g>
  <g>
    <path class="cls-1" d="M183.8621.24225h.51912v3.25313h-.51912V.24225Z"/>
    <path class="cls-1" d="M186.07699,0h.4499l-1.31509,3.77225h-.4499l1.31509-3.77225Z"/>
    <path class="cls-1" d="M186.73455,1.86882c0-.96902.55372-1.69578,1.34971-1.69578s1.34971.69216,1.34971,1.69578-.55372,1.69578-1.34971,1.69578-1.34971-.69216-1.34971-1.69578ZM188.88024,1.86882c0-.69216-.31148-1.17666-.8306-1.17666s-.8306.48451-.8306,1.17666.31148,1.17666.8306,1.17666.8306-.48451.8306-1.17666Z"/>
  </g>
  <g>
    <path class="cls-1" d="M47.7452,64.07272l-.8652-1.28049h-.41529v1.28049h-.51912v-3.25313h1.00363c.62294,0,1.10745.48451,1.10745,1.03824s-.27686.79598-.65755.89981l.93441,1.31509h-.62294.03461ZM46.98383,62.41154c.31147,0,.55373-.24226.55373-.55373s-.27686-.51912-.55373-.51912h-.51912v1.07285h.51912Z"/>
    <path class="cls-1" d="M48.54118,63.51899l.41529-.27686c.13843.24226.41529.4153.72677.4153s.65755-.17304.65755-.4153-.41529-.48451-.79598-.65755-.79598-.38069-.79598-.8652.4499-.89981,1.03824-.89981.83059.24226.93441.58834l-.38069.27686c-.10382-.20765-.31147-.34608-.55373-.34608s-.55373.17304-.55373.4153.31147.34608.69216.51912c.51912.24226.93441.48451.93441,1.00363s-.51912.96902-1.17666.96902-.93441-.24226-1.14206-.62294v-.10382h.00001Z"/>
    <path class="cls-1" d="M53.31707,61.33869h-.8652v2.76863h-.51912v-2.76863h-.8652v-.51912h2.28412v.51912h-.03461Z"/>
  </g>
  <path class="cls-1" d="M61.62722,66.34322c0-.96902.55373-1.69578,1.3497-1.69578s1.3497.69216,1.3497,1.69578-.55373,1.69578-1.3497,1.69578-1.3497-.69216-1.3497-1.69578ZM63.7729,66.34322c0-.69216-.31147-1.17666-.83059-1.17666s-.83059.48451-.83059,1.17666.31147,1.17666.83059,1.17666.83059-.48451.83059-1.17666Z"/>
  <g>
    <g>
      <path class="cls-1" d="M21.45686,37.65384h.62294s0,2.45716,0,2.45716h-4.04912s0-.62294,0-.62294h3.42617v-1.83422s0,0,0,0Z"/>
      <path class="cls-1" d="M21.45686,34.53914v1.93804s.62294.27686.62294.27686v.69216s-4.15294-1.90343-4.15294-1.90343h0l4.15294-1.90343v.69216s-.62294.27686-.62294.27686h0v-.06921ZM20.93774,34.78139l-1.59196.72676,1.59196.72676s0-1.45353,0-1.45353Z"/>
      <path class="cls-1" d="M21.38765,33.5009l-.34608-.51912c.31147-.17304.48451-.51912.48451-.8998s-.20765-.79598-.51912-.79598-.58834.51912-.79598,1.00363c-.20765.48451-.4499,1.00363-1.10745,1.00363s-1.14205-.58833-1.14206-1.3151.27686-1.00363.72677-1.17667l.31147.48451c-.27686.13843-.4153.41529-.4153.69216s.24226.65755.51912.65755.4153-.38069.65755-.8652c.27686-.65755.58834-1.14206,1.24588-1.14206s1.17666.62294,1.17667,1.45353-.31147,1.17667-.79598,1.41892Z"/>
      <path class="cls-1" d="M22.07981,27.96365l-1.97265,1.48814h1.97265s0,.62294,0,.62294h-4.04912s0-.62294,0-.62294h1.93804s-1.93804-1.38431-1.93804-1.38431v-.72676s2.00725,1.45353,2.00725,1.45353l2.07647-1.59196v.76137h0-.0346Z"/>
      <path class="cls-1" d="M20.66088,24.05296c.8652,0,1.45353.65755,1.45353,1.48814s-.34608,1.17667-.8652,1.38431l-.20765-.62294c.24226-.13843.4153-.4499.4153-.72677,0-.41529-.27686-.8652-.83059-.8652s-.79598.34608-.79598.83059.17304.72676.48451.8998l-.20765.34608-2.11108-.31147v-2.07647s.62294,0,.62294,0v1.62657s.83059.13843.83059.13843c-.17304-.17304-.24226-.41529-.24226-.69216,0-.8652.58834-1.41892,1.41892-1.41892h.03461Z"/>
      <path class="cls-1" d="M18.03068,18.51571l4.15294,1.86882h0l-4.15294,1.86883v-.69216s2.73402-1.21128,2.73402-1.21128l-2.73402-1.21127v-.69216h0v.06921Z"/>
      <path class="cls-1" d="M21.45685,15.19336h.62294s0,3.04549,0,3.04549h-.13843c-1.3497-1.66118-2.04186-2.35333-2.56098-2.35333s-.79598.38069-.79598.76137.38069.8652.8652.8652l-.13843.58833c-.76138,0-1.3497-.62294-1.3497-1.41892s.65755-1.41892,1.41892-1.41892,1.48813.72676,2.07647,1.62657v-1.69578h-.00001Z"/>
      <path class="cls-1" d="M21.76833,14.70885c-.24226,0-.4153-.20765-.4153-.41529s.20765-.41529.4153-.41529.4153.20765.4153.41529-.20765.41529-.4153.41529Z"/>
      <path class="cls-1" d="M17.99607,12.18248h4.08372s0,.62294,0,.62294h-3.28774s.17304.55373.17304.55373h-.65755s-.31147-1.00363-.31147-1.00363v-.17304Z"/>
    </g>
    <g>
      <path class="cls-1" d="M10.41696,31.18218c-3.39156,0-6.16019-2.6648-6.16019-5.95255s2.76862-5.95255,6.16019-5.95255,6.09098,2.69941,6.09098,5.98715-2.73401,5.95255-6.09098,5.95255v-.03461ZM10.41696,21.59581c-2.07647,0-3.73764,1.62657-3.73764,3.63382s1.69578,3.63382,3.73764,3.63382,3.70304-1.62657,3.70304-3.63382-1.66117-3.63382-3.70304-3.63382Z"/>
      <path class="cls-1" d="M16.61175,6.22993v2.90706s-4.4298,0-4.4298,0l4.22216,2.83784v.34608s-.13843.10382-.13843.10382l-4.08372,2.73402h4.4298s0,2.90706,0,2.90706H3.91069s0-.58833,0-.58833l7.5445-5.32961L3.91068,6.81827v-.58833s12.70108,0,12.70108,0h-.00001ZM15.98881,8.54865v-1.69578H5.01812s7.50991,5.295,7.50991,5.295l-7.5099,5.295h10.97069v-1.69579h-5.84872s5.39882-3.63382,5.39882-3.63382l-5.39883-3.59921h5.84872s0,.0346,0,.0346Z"/>
      <g>
        <path class="cls-1" d="M16.57717,39.31502l-.48451.48451-.06922-.06922.48451-.48451.06922.06922ZM16.02344,38.7613l-.48451.48451-.48451-.48451.48451-.48451.48451.48451ZM15.01981,37.79228l-.48451.48451-.48451-.48451.48451-.48451.48451.48451ZM14.01618,36.82326l-.48451.48451-.48451-.48451.48451-.48451.48451.48451ZM13.01255,35.85424l-.48451.48451-.48451-.48451.48451-.48451.48451.48451ZM12.00893,34.88522l-.48451.48451-.48451-.48451.48451-.48451.48451.48451ZM11.03991,33.95081l-.48451.48451-.48451-.48451.48451-.48451.48451.48451ZM10.03627,32.98179l-.48451.48451-.48451-.48451.48451-.48451.48451.48451ZM9.03265,32.01277l-.48451.48451-.48451-.48451.48451-.48451.48451.48451ZM8.02902,31.04375l-.48451.48451-.48451-.48451.48451-.48451.48451.48451ZM7.0254,30.07473l-.48451.48451-.48451-.48451.48451-.48451.48451.48451ZM6.02177,29.10571l-.48451.48451-.48451-.48451.48451-.48451.48451.48451ZM5.01814,28.1713l-.48451.48451-.48451-.48451.48451-.48451.48451.48451Z"/>
        <polygon class="cls-1" points="16.61176 18.58493 16.61177 40.14561 .4153 34.22768 .62295 33.60474 15.91961 39.14198 15.9196 18.58493 16.61176 18.58493"/>
      </g>
      <path class="cls-1" d="M3.01088,27.68679c-.51912.58833-1.765,2.11108-2.49177,3.66843v-.79598c-.03461,0-.51912.10382-.51912.10382l.10382,1.83422H.10382l1.86882-1.00363-.24226-.41529-.69216.38069c.69216-1.41892,1.86882-2.80324,2.31873-3.39157l.10382-.10382-.38069-.31147-.10382.10382v-.06922s.03462,0,.03462,0Z"/>
    </g>
  </g>
  <g>
    <g>
      <path class="cls-1" d="M101.17899,39.71249h3.28774v.51912h-2.6302l.13843.4499h-.51912l-.24226-.79598v-.13843h0l-.0346-.03461Z"/>
      <path class="cls-1" d="M103.49772,39.2626c-.48451,0-.83059-.38069-.8652-.65755-.03461.24226-.31147.48451-.65755.48451s-.83059-.38069-.83059-.93442.38069-.93442.83059-.93442.58834.27686.65755.48451c.03461-.24226.34608-.65755.8652-.65755s1.03824.4499,1.03824,1.10746-.48451,1.10746-1.03824,1.10746ZM102.04419,37.67063c-.24226,0-.38069.20765-.38069.4499s.13843.4499.38069.4499.38069-.20765.38069-.4499-.13843-.4499-.38069-.4499ZM103.46311,37.5322c-.31147,0-.55373.27686-.55373.58834s.24226.58834.55373.58834.55373-.27686.55373-.58834-.24226-.58834-.55373-.58834Z"/>
    </g>
    <g>
      <path class="cls-1" d="M95.57252,39.71249h3.28774v.51912h-2.6302l.13843.4499h-.51912l-.24226-.79598v-.13843h0l-.0346-.03461Z"/>
      <path class="cls-1" d="M95.60713,37.0823h.10382l3.18393,1.31509v.55373l-2.76863-1.10746v1.52274h-.48451v-2.24951h-.03461v-.0346Z"/>
    </g>
    <g>
      <path class="cls-1" d="M74.87704,37.39376c.96902,0,1.59196.69216,1.59196,1.55735s-.76137,1.69578-1.69578,1.69578-1.69578-.76138-1.69578-1.69578.20765-.8652.48451-1.17666l.41529.27686c-.24225.24226-.41529.58834-.41529.89981,0,.58834.48451,1.17666,1.17666,1.17666s1.17666-.51912,1.17666-1.21127-.34608-.96902-.83059-.96902h0v1.00363h-.48451v-1.55735h.27686,0Z"/>
      <path class="cls-1" d="M73.11204,34.27906h3.32235l-2.18029,2.11108h2.14568v.51912h-3.32235l2.18029-2.11108h-2.14568v-.51912Z"/>
      <path class="cls-1" d="M74.77321,31.06053c1.00363,0,1.62657.65755,1.62657,1.69578v.93442h-3.25313v-.93442c0-1.03824.62294-1.69578,1.62657-1.69578ZM74.77321,31.57965c-.69216,0-1.14206.4499-1.14206,1.17666v.4153h2.24951v-.4153c0-.72677-.41529-1.17666-1.10745-1.17666Z"/>
      <path class="cls-1" d="M81.03723,38.432c.55373,0,1.00363.48451,1.00363,1.10746s-.34608,1.00363-.79598,1.10746l-.13843-.51912c.24226-.06922.4153-.31147.4153-.58834s-.24226-.58834-.51912-.58834-.65755.4153-.65755.96902l-.31147-.06922c0-.38069-.17304-.72677-.48451-.72677s-.4153.20765-.4153.4499.13843.38069.34608.4153l-.10382.51912c-.38069-.10382-.72677-.4499-.72677-.93442s.38069-.93442.8652-.93442.55373.20765.65755.4153c.13843-.34608.4153-.58834.83059-.58834h0l.0346-.03459Z"/>
      <path class="cls-1" d="M78.75312,35.17886l3.32235,1.52274h0l-3.32235,1.52274v-.55373l2.2149-.96902-2.2149-.96902v-.55373Z"/>
      <path class="cls-1" d="M81.03723,32.75632c.55373,0,1.00363.48451,1.00363,1.10746s-.34608,1.00363-.79598,1.10746l-.13843-.51912c.24226-.06922.4153-.31147.4153-.58834s-.24226-.58834-.51912-.58834-.65755.4153-.65755.96902l-.31147-.06922c0-.38069-.17304-.72677-.48451-.72677s-.4153.20765-.4153.4499.13843.38069.34608.4153l-.10382.51912c-.38069-.10382-.72677-.4499-.72677-.93442s.38069-.93442.8652-.93442.55373.20765.65755.4153c.13843-.34608.4153-.58834.83059-.58834h0l.0346-.03459Z"/>
    </g>
    <g>
      <path class="cls-1" d="M89.96606,39.71249h3.28774v.51912h-2.6302l.13843.4499h-.51912l-.24226-.79598v-.13843h0l-.0346-.03461Z"/>
      <path class="cls-1" d="M92.21557,36.94387c.58834,0,1.10746.51912,1.10746,1.14205s-.4499,1.14205-1.07285,1.14205-.55373-.17304-2.2149-1.10746v-.58834l1.24588.72677c-.03461-.10382-.06922-.20765-.06922-.31147,0-.51912.4153-1.00363,1.03824-1.00363h-.03461ZM92.21557,37.42837c-.34608,0-.62294.27686-.62294.62294s.27686.65755.62294.65755.62294-.27686.62294-.62294-.27686-.62294-.62294-.62294h0v-.03461Z"/>
    </g>
    <g>
      <path class="cls-1" d="M84.35958,39.71249h3.28774v.51912h-2.6302l.13843.4499h-.51912l-.24226-.79598v-.13843h0l-.0346-.03461Z"/>
      <path class="cls-1" d="M86.50527,36.90926c.69216,0,1.17666.55373,1.17666,1.21127s-.27686.93442-.69216,1.10746l-.17304-.51912c.20765-.10382.34608-.38069.34608-.58834,0-.31147-.24226-.69216-.65755-.69216s-.62294.27686-.62294.65755.13843.58834.38069.72677l-.17304.27686-1.69578-.24226v-1.69578h.51912v1.31509l.65755.10382c-.13843-.13843-.20765-.34608-.20765-.55373,0-.69216.48451-1.14205,1.14205-1.14205h0v.03462Z"/>
    </g>
    <g>
      <path class="cls-1" d="M106.82007,39.71249h3.28774v.51912h-2.6302l.13843.4499h-.51912l-.24226-.79598v-.13843h0l-.0346-.03461Z"/>
      <path class="cls-1" d="M109.6233,36.77083h.51912v2.45716h-.10382c-1.07285-1.3497-1.66117-1.90343-2.04186-1.90343s-.65755.31147-.65755.62294.31147.69216.69216.69216l-.10382.48451c-.62294,0-1.10746-.51912-1.10746-1.14205s.51912-1.14205,1.14205-1.14205,1.21127.58834,1.66117,1.31509v-1.3497h0v-.03461Z"/>
    </g>
    <g>
      <path class="cls-1" d="M107.71987,33.72534l1.86882.8652h0l-1.86882.8652v-.38069l1.07285-.48451-1.07285-.48451v-.38069Z"/>
      <path class="cls-1" d="M109.00037,32.27181c.27686,0,.55373.20765.55373.58834v.69216h-1.83421v-.48451c0-.31147.24226-.51912.48451-.51912s.31147.13843.31147.17304c0-.17304.17304-.4153.48451-.4153v-.03461ZM108.06595,33.17161h.34608v-.13843c0-.10382-.06922-.17304-.17304-.17304s-.17304.06922-.17304.17304v.13843ZM108.96576,32.61789c-.10382,0-.20765.06922-.20765.24226v.27686h.4499v-.27686c0-.10382-.06922-.24226-.20765-.24226h-.0346Z"/>
      <path class="cls-1" d="M109.31183,30.99131v.72677l.24226.10382v.38069l-1.86882-.8652h0l1.86882-.89981v.4153l-.24226.10382v.03461ZM109.00037,31.12975l-.48451.20765.48451.20765v-.4499.0346Z"/>
      <path class="cls-1" d="M108.10056,29.36475v.4499h1.45353v.38069h-1.45353v.4499h-.38069v-1.28049h.38069Z"/>
    </g>
  </g>
</svg>