%TF.GenerationSoftware,KiCad,Pcbnew,9.0.1*%
%TF.CreationDate,2025-04-13T07:36:32-05:00*%
%TF.ProjectId,LASK-V2-0,4c41534b-2d56-4322-9d30-2e6b69636164,rev?*%
%TF.SameCoordinates,Original*%
%TF.FileFunction,Copper,L1,Top*%
%TF.FilePolarity,Positive*%
%FSLAX46Y46*%
G04 Gerber Fmt 4.6, Leading zero omitted, Abs format (unit mm)*
G04 Created by KiCad (PCBNEW 9.0.1) date 2025-04-13 07:36:32*
%MOMM*%
%LPD*%
G01*
G04 APERTURE LIST*
G04 Aperture macros list*
%AMRoundRect*
0 Rectangle with rounded corners*
0 $1 Rounding radius*
0 $2 $3 $4 $5 $6 $7 $8 $9 X,Y pos of 4 corners*
0 Add a 4 corners polygon primitive as box body*
4,1,4,$2,$3,$4,$5,$6,$7,$8,$9,$2,$3,0*
0 Add four circle primitives for the rounded corners*
1,1,$1+$1,$2,$3*
1,1,$1+$1,$4,$5*
1,1,$1+$1,$6,$7*
1,1,$1+$1,$8,$9*
0 Add four rect primitives between the rounded corners*
20,1,$1+$1,$2,$3,$4,$5,0*
20,1,$1+$1,$4,$5,$6,$7,0*
20,1,$1+$1,$6,$7,$8,$9,0*
20,1,$1+$1,$8,$9,$2,$3,0*%
G04 Aperture macros list end*
%TA.AperFunction,SMDPad,CuDef*%
%ADD10RoundRect,0.140000X-0.140000X-0.170000X0.140000X-0.170000X0.140000X0.170000X-0.140000X0.170000X0*%
%TD*%
%TA.AperFunction,SMDPad,CuDef*%
%ADD11RoundRect,0.200000X-0.200000X-0.275000X0.200000X-0.275000X0.200000X0.275000X-0.200000X0.275000X0*%
%TD*%
%TA.AperFunction,SMDPad,CuDef*%
%ADD12RoundRect,0.250000X-0.475000X0.250000X-0.475000X-0.250000X0.475000X-0.250000X0.475000X0.250000X0*%
%TD*%
%TA.AperFunction,SMDPad,CuDef*%
%ADD13RoundRect,0.200000X0.200000X0.275000X-0.200000X0.275000X-0.200000X-0.275000X0.200000X-0.275000X0*%
%TD*%
%TA.AperFunction,SMDPad,CuDef*%
%ADD14RoundRect,0.150000X-0.150000X0.587500X-0.150000X-0.587500X0.150000X-0.587500X0.150000X0.587500X0*%
%TD*%
%TA.AperFunction,SMDPad,CuDef*%
%ADD15RoundRect,0.150000X-0.512500X-0.150000X0.512500X-0.150000X0.512500X0.150000X-0.512500X0.150000X0*%
%TD*%
%TA.AperFunction,ComponentPad*%
%ADD16R,1.700000X1.700000*%
%TD*%
%TA.AperFunction,ComponentPad*%
%ADD17O,1.700000X1.700000*%
%TD*%
%TA.AperFunction,ComponentPad*%
%ADD18R,1.350000X1.350000*%
%TD*%
%TA.AperFunction,ComponentPad*%
%ADD19O,1.350000X1.350000*%
%TD*%
%TA.AperFunction,SMDPad,CuDef*%
%ADD20R,1.450000X1.000000*%
%TD*%
%TA.AperFunction,SMDPad,CuDef*%
%ADD21RoundRect,0.225000X0.225000X0.250000X-0.225000X0.250000X-0.225000X-0.250000X0.225000X-0.250000X0*%
%TD*%
%TA.AperFunction,SMDPad,CuDef*%
%ADD22RoundRect,0.140000X-0.170000X0.140000X-0.170000X-0.140000X0.170000X-0.140000X0.170000X0.140000X0*%
%TD*%
%TA.AperFunction,SMDPad,CuDef*%
%ADD23RoundRect,0.250000X-0.300000X-0.300000X0.300000X-0.300000X0.300000X0.300000X-0.300000X0.300000X0*%
%TD*%
%TA.AperFunction,SMDPad,CuDef*%
%ADD24RoundRect,0.200000X-0.275000X0.200000X-0.275000X-0.200000X0.275000X-0.200000X0.275000X0.200000X0*%
%TD*%
%TA.AperFunction,ComponentPad*%
%ADD25RoundRect,0.250000X0.600000X0.750000X-0.600000X0.750000X-0.600000X-0.750000X0.600000X-0.750000X0*%
%TD*%
%TA.AperFunction,ComponentPad*%
%ADD26O,1.700000X2.000000*%
%TD*%
%TA.AperFunction,SMDPad,CuDef*%
%ADD27R,0.812800X1.498600*%
%TD*%
%TA.AperFunction,SMDPad,CuDef*%
%ADD28R,1.498600X0.812800*%
%TD*%
%TA.AperFunction,SMDPad,CuDef*%
%ADD29R,0.889000X0.889000*%
%TD*%
%TA.AperFunction,ComponentPad*%
%ADD30RoundRect,0.250000X-0.600000X-0.750000X0.600000X-0.750000X0.600000X0.750000X-0.600000X0.750000X0*%
%TD*%
%TA.AperFunction,SMDPad,CuDef*%
%ADD31R,1.000000X1.450000*%
%TD*%
%TA.AperFunction,SMDPad,CuDef*%
%ADD32RoundRect,0.243750X-0.243750X-0.456250X0.243750X-0.456250X0.243750X0.456250X-0.243750X0.456250X0*%
%TD*%
%TA.AperFunction,SMDPad,CuDef*%
%ADD33R,0.600000X1.450000*%
%TD*%
%TA.AperFunction,SMDPad,CuDef*%
%ADD34R,0.300000X1.450000*%
%TD*%
%TA.AperFunction,ComponentPad*%
%ADD35O,1.000000X2.100000*%
%TD*%
%TA.AperFunction,ComponentPad*%
%ADD36O,1.000000X1.600000*%
%TD*%
%TA.AperFunction,SMDPad,CuDef*%
%ADD37RoundRect,0.250000X0.250000X0.475000X-0.250000X0.475000X-0.250000X-0.475000X0.250000X-0.475000X0*%
%TD*%
%TA.AperFunction,ViaPad*%
%ADD38C,0.800000*%
%TD*%
%TA.AperFunction,Conductor*%
%ADD39C,0.250000*%
%TD*%
%TA.AperFunction,Conductor*%
%ADD40C,0.350000*%
%TD*%
%TA.AperFunction,Conductor*%
%ADD41C,0.500000*%
%TD*%
%TA.AperFunction,Conductor*%
%ADD42C,0.200000*%
%TD*%
G04 APERTURE END LIST*
D10*
%TO.P,C2,1*%
%TO.N,GND*%
X122484000Y-71120000D03*
%TO.P,C2,2*%
%TO.N,hall_0*%
X123444000Y-71120000D03*
%TD*%
D11*
%TO.P,R4,1*%
%TO.N,Net-(U4-PROG)*%
X165101000Y-75311000D03*
%TO.P,R4,2*%
%TO.N,GND*%
X166751000Y-75311000D03*
%TD*%
D12*
%TO.P,C6,1*%
%TO.N,VIN*%
X148452000Y-76581000D03*
%TO.P,C6,2*%
%TO.N,GND*%
X148452000Y-78481000D03*
%TD*%
D13*
%TO.P,R9,1*%
%TO.N,VBUS*%
X153289000Y-69596000D03*
%TO.P,R9,2*%
%TO.N,GND*%
X151639000Y-69596000D03*
%TD*%
D14*
%TO.P,Q2,1,G*%
%TO.N,VBUS*%
X156713000Y-72644000D03*
%TO.P,Q2,2,S*%
%TO.N,VIN*%
X154813000Y-72644000D03*
%TO.P,Q2,3,D*%
%TO.N,VBAT*%
X155763000Y-74519000D03*
%TD*%
D15*
%TO.P,U4,1,~{CHRG}*%
%TO.N,Net-(D2-K)*%
X159523000Y-76586000D03*
%TO.P,U4,2,GND*%
%TO.N,GND*%
X159523000Y-77536000D03*
%TO.P,U4,3,BAT*%
%TO.N,VBAT*%
X159523000Y-78486000D03*
%TO.P,U4,4,V_{CC}*%
%TO.N,VBUS*%
X161798000Y-78486000D03*
%TO.P,U4,5,PROG*%
%TO.N,Net-(U4-PROG)*%
X161798000Y-76586000D03*
%TD*%
D16*
%TO.P,J9,1,Pin_1*%
%TO.N,GND*%
X170688000Y-73787000D03*
D17*
%TO.P,J9,2,Pin_2*%
%TO.N,+3V3*%
X170688000Y-76327000D03*
%TO.P,J9,3,Pin_3*%
%TO.N,SCL*%
X170688000Y-78867000D03*
%TO.P,J9,4,Pin_4*%
%TO.N,SDA*%
X170688000Y-81407000D03*
%TD*%
D18*
%TO.P,J3,1,Pin_1*%
%TO.N,GND*%
X161290000Y-88900000D03*
D19*
%TO.P,J3,2,Pin_2*%
%TO.N,+3V3*%
X163290000Y-88900000D03*
%TO.P,J3,3,Pin_3*%
%TO.N,GP13*%
X165290000Y-88900000D03*
%TO.P,J3,4,Pin_4*%
%TO.N,GP14*%
X167290000Y-88900000D03*
%TO.P,J3,5,Pin_5*%
%TO.N,GP21*%
X169290000Y-88900000D03*
%TO.P,J3,6,Pin_6*%
%TO.N,GP33*%
X171290000Y-88900000D03*
%TO.P,J3,7,Pin_7*%
%TO.N,GP34*%
X173290000Y-88900000D03*
%TO.P,J3,8,Pin_8*%
%TO.N,GP42*%
X175290000Y-88900000D03*
%TO.P,J3,9,Pin_9*%
%TO.N,RX*%
X177290000Y-88900000D03*
%TO.P,J3,10,Pin_10*%
%TO.N,TX*%
X179290000Y-88900000D03*
%TD*%
D20*
%TO.P,SW_PWR1,1,1*%
%TO.N,GND*%
X181794000Y-75184000D03*
%TO.P,SW_PWR1,2,2*%
%TO.N,Net-(MAX1-In)*%
X181794000Y-73484000D03*
%TO.P,SW_PWR1,3*%
%TO.N,N/C*%
X186944000Y-75184000D03*
%TO.P,SW_PWR1,4*%
X186944000Y-73484000D03*
%TD*%
D18*
%TO.P,H2,1,VCC*%
%TO.N,+3V3*%
X139732000Y-68167600D03*
D19*
%TO.P,H2,2,GND*%
%TO.N,GND*%
X141732000Y-68167600D03*
%TO.P,H2,3,VOUT*%
%TO.N,hall_1*%
X143732000Y-68167600D03*
%TD*%
D21*
%TO.P,C8,1*%
%TO.N,GND*%
X166624000Y-77729000D03*
%TO.P,C8,2*%
%TO.N,VBUS*%
X165074000Y-77729000D03*
%TD*%
D15*
%TO.P,U3,1,IN*%
%TO.N,VIN*%
X151903000Y-77094000D03*
%TO.P,U3,2,GND*%
%TO.N,GND*%
X151903000Y-78044000D03*
%TO.P,U3,3,EN*%
%TO.N,LDO_EN*%
X151903000Y-78994000D03*
%TO.P,U3,4,NC*%
%TO.N,unconnected-(U3-NC-Pad4)*%
X154178000Y-78994000D03*
%TO.P,U3,5,OUT*%
%TO.N,+3V3*%
X154178000Y-77094000D03*
%TD*%
D11*
%TO.P,R3,1*%
%TO.N,Net-(MAX1-CLEAR)*%
X179325000Y-79121000D03*
%TO.P,R3,2*%
%TO.N,GND*%
X180975000Y-79121000D03*
%TD*%
%TO.P,R2,1*%
%TO.N,Net-(J4-CC1)*%
X164085000Y-94107000D03*
%TO.P,R2,2*%
%TO.N,GND*%
X165735000Y-94107000D03*
%TD*%
%TO.P,R8,1*%
%TO.N,Net-(JP1-A)*%
X163450000Y-82169000D03*
%TO.P,R8,2*%
%TO.N,GND*%
X165100000Y-82169000D03*
%TD*%
D10*
%TO.P,C4,1*%
%TO.N,GND*%
X142042000Y-70866000D03*
%TO.P,C4,2*%
%TO.N,hall_1*%
X143002000Y-70866000D03*
%TD*%
D22*
%TO.P,C5,1*%
%TO.N,GND*%
X133858000Y-93782000D03*
%TO.P,C5,2*%
%TO.N,EN*%
X133858000Y-94742000D03*
%TD*%
D10*
%TO.P,C3,1*%
%TO.N,GND*%
X185476000Y-71120000D03*
%TO.P,C3,2*%
%TO.N,hall_3*%
X186436000Y-71120000D03*
%TD*%
D23*
%TO.P,D1,1,K*%
%TO.N,VIN*%
X171087000Y-69215000D03*
%TO.P,D1,2,A*%
%TO.N,VBUS*%
X173887000Y-69215000D03*
%TD*%
D18*
%TO.P,Joystick1,1,Pin_1*%
%TO.N,GND*%
X172085000Y-92456000D03*
D19*
%TO.P,Joystick1,2,Pin_2*%
%TO.N,+3V3*%
X174085000Y-92456000D03*
%TO.P,Joystick1,3,Pin_3*%
%TO.N,JX*%
X176085000Y-92456000D03*
%TO.P,Joystick1,4,Pin_4*%
%TO.N,JY*%
X178085000Y-92456000D03*
%TO.P,Joystick1,5,Pin_5*%
%TO.N,JSW*%
X180085000Y-92456000D03*
%TD*%
D18*
%TO.P,H4,1,VCC*%
%TO.N,+3V3*%
X180753000Y-68167600D03*
D19*
%TO.P,H4,2,GND*%
%TO.N,GND*%
X182753000Y-68167600D03*
%TO.P,H4,3,VOUT*%
%TO.N,hall_3*%
X184753000Y-68167600D03*
%TD*%
D11*
%TO.P,R1,1*%
%TO.N,Net-(J4-CC2)*%
X164339000Y-92329000D03*
%TO.P,R1,2*%
%TO.N,GND*%
X165989000Y-92329000D03*
%TD*%
D18*
%TO.P,J6,1,Pin_1*%
%TO.N,GND*%
X145669000Y-89027000D03*
D19*
%TO.P,J6,2,Pin_2*%
%TO.N,+3V3*%
X147669000Y-89027000D03*
%TO.P,J6,3,Pin_3*%
%TO.N,GP15*%
X149669000Y-89027000D03*
%TO.P,J6,4,Pin_4*%
%TO.N,GP16*%
X151669000Y-89027000D03*
%TO.P,J6,5,Pin_5*%
%TO.N,GP17*%
X153669000Y-89027000D03*
%TO.P,J6,6,Pin_6*%
%TO.N,GP18*%
X155669000Y-89027000D03*
%TO.P,J6,7,Pin_7*%
%TO.N,ADC_BAT*%
X157669000Y-89027000D03*
%TD*%
D20*
%TO.P,SW_SEL1,1,1*%
%TO.N,b_select*%
X164973000Y-99187000D03*
%TO.P,SW_SEL1,2,2*%
%TO.N,GND*%
X164973000Y-97487000D03*
%TO.P,SW_SEL1,3*%
%TO.N,N/C*%
X170123000Y-99187000D03*
%TO.P,SW_SEL1,4*%
X170123000Y-97487000D03*
%TD*%
D24*
%TO.P,R7,1*%
%TO.N,VBAT*%
X157988000Y-80645000D03*
%TO.P,R7,2*%
%TO.N,Net-(JP1-A)*%
X157988000Y-82295000D03*
%TD*%
D25*
%TO.P,BattExtLTC4054,1*%
%TO.N,VBAT*%
X178923000Y-97201000D03*
D26*
%TO.P,BattExtLTC4054,2*%
%TO.N,GND*%
X176423000Y-97201000D03*
%TD*%
D27*
%TO.P,U2,1,GND*%
%TO.N,GND*%
X123591000Y-90665000D03*
%TO.P,U2,2,3V3*%
%TO.N,+3V3*%
X124861000Y-90665000D03*
%TO.P,U2,3,EN*%
%TO.N,EN*%
X126131000Y-90665000D03*
%TO.P,U2,4,IO4*%
%TO.N,hall_3*%
X127401000Y-90665000D03*
%TO.P,U2,5,IO5*%
%TO.N,JX*%
X128671000Y-90665000D03*
%TO.P,U2,6,IO6*%
%TO.N,JY*%
X129941000Y-90665000D03*
%TO.P,U2,7,IO7*%
%TO.N,JSW*%
X131211000Y-90665000D03*
%TO.P,U2,8,IO15*%
%TO.N,GP15*%
X132481000Y-90665000D03*
%TO.P,U2,9,IO16*%
%TO.N,GP16*%
X133751000Y-90665000D03*
%TO.P,U2,10,IO17*%
%TO.N,GP17*%
X135021000Y-90665000D03*
%TO.P,U2,11,IO18*%
%TO.N,GP18*%
X136291000Y-90665000D03*
%TO.P,U2,12,IO8*%
%TO.N,SDA*%
X137561000Y-90665000D03*
%TO.P,U2,13,IO19*%
%TO.N,D-*%
X138831000Y-90665000D03*
%TO.P,U2,14,IO20*%
%TO.N,D+*%
X140101000Y-90665000D03*
D28*
%TO.P,U2,15,IO3*%
%TO.N,hall_2*%
X141351000Y-88900000D03*
%TO.P,U2,16,IO46*%
%TO.N,unconnected-(U2-IO46-Pad16)*%
X141351000Y-87630000D03*
%TO.P,U2,17,IO9*%
%TO.N,SCL*%
X141351000Y-86360000D03*
%TO.P,U2,18,IO10*%
%TO.N,b_select*%
X141351000Y-85090000D03*
%TO.P,U2,19,IO11*%
%TO.N,b_start*%
X141351000Y-83820000D03*
%TO.P,U2,20,IO12*%
%TO.N,ADC_BAT*%
X141351000Y-82550000D03*
%TO.P,U2,21,IO13*%
%TO.N,GP13*%
X141351000Y-81280000D03*
%TO.P,U2,22,IO14*%
%TO.N,GP14*%
X141351000Y-80010000D03*
%TO.P,U2,23,IO21*%
%TO.N,GP21*%
X141351000Y-78740000D03*
%TO.P,U2,24,IO47*%
%TO.N,unconnected-(U2-IO47-Pad24)*%
X141351000Y-77470000D03*
%TO.P,U2,25,IO48*%
%TO.N,unconnected-(U2-IO48-Pad25)*%
X141351000Y-76200000D03*
%TO.P,U2,26,IO45*%
%TO.N,unconnected-(U2-IO45-Pad26)*%
X141351000Y-74930000D03*
D27*
%TO.P,U2,27,IO0*%
%TO.N,100*%
X140101000Y-73165000D03*
%TO.P,U2,28,IO35*%
%TO.N,unconnected-(U2-IO35-Pad28)*%
X138831000Y-73165000D03*
%TO.P,U2,29,IO36*%
%TO.N,unconnected-(U2-IO36-Pad29)*%
X137561000Y-73165000D03*
%TO.P,U2,30,IO37*%
%TO.N,unconnected-(U2-IO37-Pad30)*%
X136291000Y-73165000D03*
%TO.P,U2,31,IO38*%
%TO.N,unconnected-(U2-IO38-Pad31)*%
X135021000Y-73165000D03*
%TO.P,U2,32,IO39*%
%TO.N,unconnected-(U2-IO39-Pad32)*%
X133751000Y-73165000D03*
%TO.P,U2,33,IO40*%
%TO.N,GP33*%
X132481000Y-73165000D03*
%TO.P,U2,34,IO41*%
%TO.N,GP34*%
X131211000Y-73165000D03*
%TO.P,U2,35,IO42*%
%TO.N,GP42*%
X129941000Y-73165000D03*
%TO.P,U2,36,RXD0*%
%TO.N,RX*%
X128671000Y-73165000D03*
%TO.P,U2,37,TXD0*%
%TO.N,TX*%
X127401000Y-73165000D03*
%TO.P,U2,38,IO2*%
%TO.N,hall_1*%
X126131000Y-73165000D03*
%TO.P,U2,39,IO1*%
%TO.N,hall_0*%
X124861000Y-73165000D03*
%TO.P,U2,40,GND*%
%TO.N,GND*%
X123591000Y-73165000D03*
D29*
%TO.P,U2,41,GND*%
X131311000Y-83415000D03*
%TO.P,U2,42*%
%TO.N,N/C*%
X129911000Y-84815000D03*
%TO.P,U2,43*%
X131311000Y-84815000D03*
%TO.P,U2,44*%
X132711000Y-84815000D03*
%TO.P,U2,45*%
X132711000Y-83415000D03*
%TO.P,U2,46,GND*%
%TO.N,GND*%
X132711000Y-82015000D03*
%TO.P,U2,47,GND*%
X131311000Y-82015000D03*
%TO.P,U2,48,GND*%
X129911000Y-82015000D03*
%TO.P,U2,49,GND*%
X129911000Y-83415000D03*
%TD*%
D30*
%TO.P,J2,1*%
%TO.N,VBAT*%
X126278000Y-97917000D03*
D26*
%TO.P,J2,2*%
%TO.N,GND*%
X128778000Y-97917000D03*
%TD*%
D18*
%TO.P,Joystick2,1,Pin_1*%
%TO.N,GND*%
X130683000Y-93726000D03*
D19*
%TO.P,Joystick2,2,Pin_2*%
%TO.N,+3V3*%
X128683000Y-93726000D03*
%TO.P,Joystick2,3,Pin_3*%
%TO.N,JX*%
X126683000Y-93726000D03*
%TO.P,Joystick2,4,Pin_4*%
%TO.N,JY*%
X124683000Y-93726000D03*
%TO.P,Joystick2,5,Pin_5*%
%TO.N,JSW*%
X122683000Y-93726000D03*
%TD*%
D31*
%TO.P,SW_RST1,1,1*%
%TO.N,GND*%
X144526000Y-99314000D03*
%TO.P,SW_RST1,2,2*%
%TO.N,100*%
X142826000Y-99314000D03*
%TO.P,SW_RST1,3*%
%TO.N,N/C*%
X144526000Y-94164000D03*
%TO.P,SW_RST1,4*%
X142826000Y-94164000D03*
%TD*%
D13*
%TO.P,R6,1*%
%TO.N,+3V3*%
X138937000Y-93980000D03*
%TO.P,R6,2*%
%TO.N,EN*%
X137287000Y-93980000D03*
%TD*%
D32*
%TO.P,D2,1,K*%
%TO.N,Net-(D2-K)*%
X159796000Y-73279000D03*
%TO.P,D2,2,A*%
%TO.N,Net-(D2-A)*%
X161671000Y-73279000D03*
%TD*%
D20*
%TO.P,SW_BOOT1,1,1*%
%TO.N,GND*%
X133788000Y-99236000D03*
%TO.P,SW_BOOT1,2,2*%
%TO.N,EN*%
X133788000Y-97536000D03*
%TO.P,SW_BOOT1,3*%
%TO.N,N/C*%
X138938000Y-99236000D03*
%TO.P,SW_BOOT1,4*%
X138938000Y-97536000D03*
%TD*%
D33*
%TO.P,J4,A1,GND*%
%TO.N,GND*%
X148640000Y-94335000D03*
%TO.P,J4,A4,VBUS*%
%TO.N,VBUS*%
X149440000Y-94335000D03*
D34*
%TO.P,J4,A5,CC1*%
%TO.N,Net-(J4-CC1)*%
X150640000Y-94335000D03*
%TO.P,J4,A6,D+*%
%TO.N,D+*%
X151640000Y-94335000D03*
%TO.P,J4,A7,D-*%
%TO.N,D-*%
X152140000Y-94335000D03*
%TO.P,J4,A8,SBU1*%
%TO.N,unconnected-(J4-SBU1-PadA8)*%
X153140000Y-94335000D03*
D33*
%TO.P,J4,A9,VBUS*%
%TO.N,VBUS*%
X154340000Y-94335000D03*
%TO.P,J4,A12,GND*%
%TO.N,GND*%
X155140000Y-94335000D03*
%TO.P,J4,B1,GND*%
X155140000Y-94335000D03*
%TO.P,J4,B4,VBUS*%
%TO.N,VBUS*%
X154340000Y-94335000D03*
D34*
%TO.P,J4,B5,CC2*%
%TO.N,Net-(J4-CC2)*%
X153640000Y-94335000D03*
%TO.P,J4,B6,D+*%
%TO.N,D+*%
X152640000Y-94335000D03*
%TO.P,J4,B7,D-*%
%TO.N,D-*%
X151140000Y-94335000D03*
%TO.P,J4,B8,SBU2*%
%TO.N,unconnected-(J4-SBU2-PadB8)*%
X150140000Y-94335000D03*
D33*
%TO.P,J4,B9,VBUS*%
%TO.N,VBUS*%
X149440000Y-94335000D03*
%TO.P,J4,B12,GND*%
%TO.N,GND*%
X148640000Y-94335000D03*
D35*
%TO.P,J4,S1,SHIELD*%
X147570000Y-95250000D03*
D36*
X147570000Y-99430000D03*
D35*
X156210000Y-95250000D03*
D36*
X156210000Y-99430000D03*
%TD*%
D11*
%TO.P,R5,1*%
%TO.N,VBUS*%
X165609000Y-73025000D03*
%TO.P,R5,2*%
%TO.N,Net-(D2-A)*%
X167259000Y-73025000D03*
%TD*%
D37*
%TO.P,C7,1*%
%TO.N,+3V3*%
X150109000Y-73279000D03*
%TO.P,C7,2*%
%TO.N,GND*%
X148209000Y-73279000D03*
%TD*%
D10*
%TO.P,C1,1*%
%TO.N,GND*%
X163378000Y-70739000D03*
%TO.P,C1,2*%
%TO.N,hall_2*%
X164338000Y-70739000D03*
%TD*%
D18*
%TO.P,H1,1,VCC*%
%TO.N,+3V3*%
X119285000Y-68398600D03*
D19*
%TO.P,H1,2,GND*%
%TO.N,GND*%
X121285000Y-68398600D03*
%TO.P,H1,3,VOUT*%
%TO.N,hall_0*%
X123285000Y-68398600D03*
%TD*%
D18*
%TO.P,H3,1,VCC*%
%TO.N,+3V3*%
X160306000Y-68167600D03*
D19*
%TO.P,H3,2,GND*%
%TO.N,GND*%
X162306000Y-68167600D03*
%TO.P,H3,3,VOUT*%
%TO.N,hall_2*%
X164306000Y-68167600D03*
%TD*%
D16*
%TO.P,J1,1,Pin_1*%
%TO.N,GND*%
X185039000Y-84455000D03*
D17*
%TO.P,J1,2,Pin_2*%
%TO.N,+3V3*%
X185039000Y-86995000D03*
%TO.P,J1,3,Pin_3*%
%TO.N,SCL*%
X185039000Y-89535000D03*
%TO.P,J1,4,Pin_4*%
%TO.N,SDA*%
X185039000Y-92075000D03*
%TD*%
D15*
%TO.P,MAX1,1,In*%
%TO.N,Net-(MAX1-In)*%
X176160000Y-73599000D03*
%TO.P,MAX1,2,GND*%
%TO.N,GND*%
X176160000Y-74549000D03*
%TO.P,MAX1,3,CLEAR*%
%TO.N,Net-(MAX1-CLEAR)*%
X176160000Y-75499000D03*
%TO.P,MAX1,4,OU*%
%TO.N,unconnected-(MAX1-OU-Pad4)*%
X178435000Y-75499000D03*
%TO.P,MAX1,5,OUT*%
%TO.N,LDO_EN*%
X178435000Y-74549000D03*
%TO.P,MAX1,6,Vcc*%
%TO.N,VBAT*%
X178435000Y-73599000D03*
%TD*%
D31*
%TO.P,SW_M1,1,1*%
%TO.N,b_start*%
X161036000Y-99314000D03*
%TO.P,SW_M1,2,2*%
%TO.N,GND*%
X159336000Y-99314000D03*
%TO.P,SW_M1,3*%
%TO.N,N/C*%
X161036000Y-94164000D03*
%TO.P,SW_M1,4*%
X159336000Y-94164000D03*
%TD*%
D38*
%TO.N,GND*%
X166751000Y-76581000D03*
X175006000Y-74549000D03*
X147320000Y-74930000D03*
X181737000Y-76581000D03*
X162814000Y-99568000D03*
X132715000Y-80772000D03*
X150241000Y-78105000D03*
X150622000Y-69723000D03*
X166878000Y-93218000D03*
X158242000Y-77343000D03*
X123698000Y-88773000D03*
%TO.N,+3V3*%
X155321000Y-76581000D03*
X151384000Y-73279000D03*
X137922000Y-92710000D03*
X124841000Y-88773000D03*
%TO.N,SCL*%
X136779000Y-81915000D03*
X155321000Y-90551000D03*
X139827000Y-86360000D03*
%TO.N,SDA*%
X137668000Y-88646000D03*
X155565714Y-91687500D03*
X135128000Y-82423000D03*
%TO.N,JX*%
X140208000Y-94996000D03*
X128651000Y-88773000D03*
%TO.N,JY*%
X129921000Y-88773000D03*
%TO.N,JSW*%
X131191000Y-88773000D03*
%TO.N,b_start*%
X139827000Y-83820000D03*
X143764000Y-83820000D03*
%TO.N,GP14*%
X139827000Y-79883000D03*
%TO.N,GP15*%
X135509000Y-84582000D03*
%TO.N,GP16*%
X135509000Y-85598000D03*
%TO.N,VBAT*%
X179959000Y-71120000D03*
X156845000Y-78105000D03*
%TO.N,VBUS*%
X152069800Y-97536000D03*
X159258000Y-86487000D03*
X173863000Y-70612000D03*
X154559000Y-69342000D03*
X164084000Y-76835000D03*
X158115000Y-72263000D03*
X164338000Y-74041000D03*
%TO.N,b_select*%
X144399000Y-85090000D03*
X139827000Y-85090000D03*
%TO.N,Net-(JP1-A)*%
X160528000Y-80518000D03*
X163068000Y-80645000D03*
%TO.N,LDO_EN*%
X177927000Y-72517000D03*
X150749000Y-79502000D03*
%TO.N,ADC_BAT*%
X153289000Y-80518000D03*
X139954000Y-82550000D03*
%TO.N,100*%
X139065000Y-75565000D03*
X136525000Y-98425000D03*
%TO.N,GP13*%
X139700000Y-81280000D03*
%TO.N,GP17*%
X135128000Y-88646000D03*
%TO.N,GP18*%
X136398000Y-88646000D03*
%TO.N,GP21*%
X139700000Y-78359000D03*
%TO.N,GP34*%
X131191000Y-74676000D03*
%TO.N,GP33*%
X132588000Y-74676000D03*
%TO.N,TX*%
X127381000Y-75184000D03*
%TO.N,RX*%
X128651000Y-75184000D03*
%TO.N,GP42*%
X129921000Y-74676000D03*
%TO.N,Net-(J4-CC1)*%
X162306000Y-94107000D03*
X150640000Y-95834200D03*
%TO.N,Net-(J4-CC2)*%
X152349200Y-96088200D03*
X163195000Y-92456000D03*
%TD*%
D39*
%TO.N,hall_2*%
X143002000Y-88392000D02*
X142494000Y-88900000D01*
X163583609Y-71501000D02*
X145122900Y-71501000D01*
X143002000Y-73621900D02*
X143002000Y-88392000D01*
X164306000Y-70707000D02*
X164338000Y-70739000D01*
X164338000Y-70739000D02*
X164338000Y-70746609D01*
X142494000Y-88900000D02*
X141351000Y-88900000D01*
X164338000Y-70746609D02*
X163583609Y-71501000D01*
X164306000Y-68167600D02*
X164306000Y-70707000D01*
X145122900Y-71501000D02*
X143002000Y-73621900D01*
%TO.N,hall_0*%
X123285000Y-70961000D02*
X123444000Y-71120000D01*
X123444000Y-71120000D02*
X124861000Y-72537000D01*
X124861000Y-72537000D02*
X124861000Y-73165000D01*
X123285000Y-68398600D02*
X123285000Y-70961000D01*
%TO.N,hall_3*%
X121468503Y-71167888D02*
X121564279Y-71167888D01*
X163306000Y-67753386D02*
X162720214Y-67167600D01*
X120285000Y-67421000D02*
X120285000Y-69984386D01*
X184753000Y-68167600D02*
X183753000Y-67167600D01*
X122859600Y-72463209D02*
X122859600Y-85124300D01*
X120285000Y-69984386D02*
X121468503Y-71167888D01*
X184753000Y-68167600D02*
X186436000Y-69850600D01*
X122859600Y-85124300D02*
X123714300Y-85979000D01*
X120538400Y-67167600D02*
X120285000Y-67421000D01*
X126873000Y-85979000D02*
X127401000Y-86507000D01*
X162720214Y-67167600D02*
X120538400Y-67167600D01*
X127401000Y-86507000D02*
X127401000Y-90665000D01*
X121564279Y-71167888D02*
X122859600Y-72463209D01*
X186436000Y-69850600D02*
X186436000Y-71120000D01*
X123714300Y-85979000D02*
X126873000Y-85979000D01*
X183753000Y-67167600D02*
X163891786Y-67167600D01*
X163891786Y-67167600D02*
X163306000Y-67753386D01*
%TO.N,hall_1*%
X143002000Y-70866000D02*
X143002000Y-70873609D01*
X126206000Y-72090700D02*
X126131000Y-72165700D01*
X143002000Y-68897600D02*
X143732000Y-68167600D01*
X143002000Y-70866000D02*
X143002000Y-68897600D01*
X143002000Y-70873609D02*
X141784909Y-72090700D01*
X141784909Y-72090700D02*
X126206000Y-72090700D01*
X126131000Y-72165700D02*
X126131000Y-73165000D01*
%TO.N,GND*%
X159523000Y-77536000D02*
X158435000Y-77536000D01*
X147402000Y-74848000D02*
X147402000Y-74086000D01*
X164973000Y-97487000D02*
X166023000Y-98537000D01*
X162814000Y-99646000D02*
X162814000Y-99568000D01*
X151639000Y-69596000D02*
X150622000Y-69596000D01*
X132711000Y-82015000D02*
X132715000Y-80772000D01*
X131311000Y-83415000D02*
X131311000Y-82015000D01*
X160308000Y-100364000D02*
X162096000Y-100364000D01*
X123591000Y-72234609D02*
X122484000Y-71127609D01*
X163378000Y-69239600D02*
X162306000Y-68167600D01*
X150241000Y-78105000D02*
X150180000Y-78044000D01*
X129911000Y-82015000D02*
X132711000Y-82015000D01*
X162814000Y-99568000D02*
X162892000Y-99568000D01*
X166023000Y-100042000D02*
X165862000Y-100203000D01*
X156270000Y-99314000D02*
X156181000Y-99403000D01*
X150180000Y-78044000D02*
X148889000Y-78044000D01*
X166624000Y-93218000D02*
X166878000Y-93218000D01*
X166751000Y-77602000D02*
X166624000Y-77729000D01*
X150622000Y-69596000D02*
X150622000Y-69596000D01*
X132738000Y-98186000D02*
X133788000Y-99236000D01*
X159336000Y-99314000D02*
X156270000Y-99314000D01*
X129911000Y-83415000D02*
X129911000Y-82015000D01*
X181794000Y-76638000D02*
X181794000Y-78302000D01*
X147402000Y-77431000D02*
X147402000Y-75012000D01*
X133850391Y-93782000D02*
X132738000Y-94894391D01*
X185476000Y-70890600D02*
X182753000Y-68167600D01*
X166751000Y-75311000D02*
X166751000Y-76581000D01*
X150495000Y-69723000D02*
X150495000Y-69723000D01*
X155140000Y-94335000D02*
X155295000Y-94335000D01*
X159336000Y-99392000D02*
X160308000Y-100364000D01*
X123591000Y-73165000D02*
X123591000Y-72234609D01*
X151903000Y-78044000D02*
X150302000Y-78044000D01*
X142042000Y-70866000D02*
X141732000Y-70556000D01*
X150622000Y-69596000D02*
X150622000Y-69723000D01*
X133802000Y-93726000D02*
X133858000Y-93782000D01*
X158435000Y-77536000D02*
X158242000Y-77343000D01*
X163378000Y-70739000D02*
X163378000Y-69239600D01*
X165862000Y-92456000D02*
X166624000Y-93218000D01*
X166023000Y-98537000D02*
X166023000Y-100042000D01*
X148485000Y-94335000D02*
X147570000Y-95250000D01*
X166751000Y-76581000D02*
X166751000Y-77602000D01*
X155295000Y-94335000D02*
X156210000Y-95250000D01*
D40*
X123698000Y-88773000D02*
X123591000Y-88880000D01*
D39*
X148640000Y-94335000D02*
X148485000Y-94335000D01*
X147402000Y-74086000D02*
X148209000Y-73279000D01*
X181794000Y-75184000D02*
X181794000Y-76524000D01*
X176160000Y-74549000D02*
X175006000Y-74549000D01*
X122484000Y-69597600D02*
X121285000Y-68398600D01*
X166878000Y-93218000D02*
X166751000Y-93218000D01*
X130683000Y-93726000D02*
X133802000Y-93726000D01*
X122484000Y-71127609D02*
X122484000Y-71120000D01*
X163449000Y-100203000D02*
X162814000Y-99568000D01*
X166624000Y-80645000D02*
X166624000Y-77729000D01*
X185476000Y-71120000D02*
X185476000Y-70890600D01*
X148452000Y-78481000D02*
X147402000Y-77431000D01*
X144526000Y-99314000D02*
X147442000Y-99314000D01*
X166624000Y-93218000D02*
X165862000Y-93980000D01*
X181737000Y-76581000D02*
X181794000Y-76638000D01*
X175006000Y-74549000D02*
X174879000Y-74549000D01*
X133858000Y-93782000D02*
X133850391Y-93782000D01*
X132715000Y-80772000D02*
X132711000Y-80776000D01*
X165100000Y-82169000D02*
X166624000Y-80645000D01*
X150302000Y-78044000D02*
X150241000Y-78105000D01*
X131311000Y-83415000D02*
X129911000Y-83415000D01*
D40*
X123591000Y-88880000D02*
X123591000Y-90665000D01*
D39*
X148889000Y-78044000D02*
X148452000Y-78481000D01*
X181794000Y-78302000D02*
X180975000Y-79121000D01*
X181794000Y-76524000D02*
X181737000Y-76581000D01*
X165862000Y-100203000D02*
X163449000Y-100203000D01*
X132738000Y-94894391D02*
X132738000Y-98186000D01*
X147442000Y-99314000D02*
X147531000Y-99403000D01*
X162096000Y-100364000D02*
X162814000Y-99646000D01*
X159336000Y-99314000D02*
X159336000Y-99392000D01*
X122484000Y-71120000D02*
X122484000Y-69597600D01*
X147320000Y-74930000D02*
X147402000Y-74848000D01*
X147402000Y-75012000D02*
X147320000Y-74930000D01*
X150622000Y-69723000D02*
X150495000Y-69723000D01*
X141732000Y-70556000D02*
X141732000Y-68167600D01*
%TO.N,+3V3*%
X154808000Y-77094000D02*
X155321000Y-76581000D01*
X138937000Y-93980000D02*
X138937000Y-93725000D01*
D40*
X124841000Y-88773000D02*
X124841000Y-89535000D01*
D39*
X150109000Y-73279000D02*
X151384000Y-73279000D01*
D40*
X124841000Y-89535000D02*
X124861000Y-89555000D01*
D39*
X138937000Y-93725000D02*
X137922000Y-92710000D01*
X137922000Y-92710000D02*
X137795000Y-92583000D01*
D40*
X124861000Y-89555000D02*
X124861000Y-90665000D01*
D39*
X154178000Y-77094000D02*
X154808000Y-77094000D01*
%TO.N,SCL*%
X155118299Y-90602299D02*
X155269701Y-90602299D01*
X160267604Y-87450000D02*
X160327000Y-87450000D01*
X136779000Y-83312000D02*
X136779000Y-81915000D01*
X159512000Y-88598214D02*
X159512000Y-88205604D01*
X157507915Y-90602299D02*
X159512000Y-88598214D01*
X141351000Y-86360000D02*
X139827000Y-86360000D01*
X163576000Y-85979000D02*
X170688000Y-78867000D01*
X160327000Y-87450000D02*
X161798000Y-85979000D01*
X155269701Y-90602299D02*
X155321000Y-90551000D01*
X155321000Y-90551000D02*
X155372299Y-90602299D01*
X159512000Y-88205604D02*
X160267604Y-87450000D01*
X139827000Y-86360000D02*
X136779000Y-83312000D01*
X155372299Y-90602299D02*
X157507915Y-90602299D01*
X161798000Y-85979000D02*
X163576000Y-85979000D01*
%TO.N,SDA*%
X160513396Y-87900000D02*
X161984396Y-86429000D01*
X164269000Y-86429000D02*
X169291000Y-81407000D01*
X159962000Y-88958000D02*
X159962000Y-88392000D01*
X159962000Y-88392000D02*
X160454000Y-87900000D01*
X157607000Y-91313000D02*
X159962000Y-88958000D01*
X137561000Y-90665000D02*
X137668000Y-88646000D01*
X137668000Y-88646000D02*
X137561000Y-88666000D01*
X137668000Y-84963000D02*
X137668000Y-88646000D01*
X161984396Y-86429000D02*
X164269000Y-86429000D01*
X160454000Y-87900000D02*
X160513396Y-87900000D01*
X169291000Y-81407000D02*
X170688000Y-81407000D01*
X135128000Y-82423000D02*
X137668000Y-84963000D01*
X155565714Y-91687500D02*
X155940214Y-91313000D01*
X155940214Y-91313000D02*
X157607000Y-91313000D01*
%TO.N,JX*%
X139676000Y-94464000D02*
X139676000Y-93194000D01*
X128671000Y-90665000D02*
X128651000Y-88773000D01*
X139662000Y-94450000D02*
X139662000Y-93180000D01*
X139662000Y-93180000D02*
X139319000Y-92837000D01*
X138467000Y-91985000D02*
X128991700Y-91985000D01*
X128651000Y-88773000D02*
X128671000Y-88920000D01*
X128671000Y-91664300D02*
X128671000Y-90665000D01*
X140208000Y-94996000D02*
X139676000Y-94464000D01*
X128991700Y-91985000D02*
X128671000Y-91664300D01*
X140208000Y-94996000D02*
X139662000Y-94450000D01*
X139676000Y-93194000D02*
X138467000Y-91985000D01*
X139319000Y-92837000D02*
X139319000Y-92837000D01*
%TO.N,JY*%
X129941000Y-90665000D02*
X129941000Y-88920000D01*
X129921000Y-88773000D02*
X129921000Y-88900000D01*
X129941000Y-88920000D02*
X129921000Y-88773000D01*
%TO.N,JSW*%
X131191000Y-88773000D02*
X131211000Y-88920000D01*
X131211000Y-90665000D02*
X131191000Y-88773000D01*
%TO.N,b_start*%
X154440714Y-92119000D02*
X144824000Y-92119000D01*
X158111000Y-93459440D02*
X157851560Y-93200000D01*
X157851560Y-93200000D02*
X155487224Y-93200000D01*
X154440714Y-92153490D02*
X154440714Y-92119000D01*
X155487224Y-93200000D02*
X154440714Y-92153490D01*
X160833960Y-98088000D02*
X158111000Y-95365040D01*
X158111000Y-95365040D02*
X158111000Y-93459440D01*
X161036000Y-99314000D02*
X161036000Y-98088000D01*
X144824000Y-92119000D02*
X143637000Y-90932000D01*
X143637000Y-90932000D02*
X143637000Y-83947000D01*
X161036000Y-98088000D02*
X160833960Y-98088000D01*
X143637000Y-83947000D02*
X143764000Y-83820000D01*
X141351000Y-83820000D02*
X139827000Y-83820000D01*
%TO.N,GP14*%
X141351000Y-80010000D02*
X139954000Y-80010000D01*
X139954000Y-80010000D02*
X139827000Y-79883000D01*
%TO.N,GP15*%
X132461000Y-88773000D02*
X132461000Y-88900000D01*
X132481000Y-88920000D02*
X132461000Y-88773000D01*
X132481000Y-90665000D02*
X132481000Y-88920000D01*
X132461000Y-88773000D02*
X132461000Y-87620695D01*
X135499695Y-84582000D02*
X135509000Y-84582000D01*
X132461000Y-87620695D02*
X135499695Y-84582000D01*
%TO.N,GP16*%
X133751000Y-90665000D02*
X133751000Y-87356000D01*
X133751000Y-87356000D02*
X135509000Y-85598000D01*
D41*
%TO.N,VBAT*%
X156845000Y-79502000D02*
X157988000Y-80645000D01*
X157226000Y-78486000D02*
X159523000Y-78486000D01*
X156845000Y-78105000D02*
X157226000Y-78486000D01*
X156845000Y-78105000D02*
X156845000Y-75601000D01*
X179959000Y-72075000D02*
X178435000Y-73599000D01*
X179959000Y-71120000D02*
X179959000Y-72075000D01*
X156845000Y-78105000D02*
X156845000Y-79502000D01*
X156845000Y-75601000D02*
X155763000Y-74519000D01*
D39*
%TO.N,EN*%
X126922700Y-92456000D02*
X135763000Y-92456000D01*
X133788000Y-94812000D02*
X133858000Y-94742000D01*
X126131000Y-90665000D02*
X126131000Y-91664300D01*
X136525000Y-94742000D02*
X137287000Y-93980000D01*
X133858000Y-94742000D02*
X136525000Y-94742000D01*
X133788000Y-97536000D02*
X133788000Y-94812000D01*
X135763000Y-92456000D02*
X137287000Y-93980000D01*
X126131000Y-91664300D02*
X126922700Y-92456000D01*
%TO.N,VIN*%
X155303749Y-72644000D02*
X156446749Y-73787000D01*
X151390000Y-76581000D02*
X151903000Y-77094000D01*
X168351000Y-71951000D02*
X171087000Y-69215000D01*
X159619666Y-71951000D02*
X168351000Y-71951000D01*
X154813000Y-72644000D02*
X155303749Y-72644000D01*
X148452000Y-76581000D02*
X151390000Y-76581000D01*
X151903000Y-77094000D02*
X154813000Y-74184000D01*
X154813000Y-74184000D02*
X154813000Y-72644000D01*
X156446749Y-73787000D02*
X157783666Y-73787000D01*
X157783666Y-73787000D02*
X159619666Y-71951000D01*
%TO.N,VBUS*%
X150520400Y-97536000D02*
X149700000Y-96715600D01*
X161798000Y-82603538D02*
X161798000Y-78486000D01*
X164317000Y-78486000D02*
X165074000Y-77729000D01*
X149700000Y-96715600D02*
X149700000Y-95490051D01*
X154340000Y-95189600D02*
X154090000Y-95439600D01*
X154559000Y-69469000D02*
X154559000Y-69342000D01*
X153849521Y-96307327D02*
X152620848Y-97536000D01*
X165354000Y-73025000D02*
X164338000Y-74041000D01*
X164978000Y-77729000D02*
X164084000Y-76835000D01*
X159258000Y-85143538D02*
X161798000Y-82603538D01*
X154432000Y-69596000D02*
X154559000Y-69469000D01*
X153849521Y-95859600D02*
X153849521Y-96307327D01*
X153289000Y-69596000D02*
X154432000Y-69596000D01*
X154090000Y-95439600D02*
X154090000Y-95619121D01*
X161798000Y-78486000D02*
X164317000Y-78486000D01*
X149700000Y-95490051D02*
X149440000Y-95230051D01*
X159258000Y-86487000D02*
X159258000Y-85143538D01*
X152069800Y-97536000D02*
X150520400Y-97536000D01*
X157734000Y-72644000D02*
X158115000Y-72263000D01*
X154686000Y-69342000D02*
X154686000Y-69342000D01*
X154340000Y-94335000D02*
X154340000Y-95189600D01*
X152620848Y-97536000D02*
X152069800Y-97536000D01*
X156713000Y-72644000D02*
X157734000Y-72644000D01*
X149440000Y-95230051D02*
X149440000Y-94335000D01*
X154090000Y-95619121D02*
X153849521Y-95859600D01*
X165074000Y-77729000D02*
X164978000Y-77729000D01*
X173863000Y-70612000D02*
X173887000Y-70588000D01*
X154559000Y-69342000D02*
X154686000Y-69342000D01*
X173887000Y-69215000D02*
X173863000Y-70612000D01*
D42*
%TO.N,b_select*%
X145161000Y-91694000D02*
X154711400Y-91694000D01*
X154711400Y-91694000D02*
X154865714Y-91848314D01*
D39*
X141351000Y-85090000D02*
X139827000Y-85090000D01*
D42*
X144399000Y-90932000D02*
X145161000Y-91694000D01*
X158536000Y-93283400D02*
X158536000Y-95189000D01*
X158027600Y-92775000D02*
X158536000Y-93283400D01*
D39*
X164973000Y-99187000D02*
X163449000Y-97663000D01*
D42*
X154865714Y-91848314D02*
X154865714Y-91977450D01*
X161010000Y-97663000D02*
X163449000Y-97663000D01*
X154865714Y-91977450D02*
X155663264Y-92775000D01*
X158536000Y-95189000D02*
X161010000Y-97663000D01*
X144399000Y-85090000D02*
X144399000Y-90932000D01*
X155663264Y-92775000D02*
X158027600Y-92775000D01*
D39*
%TO.N,Net-(JP1-A)*%
X158751000Y-82295000D02*
X157988000Y-82295000D01*
X160528000Y-80518000D02*
X158751000Y-82295000D01*
X163068000Y-81787000D02*
X163450000Y-82169000D01*
X163068000Y-80645000D02*
X163068000Y-81787000D01*
%TO.N,Net-(D2-K)*%
X159523000Y-73552000D02*
X159796000Y-73279000D01*
X159523000Y-76586000D02*
X159523000Y-73552000D01*
%TO.N,Net-(D2-A)*%
X164384305Y-76110000D02*
X163783695Y-76110000D01*
X162682695Y-77211000D02*
X161088749Y-77211000D01*
X165518462Y-76111000D02*
X164385305Y-76111000D01*
X167259000Y-73025000D02*
X165826000Y-74458000D01*
X163783695Y-76110000D02*
X162682695Y-77211000D01*
X160810500Y-76932751D02*
X160810500Y-74139500D01*
X164385305Y-76111000D02*
X164384305Y-76110000D01*
X160810500Y-74139500D02*
X161671000Y-73279000D01*
X165826000Y-75803462D02*
X165518462Y-76111000D01*
X161088749Y-77211000D02*
X160810500Y-76932751D01*
X165826000Y-74458000D02*
X165826000Y-75803462D01*
%TO.N,Net-(MAX1-CLEAR)*%
X179325000Y-79121000D02*
X176160000Y-75956000D01*
X176160000Y-75956000D02*
X176160000Y-75499000D01*
%TO.N,LDO_EN*%
X177447500Y-74323500D02*
X177673000Y-74549000D01*
X151903000Y-78994000D02*
X151257000Y-78994000D01*
X177673000Y-74549000D02*
X178435000Y-74549000D01*
X177927000Y-72517000D02*
X177447500Y-72996500D01*
X151257000Y-78994000D02*
X150749000Y-79502000D01*
X177447500Y-72996500D02*
X177447500Y-74323500D01*
%TO.N,Net-(U4-PROG)*%
X165101000Y-75311000D02*
X163073000Y-75311000D01*
X163073000Y-75311000D02*
X161798000Y-76586000D01*
%TO.N,ADC_BAT*%
X153797000Y-85155000D02*
X157669000Y-89027000D01*
X153289000Y-84582000D02*
X153797000Y-85090000D01*
X153797000Y-85090000D02*
X153797000Y-85155000D01*
X141351000Y-82550000D02*
X139954000Y-82550000D01*
X153289000Y-80518000D02*
X153289000Y-84582000D01*
D42*
%TO.N,D+*%
X152544000Y-95360000D02*
X151690000Y-95360000D01*
X151640000Y-95310000D02*
X151640000Y-94335000D01*
X152084686Y-92739000D02*
X142175000Y-92739000D01*
X152640000Y-94335000D02*
X152640000Y-93294314D01*
X152640000Y-95264000D02*
X152640000Y-94335000D01*
X152640000Y-93294314D02*
X152084686Y-92739000D01*
X142175000Y-92739000D02*
X140101000Y-90665000D01*
X152640000Y-95264000D02*
X152544000Y-95360000D01*
X151690000Y-95360000D02*
X151640000Y-95310000D01*
%TO.N,D-*%
X151140000Y-93360000D02*
X151140000Y-94335000D01*
X152140000Y-93360000D02*
X152090000Y-93310000D01*
X138831000Y-91007900D02*
X140962100Y-93139000D01*
X152140000Y-94335000D02*
X152140000Y-93360000D01*
X151019000Y-93139000D02*
X151190000Y-93310000D01*
X140962100Y-93139000D02*
X151019000Y-93139000D01*
X138831000Y-90322100D02*
X138831000Y-90665000D01*
X138831000Y-90665000D02*
X138831000Y-91007900D01*
X152090000Y-93310000D02*
X151190000Y-93310000D01*
X151190000Y-93310000D02*
X151140000Y-93360000D01*
D39*
%TO.N,100*%
X136539000Y-98411000D02*
X141923000Y-98411000D01*
X140101000Y-74529000D02*
X139065000Y-75565000D01*
X136525000Y-98425000D02*
X136539000Y-98411000D01*
X141923000Y-98411000D02*
X142826000Y-99314000D01*
X140101000Y-73165000D02*
X140101000Y-74529000D01*
%TO.N,GP13*%
X141351000Y-81280000D02*
X139700000Y-81280000D01*
X139700000Y-81280000D02*
X139827000Y-81280000D01*
%TO.N,Net-(MAX1-In)*%
X176160000Y-73258695D02*
X179023695Y-70395000D01*
X179023695Y-70395000D02*
X180259305Y-70395000D01*
X180259305Y-70395000D02*
X181794000Y-71929695D01*
X176160000Y-73599000D02*
X176160000Y-73258695D01*
X181794000Y-71929695D02*
X181794000Y-73484000D01*
%TO.N,GP17*%
X135128000Y-88646000D02*
X135021000Y-88666000D01*
X135021000Y-90665000D02*
X135128000Y-88646000D01*
%TO.N,GP18*%
X136398000Y-88646000D02*
X136291000Y-88666000D01*
X136291000Y-90665000D02*
X136398000Y-88646000D01*
%TO.N,GP21*%
X140081000Y-78740000D02*
X139700000Y-78359000D01*
X141351000Y-78740000D02*
X140081000Y-78740000D01*
%TO.N,GP34*%
X131211000Y-74656000D02*
X131191000Y-74676000D01*
X131211000Y-73165000D02*
X131211000Y-74656000D01*
X131191000Y-74676000D02*
X131211000Y-74696000D01*
X131211000Y-74696000D02*
X131211000Y-74783000D01*
%TO.N,GP33*%
X132461000Y-74676000D02*
X132588000Y-74676000D01*
X132588000Y-74676000D02*
X132588000Y-74803000D01*
X132481000Y-73165000D02*
X132481000Y-74696000D01*
X132481000Y-74696000D02*
X132461000Y-74676000D01*
X132588000Y-74803000D02*
X132588000Y-74803000D01*
%TO.N,TX*%
X127381000Y-75184000D02*
X127401000Y-75164000D01*
X127401000Y-73165000D02*
X127381000Y-75184000D01*
%TO.N,RX*%
X128671000Y-75164000D02*
X128651000Y-75184000D01*
X128671000Y-73165000D02*
X128671000Y-75164000D01*
%TO.N,GP42*%
X129941000Y-73165000D02*
X129941000Y-74656000D01*
X129941000Y-74656000D02*
X129921000Y-74676000D01*
%TO.N,Net-(J4-CC1)*%
X164085000Y-94107000D02*
X164212000Y-93980000D01*
X150640000Y-95834200D02*
X150640000Y-94335000D01*
X162306000Y-94107000D02*
X164085000Y-94107000D01*
%TO.N,Net-(J4-CC2)*%
X163195000Y-92456000D02*
X164212000Y-92456000D01*
X153615000Y-95385000D02*
X153640000Y-95360000D01*
X152349200Y-96088200D02*
X152560400Y-96088200D01*
X152560400Y-96088200D02*
X153263600Y-95385000D01*
X153640000Y-95360000D02*
X153640000Y-94335000D01*
X153263600Y-95385000D02*
X153615000Y-95385000D01*
%TD*%
M02*
