%TF.GenerationSoftware,KiCad,Pcbnew,9.0.1*%
%TF.CreationDate,2025-04-13T07:36:32-05:00*%
%TF.ProjectId,LASK-V2-0,4c41534b-2d56-4322-9d30-2e6b69636164,rev?*%
%TF.SameCoordinates,Original*%
%TF.FileFunction,Legend,Bot*%
%TF.FilePolarity,Positive*%
%FSLAX46Y46*%
G04 Gerber Fmt 4.6, Leading zero omitted, Abs format (unit mm)*
G04 Created by KiCad (PCBNEW 9.0.1) date 2025-04-13 07:36:32*
%MOMM*%
%LPD*%
G01*
G04 APERTURE LIST*
%ADD10C,0.000000*%
%ADD11C,0.120000*%
G04 APERTURE END LIST*
D10*
G36*
X127816566Y-78826955D02*
G01*
X127877608Y-78826955D01*
X128158412Y-78912419D01*
X128158412Y-79095553D01*
X127999694Y-79046717D01*
X127999694Y-79974593D01*
X127816562Y-79974593D01*
X127816562Y-78814752D01*
X127816562Y-78814751D01*
X127816563Y-78814751D01*
X127816563Y-78814750D01*
X127816564Y-78814750D01*
X127816565Y-78814750D01*
X127816566Y-78814749D01*
X127816566Y-78826955D01*
G37*
G36*
X129118989Y-78803039D02*
G01*
X129139237Y-78804515D01*
X129159218Y-78806948D01*
X129178903Y-78810316D01*
X129198267Y-78814596D01*
X129217282Y-78819765D01*
X129235921Y-78825802D01*
X129254158Y-78832683D01*
X129271965Y-78840388D01*
X129289317Y-78848893D01*
X129306186Y-78858175D01*
X129322545Y-78868214D01*
X129338368Y-78878985D01*
X129353627Y-78890468D01*
X129368296Y-78902639D01*
X129382349Y-78915476D01*
X129395757Y-78928957D01*
X129408495Y-78943060D01*
X129420535Y-78957761D01*
X129431851Y-78973040D01*
X129442416Y-78988872D01*
X129452203Y-79005237D01*
X129461185Y-79022112D01*
X129469336Y-79039473D01*
X129476628Y-79057300D01*
X129483035Y-79075570D01*
X129488530Y-79094259D01*
X129493086Y-79113347D01*
X129496676Y-79132810D01*
X129499274Y-79152626D01*
X129500852Y-79172774D01*
X129501384Y-79193229D01*
X129330459Y-79229855D01*
X129330070Y-79217339D01*
X129328924Y-79204981D01*
X129327049Y-79192798D01*
X129324474Y-79180804D01*
X129321228Y-79169017D01*
X129317341Y-79157450D01*
X129312842Y-79146121D01*
X129307759Y-79135044D01*
X129302121Y-79124236D01*
X129295959Y-79113711D01*
X129289299Y-79103487D01*
X129282173Y-79093577D01*
X129274609Y-79083998D01*
X129266635Y-79074766D01*
X129258282Y-79065895D01*
X129249577Y-79057403D01*
X129240551Y-79049304D01*
X129231231Y-79041614D01*
X129221648Y-79034349D01*
X129211830Y-79027524D01*
X129201807Y-79021156D01*
X129191607Y-79015259D01*
X129181259Y-79009849D01*
X129170793Y-79004943D01*
X129160237Y-79000555D01*
X129149621Y-78996701D01*
X129138974Y-78993397D01*
X129128324Y-78990659D01*
X129117701Y-78988502D01*
X129107134Y-78986942D01*
X129096652Y-78985995D01*
X129086284Y-78985675D01*
X129075986Y-78985960D01*
X129065708Y-78986805D01*
X129055470Y-78988200D01*
X129045293Y-78990134D01*
X129035196Y-78992596D01*
X129025200Y-78995574D01*
X129015324Y-78999057D01*
X129005590Y-79003035D01*
X128996016Y-79007495D01*
X128986623Y-79012427D01*
X128977432Y-79017819D01*
X128968462Y-79023661D01*
X128959733Y-79029941D01*
X128951266Y-79036648D01*
X128943081Y-79043771D01*
X128935198Y-79051298D01*
X128927636Y-79059219D01*
X128920416Y-79067522D01*
X128913559Y-79076196D01*
X128907084Y-79085231D01*
X128901011Y-79094613D01*
X128895361Y-79104334D01*
X128890153Y-79114381D01*
X128885408Y-79124743D01*
X128881146Y-79135409D01*
X128877387Y-79146368D01*
X128874152Y-79157608D01*
X128871459Y-79169119D01*
X128869330Y-79180890D01*
X128867784Y-79192908D01*
X128866842Y-79205164D01*
X128866523Y-79217645D01*
X128868833Y-79243708D01*
X128875847Y-79271631D01*
X128887689Y-79301557D01*
X128904485Y-79333629D01*
X128926360Y-79367990D01*
X128953440Y-79404783D01*
X128985849Y-79444152D01*
X129023712Y-79486239D01*
X129067156Y-79531187D01*
X129116304Y-79579140D01*
X129171283Y-79630241D01*
X129232216Y-79684632D01*
X129372451Y-79803859D01*
X129538009Y-79937967D01*
X129538009Y-79974593D01*
X128671180Y-79974593D01*
X128671180Y-79791459D01*
X128671191Y-79791457D01*
X129159545Y-79791457D01*
X129112084Y-79761134D01*
X129066000Y-79729721D01*
X129021525Y-79697270D01*
X128978892Y-79663836D01*
X128938334Y-79629471D01*
X128900083Y-79594231D01*
X128864372Y-79558167D01*
X128831433Y-79521335D01*
X128801498Y-79483788D01*
X128774800Y-79445578D01*
X128751571Y-79406761D01*
X128741331Y-79387141D01*
X128732045Y-79367389D01*
X128723743Y-79347512D01*
X128716453Y-79327517D01*
X128710205Y-79307410D01*
X128705028Y-79287198D01*
X128700951Y-79266887D01*
X128698003Y-79246485D01*
X128696212Y-79225998D01*
X128695609Y-79205432D01*
X128696141Y-79184942D01*
X128697720Y-79164693D01*
X128700317Y-79144712D01*
X128703907Y-79125026D01*
X128708463Y-79105663D01*
X128713958Y-79086647D01*
X128720365Y-79068008D01*
X128727657Y-79049771D01*
X128735808Y-79031963D01*
X128744790Y-79014611D01*
X128754577Y-78997742D01*
X128765142Y-78981382D01*
X128776458Y-78965560D01*
X128788499Y-78950300D01*
X128801236Y-78935631D01*
X128814645Y-78921578D01*
X128828697Y-78908170D01*
X128843367Y-78895432D01*
X128858626Y-78883391D01*
X128874449Y-78872075D01*
X128890808Y-78861510D01*
X128907677Y-78851723D01*
X128925029Y-78842741D01*
X128942837Y-78834590D01*
X128961074Y-78827298D01*
X128979714Y-78820891D01*
X128998729Y-78815396D01*
X129018093Y-78810840D01*
X129037778Y-78807250D01*
X129057759Y-78804652D01*
X129078008Y-78803074D01*
X129098499Y-78802542D01*
X129118989Y-78803039D01*
G37*
G36*
X134983173Y-79974593D02*
G01*
X134787830Y-79974593D01*
X134714572Y-79803669D01*
X134177398Y-79803669D01*
X134104140Y-79974593D01*
X133908797Y-79974593D01*
X134059879Y-79644958D01*
X134238429Y-79644958D01*
X134653529Y-79644958D01*
X134445979Y-79193229D01*
X134238429Y-79644958D01*
X134059879Y-79644958D01*
X134445983Y-78802542D01*
X134832090Y-79644958D01*
X134983173Y-79974593D01*
G37*
G36*
X135740123Y-79974593D02*
G01*
X135044215Y-79974593D01*
X135044215Y-79803673D01*
X135556991Y-79803673D01*
X135556991Y-78826962D01*
X135740123Y-78826962D01*
X135740123Y-79974593D01*
G37*
G36*
X132724528Y-79376360D02*
G01*
X132724528Y-78826962D01*
X132907664Y-78826962D01*
X132907664Y-79974593D01*
X132724528Y-79974593D01*
X132724528Y-79412984D01*
X132297218Y-79974593D01*
X132297225Y-79974595D01*
X132089667Y-79974595D01*
X132541396Y-79388570D01*
X132126292Y-78826962D01*
X132333846Y-78826962D01*
X132724528Y-79376360D01*
G37*
G36*
X131955367Y-79425196D02*
G01*
X131857700Y-79486240D01*
X131848247Y-79470648D01*
X131838169Y-79455932D01*
X131827411Y-79442110D01*
X131815920Y-79429201D01*
X131803643Y-79417221D01*
X131790525Y-79406190D01*
X131776513Y-79396124D01*
X131761553Y-79387041D01*
X131745591Y-79378961D01*
X131728574Y-79371899D01*
X131710449Y-79365875D01*
X131691161Y-79360907D01*
X131670656Y-79357011D01*
X131648882Y-79354206D01*
X131625785Y-79352510D01*
X131601310Y-79351941D01*
X131576573Y-79352799D01*
X131564554Y-79353872D01*
X131552784Y-79355374D01*
X131541273Y-79357306D01*
X131530032Y-79359667D01*
X131519073Y-79362456D01*
X131508407Y-79365676D01*
X131498045Y-79369324D01*
X131487998Y-79373402D01*
X131478278Y-79377908D01*
X131468895Y-79382844D01*
X131459861Y-79388210D01*
X131451187Y-79394004D01*
X131442884Y-79400228D01*
X131434963Y-79406881D01*
X131427436Y-79413963D01*
X131420314Y-79421474D01*
X131413607Y-79429414D01*
X131407327Y-79437784D01*
X131401485Y-79446583D01*
X131396093Y-79455811D01*
X131391161Y-79465469D01*
X131386701Y-79475555D01*
X131382724Y-79486071D01*
X131379241Y-79497016D01*
X131376263Y-79508390D01*
X131373801Y-79520194D01*
X131371867Y-79532426D01*
X131370472Y-79545088D01*
X131369626Y-79558179D01*
X131369342Y-79571700D01*
X131369731Y-79585255D01*
X131370877Y-79598448D01*
X131372752Y-79611275D01*
X131375327Y-79623730D01*
X131378573Y-79635810D01*
X131382460Y-79647510D01*
X131386960Y-79658825D01*
X131392043Y-79669752D01*
X131397681Y-79680285D01*
X131403844Y-79690420D01*
X131410503Y-79700153D01*
X131417630Y-79709478D01*
X131425194Y-79718393D01*
X131433168Y-79726892D01*
X131441522Y-79734970D01*
X131450226Y-79742624D01*
X131459253Y-79749848D01*
X131468573Y-79756639D01*
X131478156Y-79762992D01*
X131487974Y-79768902D01*
X131508197Y-79779376D01*
X131529011Y-79788026D01*
X131550183Y-79794817D01*
X131571479Y-79799711D01*
X131592668Y-79802674D01*
X131603150Y-79803420D01*
X131613517Y-79803669D01*
X131620453Y-79803527D01*
X131627517Y-79803103D01*
X131641965Y-79801428D01*
X131656734Y-79798680D01*
X131671700Y-79794894D01*
X131686738Y-79790107D01*
X131701722Y-79784354D01*
X131716527Y-79777672D01*
X131731028Y-79770095D01*
X131745100Y-79761659D01*
X131758618Y-79752401D01*
X131771456Y-79742356D01*
X131777581Y-79737050D01*
X131783489Y-79731560D01*
X131789165Y-79725891D01*
X131794592Y-79720048D01*
X131799756Y-79714036D01*
X131804641Y-79707857D01*
X131809230Y-79701518D01*
X131813508Y-79695022D01*
X131817461Y-79688374D01*
X131821071Y-79681579D01*
X132004203Y-79742624D01*
X131992304Y-79769510D01*
X131979404Y-79795180D01*
X131965359Y-79819562D01*
X131950026Y-79842585D01*
X131933263Y-79864177D01*
X131914925Y-79884267D01*
X131894871Y-79902783D01*
X131872957Y-79919654D01*
X131849040Y-79934808D01*
X131822976Y-79948173D01*
X131809095Y-79954163D01*
X131794624Y-79959679D01*
X131763839Y-79969252D01*
X131730479Y-79976823D01*
X131694401Y-79982320D01*
X131655461Y-79985670D01*
X131613517Y-79986803D01*
X131591882Y-79986305D01*
X131570491Y-79984823D01*
X131549373Y-79982376D01*
X131528556Y-79978981D01*
X131508070Y-79974657D01*
X131487944Y-79969420D01*
X131468208Y-79963288D01*
X131448889Y-79956281D01*
X131430017Y-79948415D01*
X131411622Y-79939709D01*
X131393731Y-79930180D01*
X131376375Y-79919846D01*
X131359583Y-79908725D01*
X131343382Y-79896835D01*
X131327804Y-79884194D01*
X131312875Y-79870820D01*
X131298627Y-79856731D01*
X131285087Y-79841944D01*
X131272285Y-79826477D01*
X131260249Y-79810349D01*
X131249009Y-79793577D01*
X131238595Y-79776179D01*
X131229034Y-79758172D01*
X131220356Y-79739576D01*
X131212590Y-79720407D01*
X131205766Y-79700684D01*
X131199911Y-79680424D01*
X131195056Y-79659646D01*
X131191230Y-79638367D01*
X131188460Y-79616605D01*
X131186777Y-79594378D01*
X131186210Y-79571703D01*
X131186214Y-79571701D01*
X131173999Y-79571701D01*
X131174462Y-79550137D01*
X131175841Y-79528950D01*
X131178123Y-79508161D01*
X131181296Y-79487790D01*
X131185344Y-79467857D01*
X131190255Y-79448382D01*
X131196016Y-79429386D01*
X131202613Y-79410889D01*
X131210032Y-79392910D01*
X131218261Y-79375469D01*
X131227286Y-79358588D01*
X131237093Y-79342286D01*
X131247669Y-79326582D01*
X131259000Y-79311498D01*
X131271074Y-79297054D01*
X131283877Y-79283268D01*
X131297395Y-79270163D01*
X131311614Y-79257757D01*
X131326523Y-79246071D01*
X131342106Y-79235124D01*
X131358352Y-79224938D01*
X131375245Y-79215532D01*
X131392774Y-79206927D01*
X131410924Y-79199142D01*
X131429682Y-79192197D01*
X131449035Y-79186113D01*
X131468969Y-79180910D01*
X131489471Y-79176608D01*
X131510527Y-79173227D01*
X131532124Y-79170786D01*
X131554249Y-79169308D01*
X131576888Y-79168810D01*
X131590617Y-79169096D01*
X131604310Y-79169955D01*
X131617931Y-79171386D01*
X131631445Y-79173389D01*
X131644817Y-79175964D01*
X131658009Y-79179112D01*
X131670987Y-79182832D01*
X131683715Y-79187124D01*
X131696157Y-79191989D01*
X131708276Y-79197426D01*
X131720038Y-79203435D01*
X131731407Y-79210016D01*
X131742346Y-79217170D01*
X131752821Y-79224896D01*
X131762794Y-79233194D01*
X131772231Y-79242065D01*
X131735603Y-79010095D01*
X131271667Y-79010095D01*
X131271667Y-78826962D01*
X131869903Y-78826962D01*
X131955367Y-79425196D01*
G37*
G36*
X130136241Y-79608329D02*
G01*
X130478091Y-78826962D01*
X130673434Y-78826962D01*
X130148456Y-79999012D01*
X129611266Y-78826962D01*
X129794391Y-78826962D01*
X130136241Y-79608329D01*
G37*
G36*
X128420516Y-79767221D02*
G01*
X128426226Y-79767744D01*
X128431914Y-79768603D01*
X128437568Y-79769786D01*
X128443178Y-79771282D01*
X128448732Y-79773080D01*
X128454218Y-79775168D01*
X128459627Y-79777536D01*
X128464946Y-79780172D01*
X128470164Y-79783065D01*
X128475270Y-79786204D01*
X128480254Y-79789578D01*
X128485103Y-79793175D01*
X128489807Y-79796985D01*
X128494355Y-79800996D01*
X128498735Y-79805197D01*
X128502936Y-79809577D01*
X128506947Y-79814124D01*
X128510756Y-79818828D01*
X128514354Y-79823677D01*
X128517727Y-79828661D01*
X128520866Y-79833767D01*
X128523759Y-79838985D01*
X128526395Y-79844304D01*
X128528763Y-79849712D01*
X128530852Y-79855198D01*
X128532649Y-79860751D01*
X128534145Y-79866361D01*
X128535328Y-79872015D01*
X128536187Y-79877702D01*
X128536710Y-79883412D01*
X128536887Y-79889133D01*
X128536710Y-79895928D01*
X128536187Y-79902576D01*
X128535328Y-79909072D01*
X128534145Y-79915411D01*
X128532649Y-79921589D01*
X128530852Y-79927602D01*
X128528763Y-79933445D01*
X128526395Y-79939113D01*
X128523759Y-79944603D01*
X128520866Y-79949909D01*
X128517727Y-79955028D01*
X128514354Y-79959954D01*
X128510756Y-79964684D01*
X128506947Y-79969212D01*
X128502936Y-79973535D01*
X128498735Y-79977648D01*
X128494355Y-79981546D01*
X128489807Y-79985225D01*
X128485103Y-79988680D01*
X128480254Y-79991907D01*
X128475270Y-79994902D01*
X128470164Y-79997660D01*
X128464946Y-80000177D01*
X128459627Y-80002447D01*
X128454218Y-80004467D01*
X128448732Y-80006233D01*
X128443178Y-80007739D01*
X128437568Y-80008981D01*
X128431914Y-80009955D01*
X128426226Y-80010656D01*
X128420516Y-80011080D01*
X128414794Y-80011222D01*
X128409073Y-80011045D01*
X128403363Y-80010522D01*
X128397675Y-80009663D01*
X128392021Y-80008480D01*
X128386412Y-80006984D01*
X128380858Y-80005186D01*
X128375372Y-80003098D01*
X128369964Y-80000730D01*
X128364645Y-79998094D01*
X128359427Y-79995201D01*
X128354321Y-79992062D01*
X128349337Y-79988688D01*
X128344488Y-79985091D01*
X128339784Y-79981281D01*
X128335237Y-79977271D01*
X128330857Y-79973070D01*
X128326656Y-79968690D01*
X128322645Y-79964143D01*
X128318836Y-79959439D01*
X128315238Y-79954589D01*
X128311865Y-79949606D01*
X128308726Y-79944500D01*
X128305833Y-79939282D01*
X128303197Y-79933963D01*
X128300829Y-79928555D01*
X128298741Y-79923069D01*
X128296943Y-79917515D01*
X128295447Y-79911906D01*
X128294264Y-79906252D01*
X128293405Y-79900564D01*
X128292882Y-79894854D01*
X128292705Y-79889133D01*
X128292882Y-79883412D01*
X128293405Y-79877702D01*
X128294264Y-79872014D01*
X128295447Y-79866360D01*
X128296943Y-79860751D01*
X128298741Y-79855197D01*
X128300829Y-79849711D01*
X128303197Y-79844303D01*
X128305833Y-79838984D01*
X128308726Y-79833766D01*
X128311865Y-79828660D01*
X128315238Y-79823676D01*
X128318836Y-79818827D01*
X128322645Y-79814123D01*
X128326656Y-79809576D01*
X128330857Y-79805196D01*
X128335237Y-79800995D01*
X128339784Y-79796984D01*
X128344488Y-79793175D01*
X128349337Y-79789577D01*
X128354321Y-79786204D01*
X128359427Y-79783065D01*
X128364645Y-79780171D01*
X128369964Y-79777535D01*
X128375372Y-79775168D01*
X128380858Y-79773079D01*
X128386412Y-79771282D01*
X128392021Y-79769786D01*
X128397675Y-79768603D01*
X128403363Y-79767744D01*
X128409073Y-79767221D01*
X128414794Y-79767044D01*
X128420516Y-79767221D01*
G37*
G36*
X133451947Y-78827387D02*
G01*
X133470952Y-78828649D01*
X133489631Y-78830724D01*
X133507963Y-78833591D01*
X133525929Y-78837227D01*
X133543508Y-78841609D01*
X133560680Y-78846716D01*
X133577425Y-78852525D01*
X133593723Y-78859013D01*
X133609554Y-78866159D01*
X133624897Y-78873939D01*
X133639734Y-78882332D01*
X133654042Y-78891315D01*
X133667803Y-78900866D01*
X133680996Y-78910962D01*
X133693601Y-78921582D01*
X133705598Y-78932702D01*
X133716967Y-78944301D01*
X133727687Y-78956356D01*
X133737739Y-78968844D01*
X133747103Y-78981744D01*
X133755758Y-78995033D01*
X133763684Y-79008688D01*
X133770861Y-79022688D01*
X133777269Y-79037009D01*
X133782888Y-79051630D01*
X133787698Y-79066529D01*
X133791678Y-79081682D01*
X133794809Y-79097067D01*
X133797070Y-79112663D01*
X133798442Y-79128446D01*
X133798904Y-79144395D01*
X133798479Y-79160136D01*
X133797226Y-79175320D01*
X133795172Y-79189963D01*
X133792346Y-79204080D01*
X133788779Y-79217688D01*
X133784498Y-79230802D01*
X133779534Y-79243438D01*
X133773914Y-79255610D01*
X133767668Y-79267336D01*
X133760826Y-79278630D01*
X133753416Y-79289509D01*
X133745467Y-79299987D01*
X133737008Y-79310081D01*
X133728069Y-79319806D01*
X133708864Y-79338211D01*
X133688086Y-79355330D01*
X133665967Y-79371285D01*
X133642738Y-79386204D01*
X133618633Y-79400210D01*
X133593885Y-79413429D01*
X133568725Y-79425987D01*
X133518100Y-79449618D01*
X133492816Y-79461344D01*
X133467478Y-79473607D01*
X133442318Y-79486370D01*
X133417570Y-79499598D01*
X133393466Y-79513256D01*
X133370238Y-79527307D01*
X133348118Y-79541715D01*
X133327340Y-79556446D01*
X133308136Y-79571462D01*
X133299197Y-79579067D01*
X133290738Y-79586729D01*
X133282789Y-79594446D01*
X133275378Y-79602211D01*
X133268536Y-79610021D01*
X133262290Y-79617872D01*
X133256670Y-79625758D01*
X133251706Y-79633675D01*
X133247425Y-79641620D01*
X133243858Y-79649586D01*
X133241032Y-79657571D01*
X133238978Y-79665569D01*
X133237724Y-79673576D01*
X133237300Y-79681588D01*
X133237654Y-79689527D01*
X133238698Y-79697317D01*
X133240408Y-79704950D01*
X133242761Y-79712420D01*
X133245730Y-79719720D01*
X133249291Y-79726844D01*
X133253420Y-79733784D01*
X133258093Y-79740534D01*
X133263284Y-79747088D01*
X133268969Y-79753438D01*
X133281723Y-79765501D01*
X133296159Y-79776670D01*
X133312078Y-79786891D01*
X133329285Y-79796110D01*
X133347584Y-79804274D01*
X133366776Y-79811329D01*
X133386666Y-79817222D01*
X133407057Y-79821899D01*
X133427752Y-79825306D01*
X133448555Y-79827389D01*
X133469268Y-79828096D01*
X133479533Y-79827918D01*
X133489719Y-79827389D01*
X133499820Y-79826516D01*
X133509830Y-79825306D01*
X133519741Y-79823765D01*
X133529548Y-79821899D01*
X133539242Y-79819716D01*
X133548818Y-79817222D01*
X133558269Y-79814424D01*
X133567588Y-79811329D01*
X133576768Y-79807944D01*
X133585803Y-79804274D01*
X133594686Y-79800327D01*
X133603410Y-79796110D01*
X133611969Y-79791629D01*
X133620355Y-79786891D01*
X133628563Y-79781902D01*
X133636585Y-79776670D01*
X133644415Y-79771200D01*
X133652046Y-79765501D01*
X133659472Y-79759578D01*
X133666684Y-79753438D01*
X133673678Y-79747088D01*
X133680446Y-79740534D01*
X133686982Y-79733784D01*
X133693278Y-79726844D01*
X133699329Y-79719720D01*
X133705127Y-79712420D01*
X133710665Y-79704950D01*
X133715938Y-79697317D01*
X133720937Y-79689527D01*
X133725658Y-79681588D01*
X133872165Y-79779257D01*
X133872164Y-79779258D01*
X133872163Y-79779258D01*
X133872162Y-79779259D01*
X133872161Y-79779259D01*
X133872160Y-79779259D01*
X133872159Y-79779259D01*
X133872158Y-79779260D01*
X133872156Y-79779260D01*
X133872153Y-79779260D01*
X133872150Y-79779260D01*
X133872150Y-79815886D01*
X133858103Y-79840485D01*
X133843323Y-79863886D01*
X133827648Y-79886035D01*
X133810918Y-79906879D01*
X133792972Y-79926364D01*
X133773648Y-79944436D01*
X133752787Y-79961041D01*
X133730226Y-79976126D01*
X133705805Y-79989638D01*
X133679363Y-80001522D01*
X133650740Y-80011725D01*
X133619773Y-80020193D01*
X133586303Y-80026873D01*
X133550168Y-80031710D01*
X133511207Y-80034652D01*
X133469260Y-80035645D01*
X133447661Y-80035184D01*
X133426371Y-80033818D01*
X133405418Y-80031571D01*
X133384824Y-80028468D01*
X133364615Y-80024533D01*
X133344814Y-80019791D01*
X133325448Y-80014267D01*
X133306540Y-80007984D01*
X133288114Y-80000969D01*
X133270196Y-79993245D01*
X133252810Y-79984837D01*
X133235981Y-79975769D01*
X133219733Y-79966067D01*
X133204091Y-79955754D01*
X133189079Y-79944856D01*
X133174722Y-79933396D01*
X133161045Y-79921400D01*
X133148072Y-79908892D01*
X133135828Y-79895897D01*
X133124337Y-79882439D01*
X133113624Y-79868542D01*
X133103714Y-79854232D01*
X133094631Y-79839533D01*
X133086399Y-79824470D01*
X133079044Y-79809067D01*
X133072590Y-79793349D01*
X133067061Y-79777340D01*
X133062482Y-79761065D01*
X133058878Y-79744548D01*
X133056274Y-79727815D01*
X133054693Y-79710889D01*
X133054160Y-79693796D01*
X133054586Y-79676910D01*
X133055850Y-79660579D01*
X133057933Y-79644784D01*
X133060813Y-79629508D01*
X133064472Y-79614732D01*
X133068888Y-79600440D01*
X133074042Y-79586613D01*
X133079914Y-79573232D01*
X133086483Y-79560281D01*
X133093729Y-79547741D01*
X133101633Y-79535595D01*
X133110174Y-79523824D01*
X133119332Y-79512411D01*
X133129086Y-79501338D01*
X133150306Y-79480140D01*
X133173672Y-79460086D01*
X133199023Y-79441033D01*
X133226198Y-79422839D01*
X133255036Y-79405361D01*
X133285377Y-79388454D01*
X133317059Y-79371977D01*
X133383804Y-79339737D01*
X133478612Y-79297388D01*
X133499945Y-79287426D01*
X133520079Y-79277501D01*
X133538890Y-79267504D01*
X133556252Y-79257328D01*
X133564351Y-79252139D01*
X133572041Y-79246866D01*
X133579306Y-79241494D01*
X133586130Y-79236010D01*
X133592499Y-79230401D01*
X133598396Y-79224653D01*
X133603805Y-79218754D01*
X133608712Y-79212689D01*
X133613099Y-79206445D01*
X133616953Y-79200009D01*
X133620257Y-79193367D01*
X133622995Y-79186506D01*
X133625152Y-79179413D01*
X133626712Y-79172073D01*
X133627659Y-79164475D01*
X133627978Y-79156603D01*
X133627661Y-79148664D01*
X133626724Y-79140874D01*
X133625192Y-79133241D01*
X133623090Y-79125771D01*
X133620443Y-79118470D01*
X133617275Y-79111347D01*
X133613611Y-79104407D01*
X133609475Y-79097656D01*
X133604891Y-79091103D01*
X133599886Y-79084753D01*
X133594482Y-79078613D01*
X133588705Y-79072690D01*
X133576130Y-79061521D01*
X133562356Y-79051300D01*
X133547581Y-79042081D01*
X133532001Y-79033917D01*
X133515813Y-79026862D01*
X133499213Y-79020969D01*
X133482399Y-79016292D01*
X133465567Y-79012885D01*
X133448913Y-79010801D01*
X133432635Y-79010095D01*
X133424660Y-79010237D01*
X133416760Y-79010661D01*
X133408941Y-79011363D01*
X133401207Y-79012337D01*
X133393562Y-79013579D01*
X133386011Y-79015085D01*
X133378558Y-79016850D01*
X133371209Y-79018870D01*
X133363966Y-79021141D01*
X133356836Y-79023657D01*
X133349822Y-79026415D01*
X133342928Y-79029410D01*
X133336160Y-79032637D01*
X133329521Y-79036093D01*
X133323016Y-79039772D01*
X133316651Y-79043670D01*
X133310428Y-79047782D01*
X133304352Y-79052105D01*
X133298429Y-79056634D01*
X133292662Y-79061363D01*
X133287056Y-79066290D01*
X133281616Y-79071408D01*
X133276345Y-79076715D01*
X133271249Y-79082205D01*
X133266332Y-79087873D01*
X133261598Y-79093716D01*
X133257051Y-79099729D01*
X133252697Y-79105907D01*
X133248540Y-79112247D01*
X133244584Y-79118742D01*
X133240833Y-79125390D01*
X133237292Y-79132185D01*
X133102996Y-79034515D01*
X133110453Y-79012064D01*
X133119163Y-78990544D01*
X133129231Y-78970024D01*
X133140767Y-78950578D01*
X133153876Y-78932277D01*
X133168666Y-78915191D01*
X133185244Y-78899393D01*
X133203719Y-78884955D01*
X133224196Y-78871947D01*
X133235220Y-78866002D01*
X133246784Y-78860441D01*
X133271589Y-78850510D01*
X133298720Y-78842223D01*
X133328282Y-78835654D01*
X133360384Y-78830873D01*
X133395133Y-78827952D01*
X133432635Y-78826962D01*
X133451947Y-78827387D01*
G37*
G36*
X137905685Y-78045819D02*
G01*
X137606998Y-78045819D01*
X137606998Y-77388714D01*
X137278445Y-77388714D01*
X137245026Y-77387933D01*
X137212000Y-77385611D01*
X137179411Y-77381786D01*
X137147304Y-77376493D01*
X137115722Y-77369766D01*
X137084709Y-77361642D01*
X137054308Y-77352156D01*
X137024564Y-77341344D01*
X136995519Y-77329242D01*
X136967219Y-77315884D01*
X136939706Y-77301306D01*
X136913024Y-77285545D01*
X136887217Y-77268635D01*
X136862330Y-77250612D01*
X136838404Y-77231511D01*
X136815485Y-77211369D01*
X136793616Y-77190221D01*
X136772841Y-77168101D01*
X136753204Y-77145047D01*
X136734747Y-77121092D01*
X136717516Y-77096274D01*
X136701554Y-77070627D01*
X136686904Y-77044187D01*
X136673611Y-77016990D01*
X136661717Y-76989071D01*
X136651268Y-76960465D01*
X136642306Y-76931208D01*
X136634875Y-76901337D01*
X136629019Y-76870885D01*
X136624783Y-76839889D01*
X136622209Y-76808385D01*
X136621341Y-76776408D01*
X136621341Y-76776403D01*
X136905090Y-76776403D01*
X136905567Y-76793068D01*
X136906985Y-76809456D01*
X136909323Y-76825549D01*
X136912557Y-76841330D01*
X136916666Y-76856783D01*
X136921628Y-76871891D01*
X136927422Y-76886639D01*
X136934025Y-76901009D01*
X136941415Y-76914985D01*
X136949571Y-76928551D01*
X136958471Y-76941691D01*
X136968093Y-76954387D01*
X136978415Y-76966624D01*
X136989415Y-76978386D01*
X137001072Y-76989655D01*
X137013363Y-77000415D01*
X137026266Y-77010651D01*
X137039760Y-77020344D01*
X137053823Y-77029481D01*
X137068433Y-77038042D01*
X137083567Y-77046014D01*
X137099205Y-77053378D01*
X137115324Y-77060118D01*
X137131903Y-77066219D01*
X137148919Y-77071664D01*
X137166351Y-77076435D01*
X137184177Y-77080518D01*
X137202374Y-77083895D01*
X137220922Y-77086550D01*
X137239797Y-77088467D01*
X137258979Y-77089630D01*
X137278445Y-77090021D01*
X137606998Y-77090021D01*
X137606998Y-76447849D01*
X137278445Y-76447849D01*
X137258979Y-76448283D01*
X137239797Y-76449570D01*
X137220922Y-76451688D01*
X137202374Y-76454616D01*
X137184177Y-76458331D01*
X137166351Y-76462812D01*
X137148919Y-76468037D01*
X137131903Y-76473984D01*
X137115324Y-76480631D01*
X137099205Y-76487956D01*
X137083567Y-76495937D01*
X137068433Y-76504553D01*
X137053823Y-76513781D01*
X137039760Y-76523600D01*
X137026266Y-76533988D01*
X137013363Y-76544923D01*
X137001072Y-76556382D01*
X136989415Y-76568345D01*
X136978415Y-76580789D01*
X136968093Y-76593693D01*
X136958471Y-76607034D01*
X136949571Y-76620791D01*
X136941415Y-76634941D01*
X136934025Y-76649463D01*
X136927422Y-76664336D01*
X136921628Y-76679536D01*
X136916666Y-76695043D01*
X136912557Y-76710834D01*
X136909323Y-76726888D01*
X136906985Y-76743182D01*
X136905567Y-76759695D01*
X136905090Y-76776403D01*
X136621341Y-76776403D01*
X136622209Y-76744387D01*
X136624783Y-76712758D01*
X136629019Y-76681561D01*
X136634875Y-76650837D01*
X136642305Y-76620627D01*
X136651267Y-76590973D01*
X136661717Y-76561914D01*
X136673610Y-76533492D01*
X136686903Y-76505749D01*
X136701553Y-76478725D01*
X136717515Y-76452461D01*
X136734746Y-76426998D01*
X136753202Y-76402378D01*
X136772840Y-76378641D01*
X136793615Y-76355828D01*
X136815484Y-76333980D01*
X136838403Y-76313139D01*
X136862328Y-76293345D01*
X136887216Y-76274639D01*
X136913022Y-76257063D01*
X136939704Y-76240657D01*
X136967217Y-76225463D01*
X136995518Y-76211521D01*
X137024562Y-76198872D01*
X137054307Y-76187558D01*
X137084708Y-76177619D01*
X137115721Y-76169097D01*
X137147303Y-76162033D01*
X137179411Y-76156466D01*
X137211999Y-76152440D01*
X137245025Y-76149994D01*
X137278445Y-76149169D01*
X137905685Y-76149169D01*
X137905685Y-76164102D01*
X137905685Y-77090021D01*
X137905685Y-78045819D01*
G37*
G36*
X136382392Y-78045823D02*
G01*
X135262321Y-78045823D01*
X135262321Y-77747137D01*
X136083701Y-77747137D01*
X136083701Y-77224436D01*
X135366862Y-77224436D01*
X135366862Y-76925749D01*
X136083701Y-76925749D01*
X136083701Y-76447855D01*
X135262321Y-76447855D01*
X135262321Y-76164106D01*
X136382392Y-76164106D01*
X136382392Y-78045823D01*
G37*
G36*
X140114692Y-77140111D02*
G01*
X140110956Y-77189525D01*
X140104802Y-77238207D01*
X140096291Y-77286095D01*
X140085483Y-77333130D01*
X140072439Y-77379252D01*
X140057217Y-77424400D01*
X140039879Y-77468514D01*
X140020485Y-77511535D01*
X139999094Y-77553402D01*
X139975768Y-77594054D01*
X139950565Y-77633433D01*
X139923547Y-77671477D01*
X139894773Y-77708126D01*
X139864304Y-77743320D01*
X139832200Y-77777000D01*
X139798520Y-77809104D01*
X139763326Y-77839573D01*
X139726676Y-77868347D01*
X139688633Y-77895365D01*
X139649254Y-77920567D01*
X139608602Y-77943894D01*
X139566735Y-77965284D01*
X139523714Y-77984678D01*
X139479600Y-78002016D01*
X139434451Y-78017238D01*
X139388330Y-78030282D01*
X139341295Y-78041090D01*
X139293407Y-78049601D01*
X139244725Y-78055754D01*
X139195311Y-78059491D01*
X139145225Y-78060749D01*
X139095138Y-78059491D01*
X139045723Y-78055754D01*
X138997042Y-78049601D01*
X138949154Y-78041090D01*
X138902118Y-78030282D01*
X138855997Y-78017238D01*
X138810848Y-78002016D01*
X138766734Y-77984678D01*
X138723713Y-77965284D01*
X138681846Y-77943894D01*
X138641194Y-77920567D01*
X138601815Y-77895365D01*
X138563771Y-77868347D01*
X138527122Y-77839573D01*
X138491928Y-77809104D01*
X138458248Y-77777000D01*
X138426144Y-77743320D01*
X138395675Y-77708126D01*
X138366901Y-77671477D01*
X138339883Y-77633433D01*
X138314681Y-77594054D01*
X138291354Y-77553402D01*
X138269964Y-77511535D01*
X138250570Y-77468514D01*
X138233232Y-77424400D01*
X138218011Y-77379252D01*
X138204966Y-77333130D01*
X138194158Y-77286095D01*
X138185647Y-77238207D01*
X138179494Y-77189525D01*
X138175758Y-77140111D01*
X138174499Y-77090024D01*
X138473182Y-77090024D01*
X138474050Y-77124801D01*
X138476627Y-77159099D01*
X138480873Y-77192878D01*
X138486745Y-77226095D01*
X138494204Y-77258712D01*
X138503207Y-77290685D01*
X138513714Y-77321975D01*
X138525685Y-77352541D01*
X138539077Y-77382341D01*
X138553851Y-77411334D01*
X138569964Y-77439479D01*
X138587376Y-77466735D01*
X138606046Y-77493062D01*
X138625933Y-77518418D01*
X138646996Y-77542763D01*
X138669193Y-77566054D01*
X138692485Y-77588252D01*
X138716829Y-77609315D01*
X138742185Y-77629202D01*
X138768512Y-77647872D01*
X138795769Y-77665284D01*
X138823914Y-77681397D01*
X138852907Y-77696171D01*
X138882707Y-77709563D01*
X138913272Y-77721534D01*
X138944563Y-77732041D01*
X138976536Y-77741044D01*
X139009153Y-77748503D01*
X139042371Y-77754375D01*
X139076150Y-77758621D01*
X139110448Y-77761198D01*
X139145225Y-77762066D01*
X139180001Y-77761198D01*
X139214299Y-77758621D01*
X139248078Y-77754375D01*
X139281295Y-77748503D01*
X139313912Y-77741044D01*
X139345885Y-77732041D01*
X139377175Y-77721533D01*
X139407740Y-77709563D01*
X139437540Y-77696170D01*
X139466533Y-77681397D01*
X139494678Y-77665283D01*
X139521934Y-77647871D01*
X139548261Y-77629201D01*
X139573617Y-77609314D01*
X139597961Y-77588251D01*
X139621253Y-77566053D01*
X139643450Y-77542762D01*
X139664513Y-77518418D01*
X139684400Y-77493062D01*
X139703070Y-77466735D01*
X139720482Y-77439478D01*
X139736595Y-77411333D01*
X139751368Y-77382340D01*
X139764761Y-77352540D01*
X139776731Y-77321975D01*
X139787239Y-77290685D01*
X139796242Y-77258711D01*
X139803701Y-77226095D01*
X139809573Y-77192877D01*
X139813818Y-77159099D01*
X139816396Y-77124801D01*
X139817264Y-77090024D01*
X139816396Y-77055248D01*
X139813818Y-77020950D01*
X139809573Y-76987171D01*
X139803701Y-76953954D01*
X139796242Y-76921337D01*
X139787239Y-76889364D01*
X139776731Y-76858074D01*
X139764761Y-76827508D01*
X139751368Y-76797709D01*
X139736595Y-76768716D01*
X139720482Y-76740570D01*
X139703070Y-76713314D01*
X139684400Y-76686987D01*
X139664513Y-76661631D01*
X139643450Y-76637287D01*
X139621253Y-76613995D01*
X139597961Y-76591797D01*
X139573617Y-76570734D01*
X139548261Y-76550847D01*
X139521934Y-76532177D01*
X139494678Y-76514765D01*
X139466533Y-76498652D01*
X139437540Y-76483878D01*
X139407740Y-76470486D01*
X139377175Y-76458515D01*
X139345885Y-76448008D01*
X139313912Y-76439004D01*
X139281295Y-76431546D01*
X139248078Y-76425673D01*
X139214299Y-76421428D01*
X139180001Y-76418851D01*
X139145225Y-76417983D01*
X139110448Y-76418851D01*
X139076150Y-76421428D01*
X139042371Y-76425673D01*
X139009153Y-76431546D01*
X138976536Y-76439004D01*
X138944563Y-76448008D01*
X138913272Y-76458515D01*
X138882707Y-76470486D01*
X138852907Y-76483878D01*
X138823914Y-76498652D01*
X138795769Y-76514765D01*
X138768512Y-76532177D01*
X138742185Y-76550847D01*
X138716829Y-76570734D01*
X138692485Y-76591797D01*
X138669193Y-76613995D01*
X138646996Y-76637287D01*
X138625933Y-76661631D01*
X138606046Y-76686987D01*
X138587376Y-76713314D01*
X138569964Y-76740570D01*
X138553851Y-76768716D01*
X138539077Y-76797709D01*
X138525685Y-76827508D01*
X138513714Y-76858074D01*
X138503207Y-76889364D01*
X138494204Y-76921337D01*
X138486745Y-76953954D01*
X138480873Y-76987171D01*
X138476627Y-77020950D01*
X138474050Y-77055248D01*
X138473182Y-77090024D01*
X138174499Y-77090024D01*
X138175758Y-77039938D01*
X138179494Y-76990523D01*
X138185647Y-76941842D01*
X138194158Y-76893954D01*
X138204966Y-76846919D01*
X138218011Y-76800797D01*
X138233232Y-76755649D01*
X138250570Y-76711534D01*
X138269964Y-76668514D01*
X138291354Y-76626647D01*
X138314681Y-76585995D01*
X138339883Y-76546616D01*
X138366901Y-76508573D01*
X138395675Y-76471923D01*
X138426144Y-76436729D01*
X138458248Y-76403050D01*
X138491928Y-76370945D01*
X138527122Y-76340476D01*
X138563771Y-76311703D01*
X138601815Y-76284685D01*
X138641194Y-76259482D01*
X138681846Y-76236156D01*
X138723713Y-76214765D01*
X138766734Y-76195371D01*
X138810848Y-76178033D01*
X138855997Y-76162812D01*
X138902118Y-76149767D01*
X138949154Y-76138960D01*
X138997042Y-76130449D01*
X139045723Y-76124295D01*
X139095138Y-76120559D01*
X139145225Y-76119300D01*
X139195311Y-76120559D01*
X139244725Y-76124295D01*
X139293407Y-76130449D01*
X139341295Y-76138960D01*
X139388330Y-76149767D01*
X139434451Y-76162812D01*
X139479600Y-76178033D01*
X139523714Y-76195371D01*
X139566735Y-76214765D01*
X139608602Y-76236156D01*
X139649254Y-76259482D01*
X139688633Y-76284685D01*
X139726676Y-76311703D01*
X139763326Y-76340476D01*
X139798520Y-76370945D01*
X139832200Y-76403050D01*
X139864304Y-76436729D01*
X139894773Y-76471923D01*
X139923547Y-76508573D01*
X139950565Y-76546616D01*
X139975768Y-76585995D01*
X139999094Y-76626647D01*
X140020485Y-76668514D01*
X140039879Y-76711534D01*
X140057217Y-76755649D01*
X140072439Y-76800797D01*
X140085483Y-76846919D01*
X140096291Y-76893954D01*
X140104802Y-76941842D01*
X140110956Y-76990523D01*
X140114692Y-77039938D01*
X140115951Y-77090024D01*
X140114692Y-77140111D01*
G37*
G36*
X134948703Y-78030889D02*
G01*
X134650020Y-78030889D01*
X134650020Y-76806278D01*
X133440345Y-78060752D01*
X133440345Y-76149169D01*
X133440345Y-76149168D01*
X133739028Y-76149168D01*
X133739028Y-77373780D01*
X134933768Y-76119306D01*
X134948703Y-76119306D01*
X134948703Y-78030889D01*
G37*
G36*
X123897353Y-78105552D02*
G01*
X122627944Y-78105552D01*
X122627944Y-77657525D01*
X123449325Y-77657525D01*
X123449325Y-77284168D01*
X122732482Y-77284168D01*
X122732482Y-76836140D01*
X123449325Y-76836140D01*
X123449325Y-76507584D01*
X122627944Y-76507584D01*
X122627944Y-76223839D01*
X122777282Y-76223839D01*
X122777282Y-76358247D01*
X123598663Y-76358247D01*
X123598663Y-76985486D01*
X122881828Y-76985486D01*
X122881828Y-77134828D01*
X123598670Y-77134828D01*
X123598670Y-77806870D01*
X122777290Y-77806870D01*
X122777290Y-77956211D01*
X123748008Y-77956211D01*
X123748008Y-76223839D01*
X122777282Y-76223839D01*
X122627944Y-76223839D01*
X122627944Y-76074494D01*
X123897353Y-76074494D01*
X123897353Y-77956211D01*
X123897353Y-78105552D01*
G37*
G36*
X125271316Y-78105552D02*
G01*
X123986968Y-78105552D01*
X123986968Y-77806870D01*
X124136306Y-77806870D01*
X124136306Y-77956211D01*
X125121963Y-77956211D01*
X125121963Y-76223839D01*
X124972625Y-76223839D01*
X124972625Y-77806870D01*
X124136306Y-77806870D01*
X123986968Y-77806870D01*
X123986968Y-77657525D01*
X124823287Y-77657525D01*
X124823287Y-76074494D01*
X125271316Y-76074494D01*
X125271316Y-77956211D01*
X125271316Y-78105552D01*
G37*
G36*
X132469619Y-78105550D02*
G01*
X132021590Y-78105550D01*
X132021590Y-77254298D01*
X131528762Y-78045812D01*
X131498893Y-78075682D01*
X131409290Y-78075682D01*
X130901527Y-77254299D01*
X130901527Y-78105552D01*
X130453494Y-78105552D01*
X130453502Y-78105550D01*
X130483371Y-78105550D01*
X130483371Y-76328377D01*
X130602840Y-76328377D01*
X130602840Y-77956211D01*
X130752181Y-77956211D01*
X130752181Y-77941282D01*
X130752181Y-76716669D01*
X131454093Y-77851673D01*
X132156001Y-76716669D01*
X132156001Y-77956211D01*
X132305343Y-77956211D01*
X132305343Y-76328377D01*
X131454093Y-77612726D01*
X130602840Y-76328377D01*
X130483371Y-76328377D01*
X130483371Y-76029689D01*
X130617778Y-76029689D01*
X131469028Y-77328969D01*
X132335212Y-76029689D01*
X132469619Y-76029689D01*
X132469619Y-76328377D01*
X132469619Y-78105550D01*
G37*
G36*
X127121815Y-77144267D02*
G01*
X127117819Y-77197747D01*
X127111237Y-77250402D01*
X127102130Y-77302167D01*
X127090563Y-77352981D01*
X127076597Y-77402780D01*
X127060296Y-77451502D01*
X127041723Y-77499084D01*
X127020940Y-77545462D01*
X126998010Y-77590574D01*
X126972997Y-77634357D01*
X126945963Y-77676749D01*
X126916971Y-77717685D01*
X126886084Y-77757104D01*
X126853365Y-77794943D01*
X126818876Y-77831137D01*
X126782682Y-77865626D01*
X126744843Y-77898345D01*
X126705425Y-77929232D01*
X126664488Y-77958224D01*
X126622097Y-77985258D01*
X126578314Y-78010272D01*
X126533202Y-78033201D01*
X126486824Y-78053984D01*
X126439242Y-78072557D01*
X126390520Y-78088858D01*
X126340721Y-78102824D01*
X126289908Y-78114392D01*
X126238142Y-78123498D01*
X126185488Y-78130081D01*
X126132008Y-78134076D01*
X126084644Y-78135251D01*
X126042810Y-78134365D01*
X125993930Y-78131163D01*
X125946013Y-78125774D01*
X125899015Y-78118154D01*
X125852892Y-78108258D01*
X125807600Y-78096044D01*
X125763096Y-78081467D01*
X125719336Y-78064483D01*
X125676276Y-78045049D01*
X125633872Y-78023122D01*
X125592081Y-77998657D01*
X125550859Y-77971610D01*
X125510162Y-77941939D01*
X125469946Y-77909598D01*
X125430169Y-77874545D01*
X125390784Y-77836736D01*
X125345985Y-77791936D01*
X125599868Y-77433515D01*
X125659606Y-77493251D01*
X125692302Y-77532248D01*
X125725174Y-77570020D01*
X125742605Y-77588064D01*
X125761196Y-77605342D01*
X125781318Y-77621702D01*
X125803344Y-77636990D01*
X125827645Y-77651053D01*
X125854593Y-77663738D01*
X125884560Y-77674891D01*
X125917918Y-77684360D01*
X125955039Y-77691991D01*
X125996294Y-77697632D01*
X126042056Y-77701129D01*
X126092696Y-77702328D01*
X126119374Y-77701505D01*
X126146165Y-77699065D01*
X126173004Y-77695056D01*
X126199830Y-77689523D01*
X126226580Y-77682514D01*
X126253190Y-77674075D01*
X126279597Y-77664252D01*
X126305740Y-77653092D01*
X126331554Y-77640641D01*
X126356977Y-77626946D01*
X126381947Y-77612053D01*
X126406399Y-77596009D01*
X126430272Y-77578861D01*
X126453503Y-77560654D01*
X126476027Y-77541435D01*
X126497784Y-77521251D01*
X126518709Y-77500148D01*
X126538740Y-77478173D01*
X126557814Y-77455372D01*
X126575868Y-77431791D01*
X126592839Y-77407478D01*
X126608664Y-77382478D01*
X126623281Y-77356839D01*
X126636626Y-77330606D01*
X126648636Y-77303826D01*
X126659250Y-77276546D01*
X126668403Y-77248811D01*
X126676033Y-77220670D01*
X126682076Y-77192167D01*
X126686471Y-77163350D01*
X126689154Y-77134265D01*
X126690063Y-77104958D01*
X126689239Y-77075652D01*
X126686800Y-77046566D01*
X126682790Y-77017749D01*
X126677258Y-76989247D01*
X126670249Y-76961105D01*
X126661810Y-76933371D01*
X126651987Y-76906091D01*
X126640827Y-76879311D01*
X126628377Y-76853078D01*
X126614682Y-76827439D01*
X126599789Y-76802439D01*
X126583745Y-76778126D01*
X126566597Y-76754546D01*
X126548390Y-76731745D01*
X126529171Y-76709769D01*
X126508988Y-76688666D01*
X126487885Y-76668482D01*
X126465910Y-76649264D01*
X126443109Y-76631056D01*
X126419529Y-76613908D01*
X126395216Y-76597864D01*
X126370216Y-76582971D01*
X126344577Y-76569276D01*
X126318344Y-76556825D01*
X126291564Y-76545665D01*
X126264284Y-76535842D01*
X126236550Y-76527403D01*
X126208408Y-76520394D01*
X126179905Y-76514861D01*
X126151088Y-76510852D01*
X126122003Y-76508412D01*
X126092696Y-76507589D01*
X126064698Y-76508292D01*
X126036721Y-76510418D01*
X126008789Y-76513987D01*
X125980922Y-76519023D01*
X125953143Y-76525545D01*
X125925473Y-76533577D01*
X125897935Y-76543141D01*
X125870549Y-76554258D01*
X125843339Y-76566949D01*
X125816326Y-76581238D01*
X125789532Y-76597146D01*
X125762978Y-76614694D01*
X125736686Y-76633905D01*
X125710680Y-76654801D01*
X125684979Y-76677403D01*
X125659606Y-76701733D01*
X125599868Y-76761469D01*
X125342259Y-76417986D01*
X125525191Y-76417986D01*
X125614799Y-76522529D01*
X125640346Y-76500827D01*
X125661671Y-76480526D01*
X125695769Y-76444124D01*
X125710598Y-76428023D01*
X125725317Y-76413322D01*
X125740956Y-76400021D01*
X125758541Y-76388120D01*
X125779102Y-76377619D01*
X125803666Y-76368519D01*
X125833261Y-76360818D01*
X125868917Y-76354518D01*
X125911659Y-76349618D01*
X125962518Y-76346118D01*
X126022521Y-76344017D01*
X126092696Y-76343317D01*
X126130315Y-76344315D01*
X126167531Y-76347273D01*
X126204293Y-76352140D01*
X126240550Y-76358864D01*
X126276249Y-76367393D01*
X126311337Y-76377674D01*
X126345764Y-76389656D01*
X126379478Y-76403288D01*
X126412425Y-76418516D01*
X126444556Y-76435289D01*
X126475816Y-76453555D01*
X126506155Y-76473262D01*
X126535520Y-76494359D01*
X126563860Y-76516793D01*
X126591123Y-76540511D01*
X126617256Y-76565464D01*
X126642208Y-76591597D01*
X126665927Y-76618860D01*
X126688360Y-76647200D01*
X126709457Y-76676566D01*
X126729164Y-76706905D01*
X126747430Y-76738166D01*
X126764203Y-76770296D01*
X126779431Y-76803245D01*
X126793062Y-76836958D01*
X126805044Y-76871386D01*
X126815325Y-76906475D01*
X126823854Y-76942174D01*
X126830578Y-76978431D01*
X126835445Y-77015194D01*
X126838403Y-77052410D01*
X126839400Y-77090029D01*
X126838360Y-77127648D01*
X126835281Y-77164865D01*
X126830221Y-77201627D01*
X126823242Y-77237884D01*
X126814403Y-77273583D01*
X126803765Y-77308673D01*
X126791387Y-77343100D01*
X126777331Y-77376814D01*
X126761656Y-77409762D01*
X126744423Y-77441892D01*
X126725690Y-77473153D01*
X126705520Y-77503492D01*
X126683971Y-77532858D01*
X126661104Y-77561198D01*
X126636980Y-77588461D01*
X126611657Y-77614594D01*
X126585197Y-77639546D01*
X126557660Y-77663265D01*
X126529105Y-77685699D01*
X126499594Y-77706795D01*
X126469185Y-77726503D01*
X126437940Y-77744769D01*
X126405917Y-77761542D01*
X126373179Y-77776770D01*
X126339784Y-77790401D01*
X126305793Y-77802383D01*
X126271266Y-77812665D01*
X126236263Y-77821193D01*
X126200845Y-77827917D01*
X126165070Y-77832784D01*
X126129001Y-77835742D01*
X126092696Y-77836740D01*
X126061898Y-77835872D01*
X126031122Y-77833298D01*
X126000389Y-77829061D01*
X125969721Y-77823206D01*
X125939142Y-77815775D01*
X125908671Y-77806813D01*
X125878332Y-77796363D01*
X125848146Y-77784470D01*
X125818135Y-77771177D01*
X125788320Y-77756527D01*
X125758725Y-77740564D01*
X125729371Y-77723333D01*
X125700279Y-77704877D01*
X125671472Y-77685240D01*
X125642971Y-77664465D01*
X125614799Y-77642596D01*
X125525191Y-77762068D01*
X125553219Y-77789195D01*
X125576499Y-77814571D01*
X125613631Y-77860073D01*
X125629889Y-77880200D01*
X125646213Y-77898576D01*
X125663806Y-77915202D01*
X125683870Y-77930078D01*
X125707611Y-77943203D01*
X125736229Y-77954579D01*
X125770929Y-77964205D01*
X125812914Y-77972080D01*
X125863387Y-77978206D01*
X125923551Y-77982581D01*
X125994610Y-77985206D01*
X126077766Y-77986082D01*
X126122382Y-77984867D01*
X126166583Y-77981269D01*
X126210302Y-77975351D01*
X126253474Y-77967180D01*
X126296034Y-77956822D01*
X126337916Y-77944341D01*
X126379054Y-77929805D01*
X126419383Y-77913277D01*
X126458837Y-77894824D01*
X126497350Y-77874512D01*
X126534857Y-77852406D01*
X126571292Y-77828572D01*
X126606589Y-77803075D01*
X126640683Y-77775981D01*
X126673508Y-77747356D01*
X126704999Y-77717265D01*
X126735090Y-77685774D01*
X126763715Y-77652948D01*
X126790809Y-77618854D01*
X126816306Y-77583557D01*
X126840140Y-77547121D01*
X126862246Y-77509614D01*
X126882558Y-77471101D01*
X126901011Y-77431647D01*
X126917538Y-77391318D01*
X126932075Y-77350179D01*
X126944556Y-77308297D01*
X126954914Y-77265736D01*
X126963085Y-77222563D01*
X126969002Y-77178843D01*
X126972601Y-77134641D01*
X126973815Y-77090024D01*
X126972601Y-77045407D01*
X126969002Y-77001206D01*
X126963085Y-76957486D01*
X126954914Y-76914313D01*
X126944556Y-76871753D01*
X126932076Y-76829870D01*
X126917539Y-76788732D01*
X126901012Y-76748403D01*
X126882559Y-76708949D01*
X126862247Y-76670435D01*
X126840142Y-76632928D01*
X126816308Y-76596493D01*
X126790811Y-76561196D01*
X126763718Y-76527102D01*
X126735093Y-76494276D01*
X126705002Y-76462785D01*
X126673511Y-76432694D01*
X126640686Y-76404069D01*
X126606592Y-76376975D01*
X126571295Y-76351478D01*
X126534860Y-76327644D01*
X126497353Y-76305538D01*
X126458840Y-76285226D01*
X126419386Y-76266773D01*
X126379058Y-76250246D01*
X126337919Y-76235709D01*
X126296037Y-76223229D01*
X126253477Y-76212870D01*
X126210304Y-76204699D01*
X126166584Y-76198782D01*
X126122383Y-76195183D01*
X126077766Y-76193969D01*
X126077766Y-76193972D01*
X126041369Y-76194847D01*
X126005017Y-76197472D01*
X125968752Y-76201848D01*
X125932619Y-76207973D01*
X125896661Y-76215849D01*
X125860922Y-76225474D01*
X125825445Y-76236850D01*
X125790275Y-76249976D01*
X125755455Y-76264852D01*
X125721028Y-76281478D01*
X125687040Y-76299854D01*
X125653532Y-76319981D01*
X125620550Y-76341857D01*
X125588137Y-76365483D01*
X125556336Y-76390860D01*
X125525191Y-76417986D01*
X125342259Y-76417986D01*
X125331054Y-76403046D01*
X125375854Y-76358247D01*
X125409496Y-76320270D01*
X125438478Y-76284743D01*
X125487627Y-76221040D01*
X125510375Y-76192863D01*
X125533626Y-76167137D01*
X125558670Y-76143860D01*
X125586800Y-76123034D01*
X125602425Y-76113540D01*
X125619304Y-76104658D01*
X125637601Y-76096389D01*
X125657475Y-76088732D01*
X125702603Y-76075256D01*
X125755977Y-76064230D01*
X125818890Y-76055654D01*
X125892632Y-76049529D01*
X125978494Y-76045854D01*
X126077766Y-76044629D01*
X126130694Y-76045974D01*
X126183027Y-76049970D01*
X126234692Y-76056552D01*
X126285619Y-76065659D01*
X126335736Y-76077226D01*
X126384973Y-76091192D01*
X126433259Y-76107493D01*
X126480521Y-76126067D01*
X126526690Y-76146850D01*
X126571695Y-76169779D01*
X126615463Y-76194792D01*
X126657924Y-76221826D01*
X126699006Y-76250818D01*
X126738640Y-76281705D01*
X126776753Y-76314425D01*
X126813275Y-76348913D01*
X126848134Y-76385108D01*
X126881259Y-76422946D01*
X126912579Y-76462365D01*
X126942024Y-76503301D01*
X126969522Y-76545693D01*
X126995001Y-76589476D01*
X127018392Y-76634588D01*
X127039622Y-76680966D01*
X127058621Y-76728548D01*
X127075317Y-76777269D01*
X127089640Y-76827069D01*
X127101517Y-76877882D01*
X127110880Y-76929648D01*
X127117655Y-76982302D01*
X127121772Y-77035782D01*
X127123161Y-77090024D01*
X127121815Y-77144267D01*
G37*
G36*
X126092696Y-78135422D02*
G01*
X126077766Y-78135422D01*
X126084644Y-78135251D01*
X126092696Y-78135422D01*
G37*
G36*
X130274280Y-77314038D02*
G01*
X130273281Y-77357126D01*
X130270313Y-77399556D01*
X130265420Y-77441280D01*
X130258646Y-77482252D01*
X130250034Y-77522426D01*
X130239628Y-77561755D01*
X130227473Y-77600192D01*
X130213611Y-77637691D01*
X130198086Y-77674206D01*
X130180943Y-77709690D01*
X130162224Y-77744096D01*
X130141974Y-77777379D01*
X130120237Y-77809491D01*
X130097056Y-77840387D01*
X130072474Y-77870019D01*
X130046537Y-77898341D01*
X130019286Y-77925307D01*
X129990767Y-77950870D01*
X129961023Y-77974983D01*
X129930098Y-77997601D01*
X129898034Y-78018677D01*
X129864878Y-78038164D01*
X129830671Y-78056015D01*
X129795457Y-78072185D01*
X129759281Y-78086626D01*
X129722186Y-78099293D01*
X129684217Y-78110139D01*
X129645415Y-78119117D01*
X129605827Y-78126181D01*
X129565494Y-78131284D01*
X129524461Y-78134380D01*
X129482772Y-78135422D01*
X129482761Y-78135422D01*
X129441072Y-78134380D01*
X129400039Y-78131284D01*
X129359707Y-78126181D01*
X129320118Y-78119117D01*
X129281317Y-78110139D01*
X129243347Y-78099293D01*
X129206252Y-78086626D01*
X129170076Y-78072185D01*
X129134863Y-78056015D01*
X129100656Y-78038163D01*
X129067499Y-78018676D01*
X129035436Y-77997601D01*
X129004510Y-77974983D01*
X128974765Y-77950869D01*
X128946246Y-77925306D01*
X128918996Y-77898340D01*
X128893058Y-77870018D01*
X128868476Y-77840386D01*
X128845294Y-77809491D01*
X128823557Y-77777379D01*
X128803307Y-77744096D01*
X128784588Y-77709690D01*
X128767444Y-77674206D01*
X128751919Y-77637691D01*
X128738057Y-77600192D01*
X128725901Y-77561754D01*
X128715495Y-77522426D01*
X128706883Y-77482252D01*
X128700109Y-77441280D01*
X128695216Y-77399556D01*
X128692248Y-77357126D01*
X128691249Y-77314038D01*
X128691249Y-76223837D01*
X128825660Y-76223837D01*
X128825660Y-77314038D01*
X128826442Y-77350128D01*
X128828770Y-77385574D01*
X128832612Y-77420341D01*
X128837940Y-77454397D01*
X128844722Y-77487710D01*
X128852929Y-77520245D01*
X128862530Y-77551971D01*
X128873496Y-77582855D01*
X128885796Y-77612864D01*
X128899401Y-77641965D01*
X128914280Y-77670126D01*
X128930403Y-77697313D01*
X128947741Y-77723493D01*
X128966262Y-77748635D01*
X128985938Y-77772704D01*
X129006737Y-77795669D01*
X129028630Y-77817496D01*
X129051587Y-77838152D01*
X129075578Y-77857606D01*
X129100572Y-77875823D01*
X129126540Y-77892772D01*
X129153451Y-77908419D01*
X129181275Y-77922732D01*
X129209983Y-77935677D01*
X129239544Y-77947222D01*
X129269928Y-77957334D01*
X129301105Y-77965981D01*
X129333045Y-77973129D01*
X129365718Y-77978746D01*
X129399094Y-77982798D01*
X129433143Y-77985254D01*
X129467834Y-77986080D01*
X129502525Y-77985254D01*
X129536573Y-77982798D01*
X129569948Y-77978746D01*
X129602621Y-77973129D01*
X129634561Y-77965981D01*
X129665738Y-77957334D01*
X129696121Y-77947222D01*
X129725682Y-77935677D01*
X129754390Y-77922732D01*
X129782214Y-77908419D01*
X129809125Y-77892772D01*
X129835093Y-77875823D01*
X129860087Y-77857606D01*
X129884077Y-77838152D01*
X129907034Y-77817496D01*
X129928927Y-77795669D01*
X129949726Y-77772704D01*
X129969402Y-77748635D01*
X129987923Y-77723493D01*
X130005260Y-77697313D01*
X130021384Y-77670126D01*
X130036263Y-77641965D01*
X130049867Y-77612864D01*
X130062168Y-77582855D01*
X130073134Y-77551971D01*
X130082735Y-77520245D01*
X130090942Y-77487710D01*
X130097724Y-77454397D01*
X130103051Y-77420341D01*
X130106894Y-77385574D01*
X130109221Y-77350128D01*
X130110004Y-77314038D01*
X130110004Y-76223838D01*
X130110002Y-76223838D01*
X130110001Y-76223838D01*
X130110000Y-76223838D01*
X130110000Y-76223837D01*
X130109999Y-76223837D01*
X130109998Y-76223837D01*
X130109997Y-76223837D01*
X130109992Y-76223837D01*
X129960654Y-76223837D01*
X129960654Y-77314037D01*
X129960046Y-77341815D01*
X129958237Y-77369129D01*
X129955252Y-77395951D01*
X129951116Y-77422253D01*
X129945854Y-77448008D01*
X129939489Y-77473189D01*
X129932047Y-77497768D01*
X129923552Y-77521718D01*
X129914029Y-77545012D01*
X129903502Y-77567622D01*
X129891997Y-77589521D01*
X129879537Y-77610682D01*
X129866147Y-77631077D01*
X129851853Y-77650679D01*
X129836677Y-77669461D01*
X129820646Y-77687395D01*
X129803783Y-77704454D01*
X129786114Y-77720611D01*
X129767663Y-77735838D01*
X129748454Y-77750108D01*
X129728513Y-77763393D01*
X129707863Y-77775667D01*
X129686529Y-77786901D01*
X129664537Y-77797069D01*
X129641910Y-77806143D01*
X129618673Y-77814096D01*
X129594852Y-77820901D01*
X129570469Y-77826529D01*
X129545551Y-77830955D01*
X129520121Y-77834149D01*
X129494205Y-77836086D01*
X129467826Y-77836738D01*
X129441448Y-77836086D01*
X129415532Y-77834149D01*
X129390102Y-77830955D01*
X129365184Y-77826529D01*
X129340802Y-77820901D01*
X129316980Y-77814096D01*
X129293744Y-77806143D01*
X129271117Y-77797069D01*
X129249125Y-77786901D01*
X129227792Y-77775667D01*
X129207142Y-77763393D01*
X129187201Y-77750108D01*
X129167992Y-77735838D01*
X129149541Y-77720611D01*
X129131872Y-77704455D01*
X129115009Y-77687396D01*
X129098978Y-77669461D01*
X129083803Y-77650680D01*
X129069508Y-77631077D01*
X129056119Y-77610682D01*
X129043659Y-77589521D01*
X129032153Y-77567622D01*
X129021627Y-77545012D01*
X129012104Y-77521718D01*
X129003609Y-77497768D01*
X128996167Y-77473189D01*
X128989802Y-77448008D01*
X128984540Y-77422253D01*
X128980404Y-77395951D01*
X128977419Y-77369130D01*
X128975610Y-77341816D01*
X128975002Y-77314038D01*
X128975002Y-76223837D01*
X128825660Y-76223837D01*
X128691249Y-76223837D01*
X128691249Y-76074497D01*
X129139278Y-76074497D01*
X129139278Y-77314038D01*
X129139712Y-77333504D01*
X129141002Y-77352686D01*
X129143129Y-77371561D01*
X129146074Y-77390109D01*
X129149817Y-77408306D01*
X129154339Y-77426132D01*
X129159622Y-77443563D01*
X129165646Y-77460579D01*
X129172391Y-77477158D01*
X129179840Y-77493277D01*
X129187972Y-77508915D01*
X129196768Y-77524050D01*
X129206210Y-77538660D01*
X129216278Y-77552723D01*
X129226953Y-77566217D01*
X129238217Y-77579120D01*
X129250048Y-77591411D01*
X129262430Y-77603068D01*
X129275342Y-77614068D01*
X129288765Y-77624390D01*
X129302681Y-77634012D01*
X129317070Y-77642912D01*
X129331912Y-77651068D01*
X129347190Y-77658459D01*
X129362883Y-77665062D01*
X129378972Y-77670856D01*
X129395439Y-77675818D01*
X129412264Y-77679927D01*
X129429429Y-77683161D01*
X129446913Y-77685499D01*
X129464698Y-77686917D01*
X129482764Y-77687395D01*
X129500831Y-77686917D01*
X129518617Y-77685499D01*
X129536101Y-77683161D01*
X129553266Y-77679927D01*
X129570091Y-77675818D01*
X129586558Y-77670856D01*
X129602648Y-77665062D01*
X129618341Y-77658459D01*
X129633618Y-77651068D01*
X129648461Y-77642912D01*
X129662850Y-77634012D01*
X129676765Y-77624390D01*
X129690189Y-77614068D01*
X129703100Y-77603068D01*
X129715482Y-77591411D01*
X129727314Y-77579120D01*
X129738577Y-77566217D01*
X129749252Y-77552723D01*
X129759320Y-77538660D01*
X129768761Y-77524050D01*
X129777558Y-77508915D01*
X129785690Y-77493277D01*
X129793138Y-77477158D01*
X129799884Y-77460579D01*
X129805907Y-77443563D01*
X129811190Y-77426132D01*
X129815712Y-77408306D01*
X129819455Y-77390109D01*
X129822400Y-77371561D01*
X129824527Y-77352686D01*
X129825817Y-77333504D01*
X129826251Y-77314038D01*
X129826251Y-76074497D01*
X130274280Y-76074497D01*
X130274280Y-76223838D01*
X130274280Y-77314038D01*
G37*
G36*
X128601646Y-77732196D02*
G01*
X128577516Y-77778564D01*
X128550018Y-77822415D01*
X128519282Y-77863685D01*
X128485440Y-77902308D01*
X128448622Y-77938218D01*
X128408961Y-77971350D01*
X128366587Y-78001638D01*
X128321631Y-78029016D01*
X128274225Y-78053419D01*
X128224501Y-78074781D01*
X128172589Y-78093037D01*
X128118620Y-78108121D01*
X128062726Y-78119967D01*
X128005039Y-78128509D01*
X127945688Y-78133683D01*
X127884807Y-78135422D01*
X127884799Y-78135420D01*
X127869872Y-78135420D01*
X127869872Y-78165291D01*
X127829626Y-78164509D01*
X127790116Y-78162185D01*
X127751377Y-78158351D01*
X127713444Y-78153040D01*
X127676354Y-78146286D01*
X127640141Y-78138121D01*
X127604842Y-78128577D01*
X127570491Y-78117688D01*
X127537125Y-78105487D01*
X127504779Y-78092005D01*
X127473489Y-78077277D01*
X127443289Y-78061334D01*
X127414216Y-78044211D01*
X127386306Y-78025938D01*
X127359593Y-78006550D01*
X127334113Y-77986080D01*
X127309902Y-77964559D01*
X127286995Y-77942021D01*
X127265429Y-77918498D01*
X127245237Y-77894024D01*
X127226457Y-77868631D01*
X127209123Y-77842352D01*
X127193272Y-77815220D01*
X127178938Y-77787267D01*
X127166157Y-77758527D01*
X127154965Y-77729032D01*
X127145398Y-77698816D01*
X127137490Y-77667910D01*
X127131277Y-77636348D01*
X127126796Y-77604162D01*
X127124081Y-77571386D01*
X127123168Y-77538052D01*
X127123912Y-77508179D01*
X127287429Y-77508179D01*
X127288125Y-77534515D01*
X127290200Y-77560307D01*
X127293631Y-77585536D01*
X127298396Y-77610182D01*
X127304474Y-77634227D01*
X127311843Y-77657650D01*
X127320481Y-77680434D01*
X127330365Y-77702559D01*
X127341475Y-77724006D01*
X127353787Y-77744755D01*
X127367282Y-77764788D01*
X127381935Y-77784085D01*
X127397726Y-77802628D01*
X127414633Y-77820396D01*
X127432634Y-77837372D01*
X127451706Y-77853535D01*
X127471829Y-77868868D01*
X127492980Y-77883349D01*
X127515137Y-77896961D01*
X127538278Y-77909685D01*
X127562382Y-77921500D01*
X127587427Y-77932389D01*
X127613391Y-77942331D01*
X127640251Y-77951308D01*
X127696575Y-77966290D01*
X127756225Y-77977180D01*
X127819024Y-77983827D01*
X127884799Y-77986077D01*
X127929234Y-77984863D01*
X127972860Y-77981264D01*
X128015567Y-77975347D01*
X128057246Y-77967176D01*
X128097787Y-77956818D01*
X128137081Y-77944338D01*
X128175018Y-77929802D01*
X128211490Y-77913275D01*
X128246387Y-77894823D01*
X128279599Y-77874511D01*
X128311018Y-77852405D01*
X128326020Y-77840700D01*
X128340533Y-77828571D01*
X128354542Y-77816027D01*
X128368035Y-77803075D01*
X128380998Y-77789723D01*
X128393416Y-77775981D01*
X128405276Y-77761856D01*
X128416565Y-77747356D01*
X128427269Y-77732489D01*
X128437373Y-77717265D01*
X128437366Y-77717253D01*
X128317897Y-77627648D01*
X128301056Y-77649516D01*
X128283975Y-77670291D01*
X128266413Y-77689929D01*
X128248128Y-77708385D01*
X128228881Y-77725616D01*
X128208431Y-77741578D01*
X128186537Y-77756228D01*
X128162958Y-77769522D01*
X128137455Y-77781415D01*
X128109785Y-77791865D01*
X128079709Y-77800827D01*
X128046985Y-77808258D01*
X128011374Y-77814113D01*
X127972634Y-77818350D01*
X127930526Y-77820924D01*
X127884807Y-77821792D01*
X127837936Y-77820731D01*
X127792662Y-77817504D01*
X127749182Y-77812046D01*
X127728177Y-77808460D01*
X127707694Y-77804291D01*
X127687757Y-77799531D01*
X127668393Y-77794173D01*
X127649624Y-77788208D01*
X127631476Y-77781627D01*
X127613974Y-77774423D01*
X127597141Y-77766587D01*
X127581003Y-77758111D01*
X127565585Y-77748987D01*
X127550910Y-77739207D01*
X127537004Y-77728763D01*
X127523890Y-77717645D01*
X127511594Y-77705847D01*
X127500141Y-77693360D01*
X127489554Y-77680175D01*
X127479859Y-77666285D01*
X127471080Y-77651681D01*
X127463241Y-77636355D01*
X127456368Y-77620300D01*
X127450485Y-77603505D01*
X127445616Y-77585965D01*
X127441786Y-77567669D01*
X127439021Y-77548611D01*
X127437343Y-77528781D01*
X127436778Y-77508172D01*
X127437557Y-77487475D01*
X127439855Y-77467373D01*
X127443620Y-77447851D01*
X127448796Y-77428892D01*
X127455327Y-77410481D01*
X127463161Y-77392600D01*
X127472241Y-77375233D01*
X127482514Y-77358363D01*
X127493924Y-77341975D01*
X127506417Y-77326052D01*
X127534434Y-77295535D01*
X127566125Y-77266680D01*
X127601054Y-77239356D01*
X127638783Y-77213433D01*
X127678875Y-77188779D01*
X127720892Y-77165261D01*
X127764397Y-77142751D01*
X127854119Y-77100223D01*
X127944541Y-77060145D01*
X128031113Y-77021936D01*
X128071862Y-77003115D01*
X128110685Y-76984076D01*
X128147408Y-76964512D01*
X128181856Y-76944116D01*
X128213854Y-76922583D01*
X128228879Y-76911294D01*
X128243227Y-76899605D01*
X128256874Y-76887479D01*
X128269799Y-76874878D01*
X128281981Y-76861762D01*
X128293396Y-76848094D01*
X128304025Y-76833835D01*
X128313844Y-76818947D01*
X128322831Y-76803392D01*
X128330965Y-76787131D01*
X128338225Y-76770127D01*
X128344587Y-76752340D01*
X128350031Y-76733734D01*
X128354533Y-76714268D01*
X128358074Y-76693906D01*
X128360630Y-76672608D01*
X128362179Y-76650337D01*
X128362701Y-76627054D01*
X128362048Y-76603431D01*
X128360108Y-76580183D01*
X128356905Y-76557335D01*
X128352462Y-76534910D01*
X128346806Y-76512934D01*
X128339960Y-76491431D01*
X128331949Y-76470425D01*
X128322798Y-76449942D01*
X128312531Y-76430006D01*
X128301173Y-76410641D01*
X128288749Y-76391872D01*
X128275282Y-76373725D01*
X128260799Y-76356222D01*
X128245323Y-76339390D01*
X128228878Y-76323252D01*
X128211491Y-76307833D01*
X128193184Y-76293158D01*
X128173984Y-76279252D01*
X128153913Y-76266138D01*
X128132998Y-76253843D01*
X128111262Y-76242389D01*
X128088731Y-76231802D01*
X128065429Y-76222107D01*
X128041379Y-76213328D01*
X128016609Y-76205489D01*
X127991140Y-76198616D01*
X127964999Y-76192733D01*
X127938210Y-76187864D01*
X127910797Y-76184034D01*
X127882786Y-76181268D01*
X127854200Y-76179591D01*
X127825065Y-76179026D01*
X127805596Y-76179288D01*
X127786398Y-76180069D01*
X127767479Y-76181364D01*
X127748848Y-76183168D01*
X127730511Y-76185475D01*
X127712478Y-76188280D01*
X127694757Y-76191577D01*
X127677356Y-76195361D01*
X127660283Y-76199626D01*
X127643546Y-76204367D01*
X127627154Y-76209578D01*
X127611114Y-76215254D01*
X127595436Y-76221390D01*
X127580126Y-76227979D01*
X127565194Y-76235017D01*
X127550648Y-76242498D01*
X127536495Y-76250416D01*
X127522745Y-76258767D01*
X127509404Y-76267544D01*
X127496482Y-76276742D01*
X127483986Y-76286356D01*
X127471926Y-76296380D01*
X127460308Y-76306809D01*
X127449141Y-76317636D01*
X127438434Y-76328858D01*
X127428195Y-76340468D01*
X127418431Y-76352461D01*
X127409151Y-76364831D01*
X127400364Y-76377573D01*
X127392076Y-76390682D01*
X127384298Y-76404151D01*
X127377036Y-76417976D01*
X127481578Y-76492649D01*
X127508588Y-76455575D01*
X127521809Y-76438668D01*
X127535248Y-76422877D01*
X127549212Y-76408223D01*
X127564007Y-76394729D01*
X127579940Y-76382416D01*
X127597317Y-76371306D01*
X127616444Y-76361422D01*
X127637627Y-76352784D01*
X127661173Y-76345416D01*
X127687388Y-76339338D01*
X127716579Y-76334572D01*
X127749051Y-76331141D01*
X127785111Y-76329067D01*
X127825065Y-76328371D01*
X127845888Y-76328762D01*
X127866343Y-76329924D01*
X127886409Y-76331841D01*
X127906067Y-76334496D01*
X127925299Y-76337873D01*
X127944085Y-76341955D01*
X127962406Y-76346727D01*
X127980243Y-76352172D01*
X127997577Y-76358272D01*
X128014389Y-76365013D01*
X128030659Y-76372377D01*
X128046369Y-76380348D01*
X128061499Y-76388910D01*
X128076030Y-76398046D01*
X128089943Y-76407740D01*
X128103219Y-76417975D01*
X128115838Y-76428735D01*
X128127782Y-76440004D01*
X128139032Y-76451765D01*
X128149568Y-76464003D01*
X128159371Y-76476699D01*
X128168421Y-76489839D01*
X128176701Y-76503405D01*
X128184191Y-76517381D01*
X128190871Y-76531751D01*
X128196722Y-76546499D01*
X128201726Y-76561607D01*
X128205863Y-76577060D01*
X128209114Y-76592841D01*
X128211459Y-76608934D01*
X128212881Y-76625323D01*
X128213359Y-76641990D01*
X128212839Y-76658446D01*
X128211299Y-76674229D01*
X128208769Y-76689367D01*
X128205279Y-76703887D01*
X128200860Y-76717816D01*
X128195540Y-76731182D01*
X128189352Y-76744011D01*
X128182323Y-76756332D01*
X128174486Y-76768172D01*
X128165868Y-76779558D01*
X128156502Y-76790517D01*
X128146417Y-76801077D01*
X128124208Y-76821109D01*
X128099484Y-76839872D01*
X128072485Y-76857584D01*
X128043451Y-76874465D01*
X128012624Y-76890734D01*
X127980243Y-76906609D01*
X127840003Y-76970546D01*
X127765330Y-77000415D01*
X127659039Y-77049185D01*
X127610312Y-77072869D01*
X127564648Y-77096554D01*
X127522135Y-77120588D01*
X127482859Y-77145323D01*
X127446908Y-77171108D01*
X127430207Y-77184503D01*
X127414371Y-77198292D01*
X127399409Y-77212519D01*
X127385333Y-77227227D01*
X127372155Y-77242460D01*
X127359884Y-77258262D01*
X127348532Y-77274677D01*
X127338109Y-77291748D01*
X127328628Y-77309519D01*
X127320098Y-77328033D01*
X127312530Y-77347336D01*
X127305936Y-77367469D01*
X127300327Y-77388478D01*
X127295713Y-77410405D01*
X127292105Y-77433296D01*
X127289515Y-77457192D01*
X127287952Y-77482139D01*
X127287429Y-77508179D01*
X127123912Y-77508179D01*
X127123991Y-77505014D01*
X127126424Y-77473086D01*
X127130416Y-77442241D01*
X127135915Y-77412452D01*
X127142868Y-77383691D01*
X127151224Y-77355931D01*
X127160931Y-77329144D01*
X127171937Y-77303303D01*
X127184190Y-77278382D01*
X127197638Y-77254351D01*
X127212228Y-77231185D01*
X127227910Y-77208856D01*
X127244631Y-77187336D01*
X127262340Y-77166598D01*
X127280983Y-77146615D01*
X127300510Y-77127359D01*
X127342005Y-77090920D01*
X127386410Y-77057063D01*
X127433309Y-77025568D01*
X127482286Y-76996217D01*
X127532926Y-76968792D01*
X127584813Y-76943073D01*
X127637531Y-76918842D01*
X127690665Y-76895879D01*
X127765338Y-76866009D01*
X127833271Y-76839903D01*
X127863617Y-76828043D01*
X127891579Y-76816773D01*
X127917178Y-76805941D01*
X127940436Y-76795393D01*
X127951194Y-76790178D01*
X127961375Y-76784976D01*
X127970982Y-76779769D01*
X127980017Y-76774538D01*
X127988483Y-76769262D01*
X127996384Y-76763924D01*
X128003721Y-76758504D01*
X128010498Y-76752983D01*
X128016716Y-76747341D01*
X128022380Y-76741560D01*
X128027491Y-76735620D01*
X128032053Y-76729502D01*
X128036067Y-76723188D01*
X128039538Y-76716657D01*
X128042467Y-76709892D01*
X128044857Y-76702872D01*
X128046712Y-76695578D01*
X128048033Y-76687992D01*
X128048824Y-76680095D01*
X128049087Y-76671866D01*
X128048698Y-76663511D01*
X128047552Y-76655254D01*
X128045678Y-76647107D01*
X128043107Y-76639081D01*
X128039869Y-76631185D01*
X128035994Y-76623432D01*
X128031512Y-76615831D01*
X128026452Y-76608395D01*
X128020846Y-76601134D01*
X128014723Y-76594059D01*
X128001047Y-76580510D01*
X127985664Y-76567836D01*
X127968815Y-76556125D01*
X127950742Y-76545464D01*
X127931684Y-76535940D01*
X127911882Y-76527641D01*
X127891577Y-76520656D01*
X127871010Y-76515070D01*
X127850420Y-76510971D01*
X127830049Y-76508448D01*
X127810138Y-76507588D01*
X127800339Y-76507762D01*
X127790551Y-76508281D01*
X127780785Y-76509138D01*
X127771051Y-76510330D01*
X127761362Y-76511849D01*
X127751727Y-76513691D01*
X127742158Y-76515851D01*
X127732665Y-76518322D01*
X127723260Y-76521099D01*
X127713953Y-76524177D01*
X127704756Y-76527551D01*
X127695679Y-76531214D01*
X127686733Y-76535162D01*
X127677930Y-76539388D01*
X127669280Y-76543889D01*
X127660793Y-76548657D01*
X127652482Y-76553687D01*
X127644357Y-76558975D01*
X127636429Y-76564514D01*
X127628708Y-76570299D01*
X127621207Y-76576325D01*
X127613935Y-76582587D01*
X127606904Y-76589077D01*
X127600124Y-76595793D01*
X127593607Y-76602726D01*
X127587364Y-76609874D01*
X127581404Y-76617229D01*
X127575741Y-76624786D01*
X127570383Y-76632540D01*
X127565343Y-76640486D01*
X127560631Y-76648617D01*
X127556258Y-76656929D01*
X127526385Y-76731601D01*
X127363975Y-76612126D01*
X127305434Y-76568257D01*
X127255468Y-76529987D01*
X127221955Y-76502919D01*
X127213828Y-76495335D01*
X127212353Y-76493337D01*
X127212768Y-76492651D01*
X127212768Y-76432915D01*
X127230144Y-76389177D01*
X127248877Y-76347626D01*
X127269272Y-76308351D01*
X127291637Y-76271438D01*
X127316277Y-76236975D01*
X127343498Y-76205050D01*
X127373608Y-76175750D01*
X127389841Y-76162112D01*
X127406911Y-76149163D01*
X127424856Y-76136914D01*
X127443715Y-76125376D01*
X127463525Y-76114560D01*
X127484325Y-76104477D01*
X127506153Y-76095138D01*
X127529048Y-76086553D01*
X127553047Y-76078734D01*
X127578190Y-76071692D01*
X127632057Y-76059981D01*
X127690956Y-76051508D01*
X127755192Y-76046359D01*
X127825072Y-76044624D01*
X127861205Y-76045320D01*
X127896775Y-76047395D01*
X127931743Y-76050826D01*
X127966072Y-76055591D01*
X127999722Y-76061669D01*
X128032655Y-76069038D01*
X128064834Y-76077675D01*
X128096220Y-76087560D01*
X128126775Y-76098669D01*
X128156460Y-76110982D01*
X128185238Y-76124476D01*
X128213069Y-76139129D01*
X128239916Y-76154920D01*
X128265740Y-76171827D01*
X128290503Y-76189828D01*
X128314167Y-76208900D01*
X128336693Y-76229023D01*
X128358043Y-76250173D01*
X128378180Y-76272330D01*
X128397064Y-76295472D01*
X128414657Y-76319576D01*
X128430921Y-76344621D01*
X128445818Y-76370584D01*
X128459309Y-76397445D01*
X128471357Y-76425180D01*
X128481922Y-76453769D01*
X128490967Y-76483189D01*
X128498453Y-76513418D01*
X128504343Y-76544435D01*
X128508597Y-76576218D01*
X128511177Y-76608745D01*
X128512046Y-76641993D01*
X128511182Y-76674902D01*
X128508637Y-76706451D01*
X128504478Y-76736683D01*
X128498774Y-76765638D01*
X128491594Y-76793356D01*
X128483005Y-76819880D01*
X128473076Y-76845250D01*
X128461875Y-76869506D01*
X128449472Y-76892691D01*
X128435933Y-76914845D01*
X128421328Y-76936009D01*
X128405725Y-76956224D01*
X128389193Y-76975531D01*
X128371798Y-76993971D01*
X128353611Y-77011586D01*
X128334699Y-77028416D01*
X128294975Y-77059885D01*
X128253173Y-77088707D01*
X128209839Y-77115210D01*
X128165521Y-77139722D01*
X128120766Y-77162572D01*
X128076120Y-77184088D01*
X127989345Y-77224429D01*
X127952654Y-77239104D01*
X127915635Y-77255027D01*
X127878660Y-77272043D01*
X127842101Y-77290000D01*
X127806329Y-77308745D01*
X127771717Y-77328124D01*
X127738636Y-77347984D01*
X127707459Y-77368172D01*
X127678557Y-77388535D01*
X127652302Y-77408920D01*
X127640283Y-77419073D01*
X127629066Y-77429174D01*
X127618696Y-77439204D01*
X127609220Y-77449144D01*
X127600686Y-77458974D01*
X127593138Y-77468676D01*
X127586624Y-77478230D01*
X127581190Y-77487617D01*
X127576883Y-77496819D01*
X127573748Y-77505815D01*
X127571834Y-77514587D01*
X127571185Y-77523116D01*
X127571576Y-77531471D01*
X127572735Y-77539727D01*
X127574643Y-77547874D01*
X127577281Y-77555901D01*
X127580630Y-77563797D01*
X127584671Y-77571550D01*
X127589385Y-77579151D01*
X127594752Y-77586587D01*
X127607371Y-77600923D01*
X127622374Y-77614472D01*
X127639608Y-77627146D01*
X127658920Y-77638857D01*
X127680158Y-77649519D01*
X127703168Y-77659042D01*
X127727797Y-77667341D01*
X127753892Y-77674327D01*
X127781300Y-77679913D01*
X127809867Y-77684011D01*
X127839441Y-77686534D01*
X127869868Y-77687395D01*
X127885139Y-77687177D01*
X127900146Y-77686527D01*
X127914892Y-77685450D01*
X127929374Y-77683953D01*
X127943594Y-77682039D01*
X127957552Y-77679716D01*
X127971246Y-77676988D01*
X127984679Y-77673860D01*
X127997848Y-77670339D01*
X128010756Y-77666429D01*
X128023400Y-77662137D01*
X128035782Y-77657467D01*
X128047902Y-77652426D01*
X128059759Y-77647018D01*
X128071353Y-77641249D01*
X128082685Y-77635124D01*
X128093755Y-77628650D01*
X128104561Y-77621831D01*
X128115106Y-77614672D01*
X128125387Y-77607181D01*
X128135407Y-77599361D01*
X128145164Y-77591218D01*
X128154658Y-77582758D01*
X128163890Y-77573987D01*
X128172859Y-77564909D01*
X128181565Y-77555531D01*
X128198191Y-77535893D01*
X128213768Y-77515118D01*
X128228294Y-77493249D01*
X128273090Y-77418578D01*
X128631515Y-77672460D01*
X128609112Y-77717265D01*
X128601646Y-77732196D01*
G37*
G36*
X159426261Y-73063063D02*
G01*
X159426261Y-73042298D01*
X159450363Y-73042298D01*
X159426261Y-73063063D01*
G37*
G36*
X159426261Y-73063066D02*
G01*
X159426257Y-73063066D01*
X159426261Y-73063063D01*
X159426261Y-73063066D01*
G37*
G36*
X162312175Y-71319060D02*
G01*
X161710078Y-72440205D01*
X161460935Y-72294868D01*
X161689315Y-71879628D01*
X161530063Y-71960713D01*
X161371966Y-72047547D01*
X161215694Y-72139065D01*
X161061916Y-72234202D01*
X160764517Y-72431075D01*
X160485122Y-72629651D01*
X160229085Y-72821416D01*
X160001758Y-72997852D01*
X159654645Y-73270680D01*
X159592359Y-73332963D01*
X159405502Y-73104581D01*
X159467786Y-73042298D01*
X159450363Y-73042298D01*
X159583838Y-72927303D01*
X159787646Y-72759423D01*
X160031355Y-72568186D01*
X160308641Y-72362351D01*
X160457898Y-72256696D01*
X160613176Y-72150676D01*
X160773686Y-72045387D01*
X160938636Y-71941921D01*
X161107236Y-71841376D01*
X161278695Y-71744845D01*
X161452222Y-71653423D01*
X161627027Y-71568206D01*
X161149505Y-71568206D01*
X161152181Y-71548862D01*
X161159237Y-71510785D01*
X161180647Y-71404705D01*
X161211789Y-71256777D01*
X162312175Y-71319060D01*
G37*
G36*
X160007587Y-73976588D02*
G01*
X159716920Y-74267255D01*
X159426253Y-73976588D01*
X159716920Y-73685920D01*
X160007587Y-73976588D01*
G37*
G36*
X161730828Y-75782884D02*
G01*
X161440162Y-76073552D01*
X161149495Y-75782884D01*
X161440162Y-75492216D01*
X161730828Y-75782884D01*
G37*
G36*
X162312164Y-76384977D02*
G01*
X162021499Y-76675644D01*
X161730832Y-76384977D01*
X162021499Y-76094309D01*
X162312164Y-76384977D01*
G37*
G36*
X162893500Y-76987073D02*
G01*
X162602834Y-77277741D01*
X162312167Y-76987073D01*
X162602834Y-76696405D01*
X162893500Y-76987073D01*
G37*
G36*
X163474836Y-77589177D02*
G01*
X163184169Y-77879844D01*
X162893502Y-77589177D01*
X163184169Y-77298508D01*
X163474836Y-77589177D01*
G37*
G36*
X164035407Y-78170510D02*
G01*
X163744741Y-78461177D01*
X163454074Y-78170510D01*
X163744741Y-77879842D01*
X164035407Y-78170510D01*
G37*
G36*
X164616742Y-78772606D02*
G01*
X164326076Y-79063274D01*
X164035409Y-78772606D01*
X164326076Y-78481938D01*
X164616742Y-78772606D01*
G37*
G36*
X165198072Y-79374698D02*
G01*
X164907405Y-79665366D01*
X164616738Y-79374698D01*
X164907405Y-79084031D01*
X165198072Y-79374698D01*
G37*
G36*
X165779409Y-79976801D02*
G01*
X165488742Y-80267469D01*
X165198075Y-79976801D01*
X165488742Y-79686134D01*
X165779409Y-79976801D01*
G37*
G36*
X153654430Y-81222514D02*
G01*
X151910426Y-81222514D01*
X151910426Y-78564987D01*
X150270232Y-81014893D01*
X150207946Y-81097940D01*
X150000323Y-81097940D01*
X148297847Y-78564978D01*
X148297847Y-81222506D01*
X146553844Y-81222506D01*
X146553847Y-74267251D01*
X146927554Y-74267251D01*
X146927554Y-80848793D01*
X147924125Y-80848793D01*
X147924125Y-77340025D01*
X150083369Y-80578892D01*
X152263374Y-77340025D01*
X152263374Y-80848796D01*
X153280711Y-80848796D01*
X153280711Y-74267255D01*
X150104133Y-78772602D01*
X146927554Y-74267251D01*
X146553847Y-74267251D01*
X146553847Y-73602874D01*
X146906802Y-73602874D01*
X150104137Y-78128977D01*
X153301482Y-73602874D01*
X153654430Y-73602874D01*
X153654430Y-74267255D01*
X153654430Y-81222514D01*
G37*
G36*
X161539327Y-77693794D02*
G01*
X161525538Y-77879043D01*
X161502830Y-78061638D01*
X161471428Y-78241348D01*
X161431556Y-78417941D01*
X161383438Y-78591184D01*
X161327298Y-78760847D01*
X161263362Y-78926696D01*
X161191853Y-79088500D01*
X161112995Y-79246027D01*
X161027013Y-79399046D01*
X160934131Y-79547324D01*
X160834573Y-79690630D01*
X160728564Y-79828731D01*
X160616327Y-79961395D01*
X160498089Y-80088392D01*
X160374071Y-80209488D01*
X160244499Y-80324452D01*
X160109598Y-80433053D01*
X159969591Y-80535057D01*
X159824703Y-80630234D01*
X159675157Y-80718351D01*
X159521179Y-80799177D01*
X159503705Y-80807274D01*
X166007790Y-80807278D01*
X166132364Y-80807278D01*
X166298454Y-80807278D01*
X166254310Y-80685332D01*
X166132364Y-80807278D01*
X166007790Y-80807278D01*
X165779411Y-80578898D01*
X166070077Y-80288229D01*
X166133534Y-80351687D01*
X162976548Y-71630495D01*
X163350263Y-71505922D01*
X166748831Y-80807278D01*
X166900552Y-81222516D01*
X153965858Y-81222509D01*
X153965858Y-80807271D01*
X156430612Y-80807273D01*
X156420648Y-80802717D01*
X156265858Y-80722531D01*
X156115455Y-80635062D01*
X155969671Y-80540529D01*
X155828738Y-80439154D01*
X155692887Y-80331155D01*
X155562352Y-80216755D01*
X155437362Y-80096174D01*
X155318152Y-79969632D01*
X155204951Y-79837349D01*
X155097993Y-79699546D01*
X154997509Y-79556444D01*
X154903732Y-79408262D01*
X154816892Y-79255223D01*
X154737222Y-79097545D01*
X154664953Y-78935450D01*
X154600319Y-78769158D01*
X154543550Y-78598889D01*
X154494878Y-78424864D01*
X154454536Y-78247304D01*
X154422755Y-78066429D01*
X154399767Y-77882460D01*
X154385805Y-77695616D01*
X154381099Y-77506123D01*
X155772147Y-77506123D01*
X155774983Y-77620270D01*
X155783400Y-77732938D01*
X155797261Y-77843987D01*
X155816429Y-77953276D01*
X155840767Y-78060665D01*
X155870138Y-78166011D01*
X155904406Y-78269176D01*
X155943433Y-78370017D01*
X155987084Y-78468395D01*
X156035220Y-78564169D01*
X156087705Y-78657198D01*
X156144403Y-78747342D01*
X156205175Y-78834460D01*
X156269887Y-78918410D01*
X156338400Y-78999054D01*
X156410577Y-79076249D01*
X156486283Y-79149855D01*
X156565380Y-79219733D01*
X156647731Y-79285740D01*
X156733199Y-79347736D01*
X156821648Y-79405581D01*
X156912940Y-79459134D01*
X157006939Y-79508254D01*
X157103508Y-79552801D01*
X157202511Y-79592633D01*
X157303809Y-79627611D01*
X157407267Y-79657594D01*
X157512747Y-79682441D01*
X157620113Y-79702011D01*
X157729227Y-79716164D01*
X157839954Y-79724759D01*
X157952155Y-79727655D01*
X158064356Y-79724759D01*
X158175083Y-79716164D01*
X158284197Y-79702011D01*
X158391563Y-79682441D01*
X158497043Y-79657594D01*
X158600500Y-79627611D01*
X158701798Y-79592633D01*
X158800800Y-79552800D01*
X158897369Y-79508253D01*
X158991368Y-79459133D01*
X159082661Y-79405580D01*
X159171109Y-79347735D01*
X159256577Y-79285738D01*
X159338928Y-79219731D01*
X159418025Y-79149854D01*
X159493731Y-79076248D01*
X159565908Y-78999052D01*
X159634421Y-78918409D01*
X159699133Y-78834458D01*
X159759906Y-78747341D01*
X159816603Y-78657197D01*
X159869088Y-78564168D01*
X159917225Y-78468395D01*
X159960875Y-78370017D01*
X159999903Y-78269175D01*
X160034170Y-78166011D01*
X160063542Y-78060665D01*
X160087880Y-77953278D01*
X160107048Y-77843989D01*
X160120908Y-77732941D01*
X160129325Y-77620273D01*
X160132161Y-77506126D01*
X160129325Y-77391919D01*
X160120908Y-77279078D01*
X160107048Y-77167749D01*
X160087880Y-77058081D01*
X160063542Y-76950224D01*
X160034170Y-76844324D01*
X159999903Y-76740530D01*
X159960875Y-76638990D01*
X159917225Y-76539853D01*
X159869088Y-76443267D01*
X159816603Y-76349380D01*
X159759906Y-76258341D01*
X159699133Y-76170297D01*
X159634421Y-76085397D01*
X159565908Y-76003790D01*
X159493731Y-75925623D01*
X159418025Y-75851044D01*
X159338928Y-75780203D01*
X159256577Y-75713247D01*
X159171109Y-75650324D01*
X159082661Y-75591583D01*
X158991368Y-75537172D01*
X158897369Y-75487240D01*
X158800800Y-75441934D01*
X158701798Y-75401403D01*
X158600500Y-75365795D01*
X158497043Y-75335258D01*
X158391563Y-75309942D01*
X158284197Y-75289992D01*
X158175083Y-75275560D01*
X158064356Y-75266791D01*
X157952155Y-75263835D01*
X157839954Y-75266732D01*
X157729228Y-75275331D01*
X157620114Y-75289496D01*
X157512748Y-75309090D01*
X157407268Y-75333975D01*
X157303810Y-75364015D01*
X157202512Y-75399074D01*
X157103510Y-75439014D01*
X157006941Y-75483698D01*
X156912942Y-75532989D01*
X156821649Y-75586752D01*
X156733201Y-75644848D01*
X156647732Y-75707141D01*
X156565381Y-75773495D01*
X156486285Y-75843771D01*
X156410579Y-75917835D01*
X156338401Y-75995547D01*
X156269888Y-76076773D01*
X156205177Y-76161374D01*
X156144404Y-76249214D01*
X156087706Y-76340156D01*
X156035221Y-76434064D01*
X155987084Y-76530800D01*
X155943434Y-76630228D01*
X155904406Y-76732210D01*
X155870138Y-76836610D01*
X155840767Y-76943292D01*
X155816429Y-77052117D01*
X155797261Y-77162950D01*
X155783400Y-77275653D01*
X155774983Y-77390090D01*
X155772147Y-77506123D01*
X154381099Y-77506123D01*
X154381099Y-77506119D01*
X154385745Y-77316503D01*
X154399534Y-77129313D01*
X154422242Y-76944783D01*
X154453644Y-76763151D01*
X154493516Y-76584651D01*
X154541634Y-76409519D01*
X154597774Y-76237991D01*
X154661710Y-76070303D01*
X154733220Y-75906690D01*
X154812078Y-75747388D01*
X154898060Y-75592633D01*
X154990942Y-75442660D01*
X155090500Y-75297706D01*
X155196509Y-75158005D01*
X155308745Y-75023794D01*
X155426984Y-74895308D01*
X155551001Y-74772783D01*
X155680573Y-74656454D01*
X155815474Y-74546558D01*
X155955481Y-74443330D01*
X156100370Y-74347006D01*
X156249915Y-74257821D01*
X156403893Y-74176012D01*
X156562079Y-74101813D01*
X156724250Y-74035460D01*
X156890180Y-73977190D01*
X157059645Y-73927238D01*
X157232422Y-73885840D01*
X157408286Y-73853231D01*
X157587012Y-73829647D01*
X157768377Y-73815324D01*
X157952155Y-73810497D01*
X158135934Y-73815324D01*
X158317299Y-73829647D01*
X158496026Y-73853231D01*
X158671889Y-73885840D01*
X158844666Y-73927238D01*
X159014132Y-73977190D01*
X159180062Y-74035460D01*
X159342233Y-74101813D01*
X159500419Y-74176012D01*
X159654397Y-74257821D01*
X159803942Y-74347006D01*
X159948830Y-74443331D01*
X160048615Y-74516903D01*
X160277494Y-74288023D01*
X160568160Y-74578691D01*
X160363752Y-74783100D01*
X160477327Y-74895308D01*
X160595566Y-75023794D01*
X160654583Y-75094367D01*
X160858829Y-74890120D01*
X161149495Y-75180787D01*
X160902885Y-75427398D01*
X160913368Y-75442661D01*
X161006250Y-75592634D01*
X161092232Y-75747389D01*
X161171090Y-75906692D01*
X161242599Y-76070305D01*
X161306536Y-76237993D01*
X161362675Y-76409521D01*
X161410793Y-76584653D01*
X161450665Y-76763153D01*
X161482067Y-76944786D01*
X161504774Y-77129316D01*
X161518564Y-77316507D01*
X161523210Y-77506123D01*
X161543973Y-77506123D01*
X161543973Y-77506126D01*
X161539327Y-77693794D01*
G37*
G36*
X150830806Y-82239839D02*
G01*
X150830806Y-82634315D01*
X150498614Y-82530506D01*
X150498614Y-84502891D01*
X150124896Y-84502891D01*
X150124896Y-82052984D01*
X150124900Y-82052983D01*
X150228709Y-82052983D01*
X150830806Y-82239839D01*
G37*
G36*
X152868407Y-82033253D02*
G01*
X152912205Y-82036302D01*
X152955296Y-82041328D01*
X152997630Y-82048285D01*
X153039159Y-82057128D01*
X153079832Y-82067810D01*
X153119600Y-82080287D01*
X153158414Y-82094513D01*
X153196225Y-82110441D01*
X153232982Y-82128028D01*
X153268637Y-82147226D01*
X153303140Y-82167990D01*
X153336442Y-82190276D01*
X153368493Y-82214036D01*
X153399244Y-82239225D01*
X153428645Y-82265799D01*
X153456647Y-82293710D01*
X153483201Y-82322914D01*
X153508257Y-82353366D01*
X153531765Y-82385018D01*
X153553677Y-82417826D01*
X153573943Y-82451744D01*
X153592513Y-82486727D01*
X153609339Y-82522728D01*
X153624370Y-82559703D01*
X153637557Y-82597606D01*
X153648851Y-82636390D01*
X153658202Y-82676011D01*
X153665562Y-82716422D01*
X153670879Y-82757579D01*
X153674106Y-82799435D01*
X153675193Y-82841945D01*
X153322238Y-82924991D01*
X153321397Y-82897928D01*
X153318918Y-82871261D01*
X153314865Y-82845020D01*
X153309302Y-82819235D01*
X153302295Y-82793936D01*
X153293908Y-82769154D01*
X153284206Y-82744920D01*
X153273253Y-82721264D01*
X153261113Y-82698216D01*
X153247853Y-82675807D01*
X153233535Y-82654066D01*
X153218225Y-82633026D01*
X153201988Y-82612715D01*
X153184887Y-82593164D01*
X153166989Y-82574405D01*
X153148356Y-82556466D01*
X153129055Y-82539379D01*
X153109149Y-82523174D01*
X153088703Y-82507881D01*
X153067782Y-82493532D01*
X153046450Y-82480155D01*
X153024772Y-82467782D01*
X153002813Y-82456443D01*
X152980638Y-82446168D01*
X152958310Y-82436989D01*
X152935895Y-82428935D01*
X152913457Y-82422036D01*
X152891061Y-82416323D01*
X152868771Y-82411827D01*
X152846653Y-82408578D01*
X152824770Y-82406606D01*
X152803188Y-82405942D01*
X152781784Y-82406428D01*
X152760422Y-82407884D01*
X152739143Y-82410305D01*
X152717990Y-82413688D01*
X152697005Y-82418028D01*
X152676228Y-82423323D01*
X152655702Y-82429569D01*
X152635469Y-82436761D01*
X152615571Y-82444896D01*
X152596049Y-82453970D01*
X152576945Y-82463979D01*
X152558301Y-82474919D01*
X152540159Y-82486787D01*
X152522561Y-82499579D01*
X152505548Y-82513291D01*
X152489162Y-82527919D01*
X152473446Y-82543459D01*
X152458440Y-82559908D01*
X152444187Y-82577262D01*
X152430728Y-82595517D01*
X152418106Y-82614669D01*
X152406362Y-82634714D01*
X152395539Y-82655649D01*
X152385676Y-82677469D01*
X152376818Y-82700172D01*
X152369005Y-82723753D01*
X152362279Y-82748208D01*
X152356683Y-82773534D01*
X152352257Y-82799726D01*
X152349044Y-82826782D01*
X152347085Y-82854696D01*
X152346423Y-82883466D01*
X152351330Y-82943146D01*
X152366212Y-83005685D01*
X152391313Y-83071509D01*
X152426876Y-83141043D01*
X152473145Y-83214713D01*
X152530362Y-83292945D01*
X152598771Y-83376165D01*
X152678616Y-83464798D01*
X152770139Y-83559271D01*
X152873584Y-83660009D01*
X152989194Y-83767437D01*
X153117213Y-83881983D01*
X153411449Y-84134127D01*
X153758239Y-84419847D01*
X153758239Y-84502895D01*
X151931186Y-84502895D01*
X151931186Y-84129182D01*
X151931190Y-84129180D01*
X151931190Y-84129188D01*
X152948524Y-84129188D01*
X152848607Y-84062050D01*
X152751610Y-83993058D01*
X152658019Y-83922302D01*
X152568321Y-83849873D01*
X152483002Y-83775863D01*
X152402550Y-83700363D01*
X152327450Y-83623464D01*
X152258189Y-83545257D01*
X152195255Y-83465834D01*
X152139133Y-83385285D01*
X152090310Y-83303702D01*
X152068787Y-83262552D01*
X152049272Y-83221177D01*
X152031825Y-83179589D01*
X152016507Y-83137800D01*
X152003379Y-83095820D01*
X151992501Y-83053662D01*
X151983935Y-83011336D01*
X151977741Y-82968855D01*
X151973980Y-82926229D01*
X151972713Y-82883470D01*
X151973799Y-82840841D01*
X151977026Y-82798637D01*
X151982344Y-82756920D01*
X151989703Y-82715751D01*
X151999055Y-82675190D01*
X152010349Y-82635298D01*
X152023536Y-82596136D01*
X152038567Y-82557764D01*
X152055392Y-82520245D01*
X152073962Y-82483637D01*
X152094228Y-82448003D01*
X152116140Y-82413403D01*
X152139649Y-82379898D01*
X152164705Y-82347549D01*
X152191258Y-82316416D01*
X152219260Y-82286560D01*
X152248661Y-82258043D01*
X152279412Y-82230925D01*
X152311463Y-82205266D01*
X152344765Y-82181129D01*
X152379267Y-82158572D01*
X152414922Y-82137658D01*
X152451679Y-82118448D01*
X152489490Y-82101001D01*
X152528304Y-82085379D01*
X152568072Y-82071642D01*
X152608744Y-82059852D01*
X152650273Y-82050069D01*
X152692607Y-82042354D01*
X152735698Y-82036769D01*
X152779495Y-82033373D01*
X152823951Y-82032227D01*
X152868407Y-82033253D01*
G37*
G36*
X165281123Y-84502899D02*
G01*
X164865882Y-84502899D01*
X164699788Y-84129186D01*
X163578641Y-84129186D01*
X163412549Y-84502895D01*
X162997308Y-84502895D01*
X163311330Y-83817758D01*
X163682449Y-83817758D01*
X164554450Y-83817758D01*
X164118449Y-82862709D01*
X163682449Y-83817758D01*
X163311330Y-83817758D01*
X164139217Y-82011463D01*
X164967101Y-83817758D01*
X165281123Y-84502899D01*
G37*
G36*
X166879790Y-84502899D02*
G01*
X165405690Y-84502899D01*
X165405690Y-84129186D01*
X165405690Y-84129180D01*
X166506076Y-84129180D01*
X166506076Y-82073749D01*
X166879790Y-82073749D01*
X166879790Y-84502899D01*
G37*
G36*
X158886439Y-83319480D02*
G01*
X158678821Y-83444053D01*
X158658845Y-83409995D01*
X158637743Y-83377914D01*
X158615364Y-83347840D01*
X158591556Y-83319804D01*
X158566166Y-83293836D01*
X158539042Y-83269967D01*
X158510033Y-83248227D01*
X158478986Y-83228646D01*
X158445750Y-83211255D01*
X158410172Y-83196084D01*
X158372100Y-83183164D01*
X158331382Y-83172524D01*
X158287866Y-83164196D01*
X158241400Y-83158210D01*
X158191832Y-83154596D01*
X158139011Y-83153385D01*
X158085514Y-83155098D01*
X158034146Y-83160278D01*
X158009318Y-83164188D01*
X157985090Y-83168987D01*
X157961486Y-83174683D01*
X157938527Y-83181284D01*
X157916238Y-83188797D01*
X157894641Y-83197230D01*
X157873759Y-83206591D01*
X157853614Y-83216887D01*
X157834230Y-83228126D01*
X157815628Y-83240315D01*
X157797833Y-83253463D01*
X157780866Y-83267575D01*
X157764751Y-83282662D01*
X157749511Y-83298728D01*
X157735167Y-83315784D01*
X157721743Y-83333835D01*
X157709263Y-83352890D01*
X157697748Y-83372956D01*
X157687221Y-83394041D01*
X157677706Y-83416153D01*
X157669224Y-83439298D01*
X157661800Y-83463485D01*
X157655455Y-83488722D01*
X157650212Y-83515015D01*
X157646095Y-83542373D01*
X157643126Y-83570802D01*
X157641328Y-83600312D01*
X157640723Y-83630908D01*
X157641505Y-83661565D01*
X157643815Y-83691248D01*
X157647601Y-83719957D01*
X157652807Y-83747694D01*
X157659383Y-83774457D01*
X157667274Y-83800247D01*
X157676427Y-83825064D01*
X157686789Y-83848908D01*
X157698307Y-83871778D01*
X157710927Y-83893676D01*
X157724596Y-83914600D01*
X157739262Y-83934551D01*
X157754870Y-83953528D01*
X157771368Y-83971533D01*
X157788702Y-83988564D01*
X157806819Y-84004622D01*
X157825666Y-84019707D01*
X157845190Y-84033819D01*
X157865338Y-84046957D01*
X157886055Y-84059122D01*
X157907290Y-84070314D01*
X157928989Y-84080533D01*
X157973564Y-84098051D01*
X158019356Y-84111676D01*
X158065939Y-84121408D01*
X158112887Y-84127247D01*
X158159774Y-84129194D01*
X158175402Y-84128891D01*
X158191129Y-84127992D01*
X158206932Y-84126508D01*
X158222789Y-84124449D01*
X158238675Y-84121828D01*
X158254570Y-84118656D01*
X158286290Y-84110703D01*
X158317768Y-84100681D01*
X158348819Y-84088683D01*
X158379263Y-84074800D01*
X158408915Y-84059122D01*
X158437595Y-84041741D01*
X158465119Y-84022747D01*
X158491305Y-84002233D01*
X158515970Y-83980290D01*
X158527675Y-83968811D01*
X158538932Y-83957008D01*
X158549717Y-83944894D01*
X158560008Y-83932480D01*
X158569783Y-83919776D01*
X158579017Y-83906795D01*
X158587689Y-83893548D01*
X158595775Y-83880046D01*
X158969489Y-84004619D01*
X158945108Y-84061770D01*
X158918476Y-84116336D01*
X158889290Y-84168165D01*
X158857244Y-84217105D01*
X158822036Y-84263003D01*
X158783361Y-84305708D01*
X158740915Y-84345068D01*
X158694393Y-84380931D01*
X158643492Y-84413143D01*
X158616304Y-84427834D01*
X158587907Y-84441554D01*
X158558263Y-84454287D01*
X158527334Y-84466012D01*
X158461470Y-84486363D01*
X158390009Y-84502457D01*
X158312649Y-84514141D01*
X158229084Y-84521262D01*
X158139011Y-84523670D01*
X158092609Y-84522641D01*
X158046869Y-84519578D01*
X158001844Y-84514516D01*
X157957587Y-84507489D01*
X157914151Y-84498530D01*
X157871589Y-84487674D01*
X157829955Y-84474956D01*
X157789301Y-84460408D01*
X157749682Y-84444067D01*
X157711150Y-84425965D01*
X157673758Y-84406138D01*
X157637560Y-84384618D01*
X157602609Y-84361442D01*
X157568959Y-84336642D01*
X157536661Y-84310252D01*
X157505770Y-84282309D01*
X157476339Y-84252844D01*
X157448421Y-84221893D01*
X157422070Y-84189490D01*
X157397338Y-84155668D01*
X157374278Y-84120463D01*
X157352945Y-84083909D01*
X157333390Y-84046039D01*
X157315668Y-84006887D01*
X157299832Y-83966489D01*
X157285935Y-83924878D01*
X157274029Y-83882089D01*
X157264169Y-83838155D01*
X157256407Y-83793112D01*
X157250797Y-83746992D01*
X157247392Y-83699831D01*
X157246246Y-83651662D01*
X157246242Y-83651668D01*
X157246242Y-83630903D01*
X157247211Y-83584620D01*
X157250099Y-83539228D01*
X157254881Y-83494762D01*
X157261529Y-83451263D01*
X157270018Y-83408767D01*
X157280320Y-83367313D01*
X157292408Y-83326938D01*
X157306257Y-83287681D01*
X157321839Y-83249580D01*
X157339128Y-83212672D01*
X157358098Y-83176997D01*
X157378721Y-83142591D01*
X157400971Y-83109492D01*
X157424822Y-83077740D01*
X157450247Y-83047371D01*
X157477219Y-83018424D01*
X157505711Y-82990937D01*
X157535698Y-82964948D01*
X157567152Y-82940494D01*
X157600047Y-82917615D01*
X157634356Y-82896347D01*
X157670053Y-82876729D01*
X157707111Y-82858799D01*
X157745503Y-82842596D01*
X157785203Y-82828156D01*
X157826184Y-82815518D01*
X157868419Y-82804720D01*
X157911883Y-82795800D01*
X157956548Y-82788796D01*
X158002387Y-82783746D01*
X158049375Y-82780688D01*
X158097484Y-82779661D01*
X158128379Y-82780152D01*
X158158757Y-82781648D01*
X158188588Y-82784177D01*
X158217840Y-82787772D01*
X158246485Y-82792461D01*
X158274490Y-82798275D01*
X158301826Y-82805245D01*
X158328463Y-82813401D01*
X158354370Y-82822774D01*
X158379517Y-82833393D01*
X158403872Y-82845290D01*
X158427407Y-82858495D01*
X158450090Y-82873038D01*
X158471891Y-82888949D01*
X158492779Y-82906259D01*
X158512725Y-82924999D01*
X158429675Y-82426713D01*
X157453864Y-82426713D01*
X157453864Y-82053001D01*
X158699584Y-82053001D01*
X158886439Y-83319480D01*
G37*
G36*
X160485109Y-83236431D02*
G01*
X160485109Y-82073759D01*
X160858825Y-82073759D01*
X160858825Y-84502910D01*
X160485109Y-84502910D01*
X160485109Y-83319473D01*
X159592345Y-84502906D01*
X159592345Y-84502912D01*
X159592345Y-84523670D01*
X159135581Y-84523670D01*
X160090633Y-83277952D01*
X159218631Y-82073759D01*
X159654632Y-82073759D01*
X160485109Y-83236431D01*
G37*
G36*
X162041366Y-82033075D02*
G01*
X162081453Y-82035589D01*
X162120955Y-82039739D01*
X162159822Y-82045489D01*
X162198005Y-82052805D01*
X162235454Y-82061653D01*
X162272120Y-82071999D01*
X162307953Y-82083808D01*
X162342904Y-82097047D01*
X162376924Y-82111681D01*
X162409964Y-82127676D01*
X162441973Y-82144998D01*
X162472902Y-82163613D01*
X162502702Y-82183486D01*
X162531324Y-82204582D01*
X162558718Y-82226869D01*
X162584834Y-82250312D01*
X162609624Y-82274876D01*
X162633038Y-82300527D01*
X162655026Y-82327232D01*
X162675539Y-82354955D01*
X162694527Y-82383663D01*
X162711942Y-82413321D01*
X162727733Y-82443896D01*
X162741852Y-82475353D01*
X162754248Y-82507657D01*
X162764873Y-82540775D01*
X162773677Y-82574673D01*
X162780611Y-82609315D01*
X162785625Y-82644669D01*
X162788669Y-82680699D01*
X162789695Y-82717372D01*
X162788793Y-82753632D01*
X162786126Y-82788474D01*
X162781757Y-82821940D01*
X162775745Y-82854071D01*
X162768152Y-82884909D01*
X162759038Y-82914497D01*
X162748465Y-82942876D01*
X162736492Y-82970087D01*
X162723181Y-82996174D01*
X162708593Y-83021177D01*
X162692788Y-83045138D01*
X162675828Y-83068099D01*
X162657773Y-83090102D01*
X162638683Y-83111190D01*
X162618621Y-83131402D01*
X162597646Y-83150782D01*
X162553202Y-83187212D01*
X162505839Y-83220813D01*
X162456042Y-83251921D01*
X162404299Y-83280869D01*
X162351097Y-83307992D01*
X162296921Y-83333625D01*
X162187596Y-83381759D01*
X162132934Y-83405597D01*
X162078272Y-83430379D01*
X162024096Y-83456072D01*
X161970893Y-83482648D01*
X161919150Y-83510075D01*
X161869354Y-83538324D01*
X161821991Y-83567363D01*
X161777548Y-83597163D01*
X161736510Y-83627693D01*
X161717421Y-83643222D01*
X161699366Y-83658922D01*
X161682406Y-83674789D01*
X161666601Y-83690820D01*
X161652013Y-83707011D01*
X161638702Y-83723357D01*
X161626730Y-83739855D01*
X161616156Y-83756502D01*
X161607042Y-83773293D01*
X161599449Y-83790225D01*
X161593438Y-83807294D01*
X161589068Y-83824496D01*
X161586402Y-83841827D01*
X161585500Y-83859283D01*
X161586222Y-83876616D01*
X161588354Y-83893573D01*
X161591847Y-83910142D01*
X161596651Y-83926312D01*
X161602718Y-83942072D01*
X161609997Y-83957410D01*
X161618440Y-83972314D01*
X161627997Y-83986773D01*
X161638618Y-84000776D01*
X161650254Y-84014312D01*
X161662856Y-84027369D01*
X161676373Y-84039935D01*
X161705960Y-84063551D01*
X161738618Y-84085068D01*
X161773953Y-84104395D01*
X161811569Y-84121442D01*
X161851070Y-84136116D01*
X161892061Y-84148327D01*
X161934147Y-84157983D01*
X161976933Y-84164993D01*
X162020023Y-84169266D01*
X162063022Y-84170711D01*
X162105580Y-84169500D01*
X162147529Y-84165886D01*
X162188749Y-84159899D01*
X162229117Y-84151571D01*
X162268512Y-84140932D01*
X162287806Y-84134755D01*
X162306812Y-84128012D01*
X162325513Y-84120706D01*
X162343895Y-84112841D01*
X162361943Y-84104421D01*
X162379641Y-84095450D01*
X162396974Y-84085932D01*
X162413926Y-84075869D01*
X162430484Y-84065267D01*
X162446630Y-84054129D01*
X162462351Y-84042459D01*
X162477631Y-84030260D01*
X162492455Y-84017537D01*
X162506807Y-84004293D01*
X162520673Y-83990532D01*
X162534037Y-83976258D01*
X162546884Y-83961474D01*
X162559198Y-83946184D01*
X162570965Y-83930393D01*
X162582170Y-83914104D01*
X162592797Y-83897320D01*
X162602830Y-83880046D01*
X162914260Y-84087667D01*
X162914270Y-84087655D01*
X162886234Y-84140919D01*
X162856405Y-84191628D01*
X162824446Y-84239660D01*
X162790024Y-84284894D01*
X162752803Y-84327209D01*
X162712450Y-84366482D01*
X162668630Y-84402592D01*
X162621008Y-84435418D01*
X162569250Y-84464837D01*
X162513021Y-84490729D01*
X162451987Y-84512971D01*
X162385814Y-84531441D01*
X162314165Y-84546019D01*
X162236708Y-84556583D01*
X162153108Y-84563010D01*
X162063029Y-84565179D01*
X162016688Y-84564274D01*
X161971121Y-84561585D01*
X161926376Y-84557156D01*
X161882498Y-84551027D01*
X161839532Y-84543241D01*
X161797524Y-84533839D01*
X161756519Y-84522863D01*
X161716564Y-84510355D01*
X161677704Y-84496357D01*
X161639984Y-84480910D01*
X161603451Y-84464057D01*
X161568149Y-84445839D01*
X161534124Y-84426298D01*
X161501423Y-84405476D01*
X161470090Y-84383414D01*
X161440171Y-84360156D01*
X161411712Y-84335741D01*
X161384758Y-84310212D01*
X161359356Y-84283612D01*
X161335550Y-84255981D01*
X161313387Y-84227362D01*
X161292911Y-84197796D01*
X161274169Y-84167325D01*
X161257206Y-84135992D01*
X161242068Y-84103837D01*
X161228801Y-84070903D01*
X161217449Y-84037231D01*
X161208059Y-84002864D01*
X161200676Y-83967842D01*
X161195346Y-83932209D01*
X161192115Y-83896005D01*
X161191028Y-83859273D01*
X161191874Y-83822894D01*
X161194388Y-83787696D01*
X161198538Y-83753647D01*
X161204288Y-83720712D01*
X161211604Y-83688856D01*
X161220452Y-83658046D01*
X161230798Y-83628247D01*
X161242608Y-83599424D01*
X161255847Y-83571545D01*
X161270482Y-83544574D01*
X161286477Y-83518478D01*
X161303799Y-83493222D01*
X161322414Y-83468771D01*
X161342287Y-83445093D01*
X161385671Y-83399914D01*
X161433678Y-83357412D01*
X161486034Y-83317312D01*
X161542465Y-83279341D01*
X161602698Y-83243225D01*
X161666459Y-83208692D01*
X161733474Y-83175466D01*
X161803470Y-83143274D01*
X161876172Y-83111843D01*
X162079899Y-83012252D01*
X162125357Y-82989407D01*
X162168138Y-82966957D01*
X162207999Y-82944689D01*
X162244697Y-82922391D01*
X162261784Y-82911164D01*
X162277989Y-82899850D01*
X162293282Y-82888421D01*
X162307632Y-82876852D01*
X162321008Y-82865116D01*
X162333381Y-82853186D01*
X162344720Y-82841035D01*
X162354995Y-82828638D01*
X162364174Y-82815966D01*
X162372229Y-82802994D01*
X162379127Y-82789696D01*
X162384840Y-82776044D01*
X162389336Y-82762012D01*
X162392585Y-82747573D01*
X162394557Y-82732701D01*
X162395221Y-82717369D01*
X162394561Y-82701862D01*
X162392616Y-82686500D01*
X162389439Y-82671305D01*
X162385083Y-82656300D01*
X162379603Y-82641508D01*
X162373050Y-82626952D01*
X162365479Y-82612654D01*
X162356942Y-82598638D01*
X162347492Y-82584925D01*
X162337183Y-82571540D01*
X162326069Y-82558504D01*
X162314201Y-82545841D01*
X162288422Y-82521723D01*
X162260269Y-82499369D01*
X162230171Y-82478962D01*
X162198551Y-82460683D01*
X162165837Y-82444716D01*
X162132453Y-82431243D01*
X162098827Y-82420446D01*
X162065382Y-82412508D01*
X162032546Y-82407611D01*
X162016489Y-82406361D01*
X162000743Y-82405939D01*
X161969620Y-82406912D01*
X161938619Y-82409832D01*
X161907861Y-82414698D01*
X161877468Y-82421511D01*
X161862446Y-82425648D01*
X161847561Y-82430271D01*
X161832829Y-82435380D01*
X161818263Y-82440977D01*
X161803881Y-82447059D01*
X161789695Y-82453629D01*
X161775723Y-82460685D01*
X161761979Y-82468228D01*
X161748478Y-82476257D01*
X161735236Y-82484773D01*
X161722267Y-82493775D01*
X161709587Y-82503265D01*
X161697212Y-82513240D01*
X161685155Y-82523702D01*
X161673434Y-82534651D01*
X161662062Y-82546087D01*
X161651055Y-82558009D01*
X161640428Y-82570417D01*
X161630196Y-82583312D01*
X161620375Y-82596694D01*
X161610980Y-82610562D01*
X161602026Y-82624917D01*
X161593528Y-82639758D01*
X161585502Y-82655086D01*
X161294835Y-82468229D01*
X161315081Y-82418853D01*
X161337090Y-82372001D01*
X161361167Y-82327765D01*
X161387617Y-82286236D01*
X161416743Y-82247505D01*
X161448849Y-82211663D01*
X161484240Y-82178802D01*
X161523220Y-82149013D01*
X161544151Y-82135299D01*
X161566093Y-82122387D01*
X161589084Y-82110288D01*
X161613162Y-82099015D01*
X161638366Y-82088577D01*
X161664733Y-82078988D01*
X161721108Y-82062398D01*
X161782593Y-82049336D01*
X161849491Y-82039893D01*
X161922106Y-82034160D01*
X162000743Y-82032229D01*
X162041366Y-82033075D01*
G37*
G36*
X155024707Y-83713947D02*
G01*
X155751380Y-82073756D01*
X156166621Y-82073756D01*
X155045478Y-84565187D01*
X153924331Y-82073751D01*
X154298038Y-82073751D01*
X155024707Y-83713947D01*
G37*
G36*
X151403050Y-84067202D02*
G01*
X151414702Y-84068101D01*
X151426308Y-84069585D01*
X151437846Y-84071644D01*
X151449292Y-84074265D01*
X151460625Y-84077438D01*
X151471821Y-84081150D01*
X151482857Y-84085391D01*
X151493710Y-84090148D01*
X151504358Y-84095412D01*
X151514779Y-84101169D01*
X151524948Y-84107409D01*
X151534843Y-84114121D01*
X151544443Y-84121293D01*
X151553722Y-84128913D01*
X151562660Y-84136971D01*
X151571233Y-84145454D01*
X151579417Y-84154352D01*
X151587192Y-84163652D01*
X151594533Y-84173345D01*
X151601418Y-84183417D01*
X151607823Y-84193858D01*
X151613727Y-84204657D01*
X151619107Y-84215802D01*
X151623938Y-84227281D01*
X151628200Y-84239083D01*
X151631869Y-84251197D01*
X151634921Y-84263612D01*
X151637335Y-84276315D01*
X151639088Y-84289296D01*
X151640156Y-84302543D01*
X151640517Y-84316045D01*
X151640156Y-84327720D01*
X151639088Y-84339373D01*
X151637335Y-84350979D01*
X151634921Y-84362517D01*
X151631869Y-84373964D01*
X151628200Y-84385297D01*
X151623938Y-84396493D01*
X151619107Y-84407529D01*
X151613727Y-84418383D01*
X151607823Y-84429031D01*
X151601418Y-84439452D01*
X151594533Y-84449621D01*
X151587192Y-84459517D01*
X151579417Y-84469116D01*
X151571233Y-84478396D01*
X151562660Y-84487333D01*
X151553722Y-84495906D01*
X151544443Y-84504091D01*
X151534843Y-84511865D01*
X151524948Y-84519206D01*
X151514779Y-84526091D01*
X151504358Y-84532497D01*
X151493710Y-84538401D01*
X151482857Y-84543780D01*
X151471821Y-84548612D01*
X151460625Y-84552874D01*
X151449292Y-84556542D01*
X151437846Y-84559595D01*
X151426308Y-84562009D01*
X151414702Y-84563761D01*
X151403050Y-84564830D01*
X151391376Y-84565191D01*
X151379701Y-84564830D01*
X151368049Y-84563761D01*
X151356443Y-84562009D01*
X151344905Y-84559595D01*
X151333459Y-84556542D01*
X151322126Y-84552874D01*
X151310931Y-84548612D01*
X151299895Y-84543780D01*
X151289041Y-84538401D01*
X151278393Y-84532497D01*
X151267973Y-84526091D01*
X151257804Y-84519206D01*
X151247908Y-84511865D01*
X151238309Y-84504091D01*
X151229029Y-84495906D01*
X151220092Y-84487333D01*
X151211519Y-84478396D01*
X151203334Y-84469116D01*
X151195560Y-84459517D01*
X151188219Y-84449621D01*
X151181334Y-84439452D01*
X151174928Y-84429031D01*
X151169024Y-84418383D01*
X151163645Y-84407529D01*
X151158813Y-84396493D01*
X151154551Y-84385297D01*
X151150883Y-84373964D01*
X151147830Y-84362517D01*
X151145416Y-84350979D01*
X151143663Y-84339373D01*
X151142595Y-84327720D01*
X151142234Y-84316045D01*
X151142595Y-84304370D01*
X151143663Y-84292718D01*
X151145416Y-84281111D01*
X151147830Y-84269573D01*
X151150883Y-84258126D01*
X151154551Y-84246794D01*
X151158813Y-84235598D01*
X151163645Y-84224561D01*
X151169024Y-84213708D01*
X151174928Y-84203059D01*
X151181334Y-84192639D01*
X151188219Y-84182469D01*
X151195560Y-84172574D01*
X151203334Y-84162974D01*
X151211519Y-84153695D01*
X151220092Y-84144757D01*
X151229029Y-84136184D01*
X151238309Y-84127999D01*
X151247908Y-84120225D01*
X151257804Y-84112884D01*
X151267973Y-84105999D01*
X151278393Y-84099594D01*
X151289041Y-84093690D01*
X151299895Y-84088310D01*
X151310931Y-84083479D01*
X151322126Y-84079217D01*
X151333459Y-84075548D01*
X151344905Y-84072496D01*
X151356443Y-84070082D01*
X151368049Y-84068329D01*
X151379701Y-84067261D01*
X151391376Y-84066900D01*
X151403050Y-84067202D01*
G37*
D11*
%TO.C,JP1*%
X162473000Y-82915000D02*
X162473000Y-80915000D01*
X162473000Y-80915000D02*
X159673000Y-80915000D01*
X159673000Y-82915000D02*
X162473000Y-82915000D01*
X159673000Y-80915000D02*
X159673000Y-82915000D01*
%TD*%
M02*
