%TF.GenerationSoftware,KiCad,Pcbnew,9.0.1*%
%TF.CreationDate,2025-04-13T07:36:32-05:00*%
%TF.ProjectId,LASK-V2-0,4c41534b-2d56-4322-9d30-2e6b69636164,rev?*%
%TF.SameCoordinates,Original*%
%TF.FileFunction,Copper,L3,Inr*%
%TF.FilePolarity,Positive*%
%FSLAX46Y46*%
G04 Gerber Fmt 4.6, Leading zero omitted, Abs format (unit mm)*
G04 Created by KiCad (PCBNEW 9.0.1) date 2025-04-13 07:36:32*
%MOMM*%
%LPD*%
G01*
G04 APERTURE LIST*
G04 Aperture macros list*
%AMRoundRect*
0 Rectangle with rounded corners*
0 $1 Rounding radius*
0 $2 $3 $4 $5 $6 $7 $8 $9 X,Y pos of 4 corners*
0 Add a 4 corners polygon primitive as box body*
4,1,4,$2,$3,$4,$5,$6,$7,$8,$9,$2,$3,0*
0 Add four circle primitives for the rounded corners*
1,1,$1+$1,$2,$3*
1,1,$1+$1,$4,$5*
1,1,$1+$1,$6,$7*
1,1,$1+$1,$8,$9*
0 Add four rect primitives between the rounded corners*
20,1,$1+$1,$2,$3,$4,$5,0*
20,1,$1+$1,$4,$5,$6,$7,0*
20,1,$1+$1,$6,$7,$8,$9,0*
20,1,$1+$1,$8,$9,$2,$3,0*%
G04 Aperture macros list end*
%TA.AperFunction,ComponentPad*%
%ADD10R,1.700000X1.700000*%
%TD*%
%TA.AperFunction,ComponentPad*%
%ADD11O,1.700000X1.700000*%
%TD*%
%TA.AperFunction,ComponentPad*%
%ADD12R,1.350000X1.350000*%
%TD*%
%TA.AperFunction,ComponentPad*%
%ADD13O,1.350000X1.350000*%
%TD*%
%TA.AperFunction,ComponentPad*%
%ADD14RoundRect,0.250000X0.600000X0.750000X-0.600000X0.750000X-0.600000X-0.750000X0.600000X-0.750000X0*%
%TD*%
%TA.AperFunction,ComponentPad*%
%ADD15O,1.700000X2.000000*%
%TD*%
%TA.AperFunction,ComponentPad*%
%ADD16RoundRect,0.250000X-0.600000X-0.750000X0.600000X-0.750000X0.600000X0.750000X-0.600000X0.750000X0*%
%TD*%
%TA.AperFunction,ComponentPad*%
%ADD17O,1.000000X2.100000*%
%TD*%
%TA.AperFunction,ComponentPad*%
%ADD18O,1.000000X1.600000*%
%TD*%
%TA.AperFunction,ViaPad*%
%ADD19C,0.800000*%
%TD*%
%TA.AperFunction,Conductor*%
%ADD20C,0.500000*%
%TD*%
%TA.AperFunction,Conductor*%
%ADD21C,0.250000*%
%TD*%
G04 APERTURE END LIST*
D10*
%TO.N,GND*%
%TO.C,J9*%
X170688000Y-73787000D03*
D11*
%TO.N,+3V3*%
X170688000Y-76327000D03*
%TO.N,SCL*%
X170688000Y-78867000D03*
%TO.N,SDA*%
X170688000Y-81407000D03*
%TD*%
D12*
%TO.N,GND*%
%TO.C,J3*%
X161290000Y-88900000D03*
D13*
%TO.N,+3V3*%
X163290000Y-88900000D03*
%TO.N,GP13*%
X165290000Y-88900000D03*
%TO.N,GP14*%
X167290000Y-88900000D03*
%TO.N,GP21*%
X169290000Y-88900000D03*
%TO.N,GP33*%
X171290000Y-88900000D03*
%TO.N,GP34*%
X173290000Y-88900000D03*
%TO.N,GP42*%
X175290000Y-88900000D03*
%TO.N,RX*%
X177290000Y-88900000D03*
%TO.N,TX*%
X179290000Y-88900000D03*
%TD*%
D12*
%TO.N,+3V3*%
%TO.C,H2*%
X139732000Y-68167600D03*
D13*
%TO.N,GND*%
X141732000Y-68167600D03*
%TO.N,hall_1*%
X143732000Y-68167600D03*
%TD*%
D12*
%TO.N,GND*%
%TO.C,Joystick1*%
X172085000Y-92456000D03*
D13*
%TO.N,+3V3*%
X174085000Y-92456000D03*
%TO.N,JX*%
X176085000Y-92456000D03*
%TO.N,JY*%
X178085000Y-92456000D03*
%TO.N,JSW*%
X180085000Y-92456000D03*
%TD*%
D12*
%TO.N,+3V3*%
%TO.C,H4*%
X180753000Y-68167600D03*
D13*
%TO.N,GND*%
X182753000Y-68167600D03*
%TO.N,hall_3*%
X184753000Y-68167600D03*
%TD*%
D12*
%TO.N,GND*%
%TO.C,J6*%
X145669000Y-89027000D03*
D13*
%TO.N,+3V3*%
X147669000Y-89027000D03*
%TO.N,GP15*%
X149669000Y-89027000D03*
%TO.N,GP16*%
X151669000Y-89027000D03*
%TO.N,GP17*%
X153669000Y-89027000D03*
%TO.N,GP18*%
X155669000Y-89027000D03*
%TO.N,ADC_BAT*%
X157669000Y-89027000D03*
%TD*%
D14*
%TO.N,VBAT*%
%TO.C,BattExtLTC4054*%
X178923000Y-97201000D03*
D15*
%TO.N,GND*%
X176423000Y-97201000D03*
%TD*%
D16*
%TO.N,VBAT*%
%TO.C,J2*%
X126278000Y-97917000D03*
D15*
%TO.N,GND*%
X128778000Y-97917000D03*
%TD*%
D12*
%TO.N,GND*%
%TO.C,Joystick2*%
X130683000Y-93726000D03*
D13*
%TO.N,+3V3*%
X128683000Y-93726000D03*
%TO.N,JX*%
X126683000Y-93726000D03*
%TO.N,JY*%
X124683000Y-93726000D03*
%TO.N,JSW*%
X122683000Y-93726000D03*
%TD*%
D17*
%TO.N,GND*%
%TO.C,J4*%
X147570000Y-95250000D03*
D18*
X147570000Y-99430000D03*
D17*
X156210000Y-95250000D03*
D18*
X156210000Y-99430000D03*
%TD*%
D12*
%TO.N,+3V3*%
%TO.C,H1*%
X119285000Y-68398600D03*
D13*
%TO.N,GND*%
X121285000Y-68398600D03*
%TO.N,hall_0*%
X123285000Y-68398600D03*
%TD*%
D12*
%TO.N,+3V3*%
%TO.C,H3*%
X160306000Y-68167600D03*
D13*
%TO.N,GND*%
X162306000Y-68167600D03*
%TO.N,hall_2*%
X164306000Y-68167600D03*
%TD*%
D10*
%TO.N,GND*%
%TO.C,J1*%
X185039000Y-84455000D03*
D11*
%TO.N,+3V3*%
X185039000Y-86995000D03*
%TO.N,SCL*%
X185039000Y-89535000D03*
%TO.N,SDA*%
X185039000Y-92075000D03*
%TD*%
D19*
%TO.N,GND*%
X166751000Y-76581000D03*
X175006000Y-74549000D03*
X147320000Y-74930000D03*
X181737000Y-76581000D03*
X162814000Y-99568000D03*
X132715000Y-80772000D03*
X150241000Y-78105000D03*
X150622000Y-69723000D03*
X166878000Y-93218000D03*
X158242000Y-77343000D03*
X123698000Y-88773000D03*
%TO.N,+3V3*%
X155321000Y-76581000D03*
X151384000Y-73279000D03*
X137922000Y-92710000D03*
X124841000Y-88773000D03*
%TO.N,SCL*%
X136779000Y-81915000D03*
X155321000Y-90551000D03*
X139827000Y-86360000D03*
%TO.N,SDA*%
X137668000Y-88646000D03*
X155565714Y-91687500D03*
X135128000Y-82423000D03*
%TO.N,JX*%
X140208000Y-94996000D03*
X128651000Y-88773000D03*
%TO.N,JY*%
X129921000Y-88773000D03*
%TO.N,JSW*%
X131191000Y-88773000D03*
%TO.N,b_start*%
X139827000Y-83820000D03*
X143764000Y-83820000D03*
%TO.N,GP14*%
X139827000Y-79883000D03*
%TO.N,GP15*%
X135509000Y-84582000D03*
%TO.N,GP16*%
X135509000Y-85598000D03*
%TO.N,VBAT*%
X179959000Y-71120000D03*
X156845000Y-78105000D03*
%TO.N,VBUS*%
X152069800Y-97536000D03*
X159258000Y-86487000D03*
X173863000Y-70612000D03*
X154559000Y-69342000D03*
X164084000Y-76835000D03*
X158115000Y-72263000D03*
X164338000Y-74041000D03*
%TO.N,b_select*%
X144399000Y-85090000D03*
X139827000Y-85090000D03*
%TO.N,Net-(JP1-A)*%
X160528000Y-80518000D03*
X163068000Y-80645000D03*
%TO.N,LDO_EN*%
X177927000Y-72517000D03*
X150749000Y-79502000D03*
%TO.N,ADC_BAT*%
X153289000Y-80518000D03*
X139954000Y-82550000D03*
%TO.N,100*%
X139065000Y-75565000D03*
X136525000Y-98425000D03*
%TO.N,GP13*%
X139700000Y-81280000D03*
%TO.N,GP17*%
X135128000Y-88646000D03*
%TO.N,GP18*%
X136398000Y-88646000D03*
%TO.N,GP21*%
X139700000Y-78359000D03*
%TO.N,GP34*%
X131191000Y-74676000D03*
%TO.N,GP33*%
X132588000Y-74676000D03*
%TO.N,TX*%
X127381000Y-75184000D03*
%TO.N,RX*%
X128651000Y-75184000D03*
%TO.N,GP42*%
X129921000Y-74676000D03*
%TO.N,Net-(J4-CC1)*%
X162306000Y-94107000D03*
X150640000Y-95834200D03*
%TO.N,Net-(J4-CC2)*%
X152349200Y-96088200D03*
X163195000Y-92456000D03*
%TD*%
D20*
%TO.N,VBAT*%
X150215000Y-81915000D02*
X155448000Y-81915000D01*
X179959000Y-79756000D02*
X179959000Y-71120000D01*
X155448000Y-81915000D02*
X157480000Y-83947000D01*
X157480000Y-83947000D02*
X175768000Y-83947000D01*
X143002000Y-90678000D02*
X143002000Y-89128000D01*
X175768000Y-83947000D02*
X178054000Y-81661000D01*
X143002000Y-89128000D02*
X150215000Y-81915000D01*
X127929000Y-96266000D02*
X137414000Y-96266000D01*
X137414000Y-96266000D02*
X143002000Y-90678000D01*
X178923000Y-97201000D02*
X181229000Y-94895000D01*
X178054000Y-81661000D02*
X179959000Y-79756000D01*
X155448000Y-81915000D02*
X155448000Y-79502000D01*
X155448000Y-79502000D02*
X156845000Y-78105000D01*
X181229000Y-94895000D02*
X181229000Y-84836000D01*
X126278000Y-97917000D02*
X127929000Y-96266000D01*
X181229000Y-84836000D02*
X178054000Y-81661000D01*
D21*
%TO.N,VBUS*%
X173863000Y-70612000D02*
X167767000Y-70612000D01*
X155194000Y-69342000D02*
X154559000Y-69342000D01*
X152069800Y-97536000D02*
X152620141Y-97536000D01*
X159258000Y-89271026D02*
X159258000Y-86487000D01*
X159258000Y-86487000D02*
X159258000Y-86614000D01*
X153981000Y-96175141D02*
X153981000Y-94548026D01*
X153981000Y-94548026D02*
X159258000Y-89271026D01*
X164084000Y-76835000D02*
X164084000Y-74295000D01*
X164084000Y-74295000D02*
X164338000Y-74041000D01*
X152620141Y-97536000D02*
X153981000Y-96175141D01*
X158115000Y-72263000D02*
X155194000Y-69342000D01*
X167767000Y-70612000D02*
X164338000Y-74041000D01*
X162560000Y-72263000D02*
X158115000Y-72263000D01*
X164338000Y-74041000D02*
X162560000Y-72263000D01*
%TD*%
%TA.AperFunction,Conductor*%
%TO.N,+3V3*%
G36*
X184558397Y-66120816D02*
G01*
X184822169Y-66139711D01*
X184822169Y-66139710D01*
X184875898Y-66143559D01*
X184875921Y-66143560D01*
X185257060Y-66170862D01*
X185274615Y-66173391D01*
X185954243Y-66321603D01*
X185971112Y-66326559D01*
X186622445Y-66569349D01*
X186622448Y-66569350D01*
X186638585Y-66576720D01*
X187248985Y-66910195D01*
X187263784Y-66919702D01*
X187745920Y-67280249D01*
X187820539Y-67336050D01*
X187833959Y-67347673D01*
X188326318Y-67840033D01*
X188337941Y-67853453D01*
X188754285Y-68410201D01*
X188763800Y-68425011D01*
X189097273Y-69035398D01*
X189104645Y-69051540D01*
X189347425Y-69702871D01*
X189352386Y-69719758D01*
X189500603Y-70399373D01*
X189503134Y-70416936D01*
X189553175Y-71115592D01*
X189553492Y-71124451D01*
X189553492Y-85617567D01*
X189553395Y-85622459D01*
X189505679Y-86831103D01*
X189504918Y-86840776D01*
X189363065Y-88040102D01*
X189361546Y-88049699D01*
X189126459Y-89233069D01*
X189124168Y-89242609D01*
X188795831Y-90405180D01*
X188792845Y-90414369D01*
X188375212Y-91547239D01*
X188371492Y-91556227D01*
X187866603Y-92652315D01*
X187862156Y-92661045D01*
X187271938Y-93714508D01*
X187266870Y-93722776D01*
X186596324Y-94726607D01*
X186590536Y-94734570D01*
X185842585Y-95681902D01*
X185836339Y-95689211D01*
X185016962Y-96576046D01*
X185010036Y-96582972D01*
X184821813Y-96756886D01*
X184821811Y-96756888D01*
X184123199Y-97402355D01*
X184115889Y-97408601D01*
X183168576Y-98156533D01*
X183160614Y-98162322D01*
X182156753Y-98832885D01*
X182148485Y-98837951D01*
X181095056Y-99428151D01*
X181086326Y-99432599D01*
X179990220Y-99937500D01*
X179981232Y-99941220D01*
X178848358Y-100358854D01*
X178839169Y-100361840D01*
X177676600Y-100690176D01*
X177667060Y-100692467D01*
X176483695Y-100927554D01*
X176474098Y-100929073D01*
X175274785Y-101070929D01*
X175265111Y-101071690D01*
X174056429Y-101119403D01*
X174051538Y-101119500D01*
X130056456Y-101119500D01*
X130051565Y-101119403D01*
X128842882Y-101071690D01*
X128833208Y-101070929D01*
X127633895Y-100929073D01*
X127624298Y-100927554D01*
X126440928Y-100692467D01*
X126431388Y-100690176D01*
X125268817Y-100361838D01*
X125259628Y-100358852D01*
X124126758Y-99941220D01*
X124117770Y-99937500D01*
X123827776Y-99803920D01*
X146819499Y-99803920D01*
X146848340Y-99948907D01*
X146848343Y-99948917D01*
X146904912Y-100085488D01*
X146904919Y-100085501D01*
X146987048Y-100208415D01*
X146987051Y-100208419D01*
X147091580Y-100312948D01*
X147091584Y-100312951D01*
X147214498Y-100395080D01*
X147214511Y-100395087D01*
X147351082Y-100451656D01*
X147351087Y-100451658D01*
X147351091Y-100451658D01*
X147351092Y-100451659D01*
X147496079Y-100480500D01*
X147496082Y-100480500D01*
X147643920Y-100480500D01*
X147741462Y-100461096D01*
X147788913Y-100451658D01*
X147925495Y-100395084D01*
X148048416Y-100312951D01*
X148152951Y-100208416D01*
X148235084Y-100085495D01*
X148291658Y-99948913D01*
X148320500Y-99803920D01*
X155459499Y-99803920D01*
X155488340Y-99948907D01*
X155488343Y-99948917D01*
X155544912Y-100085488D01*
X155544919Y-100085501D01*
X155627048Y-100208415D01*
X155627051Y-100208419D01*
X155731580Y-100312948D01*
X155731584Y-100312951D01*
X155854498Y-100395080D01*
X155854511Y-100395087D01*
X155991082Y-100451656D01*
X155991087Y-100451658D01*
X155991091Y-100451658D01*
X155991092Y-100451659D01*
X156136079Y-100480500D01*
X156136082Y-100480500D01*
X156283920Y-100480500D01*
X156381462Y-100461096D01*
X156428913Y-100451658D01*
X156565495Y-100395084D01*
X156688416Y-100312951D01*
X156792951Y-100208416D01*
X156875084Y-100085495D01*
X156931658Y-99948913D01*
X156960500Y-99803918D01*
X156960500Y-99632071D01*
X162163499Y-99632071D01*
X162188497Y-99757738D01*
X162188499Y-99757744D01*
X162237533Y-99876124D01*
X162237538Y-99876133D01*
X162308723Y-99982668D01*
X162308726Y-99982672D01*
X162399327Y-100073273D01*
X162399331Y-100073276D01*
X162505866Y-100144461D01*
X162505872Y-100144464D01*
X162505873Y-100144465D01*
X162624256Y-100193501D01*
X162624260Y-100193501D01*
X162624261Y-100193502D01*
X162749928Y-100218500D01*
X162749931Y-100218500D01*
X162878071Y-100218500D01*
X162962615Y-100201682D01*
X163003744Y-100193501D01*
X163122127Y-100144465D01*
X163228669Y-100073276D01*
X163319276Y-99982669D01*
X163390465Y-99876127D01*
X163439501Y-99757744D01*
X163464500Y-99632069D01*
X163464500Y-99503931D01*
X163464500Y-99503928D01*
X163439502Y-99378261D01*
X163439501Y-99378260D01*
X163439501Y-99378256D01*
X163390465Y-99259873D01*
X163390464Y-99259872D01*
X163390461Y-99259866D01*
X163319276Y-99153331D01*
X163319273Y-99153327D01*
X163228672Y-99062726D01*
X163228668Y-99062723D01*
X163122133Y-98991538D01*
X163122124Y-98991533D01*
X163003744Y-98942499D01*
X163003738Y-98942497D01*
X162878071Y-98917500D01*
X162878069Y-98917500D01*
X162749931Y-98917500D01*
X162749929Y-98917500D01*
X162624261Y-98942497D01*
X162624255Y-98942499D01*
X162505875Y-98991533D01*
X162505866Y-98991538D01*
X162399331Y-99062723D01*
X162399327Y-99062726D01*
X162308726Y-99153327D01*
X162308723Y-99153331D01*
X162237538Y-99259866D01*
X162237533Y-99259875D01*
X162188499Y-99378255D01*
X162188497Y-99378261D01*
X162163500Y-99503928D01*
X162163500Y-99503931D01*
X162163500Y-99632069D01*
X162163500Y-99632071D01*
X162163499Y-99632071D01*
X156960500Y-99632071D01*
X156960500Y-99056082D01*
X156960500Y-99056079D01*
X156931659Y-98911092D01*
X156931658Y-98911091D01*
X156931658Y-98911087D01*
X156902076Y-98839669D01*
X156875087Y-98774511D01*
X156875080Y-98774498D01*
X156792951Y-98651584D01*
X156792948Y-98651580D01*
X156688419Y-98547051D01*
X156688415Y-98547048D01*
X156565501Y-98464919D01*
X156565488Y-98464912D01*
X156428917Y-98408343D01*
X156428907Y-98408340D01*
X156283920Y-98379500D01*
X156283918Y-98379500D01*
X156136082Y-98379500D01*
X156136080Y-98379500D01*
X155991092Y-98408340D01*
X155991082Y-98408343D01*
X155854511Y-98464912D01*
X155854498Y-98464919D01*
X155731584Y-98547048D01*
X155731580Y-98547051D01*
X155627051Y-98651580D01*
X155627048Y-98651584D01*
X155544919Y-98774498D01*
X155544912Y-98774511D01*
X155488343Y-98911082D01*
X155488340Y-98911092D01*
X155459500Y-99056079D01*
X155459500Y-99056082D01*
X155459500Y-99803918D01*
X155459500Y-99803920D01*
X155459499Y-99803920D01*
X148320500Y-99803920D01*
X148320500Y-99803918D01*
X148320500Y-99056082D01*
X148320500Y-99056079D01*
X148291659Y-98911092D01*
X148291658Y-98911091D01*
X148291658Y-98911087D01*
X148262076Y-98839669D01*
X148235087Y-98774511D01*
X148235080Y-98774498D01*
X148152951Y-98651584D01*
X148152948Y-98651580D01*
X148048419Y-98547051D01*
X148048415Y-98547048D01*
X147925501Y-98464919D01*
X147925488Y-98464912D01*
X147788917Y-98408343D01*
X147788907Y-98408340D01*
X147643920Y-98379500D01*
X147643918Y-98379500D01*
X147496082Y-98379500D01*
X147496080Y-98379500D01*
X147351092Y-98408340D01*
X147351082Y-98408343D01*
X147214511Y-98464912D01*
X147214498Y-98464919D01*
X147091584Y-98547048D01*
X147091580Y-98547051D01*
X146987051Y-98651580D01*
X146987048Y-98651584D01*
X146904919Y-98774498D01*
X146904912Y-98774511D01*
X146848343Y-98911082D01*
X146848340Y-98911092D01*
X146819500Y-99056079D01*
X146819500Y-99056082D01*
X146819500Y-99803918D01*
X146819500Y-99803920D01*
X146819499Y-99803920D01*
X123827776Y-99803920D01*
X123021680Y-99432607D01*
X123012950Y-99428160D01*
X121959484Y-98837940D01*
X121951216Y-98832872D01*
X120947384Y-98162328D01*
X120939422Y-98156540D01*
X119992101Y-97408601D01*
X119984796Y-97402359D01*
X119984792Y-97402355D01*
X119976771Y-97394944D01*
X119940888Y-97334996D01*
X119938230Y-97285881D01*
X119962686Y-97119135D01*
X125177500Y-97119135D01*
X125177500Y-98714870D01*
X125177501Y-98714876D01*
X125183908Y-98774483D01*
X125234202Y-98909328D01*
X125234206Y-98909335D01*
X125320452Y-99024544D01*
X125320455Y-99024547D01*
X125435664Y-99110793D01*
X125435671Y-99110797D01*
X125570517Y-99161091D01*
X125570516Y-99161091D01*
X125577444Y-99161835D01*
X125630127Y-99167500D01*
X126925872Y-99167499D01*
X126985483Y-99161091D01*
X127120331Y-99110796D01*
X127235546Y-99024546D01*
X127321796Y-98909331D01*
X127372091Y-98774483D01*
X127378500Y-98714873D01*
X127378499Y-97575675D01*
X127398184Y-97508637D01*
X127414812Y-97488000D01*
X127493289Y-97409523D01*
X127554608Y-97376041D01*
X127624300Y-97381025D01*
X127680234Y-97422896D01*
X127704651Y-97488360D01*
X127703440Y-97516604D01*
X127688854Y-97608701D01*
X127677500Y-97680389D01*
X127677500Y-98153611D01*
X127704598Y-98324701D01*
X127758127Y-98489445D01*
X127836768Y-98643788D01*
X127938586Y-98783928D01*
X128061072Y-98906414D01*
X128201212Y-99008232D01*
X128355555Y-99086873D01*
X128520299Y-99140402D01*
X128691389Y-99167500D01*
X128691390Y-99167500D01*
X128864610Y-99167500D01*
X128864611Y-99167500D01*
X129035701Y-99140402D01*
X129200445Y-99086873D01*
X129354788Y-99008232D01*
X129494928Y-98906414D01*
X129617414Y-98783928D01*
X129719232Y-98643788D01*
X129797873Y-98489445D01*
X129797995Y-98489071D01*
X135874499Y-98489071D01*
X135899497Y-98614738D01*
X135899499Y-98614744D01*
X135948533Y-98733124D01*
X135948538Y-98733133D01*
X136019723Y-98839668D01*
X136019726Y-98839672D01*
X136110327Y-98930273D01*
X136110331Y-98930276D01*
X136216866Y-99001461D01*
X136216875Y-99001466D01*
X136233210Y-99008232D01*
X136335256Y-99050501D01*
X136335260Y-99050501D01*
X136335261Y-99050502D01*
X136460928Y-99075500D01*
X136460931Y-99075500D01*
X136589071Y-99075500D01*
X136686702Y-99056079D01*
X136714744Y-99050501D01*
X136833127Y-99001465D01*
X136847991Y-98991533D01*
X136914808Y-98946888D01*
X136924563Y-98940369D01*
X136939669Y-98930276D01*
X137030276Y-98839669D01*
X137101465Y-98733127D01*
X137150501Y-98614744D01*
X137175425Y-98489447D01*
X137175500Y-98489071D01*
X137175500Y-98360928D01*
X137150502Y-98235261D01*
X137150501Y-98235260D01*
X137150501Y-98235256D01*
X137101465Y-98116873D01*
X137101464Y-98116872D01*
X137101461Y-98116866D01*
X137030276Y-98010331D01*
X137030273Y-98010327D01*
X136939672Y-97919726D01*
X136939668Y-97919723D01*
X136833133Y-97848538D01*
X136833124Y-97848533D01*
X136714744Y-97799499D01*
X136714738Y-97799497D01*
X136589071Y-97774500D01*
X136589069Y-97774500D01*
X136460931Y-97774500D01*
X136460929Y-97774500D01*
X136335261Y-97799497D01*
X136335255Y-97799499D01*
X136216875Y-97848533D01*
X136216866Y-97848538D01*
X136110331Y-97919723D01*
X136110327Y-97919726D01*
X136019726Y-98010327D01*
X136019723Y-98010331D01*
X135948538Y-98116866D01*
X135948533Y-98116875D01*
X135899499Y-98235255D01*
X135899497Y-98235261D01*
X135874500Y-98360928D01*
X135874500Y-98360931D01*
X135874500Y-98489069D01*
X135874500Y-98489071D01*
X135874499Y-98489071D01*
X129797995Y-98489071D01*
X129851402Y-98324701D01*
X129878500Y-98153611D01*
X129878500Y-97680389D01*
X129851402Y-97509299D01*
X129797873Y-97344555D01*
X129719232Y-97190212D01*
X129617414Y-97050072D01*
X129545523Y-96978181D01*
X129512038Y-96916858D01*
X129517022Y-96847166D01*
X129558894Y-96791233D01*
X129624358Y-96766816D01*
X129633204Y-96766500D01*
X137479890Y-96766500D01*
X137479892Y-96766500D01*
X137607186Y-96732392D01*
X137721314Y-96666500D01*
X138513893Y-95873920D01*
X146819499Y-95873920D01*
X146848340Y-96018907D01*
X146848343Y-96018917D01*
X146904912Y-96155488D01*
X146904919Y-96155501D01*
X146987048Y-96278415D01*
X146987051Y-96278419D01*
X147091580Y-96382948D01*
X147091584Y-96382951D01*
X147214498Y-96465080D01*
X147214511Y-96465087D01*
X147305726Y-96502869D01*
X147351087Y-96521658D01*
X147351091Y-96521658D01*
X147351092Y-96521659D01*
X147496079Y-96550500D01*
X147496082Y-96550500D01*
X147643920Y-96550500D01*
X147741462Y-96531096D01*
X147788913Y-96521658D01*
X147925495Y-96465084D01*
X148048416Y-96382951D01*
X148152951Y-96278416D01*
X148235084Y-96155495D01*
X148235086Y-96155491D01*
X148235087Y-96155489D01*
X148271356Y-96067926D01*
X148315196Y-96013522D01*
X148381490Y-95991457D01*
X148449190Y-96008736D01*
X148493304Y-96053378D01*
X148539482Y-96133361D01*
X148539484Y-96133363D01*
X148539485Y-96133365D01*
X148646635Y-96240515D01*
X148777865Y-96316281D01*
X148924234Y-96355500D01*
X148924236Y-96355500D01*
X149075764Y-96355500D01*
X149075766Y-96355500D01*
X149222135Y-96316281D01*
X149353365Y-96240515D01*
X149460515Y-96133365D01*
X149536281Y-96002135D01*
X149564111Y-95898271D01*
X149989499Y-95898271D01*
X150014497Y-96023938D01*
X150014499Y-96023944D01*
X150063533Y-96142324D01*
X150063538Y-96142333D01*
X150134723Y-96248868D01*
X150134726Y-96248872D01*
X150225327Y-96339473D01*
X150225331Y-96339476D01*
X150331866Y-96410661D01*
X150331872Y-96410664D01*
X150331873Y-96410665D01*
X150450256Y-96459701D01*
X150450260Y-96459701D01*
X150450261Y-96459702D01*
X150575928Y-96484700D01*
X150575931Y-96484700D01*
X150704071Y-96484700D01*
X150802667Y-96465087D01*
X150829744Y-96459701D01*
X150948127Y-96410665D01*
X151054669Y-96339476D01*
X151145276Y-96248869D01*
X151216465Y-96142327D01*
X151265501Y-96023944D01*
X151276581Y-95968241D01*
X151290500Y-95898271D01*
X151290500Y-95770128D01*
X151265502Y-95644461D01*
X151265501Y-95644460D01*
X151265501Y-95644456D01*
X151216465Y-95526073D01*
X151216464Y-95526072D01*
X151216461Y-95526066D01*
X151145276Y-95419531D01*
X151145273Y-95419527D01*
X151054672Y-95328926D01*
X151054668Y-95328923D01*
X150948133Y-95257738D01*
X150948124Y-95257733D01*
X150829744Y-95208699D01*
X150829738Y-95208697D01*
X150704071Y-95183700D01*
X150704069Y-95183700D01*
X150575931Y-95183700D01*
X150575929Y-95183700D01*
X150450261Y-95208697D01*
X150450255Y-95208699D01*
X150331875Y-95257733D01*
X150331866Y-95257738D01*
X150225331Y-95328923D01*
X150225327Y-95328926D01*
X150134726Y-95419527D01*
X150134723Y-95419531D01*
X150063538Y-95526066D01*
X150063533Y-95526075D01*
X150014499Y-95644455D01*
X150014497Y-95644461D01*
X149989500Y-95770128D01*
X149989500Y-95770131D01*
X149989500Y-95898269D01*
X149989500Y-95898271D01*
X149989499Y-95898271D01*
X149564111Y-95898271D01*
X149575500Y-95855766D01*
X149575500Y-95704234D01*
X149536281Y-95557865D01*
X149460515Y-95426635D01*
X149353365Y-95319485D01*
X149287750Y-95281602D01*
X149222136Y-95243719D01*
X149148950Y-95224109D01*
X149075766Y-95204500D01*
X148924234Y-95204500D01*
X148777863Y-95243719D01*
X148646635Y-95319485D01*
X148646632Y-95319487D01*
X148533738Y-95432382D01*
X148531719Y-95430363D01*
X148486445Y-95463420D01*
X148416698Y-95467573D01*
X148355779Y-95433359D01*
X148323028Y-95371641D01*
X148320500Y-95346730D01*
X148320500Y-94626079D01*
X148291659Y-94481092D01*
X148291658Y-94481091D01*
X148291658Y-94481087D01*
X148266164Y-94419538D01*
X148235087Y-94344511D01*
X148235080Y-94344498D01*
X148152951Y-94221584D01*
X148152948Y-94221580D01*
X148048419Y-94117051D01*
X148048415Y-94117048D01*
X147925501Y-94034919D01*
X147925488Y-94034912D01*
X147788917Y-93978343D01*
X147788907Y-93978340D01*
X147643920Y-93949500D01*
X147643918Y-93949500D01*
X147496082Y-93949500D01*
X147496080Y-93949500D01*
X147351092Y-93978340D01*
X147351082Y-93978343D01*
X147214511Y-94034912D01*
X147214498Y-94034919D01*
X147091584Y-94117048D01*
X147091580Y-94117051D01*
X146987051Y-94221580D01*
X146987048Y-94221584D01*
X146904919Y-94344498D01*
X146904912Y-94344511D01*
X146848343Y-94481082D01*
X146848340Y-94481092D01*
X146819500Y-94626079D01*
X146819500Y-94626082D01*
X146819500Y-95873918D01*
X146819500Y-95873920D01*
X146819499Y-95873920D01*
X138513893Y-95873920D01*
X139355343Y-95032469D01*
X139416664Y-94998986D01*
X139486355Y-95003970D01*
X139542289Y-95045842D01*
X139564639Y-95095960D01*
X139582497Y-95185738D01*
X139582498Y-95185742D01*
X139582499Y-95185744D01*
X139592007Y-95208699D01*
X139631533Y-95304124D01*
X139631538Y-95304133D01*
X139702723Y-95410668D01*
X139702726Y-95410672D01*
X139793327Y-95501273D01*
X139793331Y-95501276D01*
X139899866Y-95572461D01*
X139899872Y-95572464D01*
X139899873Y-95572465D01*
X140018256Y-95621501D01*
X140018260Y-95621501D01*
X140018261Y-95621502D01*
X140143928Y-95646500D01*
X140143931Y-95646500D01*
X140272071Y-95646500D01*
X140356615Y-95629682D01*
X140397744Y-95621501D01*
X140516127Y-95572465D01*
X140622669Y-95501276D01*
X140713276Y-95410669D01*
X140784465Y-95304127D01*
X140833501Y-95185744D01*
X140858500Y-95060069D01*
X140858500Y-94931931D01*
X140858500Y-94931928D01*
X140833502Y-94806261D01*
X140833501Y-94806260D01*
X140833501Y-94806256D01*
X140790881Y-94703362D01*
X140784466Y-94687875D01*
X140784462Y-94687868D01*
X140713276Y-94581331D01*
X140713273Y-94581327D01*
X140622672Y-94490726D01*
X140622668Y-94490723D01*
X140516133Y-94419538D01*
X140516124Y-94419533D01*
X140397744Y-94370499D01*
X140397738Y-94370497D01*
X140307960Y-94352639D01*
X140246049Y-94320254D01*
X140211475Y-94259538D01*
X140215216Y-94189768D01*
X140244469Y-94143343D01*
X143402499Y-90985315D01*
X143468392Y-90871186D01*
X143502500Y-90743893D01*
X143502500Y-90612108D01*
X143502500Y-89386676D01*
X143522185Y-89319637D01*
X143538819Y-89298995D01*
X144531819Y-88305995D01*
X144593142Y-88272510D01*
X144662834Y-88277494D01*
X144718767Y-88319366D01*
X144743184Y-88384830D01*
X144743500Y-88393676D01*
X144743500Y-89726678D01*
X144758032Y-89799735D01*
X144758033Y-89799739D01*
X144775245Y-89825499D01*
X144813399Y-89882601D01*
X144892930Y-89935741D01*
X144896260Y-89937966D01*
X144896264Y-89937967D01*
X144969321Y-89952499D01*
X144969324Y-89952500D01*
X144969326Y-89952500D01*
X146368676Y-89952500D01*
X146368677Y-89952499D01*
X146441740Y-89937966D01*
X146524601Y-89882601D01*
X146576312Y-89805207D01*
X146629922Y-89760403D01*
X146699247Y-89751694D01*
X146762275Y-89781848D01*
X146769290Y-89789040D01*
X146769315Y-89789016D01*
X146903540Y-89923241D01*
X146903545Y-89923245D01*
X147053162Y-90031947D01*
X147217956Y-90115915D01*
X147217959Y-90115916D01*
X147393845Y-90173064D01*
X147393858Y-90173067D01*
X147419000Y-90177049D01*
X147419000Y-89342686D01*
X147423394Y-89347080D01*
X147514606Y-89399741D01*
X147616339Y-89427000D01*
X147721661Y-89427000D01*
X147823394Y-89399741D01*
X147914606Y-89347080D01*
X147919000Y-89342686D01*
X147919000Y-90177048D01*
X147944141Y-90173067D01*
X147944154Y-90173064D01*
X148120040Y-90115916D01*
X148120043Y-90115915D01*
X148284837Y-90031947D01*
X148434454Y-89923245D01*
X148434459Y-89923241D01*
X148565241Y-89792459D01*
X148565245Y-89792454D01*
X148673949Y-89642835D01*
X148704859Y-89582171D01*
X148752833Y-89531375D01*
X148820653Y-89514579D01*
X148886789Y-89537116D01*
X148918446Y-89569574D01*
X148950116Y-89616971D01*
X148950119Y-89616975D01*
X149079024Y-89745880D01*
X149079032Y-89745886D01*
X149230608Y-89847166D01*
X149230612Y-89847168D01*
X149359369Y-89900500D01*
X149399042Y-89916933D01*
X149399046Y-89916933D01*
X149399047Y-89916934D01*
X149577843Y-89952500D01*
X149577846Y-89952500D01*
X149760156Y-89952500D01*
X149889510Y-89926769D01*
X149938958Y-89916933D01*
X150107389Y-89847167D01*
X150107391Y-89847166D01*
X150188904Y-89792701D01*
X150258972Y-89745883D01*
X150387883Y-89616972D01*
X150455460Y-89515835D01*
X150489166Y-89465391D01*
X150489168Y-89465387D01*
X150554439Y-89307808D01*
X150598280Y-89253404D01*
X150664574Y-89231339D01*
X150732273Y-89248618D01*
X150779884Y-89299755D01*
X150783561Y-89307808D01*
X150848831Y-89465387D01*
X150848833Y-89465391D01*
X150950113Y-89616967D01*
X150950119Y-89616975D01*
X151079024Y-89745880D01*
X151079032Y-89745886D01*
X151230608Y-89847166D01*
X151230612Y-89847168D01*
X151359369Y-89900500D01*
X151399042Y-89916933D01*
X151399046Y-89916933D01*
X151399047Y-89916934D01*
X151577843Y-89952500D01*
X151577846Y-89952500D01*
X151760156Y-89952500D01*
X151889510Y-89926769D01*
X151938958Y-89916933D01*
X152107389Y-89847167D01*
X152107391Y-89847166D01*
X152188904Y-89792701D01*
X152258972Y-89745883D01*
X152387883Y-89616972D01*
X152455460Y-89515835D01*
X152489166Y-89465391D01*
X152489168Y-89465387D01*
X152554439Y-89307808D01*
X152598280Y-89253404D01*
X152664574Y-89231339D01*
X152732273Y-89248618D01*
X152779884Y-89299755D01*
X152783561Y-89307808D01*
X152848831Y-89465387D01*
X152848833Y-89465391D01*
X152950113Y-89616967D01*
X152950119Y-89616975D01*
X153079024Y-89745880D01*
X153079032Y-89745886D01*
X153230608Y-89847166D01*
X153230612Y-89847168D01*
X153359369Y-89900500D01*
X153399042Y-89916933D01*
X153399046Y-89916933D01*
X153399047Y-89916934D01*
X153577843Y-89952500D01*
X153577846Y-89952500D01*
X153760156Y-89952500D01*
X153889510Y-89926769D01*
X153938958Y-89916933D01*
X154107389Y-89847167D01*
X154107391Y-89847166D01*
X154188904Y-89792701D01*
X154258972Y-89745883D01*
X154387883Y-89616972D01*
X154455460Y-89515835D01*
X154489166Y-89465391D01*
X154489168Y-89465387D01*
X154554439Y-89307808D01*
X154598280Y-89253404D01*
X154664574Y-89231339D01*
X154732273Y-89248618D01*
X154779884Y-89299755D01*
X154783561Y-89307808D01*
X154848831Y-89465387D01*
X154848833Y-89465391D01*
X154950113Y-89616967D01*
X154950119Y-89616975D01*
X155079028Y-89745884D01*
X155082073Y-89748383D01*
X155083239Y-89750095D01*
X155083335Y-89750191D01*
X155083316Y-89750209D01*
X155121409Y-89806128D01*
X155123280Y-89875972D01*
X155087094Y-89935741D01*
X155050865Y-89958797D01*
X155012878Y-89974532D01*
X155012866Y-89974538D01*
X154906331Y-90045723D01*
X154906327Y-90045726D01*
X154815726Y-90136327D01*
X154815723Y-90136331D01*
X154744538Y-90242866D01*
X154744533Y-90242875D01*
X154695499Y-90361255D01*
X154695497Y-90361261D01*
X154670500Y-90486928D01*
X154670500Y-90486931D01*
X154670500Y-90615069D01*
X154670500Y-90615071D01*
X154670499Y-90615071D01*
X154695497Y-90740738D01*
X154695499Y-90740744D01*
X154744533Y-90859124D01*
X154744538Y-90859133D01*
X154815723Y-90965668D01*
X154815726Y-90965672D01*
X154906327Y-91056273D01*
X154906331Y-91056276D01*
X155009804Y-91125415D01*
X155054609Y-91179027D01*
X155063316Y-91248352D01*
X155044016Y-91297407D01*
X154989251Y-91379368D01*
X154989247Y-91379375D01*
X154940213Y-91497755D01*
X154940211Y-91497761D01*
X154915214Y-91623428D01*
X154915214Y-91623431D01*
X154915214Y-91751569D01*
X154915214Y-91751571D01*
X154915213Y-91751571D01*
X154940211Y-91877238D01*
X154940213Y-91877244D01*
X154989247Y-91995624D01*
X154989252Y-91995633D01*
X155060437Y-92102168D01*
X155060440Y-92102172D01*
X155151041Y-92192773D01*
X155151045Y-92192776D01*
X155257580Y-92263961D01*
X155257589Y-92263966D01*
X155263118Y-92266256D01*
X155375970Y-92313001D01*
X155393110Y-92316410D01*
X155406187Y-92319012D01*
X155468098Y-92351397D01*
X155502672Y-92412112D01*
X155498933Y-92481882D01*
X155469677Y-92528310D01*
X153750438Y-94247551D01*
X153680526Y-94317462D01*
X153631091Y-94403085D01*
X153631091Y-94403086D01*
X153631090Y-94403088D01*
X153605500Y-94498591D01*
X153605500Y-94498593D01*
X153605500Y-95968241D01*
X153585815Y-96035280D01*
X153569181Y-96055922D01*
X153152135Y-96472967D01*
X153090812Y-96506452D01*
X153021120Y-96501468D01*
X152965187Y-96459596D01*
X152940770Y-96394132D01*
X152949894Y-96337832D01*
X152951452Y-96334072D01*
X152974504Y-96278419D01*
X152974699Y-96277949D01*
X152974699Y-96277948D01*
X152974701Y-96277944D01*
X152985317Y-96224576D01*
X152999700Y-96152271D01*
X152999700Y-96024128D01*
X152974702Y-95898461D01*
X152974701Y-95898460D01*
X152974701Y-95898456D01*
X152925665Y-95780073D01*
X152925664Y-95780072D01*
X152925661Y-95780066D01*
X152854476Y-95673531D01*
X152854473Y-95673527D01*
X152763872Y-95582926D01*
X152763868Y-95582923D01*
X152657333Y-95511738D01*
X152657324Y-95511733D01*
X152538944Y-95462699D01*
X152538938Y-95462697D01*
X152413271Y-95437700D01*
X152413269Y-95437700D01*
X152285131Y-95437700D01*
X152285129Y-95437700D01*
X152159461Y-95462697D01*
X152159455Y-95462699D01*
X152041075Y-95511733D01*
X152041066Y-95511738D01*
X151934531Y-95582923D01*
X151934527Y-95582926D01*
X151843926Y-95673527D01*
X151843923Y-95673531D01*
X151772738Y-95780066D01*
X151772733Y-95780075D01*
X151723699Y-95898455D01*
X151723697Y-95898461D01*
X151698700Y-96024128D01*
X151698700Y-96024131D01*
X151698700Y-96152269D01*
X151698700Y-96152271D01*
X151698699Y-96152271D01*
X151723697Y-96277938D01*
X151723699Y-96277944D01*
X151772733Y-96396324D01*
X151772738Y-96396333D01*
X151843923Y-96502868D01*
X151843926Y-96502872D01*
X151934527Y-96593473D01*
X151934531Y-96593476D01*
X152038738Y-96663106D01*
X152083543Y-96716719D01*
X152092250Y-96786044D01*
X152062095Y-96849071D01*
X152002652Y-96885790D01*
X151994039Y-96887825D01*
X151880061Y-96910497D01*
X151880055Y-96910499D01*
X151761675Y-96959533D01*
X151761666Y-96959538D01*
X151655131Y-97030723D01*
X151655127Y-97030726D01*
X151564526Y-97121327D01*
X151564523Y-97121331D01*
X151493338Y-97227866D01*
X151493333Y-97227875D01*
X151444299Y-97346255D01*
X151444297Y-97346261D01*
X151419300Y-97471928D01*
X151419300Y-97471931D01*
X151419300Y-97600069D01*
X151419300Y-97600071D01*
X151419299Y-97600071D01*
X151444297Y-97725738D01*
X151444299Y-97725744D01*
X151493333Y-97844124D01*
X151493338Y-97844133D01*
X151564523Y-97950668D01*
X151564526Y-97950672D01*
X151655127Y-98041273D01*
X151655131Y-98041276D01*
X151761666Y-98112461D01*
X151761675Y-98112466D01*
X151788492Y-98123574D01*
X151880056Y-98161501D01*
X151880060Y-98161501D01*
X151880061Y-98161502D01*
X152005728Y-98186500D01*
X152005731Y-98186500D01*
X152133871Y-98186500D01*
X152218415Y-98169682D01*
X152259544Y-98161501D01*
X152377927Y-98112465D01*
X152484469Y-98041276D01*
X152526881Y-97998864D01*
X152577927Y-97947819D01*
X152639250Y-97914334D01*
X152665608Y-97911500D01*
X152669575Y-97911500D01*
X152669577Y-97911500D01*
X152715825Y-97899107D01*
X152725599Y-97896489D01*
X152738758Y-97892962D01*
X152765079Y-97885910D01*
X152850703Y-97836475D01*
X152920616Y-97766562D01*
X153722789Y-96964389D01*
X175322500Y-96964389D01*
X175322500Y-97437610D01*
X175349597Y-97608697D01*
X175403128Y-97773447D01*
X175473468Y-97911499D01*
X175481768Y-97927788D01*
X175583586Y-98067928D01*
X175706072Y-98190414D01*
X175846212Y-98292232D01*
X176000555Y-98370873D01*
X176165299Y-98424402D01*
X176336389Y-98451500D01*
X176336390Y-98451500D01*
X176509610Y-98451500D01*
X176509611Y-98451500D01*
X176680701Y-98424402D01*
X176845445Y-98370873D01*
X176999788Y-98292232D01*
X177139928Y-98190414D01*
X177262414Y-98067928D01*
X177364232Y-97927788D01*
X177442873Y-97773445D01*
X177496402Y-97608701D01*
X177523500Y-97437611D01*
X177523500Y-96964389D01*
X177496402Y-96793299D01*
X177442873Y-96628555D01*
X177364232Y-96474212D01*
X177262414Y-96334072D01*
X177139928Y-96211586D01*
X176999788Y-96109768D01*
X176845445Y-96031127D01*
X176680701Y-95977598D01*
X176680699Y-95977597D01*
X176680698Y-95977597D01*
X176549271Y-95956781D01*
X176509611Y-95950500D01*
X176336389Y-95950500D01*
X176296728Y-95956781D01*
X176165302Y-95977597D01*
X176000552Y-96031128D01*
X175846211Y-96109768D01*
X175783280Y-96155491D01*
X175706072Y-96211586D01*
X175706070Y-96211588D01*
X175706069Y-96211588D01*
X175583588Y-96334069D01*
X175583588Y-96334070D01*
X175583586Y-96334072D01*
X175568018Y-96355500D01*
X175481768Y-96474211D01*
X175403128Y-96628552D01*
X175403127Y-96628554D01*
X175403127Y-96628555D01*
X175388716Y-96672908D01*
X175349597Y-96793302D01*
X175322500Y-96964389D01*
X153722789Y-96964389D01*
X154281474Y-96405704D01*
X154281475Y-96405703D01*
X154327294Y-96326341D01*
X154377860Y-96278127D01*
X154446467Y-96264904D01*
X154496680Y-96280955D01*
X154557865Y-96316281D01*
X154704234Y-96355500D01*
X154704236Y-96355500D01*
X154855764Y-96355500D01*
X154855766Y-96355500D01*
X155002135Y-96316281D01*
X155133365Y-96240515D01*
X155240515Y-96133365D01*
X155286696Y-96053376D01*
X155337261Y-96005163D01*
X155405868Y-95991939D01*
X155470733Y-96017907D01*
X155508643Y-96067925D01*
X155544914Y-96155491D01*
X155544919Y-96155501D01*
X155627048Y-96278415D01*
X155627051Y-96278419D01*
X155731580Y-96382948D01*
X155731584Y-96382951D01*
X155854498Y-96465080D01*
X155854511Y-96465087D01*
X155945726Y-96502869D01*
X155991087Y-96521658D01*
X155991091Y-96521658D01*
X155991092Y-96521659D01*
X156136079Y-96550500D01*
X156136082Y-96550500D01*
X156283920Y-96550500D01*
X156381462Y-96531096D01*
X156428913Y-96521658D01*
X156565495Y-96465084D01*
X156688416Y-96382951D01*
X156792951Y-96278416D01*
X156875084Y-96155495D01*
X156876420Y-96152271D01*
X156911356Y-96067926D01*
X156931658Y-96018913D01*
X156960500Y-95873918D01*
X156960500Y-94626082D01*
X156960500Y-94626079D01*
X156931659Y-94481092D01*
X156931658Y-94481091D01*
X156931658Y-94481087D01*
X156906164Y-94419538D01*
X156875087Y-94344511D01*
X156875080Y-94344498D01*
X156792951Y-94221584D01*
X156792948Y-94221580D01*
X156742439Y-94171071D01*
X161655499Y-94171071D01*
X161680497Y-94296738D01*
X161680499Y-94296744D01*
X161729533Y-94415124D01*
X161729538Y-94415133D01*
X161800723Y-94521668D01*
X161800726Y-94521672D01*
X161891327Y-94612273D01*
X161891331Y-94612276D01*
X161997866Y-94683461D01*
X161997875Y-94683466D01*
X162008546Y-94687886D01*
X162116256Y-94732501D01*
X162116260Y-94732501D01*
X162116261Y-94732502D01*
X162241928Y-94757500D01*
X162241931Y-94757500D01*
X162370071Y-94757500D01*
X162454615Y-94740682D01*
X162495744Y-94732501D01*
X162614127Y-94683465D01*
X162720669Y-94612276D01*
X162811276Y-94521669D01*
X162882465Y-94415127D01*
X162931501Y-94296744D01*
X162946452Y-94221584D01*
X162956500Y-94171071D01*
X162956500Y-94042928D01*
X162931502Y-93917261D01*
X162931501Y-93917260D01*
X162931501Y-93917256D01*
X162882465Y-93798873D01*
X162882464Y-93798872D01*
X162882461Y-93798866D01*
X162811276Y-93692331D01*
X162811273Y-93692327D01*
X162720672Y-93601726D01*
X162720668Y-93601723D01*
X162614133Y-93530538D01*
X162614124Y-93530533D01*
X162495744Y-93481499D01*
X162495738Y-93481497D01*
X162370071Y-93456500D01*
X162370069Y-93456500D01*
X162241931Y-93456500D01*
X162241929Y-93456500D01*
X162116261Y-93481497D01*
X162116255Y-93481499D01*
X161997875Y-93530533D01*
X161997866Y-93530538D01*
X161891331Y-93601723D01*
X161891327Y-93601726D01*
X161800726Y-93692327D01*
X161800723Y-93692331D01*
X161729538Y-93798866D01*
X161729533Y-93798875D01*
X161680499Y-93917255D01*
X161680497Y-93917261D01*
X161655500Y-94042928D01*
X161655500Y-94042931D01*
X161655500Y-94171069D01*
X161655500Y-94171071D01*
X161655499Y-94171071D01*
X156742439Y-94171071D01*
X156688419Y-94117051D01*
X156688415Y-94117048D01*
X156565501Y-94034919D01*
X156565488Y-94034912D01*
X156428917Y-93978343D01*
X156428907Y-93978340D01*
X156283920Y-93949500D01*
X156283918Y-93949500D01*
X156136082Y-93949500D01*
X156136080Y-93949500D01*
X155991092Y-93978340D01*
X155991082Y-93978343D01*
X155854511Y-94034912D01*
X155854498Y-94034919D01*
X155731584Y-94117048D01*
X155731580Y-94117051D01*
X155627051Y-94221580D01*
X155627048Y-94221584D01*
X155544919Y-94344498D01*
X155544912Y-94344511D01*
X155488343Y-94481082D01*
X155488340Y-94481092D01*
X155459500Y-94626079D01*
X155459500Y-95346730D01*
X155439815Y-95413769D01*
X155387011Y-95459524D01*
X155317853Y-95469468D01*
X155254297Y-95440443D01*
X155246488Y-95432155D01*
X155246262Y-95432382D01*
X155133367Y-95319487D01*
X155133365Y-95319485D01*
X155067750Y-95281602D01*
X155002136Y-95243719D01*
X154928950Y-95224109D01*
X154855766Y-95204500D01*
X154704234Y-95204500D01*
X154557862Y-95243719D01*
X154542499Y-95252590D01*
X154474598Y-95269061D01*
X154408572Y-95246209D01*
X154365382Y-95191287D01*
X154356500Y-95145202D01*
X154356500Y-94754925D01*
X154376185Y-94687886D01*
X154392819Y-94667244D01*
X155777992Y-93282071D01*
X166227499Y-93282071D01*
X166252497Y-93407738D01*
X166252499Y-93407744D01*
X166301533Y-93526124D01*
X166301538Y-93526133D01*
X166372723Y-93632668D01*
X166372726Y-93632672D01*
X166463327Y-93723273D01*
X166463331Y-93723276D01*
X166569866Y-93794461D01*
X166569875Y-93794466D01*
X166596692Y-93805574D01*
X166688256Y-93843501D01*
X166688260Y-93843501D01*
X166688261Y-93843502D01*
X166813928Y-93868500D01*
X166813931Y-93868500D01*
X166942071Y-93868500D01*
X167026615Y-93851682D01*
X167067744Y-93843501D01*
X167186127Y-93794465D01*
X167292669Y-93723276D01*
X167383276Y-93632669D01*
X167454465Y-93526127D01*
X167503501Y-93407744D01*
X167515797Y-93345931D01*
X167528500Y-93282071D01*
X167528500Y-93153928D01*
X167503502Y-93028261D01*
X167503501Y-93028260D01*
X167503501Y-93028256D01*
X167454465Y-92909873D01*
X167454464Y-92909872D01*
X167454461Y-92909866D01*
X167383276Y-92803331D01*
X167383273Y-92803327D01*
X167292672Y-92712726D01*
X167292668Y-92712723D01*
X167186133Y-92641538D01*
X167186124Y-92641533D01*
X167067744Y-92592499D01*
X167067738Y-92592497D01*
X166942071Y-92567500D01*
X166942069Y-92567500D01*
X166813931Y-92567500D01*
X166813929Y-92567500D01*
X166688261Y-92592497D01*
X166688255Y-92592499D01*
X166569875Y-92641533D01*
X166569866Y-92641538D01*
X166463331Y-92712723D01*
X166463327Y-92712726D01*
X166372726Y-92803327D01*
X166372723Y-92803331D01*
X166301538Y-92909866D01*
X166301533Y-92909875D01*
X166252499Y-93028255D01*
X166252497Y-93028261D01*
X166227500Y-93153928D01*
X166227500Y-93153931D01*
X166227500Y-93282069D01*
X166227500Y-93282071D01*
X166227499Y-93282071D01*
X155777992Y-93282071D01*
X156539992Y-92520071D01*
X162544499Y-92520071D01*
X162569497Y-92645738D01*
X162569499Y-92645744D01*
X162618533Y-92764124D01*
X162618538Y-92764133D01*
X162689723Y-92870668D01*
X162689726Y-92870672D01*
X162780327Y-92961273D01*
X162780331Y-92961276D01*
X162886866Y-93032461D01*
X162886875Y-93032466D01*
X162913692Y-93043574D01*
X163005256Y-93081501D01*
X163005260Y-93081501D01*
X163005261Y-93081502D01*
X163130928Y-93106500D01*
X163130931Y-93106500D01*
X163259071Y-93106500D01*
X163343615Y-93089682D01*
X163384744Y-93081501D01*
X163422160Y-93066002D01*
X163501166Y-93033278D01*
X163501166Y-93033277D01*
X163502147Y-93032870D01*
X163503118Y-93032469D01*
X163503120Y-93032467D01*
X163503127Y-93032465D01*
X163609669Y-92961276D01*
X163700276Y-92870669D01*
X163771465Y-92764127D01*
X163820501Y-92645744D01*
X163836065Y-92567500D01*
X163845500Y-92520071D01*
X163845500Y-92391928D01*
X163820502Y-92266261D01*
X163820501Y-92266260D01*
X163820501Y-92266256D01*
X163782574Y-92174692D01*
X163771466Y-92147875D01*
X163771461Y-92147866D01*
X163700276Y-92041331D01*
X163700273Y-92041327D01*
X163609672Y-91950726D01*
X163609668Y-91950723D01*
X163503133Y-91879538D01*
X163503124Y-91879533D01*
X163467542Y-91864795D01*
X163467540Y-91864794D01*
X163384748Y-91830500D01*
X163384738Y-91830497D01*
X163259071Y-91805500D01*
X163259069Y-91805500D01*
X163130931Y-91805500D01*
X163130929Y-91805500D01*
X163005261Y-91830497D01*
X163005255Y-91830499D01*
X162886875Y-91879533D01*
X162886866Y-91879538D01*
X162780331Y-91950723D01*
X162780327Y-91950726D01*
X162689726Y-92041327D01*
X162689723Y-92041331D01*
X162618538Y-92147866D01*
X162618533Y-92147875D01*
X162569499Y-92266255D01*
X162569497Y-92266261D01*
X162544500Y-92391928D01*
X162544500Y-92391931D01*
X162544500Y-92520069D01*
X162544500Y-92520071D01*
X162544499Y-92520071D01*
X156539992Y-92520071D01*
X156761905Y-92298158D01*
X158118973Y-90941090D01*
X159558474Y-89501589D01*
X159565181Y-89489972D01*
X159607910Y-89415964D01*
X159633500Y-89320461D01*
X159633500Y-88200321D01*
X160364500Y-88200321D01*
X160364500Y-89599678D01*
X160379032Y-89672735D01*
X160379033Y-89672739D01*
X160379034Y-89672740D01*
X160434399Y-89755601D01*
X160500459Y-89799740D01*
X160517260Y-89810966D01*
X160517264Y-89810967D01*
X160590321Y-89825499D01*
X160590324Y-89825500D01*
X160590326Y-89825500D01*
X161989676Y-89825500D01*
X161989677Y-89825499D01*
X162062740Y-89810966D01*
X162145601Y-89755601D01*
X162197312Y-89678207D01*
X162250922Y-89633403D01*
X162320247Y-89624694D01*
X162383275Y-89654848D01*
X162390290Y-89662040D01*
X162390315Y-89662016D01*
X162524540Y-89796241D01*
X162524545Y-89796245D01*
X162674162Y-89904947D01*
X162838956Y-89988915D01*
X162838959Y-89988916D01*
X163014845Y-90046064D01*
X163014858Y-90046067D01*
X163040000Y-90050049D01*
X163040000Y-89215686D01*
X163044394Y-89220080D01*
X163135606Y-89272741D01*
X163237339Y-89300000D01*
X163342661Y-89300000D01*
X163444394Y-89272741D01*
X163535606Y-89220080D01*
X163540000Y-89215686D01*
X163540000Y-90050048D01*
X163565141Y-90046067D01*
X163565154Y-90046064D01*
X163741040Y-89988916D01*
X163741043Y-89988915D01*
X163905837Y-89904947D01*
X164055454Y-89796245D01*
X164055459Y-89796241D01*
X164186241Y-89665459D01*
X164186245Y-89665454D01*
X164294949Y-89515835D01*
X164325859Y-89455171D01*
X164373833Y-89404375D01*
X164441653Y-89387579D01*
X164507789Y-89410116D01*
X164539446Y-89442574D01*
X164571116Y-89489971D01*
X164571119Y-89489975D01*
X164700024Y-89618880D01*
X164700032Y-89618886D01*
X164851608Y-89720166D01*
X164851612Y-89720168D01*
X165000523Y-89781848D01*
X165020042Y-89789933D01*
X165020046Y-89789933D01*
X165020047Y-89789934D01*
X165198843Y-89825500D01*
X165198846Y-89825500D01*
X165381156Y-89825500D01*
X165528246Y-89796241D01*
X165559958Y-89789933D01*
X165728389Y-89720167D01*
X165728391Y-89720166D01*
X165815383Y-89662040D01*
X165879972Y-89618883D01*
X166008883Y-89489972D01*
X166070002Y-89398500D01*
X166110166Y-89338391D01*
X166110168Y-89338387D01*
X166175439Y-89180808D01*
X166219280Y-89126404D01*
X166285574Y-89104339D01*
X166353273Y-89121618D01*
X166400884Y-89172755D01*
X166404561Y-89180808D01*
X166469831Y-89338387D01*
X166469833Y-89338391D01*
X166571113Y-89489967D01*
X166571119Y-89489975D01*
X166700024Y-89618880D01*
X166700032Y-89618886D01*
X166851608Y-89720166D01*
X166851612Y-89720168D01*
X167000523Y-89781848D01*
X167020042Y-89789933D01*
X167020046Y-89789933D01*
X167020047Y-89789934D01*
X167198843Y-89825500D01*
X167198846Y-89825500D01*
X167381156Y-89825500D01*
X167528246Y-89796241D01*
X167559958Y-89789933D01*
X167728389Y-89720167D01*
X167728391Y-89720166D01*
X167815383Y-89662040D01*
X167879972Y-89618883D01*
X168008883Y-89489972D01*
X168070002Y-89398500D01*
X168110166Y-89338391D01*
X168110168Y-89338387D01*
X168175439Y-89180808D01*
X168219280Y-89126404D01*
X168285574Y-89104339D01*
X168353273Y-89121618D01*
X168400884Y-89172755D01*
X168404561Y-89180808D01*
X168469831Y-89338387D01*
X168469833Y-89338391D01*
X168571113Y-89489967D01*
X168571119Y-89489975D01*
X168700024Y-89618880D01*
X168700032Y-89618886D01*
X168851608Y-89720166D01*
X168851612Y-89720168D01*
X169000523Y-89781848D01*
X169020042Y-89789933D01*
X169020046Y-89789933D01*
X169020047Y-89789934D01*
X169198843Y-89825500D01*
X169198846Y-89825500D01*
X169381156Y-89825500D01*
X169528246Y-89796241D01*
X169559958Y-89789933D01*
X169728389Y-89720167D01*
X169728391Y-89720166D01*
X169815383Y-89662040D01*
X169879972Y-89618883D01*
X170008883Y-89489972D01*
X170070002Y-89398500D01*
X170110166Y-89338391D01*
X170110168Y-89338387D01*
X170175439Y-89180808D01*
X170219280Y-89126404D01*
X170285574Y-89104339D01*
X170353273Y-89121618D01*
X170400884Y-89172755D01*
X170404561Y-89180808D01*
X170469831Y-89338387D01*
X170469833Y-89338391D01*
X170571113Y-89489967D01*
X170571119Y-89489975D01*
X170700024Y-89618880D01*
X170700032Y-89618886D01*
X170851608Y-89720166D01*
X170851612Y-89720168D01*
X171000523Y-89781848D01*
X171020042Y-89789933D01*
X171020046Y-89789933D01*
X171020047Y-89789934D01*
X171198843Y-89825500D01*
X171198846Y-89825500D01*
X171381156Y-89825500D01*
X171528246Y-89796241D01*
X171559958Y-89789933D01*
X171728389Y-89720167D01*
X171728391Y-89720166D01*
X171815383Y-89662040D01*
X171879972Y-89618883D01*
X172008883Y-89489972D01*
X172070002Y-89398500D01*
X172110166Y-89338391D01*
X172110168Y-89338387D01*
X172175439Y-89180808D01*
X172219280Y-89126404D01*
X172285574Y-89104339D01*
X172353273Y-89121618D01*
X172400884Y-89172755D01*
X172404561Y-89180808D01*
X172469831Y-89338387D01*
X172469833Y-89338391D01*
X172571113Y-89489967D01*
X172571119Y-89489975D01*
X172700024Y-89618880D01*
X172700032Y-89618886D01*
X172851608Y-89720166D01*
X172851612Y-89720168D01*
X173000523Y-89781848D01*
X173020042Y-89789933D01*
X173020046Y-89789933D01*
X173020047Y-89789934D01*
X173198843Y-89825500D01*
X173198846Y-89825500D01*
X173381156Y-89825500D01*
X173528246Y-89796241D01*
X173559958Y-89789933D01*
X173728389Y-89720167D01*
X173728391Y-89720166D01*
X173815383Y-89662040D01*
X173879972Y-89618883D01*
X174008883Y-89489972D01*
X174070002Y-89398500D01*
X174110166Y-89338391D01*
X174110168Y-89338387D01*
X174175439Y-89180808D01*
X174219280Y-89126404D01*
X174285574Y-89104339D01*
X174353273Y-89121618D01*
X174400884Y-89172755D01*
X174404561Y-89180808D01*
X174469831Y-89338387D01*
X174469833Y-89338391D01*
X174571113Y-89489967D01*
X174571119Y-89489975D01*
X174700024Y-89618880D01*
X174700032Y-89618886D01*
X174851608Y-89720166D01*
X174851612Y-89720168D01*
X175000523Y-89781848D01*
X175020042Y-89789933D01*
X175020046Y-89789933D01*
X175020047Y-89789934D01*
X175198843Y-89825500D01*
X175198846Y-89825500D01*
X175381156Y-89825500D01*
X175528246Y-89796241D01*
X175559958Y-89789933D01*
X175728389Y-89720167D01*
X175728391Y-89720166D01*
X175815383Y-89662040D01*
X175879972Y-89618883D01*
X176008883Y-89489972D01*
X176070002Y-89398500D01*
X176110166Y-89338391D01*
X176110168Y-89338387D01*
X176175439Y-89180808D01*
X176219280Y-89126404D01*
X176285574Y-89104339D01*
X176353273Y-89121618D01*
X176400884Y-89172755D01*
X176404561Y-89180808D01*
X176469831Y-89338387D01*
X176469833Y-89338391D01*
X176571113Y-89489967D01*
X176571119Y-89489975D01*
X176700024Y-89618880D01*
X176700032Y-89618886D01*
X176851608Y-89720166D01*
X176851612Y-89720168D01*
X177000523Y-89781848D01*
X177020042Y-89789933D01*
X177020046Y-89789933D01*
X177020047Y-89789934D01*
X177198843Y-89825500D01*
X177198846Y-89825500D01*
X177381156Y-89825500D01*
X177528246Y-89796241D01*
X177559958Y-89789933D01*
X177728389Y-89720167D01*
X177728391Y-89720166D01*
X177815383Y-89662040D01*
X177879972Y-89618883D01*
X178008883Y-89489972D01*
X178070002Y-89398500D01*
X178110166Y-89338391D01*
X178110168Y-89338387D01*
X178175439Y-89180808D01*
X178219280Y-89126404D01*
X178285574Y-89104339D01*
X178353273Y-89121618D01*
X178400884Y-89172755D01*
X178404561Y-89180808D01*
X178469831Y-89338387D01*
X178469833Y-89338391D01*
X178571113Y-89489967D01*
X178571119Y-89489975D01*
X178700024Y-89618880D01*
X178700032Y-89618886D01*
X178851608Y-89720166D01*
X178851612Y-89720168D01*
X179000523Y-89781848D01*
X179020042Y-89789933D01*
X179020046Y-89789933D01*
X179020047Y-89789934D01*
X179198843Y-89825500D01*
X179198846Y-89825500D01*
X179381156Y-89825500D01*
X179528246Y-89796241D01*
X179559958Y-89789933D01*
X179728389Y-89720167D01*
X179728391Y-89720166D01*
X179815383Y-89662040D01*
X179879972Y-89618883D01*
X180008883Y-89489972D01*
X180070002Y-89398500D01*
X180110166Y-89338391D01*
X180110168Y-89338387D01*
X180151776Y-89237936D01*
X180179933Y-89169958D01*
X180201672Y-89060671D01*
X180215500Y-88991156D01*
X180215500Y-88808843D01*
X180179934Y-88630047D01*
X180179933Y-88630046D01*
X180179933Y-88630042D01*
X180160554Y-88583256D01*
X180110168Y-88461612D01*
X180110166Y-88461608D01*
X180008886Y-88310032D01*
X180008880Y-88310024D01*
X179879975Y-88181119D01*
X179879967Y-88181113D01*
X179728391Y-88079833D01*
X179728387Y-88079831D01*
X179559962Y-88010068D01*
X179559952Y-88010065D01*
X179381156Y-87974500D01*
X179381154Y-87974500D01*
X179198846Y-87974500D01*
X179198844Y-87974500D01*
X179020047Y-88010065D01*
X179020037Y-88010068D01*
X178851612Y-88079831D01*
X178851608Y-88079833D01*
X178700032Y-88181113D01*
X178700024Y-88181119D01*
X178571119Y-88310024D01*
X178571113Y-88310032D01*
X178469833Y-88461608D01*
X178404561Y-88619192D01*
X178360720Y-88673595D01*
X178294426Y-88695660D01*
X178226727Y-88678381D01*
X178179116Y-88627244D01*
X178175439Y-88619192D01*
X178110166Y-88461608D01*
X178008886Y-88310032D01*
X178008880Y-88310024D01*
X177879975Y-88181119D01*
X177879967Y-88181113D01*
X177728391Y-88079833D01*
X177728387Y-88079831D01*
X177559962Y-88010068D01*
X177559952Y-88010065D01*
X177381156Y-87974500D01*
X177381154Y-87974500D01*
X177198846Y-87974500D01*
X177198844Y-87974500D01*
X177020047Y-88010065D01*
X177020037Y-88010068D01*
X176851612Y-88079831D01*
X176851608Y-88079833D01*
X176700032Y-88181113D01*
X176700024Y-88181119D01*
X176571119Y-88310024D01*
X176571113Y-88310032D01*
X176469833Y-88461608D01*
X176404561Y-88619192D01*
X176360720Y-88673595D01*
X176294426Y-88695660D01*
X176226727Y-88678381D01*
X176179116Y-88627244D01*
X176175439Y-88619192D01*
X176110166Y-88461608D01*
X176008886Y-88310032D01*
X176008880Y-88310024D01*
X175879975Y-88181119D01*
X175879967Y-88181113D01*
X175728391Y-88079833D01*
X175728387Y-88079831D01*
X175559962Y-88010068D01*
X175559952Y-88010065D01*
X175381156Y-87974500D01*
X175381154Y-87974500D01*
X175198846Y-87974500D01*
X175198844Y-87974500D01*
X175020047Y-88010065D01*
X175020037Y-88010068D01*
X174851612Y-88079831D01*
X174851608Y-88079833D01*
X174700032Y-88181113D01*
X174700024Y-88181119D01*
X174571119Y-88310024D01*
X174571113Y-88310032D01*
X174469833Y-88461608D01*
X174404561Y-88619192D01*
X174360720Y-88673595D01*
X174294426Y-88695660D01*
X174226727Y-88678381D01*
X174179116Y-88627244D01*
X174175439Y-88619192D01*
X174110166Y-88461608D01*
X174008886Y-88310032D01*
X174008880Y-88310024D01*
X173879975Y-88181119D01*
X173879967Y-88181113D01*
X173728391Y-88079833D01*
X173728387Y-88079831D01*
X173559962Y-88010068D01*
X173559952Y-88010065D01*
X173381156Y-87974500D01*
X173381154Y-87974500D01*
X173198846Y-87974500D01*
X173198844Y-87974500D01*
X173020047Y-88010065D01*
X173020037Y-88010068D01*
X172851612Y-88079831D01*
X172851608Y-88079833D01*
X172700032Y-88181113D01*
X172700024Y-88181119D01*
X172571119Y-88310024D01*
X172571113Y-88310032D01*
X172469833Y-88461608D01*
X172404561Y-88619192D01*
X172360720Y-88673595D01*
X172294426Y-88695660D01*
X172226727Y-88678381D01*
X172179116Y-88627244D01*
X172175439Y-88619192D01*
X172110166Y-88461608D01*
X172008886Y-88310032D01*
X172008880Y-88310024D01*
X171879975Y-88181119D01*
X171879967Y-88181113D01*
X171728391Y-88079833D01*
X171728387Y-88079831D01*
X171559962Y-88010068D01*
X171559952Y-88010065D01*
X171381156Y-87974500D01*
X171381154Y-87974500D01*
X171198846Y-87974500D01*
X171198844Y-87974500D01*
X171020047Y-88010065D01*
X171020037Y-88010068D01*
X170851612Y-88079831D01*
X170851608Y-88079833D01*
X170700032Y-88181113D01*
X170700024Y-88181119D01*
X170571119Y-88310024D01*
X170571113Y-88310032D01*
X170469833Y-88461608D01*
X170404561Y-88619192D01*
X170360720Y-88673595D01*
X170294426Y-88695660D01*
X170226727Y-88678381D01*
X170179116Y-88627244D01*
X170175439Y-88619192D01*
X170110166Y-88461608D01*
X170008886Y-88310032D01*
X170008880Y-88310024D01*
X169879975Y-88181119D01*
X169879967Y-88181113D01*
X169728391Y-88079833D01*
X169728387Y-88079831D01*
X169559962Y-88010068D01*
X169559952Y-88010065D01*
X169381156Y-87974500D01*
X169381154Y-87974500D01*
X169198846Y-87974500D01*
X169198844Y-87974500D01*
X169020047Y-88010065D01*
X169020037Y-88010068D01*
X168851612Y-88079831D01*
X168851608Y-88079833D01*
X168700032Y-88181113D01*
X168700024Y-88181119D01*
X168571119Y-88310024D01*
X168571113Y-88310032D01*
X168469833Y-88461608D01*
X168404561Y-88619192D01*
X168360720Y-88673595D01*
X168294426Y-88695660D01*
X168226727Y-88678381D01*
X168179116Y-88627244D01*
X168175439Y-88619192D01*
X168110166Y-88461608D01*
X168008886Y-88310032D01*
X168008880Y-88310024D01*
X167879975Y-88181119D01*
X167879967Y-88181113D01*
X167728391Y-88079833D01*
X167728387Y-88079831D01*
X167559962Y-88010068D01*
X167559952Y-88010065D01*
X167381156Y-87974500D01*
X167381154Y-87974500D01*
X167198846Y-87974500D01*
X167198844Y-87974500D01*
X167020047Y-88010065D01*
X167020037Y-88010068D01*
X166851612Y-88079831D01*
X166851608Y-88079833D01*
X166700032Y-88181113D01*
X166700024Y-88181119D01*
X166571119Y-88310024D01*
X166571113Y-88310032D01*
X166469833Y-88461608D01*
X166404561Y-88619192D01*
X166360720Y-88673595D01*
X166294426Y-88695660D01*
X166226727Y-88678381D01*
X166179116Y-88627244D01*
X166175439Y-88619192D01*
X166110166Y-88461608D01*
X166008886Y-88310032D01*
X166008880Y-88310024D01*
X165879975Y-88181119D01*
X165879967Y-88181113D01*
X165728391Y-88079833D01*
X165728387Y-88079831D01*
X165559962Y-88010068D01*
X165559952Y-88010065D01*
X165381156Y-87974500D01*
X165381154Y-87974500D01*
X165198846Y-87974500D01*
X165198844Y-87974500D01*
X165020047Y-88010065D01*
X165020037Y-88010068D01*
X164851612Y-88079831D01*
X164851608Y-88079833D01*
X164700032Y-88181113D01*
X164700024Y-88181119D01*
X164571119Y-88310024D01*
X164571114Y-88310030D01*
X164539445Y-88357426D01*
X164485832Y-88402230D01*
X164416507Y-88410937D01*
X164353480Y-88380782D01*
X164325859Y-88344829D01*
X164294947Y-88284161D01*
X164186245Y-88134545D01*
X164186241Y-88134540D01*
X164055459Y-88003758D01*
X164055454Y-88003754D01*
X163905837Y-87895052D01*
X163741043Y-87811084D01*
X163741037Y-87811082D01*
X163565144Y-87753932D01*
X163540000Y-87749950D01*
X163540000Y-88584314D01*
X163535606Y-88579920D01*
X163444394Y-88527259D01*
X163342661Y-88500000D01*
X163237339Y-88500000D01*
X163135606Y-88527259D01*
X163044394Y-88579920D01*
X163040000Y-88584314D01*
X163040000Y-87749950D01*
X163039999Y-87749950D01*
X163014855Y-87753932D01*
X162838962Y-87811082D01*
X162838956Y-87811084D01*
X162674162Y-87895052D01*
X162524545Y-88003754D01*
X162524540Y-88003758D01*
X162390315Y-88137984D01*
X162389300Y-88136969D01*
X162336168Y-88171634D01*
X162266300Y-88172116D01*
X162207263Y-88134748D01*
X162197317Y-88121798D01*
X162145601Y-88044399D01*
X162084776Y-88003758D01*
X162062739Y-87989033D01*
X162062735Y-87989032D01*
X161989677Y-87974500D01*
X161989674Y-87974500D01*
X160590326Y-87974500D01*
X160590323Y-87974500D01*
X160517264Y-87989032D01*
X160517260Y-87989033D01*
X160434399Y-88044399D01*
X160379033Y-88127260D01*
X160379032Y-88127264D01*
X160364500Y-88200321D01*
X159633500Y-88200321D01*
X159633500Y-87082807D01*
X159653185Y-87015768D01*
X159669819Y-86995125D01*
X159672665Y-86992278D01*
X159672669Y-86992276D01*
X159763276Y-86901669D01*
X159834465Y-86795127D01*
X159883501Y-86676744D01*
X159908500Y-86551069D01*
X159908500Y-86422931D01*
X159908500Y-86422928D01*
X159883502Y-86297261D01*
X159883501Y-86297260D01*
X159883501Y-86297256D01*
X159834465Y-86178873D01*
X159834464Y-86178872D01*
X159834461Y-86178866D01*
X159763276Y-86072331D01*
X159763273Y-86072327D01*
X159672672Y-85981726D01*
X159672668Y-85981723D01*
X159566133Y-85910538D01*
X159566124Y-85910533D01*
X159447744Y-85861499D01*
X159447738Y-85861497D01*
X159322071Y-85836500D01*
X159322069Y-85836500D01*
X159193931Y-85836500D01*
X159193929Y-85836500D01*
X159068261Y-85861497D01*
X159068255Y-85861499D01*
X158949875Y-85910533D01*
X158949866Y-85910538D01*
X158843331Y-85981723D01*
X158843327Y-85981726D01*
X158752726Y-86072327D01*
X158752723Y-86072331D01*
X158681538Y-86178866D01*
X158681533Y-86178875D01*
X158632499Y-86297255D01*
X158632497Y-86297261D01*
X158607500Y-86422928D01*
X158607500Y-86422931D01*
X158607500Y-86551069D01*
X158607500Y-86551071D01*
X158607499Y-86551071D01*
X158632497Y-86676738D01*
X158632499Y-86676744D01*
X158681533Y-86795124D01*
X158681538Y-86795133D01*
X158752722Y-86901667D01*
X158752723Y-86901668D01*
X158752724Y-86901669D01*
X158843331Y-86992276D01*
X158843333Y-86992277D01*
X158846181Y-86995125D01*
X158879666Y-87056448D01*
X158882500Y-87082807D01*
X158882500Y-89064126D01*
X158873855Y-89093566D01*
X158867332Y-89123553D01*
X158863577Y-89128568D01*
X158862815Y-89131165D01*
X158846181Y-89151807D01*
X158806181Y-89191807D01*
X158744858Y-89225292D01*
X158675166Y-89220308D01*
X158619233Y-89178436D01*
X158594816Y-89112972D01*
X158594500Y-89104126D01*
X158594500Y-88935843D01*
X158558934Y-88757047D01*
X158558933Y-88757046D01*
X158558933Y-88757042D01*
X158554196Y-88745606D01*
X158489168Y-88588612D01*
X158489166Y-88588608D01*
X158387886Y-88437032D01*
X158387880Y-88437024D01*
X158258975Y-88308119D01*
X158258967Y-88308113D01*
X158107391Y-88206833D01*
X158107387Y-88206831D01*
X157938962Y-88137068D01*
X157938952Y-88137065D01*
X157760156Y-88101500D01*
X157760154Y-88101500D01*
X157577846Y-88101500D01*
X157577844Y-88101500D01*
X157399047Y-88137065D01*
X157399037Y-88137068D01*
X157230612Y-88206831D01*
X157230608Y-88206833D01*
X157079032Y-88308113D01*
X157079024Y-88308119D01*
X156950119Y-88437024D01*
X156950113Y-88437032D01*
X156848833Y-88588608D01*
X156783561Y-88746192D01*
X156739720Y-88800595D01*
X156673426Y-88822660D01*
X156605727Y-88805381D01*
X156558116Y-88754244D01*
X156554439Y-88746192D01*
X156489166Y-88588608D01*
X156387886Y-88437032D01*
X156387880Y-88437024D01*
X156258975Y-88308119D01*
X156258967Y-88308113D01*
X156107391Y-88206833D01*
X156107387Y-88206831D01*
X155938962Y-88137068D01*
X155938952Y-88137065D01*
X155760156Y-88101500D01*
X155760154Y-88101500D01*
X155577846Y-88101500D01*
X155577844Y-88101500D01*
X155399047Y-88137065D01*
X155399037Y-88137068D01*
X155230612Y-88206831D01*
X155230608Y-88206833D01*
X155079032Y-88308113D01*
X155079024Y-88308119D01*
X154950119Y-88437024D01*
X154950113Y-88437032D01*
X154848833Y-88588608D01*
X154783561Y-88746192D01*
X154739720Y-88800595D01*
X154673426Y-88822660D01*
X154605727Y-88805381D01*
X154558116Y-88754244D01*
X154554439Y-88746192D01*
X154489166Y-88588608D01*
X154387886Y-88437032D01*
X154387880Y-88437024D01*
X154258975Y-88308119D01*
X154258967Y-88308113D01*
X154107391Y-88206833D01*
X154107387Y-88206831D01*
X153938962Y-88137068D01*
X153938952Y-88137065D01*
X153760156Y-88101500D01*
X153760154Y-88101500D01*
X153577846Y-88101500D01*
X153577844Y-88101500D01*
X153399047Y-88137065D01*
X153399037Y-88137068D01*
X153230612Y-88206831D01*
X153230608Y-88206833D01*
X153079032Y-88308113D01*
X153079024Y-88308119D01*
X152950119Y-88437024D01*
X152950113Y-88437032D01*
X152848833Y-88588608D01*
X152783561Y-88746192D01*
X152739720Y-88800595D01*
X152673426Y-88822660D01*
X152605727Y-88805381D01*
X152558116Y-88754244D01*
X152554439Y-88746192D01*
X152489166Y-88588608D01*
X152387886Y-88437032D01*
X152387880Y-88437024D01*
X152258975Y-88308119D01*
X152258967Y-88308113D01*
X152107391Y-88206833D01*
X152107387Y-88206831D01*
X151938962Y-88137068D01*
X151938952Y-88137065D01*
X151760156Y-88101500D01*
X151760154Y-88101500D01*
X151577846Y-88101500D01*
X151577844Y-88101500D01*
X151399047Y-88137065D01*
X151399037Y-88137068D01*
X151230612Y-88206831D01*
X151230608Y-88206833D01*
X151079032Y-88308113D01*
X151079024Y-88308119D01*
X150950119Y-88437024D01*
X150950113Y-88437032D01*
X150848833Y-88588608D01*
X150783561Y-88746192D01*
X150739720Y-88800595D01*
X150673426Y-88822660D01*
X150605727Y-88805381D01*
X150558116Y-88754244D01*
X150554439Y-88746192D01*
X150489166Y-88588608D01*
X150387886Y-88437032D01*
X150387880Y-88437024D01*
X150258975Y-88308119D01*
X150258967Y-88308113D01*
X150107391Y-88206833D01*
X150107387Y-88206831D01*
X149938962Y-88137068D01*
X149938952Y-88137065D01*
X149760156Y-88101500D01*
X149760154Y-88101500D01*
X149577846Y-88101500D01*
X149577844Y-88101500D01*
X149399047Y-88137065D01*
X149399037Y-88137068D01*
X149230612Y-88206831D01*
X149230608Y-88206833D01*
X149079032Y-88308113D01*
X149079024Y-88308119D01*
X148950119Y-88437024D01*
X148950114Y-88437030D01*
X148918445Y-88484426D01*
X148864832Y-88529230D01*
X148795507Y-88537937D01*
X148732480Y-88507782D01*
X148704859Y-88471829D01*
X148673947Y-88411161D01*
X148565245Y-88261545D01*
X148565241Y-88261540D01*
X148434459Y-88130758D01*
X148434454Y-88130754D01*
X148284837Y-88022052D01*
X148120043Y-87938084D01*
X148120037Y-87938082D01*
X147944144Y-87880932D01*
X147919000Y-87876950D01*
X147919000Y-88711314D01*
X147914606Y-88706920D01*
X147823394Y-88654259D01*
X147721661Y-88627000D01*
X147616339Y-88627000D01*
X147514606Y-88654259D01*
X147423394Y-88706920D01*
X147419000Y-88711314D01*
X147419000Y-87876950D01*
X147418999Y-87876950D01*
X147393855Y-87880932D01*
X147217962Y-87938082D01*
X147217956Y-87938084D01*
X147053162Y-88022052D01*
X146903545Y-88130754D01*
X146903540Y-88130758D01*
X146769315Y-88264984D01*
X146768300Y-88263969D01*
X146715168Y-88298634D01*
X146645300Y-88299116D01*
X146586263Y-88261748D01*
X146576317Y-88248798D01*
X146524601Y-88171399D01*
X146463776Y-88130758D01*
X146441739Y-88116033D01*
X146441735Y-88116032D01*
X146368677Y-88101500D01*
X146368674Y-88101500D01*
X145035676Y-88101500D01*
X144968637Y-88081815D01*
X144922882Y-88029011D01*
X144912938Y-87959853D01*
X144941963Y-87896297D01*
X144947995Y-87889819D01*
X150385995Y-82451819D01*
X150447318Y-82418334D01*
X150473676Y-82415500D01*
X155189324Y-82415500D01*
X155256363Y-82435185D01*
X155277005Y-82451819D01*
X157079500Y-84254314D01*
X157172686Y-84347500D01*
X157286814Y-84413392D01*
X157414108Y-84447500D01*
X157414110Y-84447500D01*
X175833890Y-84447500D01*
X175833892Y-84447500D01*
X175961186Y-84413392D01*
X176075314Y-84347500D01*
X177966318Y-82456493D01*
X178027641Y-82423009D01*
X178097332Y-82427993D01*
X178141680Y-82456494D01*
X180692181Y-85006995D01*
X180725666Y-85068318D01*
X180728500Y-85094676D01*
X180728500Y-91540896D01*
X180708815Y-91607935D01*
X180656011Y-91653690D01*
X180586853Y-91663634D01*
X180535610Y-91643999D01*
X180523389Y-91635833D01*
X180523386Y-91635831D01*
X180523385Y-91635831D01*
X180354962Y-91566068D01*
X180354952Y-91566065D01*
X180176156Y-91530500D01*
X180176154Y-91530500D01*
X179993846Y-91530500D01*
X179993844Y-91530500D01*
X179815047Y-91566065D01*
X179815037Y-91566068D01*
X179646612Y-91635831D01*
X179646608Y-91635833D01*
X179495032Y-91737113D01*
X179495024Y-91737119D01*
X179366119Y-91866024D01*
X179366113Y-91866032D01*
X179264833Y-92017608D01*
X179199561Y-92175192D01*
X179155720Y-92229595D01*
X179089426Y-92251660D01*
X179021727Y-92234381D01*
X178974116Y-92183244D01*
X178970439Y-92175192D01*
X178905166Y-92017608D01*
X178803886Y-91866032D01*
X178803880Y-91866024D01*
X178674975Y-91737119D01*
X178674967Y-91737113D01*
X178523391Y-91635833D01*
X178523387Y-91635831D01*
X178354962Y-91566068D01*
X178354952Y-91566065D01*
X178176156Y-91530500D01*
X178176154Y-91530500D01*
X177993846Y-91530500D01*
X177993844Y-91530500D01*
X177815047Y-91566065D01*
X177815037Y-91566068D01*
X177646612Y-91635831D01*
X177646608Y-91635833D01*
X177495032Y-91737113D01*
X177495024Y-91737119D01*
X177366119Y-91866024D01*
X177366113Y-91866032D01*
X177264833Y-92017608D01*
X177199561Y-92175192D01*
X177155720Y-92229595D01*
X177089426Y-92251660D01*
X177021727Y-92234381D01*
X176974116Y-92183244D01*
X176970439Y-92175192D01*
X176905166Y-92017608D01*
X176803886Y-91866032D01*
X176803880Y-91866024D01*
X176674975Y-91737119D01*
X176674967Y-91737113D01*
X176523391Y-91635833D01*
X176523387Y-91635831D01*
X176354962Y-91566068D01*
X176354952Y-91566065D01*
X176176156Y-91530500D01*
X176176154Y-91530500D01*
X175993846Y-91530500D01*
X175993844Y-91530500D01*
X175815047Y-91566065D01*
X175815037Y-91566068D01*
X175646612Y-91635831D01*
X175646608Y-91635833D01*
X175495032Y-91737113D01*
X175495024Y-91737119D01*
X175366119Y-91866024D01*
X175366114Y-91866030D01*
X175334445Y-91913426D01*
X175280832Y-91958230D01*
X175211507Y-91966937D01*
X175148480Y-91936782D01*
X175120859Y-91900829D01*
X175089947Y-91840161D01*
X174981245Y-91690545D01*
X174981241Y-91690540D01*
X174850459Y-91559758D01*
X174850454Y-91559754D01*
X174700837Y-91451052D01*
X174536043Y-91367084D01*
X174536037Y-91367082D01*
X174360144Y-91309932D01*
X174335000Y-91305950D01*
X174335000Y-92140314D01*
X174330606Y-92135920D01*
X174239394Y-92083259D01*
X174137661Y-92056000D01*
X174032339Y-92056000D01*
X173930606Y-92083259D01*
X173839394Y-92135920D01*
X173835000Y-92140314D01*
X173835000Y-91305950D01*
X173834999Y-91305950D01*
X173809855Y-91309932D01*
X173633962Y-91367082D01*
X173633956Y-91367084D01*
X173469162Y-91451052D01*
X173319545Y-91559754D01*
X173319540Y-91559758D01*
X173185315Y-91693984D01*
X173184300Y-91692969D01*
X173131168Y-91727634D01*
X173061300Y-91728116D01*
X173002263Y-91690748D01*
X172992317Y-91677798D01*
X172940601Y-91600399D01*
X172879776Y-91559758D01*
X172857739Y-91545033D01*
X172857735Y-91545032D01*
X172784677Y-91530500D01*
X172784674Y-91530500D01*
X171385326Y-91530500D01*
X171385323Y-91530500D01*
X171312264Y-91545032D01*
X171312260Y-91545033D01*
X171229399Y-91600399D01*
X171174033Y-91683260D01*
X171174032Y-91683264D01*
X171159500Y-91756321D01*
X171159500Y-93155678D01*
X171174032Y-93228735D01*
X171174033Y-93228739D01*
X171174034Y-93228740D01*
X171229399Y-93311601D01*
X171280783Y-93345934D01*
X171312260Y-93366966D01*
X171312264Y-93366967D01*
X171385321Y-93381499D01*
X171385324Y-93381500D01*
X171385326Y-93381500D01*
X172784676Y-93381500D01*
X172784677Y-93381499D01*
X172857740Y-93366966D01*
X172940601Y-93311601D01*
X172992312Y-93234207D01*
X173045922Y-93189403D01*
X173115247Y-93180694D01*
X173178275Y-93210848D01*
X173185290Y-93218040D01*
X173185315Y-93218016D01*
X173319540Y-93352241D01*
X173319545Y-93352245D01*
X173469162Y-93460947D01*
X173633956Y-93544915D01*
X173633959Y-93544916D01*
X173809845Y-93602064D01*
X173809858Y-93602067D01*
X173835000Y-93606049D01*
X173835000Y-92771686D01*
X173839394Y-92776080D01*
X173930606Y-92828741D01*
X174032339Y-92856000D01*
X174137661Y-92856000D01*
X174239394Y-92828741D01*
X174330606Y-92776080D01*
X174335000Y-92771686D01*
X174335000Y-93606048D01*
X174360141Y-93602067D01*
X174360154Y-93602064D01*
X174536040Y-93544916D01*
X174536043Y-93544915D01*
X174700837Y-93460947D01*
X174850454Y-93352245D01*
X174850459Y-93352241D01*
X174981241Y-93221459D01*
X174981245Y-93221454D01*
X175089949Y-93071835D01*
X175120859Y-93011171D01*
X175168833Y-92960375D01*
X175236653Y-92943579D01*
X175302789Y-92966116D01*
X175334446Y-92998574D01*
X175366116Y-93045971D01*
X175366119Y-93045975D01*
X175495024Y-93174880D01*
X175495032Y-93174886D01*
X175646608Y-93276166D01*
X175646612Y-93276168D01*
X175766919Y-93326000D01*
X175815042Y-93345933D01*
X175815046Y-93345933D01*
X175815047Y-93345934D01*
X175993843Y-93381500D01*
X175993846Y-93381500D01*
X176176156Y-93381500D01*
X176323246Y-93352241D01*
X176354958Y-93345933D01*
X176495768Y-93287608D01*
X176523387Y-93276168D01*
X176523391Y-93276166D01*
X176610383Y-93218040D01*
X176674972Y-93174883D01*
X176803883Y-93045972D01*
X176865831Y-92953260D01*
X176905166Y-92894391D01*
X176905168Y-92894387D01*
X176970439Y-92736808D01*
X177014280Y-92682404D01*
X177080574Y-92660339D01*
X177148273Y-92677618D01*
X177195884Y-92728755D01*
X177199561Y-92736808D01*
X177264831Y-92894387D01*
X177264833Y-92894391D01*
X177366113Y-93045967D01*
X177366119Y-93045975D01*
X177495024Y-93174880D01*
X177495032Y-93174886D01*
X177646608Y-93276166D01*
X177646612Y-93276168D01*
X177766919Y-93326000D01*
X177815042Y-93345933D01*
X177815046Y-93345933D01*
X177815047Y-93345934D01*
X177993843Y-93381500D01*
X177993846Y-93381500D01*
X178176156Y-93381500D01*
X178323246Y-93352241D01*
X178354958Y-93345933D01*
X178495768Y-93287608D01*
X178523387Y-93276168D01*
X178523391Y-93276166D01*
X178610383Y-93218040D01*
X178674972Y-93174883D01*
X178803883Y-93045972D01*
X178865831Y-92953260D01*
X178905166Y-92894391D01*
X178905168Y-92894387D01*
X178970439Y-92736808D01*
X179014280Y-92682404D01*
X179080574Y-92660339D01*
X179148273Y-92677618D01*
X179195884Y-92728755D01*
X179199561Y-92736808D01*
X179264831Y-92894387D01*
X179264833Y-92894391D01*
X179366113Y-93045967D01*
X179366119Y-93045975D01*
X179495024Y-93174880D01*
X179495032Y-93174886D01*
X179646608Y-93276166D01*
X179646612Y-93276168D01*
X179766919Y-93326000D01*
X179815042Y-93345933D01*
X179815046Y-93345933D01*
X179815047Y-93345934D01*
X179993843Y-93381500D01*
X179993846Y-93381500D01*
X180176156Y-93381500D01*
X180323246Y-93352241D01*
X180354958Y-93345933D01*
X180523389Y-93276167D01*
X180535608Y-93268002D01*
X180602282Y-93247123D01*
X180669663Y-93265605D01*
X180716355Y-93317583D01*
X180728500Y-93371103D01*
X180728500Y-94636323D01*
X180708815Y-94703362D01*
X180692181Y-94724004D01*
X179502003Y-95914181D01*
X179440680Y-95947666D01*
X179414322Y-95950500D01*
X178275129Y-95950500D01*
X178275123Y-95950501D01*
X178215516Y-95956908D01*
X178080671Y-96007202D01*
X178080664Y-96007206D01*
X177965455Y-96093452D01*
X177965452Y-96093455D01*
X177879206Y-96208664D01*
X177879202Y-96208671D01*
X177828908Y-96343517D01*
X177822501Y-96403116D01*
X177822500Y-96403135D01*
X177822500Y-97998870D01*
X177822501Y-97998876D01*
X177828908Y-98058483D01*
X177879202Y-98193328D01*
X177879206Y-98193335D01*
X177965452Y-98308544D01*
X177965455Y-98308547D01*
X178080664Y-98394793D01*
X178080671Y-98394797D01*
X178215517Y-98445091D01*
X178215516Y-98445091D01*
X178222444Y-98445835D01*
X178275127Y-98451500D01*
X179570872Y-98451499D01*
X179630483Y-98445091D01*
X179765331Y-98394796D01*
X179880546Y-98308546D01*
X179966796Y-98193331D01*
X180017091Y-98058483D01*
X180023500Y-97998873D01*
X180023499Y-96859674D01*
X180043184Y-96792636D01*
X180059813Y-96771999D01*
X181629499Y-95202315D01*
X181639067Y-95185744D01*
X181695392Y-95088186D01*
X181729500Y-94960892D01*
X181729500Y-91988389D01*
X183938500Y-91988389D01*
X183938500Y-92161611D01*
X183943436Y-92192773D01*
X183962477Y-92313000D01*
X183965598Y-92332701D01*
X184019127Y-92497445D01*
X184097768Y-92651788D01*
X184199586Y-92791928D01*
X184322072Y-92914414D01*
X184462212Y-93016232D01*
X184616555Y-93094873D01*
X184781299Y-93148402D01*
X184952389Y-93175500D01*
X184952390Y-93175500D01*
X185125610Y-93175500D01*
X185125611Y-93175500D01*
X185296701Y-93148402D01*
X185461445Y-93094873D01*
X185615788Y-93016232D01*
X185755928Y-92914414D01*
X185878414Y-92791928D01*
X185980232Y-92651788D01*
X186058873Y-92497445D01*
X186112402Y-92332701D01*
X186139500Y-92161611D01*
X186139500Y-91988389D01*
X186112402Y-91817299D01*
X186058873Y-91652555D01*
X185980232Y-91498212D01*
X185878414Y-91358072D01*
X185755928Y-91235586D01*
X185615788Y-91133768D01*
X185461445Y-91055127D01*
X185296701Y-91001598D01*
X185296699Y-91001597D01*
X185296698Y-91001597D01*
X185165271Y-90980781D01*
X185125611Y-90974500D01*
X184952389Y-90974500D01*
X184912728Y-90980781D01*
X184781302Y-91001597D01*
X184616552Y-91055128D01*
X184462211Y-91133768D01*
X184382256Y-91191859D01*
X184322072Y-91235586D01*
X184322070Y-91235588D01*
X184322069Y-91235588D01*
X184199588Y-91358069D01*
X184199588Y-91358070D01*
X184199586Y-91358072D01*
X184155859Y-91418256D01*
X184097768Y-91498211D01*
X184019128Y-91652552D01*
X183965597Y-91817302D01*
X183944465Y-91950726D01*
X183938500Y-91988389D01*
X181729500Y-91988389D01*
X181729500Y-86745000D01*
X183711769Y-86745000D01*
X184605988Y-86745000D01*
X184573075Y-86802007D01*
X184539000Y-86929174D01*
X184539000Y-87060826D01*
X184573075Y-87187993D01*
X184605988Y-87245000D01*
X183711769Y-87245000D01*
X183722242Y-87311126D01*
X183722242Y-87311129D01*
X183787904Y-87513217D01*
X183884379Y-87702557D01*
X184009272Y-87874459D01*
X184009276Y-87874464D01*
X184159535Y-88024723D01*
X184159540Y-88024727D01*
X184331442Y-88149620D01*
X184520784Y-88246096D01*
X184619711Y-88278239D01*
X184677387Y-88317676D01*
X184704586Y-88382034D01*
X184692672Y-88450881D01*
X184645428Y-88502357D01*
X184619722Y-88514097D01*
X184618522Y-88514487D01*
X184616550Y-88515128D01*
X184462211Y-88593768D01*
X184416472Y-88627000D01*
X184322072Y-88695586D01*
X184322070Y-88695588D01*
X184322069Y-88695588D01*
X184199588Y-88818069D01*
X184199588Y-88818070D01*
X184199586Y-88818072D01*
X184178322Y-88847339D01*
X184097768Y-88958211D01*
X184019128Y-89112552D01*
X183965597Y-89277302D01*
X183938500Y-89448389D01*
X183938500Y-89621610D01*
X183965559Y-89792459D01*
X183965598Y-89792701D01*
X184019127Y-89957445D01*
X184097768Y-90111788D01*
X184199586Y-90251928D01*
X184322072Y-90374414D01*
X184462212Y-90476232D01*
X184616555Y-90554873D01*
X184781299Y-90608402D01*
X184952389Y-90635500D01*
X184952390Y-90635500D01*
X185125610Y-90635500D01*
X185125611Y-90635500D01*
X185296701Y-90608402D01*
X185461445Y-90554873D01*
X185615788Y-90476232D01*
X185755928Y-90374414D01*
X185878414Y-90251928D01*
X185980232Y-90111788D01*
X186058873Y-89957445D01*
X186112402Y-89792701D01*
X186139500Y-89621611D01*
X186139500Y-89448389D01*
X186112402Y-89277299D01*
X186058873Y-89112555D01*
X185980232Y-88958212D01*
X185878414Y-88818072D01*
X185755928Y-88695586D01*
X185615788Y-88593768D01*
X185595155Y-88583255D01*
X185461446Y-88515127D01*
X185458284Y-88514100D01*
X185457236Y-88513383D01*
X185456952Y-88513266D01*
X185456976Y-88513206D01*
X185400609Y-88474661D01*
X185373413Y-88410302D01*
X185385329Y-88341456D01*
X185432574Y-88289981D01*
X185458288Y-88278239D01*
X185557215Y-88246096D01*
X185746557Y-88149620D01*
X185918459Y-88024727D01*
X185918464Y-88024723D01*
X186068723Y-87874464D01*
X186068727Y-87874459D01*
X186193620Y-87702557D01*
X186290095Y-87513217D01*
X186355757Y-87311129D01*
X186355757Y-87311126D01*
X186366231Y-87245000D01*
X185472012Y-87245000D01*
X185504925Y-87187993D01*
X185539000Y-87060826D01*
X185539000Y-86929174D01*
X185504925Y-86802007D01*
X185472012Y-86745000D01*
X186366231Y-86745000D01*
X186355757Y-86678873D01*
X186355757Y-86678870D01*
X186290095Y-86476782D01*
X186193620Y-86287442D01*
X186068727Y-86115540D01*
X186068723Y-86115535D01*
X185918464Y-85965276D01*
X185918459Y-85965272D01*
X185746557Y-85840379D01*
X185647655Y-85789985D01*
X185596859Y-85742010D01*
X185580064Y-85674189D01*
X185602602Y-85608054D01*
X185657317Y-85564603D01*
X185703950Y-85555500D01*
X185913676Y-85555500D01*
X185913677Y-85555499D01*
X185986740Y-85540966D01*
X186069601Y-85485601D01*
X186124966Y-85402740D01*
X186139500Y-85329674D01*
X186139500Y-83580326D01*
X186139500Y-83580323D01*
X186139499Y-83580321D01*
X186124967Y-83507264D01*
X186124966Y-83507260D01*
X186069601Y-83424399D01*
X185986740Y-83369034D01*
X185986739Y-83369033D01*
X185986735Y-83369032D01*
X185913677Y-83354500D01*
X185913674Y-83354500D01*
X184164326Y-83354500D01*
X184164323Y-83354500D01*
X184091264Y-83369032D01*
X184091260Y-83369033D01*
X184008399Y-83424399D01*
X183953033Y-83507260D01*
X183953032Y-83507264D01*
X183938500Y-83580321D01*
X183938500Y-85329678D01*
X183953032Y-85402735D01*
X183953033Y-85402739D01*
X183956723Y-85408261D01*
X184008399Y-85485601D01*
X184080727Y-85533928D01*
X184091260Y-85540966D01*
X184091264Y-85540967D01*
X184164321Y-85555499D01*
X184164324Y-85555500D01*
X184374050Y-85555500D01*
X184441089Y-85575185D01*
X184486844Y-85627989D01*
X184496788Y-85697147D01*
X184467763Y-85760703D01*
X184430345Y-85789985D01*
X184331442Y-85840379D01*
X184159540Y-85965272D01*
X184159535Y-85965276D01*
X184009276Y-86115535D01*
X184009272Y-86115540D01*
X183884379Y-86287442D01*
X183787904Y-86476782D01*
X183722242Y-86678870D01*
X183722242Y-86678873D01*
X183711769Y-86745000D01*
X181729500Y-86745000D01*
X181729500Y-84770108D01*
X181695392Y-84642814D01*
X181629500Y-84528686D01*
X181536314Y-84435500D01*
X178849495Y-81748681D01*
X178816010Y-81687358D01*
X178820994Y-81617666D01*
X178849495Y-81573319D01*
X179596690Y-80826124D01*
X180359500Y-80063314D01*
X180425392Y-79949186D01*
X180459500Y-79821892D01*
X180459500Y-79690107D01*
X180459500Y-79649713D01*
X184577500Y-79649713D01*
X184577500Y-79862286D01*
X184610166Y-80068535D01*
X184610754Y-80072243D01*
X184650814Y-80195535D01*
X184676444Y-80274414D01*
X184772951Y-80463820D01*
X184897890Y-80635786D01*
X185048213Y-80786109D01*
X185220179Y-80911048D01*
X185220181Y-80911049D01*
X185220184Y-80911051D01*
X185409588Y-81007557D01*
X185611757Y-81073246D01*
X185821713Y-81106500D01*
X185821714Y-81106500D01*
X186034286Y-81106500D01*
X186034287Y-81106500D01*
X186244243Y-81073246D01*
X186446412Y-81007557D01*
X186635816Y-80911051D01*
X186739021Y-80836069D01*
X186807786Y-80786109D01*
X186807788Y-80786106D01*
X186807792Y-80786104D01*
X186958104Y-80635792D01*
X186958106Y-80635788D01*
X186958109Y-80635786D01*
X187083008Y-80463875D01*
X187083051Y-80463816D01*
X187179557Y-80274412D01*
X187245246Y-80072243D01*
X187278500Y-79862287D01*
X187278500Y-79649713D01*
X187245246Y-79439757D01*
X187179557Y-79237588D01*
X187083051Y-79048184D01*
X187083049Y-79048181D01*
X187083048Y-79048179D01*
X186958109Y-78876213D01*
X186807786Y-78725890D01*
X186635820Y-78600951D01*
X186446414Y-78504444D01*
X186446413Y-78504443D01*
X186446412Y-78504443D01*
X186244243Y-78438754D01*
X186244241Y-78438753D01*
X186244240Y-78438753D01*
X186082423Y-78413124D01*
X186034287Y-78405500D01*
X185821713Y-78405500D01*
X185773577Y-78413124D01*
X185611760Y-78438753D01*
X185409585Y-78504444D01*
X185220179Y-78600951D01*
X185048213Y-78725890D01*
X184897890Y-78876213D01*
X184772951Y-79048179D01*
X184676444Y-79237585D01*
X184676443Y-79237587D01*
X184676443Y-79237588D01*
X184659594Y-79289445D01*
X184610753Y-79439760D01*
X184577500Y-79649713D01*
X180459500Y-79649713D01*
X180459500Y-76645071D01*
X181086499Y-76645071D01*
X181111497Y-76770738D01*
X181111499Y-76770744D01*
X181160533Y-76889124D01*
X181160538Y-76889133D01*
X181231723Y-76995668D01*
X181231726Y-76995672D01*
X181322327Y-77086273D01*
X181322331Y-77086276D01*
X181428866Y-77157461D01*
X181428872Y-77157464D01*
X181428873Y-77157465D01*
X181547256Y-77206501D01*
X181547260Y-77206501D01*
X181547261Y-77206502D01*
X181672928Y-77231500D01*
X181672931Y-77231500D01*
X181801071Y-77231500D01*
X181885615Y-77214682D01*
X181926744Y-77206501D01*
X182045127Y-77157465D01*
X182151669Y-77086276D01*
X182242276Y-76995669D01*
X182313465Y-76889127D01*
X182362501Y-76770744D01*
X182387500Y-76645069D01*
X182387500Y-76516931D01*
X182387500Y-76516928D01*
X182362502Y-76391261D01*
X182362501Y-76391260D01*
X182362501Y-76391256D01*
X182313465Y-76272873D01*
X182313464Y-76272872D01*
X182313461Y-76272866D01*
X182242276Y-76166331D01*
X182242273Y-76166327D01*
X182151672Y-76075726D01*
X182151668Y-76075723D01*
X182045133Y-76004538D01*
X182045124Y-76004533D01*
X181926744Y-75955499D01*
X181926738Y-75955497D01*
X181801071Y-75930500D01*
X181801069Y-75930500D01*
X181672931Y-75930500D01*
X181672929Y-75930500D01*
X181547261Y-75955497D01*
X181547255Y-75955499D01*
X181428875Y-76004533D01*
X181428866Y-76004538D01*
X181322331Y-76075723D01*
X181322327Y-76075726D01*
X181231726Y-76166327D01*
X181231723Y-76166331D01*
X181160538Y-76272866D01*
X181160533Y-76272875D01*
X181111499Y-76391255D01*
X181111497Y-76391261D01*
X181086500Y-76516928D01*
X181086500Y-76516931D01*
X181086500Y-76645069D01*
X181086500Y-76645071D01*
X181086499Y-76645071D01*
X180459500Y-76645071D01*
X180459500Y-71579432D01*
X180479185Y-71512393D01*
X180480398Y-71510541D01*
X180535461Y-71428133D01*
X180535461Y-71428132D01*
X180535465Y-71428127D01*
X180584501Y-71309744D01*
X180598871Y-71237502D01*
X180609500Y-71184071D01*
X180609500Y-71055928D01*
X180584502Y-70930261D01*
X180584501Y-70930260D01*
X180584501Y-70930256D01*
X180535465Y-70811873D01*
X180535464Y-70811872D01*
X180535461Y-70811866D01*
X180464276Y-70705331D01*
X180464273Y-70705327D01*
X180373672Y-70614726D01*
X180373668Y-70614723D01*
X180267133Y-70543538D01*
X180267124Y-70543533D01*
X180148744Y-70494499D01*
X180148738Y-70494497D01*
X180023071Y-70469500D01*
X180023069Y-70469500D01*
X179894931Y-70469500D01*
X179894929Y-70469500D01*
X179769261Y-70494497D01*
X179769255Y-70494499D01*
X179650875Y-70543533D01*
X179650866Y-70543538D01*
X179544331Y-70614723D01*
X179544327Y-70614726D01*
X179453726Y-70705327D01*
X179453723Y-70705331D01*
X179382538Y-70811866D01*
X179382533Y-70811875D01*
X179333499Y-70930255D01*
X179333497Y-70930261D01*
X179308500Y-71055928D01*
X179308500Y-71055931D01*
X179308500Y-71184069D01*
X179308500Y-71184071D01*
X179308499Y-71184071D01*
X179333497Y-71309738D01*
X179333499Y-71309744D01*
X179382533Y-71428124D01*
X179382538Y-71428133D01*
X179437602Y-71510541D01*
X179458480Y-71577218D01*
X179458500Y-71579432D01*
X179458500Y-79497324D01*
X179438815Y-79564363D01*
X179422181Y-79585005D01*
X175597005Y-83410181D01*
X175535682Y-83443666D01*
X175509324Y-83446500D01*
X157738676Y-83446500D01*
X157671637Y-83426815D01*
X157650995Y-83410181D01*
X155984819Y-81744005D01*
X155951334Y-81682682D01*
X155948500Y-81656324D01*
X155948500Y-81320389D01*
X169587500Y-81320389D01*
X169587500Y-81493611D01*
X169590809Y-81514501D01*
X169614011Y-81661000D01*
X169614598Y-81664701D01*
X169668127Y-81829445D01*
X169746768Y-81983788D01*
X169848586Y-82123928D01*
X169971072Y-82246414D01*
X170111212Y-82348232D01*
X170265555Y-82426873D01*
X170430299Y-82480402D01*
X170601389Y-82507500D01*
X170601390Y-82507500D01*
X170774610Y-82507500D01*
X170774611Y-82507500D01*
X170945701Y-82480402D01*
X171110445Y-82426873D01*
X171264788Y-82348232D01*
X171404928Y-82246414D01*
X171527414Y-82123928D01*
X171629232Y-81983788D01*
X171707873Y-81829445D01*
X171761402Y-81664701D01*
X171788500Y-81493611D01*
X171788500Y-81320389D01*
X171761402Y-81149299D01*
X171707873Y-80984555D01*
X171629232Y-80830212D01*
X171527414Y-80690072D01*
X171404928Y-80567586D01*
X171264788Y-80465768D01*
X171110445Y-80387127D01*
X170945701Y-80333598D01*
X170945699Y-80333597D01*
X170945698Y-80333597D01*
X170814271Y-80312781D01*
X170774611Y-80306500D01*
X170601389Y-80306500D01*
X170561728Y-80312781D01*
X170430302Y-80333597D01*
X170265552Y-80387128D01*
X170111211Y-80465768D01*
X170052395Y-80508501D01*
X169971072Y-80567586D01*
X169971070Y-80567588D01*
X169971069Y-80567588D01*
X169848588Y-80690069D01*
X169848588Y-80690070D01*
X169848586Y-80690072D01*
X169831038Y-80714225D01*
X169746768Y-80830211D01*
X169668128Y-80984552D01*
X169614597Y-81149302D01*
X169595401Y-81270501D01*
X169587500Y-81320389D01*
X155948500Y-81320389D01*
X155948500Y-80582071D01*
X159877499Y-80582071D01*
X159902497Y-80707738D01*
X159902499Y-80707744D01*
X159951533Y-80826124D01*
X159951538Y-80826133D01*
X160022723Y-80932668D01*
X160022726Y-80932672D01*
X160113327Y-81023273D01*
X160113331Y-81023276D01*
X160219866Y-81094461D01*
X160219872Y-81094464D01*
X160219873Y-81094465D01*
X160338256Y-81143501D01*
X160338260Y-81143501D01*
X160338261Y-81143502D01*
X160463928Y-81168500D01*
X160463931Y-81168500D01*
X160592071Y-81168500D01*
X160688596Y-81149299D01*
X160717744Y-81143501D01*
X160836127Y-81094465D01*
X160942669Y-81023276D01*
X161033276Y-80932669D01*
X161104465Y-80826127D01*
X161152951Y-80709071D01*
X162417499Y-80709071D01*
X162442497Y-80834738D01*
X162442499Y-80834744D01*
X162491533Y-80953124D01*
X162491538Y-80953133D01*
X162562723Y-81059668D01*
X162562726Y-81059672D01*
X162653327Y-81150273D01*
X162653331Y-81150276D01*
X162759866Y-81221461D01*
X162759872Y-81221464D01*
X162759873Y-81221465D01*
X162878256Y-81270501D01*
X162878260Y-81270501D01*
X162878261Y-81270502D01*
X163003928Y-81295500D01*
X163003931Y-81295500D01*
X163132071Y-81295500D01*
X163223700Y-81277273D01*
X163257744Y-81270501D01*
X163376127Y-81221465D01*
X163384414Y-81215928D01*
X163389672Y-81212415D01*
X163428204Y-81186668D01*
X163482669Y-81150276D01*
X163573276Y-81059669D01*
X163644465Y-80953127D01*
X163693501Y-80834744D01*
X163705440Y-80774723D01*
X163718500Y-80709071D01*
X163718500Y-80580928D01*
X163693502Y-80455261D01*
X163693501Y-80455260D01*
X163693501Y-80455256D01*
X163644465Y-80336873D01*
X163644464Y-80336872D01*
X163644461Y-80336866D01*
X163573276Y-80230331D01*
X163573273Y-80230327D01*
X163482672Y-80139726D01*
X163482668Y-80139723D01*
X163376133Y-80068538D01*
X163376124Y-80068533D01*
X163257744Y-80019499D01*
X163257738Y-80019497D01*
X163132071Y-79994500D01*
X163132069Y-79994500D01*
X163003931Y-79994500D01*
X163003929Y-79994500D01*
X162878261Y-80019497D01*
X162878255Y-80019499D01*
X162759875Y-80068533D01*
X162759866Y-80068538D01*
X162653331Y-80139723D01*
X162653327Y-80139726D01*
X162562726Y-80230327D01*
X162562723Y-80230331D01*
X162491538Y-80336866D01*
X162491533Y-80336875D01*
X162442499Y-80455255D01*
X162442497Y-80455261D01*
X162417500Y-80580928D01*
X162417500Y-80580931D01*
X162417500Y-80709069D01*
X162417500Y-80709071D01*
X162417499Y-80709071D01*
X161152951Y-80709071D01*
X161153501Y-80707744D01*
X161169065Y-80629500D01*
X161178500Y-80582071D01*
X161178500Y-80453928D01*
X161153502Y-80328261D01*
X161153501Y-80328260D01*
X161153501Y-80328256D01*
X161104465Y-80209873D01*
X161104464Y-80209872D01*
X161104461Y-80209866D01*
X161033276Y-80103331D01*
X161033273Y-80103327D01*
X160942672Y-80012726D01*
X160942668Y-80012723D01*
X160836133Y-79941538D01*
X160836124Y-79941533D01*
X160717744Y-79892499D01*
X160717738Y-79892497D01*
X160592071Y-79867500D01*
X160592069Y-79867500D01*
X160463931Y-79867500D01*
X160463929Y-79867500D01*
X160338261Y-79892497D01*
X160338255Y-79892499D01*
X160219875Y-79941533D01*
X160219866Y-79941538D01*
X160113331Y-80012723D01*
X160113327Y-80012726D01*
X160022726Y-80103327D01*
X160022723Y-80103331D01*
X159951538Y-80209866D01*
X159951533Y-80209875D01*
X159902499Y-80328255D01*
X159902497Y-80328261D01*
X159877500Y-80453928D01*
X159877500Y-80453931D01*
X159877500Y-80582069D01*
X159877500Y-80582071D01*
X159877499Y-80582071D01*
X155948500Y-80582071D01*
X155948500Y-79760676D01*
X155968185Y-79693637D01*
X155984819Y-79672995D01*
X156426830Y-79230984D01*
X156874040Y-78783773D01*
X156935361Y-78750290D01*
X156937528Y-78749839D01*
X156938004Y-78749744D01*
X157034744Y-78730501D01*
X157153127Y-78681465D01*
X157259669Y-78610276D01*
X157350276Y-78519669D01*
X157421465Y-78413127D01*
X157470501Y-78294744D01*
X157495500Y-78169069D01*
X157495500Y-78040931D01*
X157495500Y-78040928D01*
X157470502Y-77915261D01*
X157470501Y-77915260D01*
X157470501Y-77915256D01*
X157421465Y-77796873D01*
X157421464Y-77796872D01*
X157421461Y-77796866D01*
X157350276Y-77690331D01*
X157350273Y-77690327D01*
X157259672Y-77599726D01*
X157259668Y-77599723D01*
X157153133Y-77528538D01*
X157153124Y-77528533D01*
X157034744Y-77479499D01*
X157034738Y-77479497D01*
X156909071Y-77454500D01*
X156909069Y-77454500D01*
X156780931Y-77454500D01*
X156780929Y-77454500D01*
X156655261Y-77479497D01*
X156655255Y-77479499D01*
X156536875Y-77528533D01*
X156536866Y-77528538D01*
X156430331Y-77599723D01*
X156430327Y-77599726D01*
X156339726Y-77690327D01*
X156339723Y-77690331D01*
X156268538Y-77796866D01*
X156268533Y-77796875D01*
X156219499Y-77915255D01*
X156219497Y-77915260D01*
X156200160Y-78012473D01*
X156167774Y-78074383D01*
X156166224Y-78075961D01*
X155140686Y-79101500D01*
X155047502Y-79194683D01*
X155047500Y-79194686D01*
X154981608Y-79308812D01*
X154947500Y-79436108D01*
X154947500Y-81290500D01*
X154927815Y-81357539D01*
X154875011Y-81403294D01*
X154823500Y-81414500D01*
X150149105Y-81414500D01*
X150119250Y-81422499D01*
X150119251Y-81422500D01*
X150021814Y-81448608D01*
X150021812Y-81448608D01*
X150021812Y-81448609D01*
X149907686Y-81514500D01*
X149907683Y-81514502D01*
X142601502Y-88820683D01*
X142601500Y-88820686D01*
X142535608Y-88934812D01*
X142501500Y-89062108D01*
X142501500Y-90419324D01*
X142481815Y-90486363D01*
X142465181Y-90507005D01*
X137243005Y-95729181D01*
X137181682Y-95762666D01*
X137155324Y-95765500D01*
X127863108Y-95765500D01*
X127735812Y-95799608D01*
X127621686Y-95865500D01*
X127621683Y-95865502D01*
X126857004Y-96630181D01*
X126795681Y-96663666D01*
X126769323Y-96666500D01*
X125630129Y-96666500D01*
X125630123Y-96666501D01*
X125570516Y-96672908D01*
X125435671Y-96723202D01*
X125435664Y-96723206D01*
X125320455Y-96809452D01*
X125320452Y-96809455D01*
X125234206Y-96924664D01*
X125234202Y-96924671D01*
X125183908Y-97059517D01*
X125177501Y-97119116D01*
X125177500Y-97119135D01*
X119962686Y-97119135D01*
X120446976Y-93817156D01*
X121757499Y-93817156D01*
X121793065Y-93995952D01*
X121793068Y-93995962D01*
X121862831Y-94164387D01*
X121862833Y-94164391D01*
X121964113Y-94315967D01*
X121964119Y-94315975D01*
X122093024Y-94444880D01*
X122093032Y-94444886D01*
X122244608Y-94546166D01*
X122244612Y-94546168D01*
X122404206Y-94612273D01*
X122413042Y-94615933D01*
X122413046Y-94615933D01*
X122413047Y-94615934D01*
X122591843Y-94651500D01*
X122591846Y-94651500D01*
X122774156Y-94651500D01*
X122901936Y-94626082D01*
X122952958Y-94615933D01*
X123121389Y-94546167D01*
X123121391Y-94546166D01*
X123206889Y-94489038D01*
X123272972Y-94444883D01*
X123401883Y-94315972D01*
X123469309Y-94215062D01*
X123503166Y-94164391D01*
X123503168Y-94164387D01*
X123568439Y-94006808D01*
X123612280Y-93952404D01*
X123678574Y-93930339D01*
X123746273Y-93947618D01*
X123793884Y-93998755D01*
X123797561Y-94006808D01*
X123862831Y-94164387D01*
X123862833Y-94164391D01*
X123964113Y-94315967D01*
X123964119Y-94315975D01*
X124093024Y-94444880D01*
X124093032Y-94444886D01*
X124244608Y-94546166D01*
X124244612Y-94546168D01*
X124404206Y-94612273D01*
X124413042Y-94615933D01*
X124413046Y-94615933D01*
X124413047Y-94615934D01*
X124591843Y-94651500D01*
X124591846Y-94651500D01*
X124774156Y-94651500D01*
X124901936Y-94626082D01*
X124952958Y-94615933D01*
X125121389Y-94546167D01*
X125121391Y-94546166D01*
X125206889Y-94489038D01*
X125272972Y-94444883D01*
X125401883Y-94315972D01*
X125469309Y-94215062D01*
X125503166Y-94164391D01*
X125503168Y-94164387D01*
X125568439Y-94006808D01*
X125612280Y-93952404D01*
X125678574Y-93930339D01*
X125746273Y-93947618D01*
X125793884Y-93998755D01*
X125797561Y-94006808D01*
X125862831Y-94164387D01*
X125862833Y-94164391D01*
X125964113Y-94315967D01*
X125964119Y-94315975D01*
X126093024Y-94444880D01*
X126093032Y-94444886D01*
X126244608Y-94546166D01*
X126244612Y-94546168D01*
X126404206Y-94612273D01*
X126413042Y-94615933D01*
X126413046Y-94615933D01*
X126413047Y-94615934D01*
X126591843Y-94651500D01*
X126591846Y-94651500D01*
X126774156Y-94651500D01*
X126901936Y-94626082D01*
X126952958Y-94615933D01*
X127121389Y-94546167D01*
X127121391Y-94546166D01*
X127206889Y-94489038D01*
X127272972Y-94444883D01*
X127401883Y-94315972D01*
X127433553Y-94268574D01*
X127487164Y-94223770D01*
X127556489Y-94215062D01*
X127619517Y-94245216D01*
X127647140Y-94281170D01*
X127678052Y-94341837D01*
X127786754Y-94491454D01*
X127786758Y-94491459D01*
X127917540Y-94622241D01*
X127917545Y-94622245D01*
X128067162Y-94730947D01*
X128231956Y-94814915D01*
X128231959Y-94814916D01*
X128407845Y-94872064D01*
X128407858Y-94872067D01*
X128433000Y-94876049D01*
X128433000Y-94041686D01*
X128437394Y-94046080D01*
X128528606Y-94098741D01*
X128630339Y-94126000D01*
X128735661Y-94126000D01*
X128837394Y-94098741D01*
X128928606Y-94046080D01*
X128933000Y-94041686D01*
X128933000Y-94876048D01*
X128958141Y-94872067D01*
X128958154Y-94872064D01*
X129134040Y-94814916D01*
X129134043Y-94814915D01*
X129298837Y-94730947D01*
X129448454Y-94622245D01*
X129448459Y-94622241D01*
X129582685Y-94488016D01*
X129583707Y-94489038D01*
X129636782Y-94454379D01*
X129706649Y-94453869D01*
X129765702Y-94491213D01*
X129775684Y-94504203D01*
X129827399Y-94581601D01*
X129878783Y-94615934D01*
X129910260Y-94636966D01*
X129910264Y-94636967D01*
X129983321Y-94651499D01*
X129983324Y-94651500D01*
X129983326Y-94651500D01*
X131382676Y-94651500D01*
X131382677Y-94651499D01*
X131455740Y-94636966D01*
X131538601Y-94581601D01*
X131593966Y-94498740D01*
X131608500Y-94425674D01*
X131608500Y-93026326D01*
X131608500Y-93026323D01*
X131608499Y-93026321D01*
X131593967Y-92953264D01*
X131593966Y-92953260D01*
X131568008Y-92914411D01*
X131538601Y-92870399D01*
X131477776Y-92829758D01*
X131455739Y-92815033D01*
X131455735Y-92815032D01*
X131382677Y-92800500D01*
X131382674Y-92800500D01*
X129983326Y-92800500D01*
X129983323Y-92800500D01*
X129910264Y-92815032D01*
X129910260Y-92815033D01*
X129827398Y-92870399D01*
X129775687Y-92947792D01*
X129722075Y-92992597D01*
X129652750Y-93001304D01*
X129589723Y-92971150D01*
X129582709Y-92963959D01*
X129582685Y-92963984D01*
X129448459Y-92829758D01*
X129448454Y-92829754D01*
X129298837Y-92721052D01*
X129134043Y-92637084D01*
X129134037Y-92637082D01*
X128958144Y-92579932D01*
X128933000Y-92575950D01*
X128933000Y-93410314D01*
X128928606Y-93405920D01*
X128837394Y-93353259D01*
X128735661Y-93326000D01*
X128630339Y-93326000D01*
X128528606Y-93353259D01*
X128437394Y-93405920D01*
X128433000Y-93410314D01*
X128433000Y-92575950D01*
X128432999Y-92575950D01*
X128407855Y-92579932D01*
X128231962Y-92637082D01*
X128231956Y-92637084D01*
X128067162Y-92721052D01*
X127917545Y-92829754D01*
X127917540Y-92829758D01*
X127786758Y-92960540D01*
X127786754Y-92960545D01*
X127678050Y-93110164D01*
X127647139Y-93170830D01*
X127599164Y-93221625D01*
X127531343Y-93238420D01*
X127465209Y-93215882D01*
X127433553Y-93183425D01*
X127401883Y-93136028D01*
X127401880Y-93136024D01*
X127272975Y-93007119D01*
X127272967Y-93007113D01*
X127121391Y-92905833D01*
X127121387Y-92905831D01*
X126952962Y-92836068D01*
X126952952Y-92836065D01*
X126774156Y-92800500D01*
X126774154Y-92800500D01*
X126591846Y-92800500D01*
X126591844Y-92800500D01*
X126413047Y-92836065D01*
X126413037Y-92836068D01*
X126244612Y-92905831D01*
X126244608Y-92905833D01*
X126093032Y-93007113D01*
X126093024Y-93007119D01*
X125964119Y-93136024D01*
X125964113Y-93136032D01*
X125862833Y-93287608D01*
X125797561Y-93445192D01*
X125753720Y-93499595D01*
X125687426Y-93521660D01*
X125619727Y-93504381D01*
X125572116Y-93453244D01*
X125568439Y-93445192D01*
X125503166Y-93287608D01*
X125401886Y-93136032D01*
X125401880Y-93136024D01*
X125272975Y-93007119D01*
X125272967Y-93007113D01*
X125121391Y-92905833D01*
X125121387Y-92905831D01*
X124952962Y-92836068D01*
X124952952Y-92836065D01*
X124774156Y-92800500D01*
X124774154Y-92800500D01*
X124591846Y-92800500D01*
X124591844Y-92800500D01*
X124413047Y-92836065D01*
X124413037Y-92836068D01*
X124244612Y-92905831D01*
X124244608Y-92905833D01*
X124093032Y-93007113D01*
X124093024Y-93007119D01*
X123964119Y-93136024D01*
X123964113Y-93136032D01*
X123862833Y-93287608D01*
X123797561Y-93445192D01*
X123753720Y-93499595D01*
X123687426Y-93521660D01*
X123619727Y-93504381D01*
X123572116Y-93453244D01*
X123568439Y-93445192D01*
X123503166Y-93287608D01*
X123401886Y-93136032D01*
X123401880Y-93136024D01*
X123272975Y-93007119D01*
X123272967Y-93007113D01*
X123121391Y-92905833D01*
X123121387Y-92905831D01*
X122952962Y-92836068D01*
X122952952Y-92836065D01*
X122774156Y-92800500D01*
X122774154Y-92800500D01*
X122591846Y-92800500D01*
X122591844Y-92800500D01*
X122413047Y-92836065D01*
X122413037Y-92836068D01*
X122244612Y-92905831D01*
X122244608Y-92905833D01*
X122093032Y-93007113D01*
X122093024Y-93007119D01*
X121964119Y-93136024D01*
X121964113Y-93136032D01*
X121862833Y-93287608D01*
X121862831Y-93287612D01*
X121793068Y-93456037D01*
X121793065Y-93456047D01*
X121757500Y-93634843D01*
X121757500Y-93634846D01*
X121757500Y-93817154D01*
X121757500Y-93817156D01*
X121757499Y-93817156D01*
X120446976Y-93817156D01*
X120772187Y-91599809D01*
X120797547Y-91540972D01*
X122682000Y-89154000D01*
X122682000Y-88837071D01*
X123047499Y-88837071D01*
X123072497Y-88962738D01*
X123072499Y-88962744D01*
X123121533Y-89081124D01*
X123121538Y-89081133D01*
X123192723Y-89187668D01*
X123192726Y-89187672D01*
X123283327Y-89278273D01*
X123283331Y-89278276D01*
X123389866Y-89349461D01*
X123389872Y-89349464D01*
X123389873Y-89349465D01*
X123508256Y-89398501D01*
X123508260Y-89398501D01*
X123508261Y-89398502D01*
X123633928Y-89423500D01*
X123633931Y-89423500D01*
X123762071Y-89423500D01*
X123858214Y-89404375D01*
X123887744Y-89398501D01*
X124006127Y-89349465D01*
X124112669Y-89278276D01*
X124203276Y-89187669D01*
X124274465Y-89081127D01*
X124323501Y-88962744D01*
X124348500Y-88837071D01*
X128000499Y-88837071D01*
X128025497Y-88962738D01*
X128025499Y-88962744D01*
X128074533Y-89081124D01*
X128074538Y-89081133D01*
X128145723Y-89187668D01*
X128145726Y-89187672D01*
X128236327Y-89278273D01*
X128236331Y-89278276D01*
X128342866Y-89349461D01*
X128342872Y-89349464D01*
X128342873Y-89349465D01*
X128461256Y-89398501D01*
X128461260Y-89398501D01*
X128461261Y-89398502D01*
X128586928Y-89423500D01*
X128586931Y-89423500D01*
X128715071Y-89423500D01*
X128811214Y-89404375D01*
X128840744Y-89398501D01*
X128959127Y-89349465D01*
X129065669Y-89278276D01*
X129156276Y-89187669D01*
X129182898Y-89147825D01*
X129236509Y-89103022D01*
X129305834Y-89094314D01*
X129368862Y-89124468D01*
X129389100Y-89147824D01*
X129403886Y-89169952D01*
X129415725Y-89187671D01*
X129506327Y-89278273D01*
X129506331Y-89278276D01*
X129612866Y-89349461D01*
X129612872Y-89349464D01*
X129612873Y-89349465D01*
X129731256Y-89398501D01*
X129731260Y-89398501D01*
X129731261Y-89398502D01*
X129856928Y-89423500D01*
X129856931Y-89423500D01*
X129985071Y-89423500D01*
X130081214Y-89404375D01*
X130110744Y-89398501D01*
X130229127Y-89349465D01*
X130335669Y-89278276D01*
X130426276Y-89187669D01*
X130452898Y-89147825D01*
X130506509Y-89103022D01*
X130575834Y-89094314D01*
X130638862Y-89124468D01*
X130659100Y-89147824D01*
X130673886Y-89169952D01*
X130685725Y-89187671D01*
X130776327Y-89278273D01*
X130776331Y-89278276D01*
X130882866Y-89349461D01*
X130882872Y-89349464D01*
X130882873Y-89349465D01*
X131001256Y-89398501D01*
X131001260Y-89398501D01*
X131001261Y-89398502D01*
X131126928Y-89423500D01*
X131126931Y-89423500D01*
X131255071Y-89423500D01*
X131351214Y-89404375D01*
X131380744Y-89398501D01*
X131499127Y-89349465D01*
X131605669Y-89278276D01*
X131696276Y-89187669D01*
X131767465Y-89081127D01*
X131816501Y-88962744D01*
X131841500Y-88837069D01*
X131841500Y-88710071D01*
X134477499Y-88710071D01*
X134502497Y-88835738D01*
X134502499Y-88835744D01*
X134551533Y-88954124D01*
X134551538Y-88954133D01*
X134622723Y-89060668D01*
X134622726Y-89060672D01*
X134713327Y-89151273D01*
X134713331Y-89151276D01*
X134819866Y-89222461D01*
X134819872Y-89222464D01*
X134819873Y-89222465D01*
X134938256Y-89271501D01*
X134938260Y-89271501D01*
X134938261Y-89271502D01*
X135063928Y-89296500D01*
X135063931Y-89296500D01*
X135192071Y-89296500D01*
X135288596Y-89277299D01*
X135317744Y-89271501D01*
X135436127Y-89222465D01*
X135542669Y-89151276D01*
X135633276Y-89060669D01*
X135659898Y-89020825D01*
X135713509Y-88976022D01*
X135782834Y-88967314D01*
X135845862Y-88997468D01*
X135866100Y-89020824D01*
X135882509Y-89045382D01*
X135892725Y-89060671D01*
X135983327Y-89151273D01*
X135983331Y-89151276D01*
X136089866Y-89222461D01*
X136089872Y-89222464D01*
X136089873Y-89222465D01*
X136208256Y-89271501D01*
X136208260Y-89271501D01*
X136208261Y-89271502D01*
X136333928Y-89296500D01*
X136333931Y-89296500D01*
X136462071Y-89296500D01*
X136558596Y-89277299D01*
X136587744Y-89271501D01*
X136706127Y-89222465D01*
X136812669Y-89151276D01*
X136903276Y-89060669D01*
X136929898Y-89020825D01*
X136983509Y-88976022D01*
X137052834Y-88967314D01*
X137115862Y-88997468D01*
X137136100Y-89020824D01*
X137152509Y-89045382D01*
X137162725Y-89060671D01*
X137253327Y-89151273D01*
X137253331Y-89151276D01*
X137359866Y-89222461D01*
X137359872Y-89222464D01*
X137359873Y-89222465D01*
X137478256Y-89271501D01*
X137478260Y-89271501D01*
X137478261Y-89271502D01*
X137603928Y-89296500D01*
X137603931Y-89296500D01*
X137732071Y-89296500D01*
X137828596Y-89277299D01*
X137857744Y-89271501D01*
X137976127Y-89222465D01*
X138082669Y-89151276D01*
X138173276Y-89060669D01*
X138244465Y-88954127D01*
X138293501Y-88835744D01*
X138309713Y-88754244D01*
X138318500Y-88710071D01*
X138318500Y-88581928D01*
X138293502Y-88456261D01*
X138293501Y-88456260D01*
X138293501Y-88456256D01*
X138244465Y-88337873D01*
X138244464Y-88337872D01*
X138244461Y-88337866D01*
X138173276Y-88231331D01*
X138173273Y-88231327D01*
X138082672Y-88140726D01*
X138082668Y-88140723D01*
X137976133Y-88069538D01*
X137976124Y-88069533D01*
X137857744Y-88020499D01*
X137857738Y-88020497D01*
X137732071Y-87995500D01*
X137732069Y-87995500D01*
X137603931Y-87995500D01*
X137603929Y-87995500D01*
X137478261Y-88020497D01*
X137478255Y-88020499D01*
X137359875Y-88069533D01*
X137359866Y-88069538D01*
X137253331Y-88140723D01*
X137253327Y-88140726D01*
X137162726Y-88231327D01*
X137162723Y-88231331D01*
X137136102Y-88271173D01*
X137082490Y-88315978D01*
X137013165Y-88324685D01*
X136950137Y-88294530D01*
X136929898Y-88271173D01*
X136903276Y-88231331D01*
X136903273Y-88231327D01*
X136812672Y-88140726D01*
X136812668Y-88140723D01*
X136706133Y-88069538D01*
X136706124Y-88069533D01*
X136587744Y-88020499D01*
X136587738Y-88020497D01*
X136462071Y-87995500D01*
X136462069Y-87995500D01*
X136333931Y-87995500D01*
X136333929Y-87995500D01*
X136208261Y-88020497D01*
X136208255Y-88020499D01*
X136089875Y-88069533D01*
X136089866Y-88069538D01*
X135983331Y-88140723D01*
X135983327Y-88140726D01*
X135892726Y-88231327D01*
X135892723Y-88231331D01*
X135866102Y-88271173D01*
X135812490Y-88315978D01*
X135743165Y-88324685D01*
X135680137Y-88294530D01*
X135659898Y-88271173D01*
X135633276Y-88231331D01*
X135633273Y-88231327D01*
X135542672Y-88140726D01*
X135542668Y-88140723D01*
X135436133Y-88069538D01*
X135436124Y-88069533D01*
X135317744Y-88020499D01*
X135317738Y-88020497D01*
X135192071Y-87995500D01*
X135192069Y-87995500D01*
X135063931Y-87995500D01*
X135063929Y-87995500D01*
X134938261Y-88020497D01*
X134938255Y-88020499D01*
X134819875Y-88069533D01*
X134819866Y-88069538D01*
X134713331Y-88140723D01*
X134713327Y-88140726D01*
X134622726Y-88231327D01*
X134622723Y-88231331D01*
X134551538Y-88337866D01*
X134551533Y-88337875D01*
X134502499Y-88456255D01*
X134502497Y-88456261D01*
X134477500Y-88581928D01*
X134477500Y-88581931D01*
X134477500Y-88710069D01*
X134477500Y-88710071D01*
X134477499Y-88710071D01*
X131841500Y-88710071D01*
X131841500Y-88708931D01*
X131841500Y-88708928D01*
X131819838Y-88600031D01*
X131819838Y-88600030D01*
X131817566Y-88588611D01*
X131816501Y-88583256D01*
X131767465Y-88464873D01*
X131767464Y-88464872D01*
X131767461Y-88464866D01*
X131696276Y-88358331D01*
X131696273Y-88358327D01*
X131605672Y-88267726D01*
X131605668Y-88267723D01*
X131499133Y-88196538D01*
X131499124Y-88196533D01*
X131380744Y-88147499D01*
X131380738Y-88147497D01*
X131255071Y-88122500D01*
X131255069Y-88122500D01*
X131126931Y-88122500D01*
X131126929Y-88122500D01*
X131001261Y-88147497D01*
X131001255Y-88147499D01*
X130882875Y-88196533D01*
X130882866Y-88196538D01*
X130776331Y-88267723D01*
X130776327Y-88267726D01*
X130685726Y-88358327D01*
X130685723Y-88358331D01*
X130659102Y-88398173D01*
X130605490Y-88442978D01*
X130536165Y-88451685D01*
X130473137Y-88421530D01*
X130452898Y-88398173D01*
X130426276Y-88358331D01*
X130426273Y-88358327D01*
X130335672Y-88267726D01*
X130335668Y-88267723D01*
X130229133Y-88196538D01*
X130229124Y-88196533D01*
X130110744Y-88147499D01*
X130110738Y-88147497D01*
X129985071Y-88122500D01*
X129985069Y-88122500D01*
X129856931Y-88122500D01*
X129856929Y-88122500D01*
X129731261Y-88147497D01*
X129731255Y-88147499D01*
X129612875Y-88196533D01*
X129612866Y-88196538D01*
X129506331Y-88267723D01*
X129506327Y-88267726D01*
X129415726Y-88358327D01*
X129415723Y-88358331D01*
X129389102Y-88398173D01*
X129335490Y-88442978D01*
X129266165Y-88451685D01*
X129203137Y-88421530D01*
X129182898Y-88398173D01*
X129156276Y-88358331D01*
X129156273Y-88358327D01*
X129065672Y-88267726D01*
X129065668Y-88267723D01*
X128959133Y-88196538D01*
X128959124Y-88196533D01*
X128840744Y-88147499D01*
X128840738Y-88147497D01*
X128715071Y-88122500D01*
X128715069Y-88122500D01*
X128586931Y-88122500D01*
X128586929Y-88122500D01*
X128461261Y-88147497D01*
X128461255Y-88147499D01*
X128342875Y-88196533D01*
X128342866Y-88196538D01*
X128236331Y-88267723D01*
X128236327Y-88267726D01*
X128145726Y-88358327D01*
X128145723Y-88358331D01*
X128074538Y-88464866D01*
X128074533Y-88464875D01*
X128025499Y-88583255D01*
X128025497Y-88583261D01*
X128000500Y-88708928D01*
X128000500Y-88708931D01*
X128000500Y-88837069D01*
X128000500Y-88837071D01*
X128000499Y-88837071D01*
X124348500Y-88837071D01*
X124348500Y-88837069D01*
X124348500Y-88708931D01*
X124348500Y-88708928D01*
X124323502Y-88583261D01*
X124323501Y-88583260D01*
X124323501Y-88583256D01*
X124274465Y-88464873D01*
X124274464Y-88464872D01*
X124274461Y-88464866D01*
X124203276Y-88358331D01*
X124203273Y-88358327D01*
X124112672Y-88267726D01*
X124112668Y-88267723D01*
X124006133Y-88196538D01*
X124006124Y-88196533D01*
X123887744Y-88147499D01*
X123887738Y-88147497D01*
X123762071Y-88122500D01*
X123762069Y-88122500D01*
X123633931Y-88122500D01*
X123633929Y-88122500D01*
X123508261Y-88147497D01*
X123508255Y-88147499D01*
X123389875Y-88196533D01*
X123389866Y-88196538D01*
X123283331Y-88267723D01*
X123283327Y-88267726D01*
X123192726Y-88358327D01*
X123192723Y-88358331D01*
X123121538Y-88464866D01*
X123121533Y-88464875D01*
X123072499Y-88583255D01*
X123072497Y-88583261D01*
X123047500Y-88708928D01*
X123047500Y-88708931D01*
X123047500Y-88837069D01*
X123047500Y-88837071D01*
X123047499Y-88837071D01*
X122682000Y-88837071D01*
X122682000Y-84646071D01*
X134858499Y-84646071D01*
X134883497Y-84771738D01*
X134883499Y-84771744D01*
X134932533Y-84890124D01*
X134932538Y-84890133D01*
X135003723Y-84996668D01*
X135003726Y-84996672D01*
X135009373Y-85002319D01*
X135042858Y-85063642D01*
X135037874Y-85133334D01*
X135009373Y-85177681D01*
X135003726Y-85183327D01*
X135003723Y-85183331D01*
X134932538Y-85289866D01*
X134932533Y-85289875D01*
X134883499Y-85408255D01*
X134883497Y-85408261D01*
X134858500Y-85533928D01*
X134858500Y-85533931D01*
X134858500Y-85662069D01*
X134858500Y-85662071D01*
X134858499Y-85662071D01*
X134883497Y-85787738D01*
X134883499Y-85787744D01*
X134932533Y-85906124D01*
X134932538Y-85906133D01*
X135003723Y-86012668D01*
X135003726Y-86012672D01*
X135094327Y-86103273D01*
X135094331Y-86103276D01*
X135200866Y-86174461D01*
X135200875Y-86174466D01*
X135227692Y-86185574D01*
X135319256Y-86223501D01*
X135319260Y-86223501D01*
X135319261Y-86223502D01*
X135444928Y-86248500D01*
X135444931Y-86248500D01*
X135573071Y-86248500D01*
X135657615Y-86231682D01*
X135698744Y-86223501D01*
X135817127Y-86174465D01*
X135923669Y-86103276D01*
X136014276Y-86012669D01*
X136085465Y-85906127D01*
X136134501Y-85787744D01*
X136148871Y-85715502D01*
X136159500Y-85662071D01*
X136159500Y-85533928D01*
X136134502Y-85408261D01*
X136134501Y-85408260D01*
X136134501Y-85408256D01*
X136085465Y-85289873D01*
X136085464Y-85289872D01*
X136085461Y-85289866D01*
X136014277Y-85183333D01*
X136014276Y-85183331D01*
X136008628Y-85177683D01*
X135975142Y-85116364D01*
X135980123Y-85046672D01*
X136008628Y-85002316D01*
X136014276Y-84996669D01*
X136085465Y-84890127D01*
X136134501Y-84771744D01*
X136142682Y-84730615D01*
X136159500Y-84646071D01*
X136159500Y-84517928D01*
X136134502Y-84392261D01*
X136134501Y-84392260D01*
X136134501Y-84392256D01*
X136085465Y-84273873D01*
X136085464Y-84273872D01*
X136085461Y-84273866D01*
X136014276Y-84167331D01*
X136014273Y-84167327D01*
X135923672Y-84076726D01*
X135923668Y-84076723D01*
X135817133Y-84005538D01*
X135817124Y-84005533D01*
X135698744Y-83956499D01*
X135698738Y-83956497D01*
X135573071Y-83931500D01*
X135573069Y-83931500D01*
X135444931Y-83931500D01*
X135444929Y-83931500D01*
X135319261Y-83956497D01*
X135319255Y-83956499D01*
X135200875Y-84005533D01*
X135200866Y-84005538D01*
X135094331Y-84076723D01*
X135094327Y-84076726D01*
X135003726Y-84167327D01*
X135003723Y-84167331D01*
X134932538Y-84273866D01*
X134932533Y-84273875D01*
X134883499Y-84392255D01*
X134883497Y-84392261D01*
X134858500Y-84517928D01*
X134858500Y-84517931D01*
X134858500Y-84646069D01*
X134858500Y-84646071D01*
X134858499Y-84646071D01*
X122682000Y-84646071D01*
X122682000Y-82487071D01*
X134477499Y-82487071D01*
X134502497Y-82612738D01*
X134502499Y-82612744D01*
X134551533Y-82731124D01*
X134551538Y-82731133D01*
X134622723Y-82837668D01*
X134622726Y-82837672D01*
X134713327Y-82928273D01*
X134713331Y-82928276D01*
X134819866Y-82999461D01*
X134819872Y-82999464D01*
X134819873Y-82999465D01*
X134938256Y-83048501D01*
X134938260Y-83048501D01*
X134938261Y-83048502D01*
X135063928Y-83073500D01*
X135063931Y-83073500D01*
X135192071Y-83073500D01*
X135294654Y-83053094D01*
X135317744Y-83048501D01*
X135436127Y-82999465D01*
X135542669Y-82928276D01*
X135633276Y-82837669D01*
X135704465Y-82731127D01*
X135753501Y-82612744D01*
X135767871Y-82540502D01*
X135778500Y-82487071D01*
X135778500Y-82358928D01*
X135753502Y-82233261D01*
X135753501Y-82233260D01*
X135753501Y-82233256D01*
X135704465Y-82114873D01*
X135704464Y-82114872D01*
X135704461Y-82114866D01*
X135633276Y-82008331D01*
X135633273Y-82008327D01*
X135604017Y-81979071D01*
X136128499Y-81979071D01*
X136153497Y-82104738D01*
X136153499Y-82104744D01*
X136202533Y-82223124D01*
X136202538Y-82223133D01*
X136273723Y-82329668D01*
X136273726Y-82329672D01*
X136364327Y-82420273D01*
X136364331Y-82420276D01*
X136470866Y-82491461D01*
X136470872Y-82491464D01*
X136470873Y-82491465D01*
X136589256Y-82540501D01*
X136589260Y-82540501D01*
X136589261Y-82540502D01*
X136714928Y-82565500D01*
X136714931Y-82565500D01*
X136843071Y-82565500D01*
X136927615Y-82548682D01*
X136968744Y-82540501D01*
X137087127Y-82491465D01*
X137193669Y-82420276D01*
X137284276Y-82329669D01*
X137355465Y-82223127D01*
X137404501Y-82104744D01*
X137416440Y-82044723D01*
X137429500Y-81979071D01*
X137429500Y-81850928D01*
X137404502Y-81725261D01*
X137404501Y-81725260D01*
X137404501Y-81725256D01*
X137355465Y-81606873D01*
X137355464Y-81606872D01*
X137355461Y-81606866D01*
X137284276Y-81500331D01*
X137284273Y-81500327D01*
X137193672Y-81409726D01*
X137193668Y-81409723D01*
X137087133Y-81338538D01*
X137087124Y-81338533D01*
X136968744Y-81289499D01*
X136968738Y-81289497D01*
X136843071Y-81264500D01*
X136843069Y-81264500D01*
X136714931Y-81264500D01*
X136714929Y-81264500D01*
X136589261Y-81289497D01*
X136589255Y-81289499D01*
X136470875Y-81338533D01*
X136470866Y-81338538D01*
X136364331Y-81409723D01*
X136364327Y-81409726D01*
X136273726Y-81500327D01*
X136273723Y-81500331D01*
X136202538Y-81606866D01*
X136202533Y-81606875D01*
X136153499Y-81725255D01*
X136153497Y-81725261D01*
X136128500Y-81850928D01*
X136128500Y-81850931D01*
X136128500Y-81979069D01*
X136128500Y-81979071D01*
X136128499Y-81979071D01*
X135604017Y-81979071D01*
X135542672Y-81917726D01*
X135542668Y-81917723D01*
X135436133Y-81846538D01*
X135436124Y-81846533D01*
X135317744Y-81797499D01*
X135317738Y-81797497D01*
X135192071Y-81772500D01*
X135192069Y-81772500D01*
X135063931Y-81772500D01*
X135063929Y-81772500D01*
X134938261Y-81797497D01*
X134938255Y-81797499D01*
X134819875Y-81846533D01*
X134819866Y-81846538D01*
X134713331Y-81917723D01*
X134713327Y-81917726D01*
X134622726Y-82008327D01*
X134622723Y-82008331D01*
X134551538Y-82114866D01*
X134551533Y-82114875D01*
X134502499Y-82233255D01*
X134502497Y-82233261D01*
X134477500Y-82358928D01*
X134477500Y-82358931D01*
X134477500Y-82487069D01*
X134477500Y-82487071D01*
X134477499Y-82487071D01*
X122682000Y-82487071D01*
X122682000Y-80836071D01*
X132064499Y-80836071D01*
X132089497Y-80961738D01*
X132089499Y-80961744D01*
X132138533Y-81080124D01*
X132138538Y-81080133D01*
X132209723Y-81186668D01*
X132209726Y-81186672D01*
X132300327Y-81277273D01*
X132300331Y-81277276D01*
X132406866Y-81348461D01*
X132406875Y-81348466D01*
X132433692Y-81359574D01*
X132525256Y-81397501D01*
X132525260Y-81397501D01*
X132525261Y-81397502D01*
X132650928Y-81422500D01*
X132650931Y-81422500D01*
X132779071Y-81422500D01*
X132875621Y-81403294D01*
X132904744Y-81397501D01*
X133023127Y-81348465D01*
X133129669Y-81277276D01*
X133220276Y-81186669D01*
X133291465Y-81080127D01*
X133340501Y-80961744D01*
X133350585Y-80911048D01*
X133365500Y-80836071D01*
X133365500Y-80707928D01*
X133340502Y-80582261D01*
X133340501Y-80582260D01*
X133340501Y-80582256D01*
X133291465Y-80463873D01*
X133291464Y-80463872D01*
X133291461Y-80463866D01*
X133220276Y-80357331D01*
X133220273Y-80357327D01*
X133129672Y-80266726D01*
X133129668Y-80266723D01*
X133023133Y-80195538D01*
X133023124Y-80195533D01*
X132904744Y-80146499D01*
X132904738Y-80146497D01*
X132779071Y-80121500D01*
X132779069Y-80121500D01*
X132650931Y-80121500D01*
X132650929Y-80121500D01*
X132525261Y-80146497D01*
X132525255Y-80146499D01*
X132406875Y-80195533D01*
X132406866Y-80195538D01*
X132300331Y-80266723D01*
X132300327Y-80266726D01*
X132209726Y-80357327D01*
X132209723Y-80357331D01*
X132138538Y-80463866D01*
X132138533Y-80463875D01*
X132089499Y-80582255D01*
X132089497Y-80582261D01*
X132064500Y-80707928D01*
X132064500Y-80707931D01*
X132064500Y-80836069D01*
X132064500Y-80836071D01*
X132064499Y-80836071D01*
X122682000Y-80836071D01*
X122682000Y-78423071D01*
X139049499Y-78423071D01*
X139074497Y-78548738D01*
X139074499Y-78548744D01*
X139123533Y-78667124D01*
X139123538Y-78667133D01*
X139194723Y-78773668D01*
X139194726Y-78773672D01*
X139285327Y-78864273D01*
X139285331Y-78864276D01*
X139391866Y-78935461D01*
X139391872Y-78935464D01*
X139391873Y-78935465D01*
X139510256Y-78984501D01*
X139510260Y-78984501D01*
X139510261Y-78984502D01*
X139635923Y-79009499D01*
X139635928Y-79009499D01*
X139635931Y-79009500D01*
X139635933Y-79009500D01*
X139638769Y-79009779D01*
X139640165Y-79010342D01*
X139641906Y-79010689D01*
X139641840Y-79011018D01*
X139703559Y-79035934D01*
X139743923Y-79092964D01*
X139747047Y-79162764D01*
X139711938Y-79223172D01*
X139650823Y-79254799D01*
X139637265Y-79257496D01*
X139637255Y-79257499D01*
X139518875Y-79306533D01*
X139518866Y-79306538D01*
X139412331Y-79377723D01*
X139412327Y-79377726D01*
X139321726Y-79468327D01*
X139321723Y-79468331D01*
X139250538Y-79574866D01*
X139250533Y-79574875D01*
X139201499Y-79693255D01*
X139201497Y-79693261D01*
X139176500Y-79818928D01*
X139176500Y-79818931D01*
X139176500Y-79947069D01*
X139176500Y-79947071D01*
X139176499Y-79947071D01*
X139201497Y-80072738D01*
X139201499Y-80072744D01*
X139250533Y-80191124D01*
X139250538Y-80191133D01*
X139321723Y-80297668D01*
X139321726Y-80297672D01*
X139412327Y-80388273D01*
X139412331Y-80388276D01*
X139502872Y-80448774D01*
X139547677Y-80502386D01*
X139556384Y-80571711D01*
X139526230Y-80634739D01*
X139481434Y-80666437D01*
X139391876Y-80703533D01*
X139391866Y-80703538D01*
X139285331Y-80774723D01*
X139285327Y-80774726D01*
X139194726Y-80865327D01*
X139194723Y-80865331D01*
X139123538Y-80971866D01*
X139123533Y-80971875D01*
X139074499Y-81090255D01*
X139074497Y-81090261D01*
X139049500Y-81215928D01*
X139049500Y-81215931D01*
X139049500Y-81344069D01*
X139049500Y-81344071D01*
X139049499Y-81344071D01*
X139074497Y-81469738D01*
X139074499Y-81469744D01*
X139123533Y-81588124D01*
X139123538Y-81588133D01*
X139194723Y-81694668D01*
X139194726Y-81694672D01*
X139285327Y-81785273D01*
X139285331Y-81785276D01*
X139391866Y-81856461D01*
X139391870Y-81856463D01*
X139391873Y-81856465D01*
X139431988Y-81873081D01*
X139457807Y-81883776D01*
X139512210Y-81927617D01*
X139534275Y-81993911D01*
X139516996Y-82061611D01*
X139498036Y-82086017D01*
X139448727Y-82135326D01*
X139448723Y-82135331D01*
X139377538Y-82241866D01*
X139377533Y-82241875D01*
X139328499Y-82360255D01*
X139328497Y-82360261D01*
X139303500Y-82485928D01*
X139303500Y-82485931D01*
X139303500Y-82614069D01*
X139303500Y-82614071D01*
X139303499Y-82614071D01*
X139328497Y-82739738D01*
X139328499Y-82739744D01*
X139377533Y-82858124D01*
X139377538Y-82858133D01*
X139448723Y-82964668D01*
X139448726Y-82964672D01*
X139537148Y-83053094D01*
X139570633Y-83114417D01*
X139565649Y-83184109D01*
X139523777Y-83240042D01*
X139518359Y-83243877D01*
X139412327Y-83314726D01*
X139321726Y-83405327D01*
X139321723Y-83405331D01*
X139250538Y-83511866D01*
X139250533Y-83511875D01*
X139201499Y-83630255D01*
X139201497Y-83630261D01*
X139176500Y-83755928D01*
X139176500Y-83755931D01*
X139176500Y-83884069D01*
X139176500Y-83884071D01*
X139176499Y-83884071D01*
X139201497Y-84009738D01*
X139201499Y-84009744D01*
X139250533Y-84128124D01*
X139250538Y-84128133D01*
X139321723Y-84234668D01*
X139321726Y-84234672D01*
X139412327Y-84325273D01*
X139412331Y-84325276D01*
X139452173Y-84351898D01*
X139496978Y-84405510D01*
X139505685Y-84474835D01*
X139475530Y-84537863D01*
X139452173Y-84558102D01*
X139412331Y-84584723D01*
X139412327Y-84584726D01*
X139321726Y-84675327D01*
X139321723Y-84675331D01*
X139250538Y-84781866D01*
X139250533Y-84781875D01*
X139201499Y-84900255D01*
X139201497Y-84900261D01*
X139176500Y-85025928D01*
X139176500Y-85025931D01*
X139176500Y-85154069D01*
X139176500Y-85154071D01*
X139176499Y-85154071D01*
X139201497Y-85279738D01*
X139201499Y-85279744D01*
X139250533Y-85398124D01*
X139250538Y-85398133D01*
X139321723Y-85504668D01*
X139321726Y-85504672D01*
X139412327Y-85595273D01*
X139412331Y-85595276D01*
X139452173Y-85621898D01*
X139496978Y-85675510D01*
X139505685Y-85744835D01*
X139475530Y-85807863D01*
X139452173Y-85828102D01*
X139412331Y-85854723D01*
X139412327Y-85854726D01*
X139321726Y-85945327D01*
X139321723Y-85945331D01*
X139250538Y-86051866D01*
X139250533Y-86051875D01*
X139201499Y-86170255D01*
X139201497Y-86170261D01*
X139176500Y-86295928D01*
X139176500Y-86295931D01*
X139176500Y-86424069D01*
X139176500Y-86424071D01*
X139176499Y-86424071D01*
X139201497Y-86549738D01*
X139201499Y-86549744D01*
X139250533Y-86668124D01*
X139250538Y-86668133D01*
X139321723Y-86774668D01*
X139321726Y-86774672D01*
X139412327Y-86865273D01*
X139412331Y-86865276D01*
X139518866Y-86936461D01*
X139518872Y-86936464D01*
X139518873Y-86936465D01*
X139637256Y-86985501D01*
X139637260Y-86985501D01*
X139637261Y-86985502D01*
X139762928Y-87010500D01*
X139762931Y-87010500D01*
X139891071Y-87010500D01*
X139982685Y-86992276D01*
X140016744Y-86985501D01*
X140135127Y-86936465D01*
X140241669Y-86865276D01*
X140332276Y-86774669D01*
X140403465Y-86668127D01*
X140452501Y-86549744D01*
X140463391Y-86495000D01*
X140477500Y-86424071D01*
X140477500Y-86295928D01*
X140452502Y-86170261D01*
X140452501Y-86170260D01*
X140452501Y-86170256D01*
X140403465Y-86051873D01*
X140403464Y-86051872D01*
X140403461Y-86051866D01*
X140332276Y-85945331D01*
X140332273Y-85945327D01*
X140241671Y-85854725D01*
X140220200Y-85840379D01*
X140201825Y-85828101D01*
X140157022Y-85774491D01*
X140148314Y-85705166D01*
X140178468Y-85642138D01*
X140201826Y-85621898D01*
X140241669Y-85595276D01*
X140332276Y-85504669D01*
X140403465Y-85398127D01*
X140452501Y-85279744D01*
X140471679Y-85183333D01*
X140477500Y-85154071D01*
X140477500Y-85025928D01*
X140452502Y-84900261D01*
X140452501Y-84900260D01*
X140452501Y-84900256D01*
X140403465Y-84781873D01*
X140403464Y-84781872D01*
X140403461Y-84781866D01*
X140332276Y-84675331D01*
X140332273Y-84675327D01*
X140241671Y-84584725D01*
X140226382Y-84574509D01*
X140201825Y-84558101D01*
X140157022Y-84504491D01*
X140148314Y-84435166D01*
X140178468Y-84372138D01*
X140201826Y-84351898D01*
X140241669Y-84325276D01*
X140332276Y-84234669D01*
X140403465Y-84128127D01*
X140452501Y-84009744D01*
X140477500Y-83884071D01*
X143113499Y-83884071D01*
X143138497Y-84009738D01*
X143138499Y-84009744D01*
X143187533Y-84128124D01*
X143187538Y-84128133D01*
X143258723Y-84234668D01*
X143258726Y-84234672D01*
X143349327Y-84325273D01*
X143349331Y-84325276D01*
X143455866Y-84396461D01*
X143455872Y-84396464D01*
X143455873Y-84396465D01*
X143574256Y-84445501D01*
X143574260Y-84445501D01*
X143574261Y-84445502D01*
X143699928Y-84470500D01*
X143799648Y-84470500D01*
X143866687Y-84490185D01*
X143912442Y-84542989D01*
X143922386Y-84612147D01*
X143896853Y-84670095D01*
X143897108Y-84670266D01*
X143896140Y-84671714D01*
X143895502Y-84673163D01*
X143893727Y-84675325D01*
X143822538Y-84781866D01*
X143822533Y-84781875D01*
X143773499Y-84900255D01*
X143773497Y-84900261D01*
X143748500Y-85025928D01*
X143748500Y-85025931D01*
X143748500Y-85154069D01*
X143748500Y-85154071D01*
X143748499Y-85154071D01*
X143773497Y-85279738D01*
X143773499Y-85279744D01*
X143822533Y-85398124D01*
X143822538Y-85398133D01*
X143893723Y-85504668D01*
X143893726Y-85504672D01*
X143984327Y-85595273D01*
X143984331Y-85595276D01*
X144090866Y-85666461D01*
X144090872Y-85666464D01*
X144090873Y-85666465D01*
X144209256Y-85715501D01*
X144209260Y-85715501D01*
X144209261Y-85715502D01*
X144334928Y-85740500D01*
X144334931Y-85740500D01*
X144463071Y-85740500D01*
X144547615Y-85723682D01*
X144588744Y-85715501D01*
X144707127Y-85666465D01*
X144813669Y-85595276D01*
X144904276Y-85504669D01*
X144975465Y-85398127D01*
X145024501Y-85279744D01*
X145043679Y-85183333D01*
X145049500Y-85154071D01*
X145049500Y-85025928D01*
X145024502Y-84900261D01*
X145024501Y-84900260D01*
X145024501Y-84900256D01*
X144975465Y-84781873D01*
X144975464Y-84781872D01*
X144975461Y-84781866D01*
X144904276Y-84675331D01*
X144904273Y-84675327D01*
X144813672Y-84584726D01*
X144813668Y-84584723D01*
X144707133Y-84513538D01*
X144707124Y-84513533D01*
X144588744Y-84464499D01*
X144588738Y-84464497D01*
X144463071Y-84439500D01*
X144463069Y-84439500D01*
X144363352Y-84439500D01*
X144296313Y-84419815D01*
X144250558Y-84367011D01*
X144240614Y-84297853D01*
X144266146Y-84239904D01*
X144265892Y-84239734D01*
X144266859Y-84238285D01*
X144267498Y-84236837D01*
X144269272Y-84234674D01*
X144269274Y-84234670D01*
X144269276Y-84234669D01*
X144340465Y-84128127D01*
X144389501Y-84009744D01*
X144414500Y-83884069D01*
X144414500Y-83755931D01*
X144414500Y-83755928D01*
X144389502Y-83630261D01*
X144389501Y-83630260D01*
X144389501Y-83630256D01*
X144340465Y-83511873D01*
X144340464Y-83511872D01*
X144340461Y-83511866D01*
X144269276Y-83405331D01*
X144269273Y-83405327D01*
X144178672Y-83314726D01*
X144178668Y-83314723D01*
X144072133Y-83243538D01*
X144072124Y-83243533D01*
X143953744Y-83194499D01*
X143953738Y-83194497D01*
X143828071Y-83169500D01*
X143828069Y-83169500D01*
X143699931Y-83169500D01*
X143699929Y-83169500D01*
X143574261Y-83194497D01*
X143574255Y-83194499D01*
X143455875Y-83243533D01*
X143455866Y-83243538D01*
X143349331Y-83314723D01*
X143349327Y-83314726D01*
X143258726Y-83405327D01*
X143258723Y-83405331D01*
X143187538Y-83511866D01*
X143187533Y-83511875D01*
X143138499Y-83630255D01*
X143138497Y-83630261D01*
X143113500Y-83755928D01*
X143113500Y-83755931D01*
X143113500Y-83884069D01*
X143113500Y-83884071D01*
X143113499Y-83884071D01*
X140477500Y-83884071D01*
X140477500Y-83884069D01*
X140477500Y-83755931D01*
X140477500Y-83755928D01*
X140452502Y-83630261D01*
X140452501Y-83630260D01*
X140452501Y-83630256D01*
X140403465Y-83511873D01*
X140403464Y-83511872D01*
X140403461Y-83511866D01*
X140332276Y-83405331D01*
X140332273Y-83405327D01*
X140243851Y-83316905D01*
X140210366Y-83255582D01*
X140215350Y-83185890D01*
X140257222Y-83129957D01*
X140262641Y-83126122D01*
X140304933Y-83097862D01*
X140368669Y-83055276D01*
X140459276Y-82964669D01*
X140530465Y-82858127D01*
X140579501Y-82739744D01*
X140604500Y-82614069D01*
X140604500Y-82485931D01*
X140604500Y-82485928D01*
X140579502Y-82360261D01*
X140579501Y-82360260D01*
X140579501Y-82360256D01*
X140530465Y-82241873D01*
X140530464Y-82241872D01*
X140530461Y-82241866D01*
X140459276Y-82135331D01*
X140459273Y-82135327D01*
X140368672Y-82044726D01*
X140368668Y-82044723D01*
X140262133Y-81973538D01*
X140262127Y-81973535D01*
X140196191Y-81946223D01*
X140141788Y-81902381D01*
X140119724Y-81836087D01*
X140137004Y-81768388D01*
X140155965Y-81743980D01*
X140205273Y-81694672D01*
X140205276Y-81694669D01*
X140276465Y-81588127D01*
X140325501Y-81469744D01*
X140339871Y-81397502D01*
X140350500Y-81344071D01*
X140350500Y-81215928D01*
X140325502Y-81090261D01*
X140325501Y-81090260D01*
X140325501Y-81090256D01*
X140276465Y-80971873D01*
X140276464Y-80971872D01*
X140276461Y-80971866D01*
X140205276Y-80865331D01*
X140205273Y-80865327D01*
X140114672Y-80774726D01*
X140114668Y-80774723D01*
X140024127Y-80714225D01*
X139979322Y-80660613D01*
X139970615Y-80591288D01*
X139975025Y-80582071D01*
X152638499Y-80582071D01*
X152663497Y-80707738D01*
X152663499Y-80707744D01*
X152712533Y-80826124D01*
X152712538Y-80826133D01*
X152783723Y-80932668D01*
X152783726Y-80932672D01*
X152874327Y-81023273D01*
X152874331Y-81023276D01*
X152980866Y-81094461D01*
X152980872Y-81094464D01*
X152980873Y-81094465D01*
X153099256Y-81143501D01*
X153099260Y-81143501D01*
X153099261Y-81143502D01*
X153214874Y-81166500D01*
X153214877Y-81166500D01*
X153224931Y-81168500D01*
X153353069Y-81168500D01*
X153363123Y-81166500D01*
X153363126Y-81166500D01*
X153449596Y-81149299D01*
X153478744Y-81143501D01*
X153597127Y-81094465D01*
X153703669Y-81023276D01*
X153794276Y-80932669D01*
X153865465Y-80826127D01*
X153914501Y-80707744D01*
X153930065Y-80629500D01*
X153939500Y-80582071D01*
X153939500Y-80453928D01*
X153914502Y-80328261D01*
X153914501Y-80328260D01*
X153914501Y-80328256D01*
X153865465Y-80209873D01*
X153865464Y-80209872D01*
X153865461Y-80209866D01*
X153794276Y-80103331D01*
X153794273Y-80103327D01*
X153703672Y-80012726D01*
X153703668Y-80012723D01*
X153597133Y-79941538D01*
X153597124Y-79941533D01*
X153478744Y-79892499D01*
X153478738Y-79892497D01*
X153353071Y-79867500D01*
X153353069Y-79867500D01*
X153224931Y-79867500D01*
X153224929Y-79867500D01*
X153099261Y-79892497D01*
X153099255Y-79892499D01*
X152980875Y-79941533D01*
X152980866Y-79941538D01*
X152874331Y-80012723D01*
X152874327Y-80012726D01*
X152783726Y-80103327D01*
X152783723Y-80103331D01*
X152712538Y-80209866D01*
X152712533Y-80209875D01*
X152663499Y-80328255D01*
X152663497Y-80328261D01*
X152638500Y-80453928D01*
X152638500Y-80453931D01*
X152638500Y-80582069D01*
X152638500Y-80582071D01*
X152638499Y-80582071D01*
X139975025Y-80582071D01*
X140000770Y-80528260D01*
X140045564Y-80496563D01*
X140089638Y-80478306D01*
X140135121Y-80459468D01*
X140135124Y-80459466D01*
X140135127Y-80459465D01*
X140241669Y-80388276D01*
X140332276Y-80297669D01*
X140403465Y-80191127D01*
X140452501Y-80072744D01*
X140477500Y-79947069D01*
X140477500Y-79818931D01*
X140477500Y-79818928D01*
X140452502Y-79693261D01*
X140452501Y-79693260D01*
X140452501Y-79693256D01*
X140403465Y-79574873D01*
X140403464Y-79574872D01*
X140403461Y-79574866D01*
X140332276Y-79468331D01*
X140332273Y-79468327D01*
X140241672Y-79377726D01*
X140241668Y-79377723D01*
X140135133Y-79306538D01*
X140135124Y-79306533D01*
X140016744Y-79257499D01*
X140016738Y-79257497D01*
X139891072Y-79232500D01*
X139888217Y-79232219D01*
X139886817Y-79231653D01*
X139885094Y-79231311D01*
X139885159Y-79230984D01*
X139823430Y-79206058D01*
X139783072Y-79149023D01*
X139779955Y-79079223D01*
X139815070Y-79018818D01*
X139876181Y-78987198D01*
X139889744Y-78984501D01*
X140008127Y-78935465D01*
X140114669Y-78864276D01*
X140205276Y-78773669D01*
X140276465Y-78667127D01*
X140325501Y-78548744D01*
X140350500Y-78423069D01*
X140350500Y-78294931D01*
X140350500Y-78294928D01*
X140325502Y-78169261D01*
X140325501Y-78169260D01*
X140325501Y-78169256D01*
X140325424Y-78169071D01*
X149590499Y-78169071D01*
X149615497Y-78294738D01*
X149615499Y-78294744D01*
X149664533Y-78413124D01*
X149664538Y-78413133D01*
X149735723Y-78519668D01*
X149735726Y-78519672D01*
X149826327Y-78610273D01*
X149826331Y-78610276D01*
X149932866Y-78681461D01*
X149932872Y-78681464D01*
X149932873Y-78681465D01*
X150051256Y-78730501D01*
X150051260Y-78730501D01*
X150051261Y-78730502D01*
X150176928Y-78755500D01*
X150286574Y-78755500D01*
X150353613Y-78775185D01*
X150399368Y-78827989D01*
X150409312Y-78897147D01*
X150380287Y-78960703D01*
X150355466Y-78982602D01*
X150334327Y-78996726D01*
X150243726Y-79087327D01*
X150243723Y-79087331D01*
X150172538Y-79193866D01*
X150172533Y-79193875D01*
X150123499Y-79312255D01*
X150123497Y-79312261D01*
X150098500Y-79437928D01*
X150098500Y-79437931D01*
X150098500Y-79566069D01*
X150098500Y-79566071D01*
X150098499Y-79566071D01*
X150123497Y-79691738D01*
X150123499Y-79691744D01*
X150172533Y-79810124D01*
X150172538Y-79810133D01*
X150243723Y-79916668D01*
X150243726Y-79916672D01*
X150334327Y-80007273D01*
X150334331Y-80007276D01*
X150440866Y-80078461D01*
X150440872Y-80078464D01*
X150440873Y-80078465D01*
X150559256Y-80127501D01*
X150559260Y-80127501D01*
X150559261Y-80127502D01*
X150684928Y-80152500D01*
X150684931Y-80152500D01*
X150813071Y-80152500D01*
X150897615Y-80135682D01*
X150938744Y-80127501D01*
X151057127Y-80078465D01*
X151163669Y-80007276D01*
X151254276Y-79916669D01*
X151325465Y-79810127D01*
X151374501Y-79691744D01*
X151382862Y-79649713D01*
X151399500Y-79566071D01*
X151399500Y-79437928D01*
X151374502Y-79312261D01*
X151374501Y-79312260D01*
X151374501Y-79312256D01*
X151325465Y-79193873D01*
X151325464Y-79193872D01*
X151325461Y-79193866D01*
X151254276Y-79087331D01*
X151254273Y-79087327D01*
X151163672Y-78996726D01*
X151163668Y-78996723D01*
X151057133Y-78925538D01*
X151057124Y-78925533D01*
X150938744Y-78876499D01*
X150938738Y-78876497D01*
X150813071Y-78851500D01*
X150813069Y-78851500D01*
X150703426Y-78851500D01*
X150636387Y-78831815D01*
X150590632Y-78779011D01*
X150580688Y-78709853D01*
X150609713Y-78646297D01*
X150634534Y-78624398D01*
X150635773Y-78623569D01*
X150655669Y-78610276D01*
X150746276Y-78519669D01*
X150817465Y-78413127D01*
X150866501Y-78294744D01*
X150891500Y-78169069D01*
X150891500Y-78040931D01*
X150891500Y-78040928D01*
X150866502Y-77915261D01*
X150866501Y-77915260D01*
X150866501Y-77915256D01*
X150817465Y-77796873D01*
X150817464Y-77796872D01*
X150817461Y-77796866D01*
X150746276Y-77690331D01*
X150746273Y-77690327D01*
X150655672Y-77599726D01*
X150655668Y-77599723D01*
X150549133Y-77528538D01*
X150549124Y-77528533D01*
X150430744Y-77479499D01*
X150430738Y-77479497D01*
X150305071Y-77454500D01*
X150305069Y-77454500D01*
X150176931Y-77454500D01*
X150176929Y-77454500D01*
X150051261Y-77479497D01*
X150051255Y-77479499D01*
X149932875Y-77528533D01*
X149932866Y-77528538D01*
X149826331Y-77599723D01*
X149826327Y-77599726D01*
X149735726Y-77690327D01*
X149735723Y-77690331D01*
X149664538Y-77796866D01*
X149664533Y-77796875D01*
X149615499Y-77915255D01*
X149615497Y-77915261D01*
X149590500Y-78040928D01*
X149590500Y-78040931D01*
X149590500Y-78169069D01*
X149590500Y-78169071D01*
X149590499Y-78169071D01*
X140325424Y-78169071D01*
X140285639Y-78073020D01*
X140276468Y-78050878D01*
X140276461Y-78050866D01*
X140205276Y-77944331D01*
X140205273Y-77944327D01*
X140114672Y-77853726D01*
X140114668Y-77853723D01*
X140008133Y-77782538D01*
X140008124Y-77782533D01*
X139889744Y-77733499D01*
X139889738Y-77733497D01*
X139764071Y-77708500D01*
X139764069Y-77708500D01*
X139635931Y-77708500D01*
X139635929Y-77708500D01*
X139510261Y-77733497D01*
X139510255Y-77733499D01*
X139391875Y-77782533D01*
X139391866Y-77782538D01*
X139285331Y-77853723D01*
X139285327Y-77853726D01*
X139194726Y-77944327D01*
X139194723Y-77944331D01*
X139123538Y-78050866D01*
X139123533Y-78050875D01*
X139074499Y-78169255D01*
X139074497Y-78169261D01*
X139049500Y-78294928D01*
X139049500Y-78294931D01*
X139049500Y-78423069D01*
X139049500Y-78423071D01*
X139049499Y-78423071D01*
X122682000Y-78423071D01*
X122682000Y-77407071D01*
X157591499Y-77407071D01*
X157616497Y-77532738D01*
X157616499Y-77532744D01*
X157665533Y-77651124D01*
X157665538Y-77651133D01*
X157736723Y-77757668D01*
X157736726Y-77757672D01*
X157827327Y-77848273D01*
X157827331Y-77848276D01*
X157933866Y-77919461D01*
X157933872Y-77919464D01*
X157933873Y-77919465D01*
X158052256Y-77968501D01*
X158052260Y-77968501D01*
X158052261Y-77968502D01*
X158177928Y-77993500D01*
X158177931Y-77993500D01*
X158306071Y-77993500D01*
X158390615Y-77976682D01*
X158431744Y-77968501D01*
X158550127Y-77919465D01*
X158656669Y-77848276D01*
X158747276Y-77757669D01*
X158818465Y-77651127D01*
X158867501Y-77532744D01*
X158876899Y-77485500D01*
X158892500Y-77407071D01*
X158892500Y-77278928D01*
X158867502Y-77153261D01*
X158867501Y-77153260D01*
X158867501Y-77153256D01*
X158818465Y-77034873D01*
X158818464Y-77034872D01*
X158818461Y-77034866D01*
X158747276Y-76928331D01*
X158747273Y-76928327D01*
X158656672Y-76837726D01*
X158656668Y-76837723D01*
X158550133Y-76766538D01*
X158550124Y-76766533D01*
X158431744Y-76717499D01*
X158431738Y-76717497D01*
X158306071Y-76692500D01*
X158306069Y-76692500D01*
X158177931Y-76692500D01*
X158177929Y-76692500D01*
X158052261Y-76717497D01*
X158052255Y-76717499D01*
X157933875Y-76766533D01*
X157933866Y-76766538D01*
X157827331Y-76837723D01*
X157827327Y-76837726D01*
X157736726Y-76928327D01*
X157736723Y-76928331D01*
X157665538Y-77034866D01*
X157665533Y-77034875D01*
X157616499Y-77153255D01*
X157616497Y-77153261D01*
X157591500Y-77278928D01*
X157591500Y-77278931D01*
X157591500Y-77407069D01*
X157591500Y-77407071D01*
X157591499Y-77407071D01*
X122682000Y-77407071D01*
X122682000Y-75248071D01*
X126730499Y-75248071D01*
X126755497Y-75373738D01*
X126755499Y-75373744D01*
X126804533Y-75492124D01*
X126804538Y-75492133D01*
X126875723Y-75598668D01*
X126875726Y-75598672D01*
X126966327Y-75689273D01*
X126966331Y-75689276D01*
X127072866Y-75760461D01*
X127072872Y-75760464D01*
X127072873Y-75760465D01*
X127191256Y-75809501D01*
X127191260Y-75809501D01*
X127191261Y-75809502D01*
X127316928Y-75834500D01*
X127316931Y-75834500D01*
X127445071Y-75834500D01*
X127529615Y-75817682D01*
X127570744Y-75809501D01*
X127689127Y-75760465D01*
X127795669Y-75689276D01*
X127886276Y-75598669D01*
X127912898Y-75558825D01*
X127966509Y-75514022D01*
X128035834Y-75505314D01*
X128098862Y-75535468D01*
X128119100Y-75558824D01*
X128133584Y-75580500D01*
X128145725Y-75598671D01*
X128236327Y-75689273D01*
X128236331Y-75689276D01*
X128342866Y-75760461D01*
X128342872Y-75760464D01*
X128342873Y-75760465D01*
X128461256Y-75809501D01*
X128461260Y-75809501D01*
X128461261Y-75809502D01*
X128586928Y-75834500D01*
X128586931Y-75834500D01*
X128715071Y-75834500D01*
X128799615Y-75817682D01*
X128840744Y-75809501D01*
X128959127Y-75760465D01*
X129065669Y-75689276D01*
X129125874Y-75629071D01*
X138414499Y-75629071D01*
X138439497Y-75754738D01*
X138439499Y-75754744D01*
X138488533Y-75873124D01*
X138488538Y-75873133D01*
X138559723Y-75979668D01*
X138559726Y-75979672D01*
X138650327Y-76070273D01*
X138650331Y-76070276D01*
X138756866Y-76141461D01*
X138756872Y-76141464D01*
X138756873Y-76141465D01*
X138875256Y-76190501D01*
X138875260Y-76190501D01*
X138875261Y-76190502D01*
X139000928Y-76215500D01*
X139000931Y-76215500D01*
X139129071Y-76215500D01*
X139213615Y-76198682D01*
X139254744Y-76190501D01*
X139373127Y-76141465D01*
X139479669Y-76070276D01*
X139570276Y-75979669D01*
X139641465Y-75873127D01*
X139690501Y-75754744D01*
X139715500Y-75629069D01*
X139715500Y-75500931D01*
X139715500Y-75500928D01*
X139690502Y-75375261D01*
X139690501Y-75375260D01*
X139690501Y-75375256D01*
X139641465Y-75256873D01*
X139641464Y-75256872D01*
X139641461Y-75256866D01*
X139570276Y-75150331D01*
X139570273Y-75150327D01*
X139479672Y-75059726D01*
X139479668Y-75059723D01*
X139381414Y-74994071D01*
X146669499Y-74994071D01*
X146694497Y-75119738D01*
X146694499Y-75119744D01*
X146743533Y-75238124D01*
X146743538Y-75238133D01*
X146814723Y-75344668D01*
X146814726Y-75344672D01*
X146905327Y-75435273D01*
X146905331Y-75435276D01*
X147011866Y-75506461D01*
X147011872Y-75506464D01*
X147011873Y-75506465D01*
X147130256Y-75555501D01*
X147130260Y-75555501D01*
X147130261Y-75555502D01*
X147255928Y-75580500D01*
X147255931Y-75580500D01*
X147384071Y-75580500D01*
X147468615Y-75563682D01*
X147509744Y-75555501D01*
X147628127Y-75506465D01*
X147734669Y-75435276D01*
X147825276Y-75344669D01*
X147896465Y-75238127D01*
X147945501Y-75119744D01*
X147960964Y-75042009D01*
X147970500Y-74994071D01*
X147970500Y-74865928D01*
X147945502Y-74740261D01*
X147945501Y-74740260D01*
X147945501Y-74740256D01*
X147896465Y-74621873D01*
X147896464Y-74621872D01*
X147896461Y-74621866D01*
X147825276Y-74515331D01*
X147825273Y-74515327D01*
X147734672Y-74424726D01*
X147734668Y-74424723D01*
X147628133Y-74353538D01*
X147628124Y-74353533D01*
X147509744Y-74304499D01*
X147509738Y-74304497D01*
X147384071Y-74279500D01*
X147384069Y-74279500D01*
X147255931Y-74279500D01*
X147255929Y-74279500D01*
X147130261Y-74304497D01*
X147130255Y-74304499D01*
X147011875Y-74353533D01*
X147011866Y-74353538D01*
X146905331Y-74424723D01*
X146905327Y-74424726D01*
X146814726Y-74515327D01*
X146814723Y-74515331D01*
X146743538Y-74621866D01*
X146743533Y-74621875D01*
X146694499Y-74740255D01*
X146694497Y-74740261D01*
X146669500Y-74865928D01*
X146669500Y-74865931D01*
X146669500Y-74994069D01*
X146669500Y-74994071D01*
X146669499Y-74994071D01*
X139381414Y-74994071D01*
X139373133Y-74988538D01*
X139373120Y-74988531D01*
X139339003Y-74974400D01*
X139339002Y-74974400D01*
X139313102Y-74963672D01*
X139254744Y-74939499D01*
X139254738Y-74939497D01*
X139129071Y-74914500D01*
X139129069Y-74914500D01*
X139000931Y-74914500D01*
X139000929Y-74914500D01*
X138875261Y-74939497D01*
X138875255Y-74939499D01*
X138756875Y-74988533D01*
X138756866Y-74988538D01*
X138650331Y-75059723D01*
X138650327Y-75059726D01*
X138559726Y-75150327D01*
X138559723Y-75150331D01*
X138488538Y-75256866D01*
X138488533Y-75256875D01*
X138439499Y-75375255D01*
X138439497Y-75375261D01*
X138414500Y-75500928D01*
X138414500Y-75500931D01*
X138414500Y-75629069D01*
X138414500Y-75629071D01*
X138414499Y-75629071D01*
X129125874Y-75629071D01*
X129156276Y-75598669D01*
X129227465Y-75492127D01*
X129227466Y-75492124D01*
X129227468Y-75492121D01*
X129233314Y-75478004D01*
X129276501Y-75373744D01*
X129301500Y-75248069D01*
X129301500Y-75246963D01*
X129303561Y-75239640D01*
X129319650Y-75213972D01*
X129333692Y-75187129D01*
X129338022Y-75184662D01*
X129340670Y-75180440D01*
X129368079Y-75167547D01*
X129394408Y-75152555D01*
X129399386Y-75152821D01*
X129403895Y-75150701D01*
X129433921Y-75154673D01*
X129464177Y-75156295D01*
X129468958Y-75159308D01*
X129473161Y-75159864D01*
X129482809Y-75168036D01*
X129500280Y-75179044D01*
X129501621Y-75177411D01*
X129506331Y-75181276D01*
X129612866Y-75252461D01*
X129612875Y-75252466D01*
X129639692Y-75263574D01*
X129731256Y-75301501D01*
X129731260Y-75301501D01*
X129731261Y-75301502D01*
X129856928Y-75326500D01*
X129856931Y-75326500D01*
X129985071Y-75326500D01*
X130069615Y-75309682D01*
X130110744Y-75301501D01*
X130229127Y-75252465D01*
X130335669Y-75181276D01*
X130426276Y-75090669D01*
X130452898Y-75050825D01*
X130506509Y-75006022D01*
X130575834Y-74997314D01*
X130638862Y-75027468D01*
X130659100Y-75050824D01*
X130665049Y-75059726D01*
X130685725Y-75090671D01*
X130776327Y-75181273D01*
X130776331Y-75181276D01*
X130882866Y-75252461D01*
X130882875Y-75252466D01*
X130909692Y-75263574D01*
X131001256Y-75301501D01*
X131001260Y-75301501D01*
X131001261Y-75301502D01*
X131126928Y-75326500D01*
X131126931Y-75326500D01*
X131255071Y-75326500D01*
X131339615Y-75309682D01*
X131380744Y-75301501D01*
X131499127Y-75252465D01*
X131605669Y-75181276D01*
X131696276Y-75090669D01*
X131767465Y-74984127D01*
X131774939Y-74966082D01*
X131818779Y-74911680D01*
X131885073Y-74889615D01*
X131952772Y-74906894D01*
X132000383Y-74958030D01*
X132004054Y-74966068D01*
X132007506Y-74974400D01*
X132011536Y-74984129D01*
X132011538Y-74984133D01*
X132082723Y-75090668D01*
X132082726Y-75090672D01*
X132173327Y-75181273D01*
X132173331Y-75181276D01*
X132279866Y-75252461D01*
X132279875Y-75252466D01*
X132306692Y-75263574D01*
X132398256Y-75301501D01*
X132398260Y-75301501D01*
X132398261Y-75301502D01*
X132523928Y-75326500D01*
X132523931Y-75326500D01*
X132652071Y-75326500D01*
X132736615Y-75309682D01*
X132777744Y-75301501D01*
X132896127Y-75252465D01*
X133002669Y-75181276D01*
X133093276Y-75090669D01*
X133164465Y-74984127D01*
X133213501Y-74865744D01*
X133231030Y-74777622D01*
X133238500Y-74740071D01*
X133238500Y-74611928D01*
X133213502Y-74486261D01*
X133213501Y-74486260D01*
X133213501Y-74486256D01*
X133164465Y-74367873D01*
X133164464Y-74367872D01*
X133164461Y-74367866D01*
X133093276Y-74261331D01*
X133093273Y-74261327D01*
X133002672Y-74170726D01*
X133002668Y-74170723D01*
X132896133Y-74099538D01*
X132896124Y-74099533D01*
X132777744Y-74050499D01*
X132777738Y-74050497D01*
X132652071Y-74025500D01*
X132652069Y-74025500D01*
X132523931Y-74025500D01*
X132523929Y-74025500D01*
X132398261Y-74050497D01*
X132398255Y-74050499D01*
X132279875Y-74099533D01*
X132279866Y-74099538D01*
X132173331Y-74170723D01*
X132173327Y-74170726D01*
X132082726Y-74261327D01*
X132082723Y-74261331D01*
X132011538Y-74367866D01*
X132011533Y-74367876D01*
X132004061Y-74385916D01*
X131960219Y-74440320D01*
X131893925Y-74462384D01*
X131826226Y-74445104D01*
X131778616Y-74393967D01*
X131774939Y-74385916D01*
X131767466Y-74367876D01*
X131767466Y-74367875D01*
X131767465Y-74367873D01*
X131767463Y-74367870D01*
X131767461Y-74367866D01*
X131696276Y-74261331D01*
X131696273Y-74261327D01*
X131605672Y-74170726D01*
X131605668Y-74170723D01*
X131499133Y-74099538D01*
X131499124Y-74099533D01*
X131380744Y-74050499D01*
X131380738Y-74050497D01*
X131255071Y-74025500D01*
X131255069Y-74025500D01*
X131126931Y-74025500D01*
X131126929Y-74025500D01*
X131001261Y-74050497D01*
X131001255Y-74050499D01*
X130882875Y-74099533D01*
X130882866Y-74099538D01*
X130776331Y-74170723D01*
X130776327Y-74170726D01*
X130685726Y-74261327D01*
X130685723Y-74261331D01*
X130659102Y-74301173D01*
X130605490Y-74345978D01*
X130536165Y-74354685D01*
X130473137Y-74324530D01*
X130452898Y-74301173D01*
X130426276Y-74261331D01*
X130426273Y-74261327D01*
X130335672Y-74170726D01*
X130335668Y-74170723D01*
X130229133Y-74099538D01*
X130229124Y-74099533D01*
X130110744Y-74050499D01*
X130110738Y-74050497D01*
X129985071Y-74025500D01*
X129985069Y-74025500D01*
X129856931Y-74025500D01*
X129856929Y-74025500D01*
X129731261Y-74050497D01*
X129731255Y-74050499D01*
X129612875Y-74099533D01*
X129612866Y-74099538D01*
X129506331Y-74170723D01*
X129506327Y-74170726D01*
X129415726Y-74261327D01*
X129415723Y-74261331D01*
X129344538Y-74367866D01*
X129344533Y-74367875D01*
X129295499Y-74486255D01*
X129295497Y-74486260D01*
X129270692Y-74610960D01*
X129238306Y-74672870D01*
X129177590Y-74707444D01*
X129107821Y-74703703D01*
X129071720Y-74680954D01*
X129070379Y-74682589D01*
X129065668Y-74678723D01*
X128959133Y-74607538D01*
X128959124Y-74607533D01*
X128840744Y-74558499D01*
X128840738Y-74558497D01*
X128715071Y-74533500D01*
X128715069Y-74533500D01*
X128586931Y-74533500D01*
X128586929Y-74533500D01*
X128461261Y-74558497D01*
X128461255Y-74558499D01*
X128342875Y-74607533D01*
X128342866Y-74607538D01*
X128236331Y-74678723D01*
X128236327Y-74678726D01*
X128145726Y-74769327D01*
X128145723Y-74769331D01*
X128119102Y-74809173D01*
X128065490Y-74853978D01*
X127996165Y-74862685D01*
X127933137Y-74832530D01*
X127912898Y-74809173D01*
X127886276Y-74769331D01*
X127886273Y-74769327D01*
X127795672Y-74678726D01*
X127795668Y-74678723D01*
X127689133Y-74607538D01*
X127689124Y-74607533D01*
X127570744Y-74558499D01*
X127570738Y-74558497D01*
X127445071Y-74533500D01*
X127445069Y-74533500D01*
X127316931Y-74533500D01*
X127316929Y-74533500D01*
X127191261Y-74558497D01*
X127191255Y-74558499D01*
X127072875Y-74607533D01*
X127072866Y-74607538D01*
X126966331Y-74678723D01*
X126966327Y-74678726D01*
X126875726Y-74769327D01*
X126875723Y-74769331D01*
X126804538Y-74875866D01*
X126804533Y-74875875D01*
X126755499Y-74994255D01*
X126755497Y-74994261D01*
X126730500Y-75119928D01*
X126730500Y-75119931D01*
X126730500Y-75248069D01*
X126730500Y-75248071D01*
X126730499Y-75248071D01*
X122682000Y-75248071D01*
X122682000Y-72009000D01*
X116637020Y-69868069D01*
X116580399Y-69827134D01*
X116564560Y-69800299D01*
X116522532Y-69702871D01*
X116250608Y-69072500D01*
X116066780Y-68646353D01*
X115771194Y-67961131D01*
X115762715Y-67891778D01*
X115793077Y-67828850D01*
X115797349Y-67824356D01*
X115945951Y-67675755D01*
X118110000Y-67675755D01*
X118110000Y-68148600D01*
X118969314Y-68148600D01*
X118964920Y-68152994D01*
X118912259Y-68244206D01*
X118885000Y-68345939D01*
X118885000Y-68451261D01*
X118912259Y-68552994D01*
X118964920Y-68644206D01*
X118969314Y-68648600D01*
X118110000Y-68648600D01*
X118110000Y-69121444D01*
X118116401Y-69180972D01*
X118116403Y-69180979D01*
X118166645Y-69315686D01*
X118166649Y-69315693D01*
X118252809Y-69430787D01*
X118252812Y-69430790D01*
X118367906Y-69516950D01*
X118367913Y-69516954D01*
X118502620Y-69567196D01*
X118502627Y-69567198D01*
X118562155Y-69573599D01*
X118562172Y-69573600D01*
X119035000Y-69573600D01*
X119035000Y-68714286D01*
X119039394Y-68718680D01*
X119130606Y-68771341D01*
X119232339Y-68798600D01*
X119337661Y-68798600D01*
X119439394Y-68771341D01*
X119530606Y-68718680D01*
X119535000Y-68714286D01*
X119535000Y-69573600D01*
X120007828Y-69573600D01*
X120007844Y-69573599D01*
X120067372Y-69567198D01*
X120067379Y-69567196D01*
X120202086Y-69516954D01*
X120202093Y-69516950D01*
X120317187Y-69430790D01*
X120317190Y-69430787D01*
X120403350Y-69315693D01*
X120403354Y-69315686D01*
X120453596Y-69180979D01*
X120455492Y-69163348D01*
X120482228Y-69098796D01*
X120539620Y-69058947D01*
X120609445Y-69056451D01*
X120666463Y-69088919D01*
X120695024Y-69117480D01*
X120695032Y-69117486D01*
X120846608Y-69218766D01*
X120846612Y-69218768D01*
X121015037Y-69288531D01*
X121015042Y-69288533D01*
X121015046Y-69288533D01*
X121015047Y-69288534D01*
X121193843Y-69324100D01*
X121193846Y-69324100D01*
X121376156Y-69324100D01*
X121496445Y-69300172D01*
X121554958Y-69288533D01*
X121723389Y-69218767D01*
X121723391Y-69218766D01*
X121831495Y-69146533D01*
X121874972Y-69117483D01*
X122003883Y-68988572D01*
X122105167Y-68836989D01*
X122138061Y-68757575D01*
X122170439Y-68679408D01*
X122214280Y-68625004D01*
X122280574Y-68602939D01*
X122348273Y-68620218D01*
X122395884Y-68671355D01*
X122399561Y-68679408D01*
X122464831Y-68836987D01*
X122464833Y-68836991D01*
X122566113Y-68988567D01*
X122566119Y-68988575D01*
X122695024Y-69117480D01*
X122695032Y-69117486D01*
X122846608Y-69218766D01*
X122846612Y-69218768D01*
X123015037Y-69288531D01*
X123015042Y-69288533D01*
X123015046Y-69288533D01*
X123015047Y-69288534D01*
X123193843Y-69324100D01*
X123193846Y-69324100D01*
X123376156Y-69324100D01*
X123496445Y-69300172D01*
X123554958Y-69288533D01*
X123723389Y-69218767D01*
X123723391Y-69218766D01*
X123831495Y-69146533D01*
X123874972Y-69117483D01*
X124003883Y-68988572D01*
X124008466Y-68981713D01*
X128697500Y-68981713D01*
X128697500Y-69194287D01*
X128707534Y-69257644D01*
X128720990Y-69342600D01*
X128730754Y-69404243D01*
X128785781Y-69573599D01*
X128796444Y-69606414D01*
X128892951Y-69795820D01*
X129017890Y-69967786D01*
X129168213Y-70118109D01*
X129340179Y-70243048D01*
X129340181Y-70243049D01*
X129340184Y-70243051D01*
X129529588Y-70339557D01*
X129731757Y-70405246D01*
X129941713Y-70438500D01*
X129941714Y-70438500D01*
X130154286Y-70438500D01*
X130154287Y-70438500D01*
X130364243Y-70405246D01*
X130566412Y-70339557D01*
X130755816Y-70243051D01*
X130900859Y-70137672D01*
X130927786Y-70118109D01*
X130927788Y-70118106D01*
X130927792Y-70118104D01*
X131078104Y-69967792D01*
X131078106Y-69967788D01*
X131078109Y-69967786D01*
X131203048Y-69795820D01*
X131203047Y-69795820D01*
X131203051Y-69795816D01*
X131207507Y-69787071D01*
X149971499Y-69787071D01*
X149996497Y-69912738D01*
X149996499Y-69912744D01*
X150045533Y-70031124D01*
X150045538Y-70031133D01*
X150116723Y-70137668D01*
X150116726Y-70137672D01*
X150207327Y-70228273D01*
X150207331Y-70228276D01*
X150313866Y-70299461D01*
X150313875Y-70299466D01*
X150340692Y-70310574D01*
X150432256Y-70348501D01*
X150432260Y-70348501D01*
X150432261Y-70348502D01*
X150557928Y-70373500D01*
X150557931Y-70373500D01*
X150686071Y-70373500D01*
X150770615Y-70356682D01*
X150811744Y-70348501D01*
X150930127Y-70299465D01*
X151036669Y-70228276D01*
X151127276Y-70137669D01*
X151198465Y-70031127D01*
X151247501Y-69912744D01*
X151262434Y-69837672D01*
X151272500Y-69787071D01*
X151272500Y-69658928D01*
X151247502Y-69533261D01*
X151247501Y-69533260D01*
X151247501Y-69533256D01*
X151198465Y-69414873D01*
X151198464Y-69414872D01*
X151198461Y-69414866D01*
X151192584Y-69406071D01*
X153908499Y-69406071D01*
X153933497Y-69531738D01*
X153933499Y-69531744D01*
X153982533Y-69650124D01*
X153982538Y-69650133D01*
X154053723Y-69756668D01*
X154053726Y-69756672D01*
X154144327Y-69847273D01*
X154144331Y-69847276D01*
X154250866Y-69918461D01*
X154250872Y-69918464D01*
X154250873Y-69918465D01*
X154369256Y-69967501D01*
X154369260Y-69967501D01*
X154369261Y-69967502D01*
X154494928Y-69992500D01*
X154494931Y-69992500D01*
X154623071Y-69992500D01*
X154707615Y-69975682D01*
X154748744Y-69967501D01*
X154867127Y-69918465D01*
X154973669Y-69847276D01*
X154983270Y-69837675D01*
X155044592Y-69804188D01*
X155114283Y-69809170D01*
X155158634Y-69837671D01*
X157428182Y-72107220D01*
X157461666Y-72168541D01*
X157464500Y-72194899D01*
X157464500Y-72198931D01*
X157464500Y-72327069D01*
X157464500Y-72327071D01*
X157464499Y-72327071D01*
X157489497Y-72452738D01*
X157489499Y-72452744D01*
X157538533Y-72571124D01*
X157538538Y-72571133D01*
X157609723Y-72677668D01*
X157609726Y-72677672D01*
X157700327Y-72768273D01*
X157700331Y-72768276D01*
X157806866Y-72839461D01*
X157806872Y-72839464D01*
X157806873Y-72839465D01*
X157925256Y-72888501D01*
X157925260Y-72888501D01*
X157925261Y-72888502D01*
X158050928Y-72913500D01*
X158050931Y-72913500D01*
X158179071Y-72913500D01*
X158263615Y-72896682D01*
X158304744Y-72888501D01*
X158423127Y-72839465D01*
X158529669Y-72768276D01*
X158541546Y-72756399D01*
X158623127Y-72674819D01*
X158684450Y-72641334D01*
X158710808Y-72638500D01*
X162353101Y-72638500D01*
X162420140Y-72658185D01*
X162440781Y-72674818D01*
X163651182Y-73885220D01*
X163684666Y-73946541D01*
X163687500Y-73972899D01*
X163687500Y-73976931D01*
X163687500Y-74105069D01*
X163687500Y-74105071D01*
X163687499Y-74105071D01*
X163707272Y-74204468D01*
X163708353Y-74237438D01*
X163708500Y-74237438D01*
X163708500Y-74241937D01*
X163708595Y-74244836D01*
X163708500Y-74245558D01*
X163708500Y-76239192D01*
X163688815Y-76306231D01*
X163672181Y-76326873D01*
X163578726Y-76420327D01*
X163578723Y-76420331D01*
X163507538Y-76526866D01*
X163507533Y-76526875D01*
X163458499Y-76645255D01*
X163458497Y-76645261D01*
X163433500Y-76770928D01*
X163433500Y-76770931D01*
X163433500Y-76899069D01*
X163433500Y-76899071D01*
X163433499Y-76899071D01*
X163458497Y-77024738D01*
X163458499Y-77024744D01*
X163507533Y-77143124D01*
X163507538Y-77143133D01*
X163578723Y-77249668D01*
X163578726Y-77249672D01*
X163669327Y-77340273D01*
X163669331Y-77340276D01*
X163775866Y-77411461D01*
X163775872Y-77411464D01*
X163775873Y-77411465D01*
X163894256Y-77460501D01*
X163894260Y-77460501D01*
X163894261Y-77460502D01*
X164019928Y-77485500D01*
X164019931Y-77485500D01*
X164148071Y-77485500D01*
X164232615Y-77468682D01*
X164273744Y-77460501D01*
X164392127Y-77411465D01*
X164498669Y-77340276D01*
X164589276Y-77249669D01*
X164660465Y-77143127D01*
X164709501Y-77024744D01*
X164717682Y-76983615D01*
X164734500Y-76899071D01*
X164734500Y-76770928D01*
X164709502Y-76645261D01*
X164709501Y-76645260D01*
X164709501Y-76645256D01*
X164709424Y-76645071D01*
X166100499Y-76645071D01*
X166125497Y-76770738D01*
X166125499Y-76770744D01*
X166174533Y-76889124D01*
X166174538Y-76889133D01*
X166245723Y-76995668D01*
X166245726Y-76995672D01*
X166336327Y-77086273D01*
X166336331Y-77086276D01*
X166442866Y-77157461D01*
X166442872Y-77157464D01*
X166442873Y-77157465D01*
X166561256Y-77206501D01*
X166561260Y-77206501D01*
X166561261Y-77206502D01*
X166686928Y-77231500D01*
X166686931Y-77231500D01*
X166815071Y-77231500D01*
X166899615Y-77214682D01*
X166940744Y-77206501D01*
X167059127Y-77157465D01*
X167165669Y-77086276D01*
X167256276Y-76995669D01*
X167327465Y-76889127D01*
X167376501Y-76770744D01*
X167401500Y-76645069D01*
X167401500Y-76516931D01*
X167401500Y-76516928D01*
X167376502Y-76391261D01*
X167376501Y-76391260D01*
X167376501Y-76391256D01*
X167327465Y-76272873D01*
X167327464Y-76272872D01*
X167327461Y-76272866D01*
X167267384Y-76182955D01*
X167267383Y-76182954D01*
X167256274Y-76166328D01*
X167166946Y-76077000D01*
X169360769Y-76077000D01*
X170254988Y-76077000D01*
X170222075Y-76134007D01*
X170188000Y-76261174D01*
X170188000Y-76392826D01*
X170222075Y-76519993D01*
X170254988Y-76577000D01*
X169360769Y-76577000D01*
X169371242Y-76643126D01*
X169371242Y-76643129D01*
X169436904Y-76845217D01*
X169533379Y-77034557D01*
X169658272Y-77206459D01*
X169658276Y-77206464D01*
X169808535Y-77356723D01*
X169808540Y-77356727D01*
X169980442Y-77481620D01*
X170169784Y-77578096D01*
X170268711Y-77610239D01*
X170326387Y-77649676D01*
X170353586Y-77714034D01*
X170341672Y-77782881D01*
X170294428Y-77834357D01*
X170268722Y-77846097D01*
X170267522Y-77846487D01*
X170265550Y-77847128D01*
X170111211Y-77925768D01*
X170052395Y-77968501D01*
X169971072Y-78027586D01*
X169971070Y-78027588D01*
X169971069Y-78027588D01*
X169848588Y-78150069D01*
X169848588Y-78150070D01*
X169848586Y-78150072D01*
X169804859Y-78210256D01*
X169746768Y-78290211D01*
X169668128Y-78444552D01*
X169614597Y-78609302D01*
X169588564Y-78773669D01*
X169587500Y-78780389D01*
X169587500Y-78953611D01*
X169592393Y-78984502D01*
X169608678Y-79087327D01*
X169614598Y-79124701D01*
X169668127Y-79289445D01*
X169746768Y-79443788D01*
X169848586Y-79583928D01*
X169971072Y-79706414D01*
X170111212Y-79808232D01*
X170265555Y-79886873D01*
X170430299Y-79940402D01*
X170601389Y-79967500D01*
X170601390Y-79967500D01*
X170774610Y-79967500D01*
X170774611Y-79967500D01*
X170945701Y-79940402D01*
X171110445Y-79886873D01*
X171264788Y-79808232D01*
X171404928Y-79706414D01*
X171527414Y-79583928D01*
X171629232Y-79443788D01*
X171707873Y-79289445D01*
X171761402Y-79124701D01*
X171788500Y-78953611D01*
X171788500Y-78780389D01*
X171761402Y-78609299D01*
X171707873Y-78444555D01*
X171629232Y-78290212D01*
X171527414Y-78150072D01*
X171404928Y-78027586D01*
X171264788Y-77925768D01*
X171244155Y-77915255D01*
X171110446Y-77847127D01*
X171107284Y-77846100D01*
X171106236Y-77845383D01*
X171105952Y-77845266D01*
X171105976Y-77845206D01*
X171049609Y-77806661D01*
X171022413Y-77742302D01*
X171034329Y-77673456D01*
X171081574Y-77621981D01*
X171107288Y-77610239D01*
X171206215Y-77578096D01*
X171395557Y-77481620D01*
X171567459Y-77356727D01*
X171567464Y-77356723D01*
X171717723Y-77206464D01*
X171717727Y-77206459D01*
X171842620Y-77034557D01*
X171939095Y-76845217D01*
X172004757Y-76643129D01*
X172004757Y-76643126D01*
X172015231Y-76577000D01*
X171121012Y-76577000D01*
X171153925Y-76519993D01*
X171188000Y-76392826D01*
X171188000Y-76261174D01*
X171153925Y-76134007D01*
X171121012Y-76077000D01*
X172015231Y-76077000D01*
X172004757Y-76010873D01*
X172004757Y-76010870D01*
X171939095Y-75808782D01*
X171842620Y-75619442D01*
X171717727Y-75447540D01*
X171717723Y-75447535D01*
X171567464Y-75297276D01*
X171567459Y-75297272D01*
X171395557Y-75172379D01*
X171296655Y-75121985D01*
X171245859Y-75074010D01*
X171229064Y-75006189D01*
X171251602Y-74940054D01*
X171306317Y-74896603D01*
X171352950Y-74887500D01*
X171562676Y-74887500D01*
X171562677Y-74887499D01*
X171635740Y-74872966D01*
X171718601Y-74817601D01*
X171773966Y-74734740D01*
X171788500Y-74661674D01*
X171788500Y-74613071D01*
X174355499Y-74613071D01*
X174380497Y-74738738D01*
X174380499Y-74738744D01*
X174429533Y-74857124D01*
X174429538Y-74857133D01*
X174500723Y-74963668D01*
X174500726Y-74963672D01*
X174591327Y-75054273D01*
X174591331Y-75054276D01*
X174697866Y-75125461D01*
X174697872Y-75125464D01*
X174697873Y-75125465D01*
X174816256Y-75174501D01*
X174816260Y-75174501D01*
X174816261Y-75174502D01*
X174941928Y-75199500D01*
X174941931Y-75199500D01*
X175070071Y-75199500D01*
X175172905Y-75179044D01*
X175195744Y-75174501D01*
X175314127Y-75125465D01*
X175420669Y-75054276D01*
X175511276Y-74963669D01*
X175582465Y-74857127D01*
X175631501Y-74738744D01*
X175642671Y-74682589D01*
X175656500Y-74613071D01*
X175656500Y-74484928D01*
X175631502Y-74359261D01*
X175631501Y-74359260D01*
X175631501Y-74359256D01*
X175590937Y-74261327D01*
X175582466Y-74240875D01*
X175582461Y-74240866D01*
X175511276Y-74134331D01*
X175511273Y-74134327D01*
X175420672Y-74043726D01*
X175420668Y-74043723D01*
X175314133Y-73972538D01*
X175314124Y-73972533D01*
X175195744Y-73923499D01*
X175195738Y-73923497D01*
X175070071Y-73898500D01*
X175070069Y-73898500D01*
X174941931Y-73898500D01*
X174941929Y-73898500D01*
X174816261Y-73923497D01*
X174816255Y-73923499D01*
X174697875Y-73972533D01*
X174697866Y-73972538D01*
X174591331Y-74043723D01*
X174591327Y-74043726D01*
X174500726Y-74134327D01*
X174500723Y-74134331D01*
X174429538Y-74240866D01*
X174429533Y-74240875D01*
X174380499Y-74359255D01*
X174380497Y-74359261D01*
X174355500Y-74484928D01*
X174355500Y-74484931D01*
X174355500Y-74613069D01*
X174355500Y-74613071D01*
X174355499Y-74613071D01*
X171788500Y-74613071D01*
X171788500Y-72912326D01*
X171788500Y-72912323D01*
X171788499Y-72912321D01*
X171773967Y-72839264D01*
X171773966Y-72839260D01*
X171764521Y-72825124D01*
X171718601Y-72756399D01*
X171635740Y-72701034D01*
X171635739Y-72701033D01*
X171635735Y-72701032D01*
X171562677Y-72686500D01*
X171562674Y-72686500D01*
X169813326Y-72686500D01*
X169813323Y-72686500D01*
X169740264Y-72701032D01*
X169740260Y-72701033D01*
X169657399Y-72756399D01*
X169602033Y-72839260D01*
X169602032Y-72839264D01*
X169587500Y-72912321D01*
X169587500Y-74661678D01*
X169602032Y-74734735D01*
X169602033Y-74734739D01*
X169605723Y-74740261D01*
X169657399Y-74817601D01*
X169729727Y-74865928D01*
X169740260Y-74872966D01*
X169740264Y-74872967D01*
X169813321Y-74887499D01*
X169813324Y-74887500D01*
X170023050Y-74887500D01*
X170090089Y-74907185D01*
X170135844Y-74959989D01*
X170145788Y-75029147D01*
X170116763Y-75092703D01*
X170079345Y-75121985D01*
X169980442Y-75172379D01*
X169808540Y-75297272D01*
X169808535Y-75297276D01*
X169658276Y-75447535D01*
X169658272Y-75447540D01*
X169533379Y-75619442D01*
X169436904Y-75808782D01*
X169371242Y-76010870D01*
X169371242Y-76010873D01*
X169360769Y-76077000D01*
X167166946Y-76077000D01*
X167165672Y-76075726D01*
X167165668Y-76075723D01*
X167059133Y-76004538D01*
X167059124Y-76004533D01*
X166940744Y-75955499D01*
X166940738Y-75955497D01*
X166815071Y-75930500D01*
X166815069Y-75930500D01*
X166686931Y-75930500D01*
X166686929Y-75930500D01*
X166561261Y-75955497D01*
X166561255Y-75955499D01*
X166442875Y-76004533D01*
X166442866Y-76004538D01*
X166336331Y-76075723D01*
X166336327Y-76075726D01*
X166245726Y-76166327D01*
X166245723Y-76166331D01*
X166174538Y-76272866D01*
X166174533Y-76272875D01*
X166125499Y-76391255D01*
X166125497Y-76391261D01*
X166100500Y-76516928D01*
X166100500Y-76516931D01*
X166100500Y-76645069D01*
X166100500Y-76645071D01*
X166100499Y-76645071D01*
X164709424Y-76645071D01*
X164669639Y-76549020D01*
X164660468Y-76526878D01*
X164660461Y-76526866D01*
X164589276Y-76420331D01*
X164589273Y-76420327D01*
X164495819Y-76326873D01*
X164462334Y-76265550D01*
X164459500Y-76239192D01*
X164459500Y-74777622D01*
X164479185Y-74710583D01*
X164531989Y-74664828D01*
X164536030Y-74663068D01*
X164646127Y-74617465D01*
X164752669Y-74546276D01*
X164843276Y-74455669D01*
X164914465Y-74349127D01*
X164963501Y-74230744D01*
X164975440Y-74170723D01*
X164988500Y-74105071D01*
X164988500Y-73972898D01*
X165008185Y-73905859D01*
X165024819Y-73885217D01*
X166328966Y-72581071D01*
X177276499Y-72581071D01*
X177301497Y-72706738D01*
X177301499Y-72706744D01*
X177350533Y-72825124D01*
X177350538Y-72825133D01*
X177421723Y-72931668D01*
X177421726Y-72931672D01*
X177512327Y-73022273D01*
X177512331Y-73022276D01*
X177618866Y-73093461D01*
X177618872Y-73093464D01*
X177618873Y-73093465D01*
X177737256Y-73142501D01*
X177737260Y-73142501D01*
X177737261Y-73142502D01*
X177862928Y-73167500D01*
X177862931Y-73167500D01*
X177991071Y-73167500D01*
X178075615Y-73150682D01*
X178116744Y-73142501D01*
X178235127Y-73093465D01*
X178341669Y-73022276D01*
X178432276Y-72931669D01*
X178503465Y-72825127D01*
X178552501Y-72706744D01*
X178577500Y-72581069D01*
X178577500Y-72452931D01*
X178577500Y-72452928D01*
X178552502Y-72327261D01*
X178552501Y-72327260D01*
X178552501Y-72327256D01*
X178503465Y-72208873D01*
X178503464Y-72208872D01*
X178503461Y-72208866D01*
X178432276Y-72102331D01*
X178432273Y-72102327D01*
X178341672Y-72011726D01*
X178341668Y-72011723D01*
X178235133Y-71940538D01*
X178235124Y-71940533D01*
X178116744Y-71891499D01*
X178116738Y-71891497D01*
X177991071Y-71866500D01*
X177991069Y-71866500D01*
X177862931Y-71866500D01*
X177862929Y-71866500D01*
X177737261Y-71891497D01*
X177737255Y-71891499D01*
X177618875Y-71940533D01*
X177618866Y-71940538D01*
X177512331Y-72011723D01*
X177512327Y-72011726D01*
X177421726Y-72102327D01*
X177421723Y-72102331D01*
X177350538Y-72208866D01*
X177350533Y-72208875D01*
X177301499Y-72327255D01*
X177301497Y-72327261D01*
X177276500Y-72452928D01*
X177276500Y-72452931D01*
X177276500Y-72581069D01*
X177276500Y-72581071D01*
X177276499Y-72581071D01*
X166328966Y-72581071D01*
X166550879Y-72359158D01*
X167886218Y-71023819D01*
X167947541Y-70990334D01*
X167973899Y-70987500D01*
X173267192Y-70987500D01*
X173334231Y-71007185D01*
X173354873Y-71023819D01*
X173448327Y-71117273D01*
X173448331Y-71117276D01*
X173554866Y-71188461D01*
X173554872Y-71188464D01*
X173554873Y-71188465D01*
X173673256Y-71237501D01*
X173673260Y-71237501D01*
X173673261Y-71237502D01*
X173798928Y-71262500D01*
X173798931Y-71262500D01*
X173927071Y-71262500D01*
X174011615Y-71245682D01*
X174052744Y-71237501D01*
X174171127Y-71188465D01*
X174277669Y-71117276D01*
X174368276Y-71026669D01*
X174439465Y-70920127D01*
X174488501Y-70801744D01*
X174496682Y-70760615D01*
X174513500Y-70676071D01*
X174513500Y-70547928D01*
X174488502Y-70422261D01*
X174488501Y-70422260D01*
X174488501Y-70422256D01*
X174439465Y-70303873D01*
X174439464Y-70303872D01*
X174439461Y-70303866D01*
X174368276Y-70197331D01*
X174368273Y-70197327D01*
X174277672Y-70106726D01*
X174277668Y-70106723D01*
X174171133Y-70035538D01*
X174171124Y-70035533D01*
X174052744Y-69986499D01*
X174052738Y-69986497D01*
X173927071Y-69961500D01*
X173927069Y-69961500D01*
X173798931Y-69961500D01*
X173798929Y-69961500D01*
X173673261Y-69986497D01*
X173673255Y-69986499D01*
X173554875Y-70035533D01*
X173554866Y-70035538D01*
X173448331Y-70106723D01*
X173448327Y-70106726D01*
X173354873Y-70200181D01*
X173293550Y-70233666D01*
X173267192Y-70236500D01*
X167717563Y-70236500D01*
X167693116Y-70243050D01*
X167693116Y-70243051D01*
X167622062Y-70262090D01*
X167622061Y-70262090D01*
X167622059Y-70262091D01*
X167536436Y-70311526D01*
X167536437Y-70311526D01*
X164493781Y-73354181D01*
X164466853Y-73368884D01*
X164441035Y-73385477D01*
X164434834Y-73386368D01*
X164432458Y-73387666D01*
X164406100Y-73390500D01*
X164269900Y-73390500D01*
X164202861Y-73370815D01*
X164182219Y-73354181D01*
X162790563Y-71962526D01*
X162790562Y-71962525D01*
X162704938Y-71913090D01*
X162657186Y-71900295D01*
X162657184Y-71900294D01*
X162657182Y-71900293D01*
X162609436Y-71887500D01*
X162609435Y-71887500D01*
X158710808Y-71887500D01*
X158643769Y-71867815D01*
X158623127Y-71851181D01*
X158529672Y-71757726D01*
X158529668Y-71757723D01*
X158423133Y-71686538D01*
X158423124Y-71686533D01*
X158304744Y-71637499D01*
X158304738Y-71637497D01*
X158179071Y-71612500D01*
X158179069Y-71612500D01*
X158050931Y-71612500D01*
X158046900Y-71612500D01*
X157979861Y-71592815D01*
X157959219Y-71576181D01*
X155439469Y-69056432D01*
X155424563Y-69041526D01*
X155424562Y-69041525D01*
X155338938Y-68992090D01*
X155275400Y-68975065D01*
X155264182Y-68972059D01*
X155264178Y-68972057D01*
X155243438Y-68966500D01*
X155243436Y-68966500D01*
X155243435Y-68966500D01*
X155154808Y-68966500D01*
X155087769Y-68946815D01*
X155067127Y-68930181D01*
X154973672Y-68836726D01*
X154973668Y-68836723D01*
X154867133Y-68765538D01*
X154867124Y-68765533D01*
X154748744Y-68716499D01*
X154748738Y-68716497D01*
X154623071Y-68691500D01*
X154623069Y-68691500D01*
X154494931Y-68691500D01*
X154494929Y-68691500D01*
X154369261Y-68716497D01*
X154369255Y-68716499D01*
X154250875Y-68765533D01*
X154250866Y-68765538D01*
X154144331Y-68836723D01*
X154144327Y-68836726D01*
X154053726Y-68927327D01*
X154053723Y-68927331D01*
X153982538Y-69033866D01*
X153982533Y-69033875D01*
X153933499Y-69152255D01*
X153933497Y-69152261D01*
X153908500Y-69277928D01*
X153908500Y-69277931D01*
X153908500Y-69406069D01*
X153908500Y-69406071D01*
X153908499Y-69406071D01*
X151192584Y-69406071D01*
X151148925Y-69340730D01*
X151127276Y-69308331D01*
X151127273Y-69308327D01*
X151036672Y-69217726D01*
X151036668Y-69217723D01*
X150930133Y-69146538D01*
X150930124Y-69146533D01*
X150811744Y-69097499D01*
X150811738Y-69097497D01*
X150686071Y-69072500D01*
X150686069Y-69072500D01*
X150557931Y-69072500D01*
X150557929Y-69072500D01*
X150432261Y-69097497D01*
X150432255Y-69097499D01*
X150313875Y-69146533D01*
X150313866Y-69146538D01*
X150207331Y-69217723D01*
X150207327Y-69217726D01*
X150116726Y-69308327D01*
X150116723Y-69308331D01*
X150045538Y-69414866D01*
X150045533Y-69414875D01*
X149996499Y-69533255D01*
X149996497Y-69533261D01*
X149971500Y-69658928D01*
X149971500Y-69658931D01*
X149971500Y-69787069D01*
X149971500Y-69787071D01*
X149971499Y-69787071D01*
X131207507Y-69787071D01*
X131299557Y-69606412D01*
X131365246Y-69404243D01*
X131398500Y-69194287D01*
X131398500Y-68981713D01*
X131365246Y-68771757D01*
X131299557Y-68569588D01*
X131241984Y-68456595D01*
X131224629Y-68422533D01*
X131221589Y-68416566D01*
X131203051Y-68380184D01*
X131175343Y-68342047D01*
X131078109Y-68208213D01*
X130927786Y-68057890D01*
X130755820Y-67932951D01*
X130566414Y-67836444D01*
X130566413Y-67836443D01*
X130566412Y-67836443D01*
X130364243Y-67770754D01*
X130364241Y-67770753D01*
X130364240Y-67770753D01*
X130181221Y-67741766D01*
X130154287Y-67737500D01*
X129941713Y-67737500D01*
X129914779Y-67741766D01*
X129731760Y-67770753D01*
X129731757Y-67770754D01*
X129566856Y-67824334D01*
X129529585Y-67836444D01*
X129340179Y-67932951D01*
X129168213Y-68057890D01*
X129017890Y-68208213D01*
X128892951Y-68380179D01*
X128796444Y-68569585D01*
X128730753Y-68771760D01*
X128699029Y-68972057D01*
X128697500Y-68981713D01*
X124008466Y-68981713D01*
X124031784Y-68946815D01*
X124057753Y-68907950D01*
X124072098Y-68886480D01*
X124105167Y-68836989D01*
X124174933Y-68668558D01*
X124197921Y-68552994D01*
X124210500Y-68489756D01*
X124210500Y-68307443D01*
X124174934Y-68128647D01*
X124174933Y-68128646D01*
X124174933Y-68128642D01*
X124153312Y-68076443D01*
X124105168Y-67960212D01*
X124105166Y-67960208D01*
X124003886Y-67808632D01*
X124003880Y-67808624D01*
X123874975Y-67679719D01*
X123874967Y-67679713D01*
X123723391Y-67578433D01*
X123723387Y-67578431D01*
X123669261Y-67556012D01*
X123554962Y-67508668D01*
X123554952Y-67508665D01*
X123376156Y-67473100D01*
X123376154Y-67473100D01*
X123193846Y-67473100D01*
X123193844Y-67473100D01*
X123015047Y-67508665D01*
X123015037Y-67508668D01*
X122846612Y-67578431D01*
X122846608Y-67578433D01*
X122695032Y-67679713D01*
X122695024Y-67679719D01*
X122566119Y-67808624D01*
X122566113Y-67808632D01*
X122464833Y-67960208D01*
X122399561Y-68117792D01*
X122355720Y-68172195D01*
X122289426Y-68194260D01*
X122221727Y-68176981D01*
X122174116Y-68125844D01*
X122170439Y-68117792D01*
X122105166Y-67960208D01*
X122003886Y-67808632D01*
X122003880Y-67808624D01*
X121874975Y-67679719D01*
X121874967Y-67679713D01*
X121723391Y-67578433D01*
X121723387Y-67578431D01*
X121554962Y-67508668D01*
X121554952Y-67508665D01*
X121376156Y-67473100D01*
X121376154Y-67473100D01*
X121193846Y-67473100D01*
X121193844Y-67473100D01*
X121015047Y-67508665D01*
X121015037Y-67508668D01*
X120846612Y-67578431D01*
X120846608Y-67578433D01*
X120695032Y-67679713D01*
X120695029Y-67679715D01*
X120666462Y-67708282D01*
X120605138Y-67741766D01*
X120535447Y-67736780D01*
X120479514Y-67694908D01*
X120455492Y-67633851D01*
X120453596Y-67616220D01*
X120403354Y-67481513D01*
X120403350Y-67481506D01*
X120375838Y-67444755D01*
X138557000Y-67444755D01*
X138557000Y-67917600D01*
X139416314Y-67917600D01*
X139411920Y-67921994D01*
X139359259Y-68013206D01*
X139332000Y-68114939D01*
X139332000Y-68220261D01*
X139359259Y-68321994D01*
X139411920Y-68413206D01*
X139416314Y-68417600D01*
X138557000Y-68417600D01*
X138557000Y-68890444D01*
X138563401Y-68949972D01*
X138563403Y-68949979D01*
X138613645Y-69084686D01*
X138613649Y-69084693D01*
X138699809Y-69199787D01*
X138699812Y-69199790D01*
X138814906Y-69285950D01*
X138814913Y-69285954D01*
X138949620Y-69336196D01*
X138949627Y-69336198D01*
X139009155Y-69342599D01*
X139009172Y-69342600D01*
X139482000Y-69342600D01*
X139482000Y-68483286D01*
X139486394Y-68487680D01*
X139577606Y-68540341D01*
X139679339Y-68567600D01*
X139784661Y-68567600D01*
X139886394Y-68540341D01*
X139977606Y-68487680D01*
X139982000Y-68483286D01*
X139982000Y-69342600D01*
X140454828Y-69342600D01*
X140454844Y-69342599D01*
X140514372Y-69336198D01*
X140514379Y-69336196D01*
X140649086Y-69285954D01*
X140649093Y-69285950D01*
X140764187Y-69199790D01*
X140764190Y-69199787D01*
X140850350Y-69084693D01*
X140850354Y-69084686D01*
X140900596Y-68949979D01*
X140902492Y-68932348D01*
X140929228Y-68867796D01*
X140986620Y-68827947D01*
X141056445Y-68825451D01*
X141113463Y-68857919D01*
X141142024Y-68886480D01*
X141142032Y-68886486D01*
X141293608Y-68987766D01*
X141293612Y-68987768D01*
X141459384Y-69056432D01*
X141462042Y-69057533D01*
X141462046Y-69057533D01*
X141462047Y-69057534D01*
X141640843Y-69093100D01*
X141640846Y-69093100D01*
X141823156Y-69093100D01*
X141994849Y-69058947D01*
X142001958Y-69057533D01*
X142114245Y-69011022D01*
X142170387Y-68987768D01*
X142170391Y-68987766D01*
X142289844Y-68907950D01*
X142321972Y-68886483D01*
X142450883Y-68757572D01*
X142510364Y-68668552D01*
X142552166Y-68605991D01*
X142552168Y-68605987D01*
X142617439Y-68448408D01*
X142661280Y-68394004D01*
X142727574Y-68371939D01*
X142795273Y-68389218D01*
X142842884Y-68440355D01*
X142846561Y-68448408D01*
X142911831Y-68605987D01*
X142911833Y-68605991D01*
X143013113Y-68757567D01*
X143013119Y-68757575D01*
X143142024Y-68886480D01*
X143142032Y-68886486D01*
X143293608Y-68987766D01*
X143293612Y-68987768D01*
X143459384Y-69056432D01*
X143462042Y-69057533D01*
X143462046Y-69057533D01*
X143462047Y-69057534D01*
X143640843Y-69093100D01*
X143640846Y-69093100D01*
X143823156Y-69093100D01*
X143994849Y-69058947D01*
X144001958Y-69057533D01*
X144114245Y-69011022D01*
X144170387Y-68987768D01*
X144170391Y-68987766D01*
X144289844Y-68907950D01*
X144321972Y-68886483D01*
X144450883Y-68757572D01*
X144510364Y-68668552D01*
X144552166Y-68605991D01*
X144552168Y-68605987D01*
X144616257Y-68451261D01*
X144621933Y-68437558D01*
X144634986Y-68371939D01*
X144640932Y-68342047D01*
X144640932Y-68342046D01*
X144657500Y-68258756D01*
X144657500Y-68076443D01*
X144621934Y-67897647D01*
X144621933Y-67897646D01*
X144621933Y-67897642D01*
X144617439Y-67886792D01*
X144552168Y-67729212D01*
X144552166Y-67729208D01*
X144450886Y-67577632D01*
X144450880Y-67577624D01*
X144321975Y-67448719D01*
X144321967Y-67448713D01*
X144316043Y-67444755D01*
X159131000Y-67444755D01*
X159131000Y-67917600D01*
X159990314Y-67917600D01*
X159985920Y-67921994D01*
X159933259Y-68013206D01*
X159906000Y-68114939D01*
X159906000Y-68220261D01*
X159933259Y-68321994D01*
X159985920Y-68413206D01*
X159990314Y-68417600D01*
X159131000Y-68417600D01*
X159131000Y-68890444D01*
X159137401Y-68949972D01*
X159137403Y-68949979D01*
X159187645Y-69084686D01*
X159187649Y-69084693D01*
X159273809Y-69199787D01*
X159273812Y-69199790D01*
X159388906Y-69285950D01*
X159388913Y-69285954D01*
X159523620Y-69336196D01*
X159523627Y-69336198D01*
X159583155Y-69342599D01*
X159583172Y-69342600D01*
X160056000Y-69342600D01*
X160056000Y-68483286D01*
X160060394Y-68487680D01*
X160151606Y-68540341D01*
X160253339Y-68567600D01*
X160358661Y-68567600D01*
X160460394Y-68540341D01*
X160551606Y-68487680D01*
X160556000Y-68483286D01*
X160556000Y-69342600D01*
X161028828Y-69342600D01*
X161028844Y-69342599D01*
X161088372Y-69336198D01*
X161088379Y-69336196D01*
X161223086Y-69285954D01*
X161223093Y-69285950D01*
X161338187Y-69199790D01*
X161338190Y-69199787D01*
X161424350Y-69084693D01*
X161424354Y-69084686D01*
X161474596Y-68949979D01*
X161476492Y-68932348D01*
X161503228Y-68867796D01*
X161560620Y-68827947D01*
X161630445Y-68825451D01*
X161687463Y-68857919D01*
X161716024Y-68886480D01*
X161716032Y-68886486D01*
X161867608Y-68987766D01*
X161867612Y-68987768D01*
X162033384Y-69056432D01*
X162036042Y-69057533D01*
X162036046Y-69057533D01*
X162036047Y-69057534D01*
X162214843Y-69093100D01*
X162214846Y-69093100D01*
X162397156Y-69093100D01*
X162568849Y-69058947D01*
X162575958Y-69057533D01*
X162688245Y-69011022D01*
X162744387Y-68987768D01*
X162744391Y-68987766D01*
X162863844Y-68907950D01*
X162895972Y-68886483D01*
X163024883Y-68757572D01*
X163084364Y-68668552D01*
X163126166Y-68605991D01*
X163126168Y-68605987D01*
X163191439Y-68448408D01*
X163235280Y-68394004D01*
X163301574Y-68371939D01*
X163369273Y-68389218D01*
X163416884Y-68440355D01*
X163420561Y-68448408D01*
X163485831Y-68605987D01*
X163485833Y-68605991D01*
X163587113Y-68757567D01*
X163587119Y-68757575D01*
X163716024Y-68886480D01*
X163716032Y-68886486D01*
X163867608Y-68987766D01*
X163867612Y-68987768D01*
X164033384Y-69056432D01*
X164036042Y-69057533D01*
X164036046Y-69057533D01*
X164036047Y-69057534D01*
X164214843Y-69093100D01*
X164214846Y-69093100D01*
X164397156Y-69093100D01*
X164568849Y-69058947D01*
X164575958Y-69057533D01*
X164688245Y-69011022D01*
X164744387Y-68987768D01*
X164744391Y-68987766D01*
X164863844Y-68907950D01*
X164895972Y-68886483D01*
X165024883Y-68757572D01*
X165084364Y-68668552D01*
X165126166Y-68605991D01*
X165126168Y-68605987D01*
X165190257Y-68451261D01*
X165195933Y-68437558D01*
X165208986Y-68371939D01*
X165214932Y-68342047D01*
X165214932Y-68342046D01*
X165231500Y-68258756D01*
X165231500Y-68076443D01*
X165195934Y-67897647D01*
X165195933Y-67897646D01*
X165195933Y-67897642D01*
X165191439Y-67886792D01*
X165126168Y-67729212D01*
X165126166Y-67729208D01*
X165024886Y-67577632D01*
X165024880Y-67577624D01*
X164895975Y-67448719D01*
X164895967Y-67448713D01*
X164890043Y-67444755D01*
X179578000Y-67444755D01*
X179578000Y-67917600D01*
X180437314Y-67917600D01*
X180432920Y-67921994D01*
X180380259Y-68013206D01*
X180353000Y-68114939D01*
X180353000Y-68220261D01*
X180380259Y-68321994D01*
X180432920Y-68413206D01*
X180437314Y-68417600D01*
X179578000Y-68417600D01*
X179578000Y-68890444D01*
X179584401Y-68949972D01*
X179584403Y-68949979D01*
X179634645Y-69084686D01*
X179634649Y-69084693D01*
X179720809Y-69199787D01*
X179720812Y-69199790D01*
X179835906Y-69285950D01*
X179835913Y-69285954D01*
X179970620Y-69336196D01*
X179970627Y-69336198D01*
X180030155Y-69342599D01*
X180030172Y-69342600D01*
X180503000Y-69342600D01*
X180503000Y-68483286D01*
X180507394Y-68487680D01*
X180598606Y-68540341D01*
X180700339Y-68567600D01*
X180805661Y-68567600D01*
X180907394Y-68540341D01*
X180998606Y-68487680D01*
X181003000Y-68483286D01*
X181003000Y-69342600D01*
X181475828Y-69342600D01*
X181475844Y-69342599D01*
X181535372Y-69336198D01*
X181535379Y-69336196D01*
X181670086Y-69285954D01*
X181670093Y-69285950D01*
X181785187Y-69199790D01*
X181785190Y-69199787D01*
X181871350Y-69084693D01*
X181871354Y-69084686D01*
X181921596Y-68949979D01*
X181923492Y-68932348D01*
X181950228Y-68867796D01*
X182007620Y-68827947D01*
X182077445Y-68825451D01*
X182134463Y-68857919D01*
X182163024Y-68886480D01*
X182163032Y-68886486D01*
X182314608Y-68987766D01*
X182314612Y-68987768D01*
X182480384Y-69056432D01*
X182483042Y-69057533D01*
X182483046Y-69057533D01*
X182483047Y-69057534D01*
X182661843Y-69093100D01*
X182661846Y-69093100D01*
X182844156Y-69093100D01*
X183015849Y-69058947D01*
X183022958Y-69057533D01*
X183135245Y-69011022D01*
X183191387Y-68987768D01*
X183191391Y-68987766D01*
X183310844Y-68907950D01*
X183342972Y-68886483D01*
X183471883Y-68757572D01*
X183531364Y-68668552D01*
X183573166Y-68605991D01*
X183573168Y-68605987D01*
X183638439Y-68448408D01*
X183682280Y-68394004D01*
X183748574Y-68371939D01*
X183816273Y-68389218D01*
X183863884Y-68440355D01*
X183867561Y-68448408D01*
X183932831Y-68605987D01*
X183932833Y-68605991D01*
X184034113Y-68757567D01*
X184034119Y-68757575D01*
X184163024Y-68886480D01*
X184163032Y-68886486D01*
X184314608Y-68987766D01*
X184314612Y-68987768D01*
X184480384Y-69056432D01*
X184483042Y-69057533D01*
X184483046Y-69057533D01*
X184483047Y-69057534D01*
X184661843Y-69093100D01*
X184661846Y-69093100D01*
X184844156Y-69093100D01*
X185015849Y-69058947D01*
X185022958Y-69057533D01*
X185135245Y-69011022D01*
X185191387Y-68987768D01*
X185191391Y-68987766D01*
X185310844Y-68907950D01*
X185342972Y-68886483D01*
X185471883Y-68757572D01*
X185531364Y-68668552D01*
X185573166Y-68605991D01*
X185573168Y-68605987D01*
X185637257Y-68451261D01*
X185642933Y-68437558D01*
X185655986Y-68371939D01*
X185678500Y-68258756D01*
X185678500Y-68076443D01*
X185642934Y-67897647D01*
X185642933Y-67897646D01*
X185642933Y-67897642D01*
X185638439Y-67886792D01*
X185573168Y-67729212D01*
X185573166Y-67729208D01*
X185471886Y-67577632D01*
X185471880Y-67577624D01*
X185342975Y-67448719D01*
X185342967Y-67448713D01*
X185191391Y-67347433D01*
X185191387Y-67347431D01*
X185022962Y-67277668D01*
X185022952Y-67277665D01*
X184844156Y-67242100D01*
X184844154Y-67242100D01*
X184661846Y-67242100D01*
X184661844Y-67242100D01*
X184483047Y-67277665D01*
X184483037Y-67277668D01*
X184314612Y-67347431D01*
X184314608Y-67347433D01*
X184163032Y-67448713D01*
X184163024Y-67448719D01*
X184034119Y-67577624D01*
X184034113Y-67577632D01*
X183932833Y-67729208D01*
X183867561Y-67886792D01*
X183823720Y-67941195D01*
X183757426Y-67963260D01*
X183689727Y-67945981D01*
X183642116Y-67894844D01*
X183638439Y-67886792D01*
X183573166Y-67729208D01*
X183471886Y-67577632D01*
X183471880Y-67577624D01*
X183342975Y-67448719D01*
X183342967Y-67448713D01*
X183191391Y-67347433D01*
X183191387Y-67347431D01*
X183022962Y-67277668D01*
X183022952Y-67277665D01*
X182844156Y-67242100D01*
X182844154Y-67242100D01*
X182661846Y-67242100D01*
X182661844Y-67242100D01*
X182483047Y-67277665D01*
X182483037Y-67277668D01*
X182314612Y-67347431D01*
X182314608Y-67347433D01*
X182163032Y-67448713D01*
X182163029Y-67448715D01*
X182134462Y-67477282D01*
X182073138Y-67510766D01*
X182003447Y-67505780D01*
X181947514Y-67463908D01*
X181923492Y-67402851D01*
X181921596Y-67385220D01*
X181871354Y-67250513D01*
X181871350Y-67250506D01*
X181785190Y-67135412D01*
X181785187Y-67135409D01*
X181670093Y-67049249D01*
X181670086Y-67049245D01*
X181535379Y-66999003D01*
X181535372Y-66999001D01*
X181475844Y-66992600D01*
X181003000Y-66992600D01*
X181003000Y-67851914D01*
X180998606Y-67847520D01*
X180907394Y-67794859D01*
X180805661Y-67767600D01*
X180700339Y-67767600D01*
X180598606Y-67794859D01*
X180507394Y-67847520D01*
X180503000Y-67851914D01*
X180503000Y-66992600D01*
X180030155Y-66992600D01*
X179970627Y-66999001D01*
X179970620Y-66999003D01*
X179835913Y-67049245D01*
X179835906Y-67049249D01*
X179720812Y-67135409D01*
X179720809Y-67135412D01*
X179634649Y-67250506D01*
X179634645Y-67250513D01*
X179584403Y-67385220D01*
X179584401Y-67385227D01*
X179578000Y-67444755D01*
X164890043Y-67444755D01*
X164744391Y-67347433D01*
X164744387Y-67347431D01*
X164575962Y-67277668D01*
X164575952Y-67277665D01*
X164397156Y-67242100D01*
X164397154Y-67242100D01*
X164214846Y-67242100D01*
X164214844Y-67242100D01*
X164036047Y-67277665D01*
X164036037Y-67277668D01*
X163867612Y-67347431D01*
X163867608Y-67347433D01*
X163716032Y-67448713D01*
X163716024Y-67448719D01*
X163587119Y-67577624D01*
X163587113Y-67577632D01*
X163485833Y-67729208D01*
X163420561Y-67886792D01*
X163376720Y-67941195D01*
X163310426Y-67963260D01*
X163242727Y-67945981D01*
X163195116Y-67894844D01*
X163191439Y-67886792D01*
X163126166Y-67729208D01*
X163024886Y-67577632D01*
X163024880Y-67577624D01*
X162895975Y-67448719D01*
X162895967Y-67448713D01*
X162744391Y-67347433D01*
X162744387Y-67347431D01*
X162575962Y-67277668D01*
X162575952Y-67277665D01*
X162397156Y-67242100D01*
X162397154Y-67242100D01*
X162214846Y-67242100D01*
X162214844Y-67242100D01*
X162036047Y-67277665D01*
X162036037Y-67277668D01*
X161867612Y-67347431D01*
X161867608Y-67347433D01*
X161716032Y-67448713D01*
X161716029Y-67448715D01*
X161687462Y-67477282D01*
X161626138Y-67510766D01*
X161556447Y-67505780D01*
X161500514Y-67463908D01*
X161476492Y-67402851D01*
X161474596Y-67385220D01*
X161424354Y-67250513D01*
X161424350Y-67250506D01*
X161338190Y-67135412D01*
X161338187Y-67135409D01*
X161223093Y-67049249D01*
X161223086Y-67049245D01*
X161088379Y-66999003D01*
X161088372Y-66999001D01*
X161028844Y-66992600D01*
X160556000Y-66992600D01*
X160556000Y-67851914D01*
X160551606Y-67847520D01*
X160460394Y-67794859D01*
X160358661Y-67767600D01*
X160253339Y-67767600D01*
X160151606Y-67794859D01*
X160060394Y-67847520D01*
X160056000Y-67851914D01*
X160056000Y-66992600D01*
X159583155Y-66992600D01*
X159523627Y-66999001D01*
X159523620Y-66999003D01*
X159388913Y-67049245D01*
X159388906Y-67049249D01*
X159273812Y-67135409D01*
X159273809Y-67135412D01*
X159187649Y-67250506D01*
X159187645Y-67250513D01*
X159137403Y-67385220D01*
X159137401Y-67385227D01*
X159131000Y-67444755D01*
X144316043Y-67444755D01*
X144170391Y-67347433D01*
X144170387Y-67347431D01*
X144001962Y-67277668D01*
X144001952Y-67277665D01*
X143823156Y-67242100D01*
X143823154Y-67242100D01*
X143640846Y-67242100D01*
X143640844Y-67242100D01*
X143462047Y-67277665D01*
X143462037Y-67277668D01*
X143293612Y-67347431D01*
X143293608Y-67347433D01*
X143142032Y-67448713D01*
X143142024Y-67448719D01*
X143013119Y-67577624D01*
X143013113Y-67577632D01*
X142911833Y-67729208D01*
X142846561Y-67886792D01*
X142802720Y-67941195D01*
X142736426Y-67963260D01*
X142668727Y-67945981D01*
X142621116Y-67894844D01*
X142617439Y-67886792D01*
X142552166Y-67729208D01*
X142450886Y-67577632D01*
X142450880Y-67577624D01*
X142321975Y-67448719D01*
X142321967Y-67448713D01*
X142170391Y-67347433D01*
X142170387Y-67347431D01*
X142001962Y-67277668D01*
X142001952Y-67277665D01*
X141823156Y-67242100D01*
X141823154Y-67242100D01*
X141640846Y-67242100D01*
X141640844Y-67242100D01*
X141462047Y-67277665D01*
X141462037Y-67277668D01*
X141293612Y-67347431D01*
X141293608Y-67347433D01*
X141142032Y-67448713D01*
X141142029Y-67448715D01*
X141113462Y-67477282D01*
X141052138Y-67510766D01*
X140982447Y-67505780D01*
X140926514Y-67463908D01*
X140902492Y-67402851D01*
X140900596Y-67385220D01*
X140850354Y-67250513D01*
X140850350Y-67250506D01*
X140764190Y-67135412D01*
X140764187Y-67135409D01*
X140649093Y-67049249D01*
X140649086Y-67049245D01*
X140514379Y-66999003D01*
X140514372Y-66999001D01*
X140454844Y-66992600D01*
X139982000Y-66992600D01*
X139982000Y-67851914D01*
X139977606Y-67847520D01*
X139886394Y-67794859D01*
X139784661Y-67767600D01*
X139679339Y-67767600D01*
X139577606Y-67794859D01*
X139486394Y-67847520D01*
X139482000Y-67851914D01*
X139482000Y-66992600D01*
X139009155Y-66992600D01*
X138949627Y-66999001D01*
X138949620Y-66999003D01*
X138814913Y-67049245D01*
X138814906Y-67049249D01*
X138699812Y-67135409D01*
X138699809Y-67135412D01*
X138613649Y-67250506D01*
X138613645Y-67250513D01*
X138563403Y-67385220D01*
X138563401Y-67385227D01*
X138557000Y-67444755D01*
X120375838Y-67444755D01*
X120317190Y-67366412D01*
X120317187Y-67366409D01*
X120202093Y-67280249D01*
X120202086Y-67280245D01*
X120067379Y-67230003D01*
X120067372Y-67230001D01*
X120007844Y-67223600D01*
X119535000Y-67223600D01*
X119535000Y-68082914D01*
X119530606Y-68078520D01*
X119439394Y-68025859D01*
X119337661Y-67998600D01*
X119232339Y-67998600D01*
X119130606Y-68025859D01*
X119039394Y-68078520D01*
X119035000Y-68082914D01*
X119035000Y-67223600D01*
X118562155Y-67223600D01*
X118502627Y-67230001D01*
X118502620Y-67230003D01*
X118367913Y-67280245D01*
X118367906Y-67280249D01*
X118252812Y-67366409D01*
X118252809Y-67366412D01*
X118166649Y-67481506D01*
X118166645Y-67481513D01*
X118116403Y-67616220D01*
X118116401Y-67616227D01*
X118110000Y-67675755D01*
X115945951Y-67675755D01*
X116274039Y-67347670D01*
X116287456Y-67336050D01*
X116844209Y-66919703D01*
X116859003Y-66910198D01*
X117469412Y-66576714D01*
X117485527Y-66569354D01*
X118136868Y-66326562D01*
X118153748Y-66321602D01*
X118833381Y-66173391D01*
X118850930Y-66170862D01*
X119258917Y-66141637D01*
X119258921Y-66141638D01*
X119285826Y-66139710D01*
X119285827Y-66139711D01*
X119549595Y-66120817D01*
X119558455Y-66120500D01*
X152053789Y-66120500D01*
X184549539Y-66120500D01*
X184558397Y-66120816D01*
G37*
%TD.AperFunction*%
%TD*%
M02*
