M48
; DRILL file {KiCad 9.0.1} date 2025-04-13T07:36:42-0500
; FORMAT={-:-/ absolute / inch / decimal}
; #@! TF.CreationDate,2025-04-13T07:36:42-05:00
; #@! TF.GenerationSoftware,Kicad,Pcbnew,9.0.1
; #@! TF.FileFunction,Plated,1,4,PTH
FMAT,2
INCH
; #@! TA.AperFunction,Plated,PTH,ViaDrill
T1C0.0157
; #@! TA.AperFunction,Plated,PTH,ComponentDrill
T2C0.0236
; #@! TA.AperFunction,Plated,PTH,ComponentDrill
T3C0.0315
; #@! TA.AperFunction,Plated,PTH,ComponentDrill
T4C0.0394
%
G90
G05
T1
X4.87Y-3.495
X4.915Y-3.495
X5.015Y-2.96
X5.065Y-2.96
X5.065Y-3.495
X5.115Y-2.94
X5.115Y-3.495
X5.165Y-2.94
X5.165Y-3.495
X5.22Y-2.94
X5.225Y-3.18
X5.32Y-3.245
X5.32Y-3.49
X5.335Y-3.33
X5.335Y-3.37
X5.37Y-3.49
X5.375Y-3.875
X5.385Y-3.225
X5.42Y-3.49
X5.43Y-3.65
X5.475Y-2.975
X5.5Y-3.085
X5.5Y-3.2
X5.505Y-3.145
X5.505Y-3.3
X5.505Y-3.35
X5.505Y-3.4
X5.51Y-3.25
X5.52Y-3.74
X5.66Y-3.3
X5.685Y-3.35
X5.8Y-2.95
X5.915Y-3.075
X5.93Y-2.745
X5.9307Y-3.773
X5.935Y-3.13
X5.96Y-2.885
X5.987Y-3.84
X5.998Y-3.783
X6.035Y-3.17
X6.085Y-2.73
X6.115Y-3.015
X6.115Y-3.565
X6.1246Y-3.6097
X6.175Y-3.075
X6.225Y-2.845
X6.23Y-3.045
X6.27Y-3.405
X6.32Y-3.17
X6.39Y-3.705
X6.41Y-3.92
X6.42Y-3.175
X6.425Y-3.64
X6.46Y-3.025
X6.47Y-2.915
X6.565Y-3.015
X6.57Y-3.67
X6.845Y-2.78
X6.89Y-2.935
X7.005Y-2.855
X7.085Y-2.8
X7.155Y-3.015
T3
X4.6963Y-2.6929
X4.775Y-2.6929
X4.83Y-3.69
X4.8537Y-2.6929
X4.9088Y-3.69
X4.9875Y-3.69
X5.0663Y-3.69
X5.145Y-3.69
X5.5013Y-2.6838
X5.58Y-2.6838
X5.6587Y-2.6838
X5.735Y-3.505
X5.8137Y-3.505
X5.8925Y-3.505
X5.9712Y-3.505
X6.05Y-3.505
X6.1287Y-3.505
X6.2074Y-3.505
X6.3113Y-2.6838
X6.35Y-3.5
X6.39Y-2.6838
X6.4287Y-3.5
X6.4687Y-2.6838
X6.5075Y-3.5
X6.5862Y-3.5
X6.665Y-3.5
X6.7437Y-3.5
X6.775Y-3.64
X6.8224Y-3.5
X6.8537Y-3.64
X6.9012Y-3.5
X6.9325Y-3.64
X6.9799Y-3.5
X7.0112Y-3.64
X7.0587Y-3.5
X7.09Y-3.64
X7.1163Y-2.6838
X7.195Y-2.6838
X7.2737Y-2.6838
T4
X4.9716Y-3.855
X5.07Y-3.855
X6.72Y-2.905
X6.72Y-3.005
X6.72Y-3.105
X6.72Y-3.205
X6.9458Y-3.8268
X7.0442Y-3.8268
X7.285Y-3.325
X7.285Y-3.425
X7.285Y-3.525
X7.285Y-3.625
T2
G00X5.8098Y-3.7283
M15
G01X5.8098Y-3.7717
M16
G05
G00X5.8098Y-3.9028
M15
G01X5.8098Y-3.9264
M16
G05
G00X6.15Y-3.7283
M15
G01X6.15Y-3.7717
M16
G05
G00X6.15Y-3.9028
M15
G01X6.15Y-3.9264
M16
G05
M30
