%TF.GenerationSoftware,KiCad,Pcbnew,7.0.7*%
%TF.CreationDate,2025-04-06T11:57:42-05:00*%
%TF.ProjectId,LASK5_V2-0,4c41534b-355f-4563-922d-302e6b696361,rev?*%
%TF.SameCoordinates,Original*%
%TF.FileFunction,Paste,Top*%
%TF.FilePolarity,Positive*%
%FSLAX46Y46*%
G04 Gerber Fmt 4.6, Leading zero omitted, Abs format (unit mm)*
G04 Created by KiCad (PCBNEW 7.0.7) date 2025-04-06 11:57:42*
%MOMM*%
%LPD*%
G01*
G04 APERTURE LIST*
G04 Aperture macros list*
%AMRoundRect*
0 Rectangle with rounded corners*
0 $1 Rounding radius*
0 $2 $3 $4 $5 $6 $7 $8 $9 X,Y pos of 4 corners*
0 Add a 4 corners polygon primitive as box body*
4,1,4,$2,$3,$4,$5,$6,$7,$8,$9,$2,$3,0*
0 Add four circle primitives for the rounded corners*
1,1,$1+$1,$2,$3*
1,1,$1+$1,$4,$5*
1,1,$1+$1,$6,$7*
1,1,$1+$1,$8,$9*
0 Add four rect primitives between the rounded corners*
20,1,$1+$1,$2,$3,$4,$5,0*
20,1,$1+$1,$4,$5,$6,$7,0*
20,1,$1+$1,$6,$7,$8,$9,0*
20,1,$1+$1,$8,$9,$2,$3,0*%
G04 Aperture macros list end*
%ADD10RoundRect,0.140000X-0.140000X-0.170000X0.140000X-0.170000X0.140000X0.170000X-0.140000X0.170000X0*%
%ADD11RoundRect,0.200000X-0.200000X-0.275000X0.200000X-0.275000X0.200000X0.275000X-0.200000X0.275000X0*%
%ADD12RoundRect,0.250000X-0.475000X0.250000X-0.475000X-0.250000X0.475000X-0.250000X0.475000X0.250000X0*%
%ADD13RoundRect,0.150000X-0.150000X0.587500X-0.150000X-0.587500X0.150000X-0.587500X0.150000X0.587500X0*%
%ADD14RoundRect,0.150000X-0.512500X-0.150000X0.512500X-0.150000X0.512500X0.150000X-0.512500X0.150000X0*%
%ADD15RoundRect,0.200000X0.275000X-0.200000X0.275000X0.200000X-0.275000X0.200000X-0.275000X-0.200000X0*%
%ADD16R,1.450000X1.000000*%
%ADD17RoundRect,0.225000X0.225000X0.250000X-0.225000X0.250000X-0.225000X-0.250000X0.225000X-0.250000X0*%
%ADD18RoundRect,0.250000X-0.300000X-0.300000X0.300000X-0.300000X0.300000X0.300000X-0.300000X0.300000X0*%
%ADD19R,0.812800X1.498600*%
%ADD20R,1.498600X0.812800*%
%ADD21R,0.889000X0.889000*%
%ADD22R,1.000000X1.450000*%
%ADD23RoundRect,0.200000X0.200000X0.275000X-0.200000X0.275000X-0.200000X-0.275000X0.200000X-0.275000X0*%
%ADD24RoundRect,0.243750X-0.243750X-0.456250X0.243750X-0.456250X0.243750X0.456250X-0.243750X0.456250X0*%
%ADD25RoundRect,0.250000X0.250000X0.475000X-0.250000X0.475000X-0.250000X-0.475000X0.250000X-0.475000X0*%
G04 APERTURE END LIST*
D10*
%TO.C,C2*%
X122484000Y-71120000D03*
X123444000Y-71120000D03*
%TD*%
D11*
%TO.C,R4*%
X165101000Y-74427000D03*
X166751000Y-74427000D03*
%TD*%
D12*
%TO.C,C6*%
X148452000Y-76581000D03*
X148452000Y-78481000D03*
%TD*%
D11*
%TO.C,R9*%
X149607000Y-69342000D03*
X151257000Y-69342000D03*
%TD*%
D13*
%TO.C,Q2*%
X157353000Y-72263000D03*
X155453000Y-72263000D03*
X156403000Y-74138000D03*
%TD*%
D14*
%TO.C,U4*%
X159904000Y-74427000D03*
X159904000Y-75377000D03*
X159904000Y-76327000D03*
X162179000Y-76327000D03*
X162179000Y-74427000D03*
%TD*%
D15*
%TO.C,R2*%
X164338000Y-94424000D03*
X164338000Y-92774000D03*
%TD*%
D16*
%TO.C,SW_PWR1*%
X181794000Y-75184000D03*
X181794000Y-73484000D03*
X186944000Y-75184000D03*
X186944000Y-73484000D03*
%TD*%
D17*
%TO.C,C8*%
X166497000Y-77729000D03*
X164947000Y-77729000D03*
%TD*%
D14*
%TO.C,U3*%
X152146000Y-76835000D03*
X152146000Y-77785000D03*
X152146000Y-78735000D03*
X154421000Y-78735000D03*
X154421000Y-76835000D03*
%TD*%
D11*
%TO.C,R3*%
X179325000Y-79121000D03*
X180975000Y-79121000D03*
%TD*%
%TO.C,R8*%
X161926000Y-79375000D03*
X163576000Y-79375000D03*
%TD*%
D10*
%TO.C,C4*%
X142042000Y-70866000D03*
X143002000Y-70866000D03*
%TD*%
%TO.C,C5*%
X134549000Y-94234000D03*
X135509000Y-94234000D03*
%TD*%
%TO.C,C3*%
X185476000Y-71120000D03*
X186436000Y-71120000D03*
%TD*%
D18*
%TO.C,D1*%
X171087000Y-69215000D03*
X173887000Y-69215000D03*
%TD*%
D15*
%TO.C,R1*%
X167386000Y-94361000D03*
X167386000Y-92711000D03*
%TD*%
D16*
%TO.C,SW_SEL1*%
X164973000Y-99187000D03*
X164973000Y-97487000D03*
X170123000Y-99187000D03*
X170123000Y-97487000D03*
%TD*%
D11*
%TO.C,R7*%
X158116000Y-79121000D03*
X159766000Y-79121000D03*
%TD*%
D19*
%TO.C,U2*%
X123591000Y-90665000D03*
X124861000Y-90665000D03*
X126131000Y-90665000D03*
X127401000Y-90665000D03*
X128671000Y-90665000D03*
X129941000Y-90665000D03*
X131211000Y-90665000D03*
X132481000Y-90665000D03*
X133751000Y-90665000D03*
X135021000Y-90665000D03*
X136291000Y-90665000D03*
X137561000Y-90665000D03*
X138831000Y-90665000D03*
X140101000Y-90665000D03*
D20*
X141351000Y-88900000D03*
X141351000Y-87630000D03*
X141351000Y-86360000D03*
X141351000Y-85090000D03*
X141351000Y-83820000D03*
X141351000Y-82550000D03*
X141351000Y-81280000D03*
X141351000Y-80010000D03*
X141351000Y-78740000D03*
X141351000Y-77470000D03*
X141351000Y-76200000D03*
X141351000Y-74930000D03*
D19*
X140101000Y-73165000D03*
X138831000Y-73165000D03*
X137561000Y-73165000D03*
X136291000Y-73165000D03*
X135021000Y-73165000D03*
X133751000Y-73165000D03*
X132481000Y-73165000D03*
X131211000Y-73165000D03*
X129941000Y-73165000D03*
X128671000Y-73165000D03*
X127401000Y-73165000D03*
X126131000Y-73165000D03*
X124861000Y-73165000D03*
X123591000Y-73165000D03*
D21*
X131311000Y-83415000D03*
X129911000Y-84815000D03*
X131311000Y-84815000D03*
X132711000Y-84815000D03*
X132711000Y-83415000D03*
X132711000Y-82015000D03*
X131311000Y-82015000D03*
X129911000Y-82015000D03*
X129911000Y-83415000D03*
%TD*%
D22*
%TO.C,SW_RST1*%
X144526000Y-99314000D03*
X142826000Y-99314000D03*
X144526000Y-94164000D03*
X142826000Y-94164000D03*
%TD*%
D23*
%TO.C,R6*%
X139700000Y-94361000D03*
X138050000Y-94361000D03*
%TD*%
D24*
%TO.C,D2*%
X179608000Y-82423000D03*
X181483000Y-82423000D03*
%TD*%
D16*
%TO.C,SW_BOOT1*%
X133788000Y-99236000D03*
X133788000Y-97536000D03*
X138938000Y-99236000D03*
X138938000Y-97536000D03*
%TD*%
D11*
%TO.C,R5*%
X175515000Y-80264000D03*
X177165000Y-80264000D03*
%TD*%
D25*
%TO.C,C7*%
X151754000Y-74168000D03*
X149854000Y-74168000D03*
%TD*%
D10*
%TO.C,C1*%
X163096000Y-71374000D03*
X164056000Y-71374000D03*
%TD*%
D14*
%TO.C,MAX1*%
X176160000Y-73599000D03*
X176160000Y-74549000D03*
X176160000Y-75499000D03*
X178435000Y-75499000D03*
X178435000Y-74549000D03*
X178435000Y-73599000D03*
%TD*%
D22*
%TO.C,SW_M1*%
X161036000Y-99314000D03*
X159336000Y-99314000D03*
X161036000Y-94164000D03*
X159336000Y-94164000D03*
%TD*%
M02*
