M48
; DRILL file {KiCad 7.0.7} date Sun Apr  6 11:57:38 2025
; FORMAT={-:-/ absolute / inch / decimal}
; #@! TF.CreationDate,2025-04-06T11:57:38-05:00
; #@! TF.GenerationSoftware,Kicad,Pcbnew,7.0.7
; #@! TF.FileFunction,Plated,1,2,PTH
FMAT,2
INCH
; #@! TA.AperFunction,Plated,PTH,ViaDrill
T1C0.0157
; #@! TA.AperFunction,Plated,PTH,ComponentDrill
T2C0.0157
; #@! TA.AperFunction,Plated,PTH,ComponentDrill
T3C0.0236
; #@! TA.AperFunction,Plated,PTH,ComponentDrill
T4C0.0315
; #@! TA.AperFunction,Plated,PTH,ComponentDrill
T5C0.0394
%
G90
G05
T1
X4.8026Y-2.8351
X4.8669Y-3.8913
X4.8694Y-3.5143
X5.0Y-3.5126
X5.01Y-3.37
X5.0423Y-3.5162
X5.1146Y-3.1877
X5.135Y-3.43
X5.2149Y-3.894
X5.2418Y-3.645
X5.2463Y-3.5057
X5.25Y-3.755
X5.323Y-3.5085
X5.3292Y-3.0775
X5.3316Y-3.1983
X5.37Y-3.885
X5.3757Y-3.1614
X5.38Y-3.765
X5.4162Y-3.1531
X5.4211Y-3.6236
X5.425Y-3.385
X5.4473Y-2.9504
X5.4534Y-3.502
X5.459Y-3.4559
X5.495Y-3.51
X5.5115Y-3.2098
X5.5118Y-3.2511
X5.5573Y-2.7915
X5.6345Y-2.9925
X5.7755Y-3.7175
X5.7922Y-3.0896
X5.8555Y-2.9294
X5.8916Y-3.1865
X5.9292Y-3.6684
X5.9401Y-3.0624
X5.9864Y-3.9263
X5.9869Y-2.6981
X5.9908Y-3.6503
X6.05Y-2.745
X6.1797Y-3.3935
X6.225Y-3.895
X6.2456Y-2.9676
X6.2581Y-3.0819
X6.27Y-3.54
X6.302Y-3.3196
X6.3158Y-2.8907
X6.32Y-2.765
X6.3319Y-3.3488
X6.4795Y-3.7937
X6.4811Y-3.1123
X6.5085Y-3.6273
X6.555Y-3.0172
X6.605Y-2.875
X6.655Y-3.64
X6.695Y-3.74
X6.7849Y-3.8048
X6.8Y-3.85
X6.8854Y-2.935
X6.9111Y-3.3497
X6.9168Y-3.2502
X6.9906Y-3.2164
X7.1047Y-2.9562
X7.125Y-3.158
X7.195Y-3.325
X7.195Y-3.53
X7.2741Y-2.8281
T2
X5.8615Y-3.7419
X5.8615Y-3.795
X5.8949Y-3.7419
X5.8949Y-3.795
X5.9284Y-3.7419
X5.9284Y-3.795
X5.9619Y-3.7419
X5.9619Y-3.795
X5.9953Y-3.7419
X5.9953Y-3.795
X6.0288Y-3.7419
X6.0288Y-3.795
X6.0622Y-3.7419
X6.0622Y-3.795
X6.0957Y-3.7419
X6.0957Y-3.795
T4
X4.6963Y-2.6929
X4.775Y-2.6929
X4.83Y-3.69
X4.8537Y-2.6929
X4.9088Y-3.69
X4.9875Y-3.69
X5.0663Y-3.69
X5.145Y-3.69
X5.5013Y-2.6838
X5.58Y-2.6838
X5.6587Y-2.6838
X5.7276Y-3.5
X5.8063Y-3.5
X5.885Y-3.5
X5.9638Y-3.5
X6.0425Y-3.5
X6.1213Y-3.5
X6.2Y-3.5
X6.3113Y-2.6838
X6.3413Y-3.5
X6.39Y-2.6838
X6.42Y-3.5
X6.4687Y-2.6838
X6.4987Y-3.5
X6.5775Y-3.5
X6.6562Y-3.5
X6.735Y-3.5
X6.775Y-3.64
X6.8137Y-3.5
X6.8537Y-3.64
X6.8924Y-3.5
X6.9325Y-3.64
X6.9712Y-3.5
X7.0112Y-3.64
X7.0499Y-3.5
X7.09Y-3.64
X7.1163Y-2.6838
X7.195Y-2.6838
X7.2737Y-2.6838
T5
X4.9716Y-3.855
X5.07Y-3.855
X6.72Y-2.905
X6.72Y-3.005
X6.72Y-3.105
X6.72Y-3.205
X6.9458Y-3.8268
X7.0442Y-3.8268
X7.285Y-3.325
X7.285Y-3.425
X7.285Y-3.525
X7.285Y-3.625
T3
G00X5.8083Y-3.7509
M15
G01X5.8083Y-3.81
M16
G05
G00X5.8083Y-3.8978
M15
G01X5.8083Y-3.9293
M16
G05
G00X6.1489Y-3.7509
M15
G01X6.1489Y-3.81
M16
G05
G00X6.1489Y-3.8978
M15
G01X6.1489Y-3.9293
M16
G05
T0
M30
