%TF.GenerationSoftware,KiCad,Pcbnew,7.0.7*%
%TF.CreationDate,2025-04-06T11:57:42-05:00*%
%TF.ProjectId,LASK5_V2-0,4c41534b-355f-4563-922d-302e6b696361,rev?*%
%TF.SameCoordinates,Original*%
%TF.FileFunction,Copper,L2,Bot*%
%TF.FilePolarity,Positive*%
%FSLAX46Y46*%
G04 Gerber Fmt 4.6, Leading zero omitted, Abs format (unit mm)*
G04 Created by KiCad (PCBNEW 7.0.7) date 2025-04-06 11:57:42*
%MOMM*%
%LPD*%
G01*
G04 APERTURE LIST*
G04 Aperture macros list*
%AMRoundRect*
0 Rectangle with rounded corners*
0 $1 Rounding radius*
0 $2 $3 $4 $5 $6 $7 $8 $9 X,Y pos of 4 corners*
0 Add a 4 corners polygon primitive as box body*
4,1,4,$2,$3,$4,$5,$6,$7,$8,$9,$2,$3,0*
0 Add four circle primitives for the rounded corners*
1,1,$1+$1,$2,$3*
1,1,$1+$1,$4,$5*
1,1,$1+$1,$6,$7*
1,1,$1+$1,$8,$9*
0 Add four rect primitives between the rounded corners*
20,1,$1+$1,$2,$3,$4,$5,0*
20,1,$1+$1,$4,$5,$6,$7,0*
20,1,$1+$1,$6,$7,$8,$9,0*
20,1,$1+$1,$8,$9,$2,$3,0*%
G04 Aperture macros list end*
%TA.AperFunction,ComponentPad*%
%ADD10R,1.700000X1.700000*%
%TD*%
%TA.AperFunction,ComponentPad*%
%ADD11O,1.700000X1.700000*%
%TD*%
%TA.AperFunction,ComponentPad*%
%ADD12R,1.350000X1.350000*%
%TD*%
%TA.AperFunction,ComponentPad*%
%ADD13O,1.350000X1.350000*%
%TD*%
%TA.AperFunction,ComponentPad*%
%ADD14RoundRect,0.250000X0.600000X0.750000X-0.600000X0.750000X-0.600000X-0.750000X0.600000X-0.750000X0*%
%TD*%
%TA.AperFunction,ComponentPad*%
%ADD15O,1.700000X2.000000*%
%TD*%
%TA.AperFunction,ComponentPad*%
%ADD16RoundRect,0.250000X-0.600000X-0.750000X0.600000X-0.750000X0.600000X0.750000X-0.600000X0.750000X0*%
%TD*%
%TA.AperFunction,ComponentPad*%
%ADD17C,0.700000*%
%TD*%
%TA.AperFunction,ComponentPad*%
%ADD18O,0.900000X2.400000*%
%TD*%
%TA.AperFunction,ComponentPad*%
%ADD19O,0.900000X1.700000*%
%TD*%
%TA.AperFunction,ViaPad*%
%ADD20C,0.800000*%
%TD*%
%TA.AperFunction,Conductor*%
%ADD21C,0.250000*%
%TD*%
G04 APERTURE END LIST*
D10*
%TO.P,J9,1,Pin_1*%
%TO.N,GND*%
X170688000Y-73787000D03*
D11*
%TO.P,J9,2,Pin_2*%
%TO.N,+3V3*%
X170688000Y-76327000D03*
%TO.P,J9,3,Pin_3*%
%TO.N,SCL*%
X170688000Y-78867000D03*
%TO.P,J9,4,Pin_4*%
%TO.N,SDA*%
X170688000Y-81407000D03*
%TD*%
D12*
%TO.P,J3,1,Pin_1*%
%TO.N,GND*%
X161068000Y-88900000D03*
D13*
%TO.P,J3,2,Pin_2*%
%TO.N,+3V3*%
X163068000Y-88900000D03*
%TO.P,J3,3,Pin_3*%
%TO.N,GP21*%
X165068000Y-88900000D03*
%TO.P,J3,4,Pin_4*%
%TO.N,GP18*%
X167068000Y-88900000D03*
%TO.P,J3,5,Pin_5*%
%TO.N,GP17*%
X169068000Y-88900000D03*
%TO.P,J3,6,Pin_6*%
%TO.N,GP34*%
X171068000Y-88900000D03*
%TO.P,J3,7,Pin_7*%
%TO.N,GP33*%
X173068000Y-88900000D03*
%TO.P,J3,8,Pin_8*%
%TO.N,TX*%
X175068000Y-88900000D03*
%TO.P,J3,9,Pin_9*%
%TO.N,RX*%
X177068000Y-88900000D03*
%TO.P,J3,10,Pin_10*%
%TO.N,GP42*%
X179068000Y-88900000D03*
%TD*%
D12*
%TO.P,H2,1,VCC*%
%TO.N,+3V3*%
X139732000Y-68167600D03*
D13*
%TO.P,H2,2,GND*%
%TO.N,GND*%
X141732000Y-68167600D03*
%TO.P,H2,3,VOUT*%
%TO.N,hall_1*%
X143732000Y-68167600D03*
%TD*%
D12*
%TO.P,Joystick1,1,Pin_1*%
%TO.N,GND*%
X172085000Y-92456000D03*
D13*
%TO.P,Joystick1,2,Pin_2*%
%TO.N,+3V3*%
X174085000Y-92456000D03*
%TO.P,Joystick1,3,Pin_3*%
%TO.N,JX*%
X176085000Y-92456000D03*
%TO.P,Joystick1,4,Pin_4*%
%TO.N,JY*%
X178085000Y-92456000D03*
%TO.P,Joystick1,5,Pin_5*%
%TO.N,JSW*%
X180085000Y-92456000D03*
%TD*%
D12*
%TO.P,H4,1,VCC*%
%TO.N,+3V3*%
X180753000Y-68167600D03*
D13*
%TO.P,H4,2,GND*%
%TO.N,GND*%
X182753000Y-68167600D03*
%TO.P,H4,3,VOUT*%
%TO.N,hall_3*%
X184753000Y-68167600D03*
%TD*%
D12*
%TO.P,J6,1,Pin_1*%
%TO.N,GND*%
X145480000Y-88900000D03*
D13*
%TO.P,J6,2,Pin_2*%
%TO.N,+3V3*%
X147480000Y-88900000D03*
%TO.P,J6,3,Pin_3*%
%TO.N,GP16*%
X149480000Y-88900000D03*
%TO.P,J6,4,Pin_4*%
%TO.N,GP15*%
X151480000Y-88900000D03*
%TO.P,J6,5,Pin_5*%
%TO.N,GP14*%
X153480000Y-88900000D03*
%TO.P,J6,6,Pin_6*%
%TO.N,GP13*%
X155480000Y-88900000D03*
%TO.P,J6,7,Pin_7*%
%TO.N,ADC_BAT*%
X157480000Y-88900000D03*
%TD*%
D14*
%TO.P,BattExtLTC4054,1*%
%TO.N,VBAT*%
X178923000Y-97201000D03*
D15*
%TO.P,BattExtLTC4054,2*%
%TO.N,GND*%
X176423000Y-97201000D03*
%TD*%
D16*
%TO.P,J2,1*%
%TO.N,VBAT*%
X126278000Y-97917000D03*
D15*
%TO.P,J2,2*%
%TO.N,GND*%
X128778000Y-97917000D03*
%TD*%
D12*
%TO.P,Joystick2,1,Pin_1*%
%TO.N,GND*%
X130683000Y-93726000D03*
D13*
%TO.P,Joystick2,2,Pin_2*%
%TO.N,+3V3*%
X128683000Y-93726000D03*
%TO.P,Joystick2,3,Pin_3*%
%TO.N,JX*%
X126683000Y-93726000D03*
%TO.P,Joystick2,4,Pin_4*%
%TO.N,JY*%
X124683000Y-93726000D03*
%TO.P,Joystick2,5,Pin_5*%
%TO.N,JSW*%
X122683000Y-93726000D03*
%TD*%
D17*
%TO.P,P1,A1,GND*%
%TO.N,GND*%
X148881000Y-95043000D03*
%TO.P,P1,A4,VBUS*%
%TO.N,VBUS*%
X149731000Y-95043000D03*
%TO.P,P1,A5,CC*%
%TO.N,Net-(P1-CC)*%
X150581000Y-95043000D03*
%TO.P,P1,A6,D+*%
%TO.N,D+*%
X151431000Y-95043000D03*
%TO.P,P1,A7,D-*%
%TO.N,D-*%
X152281000Y-95043000D03*
%TO.P,P1,A8*%
%TO.N,N/C*%
X153131000Y-95043000D03*
%TO.P,P1,A9,VBUS*%
%TO.N,VBUS*%
X153981000Y-95043000D03*
%TO.P,P1,A12,GND*%
%TO.N,GND*%
X154831000Y-95043000D03*
%TO.P,P1,B1,GND*%
X154831000Y-96393000D03*
%TO.P,P1,B4,VBUS*%
%TO.N,VBUS*%
X153981000Y-96393000D03*
%TO.P,P1,B5,VCONN*%
%TO.N,Net-(P1-VCONN)*%
X153131000Y-96393000D03*
%TO.P,P1,B6*%
%TO.N,N/C*%
X152281000Y-96393000D03*
%TO.P,P1,B7*%
X151431000Y-96393000D03*
%TO.P,P1,B8*%
X150581000Y-96393000D03*
%TO.P,P1,B9,VBUS*%
%TO.N,VBUS*%
X149731000Y-96393000D03*
%TO.P,P1,B12,GND*%
%TO.N,GND*%
X148881000Y-96393000D03*
D18*
%TO.P,P1,S1,SHIELD*%
X147531000Y-96023000D03*
D19*
X147531000Y-99403000D03*
D18*
X156181000Y-96023000D03*
D19*
X156181000Y-99403000D03*
%TD*%
D12*
%TO.P,H1,1,VCC*%
%TO.N,+3V3*%
X119285000Y-68398600D03*
D13*
%TO.P,H1,2,GND*%
%TO.N,GND*%
X121285000Y-68398600D03*
%TO.P,H1,3,VOUT*%
%TO.N,hall_0*%
X123285000Y-68398600D03*
%TD*%
D12*
%TO.P,H3,1,VCC*%
%TO.N,+3V3*%
X160306000Y-68167600D03*
D13*
%TO.P,H3,2,GND*%
%TO.N,GND*%
X162306000Y-68167600D03*
%TO.P,H3,3,VOUT*%
%TO.N,hall_2*%
X164306000Y-68167600D03*
%TD*%
D10*
%TO.P,J1,1,Pin_1*%
%TO.N,GND*%
X185039000Y-84455000D03*
D11*
%TO.P,J1,2,Pin_2*%
%TO.N,+3V3*%
X185039000Y-86995000D03*
%TO.P,J1,3,Pin_3*%
%TO.N,SCL*%
X185039000Y-89535000D03*
%TO.P,J1,4,Pin_4*%
%TO.N,SDA*%
X185039000Y-92075000D03*
%TD*%
D20*
%TO.N,GND*%
X158115000Y-98933000D03*
%TO.N,hall_2*%
X139993000Y-81530100D03*
%TO.N,hall_3*%
X152054100Y-99728300D03*
%TO.N,GND*%
X167767000Y-73025000D03*
X139573000Y-89154000D03*
X170053000Y-94996000D03*
X184761400Y-71834600D03*
X147121300Y-78474800D03*
X121985600Y-72011300D03*
X127254000Y-85598000D03*
X137795000Y-85979000D03*
X182753000Y-84455000D03*
X172720000Y-97790000D03*
X150879700Y-77785000D03*
X130429000Y-87122000D03*
X160528000Y-70231000D03*
X159258000Y-89916000D03*
X180975000Y-80212500D03*
X136398000Y-98679000D03*
X165316200Y-92133100D03*
X133350000Y-95377000D03*
X132457700Y-98908600D03*
X166497000Y-76636400D03*
X158638000Y-75377000D03*
X169037000Y-92456000D03*
X164579400Y-96359000D03*
X141155000Y-70902900D03*
X148729000Y-74407300D03*
X152067000Y-68532000D03*
X164619300Y-79051600D03*
X136652000Y-95631000D03*
X153670000Y-69723000D03*
X123681700Y-89263700D03*
X180459700Y-75088400D03*
X174888400Y-74549000D03*
X129911000Y-80968600D03*
X182753000Y-89662000D03*
%TO.N,SCL*%
X139999200Y-82578500D03*
%TO.N,SDA*%
X175540700Y-85082800D03*
X138516000Y-88951800D03*
%TO.N,JX*%
X128073700Y-89310300D03*
%TO.N,JY*%
X133141500Y-92583900D03*
%TO.N,JSW*%
X127000700Y-89220300D03*
X172335300Y-96640800D03*
%TO.N,GP15*%
X133257100Y-89044300D03*
%TO.N,GP16*%
X135204800Y-89116700D03*
%TO.N,VBUS*%
X175687900Y-82556200D03*
%TO.N,Net-(P1-CC)*%
X152165200Y-92718800D03*
X150602200Y-93177100D03*
%TO.N,Net-(JP1-A)*%
X149646700Y-80936600D03*
X158955300Y-78279800D03*
%TO.N,Net-(D2-K)*%
X160421000Y-73424200D03*
X177560500Y-81696900D03*
%TO.N,D-*%
X146698000Y-94424300D03*
%TO.N,100*%
X135360600Y-78169300D03*
X123619900Y-98838100D03*
%TO.N,GP17*%
X137695000Y-92040700D03*
%TO.N,GP18*%
X156963600Y-86195900D03*
X138659800Y-87780000D03*
%TO.N,GP34*%
X138360900Y-74939100D03*
X143116100Y-76008600D03*
%TO.N,TX*%
X135423400Y-81235700D03*
X160829100Y-85058600D03*
%TO.N,RX*%
X136543100Y-80298900D03*
X160072000Y-84318900D03*
%TO.N,GP42*%
X137572300Y-80088400D03*
%TD*%
D21*
%TO.N,GND*%
X155201000Y-95043000D02*
X156181000Y-96023000D01*
X154831000Y-95043000D02*
X155201000Y-95043000D01*
X155811000Y-96393000D02*
X156181000Y-96023000D01*
X154831000Y-96393000D02*
X155811000Y-96393000D01*
%TO.N,hall_2*%
X164306000Y-68167600D02*
X163264000Y-67125600D01*
X140340400Y-81530100D02*
X139993000Y-81530100D01*
X154744900Y-67125600D02*
X140340400Y-81530100D01*
X163264000Y-67125600D02*
X154744900Y-67125600D01*
%TO.N,hall_3*%
X162283600Y-100579900D02*
X164186900Y-98676600D01*
X184753000Y-68167600D02*
X184753000Y-69169500D01*
X180117400Y-98676600D02*
X187643800Y-91150200D01*
X152054100Y-99728300D02*
X152905700Y-100579900D01*
X187643800Y-72060300D02*
X184753000Y-69169500D01*
X187643800Y-91150200D02*
X187643800Y-72060300D01*
X152905700Y-100579900D02*
X162283600Y-100579900D01*
X164186900Y-98676600D02*
X180117400Y-98676600D01*
%TO.N,GND*%
X147901000Y-96393000D02*
X147531000Y-96023000D01*
X148881000Y-96393000D02*
X147901000Y-96393000D01*
X148881000Y-95043000D02*
X148881000Y-96393000D01*
%TO.N,+3V3*%
X136515100Y-72386400D02*
X136109500Y-72386400D01*
X148481900Y-87898100D02*
X147480000Y-88900000D01*
X136109500Y-72386400D02*
X136109500Y-79521700D01*
X169511100Y-76327000D02*
X168465400Y-76327000D01*
X122302300Y-70193500D02*
X121079900Y-70193500D01*
X136109500Y-79521700D02*
X129098100Y-86533100D01*
X180753000Y-68167600D02*
X179751100Y-68167600D01*
X179751100Y-68167600D02*
X179751100Y-68573500D01*
X128683000Y-93726000D02*
X128683000Y-92724100D01*
X163068000Y-88900000D02*
X162066100Y-87898100D01*
X139732000Y-69169500D02*
X136515100Y-72386400D01*
X170688000Y-76327000D02*
X169511100Y-76327000D01*
X185039000Y-86995000D02*
X183862100Y-86995000D01*
X129098100Y-86533100D02*
X129098100Y-92309000D01*
X168465400Y-76327000D02*
X160306000Y-68167600D01*
X183862100Y-86862300D02*
X172662200Y-75662400D01*
X136109500Y-72386400D02*
X124495200Y-72386400D01*
X170688000Y-76327000D02*
X171864900Y-76327000D01*
X183862100Y-86995000D02*
X183862100Y-86862300D01*
X162066100Y-87898100D02*
X148481900Y-87898100D01*
X121079900Y-70193500D02*
X119285000Y-68398600D01*
X139732000Y-68167600D02*
X139732000Y-69169500D01*
X124495200Y-72386400D02*
X122302300Y-70193500D01*
X172529500Y-75662400D02*
X171864900Y-76327000D01*
X129098100Y-92309000D02*
X128683000Y-92724100D01*
X172662200Y-75662400D02*
X172529500Y-75662400D01*
X179751100Y-68573500D02*
X172662200Y-75662400D01*
%TO.N,SCL*%
X170688000Y-78867000D02*
X169511100Y-78867000D01*
X185039000Y-89535000D02*
X183862100Y-89535000D01*
X169511100Y-78867000D02*
X165799600Y-82578500D01*
X173194100Y-78867000D02*
X170688000Y-78867000D01*
X183862100Y-89535000D02*
X173194100Y-78867000D01*
X165799600Y-82578500D02*
X139999200Y-82578500D01*
%TO.N,SDA*%
X140110700Y-87357000D02*
X163561100Y-87357000D01*
X140110700Y-87357100D02*
X140110700Y-87357000D01*
X171864900Y-81407000D02*
X175540700Y-85082800D01*
X170688000Y-81407000D02*
X171864900Y-81407000D01*
X163561100Y-87357000D02*
X169511100Y-81407000D01*
X170688000Y-81407000D02*
X169511100Y-81407000D01*
X138516000Y-88951800D02*
X140110700Y-87357100D01*
%TO.N,JX*%
X126683000Y-93726000D02*
X126683000Y-92724100D01*
X128073700Y-89310300D02*
X128073700Y-91333400D01*
X137239100Y-92826200D02*
X136265000Y-91852100D01*
X132277900Y-92389000D02*
X132277900Y-93981000D01*
X176085000Y-92456000D02*
X175033400Y-91404400D01*
X131511300Y-94747600D02*
X127704600Y-94747600D01*
X127704600Y-94747600D02*
X126683000Y-93726000D01*
X136265000Y-91852100D02*
X132814800Y-91852100D01*
X132277900Y-93981000D02*
X131511300Y-94747600D01*
X132814800Y-91852100D02*
X132277900Y-92389000D01*
X175033400Y-91404400D02*
X149657200Y-91404400D01*
X148235400Y-92826200D02*
X137239100Y-92826200D01*
X149657200Y-91404400D02*
X148235400Y-92826200D01*
X128073700Y-91333400D02*
X126683000Y-92724100D01*
%TO.N,JY*%
X154292900Y-93459600D02*
X153848500Y-93904000D01*
X131669700Y-95244100D02*
X126201100Y-95244100D01*
X133141500Y-92583900D02*
X133141500Y-93413200D01*
X126201100Y-95244100D02*
X124683000Y-93726000D01*
X153848500Y-93904000D02*
X150301200Y-93904000D01*
X178085000Y-92456000D02*
X177081400Y-93459600D01*
X133321100Y-93592800D02*
X133321100Y-93592700D01*
X133141500Y-93413200D02*
X133321100Y-93592700D01*
X150301200Y-93904000D02*
X149990000Y-93592800D01*
X149990000Y-93592800D02*
X133321100Y-93592800D01*
X133321100Y-93592700D02*
X131669700Y-95244100D01*
X177081400Y-93459600D02*
X154292900Y-93459600D01*
%TO.N,JSW*%
X122683000Y-96547200D02*
X125789000Y-99653200D01*
X127000700Y-89220300D02*
X122683000Y-93538000D01*
X122683000Y-93726000D02*
X122683000Y-94727900D01*
X170806000Y-98170100D02*
X172335300Y-96640800D01*
X122683000Y-93538000D02*
X122683000Y-93726000D01*
X147265200Y-98170100D02*
X170806000Y-98170100D01*
X125789000Y-99653200D02*
X145782100Y-99653200D01*
X122683000Y-94727900D02*
X122683000Y-96547200D01*
X145782100Y-99653200D02*
X147265200Y-98170100D01*
%TO.N,GP15*%
X134624900Y-90412100D02*
X149967900Y-90412100D01*
X133257100Y-89044300D02*
X134624900Y-90412100D01*
X149967900Y-90412100D02*
X151480000Y-88900000D01*
%TO.N,GP16*%
X135990000Y-89901900D02*
X148478100Y-89901900D01*
X148478100Y-89901900D02*
X149480000Y-88900000D01*
X135204800Y-89116700D02*
X135990000Y-89901900D01*
%TO.N,VBAT*%
X178923000Y-97201000D02*
X177569800Y-95847800D01*
X166216900Y-95847800D02*
X164509200Y-97555500D01*
X127608100Y-96586900D02*
X126278000Y-97917000D01*
X129498200Y-96586900D02*
X127608100Y-96586900D01*
X130466800Y-97555500D02*
X129498200Y-96586900D01*
X164509200Y-97555500D02*
X130466800Y-97555500D01*
X177569800Y-95847800D02*
X166216900Y-95847800D01*
%TO.N,VBUS*%
X153981000Y-96561800D02*
X153456100Y-97086700D01*
X181095000Y-87963300D02*
X181095000Y-92882000D01*
X150294900Y-97086700D02*
X149731000Y-96522800D01*
X149731000Y-95043000D02*
X149731000Y-96393000D01*
X153456100Y-97086700D02*
X150294900Y-97086700D01*
X179997500Y-93979500D02*
X154858100Y-93979500D01*
X153981000Y-95043000D02*
X153981000Y-96393000D01*
X149731000Y-96522800D02*
X149731000Y-96393000D01*
X153981000Y-94856600D02*
X153981000Y-95043000D01*
X175687900Y-82556200D02*
X181095000Y-87963300D01*
X154858100Y-93979500D02*
X153981000Y-94856600D01*
X181095000Y-92882000D02*
X179997500Y-93979500D01*
X153981000Y-96393000D02*
X153981000Y-96561800D01*
%TO.N,Net-(P1-CC)*%
X150602200Y-93177100D02*
X151060500Y-92718800D01*
X151060500Y-92718800D02*
X152165200Y-92718800D01*
%TO.N,Net-(JP1-A)*%
X158955300Y-78279800D02*
X156298500Y-80936600D01*
X156298500Y-80936600D02*
X149646700Y-80936600D01*
%TO.N,Net-(D2-K)*%
X173460600Y-77597000D02*
X177560500Y-81696900D01*
X160421000Y-73424200D02*
X164593800Y-77597000D01*
X164593800Y-77597000D02*
X173460600Y-77597000D01*
%TO.N,D-*%
X152281000Y-94874200D02*
X151772900Y-94366100D01*
X152281000Y-95043000D02*
X152281000Y-94874200D01*
X146756200Y-94366100D02*
X146698000Y-94424300D01*
X151772900Y-94366100D02*
X146756200Y-94366100D01*
%TO.N,100*%
X121676800Y-96895000D02*
X123619900Y-98838100D01*
X121676800Y-93253400D02*
X121676800Y-96895000D01*
X135360600Y-78169300D02*
X135360600Y-79569600D01*
X135360600Y-79569600D02*
X121676800Y-93253400D01*
%TO.N,GP17*%
X137695000Y-92040700D02*
X138832300Y-90903400D01*
X138832300Y-90903400D02*
X167064600Y-90903400D01*
X167064600Y-90903400D02*
X169068000Y-88900000D01*
%TO.N,GP18*%
X138659800Y-87780000D02*
X140243900Y-86195900D01*
X140243900Y-86195900D02*
X156963600Y-86195900D01*
%TO.N,GP34*%
X142046600Y-74939100D02*
X143116100Y-76008600D01*
X138360900Y-74939100D02*
X142046600Y-74939100D01*
%TO.N,TX*%
X160829100Y-85058600D02*
X139246300Y-85058600D01*
X139246300Y-85058600D02*
X135423400Y-81235700D01*
%TO.N,RX*%
X140033600Y-84318900D02*
X136543100Y-80828400D01*
X160072000Y-84318900D02*
X140033600Y-84318900D01*
X136543100Y-80828400D02*
X136543100Y-80298900D01*
%TO.N,GP42*%
X166518400Y-83355000D02*
X139728100Y-83355000D01*
X179068000Y-87549700D02*
X171739500Y-80221200D01*
X169652200Y-80221200D02*
X166518400Y-83355000D01*
X179068000Y-88900000D02*
X179068000Y-87549700D01*
X171739500Y-80221200D02*
X169652200Y-80221200D01*
X137572300Y-81199200D02*
X137572300Y-80088400D01*
X139728100Y-83355000D02*
X137572300Y-81199200D01*
%TD*%
%TA.AperFunction,Conductor*%
%TO.N,GND*%
G36*
X151491236Y-98815285D02*
G01*
X151536991Y-98868089D01*
X151546935Y-98937247D01*
X151517910Y-99000803D01*
X151497082Y-99019918D01*
X151448229Y-99055411D01*
X151321566Y-99196085D01*
X151226921Y-99360015D01*
X151226918Y-99360022D01*
X151177867Y-99510988D01*
X151168426Y-99540044D01*
X151148640Y-99728300D01*
X151168426Y-99916556D01*
X151168427Y-99916559D01*
X151226918Y-100096577D01*
X151226921Y-100096584D01*
X151321567Y-100260516D01*
X151412493Y-100361499D01*
X151448229Y-100401188D01*
X151601365Y-100512448D01*
X151601370Y-100512451D01*
X151774292Y-100589442D01*
X151774297Y-100589444D01*
X151959454Y-100628800D01*
X152018647Y-100628800D01*
X152085686Y-100648485D01*
X152106328Y-100665119D01*
X152349028Y-100907819D01*
X152382513Y-100969142D01*
X152377529Y-101038834D01*
X152335657Y-101094767D01*
X152270193Y-101119184D01*
X152261347Y-101119500D01*
X130054016Y-101119500D01*
X128840458Y-101071595D01*
X128835619Y-101071214D01*
X127631483Y-100928786D01*
X127626683Y-100928027D01*
X126471094Y-100698460D01*
X126438519Y-100691988D01*
X126433747Y-100690843D01*
X126433743Y-100690842D01*
X125836027Y-100522032D01*
X125776861Y-100484868D01*
X125747180Y-100421616D01*
X125756408Y-100352358D01*
X125801614Y-100299084D01*
X125868446Y-100278707D01*
X125869729Y-100278700D01*
X145699357Y-100278700D01*
X145714977Y-100280424D01*
X145715004Y-100280139D01*
X145722760Y-100280871D01*
X145722767Y-100280873D01*
X145791914Y-100278700D01*
X145821450Y-100278700D01*
X145828328Y-100277830D01*
X145834141Y-100277372D01*
X145880727Y-100275909D01*
X145899969Y-100270317D01*
X145919012Y-100266374D01*
X145938892Y-100263864D01*
X145982222Y-100246707D01*
X145987746Y-100244817D01*
X145991496Y-100243727D01*
X146032490Y-100231818D01*
X146049729Y-100221622D01*
X146067203Y-100213062D01*
X146085827Y-100205688D01*
X146085827Y-100205687D01*
X146085832Y-100205686D01*
X146123549Y-100178282D01*
X146128405Y-100175092D01*
X146168520Y-100151370D01*
X146182689Y-100137199D01*
X146197479Y-100124568D01*
X146213687Y-100112794D01*
X146243399Y-100076876D01*
X146247312Y-100072576D01*
X146386657Y-99933231D01*
X146447978Y-99899748D01*
X146517670Y-99904732D01*
X146573603Y-99946604D01*
X146592896Y-99989492D01*
X146593765Y-99989220D01*
X146653484Y-100179561D01*
X146653489Y-100179571D01*
X146747251Y-100348498D01*
X146747256Y-100348505D01*
X146873107Y-100495105D01*
X147025890Y-100613368D01*
X147025894Y-100613370D01*
X147199363Y-100698460D01*
X147281000Y-100719596D01*
X147281000Y-100207978D01*
X147300685Y-100140939D01*
X147353489Y-100095184D01*
X147422647Y-100085240D01*
X147438926Y-100088709D01*
X147502840Y-100106895D01*
X147614521Y-100096546D01*
X147614526Y-100096543D01*
X147623063Y-100094115D01*
X147692930Y-100094701D01*
X147751390Y-100132966D01*
X147779881Y-100196763D01*
X147781000Y-100213381D01*
X147781000Y-100723470D01*
X147951524Y-100660315D01*
X147951531Y-100660312D01*
X148115503Y-100558107D01*
X148255534Y-100424997D01*
X148255535Y-100424996D01*
X148365913Y-100266413D01*
X148442106Y-100088862D01*
X148481000Y-99899606D01*
X148481000Y-99653000D01*
X147955000Y-99653000D01*
X147887961Y-99633315D01*
X147842206Y-99580511D01*
X147831000Y-99529000D01*
X147831000Y-99277000D01*
X147850685Y-99209961D01*
X147903489Y-99164206D01*
X147955000Y-99153000D01*
X148481000Y-99153000D01*
X148481000Y-98954822D01*
X148478694Y-98932144D01*
X148491496Y-98863457D01*
X148539400Y-98812595D01*
X148602058Y-98795600D01*
X151424197Y-98795600D01*
X151491236Y-98815285D01*
G37*
%TD.AperFunction*%
%TA.AperFunction,Conductor*%
G36*
X155174039Y-98815285D02*
G01*
X155219794Y-98868089D01*
X155231000Y-98919600D01*
X155231000Y-99153000D01*
X155757000Y-99153000D01*
X155824039Y-99172685D01*
X155869794Y-99225489D01*
X155881000Y-99277000D01*
X155881000Y-99529000D01*
X155861315Y-99596039D01*
X155808511Y-99641794D01*
X155757000Y-99653000D01*
X155231000Y-99653000D01*
X155231000Y-99830400D01*
X155211315Y-99897439D01*
X155158511Y-99943194D01*
X155107000Y-99954400D01*
X153216153Y-99954400D01*
X153149114Y-99934715D01*
X153128472Y-99918081D01*
X152993060Y-99782669D01*
X152959575Y-99721346D01*
X152957423Y-99707968D01*
X152939774Y-99540044D01*
X152881279Y-99360016D01*
X152786633Y-99196084D01*
X152659971Y-99055412D01*
X152659970Y-99055411D01*
X152611118Y-99019918D01*
X152568452Y-98964588D01*
X152562473Y-98894975D01*
X152595079Y-98833180D01*
X152655917Y-98798823D01*
X152684003Y-98795600D01*
X155107000Y-98795600D01*
X155174039Y-98815285D01*
G37*
%TD.AperFunction*%
%TA.AperFunction,Conductor*%
G36*
X162950987Y-98815285D02*
G01*
X162996742Y-98868089D01*
X163006686Y-98937247D01*
X162977661Y-99000803D01*
X162971631Y-99007278D01*
X162467921Y-99510988D01*
X162060828Y-99918081D01*
X161999505Y-99951566D01*
X161973147Y-99954400D01*
X157255000Y-99954400D01*
X157187961Y-99934715D01*
X157142206Y-99881911D01*
X157131000Y-99830400D01*
X157131000Y-99653000D01*
X156605000Y-99653000D01*
X156537961Y-99633315D01*
X156492206Y-99580511D01*
X156481000Y-99529000D01*
X156481000Y-99277000D01*
X156500685Y-99209961D01*
X156553489Y-99164206D01*
X156605000Y-99153000D01*
X157131000Y-99153000D01*
X157131000Y-98954822D01*
X157128694Y-98932144D01*
X157141496Y-98863457D01*
X157189400Y-98812595D01*
X157252058Y-98795600D01*
X162883948Y-98795600D01*
X162950987Y-98815285D01*
G37*
%TD.AperFunction*%
%TA.AperFunction,Conductor*%
G36*
X119591585Y-69593784D02*
G01*
X119612227Y-69610418D01*
X120579097Y-70577288D01*
X120588922Y-70589551D01*
X120589143Y-70589369D01*
X120594114Y-70595378D01*
X120620117Y-70619795D01*
X120644535Y-70642726D01*
X120665429Y-70663620D01*
X120670911Y-70667873D01*
X120675343Y-70671657D01*
X120709318Y-70703562D01*
X120726876Y-70713214D01*
X120743133Y-70723893D01*
X120758964Y-70736173D01*
X120778637Y-70744686D01*
X120801733Y-70754682D01*
X120806977Y-70757250D01*
X120847808Y-70779697D01*
X120860423Y-70782935D01*
X120867205Y-70784677D01*
X120885619Y-70790981D01*
X120904004Y-70798938D01*
X120950057Y-70806232D01*
X120955726Y-70807406D01*
X121000881Y-70819000D01*
X121020916Y-70819000D01*
X121040313Y-70820526D01*
X121060096Y-70823660D01*
X121106483Y-70819275D01*
X121112322Y-70819000D01*
X121991848Y-70819000D01*
X122058887Y-70838685D01*
X122079528Y-70855318D01*
X123078860Y-71854651D01*
X123994397Y-72770188D01*
X124004222Y-72782451D01*
X124004443Y-72782269D01*
X124009414Y-72788278D01*
X124030243Y-72807837D01*
X124059835Y-72835626D01*
X124080729Y-72856520D01*
X124086211Y-72860773D01*
X124090643Y-72864557D01*
X124124618Y-72896462D01*
X124142176Y-72906114D01*
X124158433Y-72916793D01*
X124174264Y-72929073D01*
X124193937Y-72937586D01*
X124217033Y-72947582D01*
X124222277Y-72950150D01*
X124263108Y-72972597D01*
X124275723Y-72975835D01*
X124282505Y-72977577D01*
X124300919Y-72983881D01*
X124319304Y-72991838D01*
X124365357Y-72999132D01*
X124371026Y-73000306D01*
X124416181Y-73011900D01*
X124436216Y-73011900D01*
X124455613Y-73013426D01*
X124475396Y-73016560D01*
X124521783Y-73012175D01*
X124527622Y-73011900D01*
X135360000Y-73011900D01*
X135427039Y-73031585D01*
X135472794Y-73084389D01*
X135484000Y-73135900D01*
X135484000Y-77144800D01*
X135464315Y-77211839D01*
X135411511Y-77257594D01*
X135360000Y-77268800D01*
X135265954Y-77268800D01*
X135237204Y-77274911D01*
X135080797Y-77308155D01*
X135080792Y-77308157D01*
X134907870Y-77385148D01*
X134907865Y-77385151D01*
X134754729Y-77496411D01*
X134628066Y-77637085D01*
X134533421Y-77801015D01*
X134533418Y-77801022D01*
X134497517Y-77911515D01*
X134474926Y-77981044D01*
X134455140Y-78169300D01*
X134474926Y-78357556D01*
X134474927Y-78357559D01*
X134533418Y-78537577D01*
X134533421Y-78537584D01*
X134628067Y-78701516D01*
X134671372Y-78749610D01*
X134703250Y-78785015D01*
X134733480Y-78848006D01*
X134735100Y-78867987D01*
X134735100Y-79259146D01*
X134715415Y-79326185D01*
X134698781Y-79346827D01*
X121293008Y-92752599D01*
X121280751Y-92762420D01*
X121280934Y-92762641D01*
X121274923Y-92767613D01*
X121227572Y-92818036D01*
X121206689Y-92838919D01*
X121206677Y-92838932D01*
X121202421Y-92844417D01*
X121198637Y-92848847D01*
X121166737Y-92882818D01*
X121166736Y-92882820D01*
X121157084Y-92900376D01*
X121146410Y-92916626D01*
X121134129Y-92932461D01*
X121134124Y-92932468D01*
X121115615Y-92975238D01*
X121113045Y-92980484D01*
X121090603Y-93021306D01*
X121085622Y-93040707D01*
X121079321Y-93059110D01*
X121071362Y-93077502D01*
X121071361Y-93077505D01*
X121064071Y-93123527D01*
X121062887Y-93129246D01*
X121051301Y-93174372D01*
X121051300Y-93174382D01*
X121051300Y-93194416D01*
X121049773Y-93213813D01*
X121046640Y-93233596D01*
X121048100Y-93249036D01*
X121051025Y-93279983D01*
X121051300Y-93285821D01*
X121051300Y-96812255D01*
X121049575Y-96827872D01*
X121049861Y-96827899D01*
X121049126Y-96835665D01*
X121051300Y-96904814D01*
X121051300Y-96934343D01*
X121051301Y-96934360D01*
X121052168Y-96941231D01*
X121052626Y-96947050D01*
X121054090Y-96993624D01*
X121054091Y-96993627D01*
X121059680Y-97012867D01*
X121063624Y-97031911D01*
X121066136Y-97051792D01*
X121076075Y-97076895D01*
X121083290Y-97095119D01*
X121085182Y-97100647D01*
X121098181Y-97145388D01*
X121108380Y-97162634D01*
X121116938Y-97180103D01*
X121124314Y-97198732D01*
X121151698Y-97236423D01*
X121154906Y-97241307D01*
X121178627Y-97281416D01*
X121178633Y-97281424D01*
X121192790Y-97295580D01*
X121205428Y-97310376D01*
X121217205Y-97326586D01*
X121217206Y-97326587D01*
X121253109Y-97356288D01*
X121257420Y-97360210D01*
X122427692Y-98530483D01*
X122680938Y-98783729D01*
X122714423Y-98845052D01*
X122716578Y-98858448D01*
X122725586Y-98944149D01*
X122734069Y-99024866D01*
X122734227Y-99026361D01*
X122735578Y-99032717D01*
X122734098Y-99033031D01*
X122735868Y-99095127D01*
X122699783Y-99154957D01*
X122637080Y-99185780D01*
X122567666Y-99177811D01*
X122555335Y-99171773D01*
X121957374Y-98836756D01*
X121953238Y-98834222D01*
X120945338Y-98160962D01*
X120941355Y-98158066D01*
X119990212Y-97407110D01*
X119986556Y-97403985D01*
X119286265Y-96756962D01*
X119286264Y-96756961D01*
X119096154Y-96581308D01*
X119092689Y-96577844D01*
X118531954Y-95970947D01*
X118500918Y-95908349D01*
X118508652Y-95838909D01*
X118511464Y-95832681D01*
X122555000Y-87503000D01*
X122555000Y-73787000D01*
X122554999Y-73786999D01*
X122016638Y-73241736D01*
X118603876Y-69785220D01*
X118570782Y-69723685D01*
X118576211Y-69654026D01*
X118618437Y-69598361D01*
X118684056Y-69574361D01*
X118692087Y-69574099D01*
X119524546Y-69574099D01*
X119591585Y-69593784D01*
G37*
%TD.AperFunction*%
%TA.AperFunction,Conductor*%
G36*
X130288781Y-98160018D02*
G01*
X130290904Y-98160937D01*
X130334288Y-98167808D01*
X130336919Y-98168225D01*
X130342639Y-98169409D01*
X130387781Y-98181000D01*
X130407816Y-98181000D01*
X130427214Y-98182526D01*
X130446994Y-98185659D01*
X130446995Y-98185660D01*
X130446995Y-98185659D01*
X130446996Y-98185660D01*
X130493383Y-98181275D01*
X130499222Y-98181000D01*
X146070347Y-98181000D01*
X146137386Y-98200685D01*
X146183141Y-98253489D01*
X146193085Y-98322647D01*
X146164060Y-98386203D01*
X146158028Y-98392681D01*
X145559328Y-98991381D01*
X145498005Y-99024866D01*
X145471647Y-99027700D01*
X129991558Y-99027700D01*
X129924519Y-99008015D01*
X129878764Y-98955211D01*
X129868820Y-98886053D01*
X129889983Y-98832577D01*
X129951599Y-98744579D01*
X129951600Y-98744577D01*
X130051429Y-98530492D01*
X130051433Y-98530483D01*
X130112567Y-98302326D01*
X130112569Y-98302314D01*
X130116007Y-98263015D01*
X130141458Y-98197946D01*
X130198048Y-98156966D01*
X130267810Y-98153087D01*
X130288781Y-98160018D01*
G37*
%TD.AperFunction*%
%TA.AperFunction,Conductor*%
G36*
X175085610Y-96492985D02*
G01*
X175131365Y-96545789D01*
X175141309Y-96614947D01*
X175138346Y-96629393D01*
X175088432Y-96815673D01*
X175088430Y-96815684D01*
X175076592Y-96950999D01*
X175076593Y-96951000D01*
X175809653Y-96951000D01*
X175876692Y-96970685D01*
X175922447Y-97023489D01*
X175932391Y-97092647D01*
X175928631Y-97109933D01*
X175923000Y-97129111D01*
X175923000Y-97272888D01*
X175928631Y-97292067D01*
X175928630Y-97361936D01*
X175890855Y-97420714D01*
X175827299Y-97449738D01*
X175809653Y-97451000D01*
X175076592Y-97451000D01*
X175088430Y-97586315D01*
X175088432Y-97586326D01*
X175149566Y-97814483D01*
X175149569Y-97814492D01*
X175177643Y-97874695D01*
X175188135Y-97943772D01*
X175159615Y-98007556D01*
X175101139Y-98045796D01*
X175065261Y-98051100D01*
X172108952Y-98051100D01*
X172041913Y-98031415D01*
X171996158Y-97978611D01*
X171986214Y-97909453D01*
X172015239Y-97845897D01*
X172021271Y-97839419D01*
X172283071Y-97577619D01*
X172344394Y-97544134D01*
X172370752Y-97541300D01*
X172429944Y-97541300D01*
X172429946Y-97541300D01*
X172615103Y-97501944D01*
X172788030Y-97424951D01*
X172941171Y-97313688D01*
X173067833Y-97173016D01*
X173162479Y-97009084D01*
X173220974Y-96829056D01*
X173240760Y-96640800D01*
X173237550Y-96610260D01*
X173250119Y-96541532D01*
X173297851Y-96490508D01*
X173360871Y-96473300D01*
X175018571Y-96473300D01*
X175085610Y-96492985D01*
G37*
%TD.AperFunction*%
%TA.AperFunction,Conductor*%
G36*
X181925702Y-88483639D02*
G01*
X181932180Y-88489671D01*
X183361297Y-89918788D01*
X183371122Y-89931051D01*
X183371343Y-89930869D01*
X183376314Y-89936878D01*
X183397500Y-89956772D01*
X183426735Y-89984226D01*
X183447629Y-90005120D01*
X183453111Y-90009373D01*
X183457543Y-90013157D01*
X183491518Y-90045062D01*
X183509076Y-90054714D01*
X183525335Y-90065395D01*
X183541164Y-90077673D01*
X183583938Y-90096182D01*
X183589156Y-90098738D01*
X183630008Y-90121197D01*
X183649416Y-90126180D01*
X183667817Y-90132480D01*
X183686204Y-90140437D01*
X183729588Y-90147308D01*
X183732219Y-90147725D01*
X183737939Y-90148909D01*
X183783081Y-90160500D01*
X183790637Y-90162440D01*
X183789973Y-90165025D01*
X183842214Y-90187792D01*
X183864230Y-90211780D01*
X183864964Y-90212829D01*
X183864965Y-90212830D01*
X184000505Y-90406401D01*
X184000506Y-90406402D01*
X184167597Y-90573493D01*
X184167603Y-90573498D01*
X184353158Y-90703425D01*
X184396783Y-90758002D01*
X184403977Y-90827500D01*
X184372454Y-90889855D01*
X184353158Y-90906575D01*
X184167597Y-91036505D01*
X184000505Y-91203597D01*
X183864965Y-91397169D01*
X183864964Y-91397171D01*
X183765098Y-91611335D01*
X183765094Y-91611344D01*
X183703938Y-91839586D01*
X183703936Y-91839596D01*
X183683341Y-92074999D01*
X183683341Y-92075000D01*
X183703936Y-92310403D01*
X183703938Y-92310413D01*
X183765094Y-92538655D01*
X183765096Y-92538659D01*
X183765097Y-92538663D01*
X183820418Y-92657298D01*
X183864965Y-92752830D01*
X183864967Y-92752834D01*
X183936797Y-92855417D01*
X184000505Y-92946401D01*
X184167599Y-93113495D01*
X184254540Y-93174372D01*
X184361165Y-93249032D01*
X184361167Y-93249033D01*
X184361170Y-93249035D01*
X184404723Y-93269344D01*
X184457163Y-93315516D01*
X184476315Y-93382709D01*
X184456100Y-93449590D01*
X184440000Y-93469407D01*
X180485180Y-97424227D01*
X180423857Y-97457712D01*
X180354165Y-97452728D01*
X180298232Y-97410856D01*
X180273815Y-97345392D01*
X180273499Y-97336546D01*
X180273499Y-96400998D01*
X180273498Y-96400981D01*
X180262999Y-96298203D01*
X180262998Y-96298200D01*
X180259654Y-96288109D01*
X180207814Y-96131666D01*
X180115712Y-95982344D01*
X179991656Y-95858288D01*
X179855807Y-95774496D01*
X179842336Y-95766187D01*
X179842331Y-95766185D01*
X179770160Y-95742270D01*
X179675797Y-95711001D01*
X179675795Y-95711000D01*
X179573016Y-95700500D01*
X179573009Y-95700500D01*
X178358453Y-95700500D01*
X178291414Y-95680815D01*
X178270772Y-95664181D01*
X178070603Y-95464012D01*
X178060780Y-95451750D01*
X178060559Y-95451934D01*
X178055586Y-95445923D01*
X178036959Y-95428431D01*
X178005164Y-95398573D01*
X177994719Y-95388128D01*
X177984275Y-95377683D01*
X177978786Y-95373425D01*
X177974361Y-95369647D01*
X177940382Y-95337738D01*
X177940380Y-95337736D01*
X177940377Y-95337735D01*
X177922829Y-95328088D01*
X177906563Y-95317404D01*
X177890733Y-95305125D01*
X177847968Y-95286618D01*
X177842722Y-95284048D01*
X177801893Y-95261603D01*
X177801892Y-95261602D01*
X177782493Y-95256622D01*
X177764081Y-95250318D01*
X177745698Y-95242362D01*
X177745692Y-95242360D01*
X177699674Y-95235072D01*
X177693952Y-95233887D01*
X177648821Y-95222300D01*
X177648819Y-95222300D01*
X177628784Y-95222300D01*
X177609386Y-95220773D01*
X177601962Y-95219597D01*
X177589605Y-95217640D01*
X177589604Y-95217640D01*
X177543216Y-95222025D01*
X177537378Y-95222300D01*
X166299643Y-95222300D01*
X166284022Y-95220575D01*
X166283995Y-95220861D01*
X166276233Y-95220126D01*
X166207072Y-95222300D01*
X166177549Y-95222300D01*
X166170678Y-95223167D01*
X166164859Y-95223625D01*
X166118274Y-95225089D01*
X166118268Y-95225090D01*
X166099026Y-95230680D01*
X166079987Y-95234623D01*
X166060117Y-95237134D01*
X166060100Y-95237138D01*
X166016782Y-95254288D01*
X166011258Y-95256179D01*
X165966507Y-95269183D01*
X165966504Y-95269184D01*
X165949258Y-95279383D01*
X165931793Y-95287939D01*
X165925910Y-95290268D01*
X165913166Y-95295314D01*
X165875472Y-95322699D01*
X165870591Y-95325905D01*
X165830480Y-95349628D01*
X165816308Y-95363800D01*
X165801523Y-95376428D01*
X165785312Y-95388207D01*
X165755609Y-95424110D01*
X165751676Y-95428431D01*
X165012578Y-96167531D01*
X164286428Y-96893681D01*
X164225105Y-96927166D01*
X164198747Y-96930000D01*
X157255000Y-96930000D01*
X157187961Y-96910315D01*
X157142206Y-96857511D01*
X157131000Y-96806000D01*
X157131000Y-96273000D01*
X156605000Y-96273000D01*
X156537961Y-96253315D01*
X156492206Y-96200511D01*
X156481000Y-96149000D01*
X156481000Y-95897000D01*
X156500685Y-95829961D01*
X156553489Y-95784206D01*
X156605000Y-95773000D01*
X157131000Y-95773000D01*
X157131000Y-95224823D01*
X157116352Y-95080778D01*
X157058515Y-94896438D01*
X157058510Y-94896428D01*
X156998982Y-94789178D01*
X156983659Y-94721009D01*
X157007623Y-94655377D01*
X157063266Y-94613120D01*
X157107401Y-94605000D01*
X179914757Y-94605000D01*
X179930377Y-94606724D01*
X179930404Y-94606439D01*
X179938160Y-94607171D01*
X179938167Y-94607173D01*
X180007314Y-94605000D01*
X180036850Y-94605000D01*
X180043728Y-94604130D01*
X180049541Y-94603672D01*
X180096127Y-94602209D01*
X180115369Y-94596617D01*
X180134412Y-94592674D01*
X180154292Y-94590164D01*
X180197622Y-94573007D01*
X180203146Y-94571117D01*
X180206896Y-94570027D01*
X180247890Y-94558118D01*
X180265129Y-94547922D01*
X180282603Y-94539362D01*
X180301227Y-94531988D01*
X180301227Y-94531987D01*
X180301232Y-94531986D01*
X180338949Y-94504582D01*
X180343805Y-94501392D01*
X180383920Y-94477670D01*
X180398089Y-94463499D01*
X180412879Y-94450868D01*
X180429087Y-94439094D01*
X180458799Y-94403176D01*
X180462712Y-94398876D01*
X181478787Y-93382802D01*
X181491042Y-93372986D01*
X181490859Y-93372764D01*
X181496866Y-93367792D01*
X181496877Y-93367786D01*
X181534034Y-93328218D01*
X181544227Y-93317364D01*
X181554671Y-93306918D01*
X181565120Y-93296471D01*
X181569379Y-93290978D01*
X181573152Y-93286561D01*
X181605062Y-93252582D01*
X181614713Y-93235024D01*
X181625396Y-93218761D01*
X181637673Y-93202936D01*
X181656185Y-93160153D01*
X181658738Y-93154941D01*
X181681197Y-93114092D01*
X181686180Y-93094680D01*
X181692481Y-93076280D01*
X181700437Y-93057896D01*
X181707729Y-93011852D01*
X181708906Y-93006171D01*
X181720500Y-92961019D01*
X181720500Y-92940983D01*
X181722027Y-92921582D01*
X181724328Y-92907059D01*
X181725160Y-92901804D01*
X181720772Y-92855394D01*
X181720499Y-92849599D01*
X181720499Y-88577351D01*
X181740184Y-88510313D01*
X181792988Y-88464558D01*
X181862146Y-88454614D01*
X181925702Y-88483639D01*
G37*
%TD.AperFunction*%
%TA.AperFunction,Conductor*%
G36*
X145743514Y-94237985D02*
G01*
X145789269Y-94290789D01*
X145799796Y-94355261D01*
X145792540Y-94424300D01*
X145812326Y-94612556D01*
X145812327Y-94612559D01*
X145870818Y-94792577D01*
X145870821Y-94792584D01*
X145965467Y-94956516D01*
X146043338Y-95043000D01*
X146092129Y-95097188D01*
X146245265Y-95208448D01*
X146245270Y-95208451D01*
X146415061Y-95284048D01*
X146418197Y-95285444D01*
X146482784Y-95299172D01*
X146544262Y-95332362D01*
X146578039Y-95393525D01*
X146581000Y-95420461D01*
X146581000Y-95773000D01*
X147107000Y-95773000D01*
X147174039Y-95792685D01*
X147219794Y-95845489D01*
X147231000Y-95897000D01*
X147231000Y-96149000D01*
X147211315Y-96216039D01*
X147158511Y-96261794D01*
X147107000Y-96273000D01*
X146581000Y-96273000D01*
X146581000Y-96806000D01*
X146561315Y-96873039D01*
X146508511Y-96918794D01*
X146457000Y-96930000D01*
X130777253Y-96930000D01*
X130710214Y-96910315D01*
X130689572Y-96893681D01*
X129999003Y-96203112D01*
X129989180Y-96190850D01*
X129988959Y-96191034D01*
X129983986Y-96185023D01*
X129965359Y-96167531D01*
X129933564Y-96137673D01*
X129923119Y-96127228D01*
X129912675Y-96116783D01*
X129907186Y-96112525D01*
X129902751Y-96108737D01*
X129876398Y-96083990D01*
X129841005Y-96023750D01*
X129843799Y-95953936D01*
X129883893Y-95896715D01*
X129948559Y-95870255D01*
X129961284Y-95869600D01*
X131586957Y-95869600D01*
X131602577Y-95871324D01*
X131602604Y-95871039D01*
X131610360Y-95871771D01*
X131610367Y-95871773D01*
X131679514Y-95869600D01*
X131709050Y-95869600D01*
X131715928Y-95868730D01*
X131721741Y-95868272D01*
X131768327Y-95866809D01*
X131787569Y-95861217D01*
X131806612Y-95857274D01*
X131826492Y-95854764D01*
X131869822Y-95837607D01*
X131875346Y-95835717D01*
X131885796Y-95832681D01*
X131920090Y-95822718D01*
X131937329Y-95812522D01*
X131954803Y-95803962D01*
X131973427Y-95796588D01*
X131973427Y-95796587D01*
X131973432Y-95796586D01*
X132011149Y-95769182D01*
X132016005Y-95765992D01*
X132056120Y-95742270D01*
X132070289Y-95728099D01*
X132085079Y-95715468D01*
X132101287Y-95703694D01*
X132130999Y-95667776D01*
X132134912Y-95663476D01*
X133543771Y-94254619D01*
X133605095Y-94221134D01*
X133631453Y-94218300D01*
X145676475Y-94218300D01*
X145743514Y-94237985D01*
G37*
%TD.AperFunction*%
%TA.AperFunction,Conductor*%
G36*
X134756494Y-81861809D02*
G01*
X134805309Y-81895018D01*
X134817522Y-81908582D01*
X134817530Y-81908589D01*
X134970665Y-82019848D01*
X134970670Y-82019851D01*
X135143592Y-82096842D01*
X135143597Y-82096844D01*
X135328754Y-82136200D01*
X135387948Y-82136200D01*
X135454987Y-82155885D01*
X135475629Y-82172519D01*
X138745497Y-85442388D01*
X138755322Y-85454651D01*
X138755543Y-85454469D01*
X138760514Y-85460478D01*
X138786517Y-85484895D01*
X138810935Y-85507826D01*
X138831829Y-85528720D01*
X138837311Y-85532973D01*
X138841743Y-85536757D01*
X138875718Y-85568662D01*
X138893276Y-85578314D01*
X138909533Y-85588993D01*
X138925364Y-85601273D01*
X138945037Y-85609786D01*
X138968133Y-85619782D01*
X138973377Y-85622350D01*
X139014208Y-85644797D01*
X139026823Y-85648035D01*
X139033605Y-85649777D01*
X139052019Y-85656081D01*
X139070404Y-85664038D01*
X139116457Y-85671332D01*
X139122126Y-85672506D01*
X139167281Y-85684100D01*
X139187316Y-85684100D01*
X139206713Y-85685626D01*
X139226496Y-85688760D01*
X139272883Y-85684375D01*
X139278722Y-85684100D01*
X139571747Y-85684100D01*
X139638786Y-85703785D01*
X139684541Y-85756589D01*
X139694485Y-85825747D01*
X139665460Y-85889303D01*
X139659428Y-85895781D01*
X138712028Y-86843181D01*
X138650705Y-86876666D01*
X138624347Y-86879500D01*
X138565154Y-86879500D01*
X138532697Y-86886398D01*
X138379997Y-86918855D01*
X138379992Y-86918857D01*
X138207070Y-86995848D01*
X138207065Y-86995851D01*
X138053929Y-87107111D01*
X137927266Y-87247785D01*
X137832621Y-87411715D01*
X137832618Y-87411722D01*
X137774127Y-87591740D01*
X137774126Y-87591744D01*
X137754340Y-87780000D01*
X137774126Y-87968256D01*
X137774127Y-87968259D01*
X137832621Y-88148285D01*
X137863809Y-88202304D01*
X137880282Y-88270204D01*
X137857430Y-88336231D01*
X137848573Y-88347275D01*
X137783466Y-88419585D01*
X137688821Y-88583515D01*
X137688818Y-88583522D01*
X137635241Y-88748416D01*
X137630326Y-88763544D01*
X137610540Y-88951800D01*
X137630261Y-89139441D01*
X137617693Y-89208168D01*
X137569961Y-89259192D01*
X137506941Y-89276400D01*
X136300453Y-89276400D01*
X136233414Y-89256715D01*
X136212772Y-89240081D01*
X136143760Y-89171069D01*
X136110275Y-89109746D01*
X136108123Y-89096368D01*
X136090474Y-88928444D01*
X136031979Y-88748416D01*
X135937333Y-88584484D01*
X135810671Y-88443812D01*
X135798117Y-88434691D01*
X135657534Y-88332551D01*
X135657529Y-88332548D01*
X135484607Y-88255557D01*
X135484602Y-88255555D01*
X135328568Y-88222390D01*
X135299446Y-88216200D01*
X135110154Y-88216200D01*
X135081032Y-88222390D01*
X134924997Y-88255555D01*
X134924992Y-88255557D01*
X134752070Y-88332548D01*
X134752065Y-88332551D01*
X134598929Y-88443811D01*
X134472266Y-88584485D01*
X134377621Y-88748415D01*
X134377619Y-88748419D01*
X134360643Y-88800668D01*
X134321205Y-88858343D01*
X134256846Y-88885541D01*
X134188000Y-88873626D01*
X134136524Y-88826382D01*
X134124781Y-88800667D01*
X134084281Y-88676022D01*
X134084280Y-88676021D01*
X134084279Y-88676016D01*
X133989633Y-88512084D01*
X133862971Y-88371412D01*
X133862970Y-88371411D01*
X133709834Y-88260151D01*
X133709829Y-88260148D01*
X133536907Y-88183157D01*
X133536902Y-88183155D01*
X133372846Y-88148285D01*
X133351746Y-88143800D01*
X133162454Y-88143800D01*
X133141354Y-88148285D01*
X132977297Y-88183155D01*
X132977292Y-88183157D01*
X132804370Y-88260148D01*
X132804365Y-88260151D01*
X132651229Y-88371411D01*
X132524566Y-88512085D01*
X132429921Y-88676015D01*
X132429918Y-88676022D01*
X132371427Y-88856040D01*
X132371426Y-88856044D01*
X132363817Y-88928440D01*
X132352512Y-89036008D01*
X132351640Y-89044300D01*
X132371426Y-89232556D01*
X132371427Y-89232559D01*
X132429918Y-89412577D01*
X132429921Y-89412584D01*
X132524567Y-89576516D01*
X132619887Y-89682379D01*
X132651229Y-89717188D01*
X132804365Y-89828448D01*
X132804370Y-89828451D01*
X132977292Y-89905442D01*
X132977297Y-89905444D01*
X133162454Y-89944800D01*
X133221648Y-89944800D01*
X133288687Y-89964485D01*
X133309329Y-89981119D01*
X134124097Y-90795888D01*
X134133922Y-90808151D01*
X134134143Y-90807969D01*
X134139114Y-90813978D01*
X134153514Y-90827500D01*
X134189535Y-90861326D01*
X134210429Y-90882220D01*
X134215911Y-90886473D01*
X134220343Y-90890257D01*
X134254318Y-90922162D01*
X134271876Y-90931814D01*
X134288135Y-90942495D01*
X134303964Y-90954773D01*
X134346738Y-90973282D01*
X134351964Y-90975842D01*
X134369879Y-90985691D01*
X134384882Y-90993940D01*
X134434144Y-91043487D01*
X134448799Y-91111803D01*
X134424193Y-91177197D01*
X134368139Y-91218906D01*
X134325141Y-91226600D01*
X132897537Y-91226600D01*
X132881920Y-91224876D01*
X132881893Y-91225162D01*
X132874131Y-91224427D01*
X132805003Y-91226600D01*
X132775450Y-91226600D01*
X132774729Y-91226690D01*
X132768557Y-91227469D01*
X132762745Y-91227926D01*
X132716173Y-91229390D01*
X132716172Y-91229390D01*
X132696929Y-91234981D01*
X132677879Y-91238925D01*
X132658011Y-91241434D01*
X132658009Y-91241435D01*
X132614684Y-91258588D01*
X132609157Y-91260480D01*
X132564410Y-91273481D01*
X132564409Y-91273482D01*
X132547167Y-91283679D01*
X132529699Y-91292237D01*
X132511069Y-91299613D01*
X132511067Y-91299614D01*
X132473376Y-91326998D01*
X132468494Y-91330205D01*
X132428379Y-91353930D01*
X132414208Y-91368100D01*
X132399423Y-91380728D01*
X132383212Y-91392507D01*
X132353509Y-91428410D01*
X132349577Y-91432731D01*
X131894108Y-91888199D01*
X131881851Y-91898020D01*
X131882034Y-91898241D01*
X131876023Y-91903213D01*
X131828672Y-91953636D01*
X131807789Y-91974519D01*
X131807777Y-91974532D01*
X131803521Y-91980017D01*
X131799737Y-91984447D01*
X131767837Y-92018418D01*
X131767836Y-92018420D01*
X131758184Y-92035976D01*
X131747510Y-92052226D01*
X131735229Y-92068061D01*
X131735224Y-92068068D01*
X131716715Y-92110838D01*
X131714145Y-92116084D01*
X131691703Y-92156906D01*
X131686722Y-92176307D01*
X131680421Y-92194710D01*
X131672462Y-92213102D01*
X131672461Y-92213106D01*
X131665171Y-92259127D01*
X131663987Y-92264846D01*
X131652399Y-92309983D01*
X131652399Y-92330019D01*
X131650873Y-92349407D01*
X131647740Y-92369192D01*
X131647739Y-92369198D01*
X131652124Y-92415584D01*
X131652399Y-92421421D01*
X131652399Y-92448564D01*
X131632714Y-92515603D01*
X131579910Y-92561358D01*
X131510752Y-92571302D01*
X131485065Y-92564746D01*
X131465376Y-92557402D01*
X131465372Y-92557401D01*
X131405844Y-92551000D01*
X130933000Y-92551000D01*
X130933000Y-93215424D01*
X130913315Y-93282463D01*
X130860511Y-93328218D01*
X130791353Y-93338162D01*
X130789602Y-93337897D01*
X130714486Y-93326000D01*
X130714481Y-93326000D01*
X130651519Y-93326000D01*
X130651514Y-93326000D01*
X130576398Y-93337897D01*
X130507104Y-93328942D01*
X130453652Y-93283946D01*
X130433013Y-93217194D01*
X130433000Y-93215424D01*
X130433000Y-92551000D01*
X129960155Y-92551000D01*
X129900627Y-92557401D01*
X129900621Y-92557403D01*
X129879246Y-92565375D01*
X129809554Y-92570358D01*
X129748232Y-92536871D01*
X129714748Y-92475548D01*
X129715811Y-92418354D01*
X129719712Y-92403161D01*
X129723600Y-92388019D01*
X129723600Y-92367983D01*
X129725127Y-92348582D01*
X129725276Y-92347647D01*
X129728260Y-92328804D01*
X129723872Y-92282394D01*
X129723600Y-92276599D01*
X129723599Y-86843551D01*
X129743285Y-86776513D01*
X129759919Y-86755871D01*
X132169143Y-84346647D01*
X134625481Y-81890308D01*
X134686802Y-81856825D01*
X134756494Y-81861809D01*
G37*
%TD.AperFunction*%
%TA.AperFunction,Conductor*%
G36*
X170853039Y-92049585D02*
G01*
X170898794Y-92102389D01*
X170910000Y-92153900D01*
X170910000Y-92206000D01*
X171574424Y-92206000D01*
X171641463Y-92225685D01*
X171687218Y-92278489D01*
X171697162Y-92347647D01*
X171696897Y-92349397D01*
X171680014Y-92455996D01*
X171680014Y-92456003D01*
X171696897Y-92562603D01*
X171687942Y-92631896D01*
X171642946Y-92685348D01*
X171576194Y-92705987D01*
X171574424Y-92706000D01*
X170910000Y-92706000D01*
X170910000Y-92710100D01*
X170890315Y-92777139D01*
X170837511Y-92822894D01*
X170786000Y-92834100D01*
X154375643Y-92834100D01*
X154360022Y-92832375D01*
X154359995Y-92832661D01*
X154352233Y-92831926D01*
X154283072Y-92834100D01*
X154253549Y-92834100D01*
X154246678Y-92834967D01*
X154240859Y-92835425D01*
X154194274Y-92836889D01*
X154194268Y-92836890D01*
X154175026Y-92842480D01*
X154155987Y-92846423D01*
X154136117Y-92848934D01*
X154136100Y-92848938D01*
X154092782Y-92866088D01*
X154087258Y-92867979D01*
X154042507Y-92880983D01*
X154042504Y-92880984D01*
X154025258Y-92891183D01*
X154007793Y-92899739D01*
X154002589Y-92901800D01*
X153989166Y-92907114D01*
X153951472Y-92934499D01*
X153946591Y-92937705D01*
X153906480Y-92961428D01*
X153892308Y-92975600D01*
X153877523Y-92988228D01*
X153861312Y-93000007D01*
X153831609Y-93035910D01*
X153827677Y-93040230D01*
X153791636Y-93076272D01*
X153625726Y-93242182D01*
X153564406Y-93275666D01*
X153538047Y-93278500D01*
X153096639Y-93278500D01*
X153029600Y-93258815D01*
X152983845Y-93206011D01*
X152973901Y-93136853D01*
X152989251Y-93092502D01*
X152989514Y-93092046D01*
X152992379Y-93087084D01*
X153050874Y-92907056D01*
X153070660Y-92718800D01*
X153050874Y-92530544D01*
X152992379Y-92350516D01*
X152991733Y-92349397D01*
X152914659Y-92215899D01*
X152898186Y-92147999D01*
X152921039Y-92081972D01*
X152975960Y-92038782D01*
X153022046Y-92029900D01*
X170786000Y-92029900D01*
X170853039Y-92049585D01*
G37*
%TD.AperFunction*%
%TA.AperFunction,Conductor*%
G36*
X182646331Y-68555691D02*
G01*
X182678699Y-68560818D01*
X182721515Y-68567600D01*
X182721519Y-68567600D01*
X182784485Y-68567600D01*
X182827300Y-68560818D01*
X182859602Y-68555702D01*
X182928894Y-68564656D01*
X182982347Y-68609652D01*
X183002987Y-68676403D01*
X183003000Y-68678175D01*
X183003000Y-69316219D01*
X183075939Y-69302584D01*
X183278976Y-69223927D01*
X183278987Y-69223922D01*
X183464130Y-69109285D01*
X183464131Y-69109285D01*
X183625055Y-68962584D01*
X183653730Y-68924612D01*
X183709838Y-68882974D01*
X183779550Y-68878281D01*
X183840733Y-68912022D01*
X183851640Y-68924609D01*
X183870512Y-68949600D01*
X183880573Y-68962922D01*
X184041568Y-69109688D01*
X184070401Y-69127540D01*
X184117037Y-69179567D01*
X184129063Y-69229071D01*
X184130290Y-69268124D01*
X184130291Y-69268127D01*
X184135880Y-69287367D01*
X184139824Y-69306411D01*
X184142336Y-69326292D01*
X184156789Y-69362797D01*
X184159490Y-69369619D01*
X184161382Y-69375147D01*
X184174381Y-69419888D01*
X184184580Y-69437134D01*
X184193136Y-69454600D01*
X184198401Y-69467895D01*
X184200514Y-69473232D01*
X184227898Y-69510923D01*
X184231106Y-69515807D01*
X184254827Y-69555916D01*
X184254833Y-69555924D01*
X184268990Y-69570080D01*
X184281627Y-69584875D01*
X184293406Y-69601087D01*
X184326545Y-69628502D01*
X184329309Y-69630788D01*
X184333620Y-69634710D01*
X186981982Y-72283072D01*
X187015466Y-72344393D01*
X187018300Y-72370751D01*
X187018300Y-78637041D01*
X186998615Y-78704080D01*
X186945811Y-78749835D01*
X186876653Y-78759779D01*
X186813097Y-78730754D01*
X186806619Y-78724722D01*
X186799402Y-78717505D01*
X186605830Y-78581965D01*
X186605828Y-78581964D01*
X186498745Y-78532030D01*
X186391663Y-78482097D01*
X186391659Y-78482096D01*
X186391655Y-78482094D01*
X186163413Y-78420938D01*
X186163403Y-78420936D01*
X185986966Y-78405500D01*
X185869034Y-78405500D01*
X185692596Y-78420936D01*
X185692586Y-78420938D01*
X185464344Y-78482094D01*
X185464335Y-78482098D01*
X185250171Y-78581964D01*
X185250169Y-78581965D01*
X185056597Y-78717505D01*
X184889506Y-78884597D01*
X184889501Y-78884604D01*
X184753967Y-79078165D01*
X184753965Y-79078169D01*
X184654098Y-79292335D01*
X184654094Y-79292344D01*
X184592938Y-79520586D01*
X184592936Y-79520596D01*
X184572341Y-79755999D01*
X184572341Y-79756000D01*
X184592936Y-79991403D01*
X184592938Y-79991413D01*
X184654094Y-80219655D01*
X184654096Y-80219659D01*
X184654097Y-80219663D01*
X184680675Y-80276659D01*
X184753964Y-80433828D01*
X184753965Y-80433830D01*
X184889505Y-80627402D01*
X185056597Y-80794494D01*
X185250169Y-80930034D01*
X185250171Y-80930035D01*
X185464337Y-81029903D01*
X185692592Y-81091063D01*
X185869034Y-81106500D01*
X185986966Y-81106500D01*
X186163408Y-81091063D01*
X186391663Y-81029903D01*
X186605829Y-80930035D01*
X186799401Y-80794495D01*
X186799402Y-80794493D01*
X186806619Y-80787278D01*
X186867942Y-80753793D01*
X186937634Y-80758777D01*
X186993567Y-80800649D01*
X187017984Y-80866113D01*
X187018300Y-80874959D01*
X187018300Y-90839747D01*
X186998615Y-90906786D01*
X186981981Y-90927428D01*
X186433407Y-91476001D01*
X186372084Y-91509486D01*
X186302392Y-91504502D01*
X186246459Y-91462630D01*
X186233344Y-91440724D01*
X186215694Y-91402873D01*
X186213035Y-91397171D01*
X186143000Y-91297150D01*
X186077494Y-91203597D01*
X185910402Y-91036506D01*
X185910396Y-91036501D01*
X185724842Y-90906575D01*
X185681217Y-90851998D01*
X185674023Y-90782500D01*
X185705546Y-90720145D01*
X185724842Y-90703425D01*
X185819345Y-90637253D01*
X185910401Y-90573495D01*
X186077495Y-90406401D01*
X186213035Y-90212830D01*
X186312903Y-89998663D01*
X186374063Y-89770408D01*
X186394659Y-89535000D01*
X186393905Y-89526387D01*
X186376414Y-89326462D01*
X186374063Y-89299592D01*
X186312903Y-89071337D01*
X186213035Y-88857171D01*
X186191477Y-88826382D01*
X186077494Y-88663597D01*
X185910402Y-88496506D01*
X185910401Y-88496505D01*
X185786574Y-88409800D01*
X185724841Y-88366574D01*
X185681216Y-88311997D01*
X185674024Y-88242498D01*
X185705546Y-88180144D01*
X185724836Y-88163428D01*
X185910401Y-88033495D01*
X186077495Y-87866401D01*
X186213035Y-87672830D01*
X186312903Y-87458663D01*
X186374063Y-87230408D01*
X186394659Y-86995000D01*
X186374063Y-86759592D01*
X186312903Y-86531337D01*
X186213035Y-86317171D01*
X186128120Y-86195900D01*
X186077496Y-86123600D01*
X186073752Y-86119856D01*
X185955179Y-86001283D01*
X185921696Y-85939963D01*
X185926680Y-85870271D01*
X185968551Y-85814337D01*
X185999529Y-85797422D01*
X186131086Y-85748354D01*
X186131093Y-85748350D01*
X186246187Y-85662190D01*
X186246190Y-85662187D01*
X186332350Y-85547093D01*
X186332354Y-85547086D01*
X186382596Y-85412379D01*
X186382598Y-85412372D01*
X186388999Y-85352844D01*
X186389000Y-85352827D01*
X186389000Y-84705000D01*
X185652347Y-84705000D01*
X185585308Y-84685315D01*
X185539553Y-84632511D01*
X185529609Y-84563353D01*
X185533369Y-84546067D01*
X185539000Y-84526888D01*
X185539000Y-84383111D01*
X185533369Y-84363933D01*
X185533370Y-84294064D01*
X185571145Y-84235286D01*
X185634701Y-84206262D01*
X185652347Y-84205000D01*
X186388999Y-84205000D01*
X186389000Y-83557172D01*
X186388999Y-83557155D01*
X186382598Y-83497627D01*
X186382596Y-83497620D01*
X186332354Y-83362913D01*
X186332350Y-83362906D01*
X186246190Y-83247812D01*
X186246187Y-83247809D01*
X186131093Y-83161649D01*
X186131086Y-83161645D01*
X185996379Y-83111403D01*
X185996372Y-83111401D01*
X185936844Y-83105000D01*
X185289000Y-83105000D01*
X185289000Y-83842698D01*
X185269315Y-83909737D01*
X185216511Y-83955492D01*
X185147355Y-83965436D01*
X185074766Y-83955000D01*
X185074763Y-83955000D01*
X185003237Y-83955000D01*
X185003233Y-83955000D01*
X184930645Y-83965436D01*
X184861487Y-83955492D01*
X184808684Y-83909736D01*
X184789000Y-83842698D01*
X184789000Y-83105000D01*
X184141155Y-83105000D01*
X184081627Y-83111401D01*
X184081620Y-83111403D01*
X183946913Y-83161645D01*
X183946906Y-83161649D01*
X183831812Y-83247809D01*
X183831809Y-83247812D01*
X183745649Y-83362906D01*
X183745645Y-83362913D01*
X183695403Y-83497620D01*
X183695401Y-83497627D01*
X183689000Y-83557155D01*
X183689000Y-84205000D01*
X184425653Y-84205000D01*
X184492692Y-84224685D01*
X184538447Y-84277489D01*
X184548391Y-84346647D01*
X184544631Y-84363933D01*
X184539000Y-84383111D01*
X184539000Y-84526888D01*
X184544631Y-84546067D01*
X184544630Y-84615936D01*
X184506855Y-84674714D01*
X184443299Y-84703738D01*
X184425653Y-84705000D01*
X183689000Y-84705000D01*
X183689000Y-85352844D01*
X183695401Y-85412372D01*
X183695403Y-85412379D01*
X183733327Y-85514059D01*
X183738311Y-85583751D01*
X183704826Y-85645074D01*
X183643502Y-85678558D01*
X183573811Y-85673574D01*
X183529464Y-85645073D01*
X173634471Y-75750080D01*
X173600986Y-75688757D01*
X173605970Y-75619065D01*
X173634471Y-75574718D01*
X176715544Y-72493645D01*
X179842778Y-69366410D01*
X179904099Y-69332927D01*
X179962450Y-69337100D01*
X179962969Y-69334907D01*
X179970511Y-69336689D01*
X179970517Y-69336691D01*
X180030127Y-69343100D01*
X181475872Y-69343099D01*
X181535483Y-69336691D01*
X181670331Y-69286396D01*
X181785546Y-69200146D01*
X181818884Y-69155612D01*
X181848087Y-69116603D01*
X181904020Y-69074732D01*
X181973712Y-69069748D01*
X182030891Y-69099277D01*
X182041869Y-69109285D01*
X182041874Y-69109289D01*
X182227012Y-69223922D01*
X182227023Y-69223927D01*
X182430060Y-69302584D01*
X182503000Y-69316219D01*
X182503000Y-68678175D01*
X182522685Y-68611136D01*
X182575489Y-68565381D01*
X182644647Y-68555437D01*
X182646331Y-68555691D01*
G37*
%TD.AperFunction*%
%TA.AperFunction,Conductor*%
G36*
X184556167Y-66120657D02*
G01*
X184799551Y-66138089D01*
X184799555Y-66138091D01*
X184821863Y-66139688D01*
X184821864Y-66139689D01*
X185257056Y-66170861D01*
X185274615Y-66173390D01*
X185954240Y-66321603D01*
X185971117Y-66326562D01*
X186622450Y-66569351D01*
X186638585Y-66576720D01*
X187248981Y-66910192D01*
X187263780Y-66919699D01*
X187745322Y-67279802D01*
X187820536Y-67336048D01*
X187833956Y-67347671D01*
X188326317Y-67840032D01*
X188337940Y-67853452D01*
X188754288Y-68410205D01*
X188763803Y-68425015D01*
X189097274Y-69035400D01*
X189104646Y-69051542D01*
X189347425Y-69702872D01*
X189352386Y-69719759D01*
X189500604Y-70399374D01*
X189503135Y-70416937D01*
X189514620Y-70577288D01*
X189553334Y-71117825D01*
X189553492Y-71122238D01*
X189553492Y-85619983D01*
X189505585Y-86833521D01*
X189505204Y-86838360D01*
X189362778Y-88042514D01*
X189362019Y-88047314D01*
X189125982Y-89235474D01*
X189124836Y-89240247D01*
X188795172Y-90407513D01*
X188793679Y-90412109D01*
X188511514Y-91177509D01*
X188469856Y-91233601D01*
X188404485Y-91258267D01*
X188336156Y-91243676D01*
X188286563Y-91194459D01*
X188271718Y-91146286D01*
X188269575Y-91123614D01*
X188269300Y-91117777D01*
X188269300Y-72143042D01*
X188271024Y-72127422D01*
X188270739Y-72127395D01*
X188271473Y-72119633D01*
X188269300Y-72050472D01*
X188269300Y-72020956D01*
X188269300Y-72020950D01*
X188268431Y-72014079D01*
X188267973Y-72008252D01*
X188266510Y-71961673D01*
X188260919Y-71942430D01*
X188256973Y-71923378D01*
X188254464Y-71903508D01*
X188237304Y-71860167D01*
X188235424Y-71854679D01*
X188222418Y-71809910D01*
X188212222Y-71792670D01*
X188203661Y-71775194D01*
X188196287Y-71756570D01*
X188196286Y-71756568D01*
X188168879Y-71718845D01*
X188165688Y-71713986D01*
X188141972Y-71673883D01*
X188141965Y-71673874D01*
X188127806Y-71659715D01*
X188115168Y-71644919D01*
X188103394Y-71628713D01*
X188067488Y-71599009D01*
X188063176Y-71595086D01*
X185615554Y-69147463D01*
X185582069Y-69086140D01*
X185587053Y-69016448D01*
X185619696Y-68968145D01*
X185625427Y-68962922D01*
X185756712Y-68789072D01*
X185853817Y-68594059D01*
X185913435Y-68384523D01*
X185933536Y-68167600D01*
X185913435Y-67950677D01*
X185853817Y-67741141D01*
X185756712Y-67546128D01*
X185625427Y-67372278D01*
X185618597Y-67366052D01*
X185491270Y-67249978D01*
X185464432Y-67225512D01*
X185464428Y-67225509D01*
X185464423Y-67225506D01*
X185279213Y-67110829D01*
X185279207Y-67110826D01*
X185194112Y-67077860D01*
X185076069Y-67032130D01*
X184861926Y-66992100D01*
X184644074Y-66992100D01*
X184429931Y-67032130D01*
X184386896Y-67048802D01*
X184226792Y-67110826D01*
X184226786Y-67110829D01*
X184041576Y-67225506D01*
X184041566Y-67225513D01*
X183880574Y-67372276D01*
X183851640Y-67410591D01*
X183795530Y-67452227D01*
X183725818Y-67456918D01*
X183664637Y-67423176D01*
X183653731Y-67410590D01*
X183625051Y-67372611D01*
X183625050Y-67372610D01*
X183464131Y-67225914D01*
X183278987Y-67111277D01*
X183278985Y-67111276D01*
X183075931Y-67032613D01*
X183075921Y-67032610D01*
X183003001Y-67018978D01*
X183003000Y-67018979D01*
X183003000Y-67657024D01*
X182983315Y-67724063D01*
X182930511Y-67769818D01*
X182861353Y-67779762D01*
X182859602Y-67779497D01*
X182784486Y-67767600D01*
X182784481Y-67767600D01*
X182721519Y-67767600D01*
X182721514Y-67767600D01*
X182646398Y-67779497D01*
X182577104Y-67770542D01*
X182523652Y-67725546D01*
X182503013Y-67658794D01*
X182503000Y-67657024D01*
X182503000Y-67018979D01*
X182502998Y-67018978D01*
X182430078Y-67032610D01*
X182430068Y-67032613D01*
X182227014Y-67111276D01*
X182227012Y-67111277D01*
X182041869Y-67225914D01*
X182041868Y-67225914D01*
X182030887Y-67235925D01*
X181968082Y-67266540D01*
X181898695Y-67258340D01*
X181848086Y-67218597D01*
X181785546Y-67135054D01*
X181753182Y-67110826D01*
X181670335Y-67048806D01*
X181670328Y-67048802D01*
X181535482Y-66998508D01*
X181535483Y-66998508D01*
X181475883Y-66992101D01*
X181475881Y-66992100D01*
X181475873Y-66992100D01*
X181475864Y-66992100D01*
X180030129Y-66992100D01*
X180030123Y-66992101D01*
X179970516Y-66998508D01*
X179835671Y-67048802D01*
X179835664Y-67048806D01*
X179720455Y-67135052D01*
X179720452Y-67135055D01*
X179634206Y-67250264D01*
X179634202Y-67250271D01*
X179583908Y-67385117D01*
X179577501Y-67444716D01*
X179577500Y-67444735D01*
X179577500Y-67476225D01*
X179557815Y-67543264D01*
X179505011Y-67589019D01*
X179491826Y-67594154D01*
X179482657Y-67597133D01*
X179475752Y-67601515D01*
X179454980Y-67612099D01*
X179447373Y-67615111D01*
X179447362Y-67615117D01*
X179400914Y-67648863D01*
X179397695Y-67651051D01*
X179349223Y-67681813D01*
X179349220Y-67681816D01*
X179343629Y-67687770D01*
X179326129Y-67703199D01*
X179319513Y-67708005D01*
X179319512Y-67708006D01*
X179282912Y-67752246D01*
X179280338Y-67755165D01*
X179241037Y-67797017D01*
X179241035Y-67797020D01*
X179237094Y-67804189D01*
X179223989Y-67823473D01*
X179218777Y-67829773D01*
X179218774Y-67829778D01*
X179194331Y-67881721D01*
X179192564Y-67885189D01*
X179164904Y-67935503D01*
X179164903Y-67935508D01*
X179162869Y-67943428D01*
X179154970Y-67965368D01*
X179151486Y-67972772D01*
X179151484Y-67972778D01*
X179140729Y-68029161D01*
X179139879Y-68032961D01*
X179125600Y-68088576D01*
X179125600Y-68096752D01*
X179123405Y-68119979D01*
X179121873Y-68128012D01*
X179125478Y-68185324D01*
X179125600Y-68189195D01*
X179125600Y-68263046D01*
X179105915Y-68330085D01*
X179089281Y-68350727D01*
X172416631Y-75023376D01*
X172374595Y-75050988D01*
X172329369Y-75068893D01*
X172323842Y-75070786D01*
X172279111Y-75083782D01*
X172279108Y-75083783D01*
X172261863Y-75093981D01*
X172244401Y-75102535D01*
X172225772Y-75109911D01*
X172225767Y-75109913D01*
X172188064Y-75137306D01*
X172183182Y-75140512D01*
X172143080Y-75164228D01*
X172128908Y-75178400D01*
X172114123Y-75191028D01*
X172098650Y-75202271D01*
X172097912Y-75202807D01*
X172068209Y-75238710D01*
X172064277Y-75243031D01*
X171876783Y-75430524D01*
X171815460Y-75464009D01*
X171745768Y-75459025D01*
X171701421Y-75430525D01*
X171701420Y-75430524D01*
X171604179Y-75333283D01*
X171570696Y-75271963D01*
X171575680Y-75202271D01*
X171617551Y-75146337D01*
X171648529Y-75129422D01*
X171780086Y-75080354D01*
X171780093Y-75080350D01*
X171895187Y-74994190D01*
X171895190Y-74994187D01*
X171981350Y-74879093D01*
X171981354Y-74879086D01*
X172031596Y-74744379D01*
X172031598Y-74744372D01*
X172037999Y-74684844D01*
X172038000Y-74684827D01*
X172038000Y-74037000D01*
X171301347Y-74037000D01*
X171234308Y-74017315D01*
X171188553Y-73964511D01*
X171178609Y-73895353D01*
X171182369Y-73878067D01*
X171188000Y-73858888D01*
X171188000Y-73715111D01*
X171182369Y-73695933D01*
X171182370Y-73626064D01*
X171220145Y-73567286D01*
X171283701Y-73538262D01*
X171301347Y-73537000D01*
X172038000Y-73537000D01*
X172038000Y-72889172D01*
X172037999Y-72889155D01*
X172031598Y-72829627D01*
X172031596Y-72829620D01*
X171981354Y-72694913D01*
X171981350Y-72694906D01*
X171895190Y-72579812D01*
X171895187Y-72579809D01*
X171780093Y-72493649D01*
X171780086Y-72493645D01*
X171645379Y-72443403D01*
X171645372Y-72443401D01*
X171585844Y-72437000D01*
X170938000Y-72437000D01*
X170938000Y-73174698D01*
X170918315Y-73241737D01*
X170865511Y-73287492D01*
X170796355Y-73297436D01*
X170723766Y-73287000D01*
X170723763Y-73287000D01*
X170652237Y-73287000D01*
X170652233Y-73287000D01*
X170579645Y-73297436D01*
X170510487Y-73287492D01*
X170457684Y-73241736D01*
X170438000Y-73174698D01*
X170438000Y-72437000D01*
X169790155Y-72437000D01*
X169730627Y-72443401D01*
X169730620Y-72443403D01*
X169595913Y-72493645D01*
X169595906Y-72493649D01*
X169480812Y-72579809D01*
X169480809Y-72579812D01*
X169394649Y-72694906D01*
X169394645Y-72694913D01*
X169344403Y-72829620D01*
X169344401Y-72829627D01*
X169338000Y-72889155D01*
X169338000Y-73537000D01*
X170074653Y-73537000D01*
X170141692Y-73556685D01*
X170187447Y-73609489D01*
X170197391Y-73678647D01*
X170193631Y-73695933D01*
X170188000Y-73715111D01*
X170188000Y-73858888D01*
X170193631Y-73878067D01*
X170193630Y-73947936D01*
X170155855Y-74006714D01*
X170092299Y-74035738D01*
X170074653Y-74037000D01*
X169338000Y-74037000D01*
X169338000Y-74684844D01*
X169344401Y-74744372D01*
X169344403Y-74744379D01*
X169394645Y-74879086D01*
X169394649Y-74879093D01*
X169480809Y-74994187D01*
X169480812Y-74994190D01*
X169595906Y-75080350D01*
X169595913Y-75080354D01*
X169727470Y-75129421D01*
X169783403Y-75171292D01*
X169807821Y-75236756D01*
X169792970Y-75305029D01*
X169771819Y-75333284D01*
X169649503Y-75455600D01*
X169514348Y-75648623D01*
X169459771Y-75692248D01*
X169412773Y-75701500D01*
X168775853Y-75701500D01*
X168708814Y-75681815D01*
X168688172Y-75665181D01*
X162539697Y-69516706D01*
X162506212Y-69455383D01*
X162511196Y-69385691D01*
X162553068Y-69329758D01*
X162604593Y-69307136D01*
X162628929Y-69302586D01*
X162628930Y-69302586D01*
X162831985Y-69223923D01*
X162831987Y-69223922D01*
X163017130Y-69109285D01*
X163017131Y-69109285D01*
X163178055Y-68962584D01*
X163206730Y-68924612D01*
X163262838Y-68882974D01*
X163332550Y-68878281D01*
X163393733Y-68912022D01*
X163404640Y-68924609D01*
X163423512Y-68949600D01*
X163433573Y-68962922D01*
X163594568Y-69109688D01*
X163594575Y-69109692D01*
X163594576Y-69109693D01*
X163779786Y-69224370D01*
X163779792Y-69224373D01*
X163791919Y-69229071D01*
X163982931Y-69303070D01*
X164197074Y-69343100D01*
X164197076Y-69343100D01*
X164414924Y-69343100D01*
X164414926Y-69343100D01*
X164629069Y-69303070D01*
X164832210Y-69224372D01*
X165017432Y-69109688D01*
X165178427Y-68962922D01*
X165309712Y-68789072D01*
X165406817Y-68594059D01*
X165466435Y-68384523D01*
X165486536Y-68167600D01*
X165466435Y-67950677D01*
X165406817Y-67741141D01*
X165309712Y-67546128D01*
X165178427Y-67372278D01*
X165171597Y-67366052D01*
X165044270Y-67249978D01*
X165017432Y-67225512D01*
X165017428Y-67225509D01*
X165017423Y-67225506D01*
X164832213Y-67110829D01*
X164832207Y-67110826D01*
X164747113Y-67077860D01*
X164629069Y-67032130D01*
X164414926Y-66992100D01*
X164197074Y-66992100D01*
X164197072Y-66992100D01*
X164107997Y-67008750D01*
X164038482Y-67001718D01*
X163997533Y-66974542D01*
X163764803Y-66741812D01*
X163754980Y-66729550D01*
X163754759Y-66729734D01*
X163749786Y-66723723D01*
X163731159Y-66706231D01*
X163699364Y-66676373D01*
X163688919Y-66665928D01*
X163678475Y-66655483D01*
X163672986Y-66651225D01*
X163668561Y-66647447D01*
X163634582Y-66615538D01*
X163634580Y-66615536D01*
X163634577Y-66615535D01*
X163617029Y-66605888D01*
X163600763Y-66595204D01*
X163584933Y-66582925D01*
X163542168Y-66564418D01*
X163536922Y-66561848D01*
X163496093Y-66539403D01*
X163496092Y-66539402D01*
X163476693Y-66534422D01*
X163458281Y-66528118D01*
X163439898Y-66520162D01*
X163439892Y-66520160D01*
X163393874Y-66512872D01*
X163388152Y-66511687D01*
X163343021Y-66500100D01*
X163343019Y-66500100D01*
X163322984Y-66500100D01*
X163303586Y-66498573D01*
X163296162Y-66497397D01*
X163283805Y-66495440D01*
X163283804Y-66495440D01*
X163237416Y-66499825D01*
X163231578Y-66500100D01*
X154827637Y-66500100D01*
X154812020Y-66498376D01*
X154811993Y-66498662D01*
X154804231Y-66497927D01*
X154735103Y-66500100D01*
X154705550Y-66500100D01*
X154704829Y-66500190D01*
X154698657Y-66500969D01*
X154692845Y-66501426D01*
X154646273Y-66502890D01*
X154646272Y-66502890D01*
X154627029Y-66508481D01*
X154607979Y-66512425D01*
X154588111Y-66514934D01*
X154588109Y-66514935D01*
X154544784Y-66532088D01*
X154539257Y-66533980D01*
X154494510Y-66546981D01*
X154494509Y-66546982D01*
X154477267Y-66557179D01*
X154459799Y-66565737D01*
X154441169Y-66573113D01*
X154441167Y-66573114D01*
X154403476Y-66600498D01*
X154398594Y-66603705D01*
X154358479Y-66627430D01*
X154344308Y-66641600D01*
X154329523Y-66654228D01*
X154313312Y-66666007D01*
X154283609Y-66701910D01*
X154279677Y-66706231D01*
X140356819Y-80629088D01*
X140295496Y-80662573D01*
X140243357Y-80662697D01*
X140189369Y-80651221D01*
X140087646Y-80629600D01*
X139898354Y-80629600D01*
X139865897Y-80636498D01*
X139713197Y-80668955D01*
X139713192Y-80668957D01*
X139540270Y-80745948D01*
X139540265Y-80745951D01*
X139387129Y-80857211D01*
X139260466Y-80997885D01*
X139165821Y-81161815D01*
X139165818Y-81161822D01*
X139119337Y-81304877D01*
X139107326Y-81341844D01*
X139089104Y-81515217D01*
X139087540Y-81530102D01*
X139087540Y-81530487D01*
X139087477Y-81530701D01*
X139086861Y-81536563D01*
X139085788Y-81536450D01*
X139067855Y-81597526D01*
X139015051Y-81643281D01*
X138945893Y-81653225D01*
X138882337Y-81624200D01*
X138875859Y-81618168D01*
X138234119Y-80976428D01*
X138200634Y-80915105D01*
X138197800Y-80888747D01*
X138197800Y-80787087D01*
X138217485Y-80720048D01*
X138229650Y-80704115D01*
X138248191Y-80683522D01*
X138304833Y-80620616D01*
X138399479Y-80456684D01*
X138457974Y-80276656D01*
X138477760Y-80088400D01*
X138457974Y-79900144D01*
X138399479Y-79720116D01*
X138304833Y-79556184D01*
X138178171Y-79415512D01*
X138153512Y-79397596D01*
X138025034Y-79304251D01*
X138025029Y-79304248D01*
X137852107Y-79227257D01*
X137852102Y-79227255D01*
X137706300Y-79196265D01*
X137666946Y-79187900D01*
X137477654Y-79187900D01*
X137445197Y-79194798D01*
X137292497Y-79227255D01*
X137292492Y-79227257D01*
X137119570Y-79304248D01*
X137119565Y-79304251D01*
X136966424Y-79415514D01*
X136962246Y-79419276D01*
X136899253Y-79449502D01*
X136829918Y-79440872D01*
X136828848Y-79440402D01*
X136822905Y-79437756D01*
X136820682Y-79437034D01*
X136819561Y-79436267D01*
X136816970Y-79435114D01*
X136817180Y-79434640D01*
X136763006Y-79397596D01*
X136735808Y-79333238D01*
X136735000Y-79319103D01*
X136735000Y-74939100D01*
X137455440Y-74939100D01*
X137475226Y-75127356D01*
X137475227Y-75127359D01*
X137533718Y-75307377D01*
X137533721Y-75307384D01*
X137628367Y-75471316D01*
X137721471Y-75574718D01*
X137755029Y-75611988D01*
X137908165Y-75723248D01*
X137908170Y-75723251D01*
X138081092Y-75800242D01*
X138081097Y-75800244D01*
X138266254Y-75839600D01*
X138266255Y-75839600D01*
X138455544Y-75839600D01*
X138455546Y-75839600D01*
X138640703Y-75800244D01*
X138813630Y-75723251D01*
X138966771Y-75611988D01*
X138969688Y-75608747D01*
X138972500Y-75605626D01*
X139031987Y-75568979D01*
X139064648Y-75564600D01*
X141736148Y-75564600D01*
X141803187Y-75584285D01*
X141823829Y-75600919D01*
X142177138Y-75954229D01*
X142210623Y-76015552D01*
X142212778Y-76028948D01*
X142221068Y-76107827D01*
X142230426Y-76196856D01*
X142230427Y-76196859D01*
X142288918Y-76376877D01*
X142288921Y-76376884D01*
X142383567Y-76540816D01*
X142408332Y-76568320D01*
X142510229Y-76681488D01*
X142663365Y-76792748D01*
X142663370Y-76792751D01*
X142836292Y-76869742D01*
X142836297Y-76869744D01*
X143021454Y-76909100D01*
X143021455Y-76909100D01*
X143210744Y-76909100D01*
X143210746Y-76909100D01*
X143395903Y-76869744D01*
X143568830Y-76792751D01*
X143721971Y-76681488D01*
X143848633Y-76540816D01*
X143943279Y-76376884D01*
X144001774Y-76196856D01*
X144021560Y-76008600D01*
X144001774Y-75820344D01*
X143943279Y-75640316D01*
X143848633Y-75476384D01*
X143721971Y-75335712D01*
X143718632Y-75333286D01*
X143568834Y-75224451D01*
X143568829Y-75224448D01*
X143395907Y-75147457D01*
X143395902Y-75147455D01*
X143250101Y-75116465D01*
X143210746Y-75108100D01*
X143210745Y-75108100D01*
X143151553Y-75108100D01*
X143084514Y-75088415D01*
X143063872Y-75071781D01*
X142547403Y-74555312D01*
X142537580Y-74543050D01*
X142537359Y-74543234D01*
X142532386Y-74537223D01*
X142532385Y-74537223D01*
X142481964Y-74489873D01*
X142471519Y-74479428D01*
X142461075Y-74468983D01*
X142455586Y-74464725D01*
X142451161Y-74460947D01*
X142417182Y-74429038D01*
X142417180Y-74429036D01*
X142417177Y-74429035D01*
X142399629Y-74419388D01*
X142383363Y-74408704D01*
X142367533Y-74396425D01*
X142324768Y-74377918D01*
X142319522Y-74375348D01*
X142278693Y-74352903D01*
X142278692Y-74352902D01*
X142259293Y-74347922D01*
X142240881Y-74341618D01*
X142222498Y-74333662D01*
X142222492Y-74333660D01*
X142176474Y-74326372D01*
X142170752Y-74325187D01*
X142125621Y-74313600D01*
X142125619Y-74313600D01*
X142105584Y-74313600D01*
X142086186Y-74312073D01*
X142078762Y-74310897D01*
X142066405Y-74308940D01*
X142066404Y-74308940D01*
X142020016Y-74313325D01*
X142014178Y-74313600D01*
X139064648Y-74313600D01*
X138997609Y-74293915D01*
X138972500Y-74272574D01*
X138966773Y-74266214D01*
X138966769Y-74266210D01*
X138813634Y-74154951D01*
X138813629Y-74154948D01*
X138640707Y-74077957D01*
X138640702Y-74077955D01*
X138494901Y-74046965D01*
X138455546Y-74038600D01*
X138266254Y-74038600D01*
X138233797Y-74045498D01*
X138081097Y-74077955D01*
X138081092Y-74077957D01*
X137908170Y-74154948D01*
X137908165Y-74154951D01*
X137755029Y-74266211D01*
X137628366Y-74406885D01*
X137533721Y-74570815D01*
X137533718Y-74570822D01*
X137475227Y-74750840D01*
X137475226Y-74750844D01*
X137455440Y-74939100D01*
X136735000Y-74939100D01*
X136735000Y-73056348D01*
X136754685Y-72989309D01*
X136807489Y-72943554D01*
X136813355Y-72941055D01*
X136818827Y-72938888D01*
X136818827Y-72938887D01*
X136818832Y-72938886D01*
X136856549Y-72911482D01*
X136861405Y-72908292D01*
X136901520Y-72884570D01*
X136915689Y-72870399D01*
X136930479Y-72857768D01*
X136946687Y-72845994D01*
X136976399Y-72810076D01*
X136980312Y-72805776D01*
X140115786Y-69670302D01*
X140128048Y-69660480D01*
X140127865Y-69660259D01*
X140133867Y-69655292D01*
X140133877Y-69655286D01*
X140181241Y-69604848D01*
X140202120Y-69583970D01*
X140206373Y-69578486D01*
X140210150Y-69574063D01*
X140242062Y-69540082D01*
X140251714Y-69522523D01*
X140262389Y-69506272D01*
X140274674Y-69490436D01*
X140293186Y-69447652D01*
X140295742Y-69442435D01*
X140315028Y-69407355D01*
X140364575Y-69358095D01*
X140423687Y-69343099D01*
X140454871Y-69343099D01*
X140454872Y-69343099D01*
X140514483Y-69336691D01*
X140649331Y-69286396D01*
X140764546Y-69200146D01*
X140797884Y-69155612D01*
X140827087Y-69116603D01*
X140883020Y-69074732D01*
X140952712Y-69069748D01*
X141009891Y-69099277D01*
X141020869Y-69109285D01*
X141020874Y-69109289D01*
X141206012Y-69223922D01*
X141206023Y-69223927D01*
X141409060Y-69302584D01*
X141482000Y-69316219D01*
X141482000Y-68678175D01*
X141501685Y-68611136D01*
X141554489Y-68565381D01*
X141623647Y-68555437D01*
X141625331Y-68555691D01*
X141657699Y-68560818D01*
X141700515Y-68567600D01*
X141700519Y-68567600D01*
X141763485Y-68567600D01*
X141806300Y-68560818D01*
X141838602Y-68555702D01*
X141907894Y-68564656D01*
X141961347Y-68609652D01*
X141981987Y-68676403D01*
X141982000Y-68678175D01*
X141982000Y-69316219D01*
X142054939Y-69302584D01*
X142257976Y-69223927D01*
X142257987Y-69223922D01*
X142443130Y-69109285D01*
X142443131Y-69109285D01*
X142604055Y-68962584D01*
X142632730Y-68924612D01*
X142688838Y-68882974D01*
X142758550Y-68878281D01*
X142819733Y-68912022D01*
X142830640Y-68924609D01*
X142849512Y-68949600D01*
X142859573Y-68962922D01*
X143020568Y-69109688D01*
X143020575Y-69109692D01*
X143020576Y-69109693D01*
X143205786Y-69224370D01*
X143205792Y-69224373D01*
X143217919Y-69229071D01*
X143408931Y-69303070D01*
X143623074Y-69343100D01*
X143623076Y-69343100D01*
X143840924Y-69343100D01*
X143840926Y-69343100D01*
X144055069Y-69303070D01*
X144258210Y-69224372D01*
X144443432Y-69109688D01*
X144604427Y-68962922D01*
X144735712Y-68789072D01*
X144832817Y-68594059D01*
X144892435Y-68384523D01*
X144912536Y-68167600D01*
X144892435Y-67950677D01*
X144832817Y-67741141D01*
X144735712Y-67546128D01*
X144604427Y-67372278D01*
X144597597Y-67366052D01*
X144470270Y-67249978D01*
X144443432Y-67225512D01*
X144443428Y-67225509D01*
X144443423Y-67225506D01*
X144258213Y-67110829D01*
X144258207Y-67110826D01*
X144173113Y-67077860D01*
X144055069Y-67032130D01*
X143840926Y-66992100D01*
X143623074Y-66992100D01*
X143408931Y-67032130D01*
X143365896Y-67048802D01*
X143205792Y-67110826D01*
X143205786Y-67110829D01*
X143020576Y-67225506D01*
X143020566Y-67225513D01*
X142859574Y-67372276D01*
X142830640Y-67410591D01*
X142774530Y-67452227D01*
X142704818Y-67456918D01*
X142643637Y-67423176D01*
X142632731Y-67410590D01*
X142604051Y-67372611D01*
X142604050Y-67372610D01*
X142443131Y-67225914D01*
X142257987Y-67111277D01*
X142257985Y-67111276D01*
X142054931Y-67032613D01*
X142054921Y-67032610D01*
X141982001Y-67018978D01*
X141982000Y-67018979D01*
X141982000Y-67657024D01*
X141962315Y-67724063D01*
X141909511Y-67769818D01*
X141840353Y-67779762D01*
X141838602Y-67779497D01*
X141763486Y-67767600D01*
X141763481Y-67767600D01*
X141700519Y-67767600D01*
X141700514Y-67767600D01*
X141625398Y-67779497D01*
X141556104Y-67770542D01*
X141502652Y-67725546D01*
X141482013Y-67658794D01*
X141482000Y-67657024D01*
X141482000Y-67018979D01*
X141481998Y-67018978D01*
X141409078Y-67032610D01*
X141409068Y-67032613D01*
X141206014Y-67111276D01*
X141206012Y-67111277D01*
X141020869Y-67225914D01*
X141020868Y-67225914D01*
X141009887Y-67235925D01*
X140947082Y-67266540D01*
X140877695Y-67258340D01*
X140827086Y-67218597D01*
X140764546Y-67135054D01*
X140732182Y-67110826D01*
X140649335Y-67048806D01*
X140649328Y-67048802D01*
X140514482Y-66998508D01*
X140514483Y-66998508D01*
X140454883Y-66992101D01*
X140454881Y-66992100D01*
X140454873Y-66992100D01*
X140454864Y-66992100D01*
X139009129Y-66992100D01*
X139009123Y-66992101D01*
X138949516Y-66998508D01*
X138814671Y-67048802D01*
X138814664Y-67048806D01*
X138699455Y-67135052D01*
X138699452Y-67135055D01*
X138613206Y-67250264D01*
X138613202Y-67250271D01*
X138562908Y-67385117D01*
X138556501Y-67444716D01*
X138556500Y-67444735D01*
X138556500Y-68890470D01*
X138556501Y-68890476D01*
X138562908Y-68950083D01*
X138613202Y-69084928D01*
X138613203Y-69084930D01*
X138631736Y-69109687D01*
X138685183Y-69181083D01*
X138685284Y-69181217D01*
X138709701Y-69246681D01*
X138694850Y-69314954D01*
X138673698Y-69343209D01*
X136292328Y-71724581D01*
X136231005Y-71758066D01*
X136204647Y-71760900D01*
X136180347Y-71760900D01*
X136157115Y-71758704D01*
X136149088Y-71757173D01*
X136149086Y-71757173D01*
X136140133Y-71757736D01*
X136091775Y-71760778D01*
X136087903Y-71760900D01*
X124805652Y-71760900D01*
X124738613Y-71741215D01*
X124717971Y-71724581D01*
X123773088Y-70779698D01*
X122803103Y-69809712D01*
X122793280Y-69797450D01*
X122793059Y-69797634D01*
X122788086Y-69791623D01*
X122788085Y-69791623D01*
X122737664Y-69744273D01*
X122727219Y-69733828D01*
X122716775Y-69723383D01*
X122711286Y-69719125D01*
X122706861Y-69715347D01*
X122672882Y-69683438D01*
X122672880Y-69683437D01*
X122667193Y-69678096D01*
X122668187Y-69677036D01*
X122630767Y-69628502D01*
X122629117Y-69609283D01*
X122623557Y-69612991D01*
X122553697Y-69614166D01*
X122540987Y-69609913D01*
X122534394Y-69607303D01*
X122514993Y-69602322D01*
X122496581Y-69596018D01*
X122478198Y-69588062D01*
X122478192Y-69588060D01*
X122432174Y-69580772D01*
X122426452Y-69579587D01*
X122381321Y-69568000D01*
X122381319Y-69568000D01*
X122361284Y-69568000D01*
X122341886Y-69566473D01*
X122334462Y-69565297D01*
X122322105Y-69563340D01*
X122322104Y-69563340D01*
X122275716Y-69567725D01*
X122269878Y-69568000D01*
X122064175Y-69568000D01*
X121997136Y-69548315D01*
X121951381Y-69495511D01*
X121941437Y-69426353D01*
X121970462Y-69362797D01*
X121992053Y-69344403D01*
X121991554Y-69343742D01*
X121996131Y-69340285D01*
X122157055Y-69193584D01*
X122185730Y-69155612D01*
X122241838Y-69113974D01*
X122311550Y-69109281D01*
X122372733Y-69143022D01*
X122383640Y-69155609D01*
X122412574Y-69193923D01*
X122445483Y-69223923D01*
X122573568Y-69340688D01*
X122651906Y-69389193D01*
X122698540Y-69441218D01*
X122703357Y-69471146D01*
X122718243Y-69462742D01*
X122787999Y-69466735D01*
X122791115Y-69467895D01*
X122809367Y-69474966D01*
X122961931Y-69534070D01*
X123176074Y-69574100D01*
X123176076Y-69574100D01*
X123393924Y-69574100D01*
X123393926Y-69574100D01*
X123608069Y-69534070D01*
X123811210Y-69455372D01*
X123996432Y-69340688D01*
X124157427Y-69193922D01*
X124237415Y-69088000D01*
X128692341Y-69088000D01*
X128712936Y-69323403D01*
X128712938Y-69323413D01*
X128774094Y-69551655D01*
X128774096Y-69551659D01*
X128774097Y-69551663D01*
X128811863Y-69632652D01*
X128873964Y-69765828D01*
X128873965Y-69765830D01*
X129009505Y-69959402D01*
X129176597Y-70126494D01*
X129370169Y-70262034D01*
X129370171Y-70262035D01*
X129584337Y-70361903D01*
X129812592Y-70423063D01*
X129989034Y-70438500D01*
X130106966Y-70438500D01*
X130283408Y-70423063D01*
X130511663Y-70361903D01*
X130725829Y-70262035D01*
X130919401Y-70126495D01*
X131086495Y-69959401D01*
X131222035Y-69765830D01*
X131321903Y-69551663D01*
X131383063Y-69323408D01*
X131403659Y-69088000D01*
X131403390Y-69084931D01*
X131392686Y-68962584D01*
X131383063Y-68852592D01*
X131321903Y-68624337D01*
X131222035Y-68410171D01*
X131222034Y-68410169D01*
X131086494Y-68216597D01*
X130919402Y-68049505D01*
X130725830Y-67913965D01*
X130725828Y-67913964D01*
X130596059Y-67853452D01*
X130511663Y-67814097D01*
X130511659Y-67814096D01*
X130511655Y-67814094D01*
X130283413Y-67752938D01*
X130283403Y-67752936D01*
X130106966Y-67737500D01*
X129989034Y-67737500D01*
X129812596Y-67752936D01*
X129812586Y-67752938D01*
X129584344Y-67814094D01*
X129584335Y-67814098D01*
X129370171Y-67913964D01*
X129370169Y-67913965D01*
X129176597Y-68049505D01*
X129009506Y-68216597D01*
X129009501Y-68216604D01*
X128873967Y-68410165D01*
X128873965Y-68410169D01*
X128774098Y-68624335D01*
X128774094Y-68624344D01*
X128712938Y-68852586D01*
X128712936Y-68852596D01*
X128692341Y-69087999D01*
X128692341Y-69088000D01*
X124237415Y-69088000D01*
X124288712Y-69020072D01*
X124385817Y-68825059D01*
X124445435Y-68615523D01*
X124465536Y-68398600D01*
X124445435Y-68181677D01*
X124385817Y-67972141D01*
X124288712Y-67777128D01*
X124157427Y-67603278D01*
X124147418Y-67594154D01*
X124018056Y-67476225D01*
X123996432Y-67456512D01*
X123996428Y-67456509D01*
X123996423Y-67456506D01*
X123811213Y-67341829D01*
X123811207Y-67341826D01*
X123726113Y-67308860D01*
X123608069Y-67263130D01*
X123393926Y-67223100D01*
X123176074Y-67223100D01*
X122961931Y-67263130D01*
X122918896Y-67279802D01*
X122758792Y-67341826D01*
X122758786Y-67341829D01*
X122573576Y-67456506D01*
X122573566Y-67456513D01*
X122412574Y-67603276D01*
X122383640Y-67641591D01*
X122327530Y-67683227D01*
X122257818Y-67687918D01*
X122196637Y-67654176D01*
X122185731Y-67641590D01*
X122157051Y-67603611D01*
X122157050Y-67603610D01*
X121996131Y-67456914D01*
X121810987Y-67342277D01*
X121810985Y-67342276D01*
X121607931Y-67263613D01*
X121607921Y-67263610D01*
X121535001Y-67249978D01*
X121535000Y-67249979D01*
X121535000Y-67888024D01*
X121515315Y-67955063D01*
X121462511Y-68000818D01*
X121393353Y-68010762D01*
X121391602Y-68010497D01*
X121316486Y-67998600D01*
X121316481Y-67998600D01*
X121253519Y-67998600D01*
X121253514Y-67998600D01*
X121178398Y-68010497D01*
X121109104Y-68001542D01*
X121055652Y-67956546D01*
X121035013Y-67889794D01*
X121035000Y-67888024D01*
X121034999Y-67249979D01*
X121034998Y-67249978D01*
X120962078Y-67263610D01*
X120962068Y-67263613D01*
X120759014Y-67342276D01*
X120759012Y-67342277D01*
X120573869Y-67456914D01*
X120573868Y-67456914D01*
X120562887Y-67466925D01*
X120500082Y-67497540D01*
X120430695Y-67489340D01*
X120380086Y-67449597D01*
X120317546Y-67366054D01*
X120277463Y-67336048D01*
X120202335Y-67279806D01*
X120202328Y-67279802D01*
X120067482Y-67229508D01*
X120067483Y-67229508D01*
X120007883Y-67223101D01*
X120007881Y-67223100D01*
X120007873Y-67223100D01*
X120007864Y-67223100D01*
X118562129Y-67223100D01*
X118562123Y-67223101D01*
X118502516Y-67229508D01*
X118367671Y-67279802D01*
X118367664Y-67279806D01*
X118252455Y-67366052D01*
X118252452Y-67366055D01*
X118166206Y-67481264D01*
X118166202Y-67481271D01*
X118115908Y-67616117D01*
X118109501Y-67675716D01*
X118109500Y-67675735D01*
X118109500Y-68982426D01*
X118089815Y-69049465D01*
X118037011Y-69095220D01*
X117967853Y-69105164D01*
X117904297Y-69076139D01*
X117897262Y-69069547D01*
X116328873Y-67481050D01*
X116295779Y-67419515D01*
X116301208Y-67349856D01*
X116342848Y-67294627D01*
X116844213Y-66919700D01*
X116859007Y-66910195D01*
X117469402Y-66576719D01*
X117485542Y-66569349D01*
X117495232Y-66565737D01*
X118136877Y-66326559D01*
X118153742Y-66321604D01*
X118833380Y-66173390D01*
X118850934Y-66170861D01*
X119286133Y-66139689D01*
X119286133Y-66139688D01*
X119334786Y-66136204D01*
X119334790Y-66136202D01*
X119551826Y-66120657D01*
X119556239Y-66120500D01*
X152053897Y-66120500D01*
X184551754Y-66120500D01*
X184556167Y-66120657D01*
G37*
%TD.AperFunction*%
%TA.AperFunction,Conductor*%
G36*
X159836039Y-88543285D02*
G01*
X159881794Y-88596089D01*
X159893000Y-88647600D01*
X159893000Y-88650000D01*
X160557424Y-88650000D01*
X160624463Y-88669685D01*
X160670218Y-88722489D01*
X160680162Y-88791647D01*
X160679897Y-88793397D01*
X160663014Y-88899996D01*
X160663014Y-88900003D01*
X160679897Y-89006603D01*
X160670942Y-89075896D01*
X160625946Y-89129348D01*
X160559194Y-89149987D01*
X160557424Y-89150000D01*
X159893000Y-89150000D01*
X159893000Y-89622844D01*
X159899401Y-89682372D01*
X159899403Y-89682379D01*
X159949645Y-89817086D01*
X159949649Y-89817093D01*
X160035809Y-89932187D01*
X160035812Y-89932190D01*
X160150906Y-90018350D01*
X160150913Y-90018354D01*
X160202830Y-90037718D01*
X160258764Y-90079589D01*
X160283181Y-90145053D01*
X160268329Y-90213326D01*
X160218924Y-90262732D01*
X160159497Y-90277900D01*
X157839941Y-90277900D01*
X157772902Y-90258215D01*
X157727147Y-90205411D01*
X157717203Y-90136253D01*
X157746228Y-90072697D01*
X157798363Y-90039192D01*
X157797723Y-90037540D01*
X157803063Y-90035470D01*
X157803069Y-90035470D01*
X158006210Y-89956772D01*
X158191432Y-89842088D01*
X158352427Y-89695322D01*
X158483712Y-89521472D01*
X158580817Y-89326459D01*
X158640435Y-89116923D01*
X158660536Y-88900000D01*
X158656462Y-88856040D01*
X158647891Y-88763540D01*
X158640435Y-88683077D01*
X158639996Y-88681534D01*
X158640002Y-88680763D01*
X158639382Y-88677445D01*
X158640031Y-88677323D01*
X158640582Y-88611669D01*
X158678848Y-88553209D01*
X158742645Y-88524718D01*
X158759262Y-88523600D01*
X159769000Y-88523600D01*
X159836039Y-88543285D01*
G37*
%TD.AperFunction*%
%TA.AperFunction,Conductor*%
G36*
X144254923Y-88002185D02*
G01*
X144300678Y-88054989D01*
X144311173Y-88119757D01*
X144305000Y-88177158D01*
X144305000Y-88650000D01*
X144969424Y-88650000D01*
X145036463Y-88669685D01*
X145082218Y-88722489D01*
X145092162Y-88791647D01*
X145091897Y-88793397D01*
X145075014Y-88899996D01*
X145075014Y-88900003D01*
X145091897Y-89006603D01*
X145082942Y-89075896D01*
X145037946Y-89129348D01*
X144971194Y-89149987D01*
X144969424Y-89150000D01*
X144305000Y-89150000D01*
X144305000Y-89152400D01*
X144285315Y-89219439D01*
X144232511Y-89265194D01*
X144181000Y-89276400D01*
X139525059Y-89276400D01*
X139458020Y-89256715D01*
X139412265Y-89203911D01*
X139401738Y-89139442D01*
X139419321Y-88972144D01*
X139445904Y-88907534D01*
X139454951Y-88897438D01*
X140333571Y-88018819D01*
X140394895Y-87985334D01*
X140421253Y-87982500D01*
X144187884Y-87982500D01*
X144254923Y-88002185D01*
G37*
%TD.AperFunction*%
%TA.AperFunction,Conductor*%
G36*
X159073539Y-67770785D02*
G01*
X159119294Y-67823589D01*
X159130500Y-67875100D01*
X159130500Y-68890470D01*
X159130501Y-68890476D01*
X159136908Y-68950083D01*
X159187202Y-69084928D01*
X159187206Y-69084935D01*
X159273452Y-69200144D01*
X159273455Y-69200147D01*
X159388664Y-69286393D01*
X159388671Y-69286397D01*
X159523517Y-69336691D01*
X159523516Y-69336691D01*
X159527321Y-69337100D01*
X159583127Y-69343100D01*
X160545547Y-69343099D01*
X160612586Y-69362783D01*
X160633228Y-69379418D01*
X167964597Y-76710788D01*
X167974422Y-76723051D01*
X167974643Y-76722869D01*
X167979610Y-76728874D01*
X167998238Y-76746366D01*
X168002844Y-76750692D01*
X168009676Y-76757107D01*
X168045071Y-76817348D01*
X168042279Y-76887162D01*
X168002186Y-76944383D01*
X167937521Y-76970845D01*
X167924793Y-76971500D01*
X164904253Y-76971500D01*
X164837214Y-76951815D01*
X164816572Y-76935181D01*
X161359960Y-73478569D01*
X161326475Y-73417246D01*
X161324323Y-73403868D01*
X161306674Y-73235944D01*
X161248179Y-73055916D01*
X161153533Y-72891984D01*
X161026871Y-72751312D01*
X161026870Y-72751311D01*
X160873734Y-72640051D01*
X160873729Y-72640048D01*
X160700807Y-72563057D01*
X160700802Y-72563055D01*
X160555000Y-72532065D01*
X160515646Y-72523700D01*
X160326354Y-72523700D01*
X160293897Y-72530598D01*
X160141197Y-72563055D01*
X160141192Y-72563057D01*
X159968270Y-72640048D01*
X159968265Y-72640051D01*
X159815129Y-72751311D01*
X159688466Y-72891985D01*
X159593821Y-73055915D01*
X159593818Y-73055922D01*
X159567832Y-73135900D01*
X159535326Y-73235944D01*
X159515540Y-73424200D01*
X159535326Y-73612456D01*
X159535327Y-73612459D01*
X159593818Y-73792477D01*
X159593821Y-73792484D01*
X159688467Y-73956416D01*
X159797903Y-74077957D01*
X159815129Y-74097088D01*
X159968265Y-74208348D01*
X159968270Y-74208351D01*
X160141192Y-74285342D01*
X160141197Y-74285344D01*
X160326354Y-74324700D01*
X160385548Y-74324700D01*
X160452587Y-74344385D01*
X160473229Y-74361019D01*
X164092997Y-77980788D01*
X164102822Y-77993051D01*
X164103043Y-77992869D01*
X164108014Y-77998878D01*
X164134017Y-78023295D01*
X164158435Y-78046226D01*
X164179329Y-78067120D01*
X164184811Y-78071373D01*
X164189243Y-78075157D01*
X164223218Y-78107062D01*
X164240776Y-78116714D01*
X164257035Y-78127395D01*
X164272864Y-78139673D01*
X164315638Y-78158182D01*
X164320856Y-78160738D01*
X164361708Y-78183197D01*
X164381116Y-78188180D01*
X164399517Y-78194480D01*
X164417904Y-78202437D01*
X164461288Y-78209308D01*
X164463919Y-78209725D01*
X164469639Y-78210909D01*
X164514781Y-78222500D01*
X164534816Y-78222500D01*
X164554214Y-78224026D01*
X164573994Y-78227159D01*
X164573995Y-78227160D01*
X164573995Y-78227159D01*
X164573996Y-78227160D01*
X164620383Y-78222775D01*
X164626222Y-78222500D01*
X168968967Y-78222500D01*
X169036006Y-78242185D01*
X169081761Y-78294989D01*
X169091705Y-78364147D01*
X169064507Y-78425544D01*
X169049808Y-78443311D01*
X169045877Y-78447632D01*
X165576828Y-81916681D01*
X165515505Y-81950166D01*
X165489147Y-81953000D01*
X150159937Y-81953000D01*
X150092898Y-81933315D01*
X150047143Y-81880511D01*
X150037199Y-81811353D01*
X150066224Y-81747797D01*
X150094241Y-81724665D01*
X150094173Y-81724571D01*
X150095696Y-81723464D01*
X150097941Y-81721611D01*
X150099426Y-81720752D01*
X150099430Y-81720751D01*
X150252571Y-81609488D01*
X150255488Y-81606247D01*
X150258300Y-81603126D01*
X150317787Y-81566479D01*
X150350448Y-81562100D01*
X156215757Y-81562100D01*
X156231377Y-81563824D01*
X156231404Y-81563539D01*
X156239160Y-81564271D01*
X156239167Y-81564273D01*
X156308314Y-81562100D01*
X156337850Y-81562100D01*
X156344728Y-81561230D01*
X156350541Y-81560772D01*
X156397127Y-81559309D01*
X156416369Y-81553717D01*
X156435412Y-81549774D01*
X156455292Y-81547264D01*
X156498622Y-81530107D01*
X156504146Y-81528217D01*
X156507896Y-81527127D01*
X156548890Y-81515218D01*
X156566129Y-81505022D01*
X156583603Y-81496462D01*
X156602227Y-81489088D01*
X156602227Y-81489087D01*
X156602232Y-81489086D01*
X156639949Y-81461682D01*
X156644805Y-81458492D01*
X156684920Y-81434770D01*
X156699089Y-81420599D01*
X156713879Y-81407968D01*
X156730087Y-81396194D01*
X156759799Y-81360276D01*
X156763712Y-81355976D01*
X158903070Y-79216619D01*
X158964394Y-79183134D01*
X158990752Y-79180300D01*
X159049944Y-79180300D01*
X159049946Y-79180300D01*
X159235103Y-79140944D01*
X159408030Y-79063951D01*
X159561171Y-78952688D01*
X159687833Y-78812016D01*
X159782479Y-78648084D01*
X159840974Y-78468056D01*
X159860760Y-78279800D01*
X159840974Y-78091544D01*
X159782479Y-77911516D01*
X159687833Y-77747584D01*
X159561171Y-77606912D01*
X159561170Y-77606911D01*
X159408034Y-77495651D01*
X159408029Y-77495648D01*
X159235107Y-77418657D01*
X159235102Y-77418655D01*
X159077473Y-77385151D01*
X159049946Y-77379300D01*
X158860654Y-77379300D01*
X158833127Y-77385151D01*
X158675497Y-77418655D01*
X158675492Y-77418657D01*
X158502570Y-77495648D01*
X158502565Y-77495651D01*
X158349429Y-77606911D01*
X158222766Y-77747585D01*
X158128121Y-77911515D01*
X158128118Y-77911522D01*
X158076183Y-78071364D01*
X158069626Y-78091544D01*
X158053736Y-78242734D01*
X158051979Y-78259449D01*
X158025394Y-78324063D01*
X158016339Y-78334168D01*
X156075728Y-80274781D01*
X156014405Y-80308266D01*
X155988047Y-80311100D01*
X150350448Y-80311100D01*
X150283409Y-80291415D01*
X150258300Y-80270074D01*
X150252573Y-80263714D01*
X150252569Y-80263710D01*
X150099434Y-80152451D01*
X150099429Y-80152448D01*
X149926507Y-80075457D01*
X149926502Y-80075455D01*
X149780700Y-80044465D01*
X149741346Y-80036100D01*
X149552054Y-80036100D01*
X149519597Y-80042998D01*
X149366897Y-80075455D01*
X149366892Y-80075457D01*
X149193970Y-80152448D01*
X149193965Y-80152451D01*
X149040829Y-80263711D01*
X148914166Y-80404385D01*
X148819521Y-80568315D01*
X148819518Y-80568322D01*
X148761027Y-80748340D01*
X148761026Y-80748344D01*
X148741240Y-80936600D01*
X148761026Y-81124856D01*
X148761027Y-81124859D01*
X148819518Y-81304877D01*
X148819521Y-81304884D01*
X148914167Y-81468816D01*
X149030058Y-81597526D01*
X149040829Y-81609488D01*
X149193968Y-81720750D01*
X149195459Y-81721611D01*
X149196149Y-81722334D01*
X149199227Y-81724571D01*
X149198818Y-81725133D01*
X149243677Y-81772176D01*
X149256902Y-81840783D01*
X149230936Y-81905649D01*
X149174023Y-81946179D01*
X149133463Y-81953000D01*
X141101451Y-81953000D01*
X141034412Y-81933315D01*
X140988657Y-81880511D01*
X140978713Y-81811353D01*
X141007738Y-81747797D01*
X141013770Y-81741319D01*
X144365196Y-78389894D01*
X154967671Y-67787419D01*
X155028995Y-67753934D01*
X155055353Y-67751100D01*
X159006500Y-67751100D01*
X159073539Y-67770785D01*
G37*
%TD.AperFunction*%
%TD*%
M02*
