%TF.GenerationSoftware,KiCad,Pcbnew,7.0.7*%
%TF.CreationDate,2025-04-06T11:57:42-05:00*%
%TF.ProjectId,LASK5_V2-0,4c41534b-355f-4563-922d-302e6b696361,rev?*%
%TF.SameCoordinates,Original*%
%TF.FileFunction,Copper,L1,Top*%
%TF.FilePolarity,Positive*%
%FSLAX46Y46*%
G04 Gerber Fmt 4.6, Leading zero omitted, Abs format (unit mm)*
G04 Created by KiCad (PCBNEW 7.0.7) date 2025-04-06 11:57:42*
%MOMM*%
%LPD*%
G01*
G04 APERTURE LIST*
G04 Aperture macros list*
%AMRoundRect*
0 Rectangle with rounded corners*
0 $1 Rounding radius*
0 $2 $3 $4 $5 $6 $7 $8 $9 X,Y pos of 4 corners*
0 Add a 4 corners polygon primitive as box body*
4,1,4,$2,$3,$4,$5,$6,$7,$8,$9,$2,$3,0*
0 Add four circle primitives for the rounded corners*
1,1,$1+$1,$2,$3*
1,1,$1+$1,$4,$5*
1,1,$1+$1,$6,$7*
1,1,$1+$1,$8,$9*
0 Add four rect primitives between the rounded corners*
20,1,$1+$1,$2,$3,$4,$5,0*
20,1,$1+$1,$4,$5,$6,$7,0*
20,1,$1+$1,$6,$7,$8,$9,0*
20,1,$1+$1,$8,$9,$2,$3,0*%
%AMFreePoly0*
4,1,6,1.000000,0.000000,0.500000,-0.750000,-0.500000,-0.750000,-0.500000,0.750000,0.500000,0.750000,1.000000,0.000000,1.000000,0.000000,$1*%
%AMFreePoly1*
4,1,6,0.500000,-0.750000,-0.650000,-0.750000,-0.150000,0.000000,-0.650000,0.750000,0.500000,0.750000,0.500000,-0.750000,0.500000,-0.750000,$1*%
G04 Aperture macros list end*
%TA.AperFunction,SMDPad,CuDef*%
%ADD10RoundRect,0.140000X-0.140000X-0.170000X0.140000X-0.170000X0.140000X0.170000X-0.140000X0.170000X0*%
%TD*%
%TA.AperFunction,SMDPad,CuDef*%
%ADD11RoundRect,0.200000X-0.200000X-0.275000X0.200000X-0.275000X0.200000X0.275000X-0.200000X0.275000X0*%
%TD*%
%TA.AperFunction,SMDPad,CuDef*%
%ADD12RoundRect,0.250000X-0.475000X0.250000X-0.475000X-0.250000X0.475000X-0.250000X0.475000X0.250000X0*%
%TD*%
%TA.AperFunction,SMDPad,CuDef*%
%ADD13RoundRect,0.150000X-0.150000X0.587500X-0.150000X-0.587500X0.150000X-0.587500X0.150000X0.587500X0*%
%TD*%
%TA.AperFunction,SMDPad,CuDef*%
%ADD14RoundRect,0.150000X-0.512500X-0.150000X0.512500X-0.150000X0.512500X0.150000X-0.512500X0.150000X0*%
%TD*%
%TA.AperFunction,SMDPad,CuDef*%
%ADD15RoundRect,0.200000X0.275000X-0.200000X0.275000X0.200000X-0.275000X0.200000X-0.275000X-0.200000X0*%
%TD*%
%TA.AperFunction,ComponentPad*%
%ADD16R,1.700000X1.700000*%
%TD*%
%TA.AperFunction,ComponentPad*%
%ADD17O,1.700000X1.700000*%
%TD*%
%TA.AperFunction,ComponentPad*%
%ADD18R,1.350000X1.350000*%
%TD*%
%TA.AperFunction,ComponentPad*%
%ADD19O,1.350000X1.350000*%
%TD*%
%TA.AperFunction,SMDPad,CuDef*%
%ADD20R,1.450000X1.000000*%
%TD*%
%TA.AperFunction,SMDPad,CuDef*%
%ADD21RoundRect,0.225000X0.225000X0.250000X-0.225000X0.250000X-0.225000X-0.250000X0.225000X-0.250000X0*%
%TD*%
%TA.AperFunction,SMDPad,CuDef*%
%ADD22RoundRect,0.250000X-0.300000X-0.300000X0.300000X-0.300000X0.300000X0.300000X-0.300000X0.300000X0*%
%TD*%
%TA.AperFunction,SMDPad,CuDef*%
%ADD23FreePoly0,0.000000*%
%TD*%
%TA.AperFunction,SMDPad,CuDef*%
%ADD24FreePoly1,0.000000*%
%TD*%
%TA.AperFunction,ComponentPad*%
%ADD25RoundRect,0.250000X0.600000X0.750000X-0.600000X0.750000X-0.600000X-0.750000X0.600000X-0.750000X0*%
%TD*%
%TA.AperFunction,ComponentPad*%
%ADD26O,1.700000X2.000000*%
%TD*%
%TA.AperFunction,SMDPad,CuDef*%
%ADD27R,0.812800X1.498600*%
%TD*%
%TA.AperFunction,SMDPad,CuDef*%
%ADD28R,1.498600X0.812800*%
%TD*%
%TA.AperFunction,SMDPad,CuDef*%
%ADD29R,0.889000X0.889000*%
%TD*%
%TA.AperFunction,ComponentPad*%
%ADD30RoundRect,0.250000X-0.600000X-0.750000X0.600000X-0.750000X0.600000X0.750000X-0.600000X0.750000X0*%
%TD*%
%TA.AperFunction,SMDPad,CuDef*%
%ADD31R,1.000000X1.450000*%
%TD*%
%TA.AperFunction,ComponentPad*%
%ADD32C,0.700000*%
%TD*%
%TA.AperFunction,ComponentPad*%
%ADD33O,0.900000X2.400000*%
%TD*%
%TA.AperFunction,ComponentPad*%
%ADD34O,0.900000X1.700000*%
%TD*%
%TA.AperFunction,SMDPad,CuDef*%
%ADD35RoundRect,0.200000X0.200000X0.275000X-0.200000X0.275000X-0.200000X-0.275000X0.200000X-0.275000X0*%
%TD*%
%TA.AperFunction,SMDPad,CuDef*%
%ADD36RoundRect,0.243750X-0.243750X-0.456250X0.243750X-0.456250X0.243750X0.456250X-0.243750X0.456250X0*%
%TD*%
%TA.AperFunction,SMDPad,CuDef*%
%ADD37RoundRect,0.250000X0.250000X0.475000X-0.250000X0.475000X-0.250000X-0.475000X0.250000X-0.475000X0*%
%TD*%
%TA.AperFunction,ViaPad*%
%ADD38C,0.800000*%
%TD*%
%TA.AperFunction,Conductor*%
%ADD39C,0.250000*%
%TD*%
G04 APERTURE END LIST*
D10*
%TO.P,C2,1*%
%TO.N,GND*%
X122484000Y-71120000D03*
%TO.P,C2,2*%
%TO.N,hall_0*%
X123444000Y-71120000D03*
%TD*%
D11*
%TO.P,R4,1*%
%TO.N,Net-(U4-PROG)*%
X165101000Y-74427000D03*
%TO.P,R4,2*%
%TO.N,GND*%
X166751000Y-74427000D03*
%TD*%
D12*
%TO.P,C6,1*%
%TO.N,VIN*%
X148452000Y-76581000D03*
%TO.P,C6,2*%
%TO.N,GND*%
X148452000Y-78481000D03*
%TD*%
D11*
%TO.P,R9,1*%
%TO.N,VBUS*%
X149607000Y-69342000D03*
%TO.P,R9,2*%
%TO.N,GND*%
X151257000Y-69342000D03*
%TD*%
D13*
%TO.P,Q2,1,G*%
%TO.N,VBUS*%
X157353000Y-72263000D03*
%TO.P,Q2,2,S*%
%TO.N,VIN*%
X155453000Y-72263000D03*
%TO.P,Q2,3,D*%
%TO.N,VBAT*%
X156403000Y-74138000D03*
%TD*%
D14*
%TO.P,U4,1,~{CHRG}*%
%TO.N,Net-(D2-K)*%
X159904000Y-74427000D03*
%TO.P,U4,2,GND*%
%TO.N,GND*%
X159904000Y-75377000D03*
%TO.P,U4,3,BAT*%
%TO.N,VBAT*%
X159904000Y-76327000D03*
%TO.P,U4,4,V_{CC}*%
%TO.N,VBUS*%
X162179000Y-76327000D03*
%TO.P,U4,5,PROG*%
%TO.N,Net-(U4-PROG)*%
X162179000Y-74427000D03*
%TD*%
D15*
%TO.P,R2,1*%
%TO.N,Net-(P1-CC)*%
X164338000Y-94424000D03*
%TO.P,R2,2*%
%TO.N,GND*%
X164338000Y-92774000D03*
%TD*%
D16*
%TO.P,J9,1,Pin_1*%
%TO.N,GND*%
X170688000Y-73787000D03*
D17*
%TO.P,J9,2,Pin_2*%
%TO.N,+3V3*%
X170688000Y-76327000D03*
%TO.P,J9,3,Pin_3*%
%TO.N,SCL*%
X170688000Y-78867000D03*
%TO.P,J9,4,Pin_4*%
%TO.N,SDA*%
X170688000Y-81407000D03*
%TD*%
D18*
%TO.P,J3,1,Pin_1*%
%TO.N,GND*%
X161068000Y-88900000D03*
D19*
%TO.P,J3,2,Pin_2*%
%TO.N,+3V3*%
X163068000Y-88900000D03*
%TO.P,J3,3,Pin_3*%
%TO.N,GP21*%
X165068000Y-88900000D03*
%TO.P,J3,4,Pin_4*%
%TO.N,GP18*%
X167068000Y-88900000D03*
%TO.P,J3,5,Pin_5*%
%TO.N,GP17*%
X169068000Y-88900000D03*
%TO.P,J3,6,Pin_6*%
%TO.N,GP34*%
X171068000Y-88900000D03*
%TO.P,J3,7,Pin_7*%
%TO.N,GP33*%
X173068000Y-88900000D03*
%TO.P,J3,8,Pin_8*%
%TO.N,TX*%
X175068000Y-88900000D03*
%TO.P,J3,9,Pin_9*%
%TO.N,RX*%
X177068000Y-88900000D03*
%TO.P,J3,10,Pin_10*%
%TO.N,GP42*%
X179068000Y-88900000D03*
%TD*%
D20*
%TO.P,SW_PWR1,1,1*%
%TO.N,GND*%
X181794000Y-75184000D03*
%TO.P,SW_PWR1,2,2*%
%TO.N,Net-(MAX1-In)*%
X181794000Y-73484000D03*
%TO.P,SW_PWR1,3*%
%TO.N,N/C*%
X186944000Y-75184000D03*
%TO.P,SW_PWR1,4*%
X186944000Y-73484000D03*
%TD*%
D18*
%TO.P,H2,1,VCC*%
%TO.N,+3V3*%
X139732000Y-68167600D03*
D19*
%TO.P,H2,2,GND*%
%TO.N,GND*%
X141732000Y-68167600D03*
%TO.P,H2,3,VOUT*%
%TO.N,hall_1*%
X143732000Y-68167600D03*
%TD*%
D21*
%TO.P,C8,1*%
%TO.N,GND*%
X166497000Y-77729000D03*
%TO.P,C8,2*%
%TO.N,VBUS*%
X164947000Y-77729000D03*
%TD*%
D14*
%TO.P,U3,1,IN*%
%TO.N,VIN*%
X152146000Y-76835000D03*
%TO.P,U3,2,GND*%
%TO.N,GND*%
X152146000Y-77785000D03*
%TO.P,U3,3,EN*%
%TO.N,LDO_EN*%
X152146000Y-78735000D03*
%TO.P,U3,4,NC*%
%TO.N,unconnected-(U3-NC-Pad4)*%
X154421000Y-78735000D03*
%TO.P,U3,5,OUT*%
%TO.N,+3V3*%
X154421000Y-76835000D03*
%TD*%
D11*
%TO.P,R3,1*%
%TO.N,Net-(MAX1-CLEAR)*%
X179325000Y-79121000D03*
%TO.P,R3,2*%
%TO.N,GND*%
X180975000Y-79121000D03*
%TD*%
%TO.P,R8,1*%
%TO.N,Net-(JP1-A)*%
X161926000Y-79375000D03*
%TO.P,R8,2*%
%TO.N,GND*%
X163576000Y-79375000D03*
%TD*%
D10*
%TO.P,C4,1*%
%TO.N,GND*%
X142042000Y-70866000D03*
%TO.P,C4,2*%
%TO.N,hall_1*%
X143002000Y-70866000D03*
%TD*%
%TO.P,C5,1*%
%TO.N,GND*%
X134549000Y-94234000D03*
%TO.P,C5,2*%
%TO.N,EN*%
X135509000Y-94234000D03*
%TD*%
%TO.P,C3,1*%
%TO.N,GND*%
X185476000Y-71120000D03*
%TO.P,C3,2*%
%TO.N,hall_3*%
X186436000Y-71120000D03*
%TD*%
D22*
%TO.P,D1,1,K*%
%TO.N,VIN*%
X171087000Y-69215000D03*
%TO.P,D1,2,A*%
%TO.N,VBUS*%
X173887000Y-69215000D03*
%TD*%
D18*
%TO.P,Joystick1,1,Pin_1*%
%TO.N,GND*%
X172085000Y-92456000D03*
D19*
%TO.P,Joystick1,2,Pin_2*%
%TO.N,+3V3*%
X174085000Y-92456000D03*
%TO.P,Joystick1,3,Pin_3*%
%TO.N,JX*%
X176085000Y-92456000D03*
%TO.P,Joystick1,4,Pin_4*%
%TO.N,JY*%
X178085000Y-92456000D03*
%TO.P,Joystick1,5,Pin_5*%
%TO.N,JSW*%
X180085000Y-92456000D03*
%TD*%
D18*
%TO.P,H4,1,VCC*%
%TO.N,+3V3*%
X180753000Y-68167600D03*
D19*
%TO.P,H4,2,GND*%
%TO.N,GND*%
X182753000Y-68167600D03*
%TO.P,H4,3,VOUT*%
%TO.N,hall_3*%
X184753000Y-68167600D03*
%TD*%
D18*
%TO.P,J6,1,Pin_1*%
%TO.N,GND*%
X145480000Y-88900000D03*
D19*
%TO.P,J6,2,Pin_2*%
%TO.N,+3V3*%
X147480000Y-88900000D03*
%TO.P,J6,3,Pin_3*%
%TO.N,GP16*%
X149480000Y-88900000D03*
%TO.P,J6,4,Pin_4*%
%TO.N,GP15*%
X151480000Y-88900000D03*
%TO.P,J6,5,Pin_5*%
%TO.N,GP14*%
X153480000Y-88900000D03*
%TO.P,J6,6,Pin_6*%
%TO.N,GP13*%
X155480000Y-88900000D03*
%TO.P,J6,7,Pin_7*%
%TO.N,ADC_BAT*%
X157480000Y-88900000D03*
%TD*%
D15*
%TO.P,R1,1*%
%TO.N,Net-(P1-VCONN)*%
X167386000Y-94361000D03*
%TO.P,R1,2*%
%TO.N,GND*%
X167386000Y-92711000D03*
%TD*%
D20*
%TO.P,SW_SEL1,1,1*%
%TO.N,b_select*%
X164973000Y-99187000D03*
%TO.P,SW_SEL1,2,2*%
%TO.N,GND*%
X164973000Y-97487000D03*
%TO.P,SW_SEL1,3*%
%TO.N,N/C*%
X170123000Y-99187000D03*
%TO.P,SW_SEL1,4*%
X170123000Y-97487000D03*
%TD*%
D23*
%TO.P,JP1,1,A*%
%TO.N,Net-(JP1-A)*%
X145870000Y-81661000D03*
D24*
%TO.P,JP1,2,B*%
%TO.N,ADC_BAT*%
X147320000Y-81661000D03*
%TD*%
D11*
%TO.P,R7,1*%
%TO.N,VBAT*%
X158116000Y-79121000D03*
%TO.P,R7,2*%
%TO.N,Net-(JP1-A)*%
X159766000Y-79121000D03*
%TD*%
D25*
%TO.P,BattExtLTC4054,1*%
%TO.N,VBAT*%
X178923000Y-97201000D03*
D26*
%TO.P,BattExtLTC4054,2*%
%TO.N,GND*%
X176423000Y-97201000D03*
%TD*%
D27*
%TO.P,U2,1,GND*%
%TO.N,GND*%
X123591000Y-90665000D03*
%TO.P,U2,2,3V3*%
%TO.N,+3V3*%
X124861000Y-90665000D03*
%TO.P,U2,3,EN*%
%TO.N,EN*%
X126131000Y-90665000D03*
%TO.P,U2,4,IO4*%
%TO.N,hall_3*%
X127401000Y-90665000D03*
%TO.P,U2,5,IO5*%
%TO.N,JX*%
X128671000Y-90665000D03*
%TO.P,U2,6,IO6*%
%TO.N,JY*%
X129941000Y-90665000D03*
%TO.P,U2,7,IO7*%
%TO.N,JSW*%
X131211000Y-90665000D03*
%TO.P,U2,8,IO15*%
%TO.N,GP15*%
X132481000Y-90665000D03*
%TO.P,U2,9,IO16*%
%TO.N,GP16*%
X133751000Y-90665000D03*
%TO.P,U2,10,IO17*%
%TO.N,GP17*%
X135021000Y-90665000D03*
%TO.P,U2,11,IO18*%
%TO.N,GP18*%
X136291000Y-90665000D03*
%TO.P,U2,12,IO8*%
%TO.N,SDA*%
X137561000Y-90665000D03*
%TO.P,U2,13,IO19*%
%TO.N,D-*%
X138831000Y-90665000D03*
%TO.P,U2,14,IO20*%
%TO.N,D+*%
X140101000Y-90665000D03*
D28*
%TO.P,U2,15,IO3*%
%TO.N,hall_2*%
X141351000Y-88900000D03*
%TO.P,U2,16,IO46*%
%TO.N,unconnected-(U2-IO46-Pad16)*%
X141351000Y-87630000D03*
%TO.P,U2,17,IO9*%
%TO.N,SCL*%
X141351000Y-86360000D03*
%TO.P,U2,18,IO10*%
%TO.N,b_select*%
X141351000Y-85090000D03*
%TO.P,U2,19,IO11*%
%TO.N,b_start*%
X141351000Y-83820000D03*
%TO.P,U2,20,IO12*%
%TO.N,ADC_BAT*%
X141351000Y-82550000D03*
%TO.P,U2,21,IO13*%
%TO.N,GP13*%
X141351000Y-81280000D03*
%TO.P,U2,22,IO14*%
%TO.N,GP14*%
X141351000Y-80010000D03*
%TO.P,U2,23,IO21*%
%TO.N,GP21*%
X141351000Y-78740000D03*
%TO.P,U2,24,IO47*%
%TO.N,unconnected-(U2-IO47-Pad24)*%
X141351000Y-77470000D03*
%TO.P,U2,25,IO48*%
%TO.N,unconnected-(U2-IO48-Pad25)*%
X141351000Y-76200000D03*
%TO.P,U2,26,IO45*%
%TO.N,unconnected-(U2-IO45-Pad26)*%
X141351000Y-74930000D03*
D27*
%TO.P,U2,27,IO0*%
%TO.N,100*%
X140101000Y-73165000D03*
%TO.P,U2,28,IO35*%
%TO.N,unconnected-(U2-IO35-Pad28)*%
X138831000Y-73165000D03*
%TO.P,U2,29,IO36*%
%TO.N,unconnected-(U2-IO36-Pad29)*%
X137561000Y-73165000D03*
%TO.P,U2,30,IO37*%
%TO.N,unconnected-(U2-IO37-Pad30)*%
X136291000Y-73165000D03*
%TO.P,U2,31,IO38*%
%TO.N,unconnected-(U2-IO38-Pad31)*%
X135021000Y-73165000D03*
%TO.P,U2,32,IO39*%
%TO.N,unconnected-(U2-IO39-Pad32)*%
X133751000Y-73165000D03*
%TO.P,U2,33,IO40*%
%TO.N,GP33*%
X132481000Y-73165000D03*
%TO.P,U2,34,IO41*%
%TO.N,GP34*%
X131211000Y-73165000D03*
%TO.P,U2,35,IO42*%
%TO.N,GP42*%
X129941000Y-73165000D03*
%TO.P,U2,36,RXD0*%
%TO.N,RX*%
X128671000Y-73165000D03*
%TO.P,U2,37,TXD0*%
%TO.N,TX*%
X127401000Y-73165000D03*
%TO.P,U2,38,IO2*%
%TO.N,hall_1*%
X126131000Y-73165000D03*
%TO.P,U2,39,IO1*%
%TO.N,hall_0*%
X124861000Y-73165000D03*
%TO.P,U2,40,GND*%
%TO.N,GND*%
X123591000Y-73165000D03*
D29*
%TO.P,U2,41,GND*%
X131311000Y-83415000D03*
%TO.P,U2,42*%
%TO.N,N/C*%
X129911000Y-84815000D03*
%TO.P,U2,43*%
X131311000Y-84815000D03*
%TO.P,U2,44*%
X132711000Y-84815000D03*
%TO.P,U2,45*%
X132711000Y-83415000D03*
%TO.P,U2,46,GND*%
%TO.N,GND*%
X132711000Y-82015000D03*
%TO.P,U2,47,GND*%
X131311000Y-82015000D03*
%TO.P,U2,48,GND*%
X129911000Y-82015000D03*
%TO.P,U2,49,GND*%
X129911000Y-83415000D03*
%TD*%
D30*
%TO.P,J2,1*%
%TO.N,VBAT*%
X126278000Y-97917000D03*
D26*
%TO.P,J2,2*%
%TO.N,GND*%
X128778000Y-97917000D03*
%TD*%
D18*
%TO.P,Joystick2,1,Pin_1*%
%TO.N,GND*%
X130683000Y-93726000D03*
D19*
%TO.P,Joystick2,2,Pin_2*%
%TO.N,+3V3*%
X128683000Y-93726000D03*
%TO.P,Joystick2,3,Pin_3*%
%TO.N,JX*%
X126683000Y-93726000D03*
%TO.P,Joystick2,4,Pin_4*%
%TO.N,JY*%
X124683000Y-93726000D03*
%TO.P,Joystick2,5,Pin_5*%
%TO.N,JSW*%
X122683000Y-93726000D03*
%TD*%
D31*
%TO.P,SW_RST1,1,1*%
%TO.N,GND*%
X144526000Y-99314000D03*
%TO.P,SW_RST1,2,2*%
%TO.N,100*%
X142826000Y-99314000D03*
%TO.P,SW_RST1,3*%
%TO.N,N/C*%
X144526000Y-94164000D03*
%TO.P,SW_RST1,4*%
X142826000Y-94164000D03*
%TD*%
D32*
%TO.P,P1,A1,GND*%
%TO.N,GND*%
X148881000Y-95043000D03*
%TO.P,P1,A4,VBUS*%
%TO.N,VBUS*%
X149731000Y-95043000D03*
%TO.P,P1,A5,CC*%
%TO.N,Net-(P1-CC)*%
X150581000Y-95043000D03*
%TO.P,P1,A6,D+*%
%TO.N,D+*%
X151431000Y-95043000D03*
%TO.P,P1,A7,D-*%
%TO.N,D-*%
X152281000Y-95043000D03*
%TO.P,P1,A8*%
%TO.N,N/C*%
X153131000Y-95043000D03*
%TO.P,P1,A9,VBUS*%
%TO.N,VBUS*%
X153981000Y-95043000D03*
%TO.P,P1,A12,GND*%
%TO.N,GND*%
X154831000Y-95043000D03*
%TO.P,P1,B1,GND*%
X154831000Y-96393000D03*
%TO.P,P1,B4,VBUS*%
%TO.N,VBUS*%
X153981000Y-96393000D03*
%TO.P,P1,B5,VCONN*%
%TO.N,Net-(P1-VCONN)*%
X153131000Y-96393000D03*
%TO.P,P1,B6*%
%TO.N,N/C*%
X152281000Y-96393000D03*
%TO.P,P1,B7*%
X151431000Y-96393000D03*
%TO.P,P1,B8*%
X150581000Y-96393000D03*
%TO.P,P1,B9,VBUS*%
%TO.N,VBUS*%
X149731000Y-96393000D03*
%TO.P,P1,B12,GND*%
%TO.N,GND*%
X148881000Y-96393000D03*
D33*
%TO.P,P1,S1,SHIELD*%
X147531000Y-96023000D03*
D34*
X147531000Y-99403000D03*
D33*
X156181000Y-96023000D03*
D34*
X156181000Y-99403000D03*
%TD*%
D35*
%TO.P,R6,1*%
%TO.N,+3V3*%
X139700000Y-94361000D03*
%TO.P,R6,2*%
%TO.N,EN*%
X138050000Y-94361000D03*
%TD*%
D36*
%TO.P,D2,1,K*%
%TO.N,Net-(D2-K)*%
X179608000Y-82423000D03*
%TO.P,D2,2,A*%
%TO.N,Net-(D2-A)*%
X181483000Y-82423000D03*
%TD*%
D20*
%TO.P,SW_BOOT1,1,1*%
%TO.N,GND*%
X133788000Y-99236000D03*
%TO.P,SW_BOOT1,2,2*%
%TO.N,EN*%
X133788000Y-97536000D03*
%TO.P,SW_BOOT1,3*%
%TO.N,N/C*%
X138938000Y-99236000D03*
%TO.P,SW_BOOT1,4*%
X138938000Y-97536000D03*
%TD*%
D11*
%TO.P,R5,1*%
%TO.N,VBUS*%
X175515000Y-80264000D03*
%TO.P,R5,2*%
%TO.N,Net-(D2-A)*%
X177165000Y-80264000D03*
%TD*%
D37*
%TO.P,C7,1*%
%TO.N,+3V3*%
X151754000Y-74168000D03*
%TO.P,C7,2*%
%TO.N,GND*%
X149854000Y-74168000D03*
%TD*%
D10*
%TO.P,C1,1*%
%TO.N,GND*%
X163096000Y-71374000D03*
%TO.P,C1,2*%
%TO.N,hall_2*%
X164056000Y-71374000D03*
%TD*%
D18*
%TO.P,H1,1,VCC*%
%TO.N,+3V3*%
X119285000Y-68398600D03*
D19*
%TO.P,H1,2,GND*%
%TO.N,GND*%
X121285000Y-68398600D03*
%TO.P,H1,3,VOUT*%
%TO.N,hall_0*%
X123285000Y-68398600D03*
%TD*%
D18*
%TO.P,H3,1,VCC*%
%TO.N,+3V3*%
X160306000Y-68167600D03*
D19*
%TO.P,H3,2,GND*%
%TO.N,GND*%
X162306000Y-68167600D03*
%TO.P,H3,3,VOUT*%
%TO.N,hall_2*%
X164306000Y-68167600D03*
%TD*%
D16*
%TO.P,J1,1,Pin_1*%
%TO.N,GND*%
X185039000Y-84455000D03*
D17*
%TO.P,J1,2,Pin_2*%
%TO.N,+3V3*%
X185039000Y-86995000D03*
%TO.P,J1,3,Pin_3*%
%TO.N,SCL*%
X185039000Y-89535000D03*
%TO.P,J1,4,Pin_4*%
%TO.N,SDA*%
X185039000Y-92075000D03*
%TD*%
D14*
%TO.P,MAX1,1,In*%
%TO.N,Net-(MAX1-In)*%
X176160000Y-73599000D03*
%TO.P,MAX1,2,GND*%
%TO.N,GND*%
X176160000Y-74549000D03*
%TO.P,MAX1,3,CLEAR*%
%TO.N,Net-(MAX1-CLEAR)*%
X176160000Y-75499000D03*
%TO.P,MAX1,4,OU*%
%TO.N,unconnected-(MAX1-OU-Pad4)*%
X178435000Y-75499000D03*
%TO.P,MAX1,5,OUT*%
%TO.N,LDO_EN*%
X178435000Y-74549000D03*
%TO.P,MAX1,6,Vcc*%
%TO.N,VBAT*%
X178435000Y-73599000D03*
%TD*%
D31*
%TO.P,SW_M1,1,1*%
%TO.N,b_start*%
X161036000Y-99314000D03*
%TO.P,SW_M1,2,2*%
%TO.N,GND*%
X159336000Y-99314000D03*
%TO.P,SW_M1,3*%
%TO.N,N/C*%
X161036000Y-94164000D03*
%TO.P,SW_M1,4*%
X159336000Y-94164000D03*
%TD*%
D38*
%TO.N,GND*%
X158115000Y-98933000D03*
%TO.N,hall_2*%
X139993000Y-81530100D03*
%TO.N,hall_3*%
X152054100Y-99728300D03*
%TO.N,GND*%
X167767000Y-73025000D03*
X139573000Y-89154000D03*
X170053000Y-94996000D03*
X184761400Y-71834600D03*
X147121300Y-78474800D03*
X121985600Y-72011300D03*
X127254000Y-85598000D03*
X137795000Y-85979000D03*
X182753000Y-84455000D03*
X172720000Y-97790000D03*
X150879700Y-77785000D03*
X130429000Y-87122000D03*
X160528000Y-70231000D03*
X159258000Y-89916000D03*
X180975000Y-80212500D03*
X136398000Y-98679000D03*
X165316200Y-92133100D03*
X133350000Y-95377000D03*
X132457700Y-98908600D03*
X166497000Y-76636400D03*
X158638000Y-75377000D03*
X169037000Y-92456000D03*
X164579400Y-96359000D03*
X141155000Y-70902900D03*
X148729000Y-74407300D03*
X152067000Y-68532000D03*
X164619300Y-79051600D03*
X136652000Y-95631000D03*
X153670000Y-69723000D03*
X123681700Y-89263700D03*
X180459700Y-75088400D03*
X174888400Y-74549000D03*
X129911000Y-80968600D03*
X182753000Y-89662000D03*
%TO.N,SCL*%
X139999200Y-82578500D03*
%TO.N,SDA*%
X175540700Y-85082800D03*
X138516000Y-88951800D03*
%TO.N,JX*%
X128073700Y-89310300D03*
%TO.N,JY*%
X133141500Y-92583900D03*
%TO.N,JSW*%
X127000700Y-89220300D03*
X172335300Y-96640800D03*
%TO.N,GP15*%
X133257100Y-89044300D03*
%TO.N,GP16*%
X135204800Y-89116700D03*
%TO.N,VBUS*%
X175687900Y-82556200D03*
%TO.N,Net-(P1-CC)*%
X152165200Y-92718800D03*
X150602200Y-93177100D03*
%TO.N,Net-(JP1-A)*%
X149646700Y-80936600D03*
X158955300Y-78279800D03*
%TO.N,Net-(D2-K)*%
X160421000Y-73424200D03*
X177560500Y-81696900D03*
%TO.N,D-*%
X146698000Y-94424300D03*
%TO.N,100*%
X135360600Y-78169300D03*
X123619900Y-98838100D03*
%TO.N,GP17*%
X137695000Y-92040700D03*
%TO.N,GP18*%
X156963600Y-86195900D03*
X138659800Y-87780000D03*
%TO.N,GP34*%
X138360900Y-74939100D03*
X143116100Y-76008600D03*
%TO.N,TX*%
X135423400Y-81235700D03*
X160829100Y-85058600D03*
%TO.N,RX*%
X136543100Y-80298900D03*
X160072000Y-84318900D03*
%TO.N,GP42*%
X137572300Y-80088400D03*
%TD*%
D39*
%TO.N,GND*%
X172085000Y-92456000D02*
X169037000Y-92456000D01*
X158128100Y-98933000D02*
X158509100Y-99314000D01*
X158115000Y-98933000D02*
X158128100Y-98933000D01*
X158115000Y-98919900D02*
X158115000Y-98933000D01*
X160440300Y-98034700D02*
X164425300Y-98034700D01*
X159336000Y-99139000D02*
X160440300Y-98034700D01*
X164425300Y-98034700D02*
X164973000Y-97487000D01*
X159336000Y-99314000D02*
X159336000Y-99139000D01*
X128778000Y-97917000D02*
X131466100Y-97917000D01*
X131466100Y-97917000D02*
X132457700Y-98908600D01*
X135841000Y-99236000D02*
X136398000Y-98679000D01*
X133788000Y-99236000D02*
X135841000Y-99236000D01*
X122484000Y-69597600D02*
X121285000Y-68398600D01*
X122484000Y-71120000D02*
X122484000Y-69597600D01*
%TO.N,hall_2*%
X164306000Y-69169500D02*
X164056000Y-69419500D01*
X140208000Y-86929596D02*
X139243200Y-85964796D01*
X140208000Y-88292700D02*
X140208000Y-86929596D01*
X140815300Y-88900000D02*
X140208000Y-88292700D01*
X139243200Y-85964796D02*
X139243200Y-82279900D01*
X141351000Y-88900000D02*
X140815300Y-88900000D01*
X164306000Y-68167600D02*
X164306000Y-69169500D01*
X164056000Y-69419500D02*
X164056000Y-71374000D01*
X139243200Y-82279900D02*
X139993000Y-81530100D01*
%TO.N,hall_0*%
X124861000Y-73165000D02*
X124861000Y-72088800D01*
X124412800Y-72088800D02*
X124861000Y-72088800D01*
X123285000Y-69400500D02*
X123444000Y-69559500D01*
X123285000Y-68398600D02*
X123285000Y-69400500D01*
X123444000Y-71120000D02*
X124412800Y-72088800D01*
X123444000Y-69559500D02*
X123444000Y-71120000D01*
%TO.N,hall_3*%
X186436000Y-70852500D02*
X186436000Y-71120000D01*
X131755600Y-92234100D02*
X132832300Y-93310800D01*
X127401000Y-91741200D02*
X127893900Y-92234100D01*
X127893900Y-92234100D02*
X131755600Y-92234100D01*
X184753000Y-69169500D02*
X186436000Y-70852500D01*
X150213800Y-97888000D02*
X152054100Y-99728300D01*
X139986300Y-93094100D02*
X144780200Y-97888000D01*
X132832300Y-93310800D02*
X133605000Y-93310800D01*
X133821700Y-93094100D02*
X139986300Y-93094100D01*
X133605000Y-93310800D02*
X133821700Y-93094100D01*
X127401000Y-90665000D02*
X127401000Y-91741200D01*
X184753000Y-68167600D02*
X184753000Y-69169500D01*
X144780200Y-97888000D02*
X150213800Y-97888000D01*
%TO.N,hall_1*%
X126131000Y-73165000D02*
X126131000Y-72088800D01*
X143732000Y-68167600D02*
X143732000Y-69169500D01*
X143002000Y-70176000D02*
X143002000Y-70866000D01*
X143002000Y-70176000D02*
X131885800Y-70176000D01*
X131885800Y-70176000D02*
X129973000Y-72088800D01*
X143732000Y-69169500D02*
X143002000Y-69899500D01*
X129973000Y-72088800D02*
X126131000Y-72088800D01*
X143002000Y-69899500D02*
X143002000Y-70176000D01*
%TO.N,GND*%
X149614700Y-74407300D02*
X149854000Y-74168000D01*
X137884105Y-85979000D02*
X137795000Y-85979000D01*
X157421200Y-98226100D02*
X158115000Y-98919900D01*
X136652000Y-98425000D02*
X136398000Y-98679000D01*
X172459195Y-97790000D02*
X170053000Y-95383805D01*
X129911000Y-81822100D02*
X129911000Y-81629300D01*
X134493000Y-94234000D02*
X133350000Y-95377000D01*
X129911000Y-81629300D02*
X129911000Y-81243600D01*
X148729000Y-74407300D02*
X149614700Y-74407300D01*
X130429000Y-87122000D02*
X128778000Y-87122000D01*
X166497000Y-76636400D02*
X166751000Y-76382400D01*
X132192900Y-94234000D02*
X134549000Y-94234000D01*
X180459700Y-75088400D02*
X180646500Y-75088400D01*
X184761400Y-71834600D02*
X185476000Y-71120000D01*
X152146000Y-77785000D02*
X150879700Y-77785000D01*
X129911000Y-81822100D02*
X129911000Y-82015000D01*
X160528000Y-70231000D02*
X161953000Y-70231000D01*
X131311000Y-83415000D02*
X130539600Y-83415000D01*
X156181000Y-99403000D02*
X156181000Y-98226100D01*
X169037000Y-92456000D02*
X170053000Y-93472000D01*
X123591000Y-89588800D02*
X123681700Y-89498100D01*
X152781000Y-100026705D02*
X152781000Y-99429895D01*
X147531000Y-99403000D02*
X148581300Y-100453300D01*
X129911000Y-81243600D02*
X129911000Y-80968600D01*
X166751000Y-74427000D02*
X166751000Y-74041000D01*
X141155000Y-70902900D02*
X142005100Y-70902900D01*
X129911000Y-83415000D02*
X130539600Y-83415000D01*
X158638000Y-75377000D02*
X159904000Y-75377000D01*
X139573000Y-89154000D02*
X139573000Y-87667895D01*
X130683000Y-93726000D02*
X131684900Y-93726000D01*
X148445800Y-78474800D02*
X148452000Y-78481000D01*
X163096000Y-71374000D02*
X163096000Y-69959500D01*
X142005100Y-70902900D02*
X142042000Y-70866000D01*
X147531000Y-99403000D02*
X145441900Y-99403000D01*
X122484000Y-72011300D02*
X123513500Y-72011300D01*
X132711000Y-82015000D02*
X131311000Y-82015000D01*
X150419105Y-97068000D02*
X149451405Y-97068000D01*
X172720000Y-97790000D02*
X172459195Y-97790000D01*
X163096000Y-69959500D02*
X162306000Y-69169500D01*
X170053000Y-95383805D02*
X170053000Y-94996000D01*
X159258000Y-89916000D02*
X161291396Y-89916000D01*
X131684900Y-93726000D02*
X132192900Y-94234000D01*
X164880500Y-96660100D02*
X164973000Y-96660100D01*
X123591000Y-90665000D02*
X123591000Y-89588800D01*
X153670000Y-69723000D02*
X153258000Y-69723000D01*
X134549000Y-94234000D02*
X134493000Y-94234000D01*
X139573000Y-87667895D02*
X137884105Y-85979000D01*
X123513500Y-72011300D02*
X123591000Y-72088800D01*
X132457700Y-98908600D02*
X132736100Y-99187000D01*
X167386000Y-90805000D02*
X169037000Y-92456000D01*
X121985600Y-72011300D02*
X122484000Y-72011300D01*
X123681700Y-89498100D02*
X123681700Y-89263700D01*
X147121300Y-78474800D02*
X148445800Y-78474800D01*
X162180396Y-90805000D02*
X167386000Y-90805000D01*
X148881000Y-96497595D02*
X148881000Y-96393000D01*
X152067000Y-68532000D02*
X151257000Y-69342000D01*
X164401000Y-92711000D02*
X164338000Y-92774000D01*
X149451405Y-97068000D02*
X148881000Y-96497595D01*
X170053000Y-93472000D02*
X170053000Y-94996000D01*
X165316200Y-92133100D02*
X165316200Y-92711000D01*
X163899400Y-79051600D02*
X163576000Y-79375000D01*
X144526000Y-99314000D02*
X145352900Y-99314000D01*
X181794000Y-75184000D02*
X180742100Y-75184000D01*
X129911000Y-81629300D02*
X130153900Y-81629300D01*
X152354405Y-100453300D02*
X152781000Y-100026705D01*
X170053000Y-94996000D02*
X170053000Y-94869000D01*
X167386000Y-92711000D02*
X165316200Y-92711000D01*
X156181000Y-98226100D02*
X157421200Y-98226100D01*
X130153900Y-81629300D02*
X130539600Y-82015000D01*
X122484000Y-72011300D02*
X122484000Y-71120000D01*
X129911000Y-82015000D02*
X129911000Y-83415000D01*
X123591000Y-73165000D02*
X123591000Y-72088800D01*
X152781000Y-99429895D02*
X150419105Y-97068000D01*
X136652000Y-95631000D02*
X136652000Y-98425000D01*
X166497000Y-77729000D02*
X166497000Y-76636400D01*
X166751000Y-76382400D02*
X166751000Y-74427000D01*
X161953000Y-70231000D02*
X163096000Y-71374000D01*
X176160000Y-74549000D02*
X174888400Y-74549000D01*
X128778000Y-87122000D02*
X127254000Y-85598000D01*
X180646500Y-75088400D02*
X180742100Y-75184000D01*
X148581300Y-100453300D02*
X152354405Y-100453300D01*
X159336000Y-99314000D02*
X158509100Y-99314000D01*
X145441900Y-99403000D02*
X145352900Y-99314000D01*
X133788000Y-99187000D02*
X132736100Y-99187000D01*
X164973000Y-97487000D02*
X164973000Y-96660100D01*
X153258000Y-69723000D02*
X152067000Y-68532000D01*
X182753000Y-84455000D02*
X182753000Y-89662000D01*
X180975000Y-80212500D02*
X180975000Y-79121000D01*
X165316200Y-92711000D02*
X164401000Y-92711000D01*
X131311000Y-82015000D02*
X130539600Y-82015000D01*
X164579400Y-96359000D02*
X164880500Y-96660100D01*
X166751000Y-74041000D02*
X167767000Y-73025000D01*
X164619300Y-79051600D02*
X163899400Y-79051600D01*
X161291396Y-89916000D02*
X162180396Y-90805000D01*
X162306000Y-68167600D02*
X162306000Y-69169500D01*
%TO.N,+3V3*%
X128683000Y-92725600D02*
X128683000Y-92724100D01*
X154421000Y-76835000D02*
X151754000Y-74168000D01*
X186238800Y-89005900D02*
X186238800Y-92575200D01*
X185039000Y-88171900D02*
X185404800Y-88171900D01*
X128684500Y-92724100D02*
X131565000Y-92724100D01*
X140747800Y-67151800D02*
X144737800Y-67151800D01*
X174085000Y-91454100D02*
X172562200Y-89931300D01*
X160306000Y-68167600D02*
X157754400Y-68167600D01*
X124861000Y-91741200D02*
X125843900Y-92724100D01*
X172562200Y-89931300D02*
X164099300Y-89931300D01*
X164099300Y-89931300D02*
X163068000Y-88900000D01*
X133792200Y-93762700D02*
X134000500Y-93554400D01*
X128683000Y-93726000D02*
X128683000Y-92725600D01*
X138893400Y-93554400D02*
X139700000Y-94361000D01*
X144737800Y-67151800D02*
X151754000Y-74168000D01*
X174085000Y-92456000D02*
X174085000Y-91454100D01*
X131565000Y-92724100D02*
X132603600Y-93762700D01*
X125843900Y-92724100D02*
X128683000Y-92724100D01*
X185039000Y-86995000D02*
X185039000Y-88171900D01*
X139732000Y-68167600D02*
X140747800Y-67151800D01*
X124861000Y-90665000D02*
X124861000Y-91741200D01*
X186238800Y-92575200D02*
X185525400Y-93288600D01*
X134000500Y-93554400D02*
X138893400Y-93554400D01*
X185525400Y-93288600D02*
X182467800Y-93288600D01*
X157754400Y-68167600D02*
X151754000Y-74168000D01*
X185404800Y-88171900D02*
X186238800Y-89005900D01*
X128683000Y-92725600D02*
X128684500Y-92724100D01*
X182467800Y-93288600D02*
X180633300Y-91454100D01*
X132603600Y-93762700D02*
X133792200Y-93762700D01*
X180633300Y-91454100D02*
X174085000Y-91454100D01*
%TO.N,SCL*%
X140274800Y-86360000D02*
X140274800Y-82854100D01*
X140274800Y-82854100D02*
X139999200Y-82578500D01*
X141351000Y-86360000D02*
X140274800Y-86360000D01*
%TO.N,SDA*%
X137561000Y-89588800D02*
X137879000Y-89588800D01*
X183862100Y-92075000D02*
X176869900Y-85082800D01*
X176869900Y-85082800D02*
X175540700Y-85082800D01*
X185039000Y-92075000D02*
X183862100Y-92075000D01*
X137879000Y-89588800D02*
X138516000Y-88951800D01*
X137561000Y-90665000D02*
X137561000Y-89588800D01*
%TO.N,JX*%
X128671000Y-90665000D02*
X128671000Y-89588800D01*
X128352200Y-89588800D02*
X128073700Y-89310300D01*
X128671000Y-89588800D02*
X128352200Y-89588800D01*
%TO.N,JY*%
X129941000Y-91741200D02*
X132298800Y-91741200D01*
X129941000Y-90665000D02*
X129941000Y-91741200D01*
X132298800Y-91741200D02*
X133141500Y-92583900D01*
%TO.N,JSW*%
X172335300Y-96640800D02*
X174537600Y-94438500D01*
X130205500Y-88583300D02*
X127637700Y-88583300D01*
X174537600Y-94438500D02*
X178102500Y-94438500D01*
X178102500Y-94438500D02*
X180085000Y-92456000D01*
X127637700Y-88583300D02*
X127000700Y-89220300D01*
X131211000Y-90665000D02*
X131211000Y-89588800D01*
X131211000Y-89588800D02*
X130205500Y-88583300D01*
%TO.N,b_start*%
X166023000Y-100012000D02*
X161734000Y-100012000D01*
X168186000Y-92293538D02*
X168186000Y-93128462D01*
X168102379Y-93212083D02*
X168658300Y-93768004D01*
X168186000Y-93128462D02*
X168102379Y-93212083D01*
X142427200Y-83820000D02*
X143526200Y-84919000D01*
X141351000Y-83820000D02*
X142427200Y-83820000D01*
X168658300Y-97376700D02*
X166023000Y-100012000D01*
X143526200Y-84919000D02*
X143526200Y-90036700D01*
X143526200Y-90036700D02*
X144295200Y-90805700D01*
X162052000Y-91313000D02*
X167205462Y-91313000D01*
X168658300Y-93768004D02*
X168658300Y-97376700D01*
X161734000Y-100012000D02*
X161036000Y-99314000D01*
X144295200Y-90805700D02*
X161544700Y-90805700D01*
X161544700Y-90805700D02*
X162052000Y-91313000D01*
X167205462Y-91313000D02*
X168186000Y-92293538D01*
%TO.N,GP14*%
X141351000Y-80010000D02*
X142427200Y-80010000D01*
X142427200Y-80010000D02*
X149392500Y-86975300D01*
X149392500Y-86975300D02*
X151555300Y-86975300D01*
X151555300Y-86975300D02*
X153480000Y-88900000D01*
%TO.N,GP15*%
X132481000Y-89588800D02*
X132712600Y-89588800D01*
X132712600Y-89588800D02*
X133257100Y-89044300D01*
X132481000Y-90665000D02*
X132481000Y-89588800D01*
%TO.N,GP16*%
X133751000Y-89588800D02*
X134732700Y-89588800D01*
X133751000Y-90665000D02*
X133751000Y-89588800D01*
X134732700Y-89588800D02*
X135204800Y-89116700D01*
%TO.N,VBAT*%
X163957300Y-82283500D02*
X161278500Y-82283500D01*
X181239100Y-78120600D02*
X182315900Y-79197400D01*
X177998400Y-73599000D02*
X177422900Y-74174500D01*
X186712000Y-92741100D02*
X186712000Y-82911400D01*
X179902600Y-73599000D02*
X178435000Y-73599000D01*
X161278500Y-82283500D02*
X158116000Y-79121000D01*
X182702500Y-74342300D02*
X180645900Y-74342300D01*
X178923000Y-97201000D02*
X182252100Y-97201000D01*
X182315900Y-83106100D02*
X181970600Y-83451400D01*
X159118900Y-76987600D02*
X158116000Y-77990500D01*
X186712000Y-82911400D02*
X183480000Y-79679400D01*
X177422900Y-75824700D02*
X179718800Y-78120600D01*
X156403000Y-74271700D02*
X159118900Y-76987600D01*
X179718800Y-78120600D02*
X181239100Y-78120600D01*
X181970600Y-83451400D02*
X165125200Y-83451400D01*
X178435000Y-73599000D02*
X177998400Y-73599000D01*
X158116000Y-77990500D02*
X158116000Y-79121000D01*
X159904000Y-76327000D02*
X159779500Y-76327000D01*
X165125200Y-83451400D02*
X163957300Y-82283500D01*
X182252100Y-97201000D02*
X186712000Y-92741100D01*
X177422900Y-74174500D02*
X177422900Y-75824700D01*
X156403000Y-74138000D02*
X156403000Y-74271700D01*
X159779500Y-76327000D02*
X159118900Y-76987600D01*
X183480000Y-79679400D02*
X183480000Y-75119800D01*
X180645900Y-74342300D02*
X179902600Y-73599000D01*
X183480000Y-75119800D02*
X182702500Y-74342300D01*
X182315900Y-79197400D02*
X182315900Y-83106100D01*
%TO.N,EN*%
X122813300Y-89100800D02*
X123407400Y-88506700D01*
X126131000Y-90665000D02*
X126131000Y-89588800D01*
X121674600Y-92963800D02*
X122813300Y-91825100D01*
X135636000Y-94361000D02*
X135636000Y-94621900D01*
X123936400Y-96469900D02*
X121674600Y-94208100D01*
X125048900Y-88506700D02*
X126131000Y-89588800D01*
X133788000Y-96469900D02*
X133788000Y-96660100D01*
X123407400Y-88506700D02*
X125048900Y-88506700D01*
X121674600Y-94208100D02*
X121674600Y-92963800D01*
X133788000Y-96469900D02*
X123936400Y-96469900D01*
X135636000Y-94361000D02*
X135509000Y-94234000D01*
X122813300Y-91825100D02*
X122813300Y-89100800D01*
X135636000Y-94621900D02*
X133788000Y-96469900D01*
X138050000Y-94361000D02*
X135636000Y-94361000D01*
X133788000Y-97487000D02*
X133788000Y-96660100D01*
%TO.N,VIN*%
X155123800Y-77491100D02*
X155453000Y-77161900D01*
X152602500Y-76835000D02*
X153258600Y-77491100D01*
X166774100Y-72027900D02*
X169587000Y-69215000D01*
X156531200Y-71184800D02*
X161909800Y-71184800D01*
X153258600Y-77491100D02*
X155123800Y-77491100D01*
X162752900Y-72027900D02*
X166774100Y-72027900D01*
X148452000Y-76581000D02*
X151892000Y-76581000D01*
X151892000Y-76581000D02*
X152146000Y-76835000D01*
X169587000Y-69215000D02*
X171087000Y-69215000D01*
X155453000Y-72263000D02*
X156531200Y-71184800D01*
X161909800Y-71184800D02*
X162752900Y-72027900D01*
X155453000Y-77161900D02*
X155453000Y-72263000D01*
X152146000Y-76835000D02*
X152602500Y-76835000D01*
%TO.N,VBUS*%
X161176500Y-73096400D02*
X160343100Y-72263000D01*
X175515000Y-80264000D02*
X174354900Y-80264000D01*
X174136900Y-70465100D02*
X174136900Y-80046000D01*
X164947000Y-77729000D02*
X163581000Y-77729000D01*
X162179000Y-76327000D02*
X161176500Y-75324500D01*
X173337700Y-67165700D02*
X151783300Y-67165700D01*
X167264000Y-80046000D02*
X164947000Y-77729000D01*
X175387000Y-69215000D02*
X173337700Y-67165700D01*
X160343100Y-72263000D02*
X157353000Y-72263000D01*
X161176500Y-75324500D02*
X161176500Y-73096400D01*
X174354900Y-80264000D02*
X174136900Y-80046000D01*
X175387000Y-69215000D02*
X174136900Y-70465100D01*
X175515000Y-82383300D02*
X175687900Y-82556200D01*
X175515000Y-80264000D02*
X175515000Y-82383300D01*
X163581000Y-77729000D02*
X162179000Y-76327000D01*
X173887000Y-69215000D02*
X175387000Y-69215000D01*
X151783300Y-67165700D02*
X149607000Y-69342000D01*
X174136900Y-80046000D02*
X167264000Y-80046000D01*
%TO.N,b_select*%
X141351000Y-85090000D02*
X142427200Y-85090000D01*
X142427200Y-85090000D02*
X142427200Y-89576800D01*
X144842100Y-91991700D02*
X162105100Y-91991700D01*
X142427200Y-89576800D02*
X144842100Y-91991700D01*
X164973000Y-99187000D02*
X164973000Y-98360100D01*
X168208300Y-93954400D02*
X168208300Y-95947500D01*
X162105100Y-91991700D02*
X163743700Y-93630300D01*
X168208300Y-95947500D02*
X165795700Y-98360100D01*
X167884200Y-93630300D02*
X168208300Y-93954400D01*
X165795700Y-98360100D02*
X164973000Y-98360100D01*
X163743700Y-93630300D02*
X167884200Y-93630300D01*
%TO.N,Net-(P1-VCONN)*%
X166163300Y-95583700D02*
X164053200Y-95583700D01*
X164053200Y-95583700D02*
X162052200Y-97584700D01*
X167386000Y-94361000D02*
X166163300Y-95583700D01*
X154181000Y-97584700D02*
X153131000Y-96534700D01*
X162052200Y-97584700D02*
X154181000Y-97584700D01*
X153131000Y-96534700D02*
X153131000Y-96393000D01*
%TO.N,Net-(P1-CC)*%
X163695500Y-94424000D02*
X161990300Y-92718800D01*
X150602200Y-93177100D02*
X150581000Y-93198300D01*
X150581000Y-93198300D02*
X150581000Y-95043000D01*
X161990300Y-92718800D02*
X152165200Y-92718800D01*
X164338000Y-94424000D02*
X163695500Y-94424000D01*
%TO.N,Net-(JP1-A)*%
X145870000Y-81661000D02*
X145870000Y-81210400D01*
X146496300Y-80584100D02*
X149294200Y-80584100D01*
X160020000Y-79375000D02*
X159766000Y-79121000D01*
X145870000Y-81210400D02*
X146496300Y-80584100D01*
X161926000Y-79375000D02*
X160020000Y-79375000D01*
X149294200Y-80584100D02*
X149646700Y-80936600D01*
X158955400Y-78279800D02*
X158955300Y-78279800D01*
X159766000Y-79121000D02*
X158955400Y-78310400D01*
X158955400Y-78310400D02*
X158955400Y-78279800D01*
%TO.N,Net-(D2-K)*%
X159904000Y-74427000D02*
X160420900Y-73910100D01*
X178286600Y-82423000D02*
X177560500Y-81696900D01*
X160420900Y-73424200D02*
X160421000Y-73424200D01*
X160420900Y-73910100D02*
X160420900Y-73424200D01*
X179608000Y-82423000D02*
X178286600Y-82423000D01*
%TO.N,Net-(D2-A)*%
X181483000Y-82423000D02*
X179324000Y-80264000D01*
X179324000Y-80264000D02*
X177165000Y-80264000D01*
%TO.N,Net-(MAX1-CLEAR)*%
X179325000Y-78664000D02*
X179325000Y-79121000D01*
X176160000Y-75499000D02*
X179325000Y-78664000D01*
%TO.N,LDO_EN*%
X182785400Y-78511100D02*
X182785400Y-83289800D01*
X156551100Y-83140100D02*
X152146000Y-78735000D01*
X182785400Y-83289800D02*
X182171500Y-83903700D01*
X164069700Y-83903700D02*
X163306100Y-83140100D01*
X182171500Y-83903700D02*
X164069700Y-83903700D01*
X178435000Y-74549000D02*
X178823300Y-74549000D01*
X163306100Y-83140100D02*
X156551100Y-83140100D01*
X178823300Y-74549000D02*
X182785400Y-78511100D01*
%TO.N,Net-(U4-PROG)*%
X162179000Y-74427000D02*
X165101000Y-74427000D01*
%TO.N,ADC_BAT*%
X148146900Y-81661000D02*
X148421200Y-81935300D01*
X141351000Y-82550000D02*
X142427200Y-82550000D01*
X143978100Y-89849500D02*
X144482400Y-90353800D01*
X148421200Y-81935300D02*
X150515300Y-81935300D01*
X147320000Y-81661000D02*
X148146900Y-81661000D01*
X142427200Y-82550000D02*
X143978100Y-84100900D01*
X143978100Y-84100900D02*
X143978100Y-89849500D01*
X150515300Y-81935300D02*
X157480000Y-88900000D01*
X144482400Y-90353800D02*
X156026200Y-90353800D01*
X156026200Y-90353800D02*
X157480000Y-88900000D01*
%TO.N,D+*%
X140803500Y-92443700D02*
X150896800Y-92443700D01*
X140101000Y-90665000D02*
X140101000Y-91741200D01*
X150896800Y-92443700D02*
X151431000Y-92977900D01*
X151431000Y-92977900D02*
X151431000Y-95043000D01*
X140101000Y-91741200D02*
X140803500Y-92443700D01*
%TO.N,D-*%
X145252300Y-92978600D02*
X140644000Y-92978600D01*
X140644000Y-92978600D02*
X139406600Y-91741200D01*
X139406600Y-91741200D02*
X138831000Y-91741200D01*
X146698000Y-94424300D02*
X145252300Y-92978600D01*
X138831000Y-90665000D02*
X138831000Y-91741200D01*
%TO.N,100*%
X141287500Y-100025600D02*
X131732300Y-100025600D01*
X140101000Y-73165000D02*
X140101000Y-74241200D01*
X131732300Y-100025600D02*
X131248300Y-99541600D01*
X141999100Y-99314000D02*
X141287500Y-100025600D01*
X136172900Y-78169300D02*
X135360600Y-78169300D01*
X140101000Y-74241200D02*
X136172900Y-78169300D01*
X131248300Y-99541600D02*
X124323400Y-99541600D01*
X124323400Y-99541600D02*
X123619900Y-98838100D01*
X142826000Y-99314000D02*
X141999100Y-99314000D01*
%TO.N,GP13*%
X144669600Y-89901900D02*
X154478100Y-89901900D01*
X154478100Y-89901900D02*
X155480000Y-88900000D01*
X144430000Y-89662300D02*
X144669600Y-89901900D01*
X144430000Y-83282800D02*
X144430000Y-89662300D01*
X142427200Y-81280000D02*
X144430000Y-83282800D01*
X141351000Y-81280000D02*
X142427200Y-81280000D01*
%TO.N,Net-(MAX1-In)*%
X176160000Y-73599000D02*
X176802700Y-72956300D01*
X176802700Y-72956300D02*
X180214400Y-72956300D01*
X181794000Y-73484000D02*
X180742100Y-73484000D01*
X180214400Y-72956300D02*
X180742100Y-73484000D01*
%TO.N,GP17*%
X137395500Y-91741200D02*
X137695000Y-92040700D01*
X135021000Y-91741200D02*
X137395500Y-91741200D01*
X135021000Y-90665000D02*
X135021000Y-91741200D01*
%TO.N,GP18*%
X136291000Y-89588800D02*
X136851000Y-89588800D01*
X136851000Y-89588800D02*
X138659800Y-87780000D01*
X158074200Y-87306500D02*
X165474500Y-87306500D01*
X156963600Y-86195900D02*
X158074200Y-87306500D01*
X165474500Y-87306500D02*
X167068000Y-88900000D01*
X136291000Y-90665000D02*
X136291000Y-89588800D01*
%TO.N,GP21*%
X157616500Y-87876700D02*
X164044700Y-87876700D01*
X149770800Y-80031000D02*
X157616500Y-87876700D01*
X141351000Y-78740000D02*
X142427200Y-78740000D01*
X164044700Y-87876700D02*
X165068000Y-88900000D01*
X143718200Y-80031000D02*
X149770800Y-80031000D01*
X142427200Y-78740000D02*
X143718200Y-80031000D01*
%TO.N,GP34*%
X168913300Y-86745300D02*
X171068000Y-88900000D01*
X146550700Y-79443200D02*
X149852900Y-79443200D01*
X160814800Y-86745300D02*
X168913300Y-86745300D01*
X159015600Y-84946100D02*
X160814800Y-86745300D01*
X155355800Y-84946100D02*
X159015600Y-84946100D01*
X131211000Y-73165000D02*
X131211000Y-74241200D01*
X131211000Y-74241200D02*
X137663000Y-74241200D01*
X137663000Y-74241200D02*
X138360900Y-74939100D01*
X143116100Y-76008600D02*
X146550700Y-79443200D01*
X149852900Y-79443200D02*
X155355800Y-84946100D01*
%TO.N,GP33*%
X159155500Y-84446700D02*
X160947400Y-86238600D01*
X140673400Y-72088800D02*
X146115600Y-77531000D01*
X160947400Y-86238600D02*
X170406600Y-86238600D01*
X146115600Y-77531000D02*
X149399400Y-77531000D01*
X170406600Y-86238600D02*
X173068000Y-88900000D01*
X149399400Y-77531000D02*
X156315100Y-84446700D01*
X132481000Y-72088800D02*
X140673400Y-72088800D01*
X156315100Y-84446700D02*
X159155500Y-84446700D01*
X132481000Y-73165000D02*
X132481000Y-72088800D01*
%TO.N,TX*%
X175068000Y-88900000D02*
X171226600Y-85058600D01*
X134395500Y-81235700D02*
X127401000Y-74241200D01*
X171226600Y-85058600D02*
X160829100Y-85058600D01*
X135423400Y-81235700D02*
X134395500Y-81235700D01*
X127401000Y-73165000D02*
X127401000Y-74241200D01*
%TO.N,RX*%
X177068000Y-88900000D02*
X172585000Y-84417000D01*
X128671000Y-73165000D02*
X128671000Y-74241200D01*
X163943900Y-84417000D02*
X163845800Y-84318900D01*
X134728700Y-80298900D02*
X128671000Y-74241200D01*
X136543100Y-80298900D02*
X134728700Y-80298900D01*
X163845800Y-84318900D02*
X160072000Y-84318900D01*
X172585000Y-84417000D02*
X163943900Y-84417000D01*
%TO.N,GP42*%
X137572300Y-80088400D02*
X136419300Y-78935400D01*
X134635200Y-78935400D02*
X129941000Y-74241200D01*
X136419300Y-78935400D02*
X134635200Y-78935400D01*
X129941000Y-73165000D02*
X129941000Y-74241200D01*
%TD*%
M02*
