%TF.GenerationSoftware,KiCad,Pcbnew,7.0.7*%
%TF.CreationDate,2025-04-06T11:57:39-05:00*%
%TF.ProjectId,LASK5_V2-0,4c41534b-355f-4563-922d-302e6b696361,rev?*%
%TF.SameCoordinates,Original*%
%TF.FileFunction,Drillmap*%
%TF.FilePolarity,Positive*%
%FSLAX45Y45*%
G04 Gerber Fmt 4.5, Leading zero omitted, Abs format (unit mm)*
G04 Created by KiCad (PCBNEW 7.0.7) date 2025-04-06 11:57:39*
%MOMM*%
%LPD*%
G01*
G04 APERTURE LIST*
%ADD10C,0.003779*%
%ADD11C,0.200000*%
%ADD12C,0.040000*%
%ADD13C,0.060000*%
%ADD14C,0.080000*%
%ADD15C,0.100000*%
G04 APERTURE END LIST*
D10*
X12526400Y-10036100D02*
X12412200Y-9994000D01*
X18316499Y-9816000D02*
X18215299Y-9883600D01*
X18663099Y-6657200D02*
X18725700Y-6691400D01*
X11814500Y-6632300D02*
X11884200Y-6617100D01*
X18109100Y-9943100D02*
X17998599Y-9994000D01*
X18837399Y-9155200D02*
X18786500Y-9265700D01*
X18727000Y-9371900D02*
X18659399Y-9473100D01*
X11475700Y-6971100D02*
X11500600Y-6904300D01*
X17998599Y-9994000D02*
X17884399Y-10036100D01*
X15205400Y-10112000D02*
X13005400Y-10112000D01*
X12883800Y-10107200D02*
X12762900Y-10092900D01*
X11455400Y-7112000D02*
X11460500Y-7040800D01*
X11573400Y-9155200D02*
X11531300Y-9041000D01*
X11500600Y-6904300D02*
X11534800Y-6841700D01*
X18912599Y-8923800D02*
X18879499Y-9041000D01*
X12195500Y-9883600D02*
X12094300Y-9816000D01*
X11683800Y-9371900D02*
X11624300Y-9265700D01*
X18659399Y-9473100D02*
X18583999Y-9568600D01*
X11826800Y-9568600D02*
X11751400Y-9473100D01*
X12412200Y-9994000D02*
X12301700Y-9943100D01*
X17884399Y-10036100D02*
X17767199Y-10069200D01*
X11747700Y-6657200D02*
X11814500Y-6632300D01*
X12762900Y-10092900D02*
X12643600Y-10069200D01*
X11460500Y-7040800D02*
X11475700Y-6971100D01*
X18482200Y-9675740D02*
X18411999Y-9740600D01*
X18501399Y-9658000D02*
X18482200Y-9675740D01*
X17767199Y-10069200D02*
X17647900Y-10092900D01*
X11884200Y-6617100D02*
X11928600Y-6613920D01*
X18786500Y-9265700D02*
X18727000Y-9371900D01*
X12643600Y-10069200D02*
X12526400Y-10036100D01*
X18583999Y-9568600D02*
X18501399Y-9658000D01*
X18955399Y-8362000D02*
X18955399Y-8562000D01*
X11624300Y-9265700D02*
X11573400Y-9155200D01*
X17647900Y-10092900D02*
X17527000Y-10107200D01*
X18482200Y-6613920D02*
X18526600Y-6617100D01*
X18833299Y-6784600D02*
X18875999Y-6841700D01*
X17405400Y-10112000D02*
X15205400Y-10112000D01*
X18935099Y-6971100D02*
X18950300Y-7040800D01*
X11751400Y-9473100D02*
X11683800Y-9371900D01*
X11460200Y-8683600D02*
X11455400Y-8562000D01*
X18411999Y-9740600D02*
X18316499Y-9816000D01*
X11498200Y-8923800D02*
X11474500Y-8804500D01*
X11928600Y-6613920D02*
X11955400Y-6612000D01*
X11998800Y-9740600D02*
X11928600Y-9675740D01*
X13005400Y-10112000D02*
X12883800Y-10107200D01*
X18596299Y-6632300D02*
X18663099Y-6657200D01*
X18455399Y-6612000D02*
X18482200Y-6613920D01*
X18950599Y-8683600D02*
X18936299Y-8804500D01*
X11577500Y-6784600D02*
X11628000Y-6734100D01*
X18910200Y-6904300D02*
X18935099Y-6971100D01*
X11534800Y-6841700D02*
X11577500Y-6784600D01*
X18215299Y-9883600D02*
X18109100Y-9943100D01*
X11955400Y-6612000D02*
X15205400Y-6612000D01*
X11455400Y-8362000D02*
X11455400Y-7112000D01*
X12094300Y-9816000D02*
X11998800Y-9740600D01*
X11474500Y-8804500D02*
X11460200Y-8683600D01*
X18879499Y-9041000D02*
X18837399Y-9155200D01*
X18725700Y-6691400D02*
X18782799Y-6734100D01*
X11628000Y-6734100D02*
X11685100Y-6691400D01*
X11531300Y-9041000D02*
X11498200Y-8923800D01*
X18782799Y-6734100D02*
X18833299Y-6784600D01*
X18526600Y-6617100D02*
X18596299Y-6632300D01*
X11455400Y-8562000D02*
X11455400Y-8362000D01*
X11909400Y-9658000D02*
X11826800Y-9568600D01*
X11928600Y-9675740D02*
X11909400Y-9658000D01*
X17527000Y-10107200D02*
X17405400Y-10112000D01*
X12301700Y-9943100D02*
X12195500Y-9883600D01*
X18950300Y-7040800D02*
X18955399Y-7112000D01*
X18955399Y-7112000D02*
X18955399Y-8362000D01*
X15205400Y-6612000D02*
X18455399Y-6612000D01*
X11685100Y-6691400D02*
X11747700Y-6657200D01*
X18955399Y-8562000D02*
X18950599Y-8683600D01*
X18875999Y-6841700D02*
X18910200Y-6904300D01*
X18936299Y-8804500D02*
X18912599Y-8923800D01*
D11*
D12*
X12178560Y-7181130D02*
X12218560Y-7221130D01*
X12218560Y-7181130D02*
X12178560Y-7221130D01*
X12341990Y-9863810D02*
X12381990Y-9903810D01*
X12381990Y-9863810D02*
X12341990Y-9903810D01*
X12348170Y-8906370D02*
X12388170Y-8946370D01*
X12388170Y-8906370D02*
X12348170Y-8946370D01*
X12680070Y-8902030D02*
X12720070Y-8942030D01*
X12720070Y-8902030D02*
X12680070Y-8942030D01*
X12705400Y-8539800D02*
X12745400Y-8579800D01*
X12745400Y-8539800D02*
X12705400Y-8579800D01*
X12787370Y-8911030D02*
X12827370Y-8951030D01*
X12827370Y-8911030D02*
X12787370Y-8951030D01*
X12971100Y-8076860D02*
X13011100Y-8116860D01*
X13011100Y-8076860D02*
X12971100Y-8116860D01*
X13022900Y-8692200D02*
X13062900Y-8732200D01*
X13062900Y-8692200D02*
X13022900Y-8732200D01*
X13225770Y-9870860D02*
X13265770Y-9910860D01*
X13265770Y-9870860D02*
X13225770Y-9910860D01*
X13294150Y-9238390D02*
X13334150Y-9278390D01*
X13334150Y-9238390D02*
X13294150Y-9278390D01*
X13305710Y-8884430D02*
X13345710Y-8924430D01*
X13345710Y-8884430D02*
X13305710Y-8924430D01*
X13315000Y-9517700D02*
X13355000Y-9557700D01*
X13355000Y-9517700D02*
X13315000Y-9557700D01*
X13500480Y-8891670D02*
X13540480Y-8931670D01*
X13540480Y-8891670D02*
X13500480Y-8931670D01*
X13516060Y-7796930D02*
X13556060Y-7836930D01*
X13556060Y-7796930D02*
X13516060Y-7836930D01*
X13522340Y-8103570D02*
X13562340Y-8143570D01*
X13562340Y-8103570D02*
X13522340Y-8143570D01*
X13619800Y-9847900D02*
X13659800Y-9887900D01*
X13659800Y-9847900D02*
X13619800Y-9887900D01*
X13634310Y-8009890D02*
X13674310Y-8049890D01*
X13674310Y-8009890D02*
X13634310Y-8049890D01*
X13645200Y-9543100D02*
X13685200Y-9583100D01*
X13685200Y-9543100D02*
X13645200Y-9583100D01*
X13737230Y-7988840D02*
X13777230Y-8028840D01*
X13777230Y-7988840D02*
X13737230Y-8028840D01*
X13749500Y-9184070D02*
X13789500Y-9224070D01*
X13789500Y-9184070D02*
X13749500Y-9224070D01*
X13759500Y-8577900D02*
X13799500Y-8617900D01*
X13799500Y-8577900D02*
X13759500Y-8617900D01*
X13816090Y-7473910D02*
X13856090Y-7513910D01*
X13856090Y-7473910D02*
X13816090Y-7513910D01*
X13831600Y-8875180D02*
X13871600Y-8915180D01*
X13871600Y-8875180D02*
X13831600Y-8915180D01*
X13845980Y-8758000D02*
X13885980Y-8798000D01*
X13885980Y-8758000D02*
X13845980Y-8798000D01*
X13937300Y-8895400D02*
X13977300Y-8935400D01*
X13977300Y-8895400D02*
X13937300Y-8935400D01*
X13979300Y-8133010D02*
X14019300Y-8173010D01*
X14019300Y-8133010D02*
X13979300Y-8173010D01*
X13979920Y-8237850D02*
X14019920Y-8277850D01*
X14019920Y-8237850D02*
X13979920Y-8277850D01*
X14095500Y-7070290D02*
X14135500Y-7110290D01*
X14135500Y-7070290D02*
X14095500Y-7110290D01*
X14291610Y-7580860D02*
X14331610Y-7620860D01*
X14331610Y-7580860D02*
X14291610Y-7620860D01*
X14649800Y-9422430D02*
X14689800Y-9462430D01*
X14689800Y-9422430D02*
X14649800Y-9462430D01*
X14692130Y-7827480D02*
X14732130Y-7867480D01*
X14732130Y-7827480D02*
X14692130Y-7867480D01*
X14852900Y-7420730D02*
X14892900Y-7460730D01*
X14892900Y-7420730D02*
X14852900Y-7460730D01*
X14944670Y-8073660D02*
X14984670Y-8113660D01*
X14984670Y-8073660D02*
X14944670Y-8113660D01*
X15040220Y-9297710D02*
X15080220Y-9337710D01*
X15080220Y-9297710D02*
X15040220Y-9337710D01*
X15067970Y-7758500D02*
X15107970Y-7798500D01*
X15107970Y-7758500D02*
X15067970Y-7798500D01*
X15185410Y-9952830D02*
X15225410Y-9992830D01*
X15225410Y-9952830D02*
X15185410Y-9992830D01*
X15186700Y-6833200D02*
X15226700Y-6873200D01*
X15226700Y-6833200D02*
X15186700Y-6873200D01*
X15196520Y-9251880D02*
X15236520Y-9291880D01*
X15236520Y-9251880D02*
X15196520Y-9291880D01*
X15347000Y-6952300D02*
X15387000Y-6992300D01*
X15387000Y-6952300D02*
X15347000Y-6992300D01*
X15676360Y-8599590D02*
X15716360Y-8639590D01*
X15716360Y-8599590D02*
X15676360Y-8639590D01*
X15791500Y-9873300D02*
X15831500Y-9913300D01*
X15831500Y-9873300D02*
X15791500Y-9913300D01*
X15843800Y-7517700D02*
X15883800Y-7557700D01*
X15883800Y-7517700D02*
X15843800Y-7557700D01*
X15875530Y-7807980D02*
X15915530Y-7847980D01*
X15915530Y-7807980D02*
X15875530Y-7847980D01*
X15905800Y-8971600D02*
X15945800Y-9011600D01*
X15945800Y-8971600D02*
X15905800Y-9011600D01*
X15987200Y-8411890D02*
X16027200Y-8451890D01*
X16027200Y-8411890D02*
X15987200Y-8451890D01*
X16022100Y-7322420D02*
X16062100Y-7362420D01*
X16062100Y-7322420D02*
X16022100Y-7362420D01*
X16032800Y-7003100D02*
X16072800Y-7043100D01*
X16072800Y-7003100D02*
X16032800Y-7043100D01*
X16062910Y-8485860D02*
X16102910Y-8525860D01*
X16102910Y-8485860D02*
X16062910Y-8525860D01*
X16437940Y-9615900D02*
X16477940Y-9655900D01*
X16477940Y-9615900D02*
X16437940Y-9655900D01*
X16441930Y-7885160D02*
X16481930Y-7925160D01*
X16481930Y-7885160D02*
X16441930Y-7925160D01*
X16511620Y-9193310D02*
X16551620Y-9233310D01*
X16551620Y-9193310D02*
X16511620Y-9233310D01*
X16629700Y-7643640D02*
X16669700Y-7683640D01*
X16669700Y-7643640D02*
X16629700Y-7683640D01*
X16756700Y-7282500D02*
X16796700Y-7322500D01*
X16796700Y-7282500D02*
X16756700Y-7322500D01*
X16883700Y-9225600D02*
X16923700Y-9265600D01*
X16923700Y-9225600D02*
X16883700Y-9265600D01*
X16985300Y-9479600D02*
X17025300Y-9519600D01*
X17025300Y-9479600D02*
X16985300Y-9519600D01*
X17213530Y-9644080D02*
X17253530Y-9684080D01*
X17253530Y-9644080D02*
X17213530Y-9684080D01*
X17252000Y-9759000D02*
X17292000Y-9799000D01*
X17292000Y-9759000D02*
X17252000Y-9799000D01*
X17468840Y-7434900D02*
X17508840Y-7474900D01*
X17508840Y-7434900D02*
X17468840Y-7474900D01*
X17534070Y-8488280D02*
X17574070Y-8528280D01*
X17574070Y-8488280D02*
X17534070Y-8528280D01*
X17548790Y-8235620D02*
X17588790Y-8275620D01*
X17588790Y-8235620D02*
X17548790Y-8275620D01*
X17736050Y-8149690D02*
X17776050Y-8189690D01*
X17776050Y-8149690D02*
X17736050Y-8189690D01*
X18025970Y-7488840D02*
X18065970Y-7528840D01*
X18065970Y-7488840D02*
X18025970Y-7528840D01*
X18077500Y-8001250D02*
X18117500Y-8041250D01*
X18117500Y-8001250D02*
X18077500Y-8041250D01*
X18255300Y-8425500D02*
X18295300Y-8465500D01*
X18295300Y-8425500D02*
X18255300Y-8465500D01*
X18255300Y-8946200D02*
X18295300Y-8986200D01*
X18295300Y-8946200D02*
X18255300Y-8986200D01*
X18456140Y-7163460D02*
X18496140Y-7203460D01*
X18496140Y-7163460D02*
X18456140Y-7203460D01*
X14908100Y-9504300D02*
G75*
G03*
X14908100Y-9504300I-20000J0D01*
G01*
X14908100Y-9639300D02*
G75*
G03*
X14908100Y-9639300I-20000J0D01*
G01*
X14993100Y-9504300D02*
G75*
G03*
X14993100Y-9504300I-20000J0D01*
G01*
X14993100Y-9639300D02*
G75*
G03*
X14993100Y-9639300I-20000J0D01*
G01*
X15078100Y-9504300D02*
G75*
G03*
X15078100Y-9504300I-20000J0D01*
G01*
X15078100Y-9639300D02*
G75*
G03*
X15078100Y-9639300I-20000J0D01*
G01*
X15163100Y-9504300D02*
G75*
G03*
X15163100Y-9504300I-20000J0D01*
G01*
X15163100Y-9639300D02*
G75*
G03*
X15163100Y-9639300I-20000J0D01*
G01*
X15248100Y-9504300D02*
G75*
G03*
X15248100Y-9504300I-20000J0D01*
G01*
X15248100Y-9639300D02*
G75*
G03*
X15248100Y-9639300I-20000J0D01*
G01*
X15333100Y-9504300D02*
G75*
G03*
X15333100Y-9504300I-20000J0D01*
G01*
X15333100Y-9639300D02*
G75*
G03*
X15333100Y-9639300I-20000J0D01*
G01*
X15418100Y-9504300D02*
G75*
G03*
X15418100Y-9504300I-20000J0D01*
G01*
X15418100Y-9639300D02*
G75*
G03*
X15418100Y-9639300I-20000J0D01*
G01*
X15503100Y-9504300D02*
G75*
G03*
X15503100Y-9504300I-20000J0D01*
G01*
X15503100Y-9639300D02*
G75*
G03*
X15503100Y-9639300I-20000J0D01*
G01*
D13*
X14753100Y-9572300D02*
X14753100Y-9632300D01*
X14723100Y-9602300D02*
X14783100Y-9602300D01*
D11*
X14723100Y-9527300D02*
X14723100Y-9677300D01*
X14723100Y-9677300D02*
G75*
G03*
X14783100Y-9677300I30000J0D01*
G01*
X14783100Y-9677300D02*
X14783100Y-9527300D01*
X14783100Y-9527300D02*
G75*
G03*
X14723100Y-9527300I-30000J0D01*
G01*
D13*
X14753100Y-9910300D02*
X14753100Y-9970300D01*
X14723100Y-9940300D02*
X14783100Y-9940300D01*
D11*
X14723100Y-9900300D02*
X14723100Y-9980300D01*
X14723100Y-9980300D02*
G75*
G03*
X14783100Y-9980300I30000J0D01*
G01*
X14783100Y-9980300D02*
X14783100Y-9900300D01*
X14783100Y-9900300D02*
G75*
G03*
X14723100Y-9900300I-30000J0D01*
G01*
D13*
X15618100Y-9572300D02*
X15618100Y-9632300D01*
X15588100Y-9602300D02*
X15648100Y-9602300D01*
D11*
X15588100Y-9527300D02*
X15588100Y-9677300D01*
X15588100Y-9677300D02*
G75*
G03*
X15648100Y-9677300I30000J0D01*
G01*
X15648100Y-9677300D02*
X15648100Y-9527300D01*
X15648100Y-9527300D02*
G75*
G03*
X15588100Y-9527300I-30000J0D01*
G01*
D13*
X15618100Y-9910300D02*
X15618100Y-9970300D01*
X15588100Y-9940300D02*
X15648100Y-9940300D01*
D11*
X15588100Y-9900300D02*
X15588100Y-9980300D01*
X15588100Y-9980300D02*
G75*
G03*
X15648100Y-9980300I30000J0D01*
G01*
X15648100Y-9980300D02*
X15648100Y-9900300D01*
X15648100Y-9900300D02*
G75*
G03*
X15588100Y-9900300I-30000J0D01*
G01*
D14*
X11956784Y-6868144D02*
X11956784Y-6811575D01*
X11900215Y-6811575D01*
X11900215Y-6868144D01*
X11956784Y-6868144D01*
X12156784Y-6868144D02*
X12156784Y-6811575D01*
X12100215Y-6811575D01*
X12100215Y-6868144D01*
X12156784Y-6868144D01*
X12296584Y-9400885D02*
X12296584Y-9344316D01*
X12240015Y-9344316D01*
X12240015Y-9400885D01*
X12296584Y-9400885D01*
X12356784Y-6868144D02*
X12356784Y-6811575D01*
X12300215Y-6811575D01*
X12300215Y-6868144D01*
X12356784Y-6868144D01*
X12496584Y-9400885D02*
X12496584Y-9344316D01*
X12440015Y-9344316D01*
X12440015Y-9400885D01*
X12496584Y-9400885D01*
X12696584Y-9400885D02*
X12696584Y-9344316D01*
X12640015Y-9344316D01*
X12640015Y-9400885D01*
X12696584Y-9400885D01*
X12896584Y-9400885D02*
X12896584Y-9344316D01*
X12840015Y-9344316D01*
X12840015Y-9400885D01*
X12896584Y-9400885D01*
X13096584Y-9400885D02*
X13096584Y-9344316D01*
X13040015Y-9344316D01*
X13040015Y-9400885D01*
X13096584Y-9400885D01*
X14001484Y-6845044D02*
X14001484Y-6788475D01*
X13944915Y-6788475D01*
X13944915Y-6845044D01*
X14001484Y-6845044D01*
X14201484Y-6845044D02*
X14201484Y-6788475D01*
X14144915Y-6788475D01*
X14144915Y-6845044D01*
X14201484Y-6845044D01*
X14401484Y-6845044D02*
X14401484Y-6788475D01*
X14344915Y-6788475D01*
X14344915Y-6845044D01*
X14401484Y-6845044D01*
X14576284Y-8918285D02*
X14576284Y-8861716D01*
X14519715Y-8861716D01*
X14519715Y-8918285D01*
X14576284Y-8918285D01*
X14776284Y-8918285D02*
X14776284Y-8861716D01*
X14719715Y-8861716D01*
X14719715Y-8918285D01*
X14776284Y-8918285D01*
X14976284Y-8918285D02*
X14976284Y-8861716D01*
X14919715Y-8861716D01*
X14919715Y-8918285D01*
X14976284Y-8918285D01*
X15176284Y-8918285D02*
X15176284Y-8861716D01*
X15119715Y-8861716D01*
X15119715Y-8918285D01*
X15176284Y-8918285D01*
X15376284Y-8918285D02*
X15376284Y-8861716D01*
X15319715Y-8861716D01*
X15319715Y-8918285D01*
X15376284Y-8918285D01*
X15576284Y-8918285D02*
X15576284Y-8861716D01*
X15519715Y-8861716D01*
X15519715Y-8918285D01*
X15576284Y-8918285D01*
X15776284Y-8918285D02*
X15776284Y-8861716D01*
X15719715Y-8861716D01*
X15719715Y-8918285D01*
X15776284Y-8918285D01*
X16058884Y-6845044D02*
X16058884Y-6788475D01*
X16002315Y-6788475D01*
X16002315Y-6845044D01*
X16058884Y-6845044D01*
X16135084Y-8918285D02*
X16135084Y-8861716D01*
X16078515Y-8861716D01*
X16078515Y-8918285D01*
X16135084Y-8918285D01*
X16258884Y-6845044D02*
X16258884Y-6788475D01*
X16202315Y-6788475D01*
X16202315Y-6845044D01*
X16258884Y-6845044D01*
X16335084Y-8918285D02*
X16335084Y-8861716D01*
X16278515Y-8861716D01*
X16278515Y-8918285D01*
X16335084Y-8918285D01*
X16458884Y-6845044D02*
X16458884Y-6788475D01*
X16402315Y-6788475D01*
X16402315Y-6845044D01*
X16458884Y-6845044D01*
X16535084Y-8918285D02*
X16535084Y-8861716D01*
X16478515Y-8861716D01*
X16478515Y-8918285D01*
X16535084Y-8918285D01*
X16735084Y-8918285D02*
X16735084Y-8861716D01*
X16678515Y-8861716D01*
X16678515Y-8918285D01*
X16735084Y-8918285D01*
X16935085Y-8918285D02*
X16935085Y-8861716D01*
X16878516Y-8861716D01*
X16878516Y-8918285D01*
X16935085Y-8918285D01*
X17135085Y-8918285D02*
X17135085Y-8861716D01*
X17078516Y-8861716D01*
X17078516Y-8918285D01*
X17135085Y-8918285D01*
X17236785Y-9273885D02*
X17236785Y-9217316D01*
X17180216Y-9217316D01*
X17180216Y-9273885D01*
X17236785Y-9273885D01*
X17335085Y-8918285D02*
X17335085Y-8861716D01*
X17278516Y-8861716D01*
X17278516Y-8918285D01*
X17335085Y-8918285D01*
X17436785Y-9273885D02*
X17436785Y-9217316D01*
X17380216Y-9217316D01*
X17380216Y-9273885D01*
X17436785Y-9273885D01*
X17535085Y-8918285D02*
X17535085Y-8861716D01*
X17478516Y-8861716D01*
X17478516Y-8918285D01*
X17535085Y-8918285D01*
X17636785Y-9273885D02*
X17636785Y-9217316D01*
X17580216Y-9217316D01*
X17580216Y-9273885D01*
X17636785Y-9273885D01*
X17735085Y-8918285D02*
X17735085Y-8861716D01*
X17678516Y-8861716D01*
X17678516Y-8918285D01*
X17735085Y-8918285D01*
X17836785Y-9273885D02*
X17836785Y-9217316D01*
X17780216Y-9217316D01*
X17780216Y-9273885D01*
X17836785Y-9273885D01*
X17935085Y-8918285D02*
X17935085Y-8861716D01*
X17878516Y-8861716D01*
X17878516Y-8918285D01*
X17935085Y-8918285D01*
X18036785Y-9273885D02*
X18036785Y-9217316D01*
X17980216Y-9217316D01*
X17980216Y-9273885D01*
X18036785Y-9273885D01*
X18103585Y-6845044D02*
X18103585Y-6788475D01*
X18047016Y-6788475D01*
X18047016Y-6845044D01*
X18103585Y-6845044D01*
X18303585Y-6845044D02*
X18303585Y-6788475D01*
X18247016Y-6788475D01*
X18247016Y-6845044D01*
X18303585Y-6845044D01*
X18503585Y-6845044D02*
X18503585Y-6788475D01*
X18447016Y-6788475D01*
X18447016Y-6845044D01*
X18503585Y-6845044D01*
D15*
X12627800Y-9841700D02*
X12677800Y-9791700D01*
X12627800Y-9741700D01*
X12577800Y-9791700D01*
X12627800Y-9841700D01*
X12877800Y-9841700D02*
X12927800Y-9791700D01*
X12877800Y-9741700D01*
X12827800Y-9791700D01*
X12877800Y-9841700D01*
X17068800Y-7428700D02*
X17118800Y-7378700D01*
X17068800Y-7328700D01*
X17018800Y-7378700D01*
X17068800Y-7428700D01*
X17068800Y-7682700D02*
X17118800Y-7632700D01*
X17068800Y-7582700D01*
X17018800Y-7632700D01*
X17068800Y-7682700D01*
X17068800Y-7936700D02*
X17118800Y-7886700D01*
X17068800Y-7836700D01*
X17018800Y-7886700D01*
X17068800Y-7936700D01*
X17068800Y-8190700D02*
X17118800Y-8140700D01*
X17068800Y-8090700D01*
X17018800Y-8140700D01*
X17068800Y-8190700D01*
X17642300Y-9770100D02*
X17692300Y-9720100D01*
X17642300Y-9670100D01*
X17592300Y-9720100D01*
X17642300Y-9770100D01*
X17892300Y-9770100D02*
X17942300Y-9720100D01*
X17892300Y-9670100D01*
X17842300Y-9720100D01*
X17892300Y-9770100D01*
X18503900Y-8495500D02*
X18553900Y-8445500D01*
X18503900Y-8395500D01*
X18453900Y-8445500D01*
X18503900Y-8495500D01*
X18503900Y-8749500D02*
X18553900Y-8699500D01*
X18503900Y-8649500D01*
X18453900Y-8699500D01*
X18503900Y-8749500D01*
X18503900Y-9003500D02*
X18553900Y-8953500D01*
X18503900Y-8903500D01*
X18453900Y-8953500D01*
X18503900Y-9003500D01*
X18503900Y-9257500D02*
X18553900Y-9207500D01*
X18503900Y-9157500D01*
X18453900Y-9207500D01*
X18503900Y-9257500D01*
D11*
X11715988Y-10423673D02*
X11715988Y-10223673D01*
X11715988Y-10223673D02*
X11763607Y-10223673D01*
X11763607Y-10223673D02*
X11792178Y-10233197D01*
X11792178Y-10233197D02*
X11811226Y-10252244D01*
X11811226Y-10252244D02*
X11820750Y-10271292D01*
X11820750Y-10271292D02*
X11830274Y-10309387D01*
X11830274Y-10309387D02*
X11830274Y-10337958D01*
X11830274Y-10337958D02*
X11820750Y-10376054D01*
X11820750Y-10376054D02*
X11811226Y-10395101D01*
X11811226Y-10395101D02*
X11792178Y-10414149D01*
X11792178Y-10414149D02*
X11763607Y-10423673D01*
X11763607Y-10423673D02*
X11715988Y-10423673D01*
X11915988Y-10423673D02*
X11915988Y-10290339D01*
X11915988Y-10328435D02*
X11925512Y-10309387D01*
X11925512Y-10309387D02*
X11935035Y-10299863D01*
X11935035Y-10299863D02*
X11954083Y-10290339D01*
X11954083Y-10290339D02*
X11973131Y-10290339D01*
X12039797Y-10423673D02*
X12039797Y-10290339D01*
X12039797Y-10223673D02*
X12030274Y-10233197D01*
X12030274Y-10233197D02*
X12039797Y-10242720D01*
X12039797Y-10242720D02*
X12049321Y-10233197D01*
X12049321Y-10233197D02*
X12039797Y-10223673D01*
X12039797Y-10223673D02*
X12039797Y-10242720D01*
X12163607Y-10423673D02*
X12144559Y-10414149D01*
X12144559Y-10414149D02*
X12135035Y-10395101D01*
X12135035Y-10395101D02*
X12135035Y-10223673D01*
X12268369Y-10423673D02*
X12249321Y-10414149D01*
X12249321Y-10414149D02*
X12239797Y-10395101D01*
X12239797Y-10395101D02*
X12239797Y-10223673D01*
X12496940Y-10423673D02*
X12496940Y-10223673D01*
X12496940Y-10223673D02*
X12563607Y-10366530D01*
X12563607Y-10366530D02*
X12630274Y-10223673D01*
X12630274Y-10223673D02*
X12630274Y-10423673D01*
X12811226Y-10423673D02*
X12811226Y-10318911D01*
X12811226Y-10318911D02*
X12801702Y-10299863D01*
X12801702Y-10299863D02*
X12782655Y-10290339D01*
X12782655Y-10290339D02*
X12744559Y-10290339D01*
X12744559Y-10290339D02*
X12725512Y-10299863D01*
X12811226Y-10414149D02*
X12792178Y-10423673D01*
X12792178Y-10423673D02*
X12744559Y-10423673D01*
X12744559Y-10423673D02*
X12725512Y-10414149D01*
X12725512Y-10414149D02*
X12715988Y-10395101D01*
X12715988Y-10395101D02*
X12715988Y-10376054D01*
X12715988Y-10376054D02*
X12725512Y-10357006D01*
X12725512Y-10357006D02*
X12744559Y-10347482D01*
X12744559Y-10347482D02*
X12792178Y-10347482D01*
X12792178Y-10347482D02*
X12811226Y-10337958D01*
X12906464Y-10290339D02*
X12906464Y-10490339D01*
X12906464Y-10299863D02*
X12925512Y-10290339D01*
X12925512Y-10290339D02*
X12963607Y-10290339D01*
X12963607Y-10290339D02*
X12982655Y-10299863D01*
X12982655Y-10299863D02*
X12992178Y-10309387D01*
X12992178Y-10309387D02*
X13001702Y-10328435D01*
X13001702Y-10328435D02*
X13001702Y-10385577D01*
X13001702Y-10385577D02*
X12992178Y-10404625D01*
X12992178Y-10404625D02*
X12982655Y-10414149D01*
X12982655Y-10414149D02*
X12963607Y-10423673D01*
X12963607Y-10423673D02*
X12925512Y-10423673D01*
X12925512Y-10423673D02*
X12906464Y-10414149D01*
X13087416Y-10404625D02*
X13096940Y-10414149D01*
X13096940Y-10414149D02*
X13087416Y-10423673D01*
X13087416Y-10423673D02*
X13077893Y-10414149D01*
X13077893Y-10414149D02*
X13087416Y-10404625D01*
X13087416Y-10404625D02*
X13087416Y-10423673D01*
X13087416Y-10299863D02*
X13096940Y-10309387D01*
X13096940Y-10309387D02*
X13087416Y-10318911D01*
X13087416Y-10318911D02*
X13077893Y-10309387D01*
X13077893Y-10309387D02*
X13087416Y-10299863D01*
X13087416Y-10299863D02*
X13087416Y-10318911D01*
D12*
X11415211Y-10732189D02*
X11455211Y-10772189D01*
X11455211Y-10732189D02*
X11415211Y-10772189D01*
D11*
X11754083Y-10643673D02*
X11773131Y-10643673D01*
X11773131Y-10643673D02*
X11792178Y-10653197D01*
X11792178Y-10653197D02*
X11801702Y-10662720D01*
X11801702Y-10662720D02*
X11811226Y-10681768D01*
X11811226Y-10681768D02*
X11820750Y-10719863D01*
X11820750Y-10719863D02*
X11820750Y-10767482D01*
X11820750Y-10767482D02*
X11811226Y-10805577D01*
X11811226Y-10805577D02*
X11801702Y-10824625D01*
X11801702Y-10824625D02*
X11792178Y-10834149D01*
X11792178Y-10834149D02*
X11773131Y-10843673D01*
X11773131Y-10843673D02*
X11754083Y-10843673D01*
X11754083Y-10843673D02*
X11735035Y-10834149D01*
X11735035Y-10834149D02*
X11725512Y-10824625D01*
X11725512Y-10824625D02*
X11715988Y-10805577D01*
X11715988Y-10805577D02*
X11706464Y-10767482D01*
X11706464Y-10767482D02*
X11706464Y-10719863D01*
X11706464Y-10719863D02*
X11715988Y-10681768D01*
X11715988Y-10681768D02*
X11725512Y-10662720D01*
X11725512Y-10662720D02*
X11735035Y-10653197D01*
X11735035Y-10653197D02*
X11754083Y-10643673D01*
X11906464Y-10824625D02*
X11915988Y-10834149D01*
X11915988Y-10834149D02*
X11906464Y-10843673D01*
X11906464Y-10843673D02*
X11896940Y-10834149D01*
X11896940Y-10834149D02*
X11906464Y-10824625D01*
X11906464Y-10824625D02*
X11906464Y-10843673D01*
X12087416Y-10710339D02*
X12087416Y-10843673D01*
X12039797Y-10634149D02*
X11992178Y-10777006D01*
X11992178Y-10777006D02*
X12115988Y-10777006D01*
X12230274Y-10643673D02*
X12249321Y-10643673D01*
X12249321Y-10643673D02*
X12268369Y-10653197D01*
X12268369Y-10653197D02*
X12277893Y-10662720D01*
X12277893Y-10662720D02*
X12287416Y-10681768D01*
X12287416Y-10681768D02*
X12296940Y-10719863D01*
X12296940Y-10719863D02*
X12296940Y-10767482D01*
X12296940Y-10767482D02*
X12287416Y-10805577D01*
X12287416Y-10805577D02*
X12277893Y-10824625D01*
X12277893Y-10824625D02*
X12268369Y-10834149D01*
X12268369Y-10834149D02*
X12249321Y-10843673D01*
X12249321Y-10843673D02*
X12230274Y-10843673D01*
X12230274Y-10843673D02*
X12211226Y-10834149D01*
X12211226Y-10834149D02*
X12201702Y-10824625D01*
X12201702Y-10824625D02*
X12192178Y-10805577D01*
X12192178Y-10805577D02*
X12182655Y-10767482D01*
X12182655Y-10767482D02*
X12182655Y-10719863D01*
X12182655Y-10719863D02*
X12192178Y-10681768D01*
X12192178Y-10681768D02*
X12201702Y-10662720D01*
X12201702Y-10662720D02*
X12211226Y-10653197D01*
X12211226Y-10653197D02*
X12230274Y-10643673D01*
X12420750Y-10643673D02*
X12439797Y-10643673D01*
X12439797Y-10643673D02*
X12458845Y-10653197D01*
X12458845Y-10653197D02*
X12468369Y-10662720D01*
X12468369Y-10662720D02*
X12477893Y-10681768D01*
X12477893Y-10681768D02*
X12487416Y-10719863D01*
X12487416Y-10719863D02*
X12487416Y-10767482D01*
X12487416Y-10767482D02*
X12477893Y-10805577D01*
X12477893Y-10805577D02*
X12468369Y-10824625D01*
X12468369Y-10824625D02*
X12458845Y-10834149D01*
X12458845Y-10834149D02*
X12439797Y-10843673D01*
X12439797Y-10843673D02*
X12420750Y-10843673D01*
X12420750Y-10843673D02*
X12401702Y-10834149D01*
X12401702Y-10834149D02*
X12392178Y-10824625D01*
X12392178Y-10824625D02*
X12382655Y-10805577D01*
X12382655Y-10805577D02*
X12373131Y-10767482D01*
X12373131Y-10767482D02*
X12373131Y-10719863D01*
X12373131Y-10719863D02*
X12382655Y-10681768D01*
X12382655Y-10681768D02*
X12392178Y-10662720D01*
X12392178Y-10662720D02*
X12401702Y-10653197D01*
X12401702Y-10653197D02*
X12420750Y-10643673D01*
X12573131Y-10843673D02*
X12573131Y-10710339D01*
X12573131Y-10729387D02*
X12582655Y-10719863D01*
X12582655Y-10719863D02*
X12601702Y-10710339D01*
X12601702Y-10710339D02*
X12630274Y-10710339D01*
X12630274Y-10710339D02*
X12649321Y-10719863D01*
X12649321Y-10719863D02*
X12658845Y-10738911D01*
X12658845Y-10738911D02*
X12658845Y-10843673D01*
X12658845Y-10738911D02*
X12668369Y-10719863D01*
X12668369Y-10719863D02*
X12687416Y-10710339D01*
X12687416Y-10710339D02*
X12715988Y-10710339D01*
X12715988Y-10710339D02*
X12735036Y-10719863D01*
X12735036Y-10719863D02*
X12744559Y-10738911D01*
X12744559Y-10738911D02*
X12744559Y-10843673D01*
X12839797Y-10843673D02*
X12839797Y-10710339D01*
X12839797Y-10729387D02*
X12849321Y-10719863D01*
X12849321Y-10719863D02*
X12868369Y-10710339D01*
X12868369Y-10710339D02*
X12896940Y-10710339D01*
X12896940Y-10710339D02*
X12915988Y-10719863D01*
X12915988Y-10719863D02*
X12925512Y-10738911D01*
X12925512Y-10738911D02*
X12925512Y-10843673D01*
X12925512Y-10738911D02*
X12935036Y-10719863D01*
X12935036Y-10719863D02*
X12954083Y-10710339D01*
X12954083Y-10710339D02*
X12982655Y-10710339D01*
X12982655Y-10710339D02*
X13001702Y-10719863D01*
X13001702Y-10719863D02*
X13011226Y-10738911D01*
X13011226Y-10738911D02*
X13011226Y-10843673D01*
X13401702Y-10634149D02*
X13230274Y-10891292D01*
X13658845Y-10643673D02*
X13677893Y-10643673D01*
X13677893Y-10643673D02*
X13696940Y-10653197D01*
X13696940Y-10653197D02*
X13706464Y-10662720D01*
X13706464Y-10662720D02*
X13715988Y-10681768D01*
X13715988Y-10681768D02*
X13725512Y-10719863D01*
X13725512Y-10719863D02*
X13725512Y-10767482D01*
X13725512Y-10767482D02*
X13715988Y-10805577D01*
X13715988Y-10805577D02*
X13706464Y-10824625D01*
X13706464Y-10824625D02*
X13696940Y-10834149D01*
X13696940Y-10834149D02*
X13677893Y-10843673D01*
X13677893Y-10843673D02*
X13658845Y-10843673D01*
X13658845Y-10843673D02*
X13639798Y-10834149D01*
X13639798Y-10834149D02*
X13630274Y-10824625D01*
X13630274Y-10824625D02*
X13620750Y-10805577D01*
X13620750Y-10805577D02*
X13611226Y-10767482D01*
X13611226Y-10767482D02*
X13611226Y-10719863D01*
X13611226Y-10719863D02*
X13620750Y-10681768D01*
X13620750Y-10681768D02*
X13630274Y-10662720D01*
X13630274Y-10662720D02*
X13639798Y-10653197D01*
X13639798Y-10653197D02*
X13658845Y-10643673D01*
X13811226Y-10824625D02*
X13820750Y-10834149D01*
X13820750Y-10834149D02*
X13811226Y-10843673D01*
X13811226Y-10843673D02*
X13801702Y-10834149D01*
X13801702Y-10834149D02*
X13811226Y-10824625D01*
X13811226Y-10824625D02*
X13811226Y-10843673D01*
X13944559Y-10643673D02*
X13963607Y-10643673D01*
X13963607Y-10643673D02*
X13982655Y-10653197D01*
X13982655Y-10653197D02*
X13992179Y-10662720D01*
X13992179Y-10662720D02*
X14001702Y-10681768D01*
X14001702Y-10681768D02*
X14011226Y-10719863D01*
X14011226Y-10719863D02*
X14011226Y-10767482D01*
X14011226Y-10767482D02*
X14001702Y-10805577D01*
X14001702Y-10805577D02*
X13992179Y-10824625D01*
X13992179Y-10824625D02*
X13982655Y-10834149D01*
X13982655Y-10834149D02*
X13963607Y-10843673D01*
X13963607Y-10843673D02*
X13944559Y-10843673D01*
X13944559Y-10843673D02*
X13925512Y-10834149D01*
X13925512Y-10834149D02*
X13915988Y-10824625D01*
X13915988Y-10824625D02*
X13906464Y-10805577D01*
X13906464Y-10805577D02*
X13896940Y-10767482D01*
X13896940Y-10767482D02*
X13896940Y-10719863D01*
X13896940Y-10719863D02*
X13906464Y-10681768D01*
X13906464Y-10681768D02*
X13915988Y-10662720D01*
X13915988Y-10662720D02*
X13925512Y-10653197D01*
X13925512Y-10653197D02*
X13944559Y-10643673D01*
X14201702Y-10843673D02*
X14087417Y-10843673D01*
X14144559Y-10843673D02*
X14144559Y-10643673D01*
X14144559Y-10643673D02*
X14125512Y-10672244D01*
X14125512Y-10672244D02*
X14106464Y-10691292D01*
X14106464Y-10691292D02*
X14087417Y-10700816D01*
X14382655Y-10643673D02*
X14287417Y-10643673D01*
X14287417Y-10643673D02*
X14277893Y-10738911D01*
X14277893Y-10738911D02*
X14287417Y-10729387D01*
X14287417Y-10729387D02*
X14306464Y-10719863D01*
X14306464Y-10719863D02*
X14354083Y-10719863D01*
X14354083Y-10719863D02*
X14373131Y-10729387D01*
X14373131Y-10729387D02*
X14382655Y-10738911D01*
X14382655Y-10738911D02*
X14392179Y-10757958D01*
X14392179Y-10757958D02*
X14392179Y-10805577D01*
X14392179Y-10805577D02*
X14382655Y-10824625D01*
X14382655Y-10824625D02*
X14373131Y-10834149D01*
X14373131Y-10834149D02*
X14354083Y-10843673D01*
X14354083Y-10843673D02*
X14306464Y-10843673D01*
X14306464Y-10843673D02*
X14287417Y-10834149D01*
X14287417Y-10834149D02*
X14277893Y-10824625D01*
X14458845Y-10643673D02*
X14592179Y-10643673D01*
X14592179Y-10643673D02*
X14506464Y-10843673D01*
X14658845Y-10643673D02*
X14658845Y-10681768D01*
X14735036Y-10643673D02*
X14735036Y-10681768D01*
X15030274Y-10919863D02*
X15020750Y-10910339D01*
X15020750Y-10910339D02*
X15001702Y-10881768D01*
X15001702Y-10881768D02*
X14992179Y-10862720D01*
X14992179Y-10862720D02*
X14982655Y-10834149D01*
X14982655Y-10834149D02*
X14973131Y-10786530D01*
X14973131Y-10786530D02*
X14973131Y-10748435D01*
X14973131Y-10748435D02*
X14982655Y-10700816D01*
X14982655Y-10700816D02*
X14992179Y-10672244D01*
X14992179Y-10672244D02*
X15001702Y-10653197D01*
X15001702Y-10653197D02*
X15020750Y-10624625D01*
X15020750Y-10624625D02*
X15030274Y-10615101D01*
X15192179Y-10643673D02*
X15154083Y-10643673D01*
X15154083Y-10643673D02*
X15135036Y-10653197D01*
X15135036Y-10653197D02*
X15125512Y-10662720D01*
X15125512Y-10662720D02*
X15106464Y-10691292D01*
X15106464Y-10691292D02*
X15096941Y-10729387D01*
X15096941Y-10729387D02*
X15096941Y-10805577D01*
X15096941Y-10805577D02*
X15106464Y-10824625D01*
X15106464Y-10824625D02*
X15115988Y-10834149D01*
X15115988Y-10834149D02*
X15135036Y-10843673D01*
X15135036Y-10843673D02*
X15173131Y-10843673D01*
X15173131Y-10843673D02*
X15192179Y-10834149D01*
X15192179Y-10834149D02*
X15201702Y-10824625D01*
X15201702Y-10824625D02*
X15211226Y-10805577D01*
X15211226Y-10805577D02*
X15211226Y-10757958D01*
X15211226Y-10757958D02*
X15201702Y-10738911D01*
X15201702Y-10738911D02*
X15192179Y-10729387D01*
X15192179Y-10729387D02*
X15173131Y-10719863D01*
X15173131Y-10719863D02*
X15135036Y-10719863D01*
X15135036Y-10719863D02*
X15115988Y-10729387D01*
X15115988Y-10729387D02*
X15106464Y-10738911D01*
X15106464Y-10738911D02*
X15096941Y-10757958D01*
X15382655Y-10643673D02*
X15344560Y-10643673D01*
X15344560Y-10643673D02*
X15325512Y-10653197D01*
X15325512Y-10653197D02*
X15315988Y-10662720D01*
X15315988Y-10662720D02*
X15296941Y-10691292D01*
X15296941Y-10691292D02*
X15287417Y-10729387D01*
X15287417Y-10729387D02*
X15287417Y-10805577D01*
X15287417Y-10805577D02*
X15296941Y-10824625D01*
X15296941Y-10824625D02*
X15306464Y-10834149D01*
X15306464Y-10834149D02*
X15325512Y-10843673D01*
X15325512Y-10843673D02*
X15363607Y-10843673D01*
X15363607Y-10843673D02*
X15382655Y-10834149D01*
X15382655Y-10834149D02*
X15392179Y-10824625D01*
X15392179Y-10824625D02*
X15401702Y-10805577D01*
X15401702Y-10805577D02*
X15401702Y-10757958D01*
X15401702Y-10757958D02*
X15392179Y-10738911D01*
X15392179Y-10738911D02*
X15382655Y-10729387D01*
X15382655Y-10729387D02*
X15363607Y-10719863D01*
X15363607Y-10719863D02*
X15325512Y-10719863D01*
X15325512Y-10719863D02*
X15306464Y-10729387D01*
X15306464Y-10729387D02*
X15296941Y-10738911D01*
X15296941Y-10738911D02*
X15287417Y-10757958D01*
X15639798Y-10843673D02*
X15639798Y-10643673D01*
X15725512Y-10843673D02*
X15725512Y-10738911D01*
X15725512Y-10738911D02*
X15715988Y-10719863D01*
X15715988Y-10719863D02*
X15696941Y-10710339D01*
X15696941Y-10710339D02*
X15668369Y-10710339D01*
X15668369Y-10710339D02*
X15649322Y-10719863D01*
X15649322Y-10719863D02*
X15639798Y-10729387D01*
X15849322Y-10843673D02*
X15830274Y-10834149D01*
X15830274Y-10834149D02*
X15820750Y-10824625D01*
X15820750Y-10824625D02*
X15811226Y-10805577D01*
X15811226Y-10805577D02*
X15811226Y-10748435D01*
X15811226Y-10748435D02*
X15820750Y-10729387D01*
X15820750Y-10729387D02*
X15830274Y-10719863D01*
X15830274Y-10719863D02*
X15849322Y-10710339D01*
X15849322Y-10710339D02*
X15877893Y-10710339D01*
X15877893Y-10710339D02*
X15896941Y-10719863D01*
X15896941Y-10719863D02*
X15906464Y-10729387D01*
X15906464Y-10729387D02*
X15915988Y-10748435D01*
X15915988Y-10748435D02*
X15915988Y-10805577D01*
X15915988Y-10805577D02*
X15906464Y-10824625D01*
X15906464Y-10824625D02*
X15896941Y-10834149D01*
X15896941Y-10834149D02*
X15877893Y-10843673D01*
X15877893Y-10843673D02*
X15849322Y-10843673D01*
X16030274Y-10843673D02*
X16011226Y-10834149D01*
X16011226Y-10834149D02*
X16001703Y-10815101D01*
X16001703Y-10815101D02*
X16001703Y-10643673D01*
X16182655Y-10834149D02*
X16163607Y-10843673D01*
X16163607Y-10843673D02*
X16125512Y-10843673D01*
X16125512Y-10843673D02*
X16106464Y-10834149D01*
X16106464Y-10834149D02*
X16096941Y-10815101D01*
X16096941Y-10815101D02*
X16096941Y-10738911D01*
X16096941Y-10738911D02*
X16106464Y-10719863D01*
X16106464Y-10719863D02*
X16125512Y-10710339D01*
X16125512Y-10710339D02*
X16163607Y-10710339D01*
X16163607Y-10710339D02*
X16182655Y-10719863D01*
X16182655Y-10719863D02*
X16192179Y-10738911D01*
X16192179Y-10738911D02*
X16192179Y-10757958D01*
X16192179Y-10757958D02*
X16096941Y-10777006D01*
X16268369Y-10834149D02*
X16287417Y-10843673D01*
X16287417Y-10843673D02*
X16325512Y-10843673D01*
X16325512Y-10843673D02*
X16344560Y-10834149D01*
X16344560Y-10834149D02*
X16354084Y-10815101D01*
X16354084Y-10815101D02*
X16354084Y-10805577D01*
X16354084Y-10805577D02*
X16344560Y-10786530D01*
X16344560Y-10786530D02*
X16325512Y-10777006D01*
X16325512Y-10777006D02*
X16296941Y-10777006D01*
X16296941Y-10777006D02*
X16277893Y-10767482D01*
X16277893Y-10767482D02*
X16268369Y-10748435D01*
X16268369Y-10748435D02*
X16268369Y-10738911D01*
X16268369Y-10738911D02*
X16277893Y-10719863D01*
X16277893Y-10719863D02*
X16296941Y-10710339D01*
X16296941Y-10710339D02*
X16325512Y-10710339D01*
X16325512Y-10710339D02*
X16344560Y-10719863D01*
X16420750Y-10919863D02*
X16430274Y-10910339D01*
X16430274Y-10910339D02*
X16449322Y-10881768D01*
X16449322Y-10881768D02*
X16458845Y-10862720D01*
X16458845Y-10862720D02*
X16468369Y-10834149D01*
X16468369Y-10834149D02*
X16477893Y-10786530D01*
X16477893Y-10786530D02*
X16477893Y-10748435D01*
X16477893Y-10748435D02*
X16468369Y-10700816D01*
X16468369Y-10700816D02*
X16458845Y-10672244D01*
X16458845Y-10672244D02*
X16449322Y-10653197D01*
X16449322Y-10653197D02*
X16430274Y-10624625D01*
X16430274Y-10624625D02*
X16420750Y-10615101D01*
D12*
X11455211Y-11016189D02*
G75*
G03*
X11455211Y-11016189I-20000J0D01*
G01*
D11*
X11754083Y-10907673D02*
X11773131Y-10907673D01*
X11773131Y-10907673D02*
X11792178Y-10917197D01*
X11792178Y-10917197D02*
X11801702Y-10926720D01*
X11801702Y-10926720D02*
X11811226Y-10945768D01*
X11811226Y-10945768D02*
X11820750Y-10983863D01*
X11820750Y-10983863D02*
X11820750Y-11031482D01*
X11820750Y-11031482D02*
X11811226Y-11069577D01*
X11811226Y-11069577D02*
X11801702Y-11088625D01*
X11801702Y-11088625D02*
X11792178Y-11098149D01*
X11792178Y-11098149D02*
X11773131Y-11107673D01*
X11773131Y-11107673D02*
X11754083Y-11107673D01*
X11754083Y-11107673D02*
X11735035Y-11098149D01*
X11735035Y-11098149D02*
X11725512Y-11088625D01*
X11725512Y-11088625D02*
X11715988Y-11069577D01*
X11715988Y-11069577D02*
X11706464Y-11031482D01*
X11706464Y-11031482D02*
X11706464Y-10983863D01*
X11706464Y-10983863D02*
X11715988Y-10945768D01*
X11715988Y-10945768D02*
X11725512Y-10926720D01*
X11725512Y-10926720D02*
X11735035Y-10917197D01*
X11735035Y-10917197D02*
X11754083Y-10907673D01*
X11906464Y-11088625D02*
X11915988Y-11098149D01*
X11915988Y-11098149D02*
X11906464Y-11107673D01*
X11906464Y-11107673D02*
X11896940Y-11098149D01*
X11896940Y-11098149D02*
X11906464Y-11088625D01*
X11906464Y-11088625D02*
X11906464Y-11107673D01*
X12087416Y-10974339D02*
X12087416Y-11107673D01*
X12039797Y-10898149D02*
X11992178Y-11041006D01*
X11992178Y-11041006D02*
X12115988Y-11041006D01*
X12230274Y-10907673D02*
X12249321Y-10907673D01*
X12249321Y-10907673D02*
X12268369Y-10917197D01*
X12268369Y-10917197D02*
X12277893Y-10926720D01*
X12277893Y-10926720D02*
X12287416Y-10945768D01*
X12287416Y-10945768D02*
X12296940Y-10983863D01*
X12296940Y-10983863D02*
X12296940Y-11031482D01*
X12296940Y-11031482D02*
X12287416Y-11069577D01*
X12287416Y-11069577D02*
X12277893Y-11088625D01*
X12277893Y-11088625D02*
X12268369Y-11098149D01*
X12268369Y-11098149D02*
X12249321Y-11107673D01*
X12249321Y-11107673D02*
X12230274Y-11107673D01*
X12230274Y-11107673D02*
X12211226Y-11098149D01*
X12211226Y-11098149D02*
X12201702Y-11088625D01*
X12201702Y-11088625D02*
X12192178Y-11069577D01*
X12192178Y-11069577D02*
X12182655Y-11031482D01*
X12182655Y-11031482D02*
X12182655Y-10983863D01*
X12182655Y-10983863D02*
X12192178Y-10945768D01*
X12192178Y-10945768D02*
X12201702Y-10926720D01*
X12201702Y-10926720D02*
X12211226Y-10917197D01*
X12211226Y-10917197D02*
X12230274Y-10907673D01*
X12420750Y-10907673D02*
X12439797Y-10907673D01*
X12439797Y-10907673D02*
X12458845Y-10917197D01*
X12458845Y-10917197D02*
X12468369Y-10926720D01*
X12468369Y-10926720D02*
X12477893Y-10945768D01*
X12477893Y-10945768D02*
X12487416Y-10983863D01*
X12487416Y-10983863D02*
X12487416Y-11031482D01*
X12487416Y-11031482D02*
X12477893Y-11069577D01*
X12477893Y-11069577D02*
X12468369Y-11088625D01*
X12468369Y-11088625D02*
X12458845Y-11098149D01*
X12458845Y-11098149D02*
X12439797Y-11107673D01*
X12439797Y-11107673D02*
X12420750Y-11107673D01*
X12420750Y-11107673D02*
X12401702Y-11098149D01*
X12401702Y-11098149D02*
X12392178Y-11088625D01*
X12392178Y-11088625D02*
X12382655Y-11069577D01*
X12382655Y-11069577D02*
X12373131Y-11031482D01*
X12373131Y-11031482D02*
X12373131Y-10983863D01*
X12373131Y-10983863D02*
X12382655Y-10945768D01*
X12382655Y-10945768D02*
X12392178Y-10926720D01*
X12392178Y-10926720D02*
X12401702Y-10917197D01*
X12401702Y-10917197D02*
X12420750Y-10907673D01*
X12573131Y-11107673D02*
X12573131Y-10974339D01*
X12573131Y-10993387D02*
X12582655Y-10983863D01*
X12582655Y-10983863D02*
X12601702Y-10974339D01*
X12601702Y-10974339D02*
X12630274Y-10974339D01*
X12630274Y-10974339D02*
X12649321Y-10983863D01*
X12649321Y-10983863D02*
X12658845Y-11002911D01*
X12658845Y-11002911D02*
X12658845Y-11107673D01*
X12658845Y-11002911D02*
X12668369Y-10983863D01*
X12668369Y-10983863D02*
X12687416Y-10974339D01*
X12687416Y-10974339D02*
X12715988Y-10974339D01*
X12715988Y-10974339D02*
X12735036Y-10983863D01*
X12735036Y-10983863D02*
X12744559Y-11002911D01*
X12744559Y-11002911D02*
X12744559Y-11107673D01*
X12839797Y-11107673D02*
X12839797Y-10974339D01*
X12839797Y-10993387D02*
X12849321Y-10983863D01*
X12849321Y-10983863D02*
X12868369Y-10974339D01*
X12868369Y-10974339D02*
X12896940Y-10974339D01*
X12896940Y-10974339D02*
X12915988Y-10983863D01*
X12915988Y-10983863D02*
X12925512Y-11002911D01*
X12925512Y-11002911D02*
X12925512Y-11107673D01*
X12925512Y-11002911D02*
X12935036Y-10983863D01*
X12935036Y-10983863D02*
X12954083Y-10974339D01*
X12954083Y-10974339D02*
X12982655Y-10974339D01*
X12982655Y-10974339D02*
X13001702Y-10983863D01*
X13001702Y-10983863D02*
X13011226Y-11002911D01*
X13011226Y-11002911D02*
X13011226Y-11107673D01*
X13401702Y-10898149D02*
X13230274Y-11155292D01*
X13658845Y-10907673D02*
X13677893Y-10907673D01*
X13677893Y-10907673D02*
X13696940Y-10917197D01*
X13696940Y-10917197D02*
X13706464Y-10926720D01*
X13706464Y-10926720D02*
X13715988Y-10945768D01*
X13715988Y-10945768D02*
X13725512Y-10983863D01*
X13725512Y-10983863D02*
X13725512Y-11031482D01*
X13725512Y-11031482D02*
X13715988Y-11069577D01*
X13715988Y-11069577D02*
X13706464Y-11088625D01*
X13706464Y-11088625D02*
X13696940Y-11098149D01*
X13696940Y-11098149D02*
X13677893Y-11107673D01*
X13677893Y-11107673D02*
X13658845Y-11107673D01*
X13658845Y-11107673D02*
X13639798Y-11098149D01*
X13639798Y-11098149D02*
X13630274Y-11088625D01*
X13630274Y-11088625D02*
X13620750Y-11069577D01*
X13620750Y-11069577D02*
X13611226Y-11031482D01*
X13611226Y-11031482D02*
X13611226Y-10983863D01*
X13611226Y-10983863D02*
X13620750Y-10945768D01*
X13620750Y-10945768D02*
X13630274Y-10926720D01*
X13630274Y-10926720D02*
X13639798Y-10917197D01*
X13639798Y-10917197D02*
X13658845Y-10907673D01*
X13811226Y-11088625D02*
X13820750Y-11098149D01*
X13820750Y-11098149D02*
X13811226Y-11107673D01*
X13811226Y-11107673D02*
X13801702Y-11098149D01*
X13801702Y-11098149D02*
X13811226Y-11088625D01*
X13811226Y-11088625D02*
X13811226Y-11107673D01*
X13944559Y-10907673D02*
X13963607Y-10907673D01*
X13963607Y-10907673D02*
X13982655Y-10917197D01*
X13982655Y-10917197D02*
X13992179Y-10926720D01*
X13992179Y-10926720D02*
X14001702Y-10945768D01*
X14001702Y-10945768D02*
X14011226Y-10983863D01*
X14011226Y-10983863D02*
X14011226Y-11031482D01*
X14011226Y-11031482D02*
X14001702Y-11069577D01*
X14001702Y-11069577D02*
X13992179Y-11088625D01*
X13992179Y-11088625D02*
X13982655Y-11098149D01*
X13982655Y-11098149D02*
X13963607Y-11107673D01*
X13963607Y-11107673D02*
X13944559Y-11107673D01*
X13944559Y-11107673D02*
X13925512Y-11098149D01*
X13925512Y-11098149D02*
X13915988Y-11088625D01*
X13915988Y-11088625D02*
X13906464Y-11069577D01*
X13906464Y-11069577D02*
X13896940Y-11031482D01*
X13896940Y-11031482D02*
X13896940Y-10983863D01*
X13896940Y-10983863D02*
X13906464Y-10945768D01*
X13906464Y-10945768D02*
X13915988Y-10926720D01*
X13915988Y-10926720D02*
X13925512Y-10917197D01*
X13925512Y-10917197D02*
X13944559Y-10907673D01*
X14201702Y-11107673D02*
X14087417Y-11107673D01*
X14144559Y-11107673D02*
X14144559Y-10907673D01*
X14144559Y-10907673D02*
X14125512Y-10936244D01*
X14125512Y-10936244D02*
X14106464Y-10955292D01*
X14106464Y-10955292D02*
X14087417Y-10964816D01*
X14382655Y-10907673D02*
X14287417Y-10907673D01*
X14287417Y-10907673D02*
X14277893Y-11002911D01*
X14277893Y-11002911D02*
X14287417Y-10993387D01*
X14287417Y-10993387D02*
X14306464Y-10983863D01*
X14306464Y-10983863D02*
X14354083Y-10983863D01*
X14354083Y-10983863D02*
X14373131Y-10993387D01*
X14373131Y-10993387D02*
X14382655Y-11002911D01*
X14382655Y-11002911D02*
X14392179Y-11021958D01*
X14392179Y-11021958D02*
X14392179Y-11069577D01*
X14392179Y-11069577D02*
X14382655Y-11088625D01*
X14382655Y-11088625D02*
X14373131Y-11098149D01*
X14373131Y-11098149D02*
X14354083Y-11107673D01*
X14354083Y-11107673D02*
X14306464Y-11107673D01*
X14306464Y-11107673D02*
X14287417Y-11098149D01*
X14287417Y-11098149D02*
X14277893Y-11088625D01*
X14458845Y-10907673D02*
X14592179Y-10907673D01*
X14592179Y-10907673D02*
X14506464Y-11107673D01*
X14658845Y-10907673D02*
X14658845Y-10945768D01*
X14735036Y-10907673D02*
X14735036Y-10945768D01*
X15030274Y-11183863D02*
X15020750Y-11174339D01*
X15020750Y-11174339D02*
X15001702Y-11145768D01*
X15001702Y-11145768D02*
X14992179Y-11126720D01*
X14992179Y-11126720D02*
X14982655Y-11098149D01*
X14982655Y-11098149D02*
X14973131Y-11050530D01*
X14973131Y-11050530D02*
X14973131Y-11012435D01*
X14973131Y-11012435D02*
X14982655Y-10964816D01*
X14982655Y-10964816D02*
X14992179Y-10936244D01*
X14992179Y-10936244D02*
X15001702Y-10917197D01*
X15001702Y-10917197D02*
X15020750Y-10888625D01*
X15020750Y-10888625D02*
X15030274Y-10879101D01*
X15211226Y-11107673D02*
X15096941Y-11107673D01*
X15154083Y-11107673D02*
X15154083Y-10907673D01*
X15154083Y-10907673D02*
X15135036Y-10936244D01*
X15135036Y-10936244D02*
X15115988Y-10955292D01*
X15115988Y-10955292D02*
X15096941Y-10964816D01*
X15382655Y-10907673D02*
X15344560Y-10907673D01*
X15344560Y-10907673D02*
X15325512Y-10917197D01*
X15325512Y-10917197D02*
X15315988Y-10926720D01*
X15315988Y-10926720D02*
X15296941Y-10955292D01*
X15296941Y-10955292D02*
X15287417Y-10993387D01*
X15287417Y-10993387D02*
X15287417Y-11069577D01*
X15287417Y-11069577D02*
X15296941Y-11088625D01*
X15296941Y-11088625D02*
X15306464Y-11098149D01*
X15306464Y-11098149D02*
X15325512Y-11107673D01*
X15325512Y-11107673D02*
X15363607Y-11107673D01*
X15363607Y-11107673D02*
X15382655Y-11098149D01*
X15382655Y-11098149D02*
X15392179Y-11088625D01*
X15392179Y-11088625D02*
X15401702Y-11069577D01*
X15401702Y-11069577D02*
X15401702Y-11021958D01*
X15401702Y-11021958D02*
X15392179Y-11002911D01*
X15392179Y-11002911D02*
X15382655Y-10993387D01*
X15382655Y-10993387D02*
X15363607Y-10983863D01*
X15363607Y-10983863D02*
X15325512Y-10983863D01*
X15325512Y-10983863D02*
X15306464Y-10993387D01*
X15306464Y-10993387D02*
X15296941Y-11002911D01*
X15296941Y-11002911D02*
X15287417Y-11021958D01*
X15639798Y-11107673D02*
X15639798Y-10907673D01*
X15725512Y-11107673D02*
X15725512Y-11002911D01*
X15725512Y-11002911D02*
X15715988Y-10983863D01*
X15715988Y-10983863D02*
X15696941Y-10974339D01*
X15696941Y-10974339D02*
X15668369Y-10974339D01*
X15668369Y-10974339D02*
X15649322Y-10983863D01*
X15649322Y-10983863D02*
X15639798Y-10993387D01*
X15849322Y-11107673D02*
X15830274Y-11098149D01*
X15830274Y-11098149D02*
X15820750Y-11088625D01*
X15820750Y-11088625D02*
X15811226Y-11069577D01*
X15811226Y-11069577D02*
X15811226Y-11012435D01*
X15811226Y-11012435D02*
X15820750Y-10993387D01*
X15820750Y-10993387D02*
X15830274Y-10983863D01*
X15830274Y-10983863D02*
X15849322Y-10974339D01*
X15849322Y-10974339D02*
X15877893Y-10974339D01*
X15877893Y-10974339D02*
X15896941Y-10983863D01*
X15896941Y-10983863D02*
X15906464Y-10993387D01*
X15906464Y-10993387D02*
X15915988Y-11012435D01*
X15915988Y-11012435D02*
X15915988Y-11069577D01*
X15915988Y-11069577D02*
X15906464Y-11088625D01*
X15906464Y-11088625D02*
X15896941Y-11098149D01*
X15896941Y-11098149D02*
X15877893Y-11107673D01*
X15877893Y-11107673D02*
X15849322Y-11107673D01*
X16030274Y-11107673D02*
X16011226Y-11098149D01*
X16011226Y-11098149D02*
X16001703Y-11079101D01*
X16001703Y-11079101D02*
X16001703Y-10907673D01*
X16182655Y-11098149D02*
X16163607Y-11107673D01*
X16163607Y-11107673D02*
X16125512Y-11107673D01*
X16125512Y-11107673D02*
X16106464Y-11098149D01*
X16106464Y-11098149D02*
X16096941Y-11079101D01*
X16096941Y-11079101D02*
X16096941Y-11002911D01*
X16096941Y-11002911D02*
X16106464Y-10983863D01*
X16106464Y-10983863D02*
X16125512Y-10974339D01*
X16125512Y-10974339D02*
X16163607Y-10974339D01*
X16163607Y-10974339D02*
X16182655Y-10983863D01*
X16182655Y-10983863D02*
X16192179Y-11002911D01*
X16192179Y-11002911D02*
X16192179Y-11021958D01*
X16192179Y-11021958D02*
X16096941Y-11041006D01*
X16268369Y-11098149D02*
X16287417Y-11107673D01*
X16287417Y-11107673D02*
X16325512Y-11107673D01*
X16325512Y-11107673D02*
X16344560Y-11098149D01*
X16344560Y-11098149D02*
X16354084Y-11079101D01*
X16354084Y-11079101D02*
X16354084Y-11069577D01*
X16354084Y-11069577D02*
X16344560Y-11050530D01*
X16344560Y-11050530D02*
X16325512Y-11041006D01*
X16325512Y-11041006D02*
X16296941Y-11041006D01*
X16296941Y-11041006D02*
X16277893Y-11031482D01*
X16277893Y-11031482D02*
X16268369Y-11012435D01*
X16268369Y-11012435D02*
X16268369Y-11002911D01*
X16268369Y-11002911D02*
X16277893Y-10983863D01*
X16277893Y-10983863D02*
X16296941Y-10974339D01*
X16296941Y-10974339D02*
X16325512Y-10974339D01*
X16325512Y-10974339D02*
X16344560Y-10983863D01*
X16420750Y-11183863D02*
X16430274Y-11174339D01*
X16430274Y-11174339D02*
X16449322Y-11145768D01*
X16449322Y-11145768D02*
X16458845Y-11126720D01*
X16458845Y-11126720D02*
X16468369Y-11098149D01*
X16468369Y-11098149D02*
X16477893Y-11050530D01*
X16477893Y-11050530D02*
X16477893Y-11012435D01*
X16477893Y-11012435D02*
X16468369Y-10964816D01*
X16468369Y-10964816D02*
X16458845Y-10936244D01*
X16458845Y-10936244D02*
X16449322Y-10917197D01*
X16449322Y-10917197D02*
X16430274Y-10888625D01*
X16430274Y-10888625D02*
X16420750Y-10879101D01*
D13*
X11425211Y-11250189D02*
X11425211Y-11310189D01*
X11395211Y-11280189D02*
X11455211Y-11280189D01*
D11*
X11754083Y-11171673D02*
X11773131Y-11171673D01*
X11773131Y-11171673D02*
X11792178Y-11181197D01*
X11792178Y-11181197D02*
X11801702Y-11190720D01*
X11801702Y-11190720D02*
X11811226Y-11209768D01*
X11811226Y-11209768D02*
X11820750Y-11247863D01*
X11820750Y-11247863D02*
X11820750Y-11295482D01*
X11820750Y-11295482D02*
X11811226Y-11333577D01*
X11811226Y-11333577D02*
X11801702Y-11352625D01*
X11801702Y-11352625D02*
X11792178Y-11362149D01*
X11792178Y-11362149D02*
X11773131Y-11371673D01*
X11773131Y-11371673D02*
X11754083Y-11371673D01*
X11754083Y-11371673D02*
X11735035Y-11362149D01*
X11735035Y-11362149D02*
X11725512Y-11352625D01*
X11725512Y-11352625D02*
X11715988Y-11333577D01*
X11715988Y-11333577D02*
X11706464Y-11295482D01*
X11706464Y-11295482D02*
X11706464Y-11247863D01*
X11706464Y-11247863D02*
X11715988Y-11209768D01*
X11715988Y-11209768D02*
X11725512Y-11190720D01*
X11725512Y-11190720D02*
X11735035Y-11181197D01*
X11735035Y-11181197D02*
X11754083Y-11171673D01*
X11906464Y-11352625D02*
X11915988Y-11362149D01*
X11915988Y-11362149D02*
X11906464Y-11371673D01*
X11906464Y-11371673D02*
X11896940Y-11362149D01*
X11896940Y-11362149D02*
X11906464Y-11352625D01*
X11906464Y-11352625D02*
X11906464Y-11371673D01*
X12087416Y-11171673D02*
X12049321Y-11171673D01*
X12049321Y-11171673D02*
X12030274Y-11181197D01*
X12030274Y-11181197D02*
X12020750Y-11190720D01*
X12020750Y-11190720D02*
X12001702Y-11219292D01*
X12001702Y-11219292D02*
X11992178Y-11257387D01*
X11992178Y-11257387D02*
X11992178Y-11333577D01*
X11992178Y-11333577D02*
X12001702Y-11352625D01*
X12001702Y-11352625D02*
X12011226Y-11362149D01*
X12011226Y-11362149D02*
X12030274Y-11371673D01*
X12030274Y-11371673D02*
X12068369Y-11371673D01*
X12068369Y-11371673D02*
X12087416Y-11362149D01*
X12087416Y-11362149D02*
X12096940Y-11352625D01*
X12096940Y-11352625D02*
X12106464Y-11333577D01*
X12106464Y-11333577D02*
X12106464Y-11285958D01*
X12106464Y-11285958D02*
X12096940Y-11266911D01*
X12096940Y-11266911D02*
X12087416Y-11257387D01*
X12087416Y-11257387D02*
X12068369Y-11247863D01*
X12068369Y-11247863D02*
X12030274Y-11247863D01*
X12030274Y-11247863D02*
X12011226Y-11257387D01*
X12011226Y-11257387D02*
X12001702Y-11266911D01*
X12001702Y-11266911D02*
X11992178Y-11285958D01*
X12230274Y-11171673D02*
X12249321Y-11171673D01*
X12249321Y-11171673D02*
X12268369Y-11181197D01*
X12268369Y-11181197D02*
X12277893Y-11190720D01*
X12277893Y-11190720D02*
X12287416Y-11209768D01*
X12287416Y-11209768D02*
X12296940Y-11247863D01*
X12296940Y-11247863D02*
X12296940Y-11295482D01*
X12296940Y-11295482D02*
X12287416Y-11333577D01*
X12287416Y-11333577D02*
X12277893Y-11352625D01*
X12277893Y-11352625D02*
X12268369Y-11362149D01*
X12268369Y-11362149D02*
X12249321Y-11371673D01*
X12249321Y-11371673D02*
X12230274Y-11371673D01*
X12230274Y-11371673D02*
X12211226Y-11362149D01*
X12211226Y-11362149D02*
X12201702Y-11352625D01*
X12201702Y-11352625D02*
X12192178Y-11333577D01*
X12192178Y-11333577D02*
X12182655Y-11295482D01*
X12182655Y-11295482D02*
X12182655Y-11247863D01*
X12182655Y-11247863D02*
X12192178Y-11209768D01*
X12192178Y-11209768D02*
X12201702Y-11190720D01*
X12201702Y-11190720D02*
X12211226Y-11181197D01*
X12211226Y-11181197D02*
X12230274Y-11171673D01*
X12420750Y-11171673D02*
X12439797Y-11171673D01*
X12439797Y-11171673D02*
X12458845Y-11181197D01*
X12458845Y-11181197D02*
X12468369Y-11190720D01*
X12468369Y-11190720D02*
X12477893Y-11209768D01*
X12477893Y-11209768D02*
X12487416Y-11247863D01*
X12487416Y-11247863D02*
X12487416Y-11295482D01*
X12487416Y-11295482D02*
X12477893Y-11333577D01*
X12477893Y-11333577D02*
X12468369Y-11352625D01*
X12468369Y-11352625D02*
X12458845Y-11362149D01*
X12458845Y-11362149D02*
X12439797Y-11371673D01*
X12439797Y-11371673D02*
X12420750Y-11371673D01*
X12420750Y-11371673D02*
X12401702Y-11362149D01*
X12401702Y-11362149D02*
X12392178Y-11352625D01*
X12392178Y-11352625D02*
X12382655Y-11333577D01*
X12382655Y-11333577D02*
X12373131Y-11295482D01*
X12373131Y-11295482D02*
X12373131Y-11247863D01*
X12373131Y-11247863D02*
X12382655Y-11209768D01*
X12382655Y-11209768D02*
X12392178Y-11190720D01*
X12392178Y-11190720D02*
X12401702Y-11181197D01*
X12401702Y-11181197D02*
X12420750Y-11171673D01*
X12573131Y-11371673D02*
X12573131Y-11238339D01*
X12573131Y-11257387D02*
X12582655Y-11247863D01*
X12582655Y-11247863D02*
X12601702Y-11238339D01*
X12601702Y-11238339D02*
X12630274Y-11238339D01*
X12630274Y-11238339D02*
X12649321Y-11247863D01*
X12649321Y-11247863D02*
X12658845Y-11266911D01*
X12658845Y-11266911D02*
X12658845Y-11371673D01*
X12658845Y-11266911D02*
X12668369Y-11247863D01*
X12668369Y-11247863D02*
X12687416Y-11238339D01*
X12687416Y-11238339D02*
X12715988Y-11238339D01*
X12715988Y-11238339D02*
X12735036Y-11247863D01*
X12735036Y-11247863D02*
X12744559Y-11266911D01*
X12744559Y-11266911D02*
X12744559Y-11371673D01*
X12839797Y-11371673D02*
X12839797Y-11238339D01*
X12839797Y-11257387D02*
X12849321Y-11247863D01*
X12849321Y-11247863D02*
X12868369Y-11238339D01*
X12868369Y-11238339D02*
X12896940Y-11238339D01*
X12896940Y-11238339D02*
X12915988Y-11247863D01*
X12915988Y-11247863D02*
X12925512Y-11266911D01*
X12925512Y-11266911D02*
X12925512Y-11371673D01*
X12925512Y-11266911D02*
X12935036Y-11247863D01*
X12935036Y-11247863D02*
X12954083Y-11238339D01*
X12954083Y-11238339D02*
X12982655Y-11238339D01*
X12982655Y-11238339D02*
X13001702Y-11247863D01*
X13001702Y-11247863D02*
X13011226Y-11266911D01*
X13011226Y-11266911D02*
X13011226Y-11371673D01*
X13401702Y-11162149D02*
X13230274Y-11419292D01*
X13658845Y-11171673D02*
X13677893Y-11171673D01*
X13677893Y-11171673D02*
X13696940Y-11181197D01*
X13696940Y-11181197D02*
X13706464Y-11190720D01*
X13706464Y-11190720D02*
X13715988Y-11209768D01*
X13715988Y-11209768D02*
X13725512Y-11247863D01*
X13725512Y-11247863D02*
X13725512Y-11295482D01*
X13725512Y-11295482D02*
X13715988Y-11333577D01*
X13715988Y-11333577D02*
X13706464Y-11352625D01*
X13706464Y-11352625D02*
X13696940Y-11362149D01*
X13696940Y-11362149D02*
X13677893Y-11371673D01*
X13677893Y-11371673D02*
X13658845Y-11371673D01*
X13658845Y-11371673D02*
X13639798Y-11362149D01*
X13639798Y-11362149D02*
X13630274Y-11352625D01*
X13630274Y-11352625D02*
X13620750Y-11333577D01*
X13620750Y-11333577D02*
X13611226Y-11295482D01*
X13611226Y-11295482D02*
X13611226Y-11247863D01*
X13611226Y-11247863D02*
X13620750Y-11209768D01*
X13620750Y-11209768D02*
X13630274Y-11190720D01*
X13630274Y-11190720D02*
X13639798Y-11181197D01*
X13639798Y-11181197D02*
X13658845Y-11171673D01*
X13811226Y-11352625D02*
X13820750Y-11362149D01*
X13820750Y-11362149D02*
X13811226Y-11371673D01*
X13811226Y-11371673D02*
X13801702Y-11362149D01*
X13801702Y-11362149D02*
X13811226Y-11352625D01*
X13811226Y-11352625D02*
X13811226Y-11371673D01*
X13944559Y-11171673D02*
X13963607Y-11171673D01*
X13963607Y-11171673D02*
X13982655Y-11181197D01*
X13982655Y-11181197D02*
X13992179Y-11190720D01*
X13992179Y-11190720D02*
X14001702Y-11209768D01*
X14001702Y-11209768D02*
X14011226Y-11247863D01*
X14011226Y-11247863D02*
X14011226Y-11295482D01*
X14011226Y-11295482D02*
X14001702Y-11333577D01*
X14001702Y-11333577D02*
X13992179Y-11352625D01*
X13992179Y-11352625D02*
X13982655Y-11362149D01*
X13982655Y-11362149D02*
X13963607Y-11371673D01*
X13963607Y-11371673D02*
X13944559Y-11371673D01*
X13944559Y-11371673D02*
X13925512Y-11362149D01*
X13925512Y-11362149D02*
X13915988Y-11352625D01*
X13915988Y-11352625D02*
X13906464Y-11333577D01*
X13906464Y-11333577D02*
X13896940Y-11295482D01*
X13896940Y-11295482D02*
X13896940Y-11247863D01*
X13896940Y-11247863D02*
X13906464Y-11209768D01*
X13906464Y-11209768D02*
X13915988Y-11190720D01*
X13915988Y-11190720D02*
X13925512Y-11181197D01*
X13925512Y-11181197D02*
X13944559Y-11171673D01*
X14087417Y-11190720D02*
X14096940Y-11181197D01*
X14096940Y-11181197D02*
X14115988Y-11171673D01*
X14115988Y-11171673D02*
X14163607Y-11171673D01*
X14163607Y-11171673D02*
X14182655Y-11181197D01*
X14182655Y-11181197D02*
X14192179Y-11190720D01*
X14192179Y-11190720D02*
X14201702Y-11209768D01*
X14201702Y-11209768D02*
X14201702Y-11228815D01*
X14201702Y-11228815D02*
X14192179Y-11257387D01*
X14192179Y-11257387D02*
X14077893Y-11371673D01*
X14077893Y-11371673D02*
X14201702Y-11371673D01*
X14268369Y-11171673D02*
X14392179Y-11171673D01*
X14392179Y-11171673D02*
X14325512Y-11247863D01*
X14325512Y-11247863D02*
X14354083Y-11247863D01*
X14354083Y-11247863D02*
X14373131Y-11257387D01*
X14373131Y-11257387D02*
X14382655Y-11266911D01*
X14382655Y-11266911D02*
X14392179Y-11285958D01*
X14392179Y-11285958D02*
X14392179Y-11333577D01*
X14392179Y-11333577D02*
X14382655Y-11352625D01*
X14382655Y-11352625D02*
X14373131Y-11362149D01*
X14373131Y-11362149D02*
X14354083Y-11371673D01*
X14354083Y-11371673D02*
X14296940Y-11371673D01*
X14296940Y-11371673D02*
X14277893Y-11362149D01*
X14277893Y-11362149D02*
X14268369Y-11352625D01*
X14563607Y-11171673D02*
X14525512Y-11171673D01*
X14525512Y-11171673D02*
X14506464Y-11181197D01*
X14506464Y-11181197D02*
X14496940Y-11190720D01*
X14496940Y-11190720D02*
X14477893Y-11219292D01*
X14477893Y-11219292D02*
X14468369Y-11257387D01*
X14468369Y-11257387D02*
X14468369Y-11333577D01*
X14468369Y-11333577D02*
X14477893Y-11352625D01*
X14477893Y-11352625D02*
X14487417Y-11362149D01*
X14487417Y-11362149D02*
X14506464Y-11371673D01*
X14506464Y-11371673D02*
X14544560Y-11371673D01*
X14544560Y-11371673D02*
X14563607Y-11362149D01*
X14563607Y-11362149D02*
X14573131Y-11352625D01*
X14573131Y-11352625D02*
X14582655Y-11333577D01*
X14582655Y-11333577D02*
X14582655Y-11285958D01*
X14582655Y-11285958D02*
X14573131Y-11266911D01*
X14573131Y-11266911D02*
X14563607Y-11257387D01*
X14563607Y-11257387D02*
X14544560Y-11247863D01*
X14544560Y-11247863D02*
X14506464Y-11247863D01*
X14506464Y-11247863D02*
X14487417Y-11257387D01*
X14487417Y-11257387D02*
X14477893Y-11266911D01*
X14477893Y-11266911D02*
X14468369Y-11285958D01*
X14658845Y-11171673D02*
X14658845Y-11209768D01*
X14735036Y-11171673D02*
X14735036Y-11209768D01*
X15030274Y-11447863D02*
X15020750Y-11438339D01*
X15020750Y-11438339D02*
X15001702Y-11409768D01*
X15001702Y-11409768D02*
X14992179Y-11390720D01*
X14992179Y-11390720D02*
X14982655Y-11362149D01*
X14982655Y-11362149D02*
X14973131Y-11314530D01*
X14973131Y-11314530D02*
X14973131Y-11276435D01*
X14973131Y-11276435D02*
X14982655Y-11228815D01*
X14982655Y-11228815D02*
X14992179Y-11200244D01*
X14992179Y-11200244D02*
X15001702Y-11181197D01*
X15001702Y-11181197D02*
X15020750Y-11152625D01*
X15020750Y-11152625D02*
X15030274Y-11143101D01*
X15144560Y-11171673D02*
X15163607Y-11171673D01*
X15163607Y-11171673D02*
X15182655Y-11181197D01*
X15182655Y-11181197D02*
X15192179Y-11190720D01*
X15192179Y-11190720D02*
X15201702Y-11209768D01*
X15201702Y-11209768D02*
X15211226Y-11247863D01*
X15211226Y-11247863D02*
X15211226Y-11295482D01*
X15211226Y-11295482D02*
X15201702Y-11333577D01*
X15201702Y-11333577D02*
X15192179Y-11352625D01*
X15192179Y-11352625D02*
X15182655Y-11362149D01*
X15182655Y-11362149D02*
X15163607Y-11371673D01*
X15163607Y-11371673D02*
X15144560Y-11371673D01*
X15144560Y-11371673D02*
X15125512Y-11362149D01*
X15125512Y-11362149D02*
X15115988Y-11352625D01*
X15115988Y-11352625D02*
X15106464Y-11333577D01*
X15106464Y-11333577D02*
X15096941Y-11295482D01*
X15096941Y-11295482D02*
X15096941Y-11247863D01*
X15096941Y-11247863D02*
X15106464Y-11209768D01*
X15106464Y-11209768D02*
X15115988Y-11190720D01*
X15115988Y-11190720D02*
X15125512Y-11181197D01*
X15125512Y-11181197D02*
X15144560Y-11171673D01*
X15449322Y-11371673D02*
X15449322Y-11171673D01*
X15535036Y-11371673D02*
X15535036Y-11266911D01*
X15535036Y-11266911D02*
X15525512Y-11247863D01*
X15525512Y-11247863D02*
X15506464Y-11238339D01*
X15506464Y-11238339D02*
X15477893Y-11238339D01*
X15477893Y-11238339D02*
X15458845Y-11247863D01*
X15458845Y-11247863D02*
X15449322Y-11257387D01*
X15658845Y-11371673D02*
X15639798Y-11362149D01*
X15639798Y-11362149D02*
X15630274Y-11352625D01*
X15630274Y-11352625D02*
X15620750Y-11333577D01*
X15620750Y-11333577D02*
X15620750Y-11276435D01*
X15620750Y-11276435D02*
X15630274Y-11257387D01*
X15630274Y-11257387D02*
X15639798Y-11247863D01*
X15639798Y-11247863D02*
X15658845Y-11238339D01*
X15658845Y-11238339D02*
X15687417Y-11238339D01*
X15687417Y-11238339D02*
X15706464Y-11247863D01*
X15706464Y-11247863D02*
X15715988Y-11257387D01*
X15715988Y-11257387D02*
X15725512Y-11276435D01*
X15725512Y-11276435D02*
X15725512Y-11333577D01*
X15725512Y-11333577D02*
X15715988Y-11352625D01*
X15715988Y-11352625D02*
X15706464Y-11362149D01*
X15706464Y-11362149D02*
X15687417Y-11371673D01*
X15687417Y-11371673D02*
X15658845Y-11371673D01*
X15839798Y-11371673D02*
X15820750Y-11362149D01*
X15820750Y-11362149D02*
X15811226Y-11343101D01*
X15811226Y-11343101D02*
X15811226Y-11171673D01*
X15992179Y-11362149D02*
X15973131Y-11371673D01*
X15973131Y-11371673D02*
X15935036Y-11371673D01*
X15935036Y-11371673D02*
X15915988Y-11362149D01*
X15915988Y-11362149D02*
X15906464Y-11343101D01*
X15906464Y-11343101D02*
X15906464Y-11266911D01*
X15906464Y-11266911D02*
X15915988Y-11247863D01*
X15915988Y-11247863D02*
X15935036Y-11238339D01*
X15935036Y-11238339D02*
X15973131Y-11238339D01*
X15973131Y-11238339D02*
X15992179Y-11247863D01*
X15992179Y-11247863D02*
X16001703Y-11266911D01*
X16001703Y-11266911D02*
X16001703Y-11285958D01*
X16001703Y-11285958D02*
X15906464Y-11305006D01*
X16077893Y-11362149D02*
X16096941Y-11371673D01*
X16096941Y-11371673D02*
X16135036Y-11371673D01*
X16135036Y-11371673D02*
X16154084Y-11362149D01*
X16154084Y-11362149D02*
X16163607Y-11343101D01*
X16163607Y-11343101D02*
X16163607Y-11333577D01*
X16163607Y-11333577D02*
X16154084Y-11314530D01*
X16154084Y-11314530D02*
X16135036Y-11305006D01*
X16135036Y-11305006D02*
X16106464Y-11305006D01*
X16106464Y-11305006D02*
X16087417Y-11295482D01*
X16087417Y-11295482D02*
X16077893Y-11276435D01*
X16077893Y-11276435D02*
X16077893Y-11266911D01*
X16077893Y-11266911D02*
X16087417Y-11247863D01*
X16087417Y-11247863D02*
X16106464Y-11238339D01*
X16106464Y-11238339D02*
X16135036Y-11238339D01*
X16135036Y-11238339D02*
X16154084Y-11247863D01*
X16401703Y-11295482D02*
X16554084Y-11295482D01*
X16477893Y-11371673D02*
X16477893Y-11219292D01*
X16887417Y-11238339D02*
X16887417Y-11371673D01*
X16839798Y-11162149D02*
X16792179Y-11305006D01*
X16792179Y-11305006D02*
X16915988Y-11305006D01*
X17135036Y-11362149D02*
X17154084Y-11371673D01*
X17154084Y-11371673D02*
X17192179Y-11371673D01*
X17192179Y-11371673D02*
X17211227Y-11362149D01*
X17211227Y-11362149D02*
X17220750Y-11343101D01*
X17220750Y-11343101D02*
X17220750Y-11333577D01*
X17220750Y-11333577D02*
X17211227Y-11314530D01*
X17211227Y-11314530D02*
X17192179Y-11305006D01*
X17192179Y-11305006D02*
X17163608Y-11305006D01*
X17163608Y-11305006D02*
X17144560Y-11295482D01*
X17144560Y-11295482D02*
X17135036Y-11276435D01*
X17135036Y-11276435D02*
X17135036Y-11266911D01*
X17135036Y-11266911D02*
X17144560Y-11247863D01*
X17144560Y-11247863D02*
X17163608Y-11238339D01*
X17163608Y-11238339D02*
X17192179Y-11238339D01*
X17192179Y-11238339D02*
X17211227Y-11247863D01*
X17335036Y-11371673D02*
X17315989Y-11362149D01*
X17315989Y-11362149D02*
X17306465Y-11343101D01*
X17306465Y-11343101D02*
X17306465Y-11171673D01*
X17439798Y-11371673D02*
X17420750Y-11362149D01*
X17420750Y-11362149D02*
X17411227Y-11352625D01*
X17411227Y-11352625D02*
X17401703Y-11333577D01*
X17401703Y-11333577D02*
X17401703Y-11276435D01*
X17401703Y-11276435D02*
X17411227Y-11257387D01*
X17411227Y-11257387D02*
X17420750Y-11247863D01*
X17420750Y-11247863D02*
X17439798Y-11238339D01*
X17439798Y-11238339D02*
X17468370Y-11238339D01*
X17468370Y-11238339D02*
X17487417Y-11247863D01*
X17487417Y-11247863D02*
X17496941Y-11257387D01*
X17496941Y-11257387D02*
X17506465Y-11276435D01*
X17506465Y-11276435D02*
X17506465Y-11333577D01*
X17506465Y-11333577D02*
X17496941Y-11352625D01*
X17496941Y-11352625D02*
X17487417Y-11362149D01*
X17487417Y-11362149D02*
X17468370Y-11371673D01*
X17468370Y-11371673D02*
X17439798Y-11371673D01*
X17563608Y-11238339D02*
X17639798Y-11238339D01*
X17592179Y-11171673D02*
X17592179Y-11343101D01*
X17592179Y-11343101D02*
X17601703Y-11362149D01*
X17601703Y-11362149D02*
X17620750Y-11371673D01*
X17620750Y-11371673D02*
X17639798Y-11371673D01*
X17696941Y-11362149D02*
X17715989Y-11371673D01*
X17715989Y-11371673D02*
X17754084Y-11371673D01*
X17754084Y-11371673D02*
X17773131Y-11362149D01*
X17773131Y-11362149D02*
X17782655Y-11343101D01*
X17782655Y-11343101D02*
X17782655Y-11333577D01*
X17782655Y-11333577D02*
X17773131Y-11314530D01*
X17773131Y-11314530D02*
X17754084Y-11305006D01*
X17754084Y-11305006D02*
X17725512Y-11305006D01*
X17725512Y-11305006D02*
X17706465Y-11295482D01*
X17706465Y-11295482D02*
X17696941Y-11276435D01*
X17696941Y-11276435D02*
X17696941Y-11266911D01*
X17696941Y-11266911D02*
X17706465Y-11247863D01*
X17706465Y-11247863D02*
X17725512Y-11238339D01*
X17725512Y-11238339D02*
X17754084Y-11238339D01*
X17754084Y-11238339D02*
X17773131Y-11247863D01*
X17849322Y-11447863D02*
X17858846Y-11438339D01*
X17858846Y-11438339D02*
X17877893Y-11409768D01*
X17877893Y-11409768D02*
X17887417Y-11390720D01*
X17887417Y-11390720D02*
X17896941Y-11362149D01*
X17896941Y-11362149D02*
X17906465Y-11314530D01*
X17906465Y-11314530D02*
X17906465Y-11276435D01*
X17906465Y-11276435D02*
X17896941Y-11228815D01*
X17896941Y-11228815D02*
X17887417Y-11200244D01*
X17887417Y-11200244D02*
X17877893Y-11181197D01*
X17877893Y-11181197D02*
X17858846Y-11152625D01*
X17858846Y-11152625D02*
X17849322Y-11143101D01*
D14*
X11443496Y-11572473D02*
X11443496Y-11515904D01*
X11386927Y-11515904D01*
X11386927Y-11572473D01*
X11443496Y-11572473D01*
D11*
X11754083Y-11435673D02*
X11773131Y-11435673D01*
X11773131Y-11435673D02*
X11792178Y-11445196D01*
X11792178Y-11445196D02*
X11801702Y-11454720D01*
X11801702Y-11454720D02*
X11811226Y-11473768D01*
X11811226Y-11473768D02*
X11820750Y-11511863D01*
X11820750Y-11511863D02*
X11820750Y-11559482D01*
X11820750Y-11559482D02*
X11811226Y-11597577D01*
X11811226Y-11597577D02*
X11801702Y-11616625D01*
X11801702Y-11616625D02*
X11792178Y-11626149D01*
X11792178Y-11626149D02*
X11773131Y-11635673D01*
X11773131Y-11635673D02*
X11754083Y-11635673D01*
X11754083Y-11635673D02*
X11735035Y-11626149D01*
X11735035Y-11626149D02*
X11725512Y-11616625D01*
X11725512Y-11616625D02*
X11715988Y-11597577D01*
X11715988Y-11597577D02*
X11706464Y-11559482D01*
X11706464Y-11559482D02*
X11706464Y-11511863D01*
X11706464Y-11511863D02*
X11715988Y-11473768D01*
X11715988Y-11473768D02*
X11725512Y-11454720D01*
X11725512Y-11454720D02*
X11735035Y-11445196D01*
X11735035Y-11445196D02*
X11754083Y-11435673D01*
X11906464Y-11616625D02*
X11915988Y-11626149D01*
X11915988Y-11626149D02*
X11906464Y-11635673D01*
X11906464Y-11635673D02*
X11896940Y-11626149D01*
X11896940Y-11626149D02*
X11906464Y-11616625D01*
X11906464Y-11616625D02*
X11906464Y-11635673D01*
X12030274Y-11521387D02*
X12011226Y-11511863D01*
X12011226Y-11511863D02*
X12001702Y-11502339D01*
X12001702Y-11502339D02*
X11992178Y-11483292D01*
X11992178Y-11483292D02*
X11992178Y-11473768D01*
X11992178Y-11473768D02*
X12001702Y-11454720D01*
X12001702Y-11454720D02*
X12011226Y-11445196D01*
X12011226Y-11445196D02*
X12030274Y-11435673D01*
X12030274Y-11435673D02*
X12068369Y-11435673D01*
X12068369Y-11435673D02*
X12087416Y-11445196D01*
X12087416Y-11445196D02*
X12096940Y-11454720D01*
X12096940Y-11454720D02*
X12106464Y-11473768D01*
X12106464Y-11473768D02*
X12106464Y-11483292D01*
X12106464Y-11483292D02*
X12096940Y-11502339D01*
X12096940Y-11502339D02*
X12087416Y-11511863D01*
X12087416Y-11511863D02*
X12068369Y-11521387D01*
X12068369Y-11521387D02*
X12030274Y-11521387D01*
X12030274Y-11521387D02*
X12011226Y-11530911D01*
X12011226Y-11530911D02*
X12001702Y-11540435D01*
X12001702Y-11540435D02*
X11992178Y-11559482D01*
X11992178Y-11559482D02*
X11992178Y-11597577D01*
X11992178Y-11597577D02*
X12001702Y-11616625D01*
X12001702Y-11616625D02*
X12011226Y-11626149D01*
X12011226Y-11626149D02*
X12030274Y-11635673D01*
X12030274Y-11635673D02*
X12068369Y-11635673D01*
X12068369Y-11635673D02*
X12087416Y-11626149D01*
X12087416Y-11626149D02*
X12096940Y-11616625D01*
X12096940Y-11616625D02*
X12106464Y-11597577D01*
X12106464Y-11597577D02*
X12106464Y-11559482D01*
X12106464Y-11559482D02*
X12096940Y-11540435D01*
X12096940Y-11540435D02*
X12087416Y-11530911D01*
X12087416Y-11530911D02*
X12068369Y-11521387D01*
X12230274Y-11435673D02*
X12249321Y-11435673D01*
X12249321Y-11435673D02*
X12268369Y-11445196D01*
X12268369Y-11445196D02*
X12277893Y-11454720D01*
X12277893Y-11454720D02*
X12287416Y-11473768D01*
X12287416Y-11473768D02*
X12296940Y-11511863D01*
X12296940Y-11511863D02*
X12296940Y-11559482D01*
X12296940Y-11559482D02*
X12287416Y-11597577D01*
X12287416Y-11597577D02*
X12277893Y-11616625D01*
X12277893Y-11616625D02*
X12268369Y-11626149D01*
X12268369Y-11626149D02*
X12249321Y-11635673D01*
X12249321Y-11635673D02*
X12230274Y-11635673D01*
X12230274Y-11635673D02*
X12211226Y-11626149D01*
X12211226Y-11626149D02*
X12201702Y-11616625D01*
X12201702Y-11616625D02*
X12192178Y-11597577D01*
X12192178Y-11597577D02*
X12182655Y-11559482D01*
X12182655Y-11559482D02*
X12182655Y-11511863D01*
X12182655Y-11511863D02*
X12192178Y-11473768D01*
X12192178Y-11473768D02*
X12201702Y-11454720D01*
X12201702Y-11454720D02*
X12211226Y-11445196D01*
X12211226Y-11445196D02*
X12230274Y-11435673D01*
X12420750Y-11435673D02*
X12439797Y-11435673D01*
X12439797Y-11435673D02*
X12458845Y-11445196D01*
X12458845Y-11445196D02*
X12468369Y-11454720D01*
X12468369Y-11454720D02*
X12477893Y-11473768D01*
X12477893Y-11473768D02*
X12487416Y-11511863D01*
X12487416Y-11511863D02*
X12487416Y-11559482D01*
X12487416Y-11559482D02*
X12477893Y-11597577D01*
X12477893Y-11597577D02*
X12468369Y-11616625D01*
X12468369Y-11616625D02*
X12458845Y-11626149D01*
X12458845Y-11626149D02*
X12439797Y-11635673D01*
X12439797Y-11635673D02*
X12420750Y-11635673D01*
X12420750Y-11635673D02*
X12401702Y-11626149D01*
X12401702Y-11626149D02*
X12392178Y-11616625D01*
X12392178Y-11616625D02*
X12382655Y-11597577D01*
X12382655Y-11597577D02*
X12373131Y-11559482D01*
X12373131Y-11559482D02*
X12373131Y-11511863D01*
X12373131Y-11511863D02*
X12382655Y-11473768D01*
X12382655Y-11473768D02*
X12392178Y-11454720D01*
X12392178Y-11454720D02*
X12401702Y-11445196D01*
X12401702Y-11445196D02*
X12420750Y-11435673D01*
X12573131Y-11635673D02*
X12573131Y-11502339D01*
X12573131Y-11521387D02*
X12582655Y-11511863D01*
X12582655Y-11511863D02*
X12601702Y-11502339D01*
X12601702Y-11502339D02*
X12630274Y-11502339D01*
X12630274Y-11502339D02*
X12649321Y-11511863D01*
X12649321Y-11511863D02*
X12658845Y-11530911D01*
X12658845Y-11530911D02*
X12658845Y-11635673D01*
X12658845Y-11530911D02*
X12668369Y-11511863D01*
X12668369Y-11511863D02*
X12687416Y-11502339D01*
X12687416Y-11502339D02*
X12715988Y-11502339D01*
X12715988Y-11502339D02*
X12735036Y-11511863D01*
X12735036Y-11511863D02*
X12744559Y-11530911D01*
X12744559Y-11530911D02*
X12744559Y-11635673D01*
X12839797Y-11635673D02*
X12839797Y-11502339D01*
X12839797Y-11521387D02*
X12849321Y-11511863D01*
X12849321Y-11511863D02*
X12868369Y-11502339D01*
X12868369Y-11502339D02*
X12896940Y-11502339D01*
X12896940Y-11502339D02*
X12915988Y-11511863D01*
X12915988Y-11511863D02*
X12925512Y-11530911D01*
X12925512Y-11530911D02*
X12925512Y-11635673D01*
X12925512Y-11530911D02*
X12935036Y-11511863D01*
X12935036Y-11511863D02*
X12954083Y-11502339D01*
X12954083Y-11502339D02*
X12982655Y-11502339D01*
X12982655Y-11502339D02*
X13001702Y-11511863D01*
X13001702Y-11511863D02*
X13011226Y-11530911D01*
X13011226Y-11530911D02*
X13011226Y-11635673D01*
X13401702Y-11426149D02*
X13230274Y-11683292D01*
X13658845Y-11435673D02*
X13677893Y-11435673D01*
X13677893Y-11435673D02*
X13696940Y-11445196D01*
X13696940Y-11445196D02*
X13706464Y-11454720D01*
X13706464Y-11454720D02*
X13715988Y-11473768D01*
X13715988Y-11473768D02*
X13725512Y-11511863D01*
X13725512Y-11511863D02*
X13725512Y-11559482D01*
X13725512Y-11559482D02*
X13715988Y-11597577D01*
X13715988Y-11597577D02*
X13706464Y-11616625D01*
X13706464Y-11616625D02*
X13696940Y-11626149D01*
X13696940Y-11626149D02*
X13677893Y-11635673D01*
X13677893Y-11635673D02*
X13658845Y-11635673D01*
X13658845Y-11635673D02*
X13639798Y-11626149D01*
X13639798Y-11626149D02*
X13630274Y-11616625D01*
X13630274Y-11616625D02*
X13620750Y-11597577D01*
X13620750Y-11597577D02*
X13611226Y-11559482D01*
X13611226Y-11559482D02*
X13611226Y-11511863D01*
X13611226Y-11511863D02*
X13620750Y-11473768D01*
X13620750Y-11473768D02*
X13630274Y-11454720D01*
X13630274Y-11454720D02*
X13639798Y-11445196D01*
X13639798Y-11445196D02*
X13658845Y-11435673D01*
X13811226Y-11616625D02*
X13820750Y-11626149D01*
X13820750Y-11626149D02*
X13811226Y-11635673D01*
X13811226Y-11635673D02*
X13801702Y-11626149D01*
X13801702Y-11626149D02*
X13811226Y-11616625D01*
X13811226Y-11616625D02*
X13811226Y-11635673D01*
X13944559Y-11435673D02*
X13963607Y-11435673D01*
X13963607Y-11435673D02*
X13982655Y-11445196D01*
X13982655Y-11445196D02*
X13992179Y-11454720D01*
X13992179Y-11454720D02*
X14001702Y-11473768D01*
X14001702Y-11473768D02*
X14011226Y-11511863D01*
X14011226Y-11511863D02*
X14011226Y-11559482D01*
X14011226Y-11559482D02*
X14001702Y-11597577D01*
X14001702Y-11597577D02*
X13992179Y-11616625D01*
X13992179Y-11616625D02*
X13982655Y-11626149D01*
X13982655Y-11626149D02*
X13963607Y-11635673D01*
X13963607Y-11635673D02*
X13944559Y-11635673D01*
X13944559Y-11635673D02*
X13925512Y-11626149D01*
X13925512Y-11626149D02*
X13915988Y-11616625D01*
X13915988Y-11616625D02*
X13906464Y-11597577D01*
X13906464Y-11597577D02*
X13896940Y-11559482D01*
X13896940Y-11559482D02*
X13896940Y-11511863D01*
X13896940Y-11511863D02*
X13906464Y-11473768D01*
X13906464Y-11473768D02*
X13915988Y-11454720D01*
X13915988Y-11454720D02*
X13925512Y-11445196D01*
X13925512Y-11445196D02*
X13944559Y-11435673D01*
X14077893Y-11435673D02*
X14201702Y-11435673D01*
X14201702Y-11435673D02*
X14135036Y-11511863D01*
X14135036Y-11511863D02*
X14163607Y-11511863D01*
X14163607Y-11511863D02*
X14182655Y-11521387D01*
X14182655Y-11521387D02*
X14192179Y-11530911D01*
X14192179Y-11530911D02*
X14201702Y-11549958D01*
X14201702Y-11549958D02*
X14201702Y-11597577D01*
X14201702Y-11597577D02*
X14192179Y-11616625D01*
X14192179Y-11616625D02*
X14182655Y-11626149D01*
X14182655Y-11626149D02*
X14163607Y-11635673D01*
X14163607Y-11635673D02*
X14106464Y-11635673D01*
X14106464Y-11635673D02*
X14087417Y-11626149D01*
X14087417Y-11626149D02*
X14077893Y-11616625D01*
X14392179Y-11635673D02*
X14277893Y-11635673D01*
X14335036Y-11635673D02*
X14335036Y-11435673D01*
X14335036Y-11435673D02*
X14315988Y-11464244D01*
X14315988Y-11464244D02*
X14296940Y-11483292D01*
X14296940Y-11483292D02*
X14277893Y-11492815D01*
X14573131Y-11435673D02*
X14477893Y-11435673D01*
X14477893Y-11435673D02*
X14468369Y-11530911D01*
X14468369Y-11530911D02*
X14477893Y-11521387D01*
X14477893Y-11521387D02*
X14496940Y-11511863D01*
X14496940Y-11511863D02*
X14544560Y-11511863D01*
X14544560Y-11511863D02*
X14563607Y-11521387D01*
X14563607Y-11521387D02*
X14573131Y-11530911D01*
X14573131Y-11530911D02*
X14582655Y-11549958D01*
X14582655Y-11549958D02*
X14582655Y-11597577D01*
X14582655Y-11597577D02*
X14573131Y-11616625D01*
X14573131Y-11616625D02*
X14563607Y-11626149D01*
X14563607Y-11626149D02*
X14544560Y-11635673D01*
X14544560Y-11635673D02*
X14496940Y-11635673D01*
X14496940Y-11635673D02*
X14477893Y-11626149D01*
X14477893Y-11626149D02*
X14468369Y-11616625D01*
X14658845Y-11435673D02*
X14658845Y-11473768D01*
X14735036Y-11435673D02*
X14735036Y-11473768D01*
X15030274Y-11711863D02*
X15020750Y-11702339D01*
X15020750Y-11702339D02*
X15001702Y-11673768D01*
X15001702Y-11673768D02*
X14992179Y-11654720D01*
X14992179Y-11654720D02*
X14982655Y-11626149D01*
X14982655Y-11626149D02*
X14973131Y-11578530D01*
X14973131Y-11578530D02*
X14973131Y-11540435D01*
X14973131Y-11540435D02*
X14982655Y-11492815D01*
X14982655Y-11492815D02*
X14992179Y-11464244D01*
X14992179Y-11464244D02*
X15001702Y-11445196D01*
X15001702Y-11445196D02*
X15020750Y-11416625D01*
X15020750Y-11416625D02*
X15030274Y-11407101D01*
X15087417Y-11435673D02*
X15211226Y-11435673D01*
X15211226Y-11435673D02*
X15144560Y-11511863D01*
X15144560Y-11511863D02*
X15173131Y-11511863D01*
X15173131Y-11511863D02*
X15192179Y-11521387D01*
X15192179Y-11521387D02*
X15201702Y-11530911D01*
X15201702Y-11530911D02*
X15211226Y-11549958D01*
X15211226Y-11549958D02*
X15211226Y-11597577D01*
X15211226Y-11597577D02*
X15201702Y-11616625D01*
X15201702Y-11616625D02*
X15192179Y-11626149D01*
X15192179Y-11626149D02*
X15173131Y-11635673D01*
X15173131Y-11635673D02*
X15115988Y-11635673D01*
X15115988Y-11635673D02*
X15096941Y-11626149D01*
X15096941Y-11626149D02*
X15087417Y-11616625D01*
X15306464Y-11635673D02*
X15344560Y-11635673D01*
X15344560Y-11635673D02*
X15363607Y-11626149D01*
X15363607Y-11626149D02*
X15373131Y-11616625D01*
X15373131Y-11616625D02*
X15392179Y-11588054D01*
X15392179Y-11588054D02*
X15401702Y-11549958D01*
X15401702Y-11549958D02*
X15401702Y-11473768D01*
X15401702Y-11473768D02*
X15392179Y-11454720D01*
X15392179Y-11454720D02*
X15382655Y-11445196D01*
X15382655Y-11445196D02*
X15363607Y-11435673D01*
X15363607Y-11435673D02*
X15325512Y-11435673D01*
X15325512Y-11435673D02*
X15306464Y-11445196D01*
X15306464Y-11445196D02*
X15296941Y-11454720D01*
X15296941Y-11454720D02*
X15287417Y-11473768D01*
X15287417Y-11473768D02*
X15287417Y-11521387D01*
X15287417Y-11521387D02*
X15296941Y-11540435D01*
X15296941Y-11540435D02*
X15306464Y-11549958D01*
X15306464Y-11549958D02*
X15325512Y-11559482D01*
X15325512Y-11559482D02*
X15363607Y-11559482D01*
X15363607Y-11559482D02*
X15382655Y-11549958D01*
X15382655Y-11549958D02*
X15392179Y-11540435D01*
X15392179Y-11540435D02*
X15401702Y-11521387D01*
X15639798Y-11635673D02*
X15639798Y-11435673D01*
X15725512Y-11635673D02*
X15725512Y-11530911D01*
X15725512Y-11530911D02*
X15715988Y-11511863D01*
X15715988Y-11511863D02*
X15696941Y-11502339D01*
X15696941Y-11502339D02*
X15668369Y-11502339D01*
X15668369Y-11502339D02*
X15649322Y-11511863D01*
X15649322Y-11511863D02*
X15639798Y-11521387D01*
X15849322Y-11635673D02*
X15830274Y-11626149D01*
X15830274Y-11626149D02*
X15820750Y-11616625D01*
X15820750Y-11616625D02*
X15811226Y-11597577D01*
X15811226Y-11597577D02*
X15811226Y-11540435D01*
X15811226Y-11540435D02*
X15820750Y-11521387D01*
X15820750Y-11521387D02*
X15830274Y-11511863D01*
X15830274Y-11511863D02*
X15849322Y-11502339D01*
X15849322Y-11502339D02*
X15877893Y-11502339D01*
X15877893Y-11502339D02*
X15896941Y-11511863D01*
X15896941Y-11511863D02*
X15906464Y-11521387D01*
X15906464Y-11521387D02*
X15915988Y-11540435D01*
X15915988Y-11540435D02*
X15915988Y-11597577D01*
X15915988Y-11597577D02*
X15906464Y-11616625D01*
X15906464Y-11616625D02*
X15896941Y-11626149D01*
X15896941Y-11626149D02*
X15877893Y-11635673D01*
X15877893Y-11635673D02*
X15849322Y-11635673D01*
X16030274Y-11635673D02*
X16011226Y-11626149D01*
X16011226Y-11626149D02*
X16001703Y-11607101D01*
X16001703Y-11607101D02*
X16001703Y-11435673D01*
X16182655Y-11626149D02*
X16163607Y-11635673D01*
X16163607Y-11635673D02*
X16125512Y-11635673D01*
X16125512Y-11635673D02*
X16106464Y-11626149D01*
X16106464Y-11626149D02*
X16096941Y-11607101D01*
X16096941Y-11607101D02*
X16096941Y-11530911D01*
X16096941Y-11530911D02*
X16106464Y-11511863D01*
X16106464Y-11511863D02*
X16125512Y-11502339D01*
X16125512Y-11502339D02*
X16163607Y-11502339D01*
X16163607Y-11502339D02*
X16182655Y-11511863D01*
X16182655Y-11511863D02*
X16192179Y-11530911D01*
X16192179Y-11530911D02*
X16192179Y-11549958D01*
X16192179Y-11549958D02*
X16096941Y-11569006D01*
X16268369Y-11626149D02*
X16287417Y-11635673D01*
X16287417Y-11635673D02*
X16325512Y-11635673D01*
X16325512Y-11635673D02*
X16344560Y-11626149D01*
X16344560Y-11626149D02*
X16354084Y-11607101D01*
X16354084Y-11607101D02*
X16354084Y-11597577D01*
X16354084Y-11597577D02*
X16344560Y-11578530D01*
X16344560Y-11578530D02*
X16325512Y-11569006D01*
X16325512Y-11569006D02*
X16296941Y-11569006D01*
X16296941Y-11569006D02*
X16277893Y-11559482D01*
X16277893Y-11559482D02*
X16268369Y-11540435D01*
X16268369Y-11540435D02*
X16268369Y-11530911D01*
X16268369Y-11530911D02*
X16277893Y-11511863D01*
X16277893Y-11511863D02*
X16296941Y-11502339D01*
X16296941Y-11502339D02*
X16325512Y-11502339D01*
X16325512Y-11502339D02*
X16344560Y-11511863D01*
X16420750Y-11711863D02*
X16430274Y-11702339D01*
X16430274Y-11702339D02*
X16449322Y-11673768D01*
X16449322Y-11673768D02*
X16458845Y-11654720D01*
X16458845Y-11654720D02*
X16468369Y-11626149D01*
X16468369Y-11626149D02*
X16477893Y-11578530D01*
X16477893Y-11578530D02*
X16477893Y-11540435D01*
X16477893Y-11540435D02*
X16468369Y-11492815D01*
X16468369Y-11492815D02*
X16458845Y-11464244D01*
X16458845Y-11464244D02*
X16449322Y-11445196D01*
X16449322Y-11445196D02*
X16430274Y-11416625D01*
X16430274Y-11416625D02*
X16420750Y-11407101D01*
D15*
X11405211Y-11858189D02*
X11455211Y-11808189D01*
X11405211Y-11758189D01*
X11355211Y-11808189D01*
X11405211Y-11858189D01*
D11*
X11820750Y-11899673D02*
X11706464Y-11899673D01*
X11763607Y-11899673D02*
X11763607Y-11699673D01*
X11763607Y-11699673D02*
X11744559Y-11728244D01*
X11744559Y-11728244D02*
X11725512Y-11747292D01*
X11725512Y-11747292D02*
X11706464Y-11756815D01*
X11906464Y-11880625D02*
X11915988Y-11890149D01*
X11915988Y-11890149D02*
X11906464Y-11899673D01*
X11906464Y-11899673D02*
X11896940Y-11890149D01*
X11896940Y-11890149D02*
X11906464Y-11880625D01*
X11906464Y-11880625D02*
X11906464Y-11899673D01*
X12039797Y-11699673D02*
X12058845Y-11699673D01*
X12058845Y-11699673D02*
X12077893Y-11709196D01*
X12077893Y-11709196D02*
X12087416Y-11718720D01*
X12087416Y-11718720D02*
X12096940Y-11737768D01*
X12096940Y-11737768D02*
X12106464Y-11775863D01*
X12106464Y-11775863D02*
X12106464Y-11823482D01*
X12106464Y-11823482D02*
X12096940Y-11861577D01*
X12096940Y-11861577D02*
X12087416Y-11880625D01*
X12087416Y-11880625D02*
X12077893Y-11890149D01*
X12077893Y-11890149D02*
X12058845Y-11899673D01*
X12058845Y-11899673D02*
X12039797Y-11899673D01*
X12039797Y-11899673D02*
X12020750Y-11890149D01*
X12020750Y-11890149D02*
X12011226Y-11880625D01*
X12011226Y-11880625D02*
X12001702Y-11861577D01*
X12001702Y-11861577D02*
X11992178Y-11823482D01*
X11992178Y-11823482D02*
X11992178Y-11775863D01*
X11992178Y-11775863D02*
X12001702Y-11737768D01*
X12001702Y-11737768D02*
X12011226Y-11718720D01*
X12011226Y-11718720D02*
X12020750Y-11709196D01*
X12020750Y-11709196D02*
X12039797Y-11699673D01*
X12230274Y-11699673D02*
X12249321Y-11699673D01*
X12249321Y-11699673D02*
X12268369Y-11709196D01*
X12268369Y-11709196D02*
X12277893Y-11718720D01*
X12277893Y-11718720D02*
X12287416Y-11737768D01*
X12287416Y-11737768D02*
X12296940Y-11775863D01*
X12296940Y-11775863D02*
X12296940Y-11823482D01*
X12296940Y-11823482D02*
X12287416Y-11861577D01*
X12287416Y-11861577D02*
X12277893Y-11880625D01*
X12277893Y-11880625D02*
X12268369Y-11890149D01*
X12268369Y-11890149D02*
X12249321Y-11899673D01*
X12249321Y-11899673D02*
X12230274Y-11899673D01*
X12230274Y-11899673D02*
X12211226Y-11890149D01*
X12211226Y-11890149D02*
X12201702Y-11880625D01*
X12201702Y-11880625D02*
X12192178Y-11861577D01*
X12192178Y-11861577D02*
X12182655Y-11823482D01*
X12182655Y-11823482D02*
X12182655Y-11775863D01*
X12182655Y-11775863D02*
X12192178Y-11737768D01*
X12192178Y-11737768D02*
X12201702Y-11718720D01*
X12201702Y-11718720D02*
X12211226Y-11709196D01*
X12211226Y-11709196D02*
X12230274Y-11699673D01*
X12420750Y-11699673D02*
X12439797Y-11699673D01*
X12439797Y-11699673D02*
X12458845Y-11709196D01*
X12458845Y-11709196D02*
X12468369Y-11718720D01*
X12468369Y-11718720D02*
X12477893Y-11737768D01*
X12477893Y-11737768D02*
X12487416Y-11775863D01*
X12487416Y-11775863D02*
X12487416Y-11823482D01*
X12487416Y-11823482D02*
X12477893Y-11861577D01*
X12477893Y-11861577D02*
X12468369Y-11880625D01*
X12468369Y-11880625D02*
X12458845Y-11890149D01*
X12458845Y-11890149D02*
X12439797Y-11899673D01*
X12439797Y-11899673D02*
X12420750Y-11899673D01*
X12420750Y-11899673D02*
X12401702Y-11890149D01*
X12401702Y-11890149D02*
X12392178Y-11880625D01*
X12392178Y-11880625D02*
X12382655Y-11861577D01*
X12382655Y-11861577D02*
X12373131Y-11823482D01*
X12373131Y-11823482D02*
X12373131Y-11775863D01*
X12373131Y-11775863D02*
X12382655Y-11737768D01*
X12382655Y-11737768D02*
X12392178Y-11718720D01*
X12392178Y-11718720D02*
X12401702Y-11709196D01*
X12401702Y-11709196D02*
X12420750Y-11699673D01*
X12573131Y-11899673D02*
X12573131Y-11766339D01*
X12573131Y-11785387D02*
X12582655Y-11775863D01*
X12582655Y-11775863D02*
X12601702Y-11766339D01*
X12601702Y-11766339D02*
X12630274Y-11766339D01*
X12630274Y-11766339D02*
X12649321Y-11775863D01*
X12649321Y-11775863D02*
X12658845Y-11794911D01*
X12658845Y-11794911D02*
X12658845Y-11899673D01*
X12658845Y-11794911D02*
X12668369Y-11775863D01*
X12668369Y-11775863D02*
X12687416Y-11766339D01*
X12687416Y-11766339D02*
X12715988Y-11766339D01*
X12715988Y-11766339D02*
X12735036Y-11775863D01*
X12735036Y-11775863D02*
X12744559Y-11794911D01*
X12744559Y-11794911D02*
X12744559Y-11899673D01*
X12839797Y-11899673D02*
X12839797Y-11766339D01*
X12839797Y-11785387D02*
X12849321Y-11775863D01*
X12849321Y-11775863D02*
X12868369Y-11766339D01*
X12868369Y-11766339D02*
X12896940Y-11766339D01*
X12896940Y-11766339D02*
X12915988Y-11775863D01*
X12915988Y-11775863D02*
X12925512Y-11794911D01*
X12925512Y-11794911D02*
X12925512Y-11899673D01*
X12925512Y-11794911D02*
X12935036Y-11775863D01*
X12935036Y-11775863D02*
X12954083Y-11766339D01*
X12954083Y-11766339D02*
X12982655Y-11766339D01*
X12982655Y-11766339D02*
X13001702Y-11775863D01*
X13001702Y-11775863D02*
X13011226Y-11794911D01*
X13011226Y-11794911D02*
X13011226Y-11899673D01*
X13401702Y-11690149D02*
X13230274Y-11947292D01*
X13658845Y-11699673D02*
X13677893Y-11699673D01*
X13677893Y-11699673D02*
X13696940Y-11709196D01*
X13696940Y-11709196D02*
X13706464Y-11718720D01*
X13706464Y-11718720D02*
X13715988Y-11737768D01*
X13715988Y-11737768D02*
X13725512Y-11775863D01*
X13725512Y-11775863D02*
X13725512Y-11823482D01*
X13725512Y-11823482D02*
X13715988Y-11861577D01*
X13715988Y-11861577D02*
X13706464Y-11880625D01*
X13706464Y-11880625D02*
X13696940Y-11890149D01*
X13696940Y-11890149D02*
X13677893Y-11899673D01*
X13677893Y-11899673D02*
X13658845Y-11899673D01*
X13658845Y-11899673D02*
X13639798Y-11890149D01*
X13639798Y-11890149D02*
X13630274Y-11880625D01*
X13630274Y-11880625D02*
X13620750Y-11861577D01*
X13620750Y-11861577D02*
X13611226Y-11823482D01*
X13611226Y-11823482D02*
X13611226Y-11775863D01*
X13611226Y-11775863D02*
X13620750Y-11737768D01*
X13620750Y-11737768D02*
X13630274Y-11718720D01*
X13630274Y-11718720D02*
X13639798Y-11709196D01*
X13639798Y-11709196D02*
X13658845Y-11699673D01*
X13811226Y-11880625D02*
X13820750Y-11890149D01*
X13820750Y-11890149D02*
X13811226Y-11899673D01*
X13811226Y-11899673D02*
X13801702Y-11890149D01*
X13801702Y-11890149D02*
X13811226Y-11880625D01*
X13811226Y-11880625D02*
X13811226Y-11899673D01*
X13944559Y-11699673D02*
X13963607Y-11699673D01*
X13963607Y-11699673D02*
X13982655Y-11709196D01*
X13982655Y-11709196D02*
X13992179Y-11718720D01*
X13992179Y-11718720D02*
X14001702Y-11737768D01*
X14001702Y-11737768D02*
X14011226Y-11775863D01*
X14011226Y-11775863D02*
X14011226Y-11823482D01*
X14011226Y-11823482D02*
X14001702Y-11861577D01*
X14001702Y-11861577D02*
X13992179Y-11880625D01*
X13992179Y-11880625D02*
X13982655Y-11890149D01*
X13982655Y-11890149D02*
X13963607Y-11899673D01*
X13963607Y-11899673D02*
X13944559Y-11899673D01*
X13944559Y-11899673D02*
X13925512Y-11890149D01*
X13925512Y-11890149D02*
X13915988Y-11880625D01*
X13915988Y-11880625D02*
X13906464Y-11861577D01*
X13906464Y-11861577D02*
X13896940Y-11823482D01*
X13896940Y-11823482D02*
X13896940Y-11775863D01*
X13896940Y-11775863D02*
X13906464Y-11737768D01*
X13906464Y-11737768D02*
X13915988Y-11718720D01*
X13915988Y-11718720D02*
X13925512Y-11709196D01*
X13925512Y-11709196D02*
X13944559Y-11699673D01*
X14077893Y-11699673D02*
X14201702Y-11699673D01*
X14201702Y-11699673D02*
X14135036Y-11775863D01*
X14135036Y-11775863D02*
X14163607Y-11775863D01*
X14163607Y-11775863D02*
X14182655Y-11785387D01*
X14182655Y-11785387D02*
X14192179Y-11794911D01*
X14192179Y-11794911D02*
X14201702Y-11813958D01*
X14201702Y-11813958D02*
X14201702Y-11861577D01*
X14201702Y-11861577D02*
X14192179Y-11880625D01*
X14192179Y-11880625D02*
X14182655Y-11890149D01*
X14182655Y-11890149D02*
X14163607Y-11899673D01*
X14163607Y-11899673D02*
X14106464Y-11899673D01*
X14106464Y-11899673D02*
X14087417Y-11890149D01*
X14087417Y-11890149D02*
X14077893Y-11880625D01*
X14296940Y-11899673D02*
X14335036Y-11899673D01*
X14335036Y-11899673D02*
X14354083Y-11890149D01*
X14354083Y-11890149D02*
X14363607Y-11880625D01*
X14363607Y-11880625D02*
X14382655Y-11852054D01*
X14382655Y-11852054D02*
X14392179Y-11813958D01*
X14392179Y-11813958D02*
X14392179Y-11737768D01*
X14392179Y-11737768D02*
X14382655Y-11718720D01*
X14382655Y-11718720D02*
X14373131Y-11709196D01*
X14373131Y-11709196D02*
X14354083Y-11699673D01*
X14354083Y-11699673D02*
X14315988Y-11699673D01*
X14315988Y-11699673D02*
X14296940Y-11709196D01*
X14296940Y-11709196D02*
X14287417Y-11718720D01*
X14287417Y-11718720D02*
X14277893Y-11737768D01*
X14277893Y-11737768D02*
X14277893Y-11785387D01*
X14277893Y-11785387D02*
X14287417Y-11804435D01*
X14287417Y-11804435D02*
X14296940Y-11813958D01*
X14296940Y-11813958D02*
X14315988Y-11823482D01*
X14315988Y-11823482D02*
X14354083Y-11823482D01*
X14354083Y-11823482D02*
X14373131Y-11813958D01*
X14373131Y-11813958D02*
X14382655Y-11804435D01*
X14382655Y-11804435D02*
X14392179Y-11785387D01*
X14563607Y-11766339D02*
X14563607Y-11899673D01*
X14515988Y-11690149D02*
X14468369Y-11833006D01*
X14468369Y-11833006D02*
X14592179Y-11833006D01*
X14658845Y-11699673D02*
X14658845Y-11737768D01*
X14735036Y-11699673D02*
X14735036Y-11737768D01*
X15030274Y-11975863D02*
X15020750Y-11966339D01*
X15020750Y-11966339D02*
X15001702Y-11937768D01*
X15001702Y-11937768D02*
X14992179Y-11918720D01*
X14992179Y-11918720D02*
X14982655Y-11890149D01*
X14982655Y-11890149D02*
X14973131Y-11842530D01*
X14973131Y-11842530D02*
X14973131Y-11804435D01*
X14973131Y-11804435D02*
X14982655Y-11756815D01*
X14982655Y-11756815D02*
X14992179Y-11728244D01*
X14992179Y-11728244D02*
X15001702Y-11709196D01*
X15001702Y-11709196D02*
X15020750Y-11680625D01*
X15020750Y-11680625D02*
X15030274Y-11671101D01*
X15211226Y-11899673D02*
X15096941Y-11899673D01*
X15154083Y-11899673D02*
X15154083Y-11699673D01*
X15154083Y-11699673D02*
X15135036Y-11728244D01*
X15135036Y-11728244D02*
X15115988Y-11747292D01*
X15115988Y-11747292D02*
X15096941Y-11756815D01*
X15287417Y-11718720D02*
X15296941Y-11709196D01*
X15296941Y-11709196D02*
X15315988Y-11699673D01*
X15315988Y-11699673D02*
X15363607Y-11699673D01*
X15363607Y-11699673D02*
X15382655Y-11709196D01*
X15382655Y-11709196D02*
X15392179Y-11718720D01*
X15392179Y-11718720D02*
X15401702Y-11737768D01*
X15401702Y-11737768D02*
X15401702Y-11756815D01*
X15401702Y-11756815D02*
X15392179Y-11785387D01*
X15392179Y-11785387D02*
X15277893Y-11899673D01*
X15277893Y-11899673D02*
X15401702Y-11899673D01*
X15639798Y-11899673D02*
X15639798Y-11699673D01*
X15725512Y-11899673D02*
X15725512Y-11794911D01*
X15725512Y-11794911D02*
X15715988Y-11775863D01*
X15715988Y-11775863D02*
X15696941Y-11766339D01*
X15696941Y-11766339D02*
X15668369Y-11766339D01*
X15668369Y-11766339D02*
X15649322Y-11775863D01*
X15649322Y-11775863D02*
X15639798Y-11785387D01*
X15849322Y-11899673D02*
X15830274Y-11890149D01*
X15830274Y-11890149D02*
X15820750Y-11880625D01*
X15820750Y-11880625D02*
X15811226Y-11861577D01*
X15811226Y-11861577D02*
X15811226Y-11804435D01*
X15811226Y-11804435D02*
X15820750Y-11785387D01*
X15820750Y-11785387D02*
X15830274Y-11775863D01*
X15830274Y-11775863D02*
X15849322Y-11766339D01*
X15849322Y-11766339D02*
X15877893Y-11766339D01*
X15877893Y-11766339D02*
X15896941Y-11775863D01*
X15896941Y-11775863D02*
X15906464Y-11785387D01*
X15906464Y-11785387D02*
X15915988Y-11804435D01*
X15915988Y-11804435D02*
X15915988Y-11861577D01*
X15915988Y-11861577D02*
X15906464Y-11880625D01*
X15906464Y-11880625D02*
X15896941Y-11890149D01*
X15896941Y-11890149D02*
X15877893Y-11899673D01*
X15877893Y-11899673D02*
X15849322Y-11899673D01*
X16030274Y-11899673D02*
X16011226Y-11890149D01*
X16011226Y-11890149D02*
X16001703Y-11871101D01*
X16001703Y-11871101D02*
X16001703Y-11699673D01*
X16182655Y-11890149D02*
X16163607Y-11899673D01*
X16163607Y-11899673D02*
X16125512Y-11899673D01*
X16125512Y-11899673D02*
X16106464Y-11890149D01*
X16106464Y-11890149D02*
X16096941Y-11871101D01*
X16096941Y-11871101D02*
X16096941Y-11794911D01*
X16096941Y-11794911D02*
X16106464Y-11775863D01*
X16106464Y-11775863D02*
X16125512Y-11766339D01*
X16125512Y-11766339D02*
X16163607Y-11766339D01*
X16163607Y-11766339D02*
X16182655Y-11775863D01*
X16182655Y-11775863D02*
X16192179Y-11794911D01*
X16192179Y-11794911D02*
X16192179Y-11813958D01*
X16192179Y-11813958D02*
X16096941Y-11833006D01*
X16268369Y-11890149D02*
X16287417Y-11899673D01*
X16287417Y-11899673D02*
X16325512Y-11899673D01*
X16325512Y-11899673D02*
X16344560Y-11890149D01*
X16344560Y-11890149D02*
X16354084Y-11871101D01*
X16354084Y-11871101D02*
X16354084Y-11861577D01*
X16354084Y-11861577D02*
X16344560Y-11842530D01*
X16344560Y-11842530D02*
X16325512Y-11833006D01*
X16325512Y-11833006D02*
X16296941Y-11833006D01*
X16296941Y-11833006D02*
X16277893Y-11823482D01*
X16277893Y-11823482D02*
X16268369Y-11804435D01*
X16268369Y-11804435D02*
X16268369Y-11794911D01*
X16268369Y-11794911D02*
X16277893Y-11775863D01*
X16277893Y-11775863D02*
X16296941Y-11766339D01*
X16296941Y-11766339D02*
X16325512Y-11766339D01*
X16325512Y-11766339D02*
X16344560Y-11775863D01*
X16420750Y-11975863D02*
X16430274Y-11966339D01*
X16430274Y-11966339D02*
X16449322Y-11937768D01*
X16449322Y-11937768D02*
X16458845Y-11918720D01*
X16458845Y-11918720D02*
X16468369Y-11890149D01*
X16468369Y-11890149D02*
X16477893Y-11842530D01*
X16477893Y-11842530D02*
X16477893Y-11804435D01*
X16477893Y-11804435D02*
X16468369Y-11756815D01*
X16468369Y-11756815D02*
X16458845Y-11728244D01*
X16458845Y-11728244D02*
X16449322Y-11709196D01*
X16449322Y-11709196D02*
X16430274Y-11680625D01*
X16430274Y-11680625D02*
X16420750Y-11671101D01*
M02*
