<?xml version="1.0" encoding="UTF-8"?>
<svg id="Layer_1" data-name="Layer 1" xmlns="http://www.w3.org/2000/svg" viewBox="0 0 612 792">
  <defs>
    <style>
      .cls-1 {
        fill: #ff7676;
      }
    </style>
  </defs>
  <g>
    <path class="cls-1" d="M380.66211,416.75781c2.80664,0,4.57617,2.03906,4.57617,4.49414,0,2.74805-2.19141,4.92773-4.86914,4.92773-2.68359,0-4.89258-2.19141-4.89258-4.875.00586-1.18945.58008-2.54883,1.44727-3.43945l1.23047.82617c-.72656.73828-1.18359,1.73438-1.18359,2.63086,0,1.72266,1.44141,3.35156,3.39844,3.35156,1.85156,0,3.375-1.4707,3.375-3.48633,0-1.62305-.99023-2.8418-2.43164-2.8418h-.0293v2.92383h-1.35938v-4.4707c.2168-.02344.47461-.04102.73828-.04102Z"/>
    <path class="cls-1" d="M375.61133,407.79883h9.63281v.07031l-6.31055,6.04102h6.1582v1.48242h-9.62109v-.07617l6.29883-6.0293h-6.1582v-1.48828Z"/>
    <path class="cls-1" d="M380.36914,398.42383c2.90039,0,4.71094,1.86914,4.71094,4.86914v2.68945h-9.44531v-2.68945c-.00586-3,1.81055-4.86914,4.73438-4.86914ZM380.36328,399.92383c-2.00391,0-3.25781,1.30078-3.25781,3.375v1.20703h6.49805v-1.22461c0-2.0625-1.24805-3.35742-3.24023-3.35742Z"/>
    <path class="cls-1" d="M398.51172,419.78711c1.55273,0,2.90625,1.39453,2.90625,3.18164,0,1.5293-1.03711,2.88867-2.33789,3.21094l-.36914-1.45312c.71484-.17578,1.24219-.9082,1.24219-1.72266,0-1.00195-.74414-1.72266-1.54688-1.72266-1.14844,0-1.875,1.16016-1.86328,2.78906l-.86719-.23438c0-1.0957-.52734-2.07422-1.41797-2.07422-.69727,0-1.18945.56836-1.18945,1.26562,0,.58594.41016,1.08984.98438,1.20117l-.31641,1.51758c-1.125-.25781-2.12109-1.32422-2.12109-2.73047,0-1.48242,1.07227-2.74219,2.53125-2.74219.95508,0,1.64062.55664,1.91602,1.23633.35156-.97852,1.1543-1.72266,2.44922-1.72266Z"/>
    <path class="cls-1" d="M391.88477,410.39453l9.63867,4.35938v.09961l-9.63867,4.3418v-1.57617l6.39258-2.8125-6.39258-2.82422v-1.58789Z"/>
    <path class="cls-1" d="M398.51172,403.4043c1.55273,0,2.90625,1.39453,2.90625,3.18164,0,1.5293-1.03711,2.88867-2.33789,3.21094l-.36914-1.45312c.71484-.17578,1.24219-.9082,1.24219-1.72266,0-1.00195-.74414-1.72266-1.54688-1.72266-1.14844,0-1.875,1.16016-1.86328,2.78906l-.86719-.23438c0-1.0957-.52734-2.07422-1.41797-2.07422-.69727,0-1.18945.56836-1.18945,1.26562,0,.58594.41016,1.08984.98438,1.20117l-.31641,1.51758c-1.125-.25781-2.12109-1.32422-2.12109-2.73047,0-1.48242,1.07227-2.74219,2.53125-2.74219.95508,0,1.64062.55664,1.91602,1.23633.35156-.97852,1.1543-1.72266,2.44922-1.72266Z"/>
    <path class="cls-1" d="M416.10352,419.10156h1.47656v7.07812h-.31641c-3.14648-3.88477-4.78125-5.4668-5.92969-5.4668-1.06641,0-1.85742.86719-1.85742,1.76953,0,1.10156.87891,1.98633,2.01562,1.98633l-.32812,1.35352c-1.77539,0-3.16992-1.4707-3.16992-3.29297,0-1.85156,1.52344-3.30469,3.26367-3.30469,1.63477,0,3.48047,1.66406,4.8457,3.80273v-3.92578Z"/>
    <path class="cls-1" d="M408.04688,415.43359h9.5332v1.48242h-7.62891l.38086,1.27734h-1.54688l-.73828-2.32617v-.43359Z"/>
    <path class="cls-1" d="M424.29688,423.41992h9.5332v1.48242h-7.62891l.38086,1.27734h-1.54688l-.73828-2.32617v-.43359Z"/>
    <path class="cls-1" d="M431,422.05469c-1.44141,0-2.39062-1.11328-2.50195-1.9043-.14648.7207-.91992,1.40625-1.86914,1.40625-1.24805,0-2.40234-1.13086-2.40234-2.72461,0-1.58789,1.13672-2.73047,2.40234-2.73047,1.00195,0,1.74023.7793,1.86914,1.40039.12891-.7207,1.04883-1.88672,2.50781-1.88672,1.59961,0,2.97656,1.3418,2.97656,3.22266,0,1.89258-1.39453,3.2168-2.98242,3.2168ZM426.73438,417.53125c-.70898,0-1.13086.58008-1.13086,1.29492s.42188,1.29492,1.11914,1.29492c.68555,0,1.11328-.60352,1.11328-1.29492,0-.65625-.38672-1.29492-1.10156-1.29492ZM430.91211,417.10352c-.87305,0-1.59375.79102-1.59375,1.72266,0,.9375.7207,1.74609,1.60547,1.74609.87891,0,1.58203-.76172,1.58203-1.72852s-.70312-1.74023-1.59375-1.74023Z"/>
    <path class="cls-1" d="M440.5459,423.41992h9.5332v1.48242h-7.62891l.38086,1.27734h-1.54688l-.73828-2.32617v-.43359Z"/>
    <path class="cls-1" d="M440.63379,415.7793h.27539l9.16992,3.78516v1.55859l-7.99805-3.24023v4.35352h-1.44727v-6.45703Z"/>
    <path class="cls-1" d="M463.51074,419.78711c1.55273,0,2.90625,1.39453,2.90625,3.18164,0,1.5293-1.03711,2.88867-2.33789,3.21094l-.36914-1.45312c.71484-.17578,1.24219-.9082,1.24219-1.72266,0-1.00195-.74414-1.72266-1.54688-1.72266-1.14844,0-1.875,1.16016-1.86328,2.78906l-.86719-.23438c0-1.0957-.52734-2.07422-1.41797-2.07422-.69727,0-1.18945.56836-1.18945,1.26562,0,.58594.41016,1.08984.98438,1.20117l-.31641,1.51758c-1.125-.25781-2.12109-1.32422-2.12109-2.73047,0-1.48242,1.07227-2.74219,2.53125-2.74219.95508,0,1.64062.55664,1.91602,1.23633.35156-.97852,1.1543-1.72266,2.44922-1.72266Z"/>
    <path class="cls-1" d="M464.30176,411.63086v1.03711h2.02734v1.47656h-2.02734v5.05078l-7.44727-3.49219.00586-1.57031,5.96484,2.83594v-2.82422h-3.03516v-1.47656h3.03516v-1.03711h1.47656Z"/>
    <path class="cls-1" d="M479.76074,419.78711c1.55273,0,2.90625,1.39453,2.90625,3.18164,0,1.5293-1.03711,2.88867-2.33789,3.21094l-.36914-1.45312c.71484-.17578,1.24219-.9082,1.24219-1.72266,0-1.00195-.74414-1.72266-1.54688-1.72266-1.14844,0-1.875,1.16016-1.86328,2.78906l-.86719-.23438c0-1.0957-.52734-2.07422-1.41797-2.07422-.69727,0-1.18945.56836-1.18945,1.26562,0,.58594.41016,1.08984.98438,1.20117l-.31641,1.51758c-1.125-.25781-2.12109-1.32422-2.12109-2.73047,0-1.48242,1.07227-2.74219,2.53125-2.74219.95508,0,1.64062.55664,1.91602,1.23633.35156-.97852,1.1543-1.72266,2.44922-1.72266Z"/>
    <path class="cls-1" d="M479.76074,412.48047c1.55273,0,2.90625,1.39453,2.90625,3.18164,0,1.5293-1.03711,2.88867-2.33789,3.21094l-.36914-1.45312c.71484-.17578,1.24219-.9082,1.24219-1.72266,0-1.00195-.74414-1.72266-1.54688-1.72266-1.14844,0-1.875,1.16016-1.86328,2.78906l-.86719-.23438c0-1.0957-.52734-2.07422-1.41797-2.07422-.69727,0-1.18945.56836-1.18945,1.26562,0,.58594.41016,1.08984.98438,1.20117l-.31641,1.51758c-1.125-.25781-2.12109-1.32422-2.12109-2.73047,0-1.48242,1.07227-2.74219,2.53125-2.74219.95508,0,1.64062.55664,1.91602,1.23633.35156-.97852,1.1543-1.72266,2.44922-1.72266Z"/>
    <path class="cls-1" d="M490.85449,419.81055v2.53125h7.97461v1.48828h-7.97461v2.53125h-1.4707v-6.55078h1.4707Z"/>
    <path class="cls-1" d="M493.9248,416.37109l-4.54102,2.83008v-1.71094l3.23438-1.98633-3.23438-1.97461v-1.71094l4.53516,2.83008,4.91016-3.03516v1.69336l-3.5625,2.20312,3.5625,2.19727v1.69922l-4.9043-3.03516Z"/>
    <path class="cls-1" d="M515.0791,420.53711l-3.65625,2.54297v1.16016h3.65625v1.48242l-9.44531.00586v-2.93555c0-1.75781,1.35352-3.19922,3.03516-3.19922,1.21875,0,2.2793.78516,2.63086,1.86914l3.7793-2.74805v1.82227ZM510.19238,422.75781c.00586-.89062-.71484-1.63477-1.55859-1.63477-.87891,0-1.5293.75586-1.5293,1.63477v1.48828h3.08789v-1.48828Z"/>
    <path class="cls-1" d="M510.1748,415.45703l-4.54102,2.83008v-1.71094l3.23438-1.98633-3.23438-1.97461v-1.71094l4.53516,2.83008,4.91016-3.03516v1.69336l-3.5625,2.20312,3.5625,2.19727v1.69922l-4.9043-3.03516Z"/>
    <path class="cls-1" d="M529.30176,418.9375v1.03711h2.02734v1.47656h-2.02734v5.05078l-7.44727-3.49219.00586-1.57031,5.96484,2.83594v-2.82422h-3.03516v-1.47656h3.03516v-1.03711h1.47656Z"/>
    <path class="cls-1" d="M529.85254,411.12695h1.47656v7.07812h-.31641c-3.14648-3.88477-4.78125-5.4668-5.92969-5.4668-1.06641,0-1.85742.86719-1.85742,1.76953,0,1.10156.87891,1.98633,2.01562,1.98633l-.32812,1.35352c-1.77539,0-3.16992-1.4707-3.16992-3.29297,0-1.85156,1.52344-3.30469,3.26367-3.30469,1.63477,0,3.48047,1.66406,4.8457,3.80273v-3.92578Z"/>
  </g>
  <g>
    <path class="cls-1" d="M469.31445,458.0957v-4.62891h1.30078v4.62891h-1.30078Z"/>
    <path class="cls-1" d="M487.10547,451.9375v2.16211h2.51953v1.37695h-2.51953v2.16797h-1.37695v-2.16797h-2.50781v-1.37695h2.50781v-2.16211h1.37695Z"/>
    <path class="cls-1" d="M502.16602,455.38281l-4.54102,2.83008v-1.71094l3.23438-1.98633-3.23438-1.97461v-1.71094l4.53516,2.83008,4.91016-3.03516v1.69336l-3.5625,2.20312,3.5625,2.19727v1.69922l-4.9043-3.03516Z"/>
    <path class="cls-1" d="M519.2832,455.2832l-5.4082,3.13477v-1.66992l3.76172-2.19727-3.76172-2.20312v-1.66992l5.4082,3.13477h4.03711v1.4707h-4.03711Z"/>
    <path class="cls-1" d="M537.91211,458.18945l-.83789-1.17188c.73828-.42188,1.16016-1.20703,1.16016-2.11523,0-1.06055-.50977-1.86328-1.23047-1.86328-.87305,0-1.40039,1.24219-1.875,2.34375-.49219,1.10742-1.06641,2.33789-2.54883,2.33789-1.54688,0-2.625-1.3418-2.625-3.04102,0-1.34766.65039-2.35547,1.6875-2.74219l.76172,1.10156c-.63867.29297-.99609.94336-.99609,1.62891,0,.86719.53906,1.55859,1.20703,1.55859.73828,0,1.00195-.87305,1.49414-2.02148.65625-1.49414,1.37695-2.6543,2.86523-2.6543,1.67578,0,2.75391,1.45312,2.75391,3.36914,0,1.55273-.72656,2.73047-1.81641,3.26953Z"/>
  </g>
  <g>
    <path class="cls-1" d="M503.88477,485.46387v-5.83398h1.63965v5.83398h-1.63965Z"/>
    <path class="cls-1" d="M526.31348,478.9541v2.72559h3.17578v1.73535h-3.17578v2.73242h-1.73535v-2.73242h-3.16113v-1.73535h3.16113v-2.72559h1.73535Z"/>
  </g>
  <g>
    <path class="cls-1" d="M118.20996,490.64355v5.83398h-1.63965v-5.83398h1.63965Z"/>
    <path class="cls-1" d="M95.78125,497.15332v-2.72559h-3.17578v-1.73535h3.17578v-2.73242h1.73535v2.73242h3.16113v1.73535h-3.16113v2.72559h-1.73535Z"/>
  </g>
  <g>
    <path class="cls-1" d="M132.53662,460.95605v4.62891h-1.30078v-4.62891h1.30078Z"/>
    <path class="cls-1" d="M114.74561,467.11426v-2.16211h-2.51953v-1.37695h2.51953v-2.16797h1.37695v2.16797h2.50781v1.37695h-2.50781v2.16211h-1.37695Z"/>
    <path class="cls-1" d="M99.68506,463.66895l4.54102-2.83008v1.71094l-3.23438,1.98633,3.23438,1.97461v1.71094l-4.53516-2.83008-4.91016,3.03516v-1.69336l3.5625-2.20312-3.5625-2.19727v-1.69922l4.9043,3.03516Z"/>
    <path class="cls-1" d="M82.56787,463.76855l5.4082-3.13477v1.66992l-3.76172,2.19727,3.76172,2.20312v1.66992l-5.4082-3.13477h-4.03711v-1.4707h4.03711Z"/>
    <path class="cls-1" d="M63.93945,460.8623l.83789,1.17188c-.73828.42188-1.16016,1.20703-1.16016,2.11523,0,1.06055.50977,1.86328,1.23047,1.86328.87305,0,1.40039-1.24219,1.875-2.34375.49219-1.10742,1.06641-2.33789,2.54883-2.33789,1.54688,0,2.625,1.3418,2.625,3.04102,0,1.34766-.65039,2.35547-1.6875,2.74219l-.76172-1.10156c.63867-.29297.99609-.94336.99609-1.62891,0-.86719-.53906-1.55859-1.20703-1.55859-.73828,0-1.00195.87305-1.49414,2.02148-.65625,1.49414-1.37695,2.6543-2.86523,2.6543-1.67578,0-2.75391-1.45312-2.75391-3.36914,0-1.55273.72656-2.73047,1.81641-3.26953Z"/>
  </g>
  <g>
    <path class="cls-1" d="M474.47228,321.52946c-1.11719,1.07812-3.06055,1.01367-4.30078-.27148-1.0625-1.10059-1.25977-2.79883-.54785-3.93359l1.27441.78906c-.39258.62305-.2627,1.51562.30273,2.10156.69531.7207,1.73242.72266,2.30957.16602.82715-.79785.54297-2.1377-.59668-3.30078l.78711-.43457c.76074.78809,1.82031,1.12598,2.46094.50879.50195-.48438.46094-1.23633-.02344-1.7373-.40625-.42188-1.05176-.49902-1.54199-.18066l-.82715-1.3125c.98926-.5957,2.44727-.51953,3.42383.49219,1.0293,1.06641,1.13281,2.71777.08203,3.73047-.6875.66406-1.56641.74023-2.2373.44141.42676.94922.36621,2.04102-.56543,2.94141Z"/>
    <path class="cls-1" d="M485.76329,323.68571l-9.96289,3.55664-.06934-.07227,3.91992-9.81738,1.09473,1.13379-2.64648,6.46289,6.56055-2.40625,1.10352,1.14258Z"/>
    <path class="cls-1" d="M485.84923,333.31657c-1.11719,1.07812-3.05957,1.01465-4.30078-.27148-1.0625-1.09961-1.25977-2.79883-.54785-3.93359l1.27441.78906c-.3916.62305-.26172,1.5166.30273,2.10254.69629.72168,1.73242.72363,2.30957.16504.82715-.79688.54395-2.13672-.59668-3.30078l.78711-.43359c.76172.78906,1.82031,1.12695,2.46094.50781.50195-.48438.46094-1.23438-.02344-1.73633-.40625-.42188-1.05078-.5-1.54199-.18066l-.82617-1.31152c.98926-.5957,2.44629-.52051,3.42285.49121,1.0293,1.06641,1.13281,2.71777.08203,3.73145-.6875.66309-1.56641.73828-2.23633.44043.42578.94824.36523,2.04102-.56641,2.94043Z"/>
  </g>
  <g>
    <path class="cls-1" d="M475.97312,341.41523c-2.01953,1.94922-4.70898,1.71094-6.41406-.05664-1.9082-1.97656-1.8457-5.06641.08203-6.92578,1.92969-1.86426,5.04102-1.82227,6.90527.10938.82129.85938,1.35254,2.23633,1.34668,3.48047l-1.45898.25977c.00977-1.03711-.35254-2.07031-.97461-2.71582-1.19727-1.23926-3.36523-1.41016-4.77344-.05078-1.33203,1.28613-1.40723,3.40137-.00781,4.85254,1.12695,1.16797,2.6875,1.35742,3.72461.35547l.02051-.01953-2.03027-2.10449.97754-.94434,3.10449,3.2168c-.13867.16797-.3125.35938-.50195.54297Z"/>
    <path class="cls-1" d="M485.82859,344.35371l-6.93164,6.68945-.04883-.05078.3457-8.72949-4.43066,4.27734-1.0293-1.06641,6.92285-6.68164.05273.05469-.3457,8.71289,4.43164-4.27734,1.0332,1.07129Z"/>
    <path class="cls-1" d="M488.91648,354.40351c-2.08789,2.01367-4.68848,1.92578-6.77148-.23242l-1.86816-1.93555,6.7959-6.55859,1.86719,1.93457c2.08789,2.15527,2.08008,4.76074-.02344,6.79199ZM487.87742,353.31953c1.44238-1.3916,1.44141-3.19824.00098-4.69043l-.83887-.86816-4.6748,4.51172.85059.88184c1.43164,1.4834,3.22949,1.54883,4.66211.16504Z"/>
  </g>
  <g>
    <path class="cls-1" d="M468.57697,358.08149l1.41699.26172c-.23828.81641.00293,1.6748.63379,2.32812.73633.76367,1.66211.98633,2.17969.48633.62891-.60645.14453-1.86621-.27832-2.98828-.41504-1.13867-.85645-2.42383.20996-3.45312,1.11328-1.07422,2.82031-.85742,4.00098.36523.93652.96973,1.16699,2.14648.69043,3.14453l-1.3125-.2627c.25586-.65527.06055-1.37012-.41602-1.86426-.60156-.62305-1.46973-.74609-1.9502-.2832-.53125.51367-.11426,1.32422.3291,2.49219.56445,1.53125.85156,2.86621-.21875,3.90039-1.20605,1.16309-2.99023.86719-4.32129-.51172-1.07812-1.11719-1.37402-2.46973-.96387-3.61523Z"/>
    <path class="cls-1" d="M475.95783,361.32563c1.91406-1.84766,5.0625-1.80078,6.90625.10938.83789.89355,1.24805,2.06934,1.24121,3.3623l-1.43652.19043c.01562-.9375-.26562-1.86133-.9082-2.52734-1.18945-1.23242-3.40332-1.36621-4.76562-.05273-1.36914,1.32324-1.27637,3.53809-.10059,4.75586.6709.69629,1.59473.96094,2.51074.98145l-.26562,1.44629c-1.14355-.0293-2.30664-.34766-3.2832-1.36035-1.85938-1.92676-1.81641-5.05371.10156-6.90527Z"/>
    <path class="cls-1" d="M484.0633,374.39008l-1.0625,1.02539-3.95508-4.09766,6.79688-6.56055,1.0293,1.06641-5.7334,5.53516,2.9248,3.03125Z"/>
  </g>
  <g>
    <path class="cls-1" d="M468.57655,378.44278l1.41699.26172c-.23828.81641.00391,1.67383.63379,2.32812.7373.7627,1.66113.98633,2.18066.48633.62695-.60742.14453-1.86719-.2793-2.98926-.41504-1.13867-.85645-2.42285.21094-3.45215,1.1123-1.07422,2.82031-.85742,4,.36523.93555.96973,1.16797,2.14648.68945,3.14453l-1.3125-.26367c.25586-.6543.06152-1.36914-.41406-1.86328-.60352-.62305-1.4707-.74707-1.95117-.2832-.53125.5127-.11523,1.32422.32812,2.49219.56641,1.53125.85352,2.86621-.21777,3.89941-1.20605,1.16406-2.99023.86719-4.32129-.51172-1.07812-1.11719-1.37305-2.46875-.96387-3.61426Z"/>
    <path class="cls-1" d="M481.516,387.45353c-2.08691,2.01465-4.68848,1.92676-6.77051-.23145l-1.86816-1.93555,6.7959-6.55859,1.86719,1.93457c2.08789,2.1543,2.0791,4.76074-.02441,6.79102ZM480.47791,386.37052c1.44141-1.3916,1.44141-3.19922,0-4.69141l-.83789-.86816-4.6748,4.5127.85059.88086c1.43164,1.48438,3.22852,1.54883,4.66211.16602Z"/>
    <path class="cls-1" d="M483.63026,394.36026l-3.10352-3.2168-1.48047.53516-1.11523-1.15625,10.01953-3.49756.06055.06348-3.85059,9.88916-1.11426-1.15625.58398-1.46094ZM484.14784,393.06534l1.50391-3.75635-3.81152,1.36572,2.30762,2.39062Z"/>
  </g>
  <g>
    <path class="cls-1" d="M253.46191,416.30078c2.80664,0,4.57617,2.03906,4.57617,4.49414,0,2.74805-2.19141,4.92773-4.86914,4.92773-2.68359,0-4.89258-2.19141-4.89258-4.875.00586-1.18945.58008-2.54883,1.44727-3.43945l1.23047.82617c-.72656.73828-1.18359,1.73438-1.18359,2.63086,0,1.72266,1.44141,3.35156,3.39844,3.35156,1.85156,0,3.375-1.4707,3.375-3.48633,0-1.62305-.99023-2.8418-2.43164-2.8418h-.0293v2.92383h-1.35938v-4.4707c.2168-.02344.47461-.04102.73828-.04102Z"/>
    <path class="cls-1" d="M248.41113,407.3418h9.63281v.07031l-6.31055,6.04102h6.1582v1.48242h-9.62109v-.07617l6.29883-6.0293h-6.1582v-1.48828Z"/>
    <path class="cls-1" d="M253.16895,397.9668c2.90039,0,4.71094,1.86914,4.71094,4.86914v2.68945h-9.44531v-2.68945c-.00586-3,1.81055-4.86914,4.73438-4.86914ZM253.16309,399.4668c-2.00391,0-3.25781,1.30078-3.25781,3.375v1.20703h6.49805v-1.22461c0-2.0625-1.24805-3.35742-3.24023-3.35742Z"/>
    <path class="cls-1" d="M271.31152,419.33008c1.55273,0,2.90625,1.39453,2.90625,3.18164,0,1.5293-1.03711,2.88867-2.33789,3.21094l-.36914-1.45312c.71484-.17578,1.24219-.9082,1.24219-1.72266,0-1.00195-.74414-1.72266-1.54688-1.72266-1.14844,0-1.875,1.16016-1.86328,2.78906l-.86719-.23438c0-1.0957-.52734-2.07422-1.41797-2.07422-.69727,0-1.18945.56836-1.18945,1.26562,0,.58594.41016,1.08984.98438,1.20117l-.31641,1.51758c-1.125-.25781-2.12109-1.32422-2.12109-2.73047,0-1.48242,1.07227-2.74219,2.53125-2.74219.95508,0,1.64062.55664,1.91602,1.23633.35156-.97852,1.1543-1.72266,2.44922-1.72266Z"/>
    <path class="cls-1" d="M264.68457,409.9375l9.63867,4.35938v.09961l-9.63867,4.3418v-1.57617l6.39258-2.8125-6.39258-2.82422v-1.58789Z"/>
    <path class="cls-1" d="M271.31152,402.94727c1.55273,0,2.90625,1.39453,2.90625,3.18164,0,1.5293-1.03711,2.88867-2.33789,3.21094l-.36914-1.45312c.71484-.17578,1.24219-.9082,1.24219-1.72266,0-1.00195-.74414-1.72266-1.54688-1.72266-1.14844,0-1.875,1.16016-1.86328,2.78906l-.86719-.23438c0-1.0957-.52734-2.07422-1.41797-2.07422-.69727,0-1.18945.56836-1.18945,1.26562,0,.58594.41016,1.08984.98438,1.20117l-.31641,1.51758c-1.125-.25781-2.12109-1.32422-2.12109-2.73047,0-1.48242,1.07227-2.74219,2.53125-2.74219.95508,0,1.64062.55664,1.91602,1.23633.35156-.97852,1.1543-1.72266,2.44922-1.72266Z"/>
    <path class="cls-1" d="M280.84668,422.96289h9.5332v1.48242h-7.62891l.38086,1.27734h-1.54688l-.73828-2.32617v-.43359Z"/>
    <path class="cls-1" d="M287.30371,414.95312c1.7168,0,3.19922,1.47656,3.19922,3.33984,0,1.8457-1.27734,3.30469-3.12891,3.30469-1.11328,0-1.55859-.45703-6.43945-3.18164l.00586-1.68164,3.5625,2.06836c-.11719-.30469-.17578-.62695-.17578-.94336,0-1.48242,1.20703-2.90625,2.97656-2.90625ZM287.25684,416.42383c-.97852,0-1.79297.83203-1.79297,1.83984,0,1.01367.81445,1.85156,1.79883,1.85156.9375,0,1.76367-.83203,1.76367-1.8457,0-1.00781-.83203-1.8457-1.76953-1.8457Z"/>
    <path class="cls-1" d="M297.09668,422.96289h9.5332v1.48242h-7.62891l.38086,1.27734h-1.54688l-.73828-2.32617v-.43359Z"/>
    <path class="cls-1" d="M303.31348,414.89453c2.00977,0,3.39844,1.55273,3.39844,3.46289,0,1.38867-.78516,2.71875-1.99219,3.24023l-.46289-1.46484c.58594-.31641.97852-1.06641.97852-1.71094,0-.94922-.66211-1.98633-1.92188-1.98633-1.10742,0-1.83398.79102-1.83398,1.94531,0,.84375.42773,1.71094,1.10742,2.06836l-.49805.83203-4.91016-.69727v-4.86914h1.47656v3.75l1.94531.29883c-.4043-.43945-.55664-.97852-.55664-1.58789,0-1.99805,1.39453-3.28125,3.26953-3.28125Z"/>
    <path class="cls-1" d="M313.34668,422.96289h9.5332v1.48242h-7.62891l.38086,1.27734h-1.54688l-.73828-2.32617v-.43359Z"/>
    <path class="cls-1" d="M320.85254,414.35547v1.03711h2.02734v1.47656h-2.02734v5.05078l-7.44727-3.49219.00586-1.57031,5.96484,2.83594v-2.82422h-3.03516v-1.47656h3.03516v-1.03711h1.47656Z"/>
    <path class="cls-1" d="M329.59668,422.96289h9.5332v1.48242h-7.62891l.38086,1.27734h-1.54688l-.73828-2.32617v-.43359Z"/>
    <path class="cls-1" d="M336.31152,415.20508c1.55273,0,2.90625,1.39453,2.90625,3.18164,0,1.5293-1.03711,2.88867-2.33789,3.21094l-.36914-1.45312c.71484-.17578,1.24219-.9082,1.24219-1.72266,0-1.00195-.74414-1.72266-1.54688-1.72266-1.14844,0-1.875,1.16016-1.86328,2.78906l-.86719-.23438c0-1.0957-.52734-2.07422-1.41797-2.07422-.69727,0-1.18945.56836-1.18945,1.26562,0,.58594.41016,1.08984.98438,1.20117l-.31641,1.51758c-1.125-.25781-2.12109-1.32422-2.12109-2.73047,0-1.48242,1.07227-2.74219,2.53125-2.74219.95508,0,1.64062.55664,1.91602,1.23633.35156-.97852,1.1543-1.72266,2.44922-1.72266Z"/>
    <path class="cls-1" d="M345.84668,422.96289h9.5332v1.48242h-7.62891l.38086,1.27734h-1.54688l-.73828-2.32617v-.43359Z"/>
    <path class="cls-1" d="M353.90332,414.51953h1.47656v7.07812h-.31641c-3.14648-3.88477-4.78125-5.4668-5.92969-5.4668-1.06641,0-1.85742.86719-1.85742,1.76953,0,1.10156.87891,1.98633,2.01562,1.98633l-.32812,1.35352c-1.77539,0-3.16992-1.4707-3.16992-3.29297,0-1.85156,1.52344-3.30469,3.26367-3.30469,1.63477,0,3.48047,1.66406,4.8457,3.80273v-3.92578Z"/>
  </g>
  <g>
    <path class="cls-1" d="M398.26172,495.43945h-9.65039v-1.48242h5.23828l-5.08008-3.13477v-.01172l5.08594-3.14062h-5.24414v-1.48242h9.65039v.11133l-6.86719,4.51758,6.86719,4.51172v.11133Z"/>
    <path class="cls-1" d="M396.59766,498.73828h-2.41992v3.57422h-1.47656v-3.57422h-2.61328v4.14258h-1.47656v-5.625h9.44531v5.625h-1.45898v-4.14258Z"/>
    <path class="cls-1" d="M398.08008,512.01562h-9.63281v-.07031l6.31055-6.04102h-6.1582v-1.48242h9.62109v.07617l-6.29883,6.0293h6.1582v1.48828Z"/>
    <path class="cls-1" d="M392.19141,513.74414h5.86523v1.48828h-5.85938c-1.30664,0-2.26172.91992-2.26172,2.07422s.95508,2.08594,2.26172,2.08594h5.85938v1.49414h-5.86523c-2.16797,0-3.75586-1.56445-3.75586-3.57422s1.58789-3.56836,3.75586-3.56836Z"/>
  </g>
  <g>
    <path class="cls-1" d="M244.08594,459.52832c0-3.59375,2.92188-6.53125,6.50781-6.53125,3.57812,0,6.51562,2.9375,6.51562,6.53125,0,3.5625-2.9375,6.48438-6.52344,6.48438-3.57812,0-6.5-2.92188-6.5-6.48438ZM255.10938,459.5127c0-2.49219-2.03906-4.52344-4.52344-4.52344s-4.50781,2.03125-4.50781,4.52344c0,2.47656,2.02344,4.5,4.50781,4.5s4.52344-2.02344,4.52344-4.5Z"/>
    <path class="cls-1" d="M258.92188,453.21582h4.21094c2.4375,0,4.42969,1.86719,4.42969,4.15625,0,2.24219-1.99219,4.07031-4.42969,4.07031h-2.23438v4.36719h-1.97656v-12.59375ZM265.58594,457.35645c0-1.20312-1.10156-2.17969-2.45312-2.17969h-2.23438v4.30469l2.23438.00781c1.35156.00781,2.45312-.95312,2.45312-2.13281Z"/>
    <path class="cls-1" d="M271.10938,455.16113v3.22656h4.76562v1.96875h-4.76562v3.48438h5.52344v1.96875h-7.5v-12.59375h7.5v1.94531h-5.52344Z"/>
    <path class="cls-1" d="M288.8125,453.18457v12.84375h-.09375l-8.05469-8.41406v8.21094h-1.97656v-12.82812h.10156l8.03906,8.39844v-8.21094h1.98438Z"/>
  </g>
  <g>
    <path class="cls-1" d="M308.75781,466.30957h-2.97656v-5.72168l-3.40088,5.51074h-.55762l-.16211-.2373-3.26221-5.28223v5.73047h-2.97656v-13.86719h.91797l5.75342,8.74609,5.74658-8.74609h.91797v13.86719ZM306.78125,465.30957h.97656v-10.92188l-5.66357,8.62109-5.67236-8.62207v10.92285h.97656v-8.25391l4.69531,7.60352,4.6875-7.59668v8.24707Z"/>
    <path class="cls-1" d="M315.32031,466.54395c-2.99707,0-5.25781-2.36816-5.25781-5.50781v-8.32031h2.98438v8.3125c0,1.43457.97363,2.51562,2.26562,2.51562,1.30078,0,2.28125-1.08105,2.28125-2.51562v-8.3125h2.99219v8.32031c0,3.13965-2.26367,5.50781-5.26562,5.50781ZM311.0625,453.71582v7.32031c0,2.57031,1.83008,4.50781,4.25781,4.50781,2.43164,0,4.26562-1.9375,4.26562-4.50781v-7.32031h-.99219v7.3125c0,1.97168-1.44141,3.51562-3.28125,3.51562-1.83105,0-3.26562-1.54395-3.26562-3.51562v-7.3125h-.98438Z"/>
    <path class="cls-1" d="M326.01562,466.52051c-2.17383,0-3.97168-1.00977-4.80762-2.7002l-.18848-.38086,2.3584-1.68652.27539.48047c.46973.82324,1.33984,1.29492,2.38574,1.29492,1.13086,0,1.98438-.49023,1.98438-1.14062,0-.8252-1.54395-1.48926-2.78418-2.02441-1.48438-.65918-3.45801-1.53613-3.45801-3.87402,0-2.28027,1.95801-4,4.55469-4,1.98145,0,3.52344.96289,4.125,2.5752l.13574.36426-2.2793,1.57617-.24805-.54199c-.29395-.63867-.95215-1.03613-1.71777-1.03613-.87012,0-1.57812.49805-1.57812,1.10938,0,.50977.63672.79883,1.85547,1.30664l.53711.22559c1.86035.81738,3.8418,1.88867,3.8418,4.28027,0,2.45605-2.05273,4.17188-4.99219,4.17188ZM322.31348,463.74316c.73438,1.12012,2.08594,1.77734,3.70215,1.77734,2.35059,0,3.99219-1.30469,3.99219-3.17188,0-1.62207-1.18848-2.46094-3.24023-3.3623l-.52246-.2207c-1.32617-.55176-2.47168-1.0293-2.47168-2.22949,0-1.18262,1.13281-2.10938,2.57812-2.10938.95117,0,1.79785.41602,2.3252,1.11426l.68848-.47656c-.53516-.99316-1.63867-1.5752-3.0293-1.5752-2.05957,0-3.55469,1.26172-3.55469,3,0,1.56738,1.16895,2.20801,2.82031,2.94141,1.62207.69922,3.42188,1.47461,3.42188,2.95703,0,1.24023-1.25488,2.14062-2.98438,2.14062-1.19434,0-2.25879-.49414-2.94434-1.34375l-.78125.55859Z"/>
    <path class="cls-1" d="M338.13281,466.5127c-3.87695,0-7.03125-3.13672-7.03125-6.99219,0-3.80664,3.20605-7.02344,7-7.02344,1.7334.02441,3.36426.73828,4.72363,2.06348l.3125.30469-1.75293,2.37305-.41016-.41113c-.85254-.85254-1.88672-1.32227-2.91211-1.32227-2.11035,0-3.96094,1.87988-3.96094,4.02344,0,2.35742,2.0918,4,3.96875,4,1.27832,0,2.29004-.7373,2.91406-1.35547l.41699-.41309,1.73047,2.41895-.30469.2998c-1.38867,1.36914-2.92383,2.03418-4.69434,2.03418ZM338.09473,453.49707c-3.24512,0-5.99316,2.75879-5.99316,6.02344,0,3.24805,2.76172,5.99219,6.03125,5.99219,1.36523,0,2.57422-.47754,3.68164-1.45605l-.55762-.7793c-.98047.82031-2.07227,1.25098-3.18652,1.25098-2.64648,0-4.96875-2.33691-4.96875-5,0-2.67578,2.31836-5.02344,4.96094-5.02344,1.12109,0,2.23633.43164,3.19238,1.22559l.55273-.74707c-1.10352-.95508-2.37891-1.4668-3.71289-1.48633Z"/>
    <path class="cls-1" d="M352.14062,466.30957h-8.59375v-13.59375h2.97656v10.625h5.61719v2.96875ZM344.54688,465.30957h6.59375v-.96875h-5.61719v-10.625h-.97656v11.59375Z"/>
    <path class="cls-1" d="M361.21875,466.30957h-8.5v-13.59375h8.5v2.94531h-5.52344v2.22656h4.76562v2.96875h-4.76562v2.48438h5.52344v2.96875ZM353.71875,465.30957h6.5v-.96875h-5.52344v-4.48438h4.76562v-.96875h-4.76562v-4.22656h5.52344v-.94531h-6.5v11.59375Z"/>
  </g>
  <g>
    <path class="cls-1" d="M275.7627,476.33301v1.47656h-5.69531v-9.44531h1.48242v7.96875h4.21289Z"/>
    <path class="cls-1" d="M282.96973,476.37402h-4.4707l-.64453,1.43555h-1.60547l4.44141-9.63867h.08789l4.44141,9.63867h-1.60547l-.64453-1.43555ZM282.39551,475.10254l-1.6582-3.69141-1.66406,3.69141h3.32227Z"/>
    <path class="cls-1" d="M285.43066,476.15137l1.17188-.83789c.42188.73828,1.20703,1.16016,2.11523,1.16016,1.06055,0,1.86328-.50977,1.86328-1.23047,0-.87305-1.24219-1.40039-2.34375-1.875-1.10742-.49219-2.33789-1.06641-2.33789-2.54883,0-1.54688,1.3418-2.625,3.04102-2.625,1.34766,0,2.35547.65039,2.74219,1.6875l-1.10156.76172c-.29297-.63867-.94336-.99609-1.62891-.99609-.86719,0-1.55859.53906-1.55859,1.20703,0,.73828.87305,1.00195,2.02148,1.49414,1.49414.65625,2.6543,1.37695,2.6543,2.86523,0,1.67578-1.45312,2.75391-3.36914,2.75391-1.55273,0-2.73047-.72656-3.26953-1.81641Z"/>
    <path class="cls-1" d="M298.30957,477.80957l-3.49219-4.57031v4.57031h-1.47656v-9.44531h1.47656v4.52344l3.24609-4.52344h1.72266l-3.35156,4.63477,3.68555,4.81055h-1.81055Z"/>
    <path class="cls-1" d="M307.37402,474.49316c0,2.00977-1.55273,3.39844-3.46289,3.39844-1.38867,0-2.71875-.78516-3.24023-1.99219l1.46484-.46289c.31641.58594,1.06641.97852,1.71094.97852.94922,0,1.98633-.66211,1.98633-1.92188,0-1.10742-.79102-1.83398-1.94531-1.83398-.84375,0-1.71094.42773-2.06836,1.10742l-.83203-.49805.69727-4.91016h4.86914v1.47656h-3.75l-.29883,1.94531c.43945-.4043.97852-.55664,1.58789-.55664,1.99805,0,3.28125,1.39453,3.28125,3.26953Z"/>
    <path class="cls-1" d="M320.27637,468.36426l-4.35938,9.63867h-.09961l-4.3418-9.63867h1.57617l2.8125,6.39258,2.82422-6.39258h1.58789Z"/>
    <path class="cls-1" d="M327.95215,476.33301v1.47656h-7.07812v-.31641c3.88477-3.14648,5.4668-4.78125,5.4668-5.92969,0-1.06641-.86719-1.85742-1.76953-1.85742-1.10156,0-1.98633.87891-1.98633,2.01562l-1.35352-.32812c0-1.77539,1.4707-3.16992,3.29297-3.16992,1.85156,0,3.30469,1.52344,3.30469,3.26367,0,1.63477-1.66406,3.48047-3.80273,4.8457h3.92578Z"/>
    <path class="cls-1" d="M329.08301,477.08887c0-.54492.45117-.99609.99609-.99609.53906,0,.99609.45703.99609.99609,0,.54492-.45117.99023-.99609.99023s-.99609-.44531-.99609-.99023Z"/>
    <path class="cls-1" d="M334.97168,468.27637v9.5332h-1.48242v-7.62891l-1.27734.38086v-1.54688l2.32617-.73828h.43359Z"/>
  </g>
  <g>
    <path class="cls-1" d="M29.63292,383.7873v1.83463h-7.07642v-11.73579h1.84191v9.90116h5.23451Z"/>
    <path class="cls-1" d="M38.58764,383.83826h-5.55484l-.80083,1.78366h-1.99479l5.51844-11.97604h.1092l5.51844,11.97604h-1.99479l-.80083-1.78366ZM37.87418,382.25844l-2.06032-4.58657-2.0676,4.58657h4.12791Z"/>
    <path class="cls-1" d="M41.64536,383.56161l1.45605-1.04108c.52418.91731,1.49973,1.44149,2.62818,1.44149,1.31773,0,2.31512-.63338,2.31512-1.52886,0-1.08476-1.54342-1.73998-2.91211-2.32968-1.37597-.61154-2.90483-1.32501-2.90483-3.16692,0-1.92199,1.66718-3.26156,3.77846-3.26156,1.67446,0,2.92667.80811,3.40716,2.09672l-1.36869.94643c-.36401-.79355-1.17212-1.23765-2.02391-1.23765-1.07748,0-1.93655.66978-1.93655,1.49973,0,.91731,1.08476,1.24493,2.51169,1.85647,1.85647.81539,3.29796,1.71086,3.29796,3.56005,0,2.08216-1.80551,3.42172-4.18615,3.42172-1.92927,0-3.3926-.90275-4.06239-2.25688Z"/>
    <path class="cls-1" d="M57.64738,385.62193l-4.33904-5.67861v5.67861h-1.83463v-11.73579h1.83463v5.62036l4.03327-5.62036h2.1404l-4.16431,5.75869,4.57929,5.9771h-2.2496Z"/>
    <path class="cls-1" d="M68.90995,381.5013c0,2.49713-1.92927,4.22255-4.30264,4.22255-1.72542,0-3.37804-.97556-4.02599-2.47529l1.82007-.57514c.39313.72803,1.32501,1.2158,2.12584,1.2158,1.1794,0,2.46801-.82267,2.46801-2.38793,0-1.37597-.98284-2.27872-2.41705-2.27872-1.04836,0-2.12584.53146-2.56993,1.37597l-1.0338-.61882.86635-6.10086h6.0499v1.83463h-4.65937l-.37129,2.41705c.54602-.50234,1.2158-.69163,1.97295-.69163,2.48257,0,4.07695,1.7327,4.07695,4.06239Z"/>
    <path class="cls-1" d="M84.94109,373.88614l-5.41652,11.97604h-.12376l-5.39468-11.97604h1.95839l3.49453,7.94277,3.50909-7.94277h1.97295Z"/>
    <path class="cls-1" d="M94.47824,383.7873v1.83463h-8.79456v-.39313c4.82682-3.9095,6.79249-5.9407,6.79249-7.36763,0-1.32501-1.07748-2.30784-2.19864-2.30784-1.36869,0-2.46801,1.09204-2.46801,2.50441l-1.68174-.40769c0-2.20592,1.82735-3.93862,4.09151-3.93862,2.30056,0,4.10607,1.89287,4.10607,4.05511,0,2.03119-2.0676,4.32448-4.72489,6.02078h4.87778Z"/>
    <path class="cls-1" d="M95.88333,384.72645c0-.67706.56058-1.23765,1.23765-1.23765.66978,0,1.23765.56786,1.23765,1.23765,0,.67706-.56058,1.23036-1.23765,1.23036s-1.23765-.5533-1.23765-1.23036Z"/>
    <path class="cls-1" d="M103.2,373.77693v11.84499h-1.84191v-9.47891l-1.5871.47322v-1.92199l2.89027-.91731h.53874Z"/>
  </g>
  <g>
    <path class="cls-1" d="M412.11621,496.58203l1.17188-.83789c.42188.73828,1.20703,1.16016,2.11523,1.16016,1.06055,0,1.86328-.50977,1.86328-1.23047,0-.87305-1.24219-1.40039-2.34375-1.875-1.10742-.49219-2.33789-1.06641-2.33789-2.54883,0-1.54688,1.3418-2.625,3.04102-2.625,1.34766,0,2.35547.65039,2.74219,1.6875l-1.10156.76172c-.29297-.63867-.94336-.99609-1.62891-.99609-.86719,0-1.55859.53906-1.55859,1.20703,0,.73828.87305,1.00195,2.02148,1.49414,1.49414.65625,2.6543,1.37695,2.6543,2.86523,0,1.67578-1.45312,2.75391-3.36914,2.75391-1.55273,0-2.73047-.72656-3.26953-1.81641Z"/>
    <path class="cls-1" d="M421.50879,490.25391v2.41992h3.57422v1.47656h-3.57422v2.61328h4.14258v1.47656h-5.625v-9.44531h5.625v1.45898h-4.14258Z"/>
    <path class="cls-1" d="M432.8877,496.76367v1.47656h-5.69531v-9.44531h1.48242v7.96875h4.21289Z"/>
    <path class="cls-1" d="M435.55371,490.25391v2.41992h3.57422v1.47656h-3.57422v2.61328h4.14258v1.47656h-5.625v-9.44531h5.625v1.45898h-4.14258Z"/>
    <path class="cls-1" d="M440.78613,493.52344c0-2.66016,2.2207-4.89258,4.875-4.89258,1.22461.01758,2.35547.53906,3.28125,1.44141l-.86133,1.16602c-.66211-.66211-1.52344-1.10156-2.44922-1.10156-1.71094,0-3.3457,1.5-3.3457,3.39258,0,1.9043,1.6582,3.375,3.35156,3.375.9668,0,1.79883-.48047,2.44922-1.125l.85547,1.19531c-.81445.80273-1.85156,1.41797-3.25781,1.41797-2.67773,0-4.89844-2.20312-4.89844-4.86914Z"/>
    <path class="cls-1" d="M456.03809,490.26562h-2.53125v7.97461h-1.48828v-7.97461h-2.53125v-1.4707h6.55078v1.4707Z"/>
  </g>
  <g>
    <path class="cls-1" d="M546.15723,344.32275c0-2.69531,2.19141-4.89844,4.88086-4.89844,2.68359,0,4.88672,2.20312,4.88672,4.89844,0,2.67188-2.20312,4.86328-4.89258,4.86328-2.68359,0-4.875-2.19141-4.875-4.86328ZM554.4248,344.31104c0-1.86914-1.5293-3.39258-3.39258-3.39258s-3.38086,1.52344-3.38086,3.39258c0,1.85742,1.51758,3.375,3.38086,3.375s3.39258-1.51758,3.39258-3.375Z"/>
    <path class="cls-1" d="M564.87793,339.56494v9.63281h-.07031l-6.04102-6.31055v6.1582h-1.48242v-9.62109h.07617l6.0293,6.29883v-6.1582h1.48828Z"/>
    <path class="cls-1" d="M569.72949,338.88525h1.3125l-3.81445,10.85156h-1.30664l3.80859-10.85156Z"/>
    <path class="cls-1" d="M571.63379,344.32275c0-2.69531,2.19141-4.89844,4.88086-4.89844,2.68359,0,4.88672,2.20312,4.88672,4.89844,0,2.67188-2.20312,4.86328-4.89258,4.86328-2.68359,0-4.875-2.19141-4.875-4.86328ZM579.90137,344.31104c0-1.86914-1.5293-3.39258-3.39258-3.39258s-3.38086,1.52344-3.38086,3.39258c0,1.85742,1.51758,3.375,3.38086,3.375s3.39258-1.51758,3.39258-3.375Z"/>
    <path class="cls-1" d="M584.24316,341.0415v2.52539h3.57422v1.47656h-3.57422v4.00195h-1.48242v-9.48047h5.625v1.47656h-4.14258Z"/>
    <path class="cls-1" d="M591.0459,341.0415v2.52539h3.57422v1.47656h-3.57422v4.00195h-1.48242v-9.48047h5.625v1.47656h-4.14258Z"/>
  </g>
  <g>
    <path class="cls-1" d="M562.92773,315.81445h1.48242v9.44531h-1.48242v-9.44531Z"/>
    <path class="cls-1" d="M569.26172,315.11133h1.3125l-3.81445,10.85156h-1.30664l3.80859-10.85156Z"/>
    <path class="cls-1" d="M571.16602,320.53711c0-2.84766,1.55859-4.86328,3.85547-4.86328s3.85547,2.01562,3.85547,4.86328c0,2.8418-1.55859,4.85742-3.85547,4.85742s-3.85547-2.01562-3.85547-4.85742ZM577.38867,320.53711c0-1.97461-.94922-3.375-2.37305-3.375-1.42969,0-2.37305,1.40039-2.37305,3.375,0,1.96875.94336,3.36328,2.37305,3.36328,1.42383,0,2.37305-1.39453,2.37305-3.36328Z"/>
  </g>
  <g>
    <path class="cls-1" d="M173.48438,498.24023l-2.54297-3.65625h-1.16016v3.65625h-1.48242l-.00586-9.44531h2.93555c1.75781,0,3.19922,1.35352,3.19922,3.03516,0,1.21875-.78516,2.2793-1.86914,2.63086l2.74805,3.7793h-1.82227ZM171.26367,493.35352c.89062.00586,1.63477-.71484,1.63477-1.55859,0-.87891-.75586-1.5293-1.63477-1.5293h-1.48828v3.08789h1.48828Z"/>
    <path class="cls-1" d="M175.75781,496.58203l1.17188-.83789c.42188.73828,1.20703,1.16016,2.11523,1.16016,1.06055,0,1.86328-.50977,1.86328-1.23047,0-.87305-1.24219-1.40039-2.34375-1.875-1.10742-.49219-2.33789-1.06641-2.33789-2.54883,0-1.54688,1.3418-2.625,3.04102-2.625,1.34766,0,2.35547.65039,2.74219,1.6875l-1.10156.76172c-.29297-.63867-.94336-.99609-1.62891-.99609-.86719,0-1.55859.53906-1.55859,1.20703,0,.73828.87305,1.00195,2.02148,1.49414,1.49414.65625,2.6543,1.37695,2.6543,2.86523,0,1.67578-1.45312,2.75391-3.36914,2.75391-1.55273,0-2.73047-.72656-3.26953-1.81641Z"/>
    <path class="cls-1" d="M189.58594,490.26562h-2.53125v7.97461h-1.48828v-7.97461h-2.53125v-1.4707h6.55078v1.4707Z"/>
  </g>
  <path class="cls-1" d="M213.11377,501.91797c0-2.84766,1.55859-4.86328,3.85547-4.86328s3.85547,2.01562,3.85547,4.86328c0,2.8418-1.55859,4.85742-3.85547,4.85742s-3.85547-2.01562-3.85547-4.85742ZM219.33643,501.91797c0-1.97461-.94922-3.375-2.37305-3.375-1.42969,0-2.37305,1.40039-2.37305,3.375,0,1.96875.94336,3.36328,2.37305,3.36328,1.42383,0,2.37305-1.39453,2.37305-3.36328Z"/>
  <g>
    <path class="cls-1" d="M48.29287,351.91498c0-9.77398,7.74277-17.7551,17.21181-17.7551,9.46729,0,17.23109,7.98112,17.23109,17.7551,0,9.69161-7.76381,17.62892-17.25212,17.62892-9.44801,0-17.19078-7.93731-17.19078-17.62892ZM75.99896,351.87292c0-5.95342-4.72313-10.80974-10.51531-10.80974-5.77115,0-10.475,4.85632-10.475,10.80974,0,5.91136,4.70385,10.74665,10.475,10.74665,5.79218,0,10.51531-4.83529,10.51531-10.74665Z"/>
    <path class="cls-1" d="M120.38234,369.78751h-8.44905v-12.76208l-8.15287,12.1925h-.95865l-.3067-.39783-7.90751-11.79993v12.76734h-8.44905v-36.67215h1.73152l15.38916,21.82278,15.36988-21.82278h1.73327v36.67215ZM113.7279,367.99289h4.85983v-31.67387l-15.30854,21.73515-15.32607-21.7369v31.67562h4.85983v-16.87532l10.46624,15.6205,10.44871-15.62575v16.88058Z"/>
    <g>
      <path class="cls-1" d="M24.83263,369.73641l-1.44277-1.39187.20628-.21387,1.44277,1.39187-.20628.21387ZM26.43053,368.08002l-1.44277-1.39187,1.39187-1.44277,1.44277,1.39187-1.39187,1.44277ZM29.21402,365.19449l-1.44277-1.39187,1.39187-1.44277,1.44277,1.39187-1.39187,1.44277ZM31.99751,362.30896l-1.44277-1.39187,1.39187-1.44277,1.44277,1.39187-1.39187,1.44277ZM34.781,359.42343l-1.44277-1.39187,1.39187-1.44252,1.44277,1.39187-1.39187,1.44252ZM37.56449,356.53814l-1.44277-1.39187,1.39187-1.44277,1.44277,1.39187-1.39187,1.44277ZM40.34798,353.65261l-1.44277-1.39187,1.39187-1.44277,1.44277,1.39187-1.39187,1.44277ZM43.13147,350.76708l-1.44277-1.39187,1.39187-1.44252,1.44277,1.39187-1.39187,1.44252ZM45.91496,347.8818l-1.44277-1.39187,1.39187-1.44277,1.44277,1.39187-1.39187,1.44277ZM48.69845,344.99626l-1.44277-1.39187,1.39187-1.44277,1.44277,1.39187-1.39187,1.44277ZM51.48194,342.11073l-1.44277-1.39187,1.39187-1.44277,1.44277,1.39187-1.39187,1.44277ZM54.26543,339.22545l-1.44277-1.39187,1.39187-1.44277,1.44277,1.39187-1.39187,1.44277ZM57.04892,336.33992l-1.44277-1.39187,1.39187-1.44277,1.44277,1.39187-1.39187,1.44277Z"/>
      <polygon class="cls-1" points="84.71767 369.79147 22.41766 369.79147 39.46363 322.95824 41.34735 323.6439 25.28068 367.78687 84.71767 367.78687 84.71767 369.79147"/>
    </g>
    <path class="cls-1" d="M58.40358,330.53189c-1.74222-1.47225-6.08914-5.14501-10.59321-7.18725l2.3119-.11658-.25957-1.3995-5.30243.26228.06134.09432,2.92179,5.32777,1.24783-.68438-1.07321-1.95713c4.14413,1.99588,8.13293,5.36685,9.76682,6.74759l.3044.25679.91563-1.08972-.30127-.25419Z"/>
  </g>
</svg>