M48
; DRILL file {KiCad 9.0.1} date 2025-05-18T13:56:23-0500
; FORMAT={-:-/ absolute / metric / decimal}
; #@! TF.CreationDate,2025-05-18T13:56:23-05:00
; #@! TF.GenerationSoftware,Kicad,Pcbnew,9.0.1
; #@! TF.FileFunction,Plated,1,4,PTH
FMAT,2
METRIC
; #@! TA.AperFunction,Plated,PTH,ViaDrill
T1C0.400
; #@! TA.AperFunction,Plated,PTH,ComponentDrill
T2C0.600
; #@! TA.AperFunction,Plated,PTH,ComponentDrill
T3C0.650
; #@! TA.AperFunction,Plated,PTH,ComponentDrill
T4C0.800
; #@! TA.AperFunction,Plated,PTH,ComponentDrill
T5C1.000
%
G90
G05
T1
X123.698Y-88.773
X124.687Y-77.013
X125.5Y-88.5
X126.1Y-75.9
X126.7Y-78.1
X127.0Y-75.3
X129.921Y-88.773
X131.191Y-74.676
X131.191Y-88.773
X132.588Y-74.676
X132.715Y-80.772
X135.128Y-88.646
X135.509Y-84.582
X135.509Y-85.598
X136.398Y-88.646
X136.525Y-98.425
X137.668Y-88.646
X137.922Y-92.71
X139.065Y-75.565
X139.5Y-76.5
X139.5Y-88.5
X139.7Y-78.359
X139.7Y-81.28
X139.827Y-83.82
X139.827Y-85.09
X139.827Y-86.36
X139.954Y-82.55
X140.208Y-94.996
X143.764Y-83.82
X144.0Y-78.0
X144.0Y-81.0
X144.399Y-85.09
X144.5Y-80.0
X145.0Y-79.0
X145.75Y-76.75
X146.0Y-78.5
X147.32Y-74.93
X150.241Y-78.105
X150.25Y-86.0
X150.622Y-69.723
X150.749Y-79.502
X151.298Y-95.94
X151.384Y-73.279
X151.875Y-87.125
X152.0Y-80.5
X152.0Y-85.0
X152.07Y-97.536
X152.349Y-96.088
X154.0Y-81.0
X154.375Y-87.375
X154.559Y-69.342
X155.0Y-89.0
X155.321Y-76.581
X155.321Y-90.551
X155.566Y-91.688
X155.569Y-85.069
X156.75Y-86.75
X156.845Y-78.105
X157.5Y-89.5
X158.1Y-85.1
X158.115Y-72.263
X158.242Y-77.343
X159.258Y-86.487
X160.528Y-80.518
X162.814Y-99.568
X163.068Y-80.645
X163.5Y-88.5
X164.084Y-76.835
X164.338Y-74.041
X164.5Y-92.5
X164.5Y-94.0
X166.751Y-76.581
X170.0Y-93.5
X170.388Y-70.612
X173.0Y-75.5
X173.5Y-72.0
X173.5Y-80.5
X175.006Y-74.549
X177.0Y-69.5
X178.5Y-72.0
X179.959Y-71.12
X181.737Y-76.581
T3
X133.69Y-70.7
X134.96Y-70.7
X136.23Y-70.7
X137.5Y-70.7
X138.77Y-70.7
X140.04Y-70.7
T4
X119.285Y-68.399
X121.285Y-68.399
X122.683Y-93.726
X123.285Y-68.399
X124.683Y-93.726
X126.683Y-93.726
X128.683Y-93.726
X130.683Y-93.726
X139.732Y-68.168
X141.732Y-68.168
X143.732Y-68.168
X146.5Y-89.0
X148.5Y-89.0
X150.5Y-89.0
X152.5Y-89.0
X160.306Y-68.168
X162.306Y-68.168
X164.306Y-68.168
X165.5Y-88.0
X165.5Y-90.0
X172.085Y-92.456
X174.085Y-92.456
X176.085Y-92.456
X178.085Y-92.456
X180.085Y-92.456
X180.753Y-68.168
X182.753Y-68.168
X184.753Y-68.168
T5
X126.278Y-97.917
X128.778Y-97.917
X170.688Y-73.787
X170.688Y-76.327
X170.688Y-78.867
X170.688Y-81.407
X176.423Y-97.201
X178.923Y-97.201
X185.039Y-84.455
X185.039Y-86.995
X185.039Y-89.535
X185.039Y-92.075
T2
G00X147.57Y-94.7
M15
G01X147.57Y-95.8
M16
G05
G00X147.57Y-99.13
M15
G01X147.57Y-99.73
M16
G05
G00X156.21Y-94.7
M15
G01X156.21Y-95.8
M16
G05
G00X156.21Y-99.13
M15
G01X156.21Y-99.73
M16
G05
M30
