%TF.GenerationSoftware,KiCad,Pcbnew,9.0.1*%
%TF.CreationDate,2025-05-18T13:56:21-05:00*%
%TF.ProjectId,LASK5-V3-0,4c41534b-352d-4563-932d-302e6b696361,rev?*%
%TF.SameCoordinates,Original*%
%TF.FileFunction,Soldermask,Bot*%
%TF.FilePolarity,Negative*%
%FSLAX46Y46*%
G04 Gerber Fmt 4.6, Leading zero omitted, Abs format (unit mm)*
G04 Created by KiCad (PCBNEW 9.0.1) date 2025-05-18 13:56:21*
%MOMM*%
%LPD*%
G01*
G04 APERTURE LIST*
G04 Aperture macros list*
%AMRoundRect*
0 Rectangle with rounded corners*
0 $1 Rounding radius*
0 $2 $3 $4 $5 $6 $7 $8 $9 X,Y pos of 4 corners*
0 Add a 4 corners polygon primitive as box body*
4,1,4,$2,$3,$4,$5,$6,$7,$8,$9,$2,$3,0*
0 Add four circle primitives for the rounded corners*
1,1,$1+$1,$2,$3*
1,1,$1+$1,$4,$5*
1,1,$1+$1,$6,$7*
1,1,$1+$1,$8,$9*
0 Add four rect primitives between the rounded corners*
20,1,$1+$1,$2,$3,$4,$5,0*
20,1,$1+$1,$4,$5,$6,$7,0*
20,1,$1+$1,$6,$7,$8,$9,0*
20,1,$1+$1,$8,$9,$2,$3,0*%
%AMFreePoly0*
4,1,6,1.000000,0.000000,0.500000,-0.750000,-0.500000,-0.750000,-0.500000,0.750000,0.500000,0.750000,1.000000,0.000000,1.000000,0.000000,$1*%
%AMFreePoly1*
4,1,6,0.500000,-0.750000,-0.650000,-0.750000,-0.150000,0.000000,-0.650000,0.750000,0.500000,0.750000,0.500000,-0.750000,0.500000,-0.750000,$1*%
G04 Aperture macros list end*
%ADD10R,1.000000X1.000000*%
%ADD11C,1.000000*%
%ADD12R,1.700000X1.700000*%
%ADD13O,1.700000X1.700000*%
%ADD14R,1.350000X1.350000*%
%ADD15O,1.350000X1.350000*%
%ADD16C,2.200000*%
%ADD17RoundRect,0.250000X0.600000X0.750000X-0.600000X0.750000X-0.600000X-0.750000X0.600000X-0.750000X0*%
%ADD18O,1.700000X2.000000*%
%ADD19RoundRect,0.250000X-0.600000X-0.750000X0.600000X-0.750000X0.600000X0.750000X-0.600000X0.750000X0*%
%ADD20C,1.350000*%
%ADD21C,0.650000*%
%ADD22O,1.000000X2.100000*%
%ADD23O,1.000000X1.600000*%
%ADD24FreePoly0,180.000000*%
%ADD25FreePoly1,180.000000*%
G04 APERTURE END LIST*
D10*
%TO.C,J6*%
X133690000Y-70700000D03*
D11*
X134960000Y-70700000D03*
X136230000Y-70700000D03*
X137500000Y-70700000D03*
X138770000Y-70700000D03*
X140040000Y-70700000D03*
%TD*%
D12*
%TO.C,J1*%
X170688000Y-73787000D03*
D13*
X170688000Y-76327000D03*
X170688000Y-78867000D03*
X170688000Y-81407000D03*
%TD*%
D14*
%TO.C,H2*%
X139732000Y-68167600D03*
D15*
X141732000Y-68167600D03*
X143732000Y-68167600D03*
%TD*%
D16*
%TO.C,H8*%
X130048000Y-69088000D03*
%TD*%
D14*
%TO.C,Joystick1*%
X172085000Y-92456000D03*
D15*
X174085000Y-92456000D03*
X176085000Y-92456000D03*
X178085000Y-92456000D03*
X180085000Y-92456000D03*
%TD*%
D14*
%TO.C,H4*%
X180753000Y-68167600D03*
D15*
X182753000Y-68167600D03*
X184753000Y-68167600D03*
%TD*%
D16*
%TO.C,H7*%
X185928000Y-79756000D03*
%TD*%
D17*
%TO.C,BattExtLTC4054*%
X178923000Y-97201000D03*
D18*
X176423000Y-97201000D03*
%TD*%
D19*
%TO.C,J2*%
X126278000Y-97917000D03*
D18*
X128778000Y-97917000D03*
%TD*%
D14*
%TO.C,J3*%
X146500000Y-89000000D03*
D20*
X148500000Y-89000000D03*
X150500000Y-89000000D03*
X152500000Y-89000000D03*
%TD*%
D14*
%TO.C,Joystick2*%
X130683000Y-93726000D03*
D15*
X128683000Y-93726000D03*
X126683000Y-93726000D03*
X124683000Y-93726000D03*
X122683000Y-93726000D03*
%TD*%
D21*
%TO.C,J4*%
X149000000Y-95780000D03*
X154780000Y-95780000D03*
D22*
X147570000Y-95250000D03*
D23*
X147570000Y-99430000D03*
D22*
X156210000Y-95250000D03*
D23*
X156210000Y-99430000D03*
%TD*%
D14*
%TO.C,J5*%
X165500000Y-88000000D03*
D20*
X165500000Y-90000000D03*
%TD*%
D14*
%TO.C,H1*%
X119285000Y-68398600D03*
D15*
X121285000Y-68398600D03*
X123285000Y-68398600D03*
%TD*%
D14*
%TO.C,H3*%
X160306000Y-68167600D03*
D15*
X162306000Y-68167600D03*
X164306000Y-68167600D03*
%TD*%
D12*
%TO.C,J9*%
X185039000Y-84455000D03*
D13*
X185039000Y-86995000D03*
X185039000Y-89535000D03*
X185039000Y-92075000D03*
%TD*%
D24*
%TO.C,JP1*%
X161798000Y-81915000D03*
D25*
X160348000Y-81915000D03*
%TD*%
M02*
