%TF.GenerationSoftware,KiCad,Pcbnew,9.0.1*%
%TF.CreationDate,2025-05-18T13:56:21-05:00*%
%TF.ProjectId,LASK5-V3-0,4c41534b-352d-4563-932d-302e6b696361,rev?*%
%TF.SameCoordinates,Original*%
%TF.FileFunction,Paste,Top*%
%TF.FilePolarity,Positive*%
%FSLAX46Y46*%
G04 Gerber Fmt 4.6, Leading zero omitted, Abs format (unit mm)*
G04 Created by KiCad (PCBNEW 9.0.1) date 2025-05-18 13:56:21*
%MOMM*%
%LPD*%
G01*
G04 APERTURE LIST*
G04 Aperture macros list*
%AMRoundRect*
0 Rectangle with rounded corners*
0 $1 Rounding radius*
0 $2 $3 $4 $5 $6 $7 $8 $9 X,Y pos of 4 corners*
0 Add a 4 corners polygon primitive as box body*
4,1,4,$2,$3,$4,$5,$6,$7,$8,$9,$2,$3,0*
0 Add four circle primitives for the rounded corners*
1,1,$1+$1,$2,$3*
1,1,$1+$1,$4,$5*
1,1,$1+$1,$6,$7*
1,1,$1+$1,$8,$9*
0 Add four rect primitives between the rounded corners*
20,1,$1+$1,$2,$3,$4,$5,0*
20,1,$1+$1,$4,$5,$6,$7,0*
20,1,$1+$1,$6,$7,$8,$9,0*
20,1,$1+$1,$8,$9,$2,$3,0*%
G04 Aperture macros list end*
%ADD10R,0.600000X0.300000*%
%ADD11R,0.300000X0.600000*%
%ADD12RoundRect,0.140000X-0.140000X-0.170000X0.140000X-0.170000X0.140000X0.170000X-0.140000X0.170000X0*%
%ADD13RoundRect,0.225000X0.250000X-0.225000X0.250000X0.225000X-0.250000X0.225000X-0.250000X-0.225000X0*%
%ADD14RoundRect,0.200000X-0.200000X-0.275000X0.200000X-0.275000X0.200000X0.275000X-0.200000X0.275000X0*%
%ADD15RoundRect,0.250000X-0.475000X0.250000X-0.475000X-0.250000X0.475000X-0.250000X0.475000X0.250000X0*%
%ADD16RoundRect,0.150000X-0.587500X-0.150000X0.587500X-0.150000X0.587500X0.150000X-0.587500X0.150000X0*%
%ADD17RoundRect,0.200000X0.200000X0.275000X-0.200000X0.275000X-0.200000X-0.275000X0.200000X-0.275000X0*%
%ADD18RoundRect,0.150000X-0.150000X0.587500X-0.150000X-0.587500X0.150000X-0.587500X0.150000X0.587500X0*%
%ADD19RoundRect,0.150000X-0.512500X-0.150000X0.512500X-0.150000X0.512500X0.150000X-0.512500X0.150000X0*%
%ADD20R,1.450000X1.000000*%
%ADD21RoundRect,0.225000X0.225000X0.250000X-0.225000X0.250000X-0.225000X-0.250000X0.225000X-0.250000X0*%
%ADD22RoundRect,0.140000X-0.170000X0.140000X-0.170000X-0.140000X0.170000X-0.140000X0.170000X0.140000X0*%
%ADD23RoundRect,0.250000X-0.300000X-0.300000X0.300000X-0.300000X0.300000X0.300000X-0.300000X0.300000X0*%
%ADD24RoundRect,0.200000X-0.275000X0.200000X-0.275000X-0.200000X0.275000X-0.200000X0.275000X0.200000X0*%
%ADD25R,0.812800X1.498600*%
%ADD26R,1.498600X0.812800*%
%ADD27R,0.889000X0.889000*%
%ADD28R,1.000000X1.450000*%
%ADD29RoundRect,0.243750X-0.243750X-0.456250X0.243750X-0.456250X0.243750X0.456250X-0.243750X0.456250X0*%
%ADD30RoundRect,0.225000X-0.375000X0.225000X-0.375000X-0.225000X0.375000X-0.225000X0.375000X0.225000X0*%
%ADD31R,0.600000X1.450000*%
%ADD32R,0.300000X1.450000*%
%ADD33RoundRect,0.250000X0.250000X0.475000X-0.250000X0.475000X-0.250000X-0.475000X0.250000X-0.475000X0*%
%ADD34RoundRect,0.225000X-0.225000X-0.250000X0.225000X-0.250000X0.225000X0.250000X-0.225000X0.250000X0*%
G04 APERTURE END LIST*
D10*
%TO.C,IC1*%
X155350000Y-86000000D03*
X155350000Y-86500000D03*
X155350000Y-87000000D03*
X155350000Y-87500000D03*
D11*
X156000000Y-87650000D03*
X156500000Y-87650000D03*
X157000000Y-87650000D03*
D10*
X157650000Y-87500000D03*
X157650000Y-87000000D03*
X157650000Y-86500000D03*
X157650000Y-86000000D03*
D11*
X157000000Y-85850000D03*
X156500000Y-85850000D03*
X156000000Y-85850000D03*
%TD*%
D12*
%TO.C,C2*%
X122484000Y-71120000D03*
X123444000Y-71120000D03*
%TD*%
D13*
%TO.C,C10*%
X153500000Y-86550000D03*
X153500000Y-85000000D03*
%TD*%
D14*
%TO.C,R4*%
X165101000Y-75311000D03*
X166751000Y-75311000D03*
%TD*%
D15*
%TO.C,C6*%
X148452000Y-76581000D03*
X148452000Y-78481000D03*
%TD*%
D16*
%TO.C,Q1*%
X161000000Y-89000000D03*
X161000000Y-90900000D03*
X162875000Y-89950000D03*
%TD*%
D17*
%TO.C,R9*%
X153289000Y-69596000D03*
X151639000Y-69596000D03*
%TD*%
D18*
%TO.C,Q2*%
X156713000Y-72644000D03*
X154813000Y-72644000D03*
X155763000Y-74519000D03*
%TD*%
D19*
%TO.C,U4*%
X159523000Y-76586000D03*
X159523000Y-77536000D03*
X159523000Y-78486000D03*
X161798000Y-78486000D03*
X161798000Y-76586000D03*
%TD*%
D20*
%TO.C,SW_PWR1*%
X181794000Y-75184000D03*
X181794000Y-73484000D03*
X186944000Y-75184000D03*
X186944000Y-73484000D03*
%TD*%
D21*
%TO.C,C8*%
X166624000Y-77729000D03*
X165074000Y-77729000D03*
%TD*%
D19*
%TO.C,U3*%
X151903000Y-77094000D03*
X151903000Y-78044000D03*
X151903000Y-78994000D03*
X154178000Y-78994000D03*
X154178000Y-77094000D03*
%TD*%
D14*
%TO.C,R3*%
X179325000Y-79121000D03*
X180975000Y-79121000D03*
%TD*%
%TO.C,R2*%
X165850000Y-94107000D03*
X167500000Y-94107000D03*
%TD*%
%TO.C,R8*%
X163450000Y-82169000D03*
X165100000Y-82169000D03*
%TD*%
D16*
%TO.C,Q3*%
X173625000Y-77050000D03*
X173625000Y-78950000D03*
X175500000Y-78000000D03*
%TD*%
D12*
%TO.C,C4*%
X142042000Y-70866000D03*
X143002000Y-70866000D03*
%TD*%
D22*
%TO.C,C5*%
X133858000Y-93782000D03*
X133858000Y-94742000D03*
%TD*%
D12*
%TO.C,C3*%
X185476000Y-71120000D03*
X186436000Y-71120000D03*
%TD*%
D23*
%TO.C,D1*%
X168000000Y-68500000D03*
X170800000Y-68500000D03*
%TD*%
D14*
%TO.C,R1*%
X165850000Y-92329000D03*
X167500000Y-92329000D03*
%TD*%
D20*
%TO.C,SW_SEL1*%
X164973000Y-99187000D03*
X164973000Y-97487000D03*
X170123000Y-99187000D03*
X170123000Y-97487000D03*
%TD*%
D24*
%TO.C,R7*%
X157988000Y-80645000D03*
X157988000Y-82295000D03*
%TD*%
D25*
%TO.C,U2*%
X123591000Y-90665000D03*
X124861000Y-90665000D03*
X126131000Y-90665000D03*
X127401000Y-90665000D03*
X128671000Y-90665000D03*
X129941000Y-90665000D03*
X131211000Y-90665000D03*
X132481000Y-90665000D03*
X133751000Y-90665000D03*
X135021000Y-90665000D03*
X136291000Y-90665000D03*
X137561000Y-90665000D03*
X138831000Y-90665000D03*
X140101000Y-90665000D03*
D26*
X141351000Y-88900000D03*
X141351000Y-87630000D03*
X141351000Y-86360000D03*
X141351000Y-85090000D03*
X141351000Y-83820000D03*
X141351000Y-82550000D03*
X141351000Y-81280000D03*
X141351000Y-80010000D03*
X141351000Y-78740000D03*
X141351000Y-77470000D03*
X141351000Y-76200000D03*
X141351000Y-74930000D03*
D25*
X140101000Y-73165000D03*
X138831000Y-73165000D03*
X137561000Y-73165000D03*
X136291000Y-73165000D03*
X135021000Y-73165000D03*
X133751000Y-73165000D03*
X132481000Y-73165000D03*
X131211000Y-73165000D03*
X129941000Y-73165000D03*
X128671000Y-73165000D03*
X127401000Y-73165000D03*
X126131000Y-73165000D03*
X124861000Y-73165000D03*
X123591000Y-73165000D03*
D27*
X131311000Y-83415000D03*
X129911000Y-84815000D03*
X131311000Y-84815000D03*
X132711000Y-84815000D03*
X132711000Y-83415000D03*
X132711000Y-82015000D03*
X131311000Y-82015000D03*
X129911000Y-82015000D03*
X129911000Y-83415000D03*
%TD*%
D28*
%TO.C,SW_RST1*%
X144526000Y-99314000D03*
X142826000Y-99314000D03*
X144526000Y-94164000D03*
X142826000Y-94164000D03*
%TD*%
D14*
%TO.C,R10*%
X149350000Y-81915000D03*
X151000000Y-81915000D03*
%TD*%
D18*
%TO.C,D3*%
X175450000Y-69625000D03*
X173550000Y-69625000D03*
X174500000Y-71500000D03*
%TD*%
D17*
%TO.C,R6*%
X138937000Y-93980000D03*
X137287000Y-93980000D03*
%TD*%
D29*
%TO.C,D2*%
X159625000Y-73750000D03*
X161500000Y-73750000D03*
%TD*%
D30*
%TO.C,D4*%
X170000000Y-85700000D03*
X170000000Y-89000000D03*
%TD*%
D20*
%TO.C,SW_BOOT1*%
X133788000Y-99236000D03*
X133788000Y-97536000D03*
X138938000Y-99236000D03*
X138938000Y-97536000D03*
%TD*%
D31*
%TO.C,J4*%
X148640000Y-94335000D03*
X149440000Y-94335000D03*
D32*
X150640000Y-94335000D03*
X151640000Y-94335000D03*
X152140000Y-94335000D03*
X153140000Y-94335000D03*
D31*
X154340000Y-94335000D03*
X155140000Y-94335000D03*
X155140000Y-94335000D03*
X154340000Y-94335000D03*
D32*
X153640000Y-94335000D03*
X152640000Y-94335000D03*
X151140000Y-94335000D03*
X150140000Y-94335000D03*
D31*
X149440000Y-94335000D03*
X148640000Y-94335000D03*
%TD*%
D13*
%TO.C,C9*%
X168000000Y-88500000D03*
X168000000Y-86950000D03*
%TD*%
D14*
%TO.C,R5*%
X165609000Y-73025000D03*
X167259000Y-73025000D03*
%TD*%
D33*
%TO.C,C7*%
X150109000Y-73279000D03*
X148209000Y-73279000D03*
%TD*%
D12*
%TO.C,C1*%
X163378000Y-70739000D03*
X164338000Y-70739000D03*
%TD*%
D34*
%TO.C,C11*%
X156000000Y-84000000D03*
X157550000Y-84000000D03*
%TD*%
D19*
%TO.C,MAX1*%
X176160000Y-73599000D03*
X176160000Y-74549000D03*
X176160000Y-75499000D03*
X178435000Y-75499000D03*
X178435000Y-74549000D03*
X178435000Y-73599000D03*
%TD*%
D28*
%TO.C,SW_M1*%
X161036000Y-99314000D03*
X159336000Y-99314000D03*
X161036000Y-94164000D03*
X159336000Y-94164000D03*
%TD*%
D14*
%TO.C,R11*%
X149350000Y-85000000D03*
X151000000Y-85000000D03*
%TD*%
M02*
