<?xml version="1.0" encoding="UTF-8"?>
<svg id="Layer_1" xmlns="http://www.w3.org/2000/svg" version="1.1" viewBox="0 0 612 792">
  <!-- Generator: Adobe Illustrator 29.4.0, SVG Export Plug-In . SVG Version: 2.1.0 Build 152)  -->
  <defs>
    <style>
      .st0 {
        fill: #ff7676;
      }
    </style>
  </defs>
  <g>
    <path class="st0" d="M380.7,416.8c2.8,0,4.6,2,4.6,4.5s-2.2,4.9-4.9,4.9-4.9-2.2-4.9-4.9.6-2.5,1.4-3.4l1.2.8c-.7.7-1.2,1.7-1.2,2.6,0,1.7,1.4,3.4,3.4,3.4s3.4-1.5,3.4-3.5-1-2.8-2.4-2.8h0v2.9h-1.4v-4.5h.8Z"/>
    <path class="st0" d="M375.6,407.8h9.6l-6.3,6.1h6.2v1.5h-9.6l6.3-6.1h-6.2v-1.5Z"/>
    <path class="st0" d="M380.4,398.4c2.9,0,4.7,1.9,4.7,4.9v2.7h-9.4v-2.7c0-3,1.8-4.9,4.7-4.9h0ZM380.4,399.9c-2,0-3.3,1.3-3.3,3.4v1.2h6.5v-1.2c0-2.1-1.2-3.4-3.2-3.4Z"/>
    <path class="st0" d="M398.5,419.8c1.6,0,2.9,1.4,2.9,3.2s-1,2.9-2.3,3.2l-.4-1.5c.7-.2,1.2-.9,1.2-1.7s-.7-1.7-1.5-1.7-1.9,1.2-1.9,2.8l-.9-.2c0-1.1-.5-2.1-1.4-2.1s-1.2.6-1.2,1.3.4,1.1,1,1.2l-.3,1.5c-1.1-.3-2.1-1.3-2.1-2.7s1.1-2.7,2.5-2.7,1.6.6,1.9,1.2c.4-1,1.2-1.7,2.4-1.7h0Z"/>
    <path class="st0" d="M391.9,410.4l9.6,4.4h0l-9.6,4.4v-1.6l6.4-2.8-6.4-2.8v-1.6Z"/>
    <path class="st0" d="M398.5,403.4c1.6,0,2.9,1.4,2.9,3.2s-1,2.9-2.3,3.2l-.4-1.5c.7-.2,1.2-.9,1.2-1.7s-.7-1.7-1.5-1.7-1.9,1.2-1.9,2.8l-.9-.2c0-1.1-.5-2.1-1.4-2.1s-1.2.6-1.2,1.3.4,1.1,1,1.2l-.3,1.5c-1.1-.3-2.1-1.3-2.1-2.7s1.1-2.7,2.5-2.7,1.6.6,1.9,1.2c.4-1,1.2-1.7,2.4-1.7h0Z"/>
  </g>
  <g>
    <path class="st0" d="M448.7,419.1h1.5v7.1h-.3c-3.1-3.9-4.8-5.5-5.9-5.5s-1.9.9-1.9,1.8.9,2,2,2l-.3,1.4c-1.8,0-3.2-1.5-3.2-3.3s1.5-3.3,3.3-3.3,3.5,1.7,4.8,3.8v-3.9h0Z"/>
    <path class="st0" d="M440.6,415.4h9.5v1.5h-7.6l.4,1.3h-1.5l-.7-2.3v-.4h0Z"/>
  </g>
  <g>
    <path class="st0" d="M329.5,423h9.5v1.5h-7.6l.4,1.3h-1.5l-.7-2.3v-.4h0Z"/>
    <path class="st0" d="M336.2,421.7c-1.4,0-2.4-1.1-2.5-1.9-.1.7-.9,1.4-1.9,1.4s-2.4-1.1-2.4-2.7,1.1-2.7,2.4-2.7,1.7.8,1.9,1.4c.1-.7,1-1.9,2.5-1.9s3,1.3,3,3.2-1.4,3.2-3,3.2ZM332,417.1c-.7,0-1.1.6-1.1,1.3s.4,1.3,1.1,1.3,1.1-.6,1.1-1.3-.4-1.3-1.1-1.3ZM336.1,416.7c-.9,0-1.6.8-1.6,1.7s.7,1.7,1.6,1.7,1.6-.8,1.6-1.7-.7-1.7-1.6-1.7Z"/>
  </g>
  <g>
    <path class="st0" d="M313.3,423h9.5v1.5h-7.6l.4,1.3h-1.5l-.7-2.3v-.4h0Z"/>
    <path class="st0" d="M313.4,415.4h.3l9.2,3.8v1.6l-8-3.2v4.4h-1.4v-6.5h-.1Z"/>
  </g>
  <g>
    <path class="st0" d="M479.8,419.8c1.6,0,2.9,1.4,2.9,3.2s-1,2.9-2.3,3.2l-.4-1.5c.7-.2,1.2-.9,1.2-1.7s-.7-1.7-1.5-1.7-1.9,1.2-1.9,2.8l-.9-.2c0-1.1-.5-2.1-1.4-2.1s-1.2.6-1.2,1.3.4,1.1,1,1.2l-.3,1.5c-1.1-.3-2.1-1.3-2.1-2.7s1.1-2.7,2.5-2.7,1.6.6,1.9,1.2c.4-1,1.2-1.7,2.4-1.7h0Z"/>
    <path class="st0" d="M480.6,411.6v1h2v1.5h-2v5.1l-7.4-3.5v-1.6l6,2.8v-2.8h-3v-1.5h3v-1h1.5-.1Z"/>
  </g>
  <g>
    <path class="st0" d="M463.5,419.8c1.6,0,2.9,1.4,2.9,3.2s-1,2.9-2.3,3.2l-.4-1.5c.7-.2,1.2-.9,1.2-1.7s-.7-1.7-1.5-1.7-1.9,1.2-1.9,2.8l-.9-.2c0-1.1-.5-2.1-1.4-2.1s-1.2.6-1.2,1.3.4,1.1,1,1.2l-.3,1.5c-1.1-.3-2.1-1.3-2.1-2.7s1.1-2.7,2.5-2.7,1.6.6,1.9,1.2c.4-1,1.2-1.7,2.4-1.7h0Z"/>
    <path class="st0" d="M463.5,412.5c1.6,0,2.9,1.4,2.9,3.2s-1,2.9-2.3,3.2l-.4-1.5c.7-.2,1.2-.9,1.2-1.7s-.7-1.7-1.5-1.7-1.9,1.2-1.9,2.8l-.9-.2c0-1.1-.5-2.1-1.4-2.1s-1.2.6-1.2,1.3.4,1.1,1,1.2l-.3,1.5c-1.1-.3-2.1-1.3-2.1-2.7s1.1-2.7,2.5-2.7,1.6.6,1.9,1.2c.4-1,1.2-1.7,2.4-1.7h0Z"/>
  </g>
  <g>
    <path class="st0" d="M524.8,418.9v2.5h8v1.5h-8v2.5h-1.5v-6.6h1.5Z"/>
    <path class="st0" d="M527.8,415.5l-4.5,2.8v-1.7l3.2-2-3.2-2v-1.7l4.5,2.8,4.9-3v1.7l-3.6,2.2,3.6,2.2v1.7l-4.9-3Z"/>
  </g>
  <g>
    <path class="st0" d="M515.1,420.5l-3.7,2.5v1.2h3.7v1.5h-9.4v-2.9c0-1.8,1.4-3.2,3-3.2s2.3.8,2.6,1.9l3.8-2.7v1.8h0ZM510.2,422.8c0-.9-.7-1.6-1.6-1.6s-1.5.8-1.5,1.6v1.5h3.1v-1.5Z"/>
    <path class="st0" d="M510.2,415.5l-4.5,2.8v-1.7l3.2-2-3.2-2v-1.7l4.5,2.8,4.9-3v1.7l-3.6,2.2,3.6,2.2v1.7l-4.9-3h0Z"/>
  </g>
  <g>
    <path class="st0" d="M496.8,418.9v1h2v1.5h-2v5.1l-7.4-3.5v-1.6l6,2.8v-2.8h-3v-1.5h3v-1h1.5,0Z"/>
    <path class="st0" d="M497.4,411.1h1.5v7.1h-.3c-3.1-3.9-4.8-5.5-5.9-5.5s-1.9.9-1.9,1.8.9,2,2,2l-.3,1.4c-1.8,0-3.2-1.5-3.2-3.3s1.5-3.3,3.3-3.3,3.5,1.7,4.8,3.8v-3.9h0Z"/>
  </g>
  <g>
    <path class="st0" d="M469.3,458.1v-4.6h1.3v4.6h-1.3Z"/>
    <path class="st0" d="M487.1,451.9v2.2h2.5v1.4h-2.5v2.2h-1.4v-2.2h-2.5v-1.4h2.5v-2.2h1.4Z"/>
    <path class="st0" d="M502.2,455.4l-4.5,2.8v-1.7l3.2-2-3.2-2v-1.7l4.5,2.8,4.9-3v1.7l-3.6,2.2,3.6,2.2v1.7l-4.9-3Z"/>
    <path class="st0" d="M519.3,455.3l-5.4,3.1v-1.7l3.8-2.2-3.8-2.2v-1.7l5.4,3.1h4v1.5h-4Z"/>
    <path class="st0" d="M537.9,458.2l-.8-1.2c.7-.4,1.2-1.2,1.2-2.1s-.5-1.9-1.2-1.9-1.4,1.2-1.9,2.3c-.5,1.1-1.1,2.3-2.5,2.3s-2.6-1.3-2.6-3,.7-2.4,1.7-2.7l.8,1.1c-.6.3-1,.9-1,1.6s.5,1.6,1.2,1.6,1-.9,1.5-2c.7-1.5,1.4-2.7,2.9-2.7s2.8,1.5,2.8,3.4-.7,2.7-1.8,3.3h-.3Z"/>
  </g>
  <g>
    <path class="st0" d="M503.9,485.5v-5.8h1.6v5.8h-1.6Z"/>
    <path class="st0" d="M526.3,479v2.7h3.2v1.7h-3.2v2.7h-1.7v-2.7h-3.2v-1.7h3.2v-2.7h1.7Z"/>
  </g>
  <g>
    <path class="st0" d="M118.2,490.6v5.8h-1.6v-5.8h1.6Z"/>
    <path class="st0" d="M95.8,497.2v-2.7h-3.2v-1.7h3.2v-2.7h1.7v2.7h3.2v1.7h-3.2v2.7h-1.7Z"/>
  </g>
  <g>
    <path class="st0" d="M132.5,461v4.6h-1.3v-4.6h1.3Z"/>
    <path class="st0" d="M114.7,467.1v-2.2h-2.5v-1.4h2.5v-2.2h1.4v2.2h2.5v1.4h-2.5v2.2h-1.4Z"/>
    <path class="st0" d="M99.7,463.7l4.5-2.8v1.7l-3.2,2,3.2,2v1.7l-4.5-2.8-4.9,3v-1.7l3.6-2.2-3.6-2.2v-1.7l4.9,3Z"/>
    <path class="st0" d="M82.6,463.8l5.4-3.1v1.7l-3.8,2.2,3.8,2.2v1.7l-5.4-3.1h-4v-1.5h4Z"/>
    <path class="st0" d="M63.9,460.9l.8,1.2c-.7.4-1.2,1.2-1.2,2.1s.5,1.9,1.2,1.9,1.4-1.2,1.9-2.3c.5-1.1,1.1-2.3,2.5-2.3s2.6,1.3,2.6,3-.7,2.4-1.7,2.7l-.8-1.1c.6-.3,1-.9,1-1.6s-.5-1.6-1.2-1.6-1,.9-1.5,2c-.7,1.5-1.4,2.7-2.9,2.7s-2.8-1.5-2.8-3.4.7-2.7,1.8-3.3h.3Z"/>
  </g>
  <g>
    <path class="st0" d="M474.5,342.6c-1.1,1.1-3.1,1-4.3-.3-1.1-1.1-1.3-2.8-.5-3.9l1.3.8c-.4.6-.3,1.5.3,2.1.7.7,1.7.7,2.3.2.8-.8.5-2.1-.6-3.3l.8-.4c.8.8,1.8,1.1,2.5.5.5-.5.5-1.2,0-1.7s-1.1-.5-1.5-.2l-.8-1.3c1-.6,2.4-.5,3.4.5,1,1.1,1.1,2.7,0,3.7-.7.7-1.6.7-2.2.4.4.9.4,2-.6,2.9h0Z"/>
    <path class="st0" d="M485.8,344.8l-10,3.6h0l3.9-9.9,1.1,1.1-2.6,6.5,6.6-2.4,1.1,1.1h-.1Z"/>
    <path class="st0" d="M485.8,354.4c-1.1,1.1-3.1,1-4.3-.3-1.1-1.1-1.3-2.8-.5-3.9l1.3.8c-.4.6-.3,1.5.3,2.1.7.7,1.7.7,2.3.2.8-.8.5-2.1-.6-3.3l.8-.4c.8.8,1.8,1.1,2.5.5.5-.5.5-1.2,0-1.7s-1.1-.5-1.5-.2l-.8-1.3c1-.6,2.4-.5,3.4.5,1,1.1,1.1,2.7,0,3.7-.7.7-1.6.7-2.2.4.4.9.4,2-.6,2.9h0Z"/>
  </g>
  <g>
    <path class="st0" d="M476,320.9c-2,1.9-4.7,1.7-6.4,0-1.9-2-1.8-5.1,0-6.9s5-1.8,6.9.1c.8.9,1.4,2.2,1.3,3.5l-1.5.3c0-1-.4-2.1-1-2.7-1.2-1.2-3.4-1.4-4.8,0s-1.4,3.4,0,4.9c1.1,1.2,2.7,1.4,3.7.4h0l-2-2.1,1-.9,3.1,3.2c-.1.2-.3.4-.5.5l.2-.3Z"/>
    <path class="st0" d="M485.8,323.8l-6.9,6.7h0l.3-8.8-4.4,4.3-1-1.1,6.9-6.7h0l-.3,8.8,4.4-4.3,1,1.1Z"/>
    <path class="st0" d="M488.9,333.8c-2.1,2-4.7,1.9-6.8-.2l-1.9-1.9,6.8-6.6,1.9,1.9c2.1,2.2,2.1,4.8,0,6.8h0ZM487.9,332.8c1.4-1.4,1.4-3.2,0-4.7l-.8-.9-4.7,4.5.9.9c1.4,1.5,3.2,1.5,4.7.2h-.1Z"/>
  </g>
  <g>
    <path class="st0" d="M468.6,358.1l1.4.3c-.2.8,0,1.7.6,2.3.7.8,1.7,1,2.2.5s.1-1.9-.3-3-.9-2.4.2-3.5,2.8-.9,4,.4c.9,1,1.2,2.1.7,3.1l-1.3-.3c.3-.7,0-1.4-.4-1.9-.6-.6-1.5-.7-2-.3-.5.5-.1,1.3.3,2.5.6,1.5.9,2.9-.2,3.9-1.2,1.2-3,.9-4.3-.5-1.1-1.1-1.4-2.5-1-3.6h0Z"/>
    <path class="st0" d="M476,361.3c1.9-1.8,5.1-1.8,6.9.1.8.9,1.2,2.1,1.2,3.4l-1.4.2c0-.9-.3-1.9-.9-2.5-1.2-1.2-3.4-1.4-4.8,0-1.4,1.3-1.3,3.5-.1,4.8.7.7,1.6,1,2.5,1l-.3,1.4c-1.1,0-2.3-.3-3.3-1.4-1.9-1.9-1.8-5.1.1-6.9h0Z"/>
    <path class="st0" d="M484.1,374.4l-1.1,1-4-4.1,6.8-6.6,1,1.1-5.7,5.5,2.9,3h.1Z"/>
  </g>
  <g>
    <path class="st0" d="M468.6,378.4l1.4.3c-.2.8,0,1.7.6,2.3.7.8,1.7,1,2.2.5s.1-1.9-.3-3-.9-2.4.2-3.5,2.8-.9,4,.4c.9,1,1.2,2.1.7,3.1l-1.3-.3c.3-.7,0-1.4-.4-1.9-.6-.6-1.5-.7-2-.3-.5.5-.1,1.3.3,2.5.6,1.5.9,2.9-.2,3.9-1.2,1.2-3,.9-4.3-.5-1.1-1.1-1.4-2.5-1-3.6h0Z"/>
    <path class="st0" d="M481.5,387.5c-2.1,2-4.7,1.9-6.8-.2l-1.9-1.9,6.8-6.6,1.9,1.9c2.1,2.2,2.1,4.8,0,6.8h0ZM480.5,386.4c1.4-1.4,1.4-3.2,0-4.7l-.8-.9-4.7,4.5.9.9c1.4,1.5,3.2,1.5,4.7.2h-.1Z"/>
    <path class="st0" d="M483.6,394.4l-3.1-3.2-1.5.5-1.1-1.2,10-3.5h0l-3.9,10-1.1-1.2.6-1.5h.1ZM484.1,393.1l1.5-3.8-3.8,1.4,2.3,2.4Z"/>
  </g>
  <g>
    <path class="st0" d="M253.5,416.3c2.8,0,4.6,2,4.6,4.5s-2.2,4.9-4.9,4.9-4.9-2.2-4.9-4.9.6-2.5,1.4-3.4l1.2.8c-.7.7-1.2,1.7-1.2,2.6,0,1.7,1.4,3.4,3.4,3.4s3.4-1.5,3.4-3.5-1-2.8-2.4-2.8h0v2.9h-1.4v-4.5h.8Z"/>
    <path class="st0" d="M248.4,407.3h9.6l-6.3,6.1h6.2v1.5h-9.6l6.3-6.1h-6.2v-1.5Z"/>
    <path class="st0" d="M253.2,398c2.9,0,4.7,1.9,4.7,4.9v2.7h-9.4v-2.7c0-3,1.8-4.9,4.7-4.9ZM253.2,399.5c-2,0-3.3,1.3-3.3,3.4v1.2h6.5v-1.2c0-2.1-1.2-3.4-3.2-3.4Z"/>
    <path class="st0" d="M271.3,419.3c1.6,0,2.9,1.4,2.9,3.2s-1,2.9-2.3,3.2l-.4-1.5c.7-.2,1.2-.9,1.2-1.7s-.7-1.7-1.5-1.7-1.9,1.2-1.9,2.8l-.9-.2c0-1.1-.5-2.1-1.4-2.1s-1.2.6-1.2,1.3.4,1.1,1,1.2l-.3,1.5c-1.1-.3-2.1-1.3-2.1-2.7s1.1-2.7,2.5-2.7,1.6.6,1.9,1.2c.4-1,1.2-1.7,2.4-1.7h0Z"/>
    <path class="st0" d="M264.7,409.9l9.6,4.4h0l-9.6,4.4v-1.6l6.4-2.8-6.4-2.8v-1.6Z"/>
    <path class="st0" d="M271.3,402.9c1.6,0,2.9,1.4,2.9,3.2s-1,2.9-2.3,3.2l-.4-1.5c.7-.2,1.2-.9,1.2-1.7s-.7-1.7-1.5-1.7-1.9,1.2-1.9,2.8l-.9-.2c0-1.1-.5-2.1-1.4-2.1s-1.2.6-1.2,1.3.4,1.1,1,1.2l-.3,1.5c-1.1-.3-2.1-1.3-2.1-2.7s1.1-2.7,2.5-2.7,1.6.6,1.9,1.2c.4-1,1.2-1.7,2.4-1.7h0Z"/>
  </g>
  <g>
    <path class="st0" d="M297.1,423h9.5v1.5h-7.6l.4,1.3h-1.5l-.7-2.3v-.4h0Z"/>
    <path class="st0" d="M303.6,415c1.7,0,3.2,1.5,3.2,3.3s-1.3,3.3-3.1,3.3-1.6-.5-6.4-3.2v-1.7l3.6,2.1c-.1-.3-.2-.6-.2-.9,0-1.5,1.2-2.9,3-2.9h-.1ZM303.6,416.4c-1,0-1.8.8-1.8,1.8s.8,1.9,1.8,1.9,1.8-.8,1.8-1.8-.8-1.8-1.8-1.8h0Z"/>
  </g>
  <g>
    <path class="st0" d="M280.9,423h9.5v1.5h-7.6l.4,1.3h-1.5l-.7-2.3v-.4h0Z"/>
    <path class="st0" d="M287.1,414.9c2,0,3.4,1.6,3.4,3.5s-.8,2.7-2,3.2l-.5-1.5c.6-.3,1-1.1,1-1.7,0-.9-.7-2-1.9-2s-1.8.8-1.8,1.9.4,1.7,1.1,2.1l-.5.8-4.9-.7v-4.9h1.5v3.8l1.9.3c-.4-.4-.6-1-.6-1.6,0-2,1.4-3.3,3.3-3.3h0Z"/>
  </g>
  <g>
    <path class="st0" d="M424.2,423.4h9.5v1.5h-7.6l.4,1.3h-1.5l-.7-2.3v-.4h0Z"/>
    <path class="st0" d="M431.8,414.8v1h2v1.5h-2v5.1l-7.4-3.5v-1.6l6,2.8v-2.8h-3v-1.5h3v-1h1.5-.1Z"/>
  </g>
  <g>
    <path class="st0" d="M408.2,423.6h9.5v1.5h-7.6l.4,1.3h-1.5l-.7-2.3v-.4h0Z"/>
    <path class="st0" d="M414.9,415.8c1.6,0,2.9,1.4,2.9,3.2s-1,2.9-2.3,3.2l-.4-1.5c.7-.2,1.2-.9,1.2-1.7s-.7-1.7-1.5-1.7-1.9,1.2-1.9,2.8l-.9-.2c0-1.1-.5-2.1-1.4-2.1s-1.2.6-1.2,1.3.4,1.1,1,1.2l-.3,1.5c-1.1-.3-2.1-1.3-2.1-2.7s1.1-2.7,2.5-2.7,1.6.6,1.9,1.2c.4-1,1.2-1.7,2.4-1.7h0Z"/>
  </g>
  <g>
    <path class="st0" d="M345.8,423h9.5v1.5h-7.6l.4,1.3h-1.5l-.7-2.3v-.4h0Z"/>
    <path class="st0" d="M353.9,414.5h1.5v7.1h-.3c-3.1-3.9-4.8-5.5-5.9-5.5s-1.9.9-1.9,1.8.9,2,2,2l-.3,1.4c-1.8,0-3.2-1.5-3.2-3.3s1.5-3.3,3.3-3.3,3.5,1.7,4.8,3.8v-3.9h0Z"/>
  </g>
  <g>
    <path class="st0" d="M398.3,495.4h-9.7v-1.5h5.2l-5.1-3.1h0l5.1-3.2h-5.2v-1.5h9.7c0,.1-6.9,4.6-6.9,4.6l6.9,4.5h0v.2Z"/>
    <path class="st0" d="M396.6,498.7h-2.4v3.6h-1.5v-3.6h-2.6v4.1h-1.5v-5.6h9.4v5.6h-1.5v-4.1h.1Z"/>
    <path class="st0" d="M398.1,512h-9.6l6.3-6.1h-6.2v-1.5h9.6l-6.3,6.1h6.2v1.5Z"/>
    <path class="st0" d="M392.2,513.7h5.9v1.5h-5.9c-1.3,0-2.3.9-2.3,2.1s1,2.1,2.3,2.1h5.9v1.5h-5.9c-2.2,0-3.8-1.6-3.8-3.6s1.6-3.6,3.8-3.6Z"/>
  </g>
  <g>
    <path class="st0" d="M244.1,459.5c0-3.6,2.9-6.5,6.5-6.5s6.5,2.9,6.5,6.5-2.9,6.5-6.5,6.5-6.5-2.9-6.5-6.5ZM255.1,459.5c0-2.5-2-4.5-4.5-4.5s-4.5,2-4.5,4.5,2,4.5,4.5,4.5,4.5-2,4.5-4.5Z"/>
    <path class="st0" d="M258.9,453.2h4.2c2.4,0,4.4,1.9,4.4,4.2s-2,4.1-4.4,4.1h-2.2v4.4h-2v-12.6h0ZM265.6,457.4c0-1.2-1.1-2.2-2.5-2.2h-2.2v4.3h2.2c1.4,0,2.5-.9,2.5-2.1h0Z"/>
    <path class="st0" d="M271.1,455.2v3.2h4.8v2h-4.8v3.5h5.5v2h-7.5v-12.6h7.5v1.9h-5.5Z"/>
    <path class="st0" d="M288.8,453.2v12.8h0l-8.1-8.4v8.2h-2v-12.8h.1l8,8.4v-8.2h2Z"/>
  </g>
  <g>
    <path class="st0" d="M308.8,466.3h-3v-5.7l-3.4,5.5h-.6l-.2-.2-3.3-5.3v5.7h-3v-13.9h.9l5.8,8.7,5.7-8.7h.9v13.9h.2ZM306.8,465.3h1v-10.9l-5.7,8.6-5.7-8.6v10.9h1v-8.3l4.7,7.6,4.7-7.6v8.2h0Z"/>
    <path class="st0" d="M315.3,466.5c-3,0-5.3-2.4-5.3-5.5v-8.3h3v8.3c0,1.4,1,2.5,2.3,2.5s2.3-1.1,2.3-2.5v-8.3h3v8.3c0,3.1-2.3,5.5-5.3,5.5ZM311.1,453.7v7.3c0,2.6,1.8,4.5,4.3,4.5s4.3-1.9,4.3-4.5v-7.3h-1v7.3c0,2-1.4,3.5-3.3,3.5s-3.3-1.5-3.3-3.5v-7.3h-1Z"/>
    <path class="st0" d="M326,466.5c-2.2,0-4-1-4.8-2.7l-.2-.4,2.4-1.7.3.5c.5.8,1.3,1.3,2.4,1.3s2-.5,2-1.1-1.5-1.5-2.8-2c-1.5-.7-3.5-1.5-3.5-3.9s2-4,4.6-4,3.5,1,4.1,2.6v.4c.1,0-2.1,1.6-2.1,1.6l-.2-.5c-.3-.6-1-1-1.7-1s-1.6.5-1.6,1.1.6.8,1.9,1.3l.5.2c1.9.8,3.8,1.9,3.8,4.3s-2.1,4.2-5,4.2v-.2ZM322.3,463.7c.7,1.1,2.1,1.8,3.7,1.8,2.4,0,4-1.3,4-3.2s-1.2-2.5-3.2-3.4l-.5-.2c-1.3-.6-2.5-1-2.5-2.2s1.1-2.1,2.6-2.1,1.8.4,2.3,1.1l.7-.5c-.5-1-1.6-1.6-3-1.6-2.1,0-3.6,1.3-3.6,3s1.2,2.2,2.8,2.9c1.6.7,3.4,1.5,3.4,3s-1.3,2.1-3,2.1-2.3-.5-2.9-1.3l-.8.6h0Z"/>
    <path class="st0" d="M338.1,466.5c-3.9,0-7-3.1-7-7s3.2-7,7-7,3.4.7,4.7,2.1l.3.3-1.8,2.4-.4-.4c-.9-.9-1.9-1.3-2.9-1.3-2.1,0-4,1.9-4,4s2.1,4,4,4,2.3-.7,2.9-1.4l.4-.4,1.7,2.4-.3.3c-1.4,1.4-2.9,2-4.7,2h0ZM338.1,453.5c-3.2,0-6,2.8-6,6s2.8,6,6,6,2.6-.5,3.7-1.5l-.6-.8c-1,.8-2.1,1.3-3.2,1.3-2.6,0-5-2.3-5-5s2.3-5,5-5,2.2.4,3.2,1.2l.6-.7c-1.1-1-2.4-1.5-3.7-1.5Z"/>
    <path class="st0" d="M352.1,466.3h-8.6v-13.6h3v10.6h5.6v3ZM344.5,465.3h6.6v-1h-5.6v-10.6h-1v11.6Z"/>
    <path class="st0" d="M361.2,466.3h-8.5v-13.6h8.5v2.9h-5.5v2.2h4.8v3h-4.8v2.5h5.5v3ZM353.7,465.3h6.5v-1h-5.5v-4.5h4.8v-1h-4.8v-4.2h5.5v-.9h-6.5v11.6Z"/>
  </g>
  <g>
    <path class="st0" d="M275.8,476.3v1.5h-5.7v-9.4h1.5v8h4.2Z"/>
    <path class="st0" d="M283,476.4h-4.5l-.6,1.4h-1.6l4.4-9.6h0l4.4,9.6h-1.6l-.6-1.4h.1ZM282.4,475.1l-1.7-3.7-1.7,3.7h3.4Z"/>
    <path class="st0" d="M285.4,476.2l1.2-.8c.4.7,1.2,1.2,2.1,1.2s1.9-.5,1.9-1.2-1.2-1.4-2.3-1.9c-1.1-.5-2.3-1.1-2.3-2.5s1.3-2.6,3-2.6,2.4.7,2.7,1.7l-1.1.8c-.3-.6-.9-1-1.6-1s-1.6.5-1.6,1.2.9,1,2,1.5c1.5.7,2.7,1.4,2.7,2.9s-1.5,2.8-3.4,2.8-2.7-.7-3.3-1.8v-.3Z"/>
    <path class="st0" d="M298.3,477.8l-3.5-4.6v4.6h-1.5v-9.4h1.5v4.5l3.2-4.5h1.7l-3.4,4.6,3.7,4.8h-1.8,0Z"/>
    <path class="st0" d="M307.4,474.5c0,2-1.6,3.4-3.5,3.4s-2.7-.8-3.2-2l1.5-.5c.3.6,1.1,1,1.7,1,.9,0,2-.7,2-1.9s-.8-1.8-1.9-1.8-1.7.4-2.1,1.1l-.8-.5.7-4.9h4.9v1.5h-3.8l-.3,1.9c.4-.4,1-.6,1.6-.6,2,0,3.3,1.4,3.3,3.3h-.1Z"/>
    <path class="st0" d="M320.3,468.4l-4.4,9.6h0l-4.3-9.6h1.6l2.8,6.4,2.8-6.4h1.6-.1Z"/>
    <path class="st0" d="M328,476.3v1.5h-7.1v-.3c3.9-3.1,5.5-4.8,5.5-5.9s-.9-1.9-1.8-1.9-2,.9-2,2l-1.4-.3c0-1.8,1.5-3.2,3.3-3.2s3.3,1.5,3.3,3.3-1.7,3.5-3.8,4.8h4Z"/>
    <path class="st0" d="M329.1,477.1c0-.5.5-1,1-1s1,.5,1,1-.5,1-1,1-1-.4-1-1Z"/>
    <path class="st0" d="M335,468.3v9.5h-1.5v-7.6l-1.3.4v-1.5l2.3-.7h.5Z"/>
  </g>
  <g>
    <path class="st0" d="M29.6,383.8v1.8h-7.1v-11.7h1.8v9.9h5.3Z"/>
    <path class="st0" d="M38.6,383.8h-5.6l-.8,1.8h-2l5.5-12h0l5.5,12h-2l-.8-1.8h0ZM37.9,382.3l-2.1-4.6-2.1,4.6h4.2Z"/>
    <path class="st0" d="M41.6,383.6l1.5-1c.5.9,1.5,1.4,2.6,1.4s2.3-.6,2.3-1.5-1.5-1.7-2.9-2.3c-1.4-.6-2.9-1.3-2.9-3.2s1.7-3.3,3.8-3.3,2.9.8,3.4,2.1l-1.4.9c-.4-.8-1.2-1.2-2-1.2s-1.9.7-1.9,1.5,1.1,1.2,2.5,1.9c1.9.8,3.3,1.7,3.3,3.6s-1.8,3.4-4.2,3.4-3.4-.9-4.1-2.3Z"/>
    <path class="st0" d="M57.6,385.6l-4.3-5.7v5.7h-1.8v-11.7h1.8v5.6l4-5.6h2.1l-4.2,5.8,4.6,6h-2.2,0Z"/>
    <path class="st0" d="M68.9,381.5c0,2.5-1.9,4.2-4.3,4.2s-3.4-1-4-2.5l1.8-.6c.4.7,1.3,1.2,2.1,1.2,1.2,0,2.5-.8,2.5-2.4s-1-2.3-2.4-2.3-2.1.5-2.6,1.4l-1-.6.9-6.1h6v1.8h-4.7l-.4,2.4c.5-.5,1.2-.7,2-.7,2.5,0,4.1,1.7,4.1,4.1h0Z"/>
    <path class="st0" d="M84.9,373.9l-5.4,12h0l-5.4-12h2l3.5,7.9,3.5-7.9h2,0Z"/>
    <path class="st0" d="M94.5,383.8v1.8h-8.8v-.4c4.8-3.9,6.8-5.9,6.8-7.4s-1.1-2.3-2.2-2.3-2.5,1.1-2.5,2.5l-1.7-.4c0-2.2,1.8-3.9,4.1-3.9s4.1,1.9,4.1,4.1-2.1,4.3-4.7,6h4.9,0Z"/>
    <path class="st0" d="M95.9,384.7c0-.7.6-1.2,1.2-1.2s1.2.6,1.2,1.2-.6,1.2-1.2,1.2-1.2-.6-1.2-1.2Z"/>
    <path class="st0" d="M103.2,373.8v11.8h-1.8v-9.5l-1.6.5v-1.9l2.9-.9h.5Z"/>
  </g>
  <g>
    <path class="st0" d="M412.1,496.6l1.2-.8c.4.7,1.2,1.2,2.1,1.2s1.9-.5,1.9-1.2-1.2-1.4-2.3-1.9c-1.1-.5-2.3-1.1-2.3-2.5s1.3-2.6,3-2.6,2.4.7,2.7,1.7l-1.1.8c-.3-.6-.9-1-1.6-1s-1.6.5-1.6,1.2.9,1,2,1.5c1.5.7,2.7,1.4,2.7,2.9s-1.5,2.8-3.4,2.8-2.7-.7-3.3-1.8v-.3Z"/>
    <path class="st0" d="M421.5,490.3v2.4h3.6v1.5h-3.6v2.6h4.1v1.5h-5.6v-9.4h5.6v1.5h-4.1Z"/>
    <path class="st0" d="M432.9,496.8v1.5h-5.7v-9.4h1.5v8h4.2Z"/>
    <path class="st0" d="M435.6,490.3v2.4h3.6v1.5h-3.6v2.6h4.1v1.5h-5.6v-9.4h5.6v1.5h-4.1Z"/>
    <path class="st0" d="M440.8,493.5c0-2.7,2.2-4.9,4.9-4.9s2.4.5,3.3,1.4l-.9,1.2c-.7-.7-1.5-1.1-2.4-1.1-1.7,0-3.3,1.5-3.3,3.4s1.7,3.4,3.4,3.4,1.8-.5,2.4-1.1l.9,1.2c-.8.8-1.9,1.4-3.3,1.4-2.7,0-4.9-2.2-4.9-4.9h-.1Z"/>
    <path class="st0" d="M456,490.3h-2.5v8h-1.5v-8h-2.5v-1.5h6.6v1.5h-.1Z"/>
  </g>
  <g>
    <path class="st0" d="M546.2,344.3c0-2.7,2.2-4.9,4.9-4.9s4.9,2.2,4.9,4.9-2.2,4.9-4.9,4.9-4.9-2.2-4.9-4.9ZM554.4,344.3c0-1.9-1.5-3.4-3.4-3.4s-3.4,1.5-3.4,3.4,1.5,3.4,3.4,3.4,3.4-1.5,3.4-3.4Z"/>
    <path class="st0" d="M564.9,339.6v9.6h0l-6-6.3v6.2h-1.5v-9.6h0l6,6.3v-6.2h1.5Z"/>
    <path class="st0" d="M569.7,338.9h1.3l-3.8,10.9h-1.3l3.8-10.9Z"/>
    <path class="st0" d="M571.6,344.3c0-2.7,2.2-4.9,4.9-4.9s4.9,2.2,4.9,4.9-2.2,4.9-4.9,4.9-4.9-2.2-4.9-4.9ZM579.9,344.3c0-1.9-1.5-3.4-3.4-3.4s-3.4,1.5-3.4,3.4,1.5,3.4,3.4,3.4,3.4-1.5,3.4-3.4Z"/>
    <path class="st0" d="M584.2,341v2.5h3.6v1.5h-3.6v4h-1.5v-9.5h5.6v1.5h-4.1Z"/>
    <path class="st0" d="M591,341v2.5h3.6v1.5h-3.6v4h-1.5v-9.5h5.6v1.5h-4.1Z"/>
  </g>
  <g>
    <path class="st0" d="M562.9,315.8h1.5v9.4h-1.5v-9.4Z"/>
    <path class="st0" d="M569.3,315.1h1.3l-3.8,10.9h-1.3l3.8-10.9Z"/>
    <path class="st0" d="M571.2,320.5c0-2.8,1.6-4.9,3.9-4.9s3.9,2,3.9,4.9-1.6,4.9-3.9,4.9-3.9-2-3.9-4.9ZM577.4,320.5c0-2-.9-3.4-2.4-3.4s-2.4,1.4-2.4,3.4.9,3.4,2.4,3.4,2.4-1.4,2.4-3.4Z"/>
  </g>
  <g>
    <path class="st0" d="M173.5,498.2l-2.5-3.7h-1.2v3.7h-1.5v-9.4h2.9c1.8,0,3.2,1.4,3.2,3s-.8,2.3-1.9,2.6l2.7,3.8h-1.8.1ZM171.3,493.4c.9,0,1.6-.7,1.6-1.6s-.8-1.5-1.6-1.5h-1.5v3.1h1.5Z"/>
    <path class="st0" d="M175.8,496.6l1.2-.8c.4.7,1.2,1.2,2.1,1.2s1.9-.5,1.9-1.2-1.2-1.4-2.3-1.9-2.3-1.1-2.3-2.5,1.3-2.6,3-2.6,2.4.7,2.7,1.7l-1.1.8c-.3-.6-.9-1-1.6-1s-1.6.5-1.6,1.2.9,1,2,1.5c1.5.7,2.7,1.4,2.7,2.9s-1.5,2.8-3.4,2.8-2.7-.7-3.3-1.8v-.3Z"/>
    <path class="st0" d="M189.6,490.3h-2.5v8h-1.5v-8h-2.5v-1.5h6.6v1.5h-.1Z"/>
  </g>
  <path class="st0" d="M212.2,501.9c0-2.8,1.6-4.9,3.9-4.9s3.9,2,3.9,4.9-1.6,4.9-3.9,4.9-3.9-2-3.9-4.9ZM218.4,501.9c0-2-.9-3.4-2.4-3.4s-2.4,1.4-2.4,3.4.9,3.4,2.4,3.4,2.4-1.4,2.4-3.4Z"/>
  <g>
    <path class="st0" d="M48.3,351.9c0-9.8,7.7-17.8,17.2-17.8s17.2,8,17.2,17.8-7.8,17.6-17.3,17.6-17.2-7.9-17.2-17.6h.1ZM76,351.9c0-6-4.7-10.8-10.5-10.8s-10.5,4.9-10.5,10.8,4.7,10.7,10.5,10.7,10.5-4.8,10.5-10.7Z"/>
    <path class="st0" d="M120.4,369.8h-8.4v-12.8l-8.2,12.2h-1l-.3-.4-7.9-11.8v12.8h-8.4v-36.7h1.7l15.4,21.8,15.4-21.8h1.7v36.7h0ZM113.7,368h4.9v-31.7l-15.3,21.7-15.3-21.7v31.7h4.9v-16.9l10.5,15.6,10.4-15.6v16.9h0Z"/>
    <g>
      <path class="st0" d="M24.8,369.7l-1.4-1.4.2-.2,1.4,1.4-.2.2ZM26.4,368.1l-1.4-1.4,1.4-1.4,1.4,1.4-1.4,1.4ZM29.2,365.2l-1.4-1.4,1.4-1.4,1.4,1.4-1.4,1.4ZM32,362.3l-1.4-1.4,1.4-1.4,1.4,1.4-1.4,1.4ZM34.8,359.4l-1.4-1.4,1.4-1.4,1.4,1.4-1.4,1.4ZM37.6,356.5l-1.4-1.4,1.4-1.4,1.4,1.4-1.4,1.4ZM40.3,353.7l-1.4-1.4,1.4-1.4,1.4,1.4-1.4,1.4ZM43.1,350.8l-1.4-1.4,1.4-1.4,1.4,1.4-1.4,1.4ZM45.9,347.9l-1.4-1.4,1.4-1.4,1.4,1.4-1.4,1.4ZM48.7,345l-1.4-1.4,1.4-1.4,1.4,1.4-1.4,1.4ZM51.5,342.1l-1.4-1.4,1.4-1.4,1.4,1.4-1.4,1.4ZM54.3,339.2l-1.4-1.4,1.4-1.4,1.4,1.4-1.4,1.4ZM57,336.3l-1.4-1.4,1.4-1.4,1.4,1.4-1.4,1.4Z"/>
      <polygon class="st0" points="84.7 369.8 22.4 369.8 39.5 323 41.3 323.6 25.3 367.8 84.7 367.8 84.7 369.8"/>
    </g>
    <path class="st0" d="M58.4,330.5c-1.7-1.5-6.1-5.1-10.6-7.2h2.3c0-.1-.3-1.5-.3-1.5l-5.3.3h0l2.9,5.4,1.2-.7-1.1-2c4.1,2,8.1,5.4,9.8,6.7l.3.3.9-1.1-.3-.3h.2Z"/>
  </g>
  <g>
    <path class="st0" d="M348.4,405.7l5.4,2.5h0s-5.4,2.5-5.4,2.5v-1.1l3.1-1.4-3.1-1.4v-1.1Z"/>
    <path class="st0" d="M352.1,401.5c.8,0,1.6.6,1.6,1.7v2h-5.3v-1.4c0-.9.7-1.5,1.4-1.5s.9.4.9.5c0-.5.5-1.2,1.4-1.2ZM349.4,404.1h1v-.4c0-.3-.2-.5-.5-.5s-.5.2-.5.5v.4ZM352,402.5c-.3,0-.6.2-.6.7v.8h1.3v-.8c0-.3-.2-.7-.6-.7Z"/>
    <path class="st0" d="M353,397.8v2.1l.7.3v1.1l-5.4-2.5h0s5.4-2.6,5.4-2.6v1.2l-.7.3ZM352.1,398.2l-1.4.6,1.4.6v-1.3Z"/>
    <path class="st0" d="M349.5,393.1v1.3h4.2v1.1h-4.2v1.3h-1.1v-3.7h1.1Z"/>
  </g>
</svg>